<?xml version="1.0" encoding="utf-8"?>
<!-- Generator: Adobe Illustrator 19.1.0, SVG Export Plug-In . SVG Version: 6.00 Build 0)  -->
<svg version="1.1" id="Layer_1" xmlns="http://www.w3.org/2000/svg" xmlns:xlink="http://www.w3.org/1999/xlink" x="0px" y="0px"
	 viewBox="0 0 374 61" style="enable-background:new 0 0 374 61;" xml:space="preserve">
<style type="text/css">
	.st0{fill:#BB7837;}
	.st1{fill:#635E59;}
	.st2{fill:url(#SVGID_1_);}
	.st3{fill:url(#SVGID_2_);}
	.st4{fill:url(#SVGID_3_);}
	.st5{fill:#B4B6B7;}
	.st6{fill:url(#SVGID_4_);}
</style>
<g>
	<g>
		<path class="st0" d="M78.5,30.6c-2.3,0.8-4.8,1.4-7.3,1.8l-0.3-2l1.8-0.2c0.5-0.1,1-0.2,1.5-0.3v-7h-2.9v-1.8h2.9v-2h-1.8v-0.9
			l-0.7,0.7L70.9,17c1.7-1.5,2.9-3.1,3.5-4.8H76c1.1,1.2,2.1,2.6,3,4.2l-1.6,1.2l-1.1-1.9c-0.2-0.4-0.4-0.7-0.6-1
			c-0.1-0.1-0.2-0.3-0.3-0.4c-0.1,0.2-0.2,0.4-0.3,0.6c-0.5,1-1.2,1.9-2,2.8h4.9v1.7H76v2h2.6V23H76v6.6l1.3-0.3
			c0.3-0.1,0.8-0.2,1.2-0.4L78.5,30.6z M71.9,29.1c-0.1-1.8-0.3-3.3-0.6-4.5l1.4-0.2c0.2,0.8,0.5,2.1,0.7,4c0,0.1,0,0.3,0,0.5
			L71.9,29.1z M78.4,24.4l-0.1,1.8c-0.1,0.9-0.2,1.6-0.3,2.1l-1.4-0.2c0-0.2,0-0.3,0-0.4c0.2-1.3,0.3-2.1,0.3-2.6c0-0.4,0-0.7,0-0.8
			L78.4,24.4z M86.4,12v1.1h5.5v1.5h-5.5v0.9h4.6v1.4H80v-1.4h4.5v-0.9h-5.6v-1.5h5.6V12H86.4z M90.3,28.3v2v0.3
			c0,0.9-0.2,1.5-0.5,1.8c-0.3,0.3-1,0.5-1.9,0.5h-1.1l-0.5-1.7l1.6,0c0.5,0,0.7-0.2,0.7-0.7v-2.3h-3.7v-1.5h3.7v-1h-9.6v-1.6h13
			v1.6h-1.6v1H92v1.5H90.3z M89.3,20.9c0.3-0.5,0.5-1,0.6-1.5c0,0,0-0.1,0-0.1H79.1v-1.6h12.8c0,1.3-0.3,2.5-1,3.7L89.3,20.9z
			 M88.7,20v1.3h-3v0.9h5.1v1.4H79.3v-1.4h4.5v-0.9H80V20H88.7z M79.4,26.6h4.7v5.8h-1.6v-0.9h-1.5v1.2h-1.6V26.6z M82.5,28.1h-1.5
			v2h1.5V28.1z M86,31c-0.1-0.3-0.3-0.6-0.5-1l-0.6-0.9l1.2-0.7c0.2,0.2,0.5,0.5,0.7,0.8l0.7,1L86,31z"/>
		<path class="st0" d="M98.8,19.6v-2h2.4V12h2v5.5h1.8v2h-1.8V33h-2V19.6H98.8z M113,12v2h3.2c-0.1-0.1-0.1-0.1-0.1-0.2
			c-0.1-0.1-0.2-0.3-0.3-0.4l-0.7-0.6l1.4-0.8l0.8,0.6c0.1,0.1,0.3,0.3,0.6,0.6l0.1,0.1l-1.2,0.6h3v1.8H113v0.9h5.9v6.6v0.5
			c0,0.7-0.1,1.1-0.3,1.4c-0.2,0.2-0.7,0.4-1.3,0.5v0.7h2.6v1.9h-2.6v2.2v0.5c0,1.3-0.7,1.9-2,1.9h-2.3l-0.5-2l2.2,0.1
			c0.5,0,0.7-0.2,0.7-0.6v-2.1h-6.6c0.2,0.1,0.3,0.2,0.4,0.3c0.3,0.2,0.5,0.5,0.8,0.8l1.3,1.4l-1.6,1.4c-0.6-0.8-1.3-1.7-2.1-2.5
			l-0.4-0.4l1.5-1.1h-3.9v-1.9h10.7v-0.7h-0.6l-0.5-1.5l2.2,0c0.2,0,0.4,0,0.5-0.1c0.1,0,0.1-0.2,0.1-0.5v-0.3h-4v1.9h-1.9v-1.9
			h-3.4v2.4h-1.9v-9h5.3v-0.9h-5.9V14h5.9v-2H113z M111.1,19.3v-1h-3.4v1H111.1z M111.1,21.9v-1.1h-3.4v1.1H111.1z M117,19.3v-1h-4
			v1H117z M117,21.9v-1.1h-4v1.1H117z"/>
		<path class="st0" d="M126.6,32.4v-2h6.4v-4h-5.1V18h5.1v-3.2h-5.9v-2h20.1v2h-6V18h5.1v8.3h-5.1v4h6.4v2H126.6z M135.3,14.9v5.1
			H130v4.5h5.3v5.9h3.7v-5.9h5.3v-4.5H139v-5.1H135.3z"/>
		<path class="st0" d="M157.9,17.5c0,0.4-0.1,0.8-0.1,1c-0.2,1.9-0.5,3.8-1.2,5.8l-2.1-0.8c0.7-1.8,1.2-3.9,1.4-6.5L157.9,17.5z
			 M156.7,32.6l-1.9-1.8c1-0.8,1.9-1.7,2.5-2.5c0.6-0.9,1-1.8,1.3-2.9c0.3-1.1,0.4-2.8,0.4-5.2v-7.9h2.2v9.5c0,2-0.3,3.9-0.9,5.7
			C159.7,29.3,158.5,31,156.7,32.6z M163.2,24.3c-0.4-2.3-0.7-3.7-0.9-4.4c-0.2-0.6-0.5-1.3-0.8-2l2-0.8c0.7,2,1.4,4.2,1.9,6.6
			L163.2,24.3z M165.7,12.5h2.1v19.8h-2.1V12.5z M170.2,24.1c-0.2-1.9-0.9-4-1.9-6.4l1.9-0.8c0.9,2.1,1.5,3.8,1.9,5.3
			c0.1,0.3,0.2,0.7,0.3,1.2L170.2,24.1z M172.8,12h2.2v21h-2.2V12z"/>
		<path class="st0" d="M187.9,18.3c-0.8,0.6-2.4,1.2-4.8,2l-0.6-2c0.3-0.1,0.5-0.1,0.7-0.2c1.8-0.5,3.2-1,4.2-1.5L187.9,18.3z
			 M191.3,31.2c-2.4,0.7-4.7,1.3-6.9,1.7c-0.2,0-0.4,0.1-0.8,0.1l-1-1.7c3.2-0.5,5.7-1.1,7.3-1.6L191.3,31.2z M186.8,16
			c-0.3-0.2-0.9-0.6-1.9-1.1l-1.7-0.9l1.3-1.5c1.5,0.5,2.7,1.2,3.6,1.9L186.8,16z M189.4,20.1l-1.1-1.2c2.7-0.8,4.6-2,5.7-3.6h-2.1
			c-0.1,0.1-0.2,0.2-0.3,0.2c-0.5,0.4-0.8,0.7-1.1,0.9l-1.4,1l-1.3-1.5c1.5-0.9,2.5-1.6,3-2.2c0.5-0.5,1.1-1.1,1.6-1.8l1.9,0.6
			l-0.4,0.6l-0.4,0.5h8.8v1.6c-0.5,0.6-1.3,1.2-2.2,2c-0.2,0.1-0.4,0.3-0.6,0.5l-1.2-1.2l1-0.6l0.8-0.6h-3.9l-0.2,0.4
			c1.2,1,2.3,1.8,3.1,2.1c0.8,0.4,2.3,0.7,4.4,1l-0.5,2l-0.9-0.2l-0.8-0.2v9.2h-15.9v-9.4H189.4z M198.9,21.7h-11.8v1.1h11.8V21.7z
			 M187.1,25.3h11.8v-1.2h-11.8V25.3z M187.1,28h11.8v-1.3h-11.8V28z M195,17.1l-0.7,0.7c-1.1,1.1-2.4,1.8-4,2.3h9.7
			C198.2,19.7,196.5,18.7,195,17.1z M202.5,33L199,32c-0.6-0.2-1.6-0.4-3.1-0.6c-0.2,0-0.5-0.1-0.9-0.2l1.1-1.6l1.3,0.2
			c2.3,0.4,4.3,0.8,6,1.3L202.5,33z"/>
		<path class="st0" d="M224.1,22v1.9h6.1v1.8h-6.1v1.5h5.4V29h-5.4v1.6h7.1v1.9H214v-1.9h7.9V29h-5.2v-1.8h5.2v-1.5h-4.3
			c-0.1,0.2-0.2,0.3-0.3,0.5c-0.4,0.7-0.9,1.3-1.4,2c0,0-0.1,0.1-0.2,0.2l-1.6-1.2c1.1-1.1,1.9-2.6,2.6-4.5c0-0.1,0.1-0.3,0.2-0.5
			l1.9,0.6l-0.3,0.7l-0.2,0.5h3.4V22h-7.7v2.1v0.4c0,2.9-0.7,5.7-2.2,8.4l-1.8-1.3c1.2-2.1,1.8-4.7,1.8-7.6v-3.8h18.8V22H224.1z
			 M211.7,15.5v-1.8h8.2l-0.3-0.6l-0.5-0.8l2.2-0.3l0.5,0.8l0.4,0.8h8.2v1.8H227c-0.1,0.2-0.2,0.3-0.3,0.4c-0.2,0.3-0.5,0.5-0.8,0.7
			l-0.9,0.8l2.1,0.5l2.3,0.6l-0.9,1.7c-0.2-0.1-0.4-0.1-0.5-0.2c-1-0.3-1.9-0.6-2.5-0.8l-2.6-0.7c-2.3,1.1-4.9,1.6-8,1.6h-0.3h-0.1
			l-0.7-1.6c0.1,0,0.3,0,0.4,0c0.2,0,0.4,0,0.7,0h0.3c1.9,0,3.5-0.2,4.9-0.7l-2.2-0.5l-2.7-0.5l0.8-1.3l3.5,0.6l3.2,0.6l0.3-0.1
			c0.5-0.3,0.9-0.6,1.4-1c0,0,0.1-0.1,0.2-0.1H211.7z"/>
		<path class="st0" d="M248.5,15.1c0.8-0.6,1.6-1.6,2.4-3l2.1,0.3l-0.3,0.6l-0.3,0.5h6.9v1.8h-4l0.2,0.7l0.3,1l-2,0.4l-0.3-1.3
			l-0.3-0.8h-2.1l-0.6,0.8l-0.7,0.7l-1.3-1.5h-3.2l0.2,0.7l0.3,1l-2.1,0.3l-0.3-1.2l-0.3-0.9h-1.7l-0.2,0.2
			c-0.2,0.2-0.5,0.4-0.6,0.6l-1.3,1l-1.2-1.6c1.3-0.8,2.5-1.9,3.4-3.4l2.1,0.3l-0.4,0.7l-0.4,0.5h5.7V15.1z M247.4,18.1l-0.3-0.9
			c-0.1-0.3-0.3-0.6-0.5-0.9l2.1-0.3c0.2,0.3,0.4,0.6,0.5,1l0.3,1h9.3v5h-2v-3.2h-16.2v3.2h-2v-5H247.4z M255.9,21.1v4.7h-12.8v1.3
			h13.5V33h-2v-1h-11.6v1h-2V21.1H255.9z M254,22.8h-10.8v1.4H254V22.8z M254.7,28.7h-11.6v1.7h11.6V28.7z"/>
		<path class="st0" d="M270.9,27.2l1.3-0.5l1.2-0.5v2.2c-2.5,1.2-4.9,2.1-7.1,2.9l-0.3-2.3c0.2,0,0.3-0.1,0.4-0.1
			c1.1-0.3,1.9-0.5,2.4-0.8v-5.9h-2.6v-1.9h2.6v-4.9h-2.8v-2h7.3v2h-2.4v4.9h2.2v1.9h-2.2V27.2z M272.5,32.4v-1.9h6.5V28h-4.7v-1.9
			h4.7v-2.3h-4.9v-11H286v11h-5v2.3h5.1V28H281v2.5h5.9v1.9H272.5z M279,17.3v-2.8h-2.8v2.8H279z M279,22v-3h-2.8v3H279z M284,17.3
			v-2.8H281v2.8H284z M284,22v-3H281v3H284z"/>
	</g>
	<g>
		<path class="st1" d="M72.4,44.3c0-2.7,0-3.2,0-3.7c0-0.6-0.2-0.9-0.7-1c-0.1,0-0.4-0.1-0.6-0.1c-0.1,0-0.1,0-0.1-0.1
			c0-0.1,0.1-0.1,0.3-0.1c0.8,0,1.9,0.1,1.9,0.1c0.4,0,1.1-0.1,1.9-0.1c2.8,0,3.4,1.7,3.4,2.6c0,1.4-0.8,2.3-1.6,3.1
			c1.3,0.4,3,1.6,3,3.6c0,1.8-1.4,3.8-4.4,3.8c-0.2,0-0.7,0-1.2-0.1c-0.5,0-1-0.1-1-0.1c0,0-0.3,0-0.7,0c-0.3,0-0.7,0-1,0
			c-0.2,0-0.3,0-0.3-0.1c0-0.1,0-0.1,0.1-0.1c0.2,0,0.4,0,0.5-0.1c0.3-0.1,0.4-0.4,0.5-0.9c0.1-0.7,0.1-2.1,0.1-3.7V44.3z
			 M73.8,44.7c0,0.1,0,0.2,0.1,0.2c0.1,0,0.4,0.1,1,0.1c1,0,1.2,0,1.6-0.4c0.4-0.4,0.6-1,0.6-1.7c0-1.4-0.6-3-2.3-3
			c-0.2,0-0.6,0-0.8,0.1c-0.2,0-0.2,0.1-0.2,0.2V44.7z M73.8,46.5c0,1.3,0,3.5,0,3.7c0.1,0.8,0.1,1.1,0.6,1.3
			c0.5,0.2,1.2,0.3,1.5,0.3c0.9,0,2.4-0.5,2.4-2.4c0-1-0.3-2.5-1.7-3.4c-0.6-0.4-1-0.4-1.4-0.5c-0.2,0-1.1,0-1.3,0
			c-0.1,0-0.1,0-0.1,0.1V46.5z"/>
		<path class="st1" d="M83,45.5c0-2.3,0-2.7,0-3.1c0-0.5-0.1-0.7-0.6-0.8c-0.1,0-0.4,0-0.5,0c-0.1,0-0.1-0.1-0.1-0.1
			c0-0.1,0.1-0.1,0.2-0.1c0.7,0,1.7,0,1.8,0c0.2,0,1.4,0,1.9,0c1,0,2,0.1,2.8,0.6c0.4,0.3,1.1,1,1.1,2c0,1.1-0.4,2.1-1.9,3.3
			c1.2,1.5,2.3,2.9,3.2,3.8c0.8,0.8,1.3,1,1.7,1c0.3,0.1,0.4,0.1,0.5,0.1s0.1,0.1,0.1,0.1c0,0.1-0.1,0.1-0.4,0.1h-0.9
			c-0.9,0-1.2-0.1-1.6-0.3c-0.7-0.3-1.2-1.1-2.1-2.2c-0.6-0.8-1.3-1.7-1.6-2.1c-0.1-0.1-0.1-0.1-0.2-0.1l-1.9,0
			c-0.1,0-0.1,0-0.1,0.1v0.3c0,1.4,0,2.5,0.1,3.1c0.1,0.4,0.1,0.7,0.6,0.8c0.2,0,0.5,0.1,0.7,0.1c0.1,0,0.1,0.1,0.1,0.1
			c0,0.1-0.1,0.1-0.2,0.1c-0.8,0-1.8-0.1-1.9-0.1c0,0-1,0.1-1.5,0.1c-0.2,0-0.2,0-0.2-0.1c0-0.1,0-0.1,0.1-0.1c0.1,0,0.3,0,0.5-0.1
			c0.3-0.1,0.3-0.3,0.4-0.8c0.1-0.6,0.1-1.8,0.1-3.2V45.5z M84.3,46.8c0,0.1,0,0.1,0.1,0.2c0.2,0.1,1,0.2,1.7,0.2
			c0.4,0,0.8,0,1.1-0.3c0.5-0.3,0.9-1.1,0.9-2.2c0-1.8-1-2.9-2.6-2.9c-0.4,0-0.9,0.1-1.1,0.1c-0.1,0-0.1,0.1-0.1,0.2V46.8z"/>
		<path class="st1" d="M95.4,48.1c0,1.4,0,2.6,0.1,3.2c0.1,0.4,0.1,0.7,0.6,0.8c0.2,0,0.6,0.1,0.7,0.1c0.1,0,0.1,0.1,0.1,0.1
			c0,0.1-0.1,0.1-0.2,0.1c-0.8,0-1.8-0.1-1.9-0.1c-0.1,0-1,0.1-1.5,0.1c-0.2,0-0.2,0-0.2-0.1c0-0.1,0-0.1,0.1-0.1
			c0.1,0,0.3,0,0.5-0.1c0.3-0.1,0.3-0.3,0.4-0.8c0.1-0.6,0.1-1.8,0.1-3.2v-2.6c0-2.3,0-2.7,0-3.1c0-0.5-0.2-0.7-0.5-0.8
			c-0.2,0-0.4-0.1-0.5-0.1c-0.1,0-0.1-0.1-0.1-0.1c0-0.1,0.1-0.1,0.2-0.1c0.5,0,1.4,0,1.5,0c0.1,0,1.1,0,1.5,0c0.2,0,0.2,0,0.2,0.1
			c0,0.1-0.1,0.1-0.1,0.1c-0.1,0-0.2,0-0.4,0c-0.4,0.1-0.5,0.3-0.5,0.8c0,0.5,0,0.9,0,3.1V48.1z"/>
		<path class="st1" d="M101.1,48.1c0,2.2,0,3,0.3,3.3c0.2,0.2,0.8,0.3,2,0.3c0.8,0,1.5,0,1.8-0.4c0.2-0.2,0.3-0.5,0.4-0.8
			c0-0.1,0.1-0.2,0.2-0.2c0.1,0,0.1,0.1,0.1,0.2c0,0.2-0.1,1-0.2,1.5c-0.1,0.3-0.2,0.4-1,0.4c-1.1,0-1.9,0-2.6-0.1
			c-0.7,0-1.2,0-1.7,0c-0.1,0-0.3,0-0.6,0c-0.3,0-0.6,0-0.9,0c-0.2,0-0.2,0-0.2-0.1c0-0.1,0-0.1,0.1-0.1c0.1,0,0.3,0,0.5-0.1
			c0.3-0.1,0.3-0.3,0.4-0.8c0.1-0.6,0.1-1.8,0.1-3.2v-2.6c0-2.3,0-2.7,0-3.1c0-0.5-0.1-0.7-0.6-0.8c-0.1,0-0.4,0-0.5,0
			c-0.1,0-0.1-0.1-0.1-0.1c0-0.1,0.1-0.1,0.2-0.1c0.7,0,1.6,0,1.7,0c0.1,0,1.2,0,1.7,0c0.2,0,0.2,0,0.2,0.1c0,0.1-0.1,0.1-0.1,0.1
			c-0.1,0-0.3,0-0.5,0c-0.4,0.1-0.5,0.3-0.6,0.8c0,0.5,0,0.9,0,3.1V48.1z"/>
		<path class="st1" d="M109.8,48.1c0,2.2,0,3,0.3,3.3c0.2,0.2,0.8,0.3,2,0.3c0.8,0,1.5,0,1.8-0.4c0.2-0.2,0.3-0.5,0.4-0.8
			c0-0.1,0.1-0.2,0.2-0.2c0.1,0,0.1,0.1,0.1,0.2c0,0.2-0.1,1-0.2,1.5c-0.1,0.3-0.2,0.4-1,0.4c-1.1,0-1.9,0-2.6-0.1
			c-0.7,0-1.2,0-1.7,0c-0.1,0-0.3,0-0.6,0c-0.3,0-0.6,0-0.9,0c-0.2,0-0.2,0-0.2-0.1c0-0.1,0-0.1,0.1-0.1c0.1,0,0.3,0,0.5-0.1
			c0.3-0.1,0.3-0.3,0.4-0.8c0.1-0.6,0.1-1.8,0.1-3.2v-2.6c0-2.3,0-2.7,0-3.1c0-0.5-0.1-0.7-0.6-0.8c-0.1,0-0.4,0-0.5,0
			c-0.1,0-0.1-0.1-0.1-0.1c0-0.1,0.1-0.1,0.2-0.1c0.7,0,1.6,0,1.7,0c0.1,0,1.2,0,1.7,0c0.2,0,0.2,0,0.2,0.1c0,0.1-0.1,0.1-0.1,0.1
			c-0.1,0-0.3,0-0.5,0c-0.4,0.1-0.5,0.3-0.6,0.8c0,0.5,0,0.9,0,3.1V48.1z"/>
		<path class="st1" d="M118.4,48.1c0,1.4,0,2.6,0.1,3.2c0.1,0.4,0.1,0.7,0.6,0.8c0.2,0,0.6,0.1,0.7,0.1c0.1,0,0.1,0.1,0.1,0.1
			c0,0.1-0.1,0.1-0.2,0.1c-0.8,0-1.8-0.1-1.9-0.1c-0.1,0-1,0.1-1.5,0.1c-0.2,0-0.2,0-0.2-0.1c0-0.1,0-0.1,0.1-0.1
			c0.1,0,0.3,0,0.5-0.1c0.3-0.1,0.3-0.3,0.4-0.8c0.1-0.6,0.1-1.8,0.1-3.2v-2.6c0-2.3,0-2.7,0-3.1c0-0.5-0.2-0.7-0.5-0.8
			c-0.2,0-0.4-0.1-0.5-0.1c-0.1,0-0.1-0.1-0.1-0.1c0-0.1,0.1-0.1,0.2-0.1c0.5,0,1.4,0,1.5,0c0.1,0,1.1,0,1.5,0c0.2,0,0.2,0,0.2,0.1
			c0,0.1-0.1,0.1-0.1,0.1c-0.1,0-0.2,0-0.4,0c-0.4,0.1-0.5,0.3-0.5,0.8c0,0.5,0,0.9,0,3.1V48.1z"/>
		<path class="st1" d="M125.5,41.6c0.2-0.5,0.3-0.6,0.4-0.6c0.2,0,0.2,0.2,0.4,0.5c0.3,0.6,2.7,6.7,3.6,8.9c0.6,1.3,1,1.5,1.3,1.6
			c0.2,0.1,0.4,0.1,0.6,0.1c0.1,0,0.2,0,0.2,0.1c0,0.1-0.2,0.1-0.3,0.1c-0.2,0-1.3,0-2.4,0c-0.3,0-0.5,0-0.5-0.1
			c0-0.1,0-0.1,0.1-0.1c0.1,0,0.2-0.2,0.1-0.4l-1.4-3.4c0-0.1-0.1-0.1-0.1-0.1h-3.5c-0.1,0-0.1,0-0.2,0.1l-0.9,2.3
			c-0.1,0.4-0.2,0.7-0.2,1c0,0.3,0.3,0.4,0.5,0.4h0.1c0.1,0,0.2,0.1,0.2,0.1c0,0.1-0.1,0.1-0.2,0.1c-0.4,0-1.2-0.1-1.4-0.1
			c-0.2,0-0.9,0.1-1.5,0.1c-0.2,0-0.3,0-0.3-0.1c0-0.1,0.1-0.1,0.1-0.1c0.1,0,0.3,0,0.4,0c0.7-0.1,1-0.6,1.3-1.3L125.5,41.6z
			 M127.2,47.7c0.1,0,0.1,0,0.1-0.1l-1.5-4c-0.1-0.2-0.2-0.2-0.3,0l-1.4,4c0,0.1,0,0.1,0.1,0.1H127.2z"/>
		<path class="st1" d="M134,50.4c0,1.2,0.2,1.6,0.6,1.7c0.3,0.1,0.6,0.1,0.8,0.1c0.1,0,0.1,0.1,0.1,0.1c0,0.1-0.1,0.1-0.3,0.1
			c-0.9,0-1.5-0.1-1.6-0.1c-0.1,0-0.8,0.1-1.5,0.1c-0.2,0-0.2,0-0.2-0.1c0-0.1,0.1-0.1,0.1-0.1c0.1,0,0.4,0,0.6-0.1
			c0.4-0.1,0.4-0.5,0.4-1.8v-8.4c0-0.6,0.1-0.7,0.2-0.7c0.2,0,0.4,0.3,0.6,0.4c0.2,0.2,2.4,2.6,4.8,5c1.5,1.5,3.1,3.3,3.6,3.8
			L142,43c0-0.9-0.1-1.3-0.6-1.4c-0.3-0.1-0.6-0.1-0.7-0.1c-0.1,0-0.1-0.1-0.1-0.1c0-0.1,0.1-0.1,0.3-0.1c0.7,0,1.4,0,1.6,0
			c0.2,0,0.7,0,1.3,0c0.2,0,0.3,0,0.3,0.1c0,0.1-0.1,0.1-0.2,0.1c-0.1,0-0.2,0-0.4,0c-0.5,0.1-0.5,0.4-0.5,1.3l0,8.6
			c0,1,0,1.1-0.1,1.1c-0.2,0-0.3-0.1-1.2-0.9c-0.2-0.1-2.3-2.3-3.9-4c-1.8-1.8-3.5-3.6-3.9-4.1L134,50.4z"/>
		<path class="st1" d="M150.4,48.1c0,1.4,0,2.6,0.1,3.2c0.1,0.4,0.1,0.7,0.6,0.8c0.2,0,0.6,0.1,0.7,0.1c0.1,0,0.1,0.1,0.1,0.1
			c0,0.1-0.1,0.1-0.2,0.1c-0.8,0-1.8-0.1-1.9-0.1c-0.1,0-1.1,0.1-1.6,0.1c-0.2,0-0.2,0-0.2-0.1c0-0.1,0-0.1,0.1-0.1
			c0.1,0,0.3,0,0.4-0.1c0.3-0.1,0.4-0.4,0.4-0.8c0.1-0.6,0.1-1.8,0.1-3.2V42l-2.2,0c-0.9,0-1.3,0.1-1.5,0.5
			c-0.2,0.3-0.2,0.4-0.2,0.5c0,0.1-0.1,0.1-0.2,0.1c0,0-0.1,0-0.1-0.1c0-0.2,0.3-1.5,0.3-1.6c0-0.1,0.1-0.3,0.2-0.3
			c0.1,0,0.3,0.1,0.7,0.2c0.4,0.1,1,0.1,1.2,0.1h5.7c0.5,0,0.8,0,1.1-0.1c0.2,0,0.4-0.1,0.4-0.1c0.1,0,0.1,0.1,0.1,0.2
			c0,0.4-0.1,1.5-0.1,1.7c0,0.1-0.1,0.2-0.1,0.2s-0.1-0.1-0.1-0.3l0-0.2c-0.1-0.4-0.4-0.8-1.8-0.8l-1.9,0V48.1z"/>
		<path class="st1" d="M164.9,39.8c0.2-0.6,0.3-0.7,0.4-0.7c0.1,0,0.2,0.1,0.4,0.6c0.3,0.7,3,7.8,4,10.4c0.6,1.5,1.1,1.8,1.5,1.9
			c0.3,0.1,0.5,0.1,0.7,0.1c0.1,0,0.2,0,0.2,0.1c0,0.1-0.2,0.1-0.3,0.1c-0.3,0-1.5,0-2.7,0c-0.3,0-0.5,0-0.5-0.1
			c0-0.1,0.1-0.1,0.1-0.1c0.1,0,0.2-0.2,0.1-0.5l-1.6-4.2c0-0.1-0.1-0.1-0.2-0.1h-3.7c-0.1,0-0.1,0.1-0.2,0.1l-1,3
			c-0.2,0.4-0.2,0.8-0.2,1.2c0,0.3,0.4,0.5,0.7,0.5h0.2c0.1,0,0.2,0,0.2,0.1c0,0.1-0.1,0.1-0.3,0.1c-0.4,0-1.2-0.1-1.3-0.1
			c-0.2,0-1.1,0.1-1.9,0.1c-0.2,0-0.3,0-0.3-0.1c0-0.1,0.1-0.1,0.2-0.1c0.1,0,0.4,0,0.5,0c0.8-0.1,1.1-0.8,1.4-1.6L164.9,39.8z
			 M166.7,46.7c0.1,0,0.1-0.1,0.1-0.1l-1.6-4.6c-0.1-0.3-0.2-0.3-0.3,0l-1.5,4.6c0,0.1,0,0.1,0.1,0.1H166.7z"/>
		<path class="st1" d="M172.4,52.2c-0.2-0.1-0.2-0.2-0.2-0.6c0-0.7,0.1-1.3,0.1-1.5c0-0.2,0-0.2,0.1-0.2s0.1,0.1,0.1,0.2
			s0,0.3,0.1,0.5c0.2,1.1,1.4,1.4,2.4,1.4c1.5,0,2.3-0.8,2.3-1.9c0-1-0.6-1.5-1.9-2.5l-0.7-0.5c-1.6-1.2-2.2-2.1-2.2-3.1
			c0-1.7,1.4-2.8,3.4-2.8c0.6,0,1.2,0.1,1.6,0.2c0.3,0.1,0.4,0.1,0.5,0.1c0.1,0,0.2,0,0.2,0.1c0,0.1-0.1,0.6-0.1,1.5
			c0,0.2,0,0.3-0.1,0.3c-0.1,0-0.1-0.1-0.1-0.2c0-0.2-0.1-0.6-0.2-0.7c-0.1-0.2-0.6-0.7-2-0.7c-1.1,0-2,0.6-2,1.6
			c0,0.9,0.5,1.5,2,2.5L176,46c1.8,1.3,2.5,2.3,2.5,3.5c0,0.9-0.3,1.8-1.4,2.5c-0.6,0.4-1.6,0.5-2.4,0.5
			C173.9,52.5,173.1,52.4,172.4,52.2z"/>
		<path class="st1" d="M183.2,48.1c0,1.4,0,2.6,0.1,3.2c0.1,0.4,0.1,0.7,0.6,0.8c0.2,0,0.6,0.1,0.7,0.1c0.1,0,0.1,0.1,0.1,0.1
			c0,0.1-0.1,0.1-0.2,0.1c-0.8,0-1.8-0.1-1.9-0.1c-0.1,0-1,0.1-1.5,0.1c-0.2,0-0.2,0-0.2-0.1c0-0.1,0-0.1,0.1-0.1
			c0.1,0,0.3,0,0.5-0.1c0.3-0.1,0.3-0.3,0.4-0.8c0.1-0.6,0.1-1.8,0.1-3.2v-2.6c0-2.3,0-2.7,0-3.1c0-0.5-0.2-0.7-0.5-0.8
			c-0.2,0-0.4-0.1-0.5-0.1c-0.1,0-0.1-0.1-0.1-0.1c0-0.1,0.1-0.1,0.2-0.1c0.5,0,1.4,0,1.5,0c0.1,0,1.1,0,1.5,0c0.2,0,0.2,0,0.2,0.1
			c0,0.1-0.1,0.1-0.1,0.1c-0.1,0-0.2,0-0.4,0c-0.4,0.1-0.5,0.3-0.5,0.8c0,0.5,0,0.9,0,3.1V48.1z"/>
		<path class="st1" d="M190.2,41.6c0.2-0.5,0.3-0.6,0.4-0.6c0.2,0,0.2,0.2,0.4,0.5c0.3,0.6,2.7,6.7,3.6,8.9c0.6,1.3,1,1.5,1.3,1.6
			c0.2,0.1,0.4,0.1,0.6,0.1c0.1,0,0.2,0,0.2,0.1c0,0.1-0.2,0.1-0.3,0.1c-0.2,0-1.3,0-2.4,0c-0.3,0-0.5,0-0.5-0.1
			c0-0.1,0-0.1,0.1-0.1c0.1,0,0.2-0.2,0.1-0.4l-1.4-3.4c0-0.1-0.1-0.1-0.1-0.1h-3.5c-0.1,0-0.1,0-0.2,0.1l-0.9,2.3
			c-0.1,0.4-0.2,0.7-0.2,1c0,0.3,0.3,0.4,0.5,0.4h0.1c0.1,0,0.2,0.1,0.2,0.1c0,0.1-0.1,0.1-0.2,0.1c-0.4,0-1.2-0.1-1.4-0.1
			c-0.2,0-0.9,0.1-1.5,0.1c-0.2,0-0.3,0-0.3-0.1c0-0.1,0.1-0.1,0.1-0.1c0.1,0,0.3,0,0.4,0c0.7-0.1,1-0.6,1.3-1.3L190.2,41.6z
			 M191.9,47.7c0.1,0,0.1,0,0.1-0.1l-1.5-4c-0.1-0.2-0.2-0.2-0.3,0l-1.4,4c0,0.1,0,0.1,0.1,0.1H191.9z"/>
		<path class="st1" d="M206,39.8c0.2-0.6,0.3-0.7,0.4-0.7c0.1,0,0.2,0.1,0.4,0.6c0.3,0.7,3,7.8,4,10.4c0.6,1.5,1.1,1.8,1.5,1.9
			c0.3,0.1,0.5,0.1,0.7,0.1c0.1,0,0.2,0,0.2,0.1c0,0.1-0.2,0.1-0.3,0.1c-0.3,0-1.5,0-2.7,0c-0.3,0-0.5,0-0.5-0.1
			c0-0.1,0.1-0.1,0.1-0.1c0.1,0,0.2-0.2,0.1-0.5l-1.6-4.2c0-0.1-0.1-0.1-0.2-0.1h-3.7c-0.1,0-0.1,0.1-0.2,0.1l-1,3
			c-0.2,0.4-0.2,0.8-0.2,1.2c0,0.3,0.4,0.5,0.7,0.5h0.2c0.1,0,0.2,0,0.2,0.1c0,0.1-0.1,0.1-0.3,0.1c-0.4,0-1.2-0.1-1.3-0.1
			c-0.2,0-1.1,0.1-1.9,0.1c-0.2,0-0.3,0-0.3-0.1c0-0.1,0.1-0.1,0.2-0.1c0.1,0,0.4,0,0.5,0c0.8-0.1,1.1-0.8,1.4-1.6L206,39.8z
			 M207.8,46.7c0.1,0,0.1-0.1,0.1-0.1l-1.6-4.6c-0.1-0.3-0.2-0.3-0.3,0l-1.5,4.6c0,0.1,0,0.1,0.1,0.1H207.8z"/>
		<path class="st1" d="M213.5,52.2c-0.2-0.1-0.2-0.2-0.2-0.6c0-0.7,0.1-1.3,0.1-1.5c0-0.2,0-0.2,0.1-0.2s0.1,0.1,0.1,0.2
			s0,0.3,0.1,0.5c0.2,1.1,1.4,1.4,2.4,1.4c1.5,0,2.3-0.8,2.3-1.9c0-1-0.6-1.5-1.9-2.5l-0.7-0.5c-1.6-1.2-2.2-2.1-2.2-3.1
			c0-1.7,1.4-2.8,3.4-2.8c0.6,0,1.2,0.1,1.6,0.2c0.3,0.1,0.4,0.1,0.5,0.1c0.1,0,0.2,0,0.2,0.1c0,0.1-0.1,0.6-0.1,1.5
			c0,0.2,0,0.3-0.1,0.3c-0.1,0-0.1-0.1-0.1-0.2c0-0.2-0.1-0.6-0.2-0.7c-0.1-0.2-0.6-0.7-2-0.7c-1.1,0-2,0.6-2,1.6
			c0,0.9,0.5,1.5,2,2.5l0.4,0.3c1.8,1.3,2.5,2.3,2.5,3.5c0,0.9-0.3,1.8-1.4,2.5c-0.6,0.4-1.6,0.5-2.4,0.5
			C215,52.5,214.1,52.4,213.5,52.2z"/>
		<path class="st1" d="M222,52.2c-0.2-0.1-0.2-0.2-0.2-0.6c0-0.7,0.1-1.3,0.1-1.5c0-0.2,0-0.2,0.1-0.2c0.1,0,0.1,0.1,0.1,0.2
			s0,0.3,0.1,0.5c0.2,1.1,1.4,1.4,2.4,1.4c1.5,0,2.3-0.8,2.3-1.9c0-1-0.6-1.5-1.9-2.5l-0.7-0.5c-1.6-1.2-2.2-2.1-2.2-3.1
			c0-1.7,1.4-2.8,3.4-2.8c0.6,0,1.2,0.1,1.6,0.2c0.3,0.1,0.4,0.1,0.5,0.1c0.1,0,0.2,0,0.2,0.1c0,0.1-0.1,0.6-0.1,1.5
			c0,0.2,0,0.3-0.1,0.3c-0.1,0-0.1-0.1-0.1-0.2c0-0.2-0.1-0.6-0.2-0.7c-0.1-0.2-0.6-0.7-2-0.7c-1.1,0-2,0.6-2,1.6
			c0,0.9,0.5,1.5,2,2.5l0.4,0.3c1.8,1.3,2.5,2.3,2.5,3.5c0,0.9-0.3,1.8-1.4,2.5c-0.6,0.4-1.6,0.5-2.4,0.5
			C223.5,52.5,222.6,52.4,222,52.2z"/>
		<path class="st1" d="M231.3,45.5c0-2.3,0-2.7,0-3.1c0-0.5-0.1-0.7-0.6-0.8c-0.1,0-0.4,0-0.5,0c-0.1,0-0.1-0.1-0.1-0.1
			c0-0.1,0.1-0.1,0.2-0.1c0.7,0,1.7,0,1.8,0c0.1,0,3.3,0,3.6,0c0.3,0,0.6-0.1,0.7-0.1c0.1,0,0.1-0.1,0.2-0.1c0.1,0,0.1,0.1,0.1,0.1
			c0,0.1-0.1,0.3-0.1,0.7c0,0.1-0.1,0.8-0.1,1c0,0.1-0.1,0.2-0.1,0.2c-0.1,0-0.1-0.1-0.1-0.2c0-0.1,0-0.3-0.1-0.5
			c-0.1-0.2-0.3-0.3-1.1-0.4c-0.3,0-2-0.1-2.2-0.1c-0.1,0-0.1,0.1-0.1,0.2v4c0,0.1,0,0.2,0.1,0.2c0.2,0,2.2,0,2.5,0
			c0.4,0,0.6-0.1,0.7-0.2c0.1-0.1,0.2-0.2,0.2-0.2c0.1,0,0.1,0,0.1,0.1s-0.1,0.3-0.1,0.8c0,0.3-0.1,0.8-0.1,0.9c0,0.1,0,0.3-0.1,0.3
			c-0.1,0-0.1-0.1-0.1-0.1c0-0.1,0-0.3-0.1-0.5c-0.1-0.2-0.2-0.4-0.8-0.4c-0.4-0.1-2-0.1-2.3-0.1c-0.1,0-0.1,0.1-0.1,0.1v1.2
			c0,0.5,0,2.2,0,2.5c0,1,0.3,1.2,1.8,1.2c0.4,0,1.1,0,1.5-0.2c0.4-0.2,0.6-0.4,0.7-1c0-0.2,0.1-0.2,0.2-0.2s0.1,0.1,0.1,0.2
			c0,0.1-0.1,1.1-0.2,1.4c-0.1,0.4-0.3,0.4-0.8,0.4c-1.1,0-2,0-2.6-0.1c-0.6,0-1,0-1.3,0c0,0-0.3,0-0.7,0c-0.3,0-0.6,0-0.9,0
			c-0.2,0-0.2,0-0.2-0.1c0-0.1,0-0.1,0.1-0.1c0.1,0,0.3-0.1,0.5-0.1c0.3-0.1,0.3-0.3,0.4-0.8c0.1-0.6,0.1-1.8,0.1-3.2V45.5z"/>
		<path class="st1" d="M243.6,48.1c0,1.4,0,2.6,0.1,3.2c0.1,0.4,0.1,0.7,0.6,0.8c0.2,0,0.6,0.1,0.7,0.1c0.1,0,0.1,0.1,0.1,0.1
			c0,0.1-0.1,0.1-0.2,0.1c-0.8,0-1.8-0.1-1.9-0.1c-0.1,0-1.1,0.1-1.6,0.1c-0.2,0-0.2,0-0.2-0.1c0-0.1,0-0.1,0.1-0.1
			c0.1,0,0.3,0,0.4-0.1c0.3-0.1,0.4-0.4,0.4-0.8c0.1-0.6,0.1-1.8,0.1-3.2V42l-2.2,0c-0.9,0-1.3,0.1-1.5,0.5
			c-0.2,0.3-0.2,0.4-0.2,0.5c0,0.1-0.1,0.1-0.2,0.1c0,0-0.1,0-0.1-0.1c0-0.2,0.3-1.5,0.3-1.6c0-0.1,0.1-0.3,0.2-0.3
			c0.1,0,0.3,0.1,0.7,0.2c0.4,0.1,1,0.1,1.2,0.1h5.7c0.5,0,0.8,0,1.1-0.1c0.2,0,0.4-0.1,0.4-0.1c0.1,0,0.1,0.1,0.1,0.2
			c0,0.4-0.1,1.5-0.1,1.7c0,0.1-0.1,0.2-0.1,0.2c-0.1,0-0.1-0.1-0.1-0.3l0-0.2c-0.1-0.4-0.4-0.8-1.8-0.8l-1.9,0V48.1z"/>
		<path class="st1" d="M268.4,50.2c0.1,0.6,0.2,1.6,0.9,1.8c0.5,0.2,0.9,0.2,1.1,0.2c0.1,0,0.1,0,0.1,0.1c0,0.1-0.2,0.2-0.4,0.2
			c-0.4,0-2.2,0-2.9-0.1c-0.4,0-0.5-0.1-0.5-0.2c0-0.1,0-0.1,0.1-0.1c0.1,0,0.1-0.3,0.1-0.6l-0.8-8.9h-0.1l-4.2,9
			c-0.4,0.8-0.4,0.9-0.6,0.9c-0.1,0-0.2-0.2-0.5-0.8c-0.4-0.8-1.9-3.8-2-4c-0.2-0.3-2.1-4.4-2.3-4.9h-0.1l-0.7,8c0,0.3,0,0.6,0,0.9
			c0,0.3,0.2,0.5,0.4,0.5c0.3,0.1,0.6,0.1,0.7,0.1c0.1,0,0.1,0,0.1,0.1c0,0.1-0.1,0.2-0.3,0.2c-0.6,0-1.5-0.1-1.6-0.1
			c-0.2,0-1,0.1-1.4,0.1c-0.2,0-0.3,0-0.3-0.2c0-0.1,0.1-0.1,0.2-0.1c0.1,0,0.3,0,0.5-0.1c0.6-0.1,0.6-0.8,0.7-1.4l1.2-11.2
			c0-0.2,0.1-0.3,0.2-0.3c0.1,0,0.2,0.1,0.3,0.3l5.3,10.8l5.1-10.8c0.1-0.2,0.1-0.3,0.3-0.3s0.2,0.1,0.2,0.5L268.4,50.2z"/>
		<path class="st1" d="M275.4,41.6c0.2-0.5,0.3-0.6,0.4-0.6c0.2,0,0.2,0.2,0.4,0.5c0.3,0.6,2.7,6.7,3.6,8.9c0.6,1.3,1,1.5,1.3,1.6
			c0.2,0.1,0.4,0.1,0.6,0.1c0.1,0,0.2,0,0.2,0.1c0,0.1-0.2,0.1-0.3,0.1c-0.2,0-1.3,0-2.4,0c-0.3,0-0.5,0-0.5-0.1
			c0-0.1,0-0.1,0.1-0.1c0.1,0,0.2-0.2,0.1-0.4l-1.4-3.4c0-0.1-0.1-0.1-0.1-0.1h-3.5c-0.1,0-0.1,0-0.2,0.1l-0.9,2.3
			c-0.1,0.4-0.2,0.7-0.2,1c0,0.3,0.3,0.4,0.5,0.4h0.1c0.1,0,0.2,0.1,0.2,0.1c0,0.1-0.1,0.1-0.2,0.1c-0.4,0-1.2-0.1-1.4-0.1
			c-0.2,0-0.9,0.1-1.5,0.1c-0.2,0-0.3,0-0.3-0.1c0-0.1,0.1-0.1,0.1-0.1c0.1,0,0.3,0,0.4,0c0.7-0.1,1-0.6,1.3-1.3L275.4,41.6z
			 M277.1,47.7c0.1,0,0.1,0,0.1-0.1l-1.5-4c-0.1-0.2-0.2-0.2-0.3,0l-1.4,4c0,0.1,0,0.1,0.1,0.1H277.1z"/>
		<path class="st1" d="M283.9,50.4c0,1.2,0.2,1.6,0.6,1.7c0.3,0.1,0.6,0.1,0.8,0.1c0.1,0,0.1,0.1,0.1,0.1c0,0.1-0.1,0.1-0.3,0.1
			c-0.9,0-1.5-0.1-1.6-0.1s-0.8,0.1-1.5,0.1c-0.2,0-0.2,0-0.2-0.1c0-0.1,0.1-0.1,0.1-0.1c0.1,0,0.4,0,0.6-0.1
			c0.4-0.1,0.4-0.5,0.4-1.8v-8.4c0-0.6,0.1-0.7,0.2-0.7c0.2,0,0.4,0.3,0.6,0.4c0.2,0.2,2.4,2.6,4.8,5c1.5,1.5,3.1,3.3,3.6,3.8
			L292,43c0-0.9-0.1-1.3-0.6-1.4c-0.3-0.1-0.6-0.1-0.7-0.1c-0.1,0-0.1-0.1-0.1-0.1c0-0.1,0.1-0.1,0.3-0.1c0.7,0,1.4,0,1.6,0
			c0.2,0,0.7,0,1.3,0c0.2,0,0.3,0,0.3,0.1c0,0.1-0.1,0.1-0.2,0.1c-0.1,0-0.2,0-0.4,0c-0.5,0.1-0.5,0.4-0.5,1.3l0,8.6
			c0,1,0,1.1-0.1,1.1c-0.2,0-0.3-0.1-1.2-0.9c-0.2-0.1-2.3-2.3-3.9-4c-1.8-1.8-3.5-3.6-3.9-4.1L283.9,50.4z"/>
		<path class="st1" d="M299.3,41.6c0.2-0.5,0.3-0.6,0.4-0.6c0.2,0,0.2,0.2,0.4,0.5c0.3,0.6,2.7,6.7,3.6,8.9c0.6,1.3,1,1.5,1.3,1.6
			c0.2,0.1,0.4,0.1,0.6,0.1c0.1,0,0.2,0,0.2,0.1c0,0.1-0.2,0.1-0.3,0.1c-0.2,0-1.3,0-2.4,0c-0.3,0-0.5,0-0.5-0.1
			c0-0.1,0-0.1,0.1-0.1c0.1,0,0.2-0.2,0.1-0.4l-1.4-3.4c0-0.1-0.1-0.1-0.1-0.1h-3.5c-0.1,0-0.1,0-0.2,0.1l-0.9,2.3
			c-0.1,0.4-0.2,0.7-0.2,1c0,0.3,0.3,0.4,0.5,0.4h0.1c0.1,0,0.2,0.1,0.2,0.1c0,0.1-0.1,0.1-0.2,0.1c-0.4,0-1.2-0.1-1.4-0.1
			c-0.2,0-0.9,0.1-1.5,0.1c-0.2,0-0.3,0-0.3-0.1c0-0.1,0.1-0.1,0.1-0.1c0.1,0,0.3,0,0.4,0c0.7-0.1,1-0.6,1.3-1.3L299.3,41.6z
			 M301,47.7c0.1,0,0.1,0,0.1-0.1l-1.5-4c-0.1-0.2-0.2-0.2-0.3,0l-1.4,4c0,0.1,0,0.1,0.1,0.1H301z"/>
		<path class="st1" d="M314.3,48.6c0-1.2,0-1.4-0.7-1.5c-0.1,0-0.4,0-0.5,0c-0.1,0-0.1-0.1-0.1-0.1c0-0.1,0.1-0.1,0.2-0.1
			c0.7,0,1.7,0,1.8,0c0.1,0,1,0,1.5,0c0.2,0,0.2,0,0.2,0.1c0,0.1-0.1,0.1-0.1,0.1c-0.1,0-0.2,0-0.4,0c-0.4,0.1-0.5,0.3-0.6,0.8
			c0,0.5,0,0.9,0,1.5v1.6c0,0.7,0,0.7-0.2,0.8c-1,0.5-2.3,0.7-3.2,0.7c-1.2,0-3.3-0.1-5-1.6c-0.9-0.8-1.8-2.3-1.8-4.2
			c0-2.3,1.2-4,2.5-4.8c1.4-0.8,2.9-0.9,4-0.9c1,0,2,0.2,2.3,0.2c0.3,0.1,0.8,0.2,1.2,0.2c0.2,0,0.2,0.1,0.2,0.1
			c0,0.2-0.1,0.6-0.1,2.1c0,0.2-0.1,0.3-0.2,0.3c-0.1,0-0.1-0.1-0.1-0.2c0-0.2-0.1-0.6-0.3-1c-0.4-0.6-1.5-1.1-3.5-1.1
			c-0.9,0-2,0.1-3.2,0.9c-0.9,0.7-1.5,2-1.5,3.7c0,2.1,1.1,3.5,1.6,4c1.2,1.1,2.5,1.5,3.9,1.5c0.5,0,1.2-0.1,1.6-0.3
			c0.2-0.1,0.3-0.2,0.3-0.4V48.6z"/>
		<path class="st1" d="M319.7,45.5c0-2.3,0-2.7,0-3.1c0-0.5-0.1-0.7-0.6-0.8c-0.1,0-0.4,0-0.5,0c-0.1,0-0.1-0.1-0.1-0.1
			c0-0.1,0.1-0.1,0.2-0.1c0.7,0,1.7,0,1.8,0c0.1,0,3.3,0,3.6,0c0.3,0,0.6-0.1,0.7-0.1c0.1,0,0.1-0.1,0.2-0.1c0.1,0,0.1,0.1,0.1,0.1
			c0,0.1-0.1,0.3-0.1,0.7c0,0.1-0.1,0.8-0.1,1c0,0.1-0.1,0.2-0.1,0.2c-0.1,0-0.1-0.1-0.1-0.2c0-0.1,0-0.3-0.1-0.5
			c-0.1-0.2-0.3-0.3-1.1-0.4c-0.3,0-2-0.1-2.2-0.1c-0.1,0-0.1,0.1-0.1,0.2v4c0,0.1,0,0.2,0.1,0.2c0.2,0,2.2,0,2.5,0
			c0.4,0,0.6-0.1,0.7-0.2c0.1-0.1,0.2-0.2,0.2-0.2c0.1,0,0.1,0,0.1,0.1s-0.1,0.3-0.1,0.8c0,0.3-0.1,0.8-0.1,0.9c0,0.1,0,0.3-0.1,0.3
			c-0.1,0-0.1-0.1-0.1-0.1c0-0.1,0-0.3-0.1-0.5c-0.1-0.2-0.2-0.4-0.8-0.4c-0.4-0.1-2-0.1-2.3-0.1c-0.1,0-0.1,0.1-0.1,0.1v1.2
			c0,0.5,0,2.2,0,2.5c0,1,0.3,1.2,1.8,1.2c0.4,0,1.1,0,1.5-0.2c0.4-0.2,0.6-0.4,0.7-1c0-0.2,0.1-0.2,0.2-0.2c0.1,0,0.1,0.1,0.1,0.2
			c0,0.1-0.1,1.1-0.2,1.4c-0.1,0.4-0.3,0.4-0.8,0.4c-1.1,0-2,0-2.6-0.1c-0.6,0-1,0-1.3,0c0,0-0.3,0-0.7,0c-0.3,0-0.6,0-0.9,0
			c-0.2,0-0.2,0-0.2-0.1c0-0.1,0-0.1,0.1-0.1c0.1,0,0.3-0.1,0.5-0.1c0.3-0.1,0.3-0.3,0.4-0.8c0.1-0.6,0.1-1.8,0.1-3.2V45.5z"/>
		<path class="st1" d="M340,50.5c0.1,0.5,0.2,1.3,0.8,1.5c0.4,0.1,0.8,0.1,1,0.1c0.1,0,0.1,0,0.1,0.1c0,0.1-0.1,0.1-0.3,0.1
			c-0.3,0-2,0-2.6-0.1c-0.4,0-0.4-0.1-0.4-0.2c0-0.1,0-0.1,0.1-0.1c0.1,0,0.1-0.2,0.1-0.5l-0.7-7.4h0l-3.6,7.5
			c-0.3,0.6-0.4,0.8-0.5,0.8c-0.1,0-0.2-0.1-0.5-0.7c-0.4-0.7-1.4-2.6-1.8-3.4c-0.4-0.9-1.7-3.4-1.9-4h-0.1l-0.6,6.6
			c0,0.2,0,0.5,0,0.7c0,0.2,0.1,0.4,0.4,0.4c0.3,0.1,0.5,0.1,0.6,0.1c0.1,0,0.1,0.1,0.1,0.1c0,0.1-0.1,0.1-0.3,0.1
			c-0.6,0-1.3-0.1-1.4-0.1c-0.1,0-0.9,0.1-1.3,0.1c-0.2,0-0.3,0-0.3-0.1c0-0.1,0.1-0.1,0.2-0.1c0.1,0,0.2,0,0.4-0.1
			c0.5-0.1,0.5-0.6,0.6-1.2l1.1-9.6c0-0.2,0.1-0.3,0.2-0.3c0.1,0,0.2,0.1,0.3,0.2l4.6,9.1l4.4-9.1c0.1-0.1,0.1-0.2,0.2-0.2
			s0.2,0.1,0.2,0.4L340,50.5z"/>
		<path class="st1" d="M344,45.5c0-2.3,0-2.7,0-3.1c0-0.5-0.1-0.7-0.6-0.8c-0.1,0-0.4,0-0.5,0c-0.1,0-0.1-0.1-0.1-0.1
			c0-0.1,0.1-0.1,0.2-0.1c0.7,0,1.7,0,1.8,0c0.1,0,3.3,0,3.6,0c0.3,0,0.6-0.1,0.7-0.1c0.1,0,0.1-0.1,0.2-0.1c0.1,0,0.1,0.1,0.1,0.1
			c0,0.1-0.1,0.3-0.1,0.7c0,0.1-0.1,0.8-0.1,1c0,0.1-0.1,0.2-0.1,0.2c-0.1,0-0.1-0.1-0.1-0.2c0-0.1,0-0.3-0.1-0.5
			c-0.1-0.2-0.3-0.3-1.1-0.4c-0.3,0-2-0.1-2.2-0.1c-0.1,0-0.1,0.1-0.1,0.2v4c0,0.1,0,0.2,0.1,0.2c0.2,0,2.2,0,2.5,0
			c0.4,0,0.6-0.1,0.7-0.2c0.1-0.1,0.2-0.2,0.2-0.2c0.1,0,0.1,0,0.1,0.1s-0.1,0.3-0.1,0.8c0,0.3-0.1,0.8-0.1,0.9c0,0.1,0,0.3-0.1,0.3
			c-0.1,0-0.1-0.1-0.1-0.1c0-0.1,0-0.3-0.1-0.5c-0.1-0.2-0.2-0.4-0.8-0.4c-0.4-0.1-2-0.1-2.3-0.1c-0.1,0-0.1,0.1-0.1,0.1v1.2
			c0,0.5,0,2.2,0,2.5c0,1,0.3,1.2,1.8,1.2c0.4,0,1.1,0,1.5-0.2c0.4-0.2,0.6-0.4,0.7-1c0-0.2,0.1-0.2,0.2-0.2c0.1,0,0.1,0.1,0.1,0.2
			c0,0.1-0.1,1.1-0.2,1.4c-0.1,0.4-0.3,0.4-0.8,0.4c-1.1,0-2,0-2.6-0.1c-0.6,0-1,0-1.3,0c0,0-0.3,0-0.7,0c-0.3,0-0.6,0-0.9,0
			c-0.2,0-0.2,0-0.2-0.1c0-0.1,0-0.1,0.1-0.1c0.1,0,0.3-0.1,0.5-0.1c0.3-0.1,0.3-0.3,0.4-0.8c0.1-0.6,0.1-1.8,0.1-3.2V45.5z"/>
		<path class="st1" d="M353.5,50.4c0,1.2,0.2,1.6,0.6,1.7c0.3,0.1,0.6,0.1,0.8,0.1c0.1,0,0.1,0.1,0.1,0.1c0,0.1-0.1,0.1-0.3,0.1
			c-0.9,0-1.5-0.1-1.6-0.1c-0.1,0-0.8,0.1-1.5,0.1c-0.2,0-0.2,0-0.2-0.1c0-0.1,0.1-0.1,0.1-0.1c0.1,0,0.4,0,0.6-0.1
			c0.4-0.1,0.4-0.5,0.4-1.8v-8.4c0-0.6,0.1-0.7,0.2-0.7c0.2,0,0.4,0.3,0.6,0.4c0.2,0.2,2.4,2.6,4.8,5c1.5,1.5,3.1,3.3,3.6,3.8
			l-0.2-7.3c0-0.9-0.1-1.3-0.6-1.4c-0.3-0.1-0.6-0.1-0.7-0.1c-0.1,0-0.1-0.1-0.1-0.1c0-0.1,0.1-0.1,0.3-0.1c0.7,0,1.4,0,1.6,0
			s0.7,0,1.3,0c0.2,0,0.3,0,0.3,0.1c0,0.1-0.1,0.1-0.2,0.1c-0.1,0-0.2,0-0.4,0c-0.5,0.1-0.5,0.4-0.5,1.3l0,8.6c0,1,0,1.1-0.1,1.1
			c-0.2,0-0.3-0.1-1.2-0.9c-0.2-0.1-2.3-2.3-3.9-4c-1.8-1.8-3.5-3.6-3.9-4.1L353.5,50.4z"/>
		<path class="st1" d="M370,48.1c0,1.4,0,2.6,0.1,3.2c0.1,0.4,0.1,0.7,0.6,0.8c0.2,0,0.6,0.1,0.7,0.1c0.1,0,0.1,0.1,0.1,0.1
			c0,0.1-0.1,0.1-0.2,0.1c-0.8,0-1.8-0.1-1.9-0.1c-0.1,0-1.1,0.1-1.6,0.1c-0.2,0-0.2,0-0.2-0.1c0-0.1,0-0.1,0.1-0.1
			c0.1,0,0.3,0,0.4-0.1c0.3-0.1,0.4-0.4,0.4-0.8c0.1-0.6,0.1-1.8,0.1-3.2V42l-2.2,0c-0.9,0-1.3,0.1-1.5,0.5
			c-0.2,0.3-0.2,0.4-0.2,0.5c0,0.1-0.1,0.1-0.2,0.1c0,0-0.1,0-0.1-0.1c0-0.2,0.3-1.5,0.3-1.6c0-0.1,0.1-0.3,0.2-0.3
			c0.1,0,0.3,0.1,0.7,0.2c0.4,0.1,1,0.1,1.2,0.1h5.7c0.5,0,0.8,0,1.1-0.1c0.2,0,0.4-0.1,0.4-0.1c0.1,0,0.1,0.1,0.1,0.2
			c0,0.4-0.1,1.5-0.1,1.7c0,0.1-0.1,0.2-0.1,0.2c-0.1,0-0.1-0.1-0.1-0.3l0-0.2c-0.1-0.4-0.4-0.8-1.8-0.8l-1.9,0V48.1z"/>
	</g>
	<g>
		<g>
			<linearGradient id="SVGID_1_" gradientUnits="userSpaceOnUse" x1="23.6079" y1="39.2965" x2="62.3522" y2="39.2965">
				<stop  offset="0" style="stop-color:#F7BD3D"/>
				<stop  offset="1" style="stop-color:#E65528"/>
			</linearGradient>
			<path class="st2" d="M23.6,45.7h4.5c0,0,4.2-10.2,15.1-8c10.4,2.1,16.1,1.5,19.1-3.3c-5.5,2.2-7.8,2.4-17.3-0.5
				C28.4,28.7,23.6,45.7,23.6,45.7z"/>
		</g>
		<g>
			<g>
				<linearGradient id="SVGID_2_" gradientUnits="userSpaceOnUse" x1="26.031" y1="30.0666" x2="42.3311" y2="30.0666">
					<stop  offset="0" style="stop-color:#F7BD3D"/>
					<stop  offset="1" style="stop-color:#E65528"/>
				</linearGradient>
				<path class="st3" d="M32.3,33.8l3.1-8.7h0.1l2.5,7.2c0.4,0,0.7,0,1.1,0c1,0,2.1,0.1,3.2,0.3l-4.5-11.7h-4.6L26,39.4
					C27.5,37.3,29.5,35.2,32.3,33.8z"/>
			</g>
			<g>
				<linearGradient id="SVGID_3_" gradientUnits="userSpaceOnUse" x1="40.0641" y1="41.8742" x2="47.4038" y2="41.8742">
					<stop  offset="0" style="stop-color:#F7BD3D"/>
					<stop  offset="1" style="stop-color:#E65528"/>
				</linearGradient>
				<path class="st4" d="M43.1,38.4c-1-0.2-1.9-0.3-2.9-0.3c-0.1,0-0.1,0-0.2,0l2.7,7.6h4.7l-2.7-7C44.2,38.6,43.6,38.5,43.1,38.4z"
					/>
			</g>
		</g>
		<polygon class="st0" points="28.2,31.6 32.5,20.5 32.7,20.1 33.2,20.1 37.8,20.1 38.3,20.1 38.5,20.5 38.7,21.1 47.5,12.3 
			47.5,0.3 11.4,36.6 23.3,36.6 		"/>
		<polygon class="st5" points="29.8,43.1 28.8,45.9 28.6,46.4 28.1,46.4 23.6,46.4 22.6,46.4 23,45.4 25.5,38.8 23.3,36.6 
			11.3,36.6 35.4,60.7 35.4,48.8 		"/>
		<path class="st0" d="M52.7,39.5c-2,0-4.3-0.2-7.1-0.7l2.5,6.6l0.4,1h-1h-4.7h-0.5l-0.2-0.5l-1-2.8l-5.7,5.7l0,11.9L57.1,39
			C55.8,39.4,54.3,39.5,52.7,39.5z"/>
		<path class="st5" d="M47.4,24.4l-7.4,0l2.9,7.5l0.9,0.9c0.5,0.1,1,0.3,1.6,0.4c5,1.5,7.8,2.2,10.1,2.2c0.9,0,1.8-0.1,2.6-0.3
			L47.4,24.4z"/>
		<linearGradient id="SVGID_4_" gradientUnits="userSpaceOnUse" x1="1.2958" y1="45.8273" x2="43.5544" y2="21.4293">
			<stop  offset="0" style="stop-color:#F7BD3D"/>
			<stop  offset="1" style="stop-color:#EE8236"/>
		</linearGradient>
		<path class="st6" d="M17.9,44.4c0,0-34.1,0.6,21-31.2C-18.4,39.3-1.4,53,20.4,47L17.9,44.4z"/>
	</g>
</g>
</svg>
