<?xml version="1.0" encoding="utf-8"?>
<!-- Generator: Adobe Illustrator 21.1.0, SVG Export Plug-In . SVG Version: 6.00 Build 0)  -->
<svg version="1.1" id="Layer_1" xmlns="http://www.w3.org/2000/svg" xmlns:xlink="http://www.w3.org/1999/xlink" x="0px" y="0px"
	 viewBox="0 0 300 53.7" style="enable-background:new 0 0 300 53.7;" xml:space="preserve">
<style type="text/css">
	.st0{fill:#B18642;}
	.st1{fill:#B5B7B7;}
	.st2{fill:#464646;}
</style>
<g>
	<g id="XMLID_1559_">
		<g id="XMLID_1560_">
			<polygon id="XMLID_1564_" class="st0" points="42.9,32.3 21.4,53.7 21.4,43.2 32.1,32.3 			"/>
			<polygon id="XMLID_1563_" class="st1" points="32,21.5 42.9,32.3 32.1,32.3 21.4,21.5 			"/>
			<polygon id="XMLID_1562_" class="st0" points="0,32.3 32.1,0 32.2,10.7 10.6,32.3 			"/>
			<polygon id="XMLID_1561_" class="st1" points="21.4,53.7 0,32.3 10.6,32.3 21.4,43.2 			"/>
		</g>
	</g>
	<g id="XMLID_3532_">
		<path id="XMLID_9694_" class="st0" d="M59.7,27.1c-2.1,0.7-4.3,1.2-6.5,1.6L53,27l1.6-0.2c0.5-0.1,0.9-0.2,1.3-0.3v-6.2h-2.7v-1.5
			h2.7v-1.7h-1.6v-0.8l-0.6,0.6L53,15.1c1.5-1.3,2.6-2.8,3.2-4.3h1.4c1,1,1.8,2.4,2.7,3.7l-1.4,1.1L58,13.9
			c-0.2-0.3-0.4-0.6-0.6-0.9c-0.1-0.1-0.2-0.2-0.3-0.4c-0.1,0.2-0.2,0.4-0.3,0.5c-0.5,0.8-1,1.7-1.7,2.6h4.4v1.5h-1.8v1.7h2.4v1.5
			h-2.4v5.9l1.1-0.3c0.3-0.1,0.7-0.2,1.1-0.3L59.7,27.1z M53.8,25.8c-0.1-1.5-0.2-3-0.5-4.1l1.3-0.2c0.2,0.7,0.4,1.8,0.6,3.6
			c0,0.1,0,0.2,0,0.4L53.8,25.8z M59.6,21.5l-0.1,1.6c-0.1,0.8-0.1,1.4-0.2,1.8L58,24.7c0-0.1,0-0.2,0-0.3c0.2-1.1,0.3-1.9,0.3-2.4
			c0-0.4,0-0.6,0-0.7L59.6,21.5z M66.8,10.4v1h4.9v1.3h-4.9v0.8h4.1v1.2h-9.8v-1.2h4v-0.8h-5v-1.3h5v-1H66.8L66.8,10.4z M70.3,25
			v1.8V27c0,0.8-0.1,1.3-0.4,1.6c-0.3,0.3-0.9,0.5-1.7,0.5h-1l-0.4-1.5h1.4c0.4,0,0.6-0.2,0.6-0.6v-2h-3.4v-1.3h3.4v-0.9h-8.6v-1.4
			h11.7v1.4h-1.4v0.9h1.4V25H70.3z M69.4,18.3c0.3-0.4,0.4-0.9,0.6-1.3v-0.1h-9.7v-1.4h11.5c0,1.1-0.3,2.3-0.8,3.4L69.4,18.3z
			 M68.9,17.6v1.1h-2.7v0.8h4.6v1.2H60.5v-1.2h4.1v-0.8h-3.5v-1.1H68.9z M60.6,23.5h4.3v5.1h-1.4v-0.8h-1.3v1.1h-1.4v-5.4L60.6,23.5
			L60.6,23.5z M63.3,24.8H62v1.8h1.3V24.8z M66.5,27.4c-0.1-0.3-0.3-0.5-0.5-0.9l-0.5-0.8l1.1-0.6c0.2,0.2,0.4,0.4,0.6,0.7l0.6,0.8
			L66.5,27.4z"/>
		<path id="XMLID_9681_" class="st0" d="M83,17.2v-1.8h2.1v-4.9h1.8v4.9h1.6v1.8h-1.6v12.1h-1.8V17.2H83z M95.7,10.4v1.7h2.9
			c-0.1-0.1-0.1-0.1-0.1-0.2c-0.1-0.1-0.2-0.2-0.3-0.3L97.6,11l1.2-0.7l0.7,0.5c0.1,0.1,0.3,0.3,0.5,0.6l0.1,0.1l-1,0.5h2.8v1.6
			h-6.1v0.8h5.2v5.9v0.4c0,0.6-0.1,1-0.3,1.2s-0.6,0.4-1.2,0.5V23h2.4v1.6h-2.4v1.9v0.4c0,1.1-0.6,1.7-1.8,1.7h-2l-0.4-1.7l2,0.1
			c0.4,0,0.6-0.2,0.6-0.6v-1.5h-5.8c0.1,0.1,0.2,0.2,0.3,0.3c0.2,0.2,0.5,0.4,0.7,0.7l1.1,1.3l-1.4,1.3c-0.5-0.7-1.1-1.5-1.8-2.3
			l-0.3-0.3l1.3-1h-3.5v-1.6H98v-0.6h-0.6L97,21.4h1.9c0.2,0,0.3,0,0.4-0.1c0.1,0,0.1-0.2,0.1-0.4v-0.3h-3.6v1.7h-1.7v-1.7H91v2.1
			h-1.7v-8.1h4.8v-0.8h-5.3v-1.6h5.3v-1.7h1.6C95.7,10.5,95.7,10.4,95.7,10.4z M93.9,17v-0.9h-3.1V17H93.9z M93.9,19.3v-1h-3.1v1
			H93.9z M99.2,17v-0.9h-3.6V17H99.2z M99.2,19.3v-1h-3.6v1H99.2z"/>
		<path id="XMLID_9650_" class="st0" d="M113,14.4v-1.6h2.7l-0.3-0.9c-0.2-0.5-0.3-0.8-0.5-1.2l1.7-0.2c0.2,0.4,0.4,0.8,0.5,1.2
			l0.4,1.1h2.1v1.6C119.6,14.4,113,14.4,113,14.4z M113.6,15.9h5.5v1.6h-5.5V15.9z M113.6,18.9h5.4v1.5h-5.4V18.9z M118.9,28.2h-3.7
			v1h-1.6V22h5.3V28.2L118.9,28.2z M117.3,23.5h-2v3.2h2V23.5z M120.1,13.4h6.1c0-0.4-0.1-0.9-0.1-1.3v-1.6h1.7V12v1.4h3.7v1.7h-3.7
			c0.1,0.6,0.1,1.5,0.1,2.8c0,1.2,0.1,2.1,0.3,3c0.3-0.7,0.6-1.3,0.8-2l0.6-2.1l1.6,0.6c-1,3-1.8,5.1-2.6,6.5c0.4,2,0.8,3.1,1.1,3.1
			c0.2,0,0.3-0.8,0.3-2.5v-0.4v-0.2l1.5,1.2c-0.2,2.8-0.8,4.2-1.8,4.2c-0.9,0-1.7-1.1-2.5-3.4c-0.6,0.8-1.4,1.7-2.8,2.9l-1.2-1.4
			c1.5-1.1,2.7-2.4,3.4-3.7c-0.4-1.7-0.6-3.3-0.6-4.7c0-1.2,0-2.6-0.1-3.8h-4.4v2.1h3.6v1c0,2.5-0.1,4.2-0.2,5.3
			c-0.1,1-0.4,1.6-0.7,1.9c-0.3,0.2-0.9,0.4-1.8,0.4H122h-0.1l-0.6-1.6c-0.1,0.4-0.1,0.7-0.1,0.9c-0.2,1.5-0.5,2.9-0.9,4.1l-1.5-1.5
			c0.7-2.4,1.1-5,1.1-8.2v-6.2L120.1,13.4L120.1,13.4z M121.9,21.9l-0.2,2l1.2,0.1c0.2,0,0.3,0,0.4-0.1s0.2-0.4,0.2-1
			s0.1-1.8,0.2-3.9h-1.8C121.9,20,121.9,21,121.9,21.9z M130.2,13.4c-0.4-0.7-0.8-1.4-1.3-1.8c0,0-0.1-0.1-0.1-0.2l1.3-0.8
			c0.4,0.4,0.9,0.9,1.4,1.6c0,0,0.1,0.1,0.1,0.2L130.2,13.4z"/>
		<path id="XMLID_9330_" class="st0" d="M144,19.7h7.5v9.5h-1.9V28H146v1.2h-1.9L144,19.7L144,19.7z M149.5,21.4h-3.6v4.9h3.6V21.4z
			 M145.9,11.3h13.2v6.5h-13.2V11.3z M157.2,13.1h-9.3v3.1h9.3V13.1z M153.1,19.7h7.7v9.5h-1.9V28H155v1.2h-1.9L153.1,19.7
			L153.1,19.7z M158.9,21.4H155v4.9h3.9V21.4z"/>
		<path id="XMLID_9326_" class="st0" d="M172.9,18.4c1.5-2.4,2.8-5,3.7-8l1.8,0.6c-0.1,0.2-0.1,0.3-0.1,0.4
			c-0.4,1.4-0.8,2.6-1.2,3.6v14.1h-1.9V18.7c-0.1,0.1-0.1,0.2-0.2,0.3c-0.3,0.6-0.8,1.2-1.3,1.8L172.9,18.4z M178.4,28.1l-1.1-1.6
			c1.7-1,3.3-2.7,4.5-4.8h-4v-1.8h5.8v-1.8h-4.5v-6.7h11.1v6.7h-4.6v1.8h6v1.8h-4.3c1,1.8,2.5,3.5,4.5,4.7l-1.1,1.7
			c-2.1-1.7-3.9-3.9-5.1-6.4v7.5h-1.9v-7.4c-0.7,1.5-1.4,2.8-2.3,3.7C180.6,26.3,179.6,27.2,178.4,28.1z M188.2,13.2h-7.3v3.1h7.3
			V13.2z"/>
		<path id="XMLID_9109_" class="st0" d="M208.6,13.8l-0.3,0.9c2.3-0.8,4.1-2.4,5.5-4.3h1.6c0.6,0.8,1.3,1.4,2.1,2
			c0.7,0.6,2,1.2,3.9,2.1l-0.9,1.8l-1.1-0.5c-0.4-0.2-0.8-0.5-1.2-0.7v1.1h-6.8v-1.1l-1,0.6c-0.2,0.1-0.5,0.3-1,0.5
			c-0.1,0-0.1,0.1-0.2,0.1l-1-1.5l-0.4,1.1c-0.1,0.4-0.3,0.9-0.5,1.3c0.9,1.5,1.4,3,1.4,4.1c0,1.8-0.9,2.8-2.8,2.8h-0.2l0,0l-0.5-2
			c0.2,0,0.4,0,0.7,0c0.5,0,0.8-0.1,0.9-0.3c0.1-0.2,0.2-0.4,0.2-0.8c0-0.8-0.5-2-1.4-3.7c0.3-0.8,0.6-1.5,0.8-2.4l0.6-2.4h-2.3
			v16.4H203V10.7h5.7v1.6L208.6,13.8z M209.2,29.3l-1.3-1.3c1.5-1.3,2.6-3,3.3-5l1.6,0.5l-0.2,0.6l-0.1,0.4c0.6,0.4,1.3,1,2.1,1.9
			l0.2,0.2l-1.2,1.3l-0.8-1.1c-0.3-0.4-0.6-0.7-0.9-1c-0.1,0.1-0.1,0.2-0.2,0.3C210.9,27.2,210.1,28.2,209.2,29.3z M209.5,17.3h4.9
			v5.6h-4.9V17.3z M212.8,18.8H211v2.7h1.8V18.8z M217.6,14.7l-0.4-0.3c-0.6-0.5-1.4-1.2-2.4-2.3c-0.1,0.1-0.1,0.2-0.2,0.2
			c-0.7,0.8-1.4,1.6-2.3,2.4L217.6,14.7L217.6,14.7z M215.4,29.3l-1.3-1.3c1.1-0.9,2-2.5,2.9-4.6c0.1-0.1,0.1-0.3,0.2-0.5l1.6,0.5
			l-0.3,0.8l-0.3,0.7c1,0.7,2,1.6,3,2.9L220,29c-0.9-1.1-1.6-2-2.5-2.8C216.9,27.4,216.2,28.3,215.4,29.3z M215.5,17.3h5.1v5.6h-5.1
			V17.3z M219,18.8h-1.9v2.7h1.9V18.8z"/>
		<path id="XMLID_9099_" class="st0" d="M235.4,24c-0.1,2-0.4,3.7-0.8,5l-1.6-0.5c0.4-1.1,0.7-2.5,0.9-4c0-0.2,0.1-0.4,0.1-0.7
			L235.4,24z M240.4,14c-1.2,2.9-2.6,5.3-4.1,7.3c0.1,0,0.4,0,0.8,0c0.4,0,1-0.1,1.7-0.3l-0.2-0.7l-0.3-0.8l1.4-0.4
			c0.4,0.8,0.8,1.9,1.2,3.4c0,0.1,0.1,0.2,0.1,0.3l-1.6,0.4l-0.1-0.4l-0.1-0.4c-1.1,0.2-2,0.3-2.7,0.4l-3,0.3l-0.5-1.7h0.6h0.5
			c1.2-1.5,2-2.8,2.6-3.8l-1.5,0.1l-1.8,0.1l-0.3-1.6h0.6h0.4c1-1.8,1.8-3.7,2.5-5.5l1.8,0.5c-0.7,1.8-1.5,3.5-2.5,5h0.8l0.7-0.1
			c0.4-0.6,0.7-1.4,1.1-2.4c0-0.1,0-0.1,0.1-0.2L240.4,14z M236.1,28.5c0.1-0.6,0.1-1.4,0.1-2.4c0-0.7-0.1-1.4-0.2-2.3l1.4-0.1
			c0,0.3,0.1,0.5,0.1,0.7c0.2,1.1,0.3,2.5,0.3,3.9L236.1,28.5z M239.1,28l-0.4-2.3c-0.1-0.5-0.3-1.2-0.5-1.9l1.3-0.3
			c0.4,1,0.7,2.1,0.9,3.5c0,0.2,0.1,0.3,0.1,0.6L239.1,28z M240.5,17.5c0.8-1.2,1.5-2.6,2-4l1.6,0.7c-0.1,0.2-0.2,0.4-0.3,0.5
			c-0.5,0.9-0.9,1.7-1.3,2.5c0,0.1-0.1,0.1-0.1,0.2l0.8,1.3c0.3,0.4,0.6,1,1.1,1.9l-1.6,0.8C241.9,19.9,241.2,18.6,240.5,17.5z
			 M251.3,11.4v1.7h-10.6v-1.7H251.3z M241,28.4v-1.6h4.1v-3.3h-3.9v-1.7h9.9v1.6H247v3.3h4.8v1.6H241V28.4z M244,17.5
			c0.8-1.2,1.3-2.4,1.7-3.3c0.1-0.2,0.2-0.4,0.3-0.7l1.6,0.8c-0.1,0.2-0.2,0.3-0.2,0.5c-0.3,0.7-0.7,1.5-1.3,2.4
			c0,0.1-0.1,0.1-0.1,0.2l0.8,1.3c0.2,0.3,0.4,0.7,0.7,1.2c0.1,0.1,0.2,0.3,0.3,0.6l-1.6,0.9c-0.1-0.3-0.3-0.5-0.3-0.7
			c-0.2-0.4-0.5-0.9-0.7-1.3L244,17.5z M247.6,17.5c0.9-1.3,1.6-2.6,2.1-3.9l1.5,0.8c-0.1,0.2-0.2,0.3-0.2,0.4
			c-0.6,1.1-1.1,2-1.5,2.6l0.9,1.2c0.2,0.3,0.4,0.6,0.7,1.1c0.1,0.1,0.2,0.3,0.3,0.6l-1.5,0.9c-0.1-0.3-0.3-0.5-0.3-0.7
			c-0.3-0.5-0.5-1-0.7-1.3L247.6,17.5z"/>
		<path id="XMLID_9093_" class="st0" d="M265.8,24c-0.1,2.1-0.4,3.8-1,5.1l-1.8-0.6c0.6-1.5,0.9-2.9,1-4c0-0.2,0.1-0.4,0.1-0.7
			L265.8,24z M271.7,13.9c-2,3.5-3.7,5.9-4.9,7.3l1.5-0.2l1.4-0.2c0-0.1-0.1-0.2-0.1-0.3c-0.1-0.2-0.1-0.4-0.2-0.5l-0.3-0.7l1.5-0.3
			c0.4,0.8,0.8,1.8,1.2,3.1c0,0.2,0.1,0.4,0.2,0.6l-1.6,0.4l-0.1-0.4l-0.1-0.4c-1,0.2-2,0.3-3.2,0.4l-3.5,0.4l-0.5-1.8h0.7l0.7-0.1
			c1.5-1.8,2.5-3.1,2.8-3.7l-2,0.2l-1.8,0.2l-0.4-1.7h0.5h0.5c1-1.7,1.9-3.6,2.8-5.5l1.9,0.5c-0.1,0.3-0.2,0.6-0.3,0.8
			c-0.7,1.7-1.5,3.2-2.4,4.2l0.9-0.1l1.4-0.1l0.7-1.2c0.2-0.4,0.4-0.7,0.6-1.1c0-0.1,0.1-0.2,0.1-0.3L271.7,13.9z M266.9,28.5v-0.4
			c0-1-0.1-1.6-0.1-1.9c0-0.9-0.1-1.6-0.3-2.3l1.6-0.2c0,0.2,0.1,0.3,0.1,0.4c0.3,1.1,0.4,2.4,0.5,3.7c0,0.1,0,0.2,0,0.4L266.9,28.5
			z M270.3,28c-0.1-0.3-0.1-0.5-0.1-0.7c-0.3-1.6-0.6-2.8-0.9-3.7l1.5-0.3c0.5,1.1,0.8,2.4,1.1,3.8c0,0.1,0.1,0.2,0.1,0.4L270.3,28z
			 M275.3,28.8h-0.5c-0.6,0-1.1-0.2-1.6-0.5c-0.4-0.3-0.6-1-0.6-2.1v-8.5h6.3v-4.6h-7.1v-1.8h9v8.2h-6.2v6.7c0,0.4,0.1,0.6,0.2,0.7
			s0.3,0.1,0.7,0.1h3.3c0.5,0,0.8-0.2,0.9-0.6s0.2-1.5,0.2-3.4l1.9,0.6c0,2.6-0.2,4-0.6,4.5s-1.1,0.7-2.1,0.7H275.3L275.3,28.8z"/>
		<g id="XMLID_5455_">
			<path id="XMLID_9070_" class="st2" d="M54.2,39.2c0-2.4,0-2.8,0-3.3s-0.1-0.7-0.6-0.8c-0.1,0-0.4,0-0.5,0S53,35.1,53,35
				s0.1-0.1,0.2-0.1c0.7,0,1.6,0,1.7,0c0.4,0,0.9,0,1.6,0c2.5,0,3.1,1.5,3.1,2.3c0,1.2-0.7,1.9-1.4,2.8c1.1,0.3,2.7,1.4,2.7,3.2
				c0,1.6-1.2,3.3-3.9,3.3c-0.2,0-0.6,0-1.1,0c-0.4,0-0.8,0-0.9,0c0,0-0.3,0-0.6,0s-0.6,0-0.9,0c-0.2,0-0.2,0-0.2-0.1
				c0,0,0-0.1,0.1-0.1s0.3,0,0.4-0.1c0.3-0.1,0.4-0.4,0.4-0.8c0.1-0.6,0.1-1.8,0.1-3.3L54.2,39.2C54.3,39.2,54.2,39.2,54.2,39.2z
				 M55.4,39.5c0,0.1,0,0.1,0.1,0.2c0.1,0,0.4,0.1,0.9,0.1c0.8,0,1,0,1.3-0.4s0.5-0.9,0.5-1.5c0-1.2-0.5-2.6-2-2.6
				c-0.2,0-0.5,0-0.7,0.1c-0.1,0-0.2,0.1-0.2,0.2L55.4,39.5L55.4,39.5L55.4,39.5z M55.4,41.1c0,1.1,0,3.1,0,3.3c0,0.7,0,0.9,0.5,1.2
				c0.4,0.2,1,0.2,1.3,0.2c0.8,0,2.1-0.4,2.1-2.1c0-0.9-0.3-2.3-1.4-3.1c-0.5-0.3-0.9-0.4-1.2-0.4c-0.2,0-0.9,0-1.2,0
				c-0.1,0-0.1,0-0.1,0.1L55.4,41.1L55.4,41.1z"/>
			<path id="XMLID_9061_" class="st2" d="M63.6,40.2c0-2,0-2.4,0-2.8s-0.1-0.6-0.5-0.7c-0.1,0-0.3,0-0.4,0l-0.1-0.1
				c0-0.1,0.1-0.1,0.2-0.1c0.6,0,1.5,0,1.5,0c0.1,0,1.2,0,1.6,0c0.8,0,1.7,0.1,2.5,0.5c0.3,0.2,0.9,0.8,0.9,1.7s-0.4,1.8-1.6,3
				c1.1,1.3,2,2.6,2.8,3.4c0.7,0.7,1.1,0.8,1.5,0.9c0.3,0,0.4,0,0.5,0s0.1,0.1,0.1,0.1c0,0.1-0.1,0.1-0.3,0.1h-0.8
				c-0.7,0-1.1-0.1-1.4-0.3c-0.6-0.3-1-0.9-1.8-1.9c-0.5-0.7-1.1-1.5-1.4-1.8c-0.1-0.1-0.1-0.1-0.2-0.1H65c-0.1,0-0.1,0-0.1,0.1v0.3
				c0,1.2,0,2.3,0.1,2.8c0,0.4,0.1,0.6,0.5,0.7c0.2,0,0.5,0.1,0.6,0.1s0.1,0.1,0.1,0.1c0,0.1-0.1,0.1-0.2,0.1c-0.7,0-1.5,0-1.6,0
				c0,0-0.9,0-1.3,0c-0.1,0-0.2,0-0.2-0.1c0,0,0-0.1,0.1-0.1s0.3,0,0.4-0.1c0.3-0.1,0.3-0.3,0.3-0.7c0.1-0.5,0.1-1.5,0.1-2.8
				L63.6,40.2L63.6,40.2z M64.8,41.3c0,0.1,0,0.1,0.1,0.2c0.2,0.1,0.9,0.2,1.4,0.2c0.3,0,0.7,0,1-0.2c0.4-0.3,0.8-1,0.8-1.9
				c0-1.6-0.9-2.6-2.4-2.6c-0.4,0-0.8,0-0.9,0.1c-0.1,0-0.1,0.1-0.1,0.1L64.8,41.3L64.8,41.3z"/>
			<path id="XMLID_9059_" class="st2" d="M74.6,42.5c0,1.2,0,2.3,0.1,2.8c0,0.4,0.1,0.6,0.5,0.7c0.2,0,0.5,0.1,0.6,0.1
				s0.1,0.1,0.1,0.1c0,0.1-0.1,0.1-0.2,0.1c-0.7,0-1.6,0-1.6,0c-0.1,0-0.9,0-1.3,0c-0.1,0-0.2,0-0.2-0.1c0,0,0-0.1,0.1-0.1
				s0.3,0,0.4-0.1c0.3-0.1,0.3-0.3,0.3-0.7c0.1-0.5,0.1-1.5,0.1-2.8v-2.3c0-2,0-2.4,0-2.8s-0.1-0.6-0.4-0.7c-0.1,0-0.3,0-0.4,0
				s-0.1-0.1-0.1-0.1c0-0.1,0.1-0.1,0.2-0.1c0.4,0,1.2,0,1.3,0s0.9,0,1.3,0c0.1,0,0.2,0,0.2,0.1l-0.1,0.1c-0.1,0-0.2,0-0.3,0
				c-0.4,0.1-0.4,0.3-0.5,0.7c0,0.4,0,0.8,0,2.8L74.6,42.5L74.6,42.5z"/>
			<path id="XMLID_9057_" class="st2" d="M79.8,42.6c0,1.9,0,2.7,0.3,2.9c0.2,0.2,0.7,0.3,1.7,0.3c0.7,0,1.3,0,1.6-0.4
				c0.2-0.2,0.3-0.5,0.3-0.7c0-0.1,0.1-0.2,0.1-0.2c0.1,0,0.1,0.1,0.1,0.2s-0.1,0.9-0.2,1.3c-0.1,0.3-0.1,0.3-0.8,0.3
				c-0.9,0-1.7,0-2.4,0s-1,0-1.4,0c-0.1,0-0.3,0-0.5,0c-0.3,0-0.5,0-0.8,0c-0.1,0-0.2,0-0.2-0.1c0,0,0-0.1,0.1-0.1s0.3,0,0.4-0.1
				c0.3-0.1,0.3-0.3,0.3-0.7c0.1-0.5,0.1-1.5,0.1-2.8v-2.3c0-2,0-2.4,0-2.8s-0.1-0.6-0.5-0.7c-0.1,0-0.3,0-0.4,0l-0.1-0.1
				c0-0.1,0.1-0.1,0.2-0.1c0.6,0,1.4,0,1.5,0s1,0,1.4,0c0.1,0,0.2,0,0.2,0.1l-0.1,0.1c-0.1,0-0.3,0-0.4,0c-0.4,0.1-0.5,0.3-0.5,0.7
				s0,0.8,0,2.8L79.8,42.6L79.8,42.6L79.8,42.6z"/>
			<path id="XMLID_9055_" class="st2" d="M87.5,42.6c0,1.9,0,2.7,0.3,2.9c0.2,0.2,0.7,0.3,1.7,0.3c0.7,0,1.3,0,1.6-0.4
				c0.2-0.2,0.3-0.5,0.3-0.7c0-0.1,0.1-0.2,0.1-0.2c0.1,0,0.1,0.1,0.1,0.2s-0.1,0.9-0.2,1.3c-0.1,0.3-0.1,0.3-0.8,0.3
				c-0.9,0-1.7,0-2.4,0s-1,0-1.4,0c-0.1,0-0.3,0-0.5,0c-0.3,0-0.5,0-0.8,0c-0.1,0-0.2,0-0.2-0.1c0,0,0-0.1,0.1-0.1s0.3,0,0.4-0.1
				c0.3-0.1,0.3-0.3,0.3-0.7c0.1-0.5,0.1-1.5,0.1-2.8v-2.3c0-2,0-2.4,0-2.8s-0.1-0.6-0.5-0.7c-0.1,0-0.3,0-0.4,0l-0.1-0.1
				c0-0.1,0.1-0.1,0.2-0.1c0.6,0,1.4,0,1.5,0s1,0,1.4,0c0.1,0,0.2,0,0.2,0.1l-0.1,0.1c-0.1,0-0.3,0-0.4,0c-0.4,0.1-0.5,0.3-0.5,0.7
				s0,0.8,0,2.8L87.5,42.6L87.5,42.6L87.5,42.6z"/>
			<path id="XMLID_9053_" class="st2" d="M95.2,42.5c0,1.2,0,2.3,0.1,2.8c0,0.4,0.1,0.6,0.5,0.7c0.2,0,0.5,0.1,0.6,0.1
				s0.1,0.1,0.1,0.1c0,0.1-0.1,0.1-0.2,0.1c-0.7,0-1.6,0-1.6,0c-0.1,0-0.9,0-1.3,0c-0.1,0-0.2,0-0.2-0.1c0,0,0-0.1,0.1-0.1
				s0.3,0,0.4-0.1c0.3-0.1,0.3-0.3,0.3-0.7c0.1-0.5,0.1-1.5,0.1-2.8v-2.3c0-2,0-2.4,0-2.8s-0.1-0.6-0.4-0.7c-0.1,0-0.3,0-0.4,0
				s-0.1-0.1-0.1-0.1c0-0.1,0.1-0.1,0.2-0.1c0.4,0,1.2,0,1.3,0s0.9,0,1.3,0c0.1,0,0.2,0,0.2,0.1l-0.1,0.1c-0.1,0-0.2,0-0.3,0
				c-0.4,0.1-0.4,0.3-0.5,0.7c0,0.4,0,0.8,0,2.8L95.2,42.5L95.2,42.5z"/>
			<path id="XMLID_9050_" class="st2" d="M101.4,36.7c0.2-0.4,0.2-0.5,0.3-0.5s0.2,0.2,0.3,0.5c0.2,0.5,2.4,5.8,3.2,7.8
				c0.5,1.1,0.8,1.3,1.1,1.4c0.2,0.1,0.4,0.1,0.5,0.1s0.2,0,0.2,0.1s-0.1,0.1-0.3,0.1s-1.2,0-2.1,0c-0.3,0-0.5,0-0.5-0.1
				s0-0.1,0.1-0.1s0.2-0.1,0.1-0.3l-1.2-3c0-0.1,0-0.1-0.1-0.1h-3.1c-0.1,0-0.1,0-0.1,0.1l-0.7,2c-0.1,0.3-0.2,0.6-0.2,0.8
				c0,0.3,0.2,0.3,0.4,0.3h0.1c0.1,0,0.1,0,0.1,0.1S99.4,46,99.3,46c-0.3,0-1,0-1.2,0c-0.1,0-0.8,0-1.3,0c-0.2,0-0.3,0-0.3-0.1
				s0.1-0.1,0.1-0.1c0.1,0,0.3,0,0.4,0c0.6-0.1,0.8-0.5,1.1-1.2L101.4,36.7z M102.9,42.2C102.9,42.2,102.9,42,102.9,42.2l-1.2-3.6
				c-0.1-0.2-0.1-0.2-0.2,0l-1.2,3.6c0,0.1,0,0.1,0,0.1h2.7v-0.1H102.9z"/>
			<path id="XMLID_9042_" class="st2" d="M109,44.5c0,1,0.1,1.3,0.5,1.4c0.2,0.1,0.5,0.1,0.7,0.1c0.1,0,0.1,0,0.1,0.1
				s-0.1,0.1-0.2,0.1c-0.7,0-1.3,0-1.4,0s-0.7,0-1.3,0c-0.1,0-0.2,0-0.2-0.1s0-0.1,0.1-0.1s0.3,0,0.5-0.1c0.3-0.1,0.4-0.4,0.4-1.6
				v-7.4c0-0.5,0.1-0.6,0.2-0.6s0.4,0.3,0.5,0.4c0.2,0.2,2.1,2.3,4.2,4.4c1.3,1.3,2.8,2.9,3.2,3.3l-0.1-6.4c0-0.8-0.1-1.1-0.5-1.2
				c-0.2,0-0.5-0.1-0.6-0.1s-0.1-0.1-0.1-0.1c0-0.1,0.1-0.1,0.3-0.1c0.6,0,1.2,0,1.4,0c0.1,0,0.6,0,1.1,0c0.1,0,0.2,0,0.2,0.1
				l-0.1,0.1c-0.1,0-0.2,0-0.3,0c-0.4,0.1-0.5,0.3-0.5,1.1v7.6c0,0.8,0,0.9-0.1,0.9s-0.3-0.1-1-0.8c-0.1-0.1-2-2-3.5-3.5
				c-1.5-1.6-3.1-3.2-3.5-3.7L109,44.5L109,44.5z"/>
			<path id="XMLID_9034_" class="st2" d="M123.5,42.5c0,1.2,0,2.3,0.1,2.8c0,0.4,0.1,0.6,0.5,0.7c0.2,0,0.5,0.1,0.6,0.1
				s0.1,0.1,0.1,0.1c0,0.1-0.1,0.1-0.2,0.1c-0.7,0-1.5,0-1.6,0s-1,0-1.3,0c-0.1,0-0.2,0-0.2-0.1c0,0,0-0.1,0.1-0.1s0.3,0,0.4-0.1
				c0.3-0.1,0.3-0.3,0.4-0.7c0.1-0.5,0.1-1.5,0.1-2.8v-5.4h-1.9c-0.8,0-1.1,0.1-1.3,0.4c-0.1,0.2-0.2,0.3-0.2,0.4S119,38,119,38
				s-0.1,0-0.1-0.1s0.3-1.3,0.3-1.4s0.1-0.2,0.1-0.2c0.1,0,0.2,0.1,0.6,0.1s0.9,0.1,1,0.1h5c0.4,0,0.7,0,0.9-0.1
				c0.2,0,0.3-0.1,0.4-0.1s0.1,0.1,0.1,0.1c0,0.4,0,1.3,0,1.4s-0.1,0.2-0.1,0.2c-0.1,0-0.1,0-0.1-0.2v-0.1c0-0.4-0.3-0.7-1.6-0.7
				h-1.6v5.5H123.5L123.5,42.5z"/>
			<path id="XMLID_9032_" class="st2" d="M135.6,41.8c0,1.4,0,2.7,0.1,3.3c0,0.4,0.1,0.8,0.6,0.8c0.2,0,0.5,0.1,0.7,0.1
				c0.1,0,0.1,0,0.1,0.1s-0.1,0.1-0.2,0.1c-0.8,0-1.7,0-1.8,0s-1,0-1.5,0c-0.2,0-0.2,0-0.2-0.1c0,0,0-0.1,0.1-0.1s0.3,0,0.4-0.1
				c0.3-0.1,0.4-0.4,0.4-0.8c0.1-0.6,0.1-1.8,0.1-3.3v-2.7c0-2.4,0-2.8,0-3.3s-0.2-0.8-0.5-0.8c-0.2,0-0.4-0.1-0.5-0.1
				s-0.1,0-0.1-0.1s0.1-0.1,0.2-0.1c0.5,0,1.4,0,1.5,0s1,0,1.5,0c0.2,0,0.2,0,0.2,0.1s-0.1,0.1-0.1,0.1c-0.1,0-0.2,0-0.4,0
				c-0.4,0.1-0.5,0.3-0.5,0.8s0,0.9,0,3.3v2.8H135.6L135.6,41.8z"/>
			<path id="XMLID_9030_" class="st2" d="M140.7,44.5c0,1,0.1,1.3,0.5,1.4c0.2,0.1,0.5,0.1,0.7,0.1c0.1,0,0.1,0,0.1,0.1
				s-0.1,0.1-0.2,0.1c-0.7,0-1.3,0-1.4,0c-0.1,0-0.7,0-1.3,0c-0.1,0-0.2,0-0.2-0.1s0-0.1,0.1-0.1s0.3,0,0.5-0.1
				c0.3-0.1,0.4-0.4,0.4-1.6v-7.4c0-0.5,0.1-0.6,0.2-0.6c0.1,0,0.4,0.3,0.5,0.4c0.2,0.2,2.1,2.3,4.2,4.4c1.3,1.3,2.8,2.9,3.2,3.3
				l-0.1-6.4c0-0.8-0.1-1.1-0.5-1.2c-0.2,0-0.5-0.1-0.6-0.1s-0.1-0.1-0.1-0.1c0-0.1,0.1-0.1,0.3-0.1c0.6,0,1.2,0,1.4,0
				c0.1,0,0.6,0,1.1,0c0.1,0,0.2,0,0.2,0.1l-0.1,0.1c-0.1,0-0.2,0-0.3,0c-0.4,0.1-0.5,0.3-0.5,1.1v7.6c0,0.8,0,0.9-0.1,0.9
				s-0.3-0.1-1-0.8c-0.1-0.1-2-2-3.5-3.5c-1.5-1.6-3.1-3.2-3.5-3.7L140.7,44.5L140.7,44.5z"/>
			<path id="XMLID_9028_" class="st2" d="M151.2,46c-0.2-0.1-0.2-0.1-0.2-0.5c0-0.6,0.1-1.1,0.1-1.3c0-0.1,0-0.2,0.1-0.2
				s0.1,0,0.1,0.1s0,0.3,0,0.5c0.2,0.9,1.2,1.2,2.1,1.2c1.3,0,2-0.7,2-1.7c0-0.9-0.5-1.3-1.6-2.3l-0.6-0.4c-1.4-1.1-1.9-1.8-1.9-2.8
				c0-1.5,1.2-2.5,3-2.5c0.5,0,1,0.1,1.3,0.1c0.3,0.1,0.4,0.1,0.5,0.1s0.1,0,0.1,0.1s-0.1,0.5-0.1,1.3c0,0.2,0,0.3-0.1,0.3
				s-0.1-0.1-0.1-0.2s-0.1-0.5-0.2-0.6s-0.5-0.6-1.7-0.6c-0.9,0-1.7,0.5-1.7,1.4c0,0.8,0.4,1.3,1.7,2.1l0.4,0.3
				c1.6,1.1,2.1,2,2.1,3.1c0,0.7-0.3,1.5-1.2,2.1c-0.5,0.4-1.4,0.4-2.1,0.4C152.6,46.4,151.7,46.3,151.2,46z"/>
			<path id="XMLID_9026_" class="st2" d="M159.2,40.2c0-2,0-2.4,0-2.8s-0.1-0.6-0.5-0.7c-0.1,0-0.3,0-0.4,0l-0.1-0.1
				c0-0.1,0.1-0.1,0.2-0.1c0.6,0,1.4,0,1.5,0s0.9,0,1.3,0c0.1,0,0.2,0,0.2,0.1l-0.1,0.1c-0.1,0-0.2,0-0.3,0
				c-0.3,0.1-0.4,0.3-0.4,0.7s0,0.8,0,2.8V42c0,1.8,0.4,2.7,1,3.2c0.6,0.6,1.2,0.7,1.9,0.7c0.8,0,1.6-0.4,2-0.9
				c0.6-0.7,0.7-1.8,0.7-3.2v-1.6c0-2,0-2.4,0-2.8s-0.1-0.6-0.5-0.7c-0.1,0-0.3,0-0.4,0s-0.1-0.1-0.1-0.1c0-0.1,0.1-0.1,0.2-0.1
				c0.6,0,1.3,0,1.4,0s0.7,0,1.1,0c0.1,0,0.2,0,0.2,0.1c0,0,0,0.1-0.1,0.1s-0.2,0-0.3,0c-0.4,0.1-0.4,0.3-0.5,0.7c0,0.4,0,0.8,0,2.8
				v1.3c0,1.4-0.2,3-1.2,3.9c-0.9,0.8-2,0.9-2.8,0.9c-0.4,0-1.8,0-2.8-0.9c-0.6-0.6-1.1-1.5-1.1-3.4L159.2,40.2L159.2,40.2z"/>
			<path id="XMLID_9023_" class="st2" d="M170.6,40.2c0-2,0-2.4,0-2.8s-0.1-0.6-0.5-0.7c-0.1,0-0.3,0-0.4,0l-0.1-0.1
				c0-0.1,0.1-0.1,0.2-0.1c0.6,0,1.5,0,1.5,0c0.1,0,1.2,0,1.6,0c0.8,0,1.7,0.1,2.5,0.5c0.3,0.2,0.9,0.8,0.9,1.7s-0.4,1.8-1.6,3
				c1.1,1.3,2,2.6,2.8,3.4c0.7,0.7,1.1,0.8,1.5,0.9c0.3,0,0.4,0,0.5,0s0.1,0.1,0.1,0.1c0,0.1-0.1,0.1-0.3,0.1h-0.8
				c-0.7,0-1.1-0.1-1.4-0.3c-0.6-0.3-1-0.9-1.8-1.9c-0.5-0.7-1.1-1.5-1.4-1.8c-0.1-0.1-0.1-0.1-0.2-0.1H172c-0.1,0-0.1,0-0.1,0.1
				v0.3c0,1.2,0,2.3,0.1,2.8c0,0.4,0.1,0.6,0.5,0.7c0.2,0,0.5,0.1,0.6,0.1s0.1,0.1,0.1,0.1c0,0.1-0.1,0.1-0.2,0.1
				c-0.7,0-1.5,0-1.6,0c0,0-0.9,0-1.3,0c-0.1,0-0.2,0-0.2-0.1c0,0,0-0.1,0.1-0.1s0.3,0,0.4-0.1c0.3-0.1,0.3-0.3,0.3-0.7
				c0.1-0.5,0.1-1.5,0.1-2.8L170.6,40.2z M171.7,41.3c0,0.1,0,0.1,0.1,0.2c0.2,0.1,0.9,0.2,1.4,0.2c0.3,0,0.7,0,1-0.2
				c0.4-0.3,0.8-1,0.8-1.9c0-1.6-0.9-2.6-2.4-2.6c-0.4,0-0.8,0-0.9,0.1c-0.1,0-0.1,0.1-0.1,0.1L171.7,41.3L171.7,41.3z"/>
			<path id="XMLID_9020_" class="st2" d="M182.4,36.7c0.2-0.4,0.2-0.5,0.3-0.5s0.2,0.2,0.3,0.5c0.2,0.5,2.4,5.8,3.2,7.8
				c0.5,1.1,0.8,1.3,1.1,1.4c0.2,0.1,0.4,0.1,0.5,0.1s0.2,0,0.2,0.1s-0.1,0.1-0.3,0.1s-1.2,0-2.1,0c-0.3,0-0.5,0-0.5-0.1
				s0-0.1,0.1-0.1s0.2-0.1,0.1-0.3l-1.2-3c0-0.1,0-0.1-0.1-0.1h-3.1c-0.1,0-0.1,0-0.1,0.1l-0.7,2c-0.1,0.3-0.2,0.6-0.2,0.8
				c0,0.3,0.2,0.3,0.4,0.3h0.1c0.1,0,0.1,0,0.1,0.1s-0.1,0.1-0.2,0.1c-0.3,0-1,0-1.2,0c-0.1,0-0.8,0-1.3,0c-0.2,0-0.3,0-0.3-0.1
				s0.1-0.1,0.1-0.1c0.1,0,0.3,0,0.4,0c0.6-0.1,0.8-0.5,1.1-1.2L182.4,36.7z M183.9,42.2C184,42.2,184,42,183.9,42.2l-1.2-3.6
				c-0.1-0.2-0.1-0.2-0.2,0l-1.2,3.6c0,0.1,0,0.1,0,0.1h2.7v-0.1H183.9z"/>
			<path id="XMLID_9018_" class="st2" d="M189.9,44.5c0,1,0.1,1.3,0.5,1.4c0.2,0.1,0.5,0.1,0.7,0.1c0.1,0,0.1,0,0.1,0.1
				s-0.1,0.1-0.2,0.1c-0.7,0-1.3,0-1.4,0s-0.7,0-1.3,0c-0.1,0-0.2,0-0.2-0.1s0-0.1,0.1-0.1s0.3,0,0.5-0.1c0.3-0.1,0.4-0.4,0.4-1.6
				v-7.4c0-0.5,0.1-0.6,0.2-0.6s0.4,0.3,0.5,0.4c0.2,0.2,2.1,2.3,4.2,4.4c1.3,1.3,2.8,2.9,3.2,3.3l-0.1-6.4c0-0.8-0.1-1.1-0.5-1.2
				c-0.2,0-0.5-0.1-0.6-0.1s-0.1-0.1-0.1-0.1c0-0.1,0.1-0.1,0.3-0.1c0.6,0,1.2,0,1.4,0c0.1,0,0.6,0,1.1,0c0.1,0,0.2,0,0.2,0.1
				l-0.1,0.1c-0.1,0-0.2,0-0.3,0c-0.4,0.1-0.5,0.3-0.5,1.1v7.6c0,0.8,0,0.9-0.1,0.9s-0.3-0.1-1-0.8c-0.1-0.1-2-2-3.5-3.5
				c-1.5-1.6-3.1-3.2-3.5-3.7L189.9,44.5L189.9,44.5z"/>
			<path id="XMLID_9016_" class="st2" d="M201.5,45c-1.3-1.1-1.6-2.6-1.6-3.8c0-0.8,0.3-2.4,1.5-3.5c0.8-0.8,2-1.3,4.1-1.3
				c0.5,0,1.3,0,1.9,0.1c0.5,0.1,0.9,0.2,1.3,0.2c0.1,0,0.2,0.1,0.2,0.1c0,0.1,0,0.3-0.1,0.7c0,0.4,0,1.1,0,1.3s-0.1,0.3-0.1,0.3
				c-0.1,0-0.1-0.1-0.1-0.3c0-0.5-0.2-1-0.5-1.3c-0.5-0.4-1.4-0.7-2.7-0.7c-1.7,0-2.6,0.4-3,0.9c-1,0.9-1.2,2-1.2,3.4
				c0,2.5,1.9,4.7,4.8,4.7c1,0,1.6-0.1,2.1-0.6c0.3-0.3,0.5-0.8,0.5-1.1c0-0.1,0-0.2,0.1-0.2s0.1,0.1,0.1,0.2s-0.2,1.2-0.3,1.6
				c-0.1,0.2-0.1,0.3-0.3,0.4c-0.5,0.2-1.5,0.3-2.5,0.3C203.9,46.4,202.5,45.9,201.5,45z"/>
			<path id="XMLID_9014_" class="st2" d="M211.7,40.2c0-2,0-2.4,0-2.8s-0.1-0.6-0.5-0.7c-0.1,0-0.3,0-0.4,0l-0.1-0.1
				c0-0.1,0.1-0.1,0.2-0.1c0.6,0,1.4,0,1.5,0s2.9,0,3.2,0s0.5-0.1,0.6-0.1s0.1-0.1,0.2-0.1l0.1,0.1c0,0.1-0.1,0.2-0.1,0.6
				c0,0.1,0,0.7-0.1,0.8c0,0.1-0.1,0.1-0.1,0.1c-0.1,0-0.1-0.1-0.1-0.2s0-0.3-0.1-0.4c-0.1-0.2-0.2-0.3-0.9-0.4c-0.2,0-1.7,0-1.9,0
				c-0.1,0-0.1,0-0.1,0.1v3.5c0,0.1,0,0.1,0.1,0.1c0.2,0,1.9,0,2.3,0c0.3,0,0.5,0,0.6-0.2c0.1-0.1,0.1-0.2,0.2-0.2
				c0,0,0.1,0,0.1,0.1s-0.1,0.3-0.1,0.7c0,0.3-0.1,0.7-0.1,0.8s0,0.2-0.1,0.2s-0.1,0-0.1-0.1s0-0.3-0.1-0.4c0-0.2-0.2-0.3-0.7-0.4
				c-0.4,0-1.7-0.1-2-0.1c-0.1,0-0.1,0-0.1,0.1v1.1c0,0.4,0,1.9,0,2.1c0,0.8,0.3,1,1.6,1c0.3,0,1,0,1.3-0.1s0.5-0.4,0.6-0.9
				c0-0.1,0.1-0.2,0.1-0.2c0.1,0,0.1,0.1,0.1,0.2s-0.1,0.9-0.2,1.2c-0.1,0.3-0.2,0.3-0.7,0.3c-1,0-1.7,0-2.4,0c-0.5,0-0.9,0-1.1,0
				c0,0-0.3,0-0.6,0s-0.5,0-0.8,0c-0.1,0-0.2,0-0.2-0.1c0,0,0-0.1,0.1-0.1s0.3,0,0.4-0.1c0.3,0,0.3-0.3,0.3-0.7
				c0.1-0.5,0.1-1.5,0.1-2.8v-1.9l0,0V40.2z"/>
			<path id="XMLID_9010_" class="st2" d="M224.5,39.2c0-2.4,0-2.8,0-3.3s-0.1-0.7-0.6-0.8c-0.1,0-0.4,0-0.5,0s-0.1,0-0.1-0.1
				s0.1-0.1,0.2-0.1c0.7,0,1.6,0,1.7,0c0.4,0,0.9,0,1.6,0c2.5,0,3.1,1.5,3.1,2.3c0,1.2-0.7,1.9-1.4,2.8c1.1,0.3,2.7,1.4,2.7,3.2
				c0,1.6-1.2,3.3-3.9,3.3c-0.2,0-0.6,0-1.1,0c-0.4,0-0.8,0-0.9,0c0,0-0.3,0-0.6,0s-0.6,0-0.9,0c-0.2,0-0.2,0-0.2-0.1
				c0,0,0-0.1,0.1-0.1s0.3,0,0.4-0.1c0.3-0.1,0.4-0.4,0.4-0.8c0.1-0.6,0.1-1.8,0.1-3.3L224.5,39.2L224.5,39.2z M225.6,39.5
				c0,0.1,0,0.1,0.1,0.2c0.1,0,0.4,0.1,0.9,0.1c0.8,0,1,0,1.3-0.4s0.5-0.9,0.5-1.5c0-1.2-0.5-2.6-2-2.6c-0.2,0-0.5,0-0.7,0.1
				c-0.1,0-0.2,0.1-0.2,0.2L225.6,39.5L225.6,39.5L225.6,39.5z M225.6,41.1c0,1.1,0,3.1,0,3.3c0,0.7,0,0.9,0.5,1.2
				c0.4,0.2,1,0.2,1.3,0.2c0.8,0,2.1-0.4,2.1-2.1c0-0.9-0.3-2.3-1.4-3.1c-0.5-0.3-0.9-0.4-1.2-0.4c-0.2,0-0.9,0-1.2,0
				c-0.1,0-0.1,0-0.1,0.1L225.6,41.1L225.6,41.1z"/>
			<path id="XMLID_9007_" class="st2" d="M233.8,40.2c0-2,0-2.4,0-2.8s-0.1-0.6-0.5-0.7c-0.1,0-0.3,0-0.4,0l-0.1-0.1
				c0-0.1,0.1-0.1,0.2-0.1c0.6,0,1.5,0,1.5,0c0.1,0,1.2,0,1.6,0c0.8,0,1.7,0.1,2.5,0.5c0.3,0.2,0.9,0.8,0.9,1.7s-0.4,1.8-1.6,3
				c1.1,1.3,2,2.6,2.8,3.4c0.7,0.7,1.1,0.8,1.5,0.9c0.3,0,0.4,0,0.5,0s0.1,0.1,0.1,0.1c0,0.1-0.1,0.1-0.3,0.1h-0.8
				c-0.7,0-1.1-0.1-1.4-0.3c-0.6-0.3-1-0.9-1.8-1.9c-0.5-0.7-1.1-1.5-1.4-1.8c-0.1-0.1-0.1-0.1-0.2-0.1h-1.7c-0.1,0-0.1,0-0.1,0.1
				v0.3c0,1.2,0,2.3,0.1,2.8c0,0.4,0.1,0.6,0.5,0.7c0.2,0,0.5,0.1,0.6,0.1s0.1,0.1,0.1,0.1c0,0.1-0.1,0.1-0.2,0.1
				c-0.7,0-1.5,0-1.6,0c0,0-0.9,0-1.3,0c-0.1,0-0.2,0-0.2-0.1c0,0,0-0.1,0.1-0.1s0.3,0,0.4-0.1c0.3-0.1,0.3-0.3,0.3-0.7
				c0.1-0.5,0.1-1.5,0.1-2.8L233.8,40.2z M235.1,41.3c0,0.1,0,0.1,0.1,0.2c0.2,0.1,0.9,0.2,1.4,0.2c0.3,0,0.7,0,1-0.2
				c0.4-0.3,0.8-1,0.8-1.9c0-1.6-0.9-2.6-2.4-2.6c-0.4,0-0.8,0-0.9,0.1c-0.1,0-0.1,0.1-0.1,0.1L235.1,41.3L235.1,41.3z"/>
			<path id="XMLID_9004_" class="st2" d="M247.6,36.3c3,0,5.3,1.8,5.3,4.8c0,2.9-2.1,5.2-5.3,5.2c-3.7,0-5.2-2.8-5.2-5
				C242.3,39.3,244,36.3,247.6,36.3z M247.9,45.8c1.2,0,3.6-0.6,3.6-4.4c0-3.1-1.8-4.7-4-4.7c-2.3,0-3.8,1.4-3.8,4.2
				C243.6,44,245.5,45.8,247.9,45.8z"/>
			<path id="XMLID_9002_" class="st2" d="M255.2,40.2c0-2,0-2.4,0-2.8s-0.1-0.6-0.5-0.7c-0.1,0-0.3,0-0.4,0l-0.1-0.1
				c0-0.1,0.1-0.1,0.2-0.1c0.6,0,1.4,0,1.5,0s0.9,0,1.3,0c0.1,0,0.2,0,0.2,0.1c0,0,0,0.1-0.1,0.1s-0.2,0-0.3,0
				c-0.3,0.1-0.4,0.3-0.5,0.7c0,0.4,0,0.8,0,2.8V41h0.1c0.2-0.2,2.6-2.6,3.1-3.1c0.4-0.4,0.7-0.7,0.7-0.9s-0.1-0.2-0.2-0.3
				c-0.1,0-0.1-0.1-0.1-0.1c0-0.1,0.1-0.1,0.1-0.1c0.3,0,0.7,0,1,0c0.1,0,0.9,0,1.3,0c0.1,0,0.2,0,0.2,0.1s0,0.1-0.1,0.1
				c-0.2,0-0.5,0.1-0.7,0.2c-0.5,0.2-0.8,0.5-1.4,1.1c-0.3,0.3-2.6,2.5-2.9,2.8c0.3,0.4,3.2,3.2,3.7,3.7c1.1,1,1.2,1.1,1.9,1.4
				c0.3,0.1,0.7,0.2,0.8,0.2s0.2,0,0.2,0.1s-0.1,0.1-0.3,0.1h-0.7c-0.4,0-0.6,0-0.9,0c-0.7-0.1-1-0.3-1.6-0.8s-3.4-3.4-4.1-4.2h-0.1
				v1.2c0,1.2,0,2.3,0.1,2.8c0,0.4,0.1,0.6,0.5,0.7c0.2,0,0.4,0.1,0.5,0.1s0.1,0.1,0.1,0.1c0,0.1-0.1,0.1-0.2,0.1
				c-0.6,0-1.4,0-1.5,0s-0.9,0-1.3,0c-0.1,0-0.2,0-0.2-0.1c0,0,0-0.1,0.1-0.1s0.3,0,0.4-0.1c0.3-0.1,0.3-0.3,0.3-0.7
				c0.1-0.5,0.1-1.5,0.1-2.8v-2.4L255.2,40.2L255.2,40.2z"/>
			<path id="XMLID_9000_" class="st2" d="M264.9,40.2c0-2,0-2.4,0-2.8s-0.1-0.6-0.5-0.7c-0.1,0-0.3,0-0.4,0l-0.1-0.1
				c0-0.1,0.1-0.1,0.2-0.1c0.6,0,1.4,0,1.5,0s2.9,0,3.2,0c0.3,0,0.5-0.1,0.6-0.1s0.1-0.1,0.2-0.1l0.1,0.1c0,0.1-0.1,0.2-0.1,0.6
				c0,0.1,0,0.7-0.1,0.8c0,0.1-0.1,0.1-0.1,0.1c-0.1,0-0.1-0.1-0.1-0.2s0-0.3-0.1-0.4c-0.1-0.2-0.2-0.3-0.9-0.4c-0.2,0-1.7,0-1.9,0
				c-0.1,0-0.1,0-0.1,0.1v3.5c0,0.1,0,0.1,0.1,0.1c0.2,0,1.9,0,2.3,0c0.3,0,0.5,0,0.6-0.2c0.1-0.1,0.1-0.2,0.2-0.2
				c0,0,0.1,0,0.1,0.1s-0.1,0.3-0.1,0.7c0,0.3-0.1,0.7-0.1,0.8s0,0.2-0.1,0.2s-0.1,0-0.1-0.1s0-0.3-0.1-0.4c0-0.2-0.2-0.3-0.7-0.4
				c-0.4,0-1.7-0.1-2-0.1c-0.1,0-0.1,0-0.1,0.1v1.1c0,0.4,0,1.9,0,2.1c0,0.8,0.3,1,1.6,1c0.3,0,1,0,1.3-0.1s0.5-0.4,0.6-0.9
				c0-0.1,0.1-0.2,0.1-0.2c0.1,0,0.1,0.1,0.1,0.2s-0.1,0.9-0.2,1.2s-0.2,0.3-0.7,0.3c-1,0-1.7,0-2.4,0c-0.5,0-0.9,0-1.1,0
				c0,0-0.3,0-0.6,0c-0.3,0-0.5,0-0.8,0c-0.1,0-0.2,0-0.2-0.1c0,0,0-0.1,0.1-0.1s0.3,0,0.4-0.1c0.3,0,0.3-0.3,0.3-0.7
				c0.1-0.5,0.1-1.5,0.1-2.8v-1.9l0,0L264.9,40.2L264.9,40.2z"/>
			<path id="XMLID_5531_" class="st2" d="M272.8,40.2c0-2,0-2.4,0-2.8s-0.1-0.6-0.5-0.7c-0.1,0-0.3,0-0.4,0l-0.1-0.1
				c0-0.1,0.1-0.1,0.2-0.1c0.6,0,1.5,0,1.5,0c0.1,0,1.2,0,1.6,0c0.8,0,1.7,0.1,2.5,0.5c0.3,0.2,0.9,0.8,0.9,1.7s-0.4,1.8-1.6,3
				c1.1,1.3,2,2.6,2.8,3.4c0.7,0.7,1.1,0.8,1.5,0.9c0.3,0,0.4,0,0.5,0s0.1,0.1,0.1,0.1c0,0.1-0.1,0.1-0.3,0.1h-0.8
				c-0.7,0-1.1-0.1-1.4-0.3c-0.6-0.3-1-0.9-1.8-1.9c-0.5-0.7-1.1-1.5-1.4-1.8c-0.1-0.1-0.1-0.1-0.2-0.1h-1.7c-0.1,0-0.1,0-0.1,0.1
				v0.3c0,1.2,0,2.3,0.1,2.8c0,0.4,0.1,0.6,0.5,0.7c0.2,0,0.5,0.1,0.6,0.1s0.1,0.1,0.1,0.1c0,0.1-0.1,0.1-0.2,0.1
				c-0.7,0-1.5,0-1.6,0c0,0-0.9,0-1.3,0c-0.1,0-0.2,0-0.2-0.1c0,0,0-0.1,0.1-0.1s0.3,0,0.4-0.1c0.3-0.1,0.3-0.3,0.3-0.7
				c0.1-0.5,0.1-1.5,0.1-2.8L272.8,40.2z M273.9,41.3c0,0.1,0,0.1,0.1,0.2c0.2,0.1,0.9,0.2,1.4,0.2c0.3,0,0.7,0,1-0.2
				c0.4-0.3,0.8-1,0.8-1.9c0-1.6-0.9-2.6-2.4-2.6c-0.4,0-0.8,0-0.9,0.1c-0.1,0-0.1,0.1-0.1,0.1v4.1
				C273.8,41.3,273.9,41.3,273.9,41.3z"/>
		</g>
	</g>
</g>
</svg>
