<?xml version="1.0" encoding="utf-8"?>
<!-- Generator: Adobe Illustrator 21.1.0, SVG Export Plug-In . SVG Version: 6.00 Build 0)  -->
<svg version="1.1" id="Layer_1" xmlns="http://www.w3.org/2000/svg" xmlns:xlink="http://www.w3.org/1999/xlink" x="0px" y="0px"
	 viewBox="0 0 300 53.7" style="enable-background:new 0 0 300 53.7;" xml:space="preserve">
<style type="text/css">
	.st0{fill:#464646;}
	.st1{fill:#0076BF;}
	.st2{fill:#48B2E8;}
	.st3{fill:#255AA8;}
</style>
<g id="XMLID_76_">
	<g id="XMLID_84_">
		<g>
			<path id="XMLID_93_" class="st0" d="M92.7,34v2c-1.7-1.2-3.3-1.7-4.7-1.7c-1,0-1.9,0.3-2.6,0.9c-0.7,0.6-1.1,1.3-1.1,2.1
				c0,0.6,0.2,1.1,0.6,1.6c0.4,0.5,1.7,1.1,3.6,1.9c2,0.7,3.2,1.5,3.9,2.4c0.6,0.9,0.9,1.7,0.9,2.7c0,1.3-0.6,2.5-1.7,3.4
				c-1.1,0.9-2.5,1.3-4,1.3c-1.7,0-3.5-0.6-5.2-1.6v-1.9c2.1,1,3.9,1.6,5.5,1.6c1,0,2-0.3,2.6-0.9c0.7-0.6,1-1.3,1-2.1
				c0-0.6-0.2-1.1-0.6-1.7c-0.5-0.5-1.7-1.1-3.6-1.9s-3.2-1.5-3.8-2.3c-0.6-0.7-0.9-1.6-0.9-2.5c0-1.3,0.6-2.5,1.7-3.3
				c1.1-0.9,2.4-1.3,4-1.3C89.6,32.5,91.1,33,92.7,34z"/>
			<path id="XMLID_92_" class="st0" d="M104.9,32.5c2.5,0,4.6,0.9,6.3,2.5c1.7,1.7,2.5,3.8,2.5,6.4c0,2.5-0.9,4.7-2.5,6.3
				c-1.7,1.7-3.8,2.5-6.3,2.5s-4.6-0.9-6.3-2.5c-1.7-1.7-2.5-3.8-2.5-6.3s0.9-4.7,2.5-6.4C100.3,33.4,102.4,32.5,104.9,32.5z
				 M104.9,48.6c2,0,3.6-0.7,4.9-2.1c1.3-1.3,2-3,2-5.1c0-2.1-0.6-3.7-2-5.1c-1.3-1.3-2.9-2.1-4.8-2.1c-2,0-3.6,0.7-4.9,2.1
				s-2,3.1-2,5.1s0.6,3.7,2,5.1C101.4,47.9,103,48.6,104.9,48.6z"/>
			<path id="XMLID_91_" class="st0" d="M119.9,24v26H118V24H119.9z"/>
			<path id="XMLID_90_" class="st0" d="M137.2,50v-2.8h-0.1c-0.8,1.1-1.7,2-2.5,2.5s-1.9,0.7-3.2,0.7c-1.8,0-3.4-0.6-4.6-1.8
				s-1.8-2.8-1.8-5.1V32.9h1.8v10.6c0,1.6,0.5,2.8,1.3,3.7c0.9,0.9,2.1,1.3,3.4,1.3c1.2,0,2.2-0.2,3.1-0.8c0.9-0.6,1.7-1.5,2.5-2.8
				v-12h1.8v17.2L137.2,50L137.2,50z"/>
			<path id="XMLID_89_" class="st0" d="M147.3,27.2v5.7h4.8v1.5h-4.8v10.2c0,1.7,0.2,2.7,0.4,3.2s1,0.8,2.1,0.8c0.9,0,2-0.3,3.2-0.9
				v1.9c-1.2,0.6-2.4,0.9-3.6,0.9c-1.1,0-2.1-0.3-2.8-0.9c-0.8-0.6-1.1-1.5-1.1-2.7V34.6h-4.7v-1.5h4.7V29l1.3-1.6h0.5V27.2z"/>
			<path id="XMLID_88_" class="st0" d="M157.7,32.9v17.2h-1.9V32.9H157.7z"/>
			<path id="XMLID_87_" class="st0" d="M170.8,32.5c2.5,0,4.6,0.9,6.3,2.5c1.7,1.7,2.5,3.8,2.5,6.4c0,2.5-0.9,4.7-2.5,6.3
				c-1.7,1.7-3.8,2.5-6.3,2.5s-4.6-0.9-6.3-2.5c-1.7-1.7-2.5-3.8-2.5-6.3s0.9-4.7,2.5-6.4C166.2,33.4,168.3,32.5,170.8,32.5z
				 M170.8,48.6c2,0,3.6-0.7,4.9-2.1c1.3-1.3,2-3,2-5.1c0-2.1-0.6-3.7-2-5.1c-1.3-1.3-2.9-2.1-4.8-2.1c-2,0-3.6,0.7-4.9,2.1
				s-2,3.1-2,5.1s0.6,3.7,2,5.1C167.2,47.9,168.8,48.6,170.8,48.6z"/>
			<path id="XMLID_86_" class="st0" d="M185.4,32.9v3h0.1c1.4-2.2,3.3-3.3,5.7-3.3c2,0,3.5,0.6,4.7,1.9c1.2,1.3,1.7,2.9,1.7,5.1V50
				h-1.8v-9.7c0-4-1.6-5.9-4.7-5.9c-2.3,0-4.2,1.2-5.7,3.6v12h-1.8V32.8h1.8V32.9z"/>
			<path id="XMLID_85_" class="st0" d="M212,34v2c-1.7-1.2-3.3-1.7-4.7-1.7c-1,0-1.9,0.3-2.6,0.9c-0.7,0.6-1.1,1.3-1.1,2.1
				c0,0.6,0.2,1.1,0.6,1.6s1.7,1.1,3.6,1.9c2,0.7,3.2,1.5,3.9,2.4c0.6,0.9,0.9,1.7,0.9,2.7c0,1.3-0.6,2.5-1.7,3.4
				c-1.1,0.9-2.5,1.3-4,1.3c-1.7,0-3.5-0.6-5.2-1.6v-1.9c2.1,1,3.9,1.6,5.5,1.6c1,0,2-0.3,2.6-0.9c0.7-0.6,1-1.3,1-2.1
				c0-0.6-0.2-1.1-0.6-1.7c-0.5-0.5-1.7-1.1-3.6-1.9s-3.2-1.5-3.8-2.3c-0.6-0.7-0.9-1.6-0.9-2.5c0-1.3,0.6-2.5,1.7-3.3
				c1.1-0.9,2.4-1.3,4-1.3C208.8,32.5,210.4,33,212,34z"/>
		</g>
	</g>
	<g id="XMLID_80_">
		<g>
			<path id="XMLID_83_" class="st1" d="M24.8,46.9c-2.5,2.5-6,3.8-10.4,3.8c-3.5,0-6.5-1-9-3v2.5H0.5v-45L5.4,8v18.6
				c2.4-1.9,5.4-2.8,9-2.8c4.4,0,7.9,1.3,10.4,4c2.3,2.5,3.5,5.6,3.5,9.7C28.4,41.4,27.2,44.5,24.8,46.9z M21.3,30.9
				c-1.5-1.7-3.7-2.6-6.6-2.6c-6.2,0-9.2,3.1-9.2,9.2c0,2.6,0.9,4.7,2.5,6.3c1.7,1.7,4,2.5,6.7,2.5c2.8,0,5-0.9,6.6-2.5
				c1.5-1.6,2.2-3.7,2.2-6.3C23.5,34.7,22.7,32.5,21.3,30.9z"/>
			<path id="XMLID_82_" class="st1" d="M34.2,50.3V24.4h4.9v25.9L34.2,50.3z M40,17.3c0,2.1-1.7,3.7-3.7,3.7c-2.1,0-3.7-1.7-3.7-3.7
				s1.7-3.7,3.7-3.7C38.4,13.6,40,15.3,40,17.3z"/>
			<path id="XMLID_81_" class="st1" d="M70.1,46.9c-2.5,2.5-6,3.8-10.4,3.8c-3.5,0-6.5-1-9-3v2.5h-4.9v-45L50.7,8v18.6
				c2.4-1.9,5.4-2.8,9-2.8c4.4,0,7.9,1.3,10.4,4c2.3,2.5,3.5,5.6,3.5,9.7C73.7,41.4,72.5,44.5,70.1,46.9z M66.5,30.9
				c-1.5-1.7-3.7-2.6-6.6-2.6c-6.2,0-9.2,3.1-9.2,9.2c0,2.6,0.9,4.7,2.5,6.3c1.7,1.7,4,2.5,6.7,2.5c2.8,0,5-0.9,6.6-2.5
				c1.5-1.6,2.2-3.7,2.2-6.3C68.8,34.7,68,32.5,66.5,30.9z"/>
		</g>
	</g>
	<ellipse id="XMLID_79_" class="st2" cx="157.2" cy="26.6" rx="3.7" ry="3.7"/>
	<ellipse id="XMLID_78_" class="st1" cx="164.6" cy="18.1" rx="4.5" ry="4.4"/>
	<ellipse id="XMLID_77_" class="st3" cx="152.9" cy="11.8" rx="6.5" ry="6.4"/>
</g>
</svg>
