<?xml version="1.0" encoding="utf-8"?>
<!-- Generator: Adobe Illustrator 21.1.0, SVG Export Plug-In . SVG Version: 6.00 Build 0)  -->
<svg version="1.1" id="Layer_1" xmlns="http://www.w3.org/2000/svg" xmlns:xlink="http://www.w3.org/1999/xlink" x="0px" y="0px"
	 viewBox="0 0 300 53.7" style="enable-background:new 0 0 300 53.7;" xml:space="preserve">
<style type="text/css">
	.st0{fill:#466A7D;}
	.st1{fill:url(#XMLID_2_);}
	.st2{fill:url(#XMLID_3_);}
	.st3{fill:#B5B7B7;}
	.st4{fill:#464646;}
</style>
<g>
	<g id="XMLID_5424_">
		<g id="XMLID_5470_">
			<polygon id="XMLID_5479_" class="st0" points="21.7,25 10.5,30 21.7,34.9 29.4,31.5 29.9,31.3 32.9,30 			"/>
			<path id="XMLID_5478_" class="st0" d="M29.4,30.6v6.2c-0.3,0.1-0.5,0.4-0.5,0.7c0,0.4,0.3,0.8,0.7,0.8s0.7-0.4,0.7-0.8
				c0-0.3-0.2-0.6-0.5-0.7v-6.4"/>
			<polygon id="XMLID_5477_" class="st0" points="16.2,33.6 16.2,36.5 21.6,38.8 27,36.6 27,33.6 21.6,35.8 			"/>
			
				<linearGradient id="XMLID_2_" gradientUnits="userSpaceOnUse" x1="28" y1="-177.36" x2="28" y2="-177.36" gradientTransform="matrix(1 0 0 -1 0 -140.16)">
				<stop  offset="0" style="stop-color:#036937"/>
				<stop  offset="1" style="stop-color:#169380"/>
			</linearGradient>
			<path id="XMLID_5476_" class="st1" d="M28,37.2"/>
			
				<linearGradient id="XMLID_3_" gradientUnits="userSpaceOnUse" x1="30.9" y1="-174.56" x2="30.9" y2="-174.56" gradientTransform="matrix(1 0 0 -1 0 -140.16)">
				<stop  offset="0" style="stop-color:#036937"/>
				<stop  offset="1" style="stop-color:#169380"/>
			</linearGradient>
			<path id="XMLID_5475_" class="st2" d="M30.9,34.4"/>
			<polygon id="XMLID_5474_" class="st3" points="35.6,30 32.9,31.2 42.9,31.2 32.4,20.7 22.2,20.7 28.1,26.6 			"/>
			<polygon id="XMLID_5473_" class="st0" points="7.8,30 14.4,27.1 31.1,10.3 31.1,0 0.1,31.2 10.3,31.2 10.4,31.1 			"/>
			<polygon id="XMLID_5472_" class="st3" points="10.3,32.7 0,32.7 20.7,53.4 20.7,43.1 			"/>
			<path id="XMLID_5471_" class="st0" d="M32.6,32.7l-1.1,1.1l-0.6,0.6v2.1c0.3,0.3,0.5,0.7,0.5,1.2c0,0.9-0.8,1.6-1.7,1.6
				s-1.6-0.7-1.6-1.6c0-0.2,0-0.4,0.1-0.5l-0.4,0.4l-5.5,5.6v10.2L43,32.7L32.6,32.7z"/>
		</g>
	</g>
	<g id="XMLID_3280_">
		<g id="XMLID_8632_">
			<path id="XMLID_9198_" class="st4" d="M53.6,39.1c0-2.3,0-2.8,0-3.2c0-0.5-0.2-0.8-0.6-0.9c-0.1,0-0.4,0-0.5,0s-0.1,0-0.1-0.1
				s0.1-0.1,0.2-0.1c0.7,0,1.6,0,1.7,0c0.4,0,0.9,0,1.6,0c2.5,0,3,1.5,3,2.3c0,1.2-0.7,2-1.4,2.7c1.1,0.3,2.6,1.4,2.6,3.2
				c0,1.6-1.3,3.3-3.8,3.3c-0.2,0-0.6,0-1.1,0c-0.4,0-0.9,0-0.9,0s-0.3,0-0.6,0s-0.6,0-0.9,0c-0.2,0-0.2,0-0.2-0.1
				c0,0,0-0.1,0.1-0.1s0.3,0,0.5-0.1c0.3-0.1,0.4-0.4,0.4-0.8c0.1-0.6,0.1-1.8,0.1-3.3L53.6,39.1C53.7,39.1,53.6,39.1,53.6,39.1z
				 M54.8,39.4c0,0.1,0,0.1,0.1,0.2c0.1,0,0.4,0.1,0.9,0.1c0.8,0,1.1,0,1.4-0.4c0.3-0.4,0.5-0.9,0.5-1.5c0-1.2-0.6-2.6-2-2.6
				c-0.2,0-0.5,0-0.7,0.1c-0.1,0-0.2,0.1-0.2,0.2V39.4z M54.8,41c0,1.2,0,3,0,3.2c0,0.7,0,0.9,0.5,1.2c0.4,0.2,1.1,0.2,1.3,0.2
				c0.8,0,2.1-0.4,2.1-2.1c0-0.9-0.3-2.2-1.5-3c-0.5-0.3-0.9-0.4-1.2-0.4c-0.2,0-0.9,0-1.2,0c-0.1,0-0.1,0-0.1,0.1L54.8,41L54.8,41z
				"/>
			<path id="XMLID_9195_" class="st4" d="M63,40.1c0-2,0-2.3,0-2.8c0-0.4-0.1-0.6-0.5-0.7c-0.1,0-0.3,0-0.5,0l-0.1-0.1
				c0-0.1,0.1-0.1,0.2-0.1c0.6,0,1.5,0,1.6,0s1.2,0,1.7,0c0.8,0,1.8,0.1,2.5,0.6c0.3,0.2,0.9,0.9,0.9,1.7c0,0.9-0.4,1.9-1.6,2.9
				c1.1,1.4,2,2.5,2.8,3.3c0.7,0.7,1.1,0.8,1.5,0.9c0.3,0,0.4,0,0.5,0s0.1,0.1,0.1,0.1c0,0.1-0.1,0.1-0.3,0.1H71
				c-0.8,0-1.1-0.1-1.4-0.3c-0.6-0.3-1.1-0.9-1.8-1.9c-0.6-0.7-1.1-1.5-1.4-1.9c-0.1-0.1-0.1-0.1-0.2-0.1h-1.7c-0.1,0-0.1,0-0.1,0.1
				v0.3c0,1.2,0,2.2,0.1,2.8c0,0.4,0.1,0.6,0.5,0.7c0.2,0,0.5,0.1,0.6,0.1s0.1,0.1,0.1,0.1c0,0.1-0.1,0.1-0.2,0.1
				c-0.7,0-1.6,0-1.6,0s-0.9,0-1.3,0c-0.1,0-0.2,0-0.2-0.1c0,0,0-0.1,0.1-0.1s0.3,0,0.4-0.1c0.3-0.1,0.3-0.3,0.3-0.7
				c0.1-0.5,0.1-1.5,0.1-2.8v-2.1C63.3,40.1,63,40.1,63,40.1z M64.1,41.2c0,0.1,0,0.1,0.1,0.2c0.2,0.1,0.9,0.2,1.5,0.2
				c0.3,0,0.7,0,1-0.2c0.5-0.3,0.8-1,0.8-2c0-1.6-0.9-2.5-2.3-2.5c-0.4,0-0.8,0-0.9,0.1c-0.1,0-0.1,0.1-0.1,0.2L64.1,41.2L64.1,41.2
				L64.1,41.2z"/>
			<path id="XMLID_9193_" class="st4" d="M73.9,42.4c0,1.2,0,2.2,0.1,2.8c0,0.4,0.1,0.6,0.5,0.7c0.2,0,0.5,0.1,0.6,0.1
				s0.1,0.1,0.1,0.1c0,0.1-0.1,0.1-0.2,0.1c-0.7,0-1.6,0-1.7,0s-0.9,0-1.3,0c-0.1,0-0.2,0-0.2-0.1c0,0,0-0.1,0.1-0.1s0.3,0,0.4-0.1
				c0.3-0.1,0.3-0.3,0.3-0.7c0.1-0.5,0.1-1.5,0.1-2.8v-2.3c0-2,0-2.3,0-2.8c0-0.4-0.1-0.6-0.4-0.7c-0.2,0-0.3,0-0.4,0
				s-0.1-0.1-0.1-0.1c0-0.1,0.1-0.1,0.2-0.1c0.4,0,1.3,0,1.3,0c0.1,0,0.9,0,1.3,0c0.2,0,0.2,0,0.2,0.1l-0.1,0.1c-0.1,0-0.2,0-0.3,0
				c-0.4,0.1-0.4,0.3-0.5,0.7c0,0.4,0,0.8,0,2.8V42.4L73.9,42.4z"/>
			<path id="XMLID_9191_" class="st4" d="M79.1,42.4c0,1.9,0,2.6,0.3,2.9c0.2,0.2,0.7,0.3,1.8,0.3c0.7,0,1.3,0,1.6-0.4
				c0.2-0.2,0.3-0.5,0.3-0.7c0-0.1,0.1-0.2,0.1-0.2c0.1,0,0.1,0.1,0.1,0.2s-0.1,0.9-0.2,1.3c-0.1,0.3-0.1,0.3-0.8,0.3
				c-0.9,0-1.7,0-2.3,0s-1.1,0-1.4,0c-0.1,0-0.3,0-0.5,0c-0.3,0-0.6,0-0.8,0c-0.1,0-0.2,0-0.2-0.1c0,0,0-0.1,0.1-0.1s0.3,0,0.4-0.1
				c0.3-0.1,0.3-0.3,0.3-0.7c0.1-0.5,0.1-1.5,0.1-2.8V40c0-2,0-2.3,0-2.8c0-0.4-0.1-0.6-0.5-0.7c-0.1,0-0.3,0-0.5,0l-0.1-0.1
				c0-0.1,0.1-0.1,0.2-0.1c0.6,0,1.4,0,1.5,0s1.1,0,1.5,0c0.1,0,0.2,0,0.2,0.1l-0.1,0.1c-0.1,0-0.3,0-0.4,0
				c-0.4,0.1-0.5,0.3-0.5,0.7s0,0.8,0,2.8v2.4H79.1L79.1,42.4z"/>
			<path id="XMLID_9189_" class="st4" d="M86.8,42.4c0,1.9,0,2.6,0.3,2.9c0.2,0.2,0.7,0.3,1.8,0.3c0.7,0,1.3,0,1.6-0.4
				c0.2-0.2,0.3-0.5,0.3-0.7c0-0.1,0.1-0.2,0.1-0.2c0.1,0,0.1,0.1,0.1,0.2s-0.1,0.9-0.2,1.3c-0.1,0.3-0.1,0.3-0.8,0.3
				c-0.9,0-1.7,0-2.3,0s-1.1,0-1.4,0c-0.1,0-0.3,0-0.5,0c-0.3,0-0.6,0-0.8,0c-0.1,0-0.2,0-0.2-0.1c0,0,0-0.1,0.1-0.1s0.3,0,0.4-0.1
				c0.3-0.1,0.3-0.3,0.3-0.7c0.1-0.5,0.1-1.5,0.1-2.8V40c0-2,0-2.3,0-2.8c0-0.4-0.1-0.6-0.5-0.7c-0.1,0-0.3,0-0.5,0l-0.1-0.1
				c0-0.1,0.1-0.1,0.2-0.1c0.6,0,1.4,0,1.5,0s1.1,0,1.5,0c0.1,0,0.2,0,0.2,0.1l-0.1,0.1c-0.1,0-0.3,0-0.4,0
				c-0.4,0.1-0.5,0.3-0.5,0.7s0,0.8,0,2.8v2.4H86.8L86.8,42.4z"/>
			<path id="XMLID_9187_" class="st4" d="M94.4,42.4c0,1.2,0,2.2,0.1,2.8c0,0.4,0.1,0.6,0.5,0.7c0.2,0,0.5,0.1,0.6,0.1
				s0.1,0.1,0.1,0.1c0,0.1-0.1,0.1-0.2,0.1c-0.7,0-1.6,0-1.7,0s-0.9,0-1.3,0c-0.1,0-0.2,0-0.2-0.1c0,0,0-0.1,0.1-0.1s0.3,0,0.4-0.1
				c0.3-0.1,0.3-0.3,0.3-0.7c0.1-0.5,0.1-1.5,0.1-2.8v-2.3c0-2,0-2.3,0-2.8c0-0.4-0.1-0.6-0.4-0.7c-0.2,0-0.3,0-0.4,0
				s-0.1-0.1-0.1-0.1c0-0.1,0.1-0.1,0.2-0.1c0.4,0,1.3,0,1.3,0c0.1,0,0.9,0,1.3,0c0.2,0,0.2,0,0.2,0.1l-0.1,0.1c-0.1,0-0.2,0-0.3,0
				c-0.4,0.1-0.4,0.3-0.5,0.7c0,0.4,0,0.8,0,2.8V42.4L94.4,42.4z"/>
			<path id="XMLID_9184_" class="st4" d="M100.7,36.7c0.2-0.4,0.2-0.5,0.3-0.5s0.2,0.2,0.3,0.5c0.2,0.5,2.4,5.8,3.2,7.8
				c0.5,1.1,0.8,1.3,1.1,1.4c0.2,0.1,0.4,0.1,0.5,0.1s0.2,0,0.2,0.1s-0.2,0.1-0.3,0.1c-0.2,0-1.2,0-2.1,0c-0.3,0-0.5,0-0.5-0.1
				s0-0.1,0.1-0.1s0.2-0.1,0.1-0.3l-1.2-2.9c0-0.1,0-0.1-0.1-0.1h-3.1c-0.1,0-0.1,0-0.1,0.1l-0.8,2c-0.1,0.3-0.2,0.6-0.2,0.9
				s0.2,0.3,0.5,0.3h0.1c0.1,0,0.1,0,0.1,0.1s-0.1,0.1-0.2,0.1c-0.3,0-1,0-1.2,0c-0.1,0-0.8,0-1.3,0c-0.2,0-0.3,0-0.3-0.1
				s0.1-0.1,0.1-0.1c0.1,0,0.3,0,0.4,0c0.6-0.1,0.9-0.5,1.1-1.2L100.7,36.7z M102.2,42C102.3,42,102.3,42,102.2,42l-1.3-3.6
				c-0.1-0.2-0.2-0.2-0.2,0l-1.2,3.5c0,0.1,0,0.1,0,0.1H102.2z"/>
			<path id="XMLID_9182_" class="st4" d="M108.3,44.3c0,1.1,0.2,1.4,0.5,1.5c0.2,0.1,0.5,0.1,0.7,0.1c0.1,0,0.1,0,0.1,0.1
				s-0.1,0.1-0.2,0.1c-0.8,0-1.3,0-1.4,0s-0.7,0-1.3,0c-0.1,0-0.2,0-0.2-0.1s0-0.1,0.1-0.1s0.3,0,0.5-0.1c0.3-0.1,0.4-0.4,0.4-1.6
				v-7.3c0-0.5,0.1-0.6,0.2-0.6c0.2,0,0.4,0.3,0.5,0.4c0.2,0.2,2.1,2.3,4.2,4.4c1.3,1.4,2.7,2.9,3.1,3.3l-0.1-6.4
				c0-0.8-0.1-1.1-0.5-1.2c-0.2,0-0.5-0.1-0.6-0.1s-0.1-0.1-0.1-0.1c0-0.1,0.1-0.1,0.3-0.1c0.6,0,1.2,0,1.4,0s0.6,0,1.1,0
				c0.1,0,0.2,0,0.2,0.1c0,0-0.1,0.1-0.2,0.1s-0.2,0-0.3,0c-0.4,0.1-0.5,0.3-0.5,1.1v7.5c0,0.8,0,0.9-0.1,0.9s-0.3-0.1-1-0.8
				c-0.1-0.1-2-2-3.4-3.5c-1.5-1.6-3-3.2-3.4-3.6C108.3,38.3,108.3,44.3,108.3,44.3z"/>
			<path id="XMLID_9180_" class="st4" d="M122.8,42.4c0,1.2,0,2.2,0.1,2.8c0,0.4,0.1,0.6,0.5,0.7c0.2,0,0.5,0.1,0.6,0.1
				s0.1,0.1,0.1,0.1c0,0.1-0.1,0.1-0.2,0.1c-0.7,0-1.6,0-1.6,0c-0.1,0-1,0-1.4,0c-0.2,0-0.2,0-0.2-0.1c0,0,0-0.1,0.1-0.1
				s0.3,0,0.4-0.1c0.3-0.1,0.3-0.3,0.4-0.7c0.1-0.5,0.1-1.5,0.1-2.8V37h-1.9c-0.8,0-1.1,0.1-1.3,0.4c-0.2,0.2-0.2,0.3-0.2,0.4
				s-0.1,0.1-0.1,0.1s-0.1,0-0.1-0.1s0.3-1.3,0.3-1.4s0.1-0.2,0.1-0.2c0.1,0,0.2,0.1,0.6,0.2c0.4,0,0.9,0.1,1,0.1h5
				c0.4,0,0.7,0,0.9-0.1c0.2,0,0.3-0.1,0.4-0.1s0.1,0.1,0.1,0.2c0,0.4,0,1.3,0,1.5c0,0.1-0.1,0.2-0.1,0.2c-0.1,0-0.1,0-0.1-0.2v-0.1
				c0-0.4-0.3-0.7-1.6-0.7H123v5.2C123,42.4,122.8,42.4,122.8,42.4z"/>
			<path id="XMLID_9178_" class="st4" d="M133.5,39.1c0-2.3,0-2.8,0-3.2c0-0.5-0.2-0.8-0.6-0.9c-0.1,0-0.4,0-0.5,0s-0.1,0-0.1-0.1
				s0.1-0.1,0.2-0.1c0.3,0,0.8,0,1.1,0h0.6c0.1,0,3.1,0,3.4,0c0.3,0,0.5,0,0.6-0.1c0.1,0,0.1-0.1,0.2-0.1l0.1,0.1
				c0,0.1-0.1,0.3-0.1,0.7c0,0.2,0,0.8-0.1,1c0,0.1,0,0.2-0.1,0.2s-0.1-0.1-0.1-0.2s0-0.4-0.1-0.5c-0.1-0.2-0.3-0.4-1.1-0.5
				c-0.3,0-1.9,0-2.1,0c-0.1,0-0.1,0-0.1,0.2v4.2c0,0.1,0,0.2,0.1,0.2c0.2,0,2,0,2.4,0s0.6-0.1,0.7-0.2c0.1-0.1,0.2-0.2,0.2-0.2
				s0.1,0,0.1,0.1s-0.1,0.3-0.1,0.8c0,0.3-0.1,0.9-0.1,1s0,0.3-0.1,0.3s-0.1-0.1-0.1-0.1c0-0.2,0-0.3-0.1-0.5s-0.2-0.5-0.8-0.5
				c-0.4,0-1.9-0.1-2.2-0.1c-0.1,0-0.1,0-0.1,0.1V42c0,0.5,0,2.3,0,2.6c0,1,0.3,1.2,1.7,1.2c0.4,0,1.1,0,1.4-0.2
				c0.4-0.2,0.6-0.5,0.7-1.1c0-0.2,0.1-0.2,0.1-0.2c0.1,0,0.1,0.1,0.1,0.2s-0.1,1.1-0.2,1.5c-0.1,0.4-0.2,0.4-0.8,0.4
				c-1.1,0-2,0-2.5,0c-0.6,0-0.9,0-1.2,0c0,0-0.3,0-0.6,0s-0.6,0-0.9,0c-0.2,0-0.2,0-0.2-0.1c0,0,0-0.1,0.1-0.1s0.3,0,0.5-0.1
				c0.3-0.1,0.4-0.4,0.4-0.8c0.1-0.6,0.1-1.8,0.1-3.3v-2.9L133.5,39.1L133.5,39.1z"/>
			<path id="XMLID_9175_" class="st4" d="M142,40.1c0-2,0-2.3,0-2.8c0-0.4-0.1-0.6-0.5-0.7c-0.1,0-0.3,0-0.5,0l-0.1-0.1
				c0-0.1,0.1-0.1,0.2-0.1c0.6,0,1.5,0,1.5,0c0.2,0,1,0,1.8,0c1.3,0,3.7-0.1,5.3,1.5c0.7,0.7,1.3,1.7,1.3,3.2c0,1.6-0.7,2.8-1.4,3.6
				c-0.6,0.6-1.8,1.5-4,1.5c-0.6,0-1.3,0-1.8-0.1c-0.6,0-1-0.1-1.1-0.1c0,0-0.3,0-0.5,0c-0.3,0-0.6,0-0.8,0c-0.1,0-0.2,0-0.2-0.1
				c0,0,0-0.1,0.1-0.1s0.3,0,0.4-0.1c0.3-0.1,0.3-0.3,0.3-0.7c0.1-0.5,0.1-1.5,0.1-2.8v-2.1L142,40.1L142,40.1z M143.2,41.5
				c0,1.4,0,2.5,0,2.8s0,0.8,0.2,0.9c0.2,0.2,0.6,0.5,2.2,0.5c1.2,0,2.3-0.4,3.1-1.2c0.7-0.6,1-1.9,1-3c0-1.6-0.7-2.7-1.2-3.2
				c-1.2-1.3-2.7-1.4-4.3-1.4c-0.3,0-0.7,0-0.8,0.1c-0.1,0-0.2,0.1-0.2,0.3V41.5z"/>
			<path id="XMLID_9173_" class="st4" d="M153.1,40.1c0-2,0-2.3,0-2.8c0-0.4-0.1-0.6-0.5-0.7c-0.1,0-0.3,0-0.5,0l-0.1-0.1
				c0-0.1,0.1-0.1,0.2-0.1c0.6,0,1.4,0,1.5,0s0.9,0,1.3,0c0.2,0,0.2,0,0.2,0.1l-0.1,0.1c-0.1,0-0.2,0-0.3,0
				c-0.3,0.1-0.4,0.3-0.5,0.7c0,0.4,0,0.8,0,2.8v1.8c0,1.8,0.4,2.6,1,3.1c0.6,0.6,1.2,0.7,2,0.7s1.6-0.4,2-0.9
				c0.6-0.7,0.8-1.8,0.8-3.1v-1.6c0-2,0-2.3,0-2.8c0-0.4-0.1-0.6-0.5-0.7c-0.1,0-0.3,0-0.5,0c-0.1,0-0.1-0.1-0.1-0.1
				c0-0.1,0.1-0.1,0.2-0.1c0.6,0,1.4,0,1.4,0c0.1,0,0.7,0,1.1,0c0.2,0,0.2,0,0.2,0.1c0,0,0,0.1-0.1,0.1s-0.2,0-0.3,0
				c-0.4,0.1-0.4,0.3-0.5,0.7c0,0.4,0,0.8,0,2.8v1.4c0,1.4-0.2,2.9-1.2,3.8c-1,0.8-2,0.9-2.8,0.9c-0.4,0-1.8,0-2.8-0.9
				c-0.6-0.6-1.2-1.5-1.2-3.4v-1.8H153.1z"/>
			<path id="XMLID_9171_" class="st4" d="M164.5,44.9c-1.3-1.1-1.6-2.6-1.6-3.8c0-0.9,0.3-2.3,1.5-3.5c0.8-0.8,2-1.4,4-1.4
				c0.5,0,1.3,0,1.9,0.2c0.5,0.1,0.9,0.2,1.4,0.2c0.1,0,0.2,0.1,0.2,0.1c0,0.1,0,0.3-0.1,0.7c0,0.4,0,1.1,0,1.3s-0.1,0.3-0.2,0.3
				c-0.1,0-0.1-0.1-0.1-0.3c0-0.5-0.2-1-0.6-1.3c-0.5-0.4-1.4-0.7-2.6-0.7c-1.7,0-2.5,0.5-3,0.9c-1,0.9-1.2,2-1.2,3.3
				c0,2.5,1.9,4.6,4.8,4.6c1,0,1.7-0.1,2.2-0.6c0.3-0.3,0.5-0.8,0.5-1.1c0-0.1,0-0.2,0.1-0.2s0.1,0.1,0.1,0.2s-0.2,1.2-0.3,1.6
				c-0.1,0.2-0.1,0.3-0.3,0.4c-0.5,0.2-1.5,0.3-2.4,0.3C166.9,46.2,165.6,45.8,164.5,44.9z"/>
			<path id="XMLID_9168_" class="st4" d="M176.7,36.7c0.2-0.4,0.2-0.5,0.3-0.5s0.2,0.2,0.3,0.5c0.2,0.5,2.4,5.8,3.2,7.8
				c0.5,1.1,0.8,1.3,1.1,1.4c0.2,0.1,0.4,0.1,0.5,0.1s0.2,0,0.2,0.1s-0.2,0.1-0.3,0.1c-0.2,0-1.2,0-2.1,0c-0.3,0-0.5,0-0.5-0.1
				s0-0.1,0.1-0.1s0.2-0.1,0.1-0.3l-1.2-2.9c0-0.1,0-0.1-0.1-0.1h-3.1c-0.1,0-0.1,0-0.1,0.1l-0.8,2c-0.1,0.3-0.2,0.6-0.2,0.9
				s0.2,0.3,0.5,0.3h0.1c0.1,0,0.1,0,0.1,0.1s-0.1,0.1-0.2,0.1c-0.3,0-1,0-1.2,0c-0.1,0-0.8,0-1.3,0c-0.2,0-0.3,0-0.3-0.1
				s0.1-0.1,0.1-0.1c0.1,0,0.3,0,0.4,0c0.6-0.1,0.9-0.5,1.1-1.2L176.7,36.7z M178.2,42L178.2,42l-1.3-3.6c-0.1-0.2-0.2-0.2-0.2,0
				l-1.2,3.5c0,0.1,0,0.1,0,0.1H178.2z"/>
			<path id="XMLID_9166_" class="st4" d="M185.6,42.4c0,1.2,0,2.2,0.1,2.8c0,0.4,0.1,0.6,0.5,0.7c0.2,0,0.5,0.1,0.6,0.1
				s0.1,0.1,0.1,0.1c0,0.1-0.1,0.1-0.2,0.1c-0.7,0-1.6,0-1.6,0c-0.1,0-1,0-1.4,0c-0.2,0-0.2,0-0.2-0.1c0,0,0-0.1,0.1-0.1
				s0.3,0,0.4-0.1c0.3-0.1,0.3-0.3,0.4-0.7c0.1-0.5,0.1-1.5,0.1-2.8V37h-1.9c-0.8,0-1.1,0.1-1.3,0.4c-0.2,0.2-0.2,0.3-0.2,0.4
				s-0.1,0.1-0.1,0.1s-0.1,0-0.1-0.1s0.3-1.3,0.3-1.4s0.1-0.2,0.1-0.2c0.1,0,0.2,0.1,0.6,0.2c0.4,0,0.9,0.1,1,0.1h5
				c0.4,0,0.7,0,0.9-0.1c0.2,0,0.3-0.1,0.4-0.1s0.1,0.1,0.1,0.2c0,0.4,0,1.3,0,1.5c0,0.1-0.1,0.2-0.1,0.2s-0.1,0-0.1-0.2v-0.1
				c0-0.4-0.3-0.7-1.6-0.7h-1.7v5.2C185.8,42.4,185.6,42.4,185.6,42.4z"/>
			<path id="XMLID_9164_" class="st4" d="M192.7,42.4c0,1.2,0,2.2,0.1,2.8c0,0.4,0.1,0.6,0.5,0.7c0.2,0,0.5,0.1,0.6,0.1
				s0.1,0.1,0.1,0.1c0,0.1-0.1,0.1-0.2,0.1c-0.7,0-1.6,0-1.7,0c-0.1,0-0.9,0-1.3,0c-0.1,0-0.2,0-0.2-0.1c0,0,0-0.1,0.1-0.1
				s0.3,0,0.4-0.1c0.3-0.1,0.3-0.3,0.3-0.7c0.1-0.5,0.1-1.5,0.1-2.8v-2.3c0-2,0-2.3,0-2.8c0-0.4-0.1-0.6-0.4-0.7c-0.2,0-0.3,0-0.4,0
				s-0.1-0.1-0.1-0.1c0-0.1,0.1-0.1,0.2-0.1c0.4,0,1.3,0,1.3,0c0.1,0,0.9,0,1.3,0c0.2,0,0.2,0,0.2,0.1l-0.1,0.1c-0.1,0-0.2,0-0.3,0
				c-0.4,0.1-0.4,0.3-0.5,0.7c0,0.4,0,0.8,0,2.8L192.7,42.4L192.7,42.4z"/>
			<path id="XMLID_9161_" class="st4" d="M200.5,36.2c3,0,5.2,1.8,5.2,4.8c0,2.9-2.1,5.2-5.3,5.2c-3.6,0-5.2-2.7-5.2-5
				C195.3,39.2,196.9,36.2,200.5,36.2z M200.8,45.7c1.2,0,3.6-0.6,3.6-4.3c0-3.1-1.9-4.7-4-4.7c-2.2,0-3.8,1.4-3.8,4.2
				C196.7,43.9,198.4,45.7,200.8,45.7z"/>
			<path id="XMLID_9159_" class="st4" d="M208.7,44.3c0,1.1,0.2,1.4,0.5,1.5c0.2,0.1,0.5,0.1,0.7,0.1c0.1,0,0.1,0,0.1,0.1
				s-0.1,0.1-0.2,0.1c-0.8,0-1.3,0-1.4,0s-0.7,0-1.3,0c-0.1,0-0.2,0-0.2-0.1s0-0.1,0.1-0.1s0.3,0,0.5-0.1c0.3-0.1,0.4-0.4,0.4-1.6
				v-7.3c0-0.5,0.1-0.6,0.2-0.6c0.2,0,0.4,0.3,0.5,0.4c0.2,0.2,2.1,2.3,4.2,4.4c1.3,1.4,2.7,2.9,3.1,3.3l-0.1-6.4
				c0-0.8-0.1-1.1-0.5-1.2c-0.2,0-0.5-0.1-0.6-0.1s-0.1-0.1-0.1-0.1c0-0.1,0.1-0.1,0.3-0.1c0.6,0,1.2,0,1.4,0s0.6,0,1.1,0
				c0.1,0,0.2,0,0.2,0.1c0,0-0.1,0.1-0.2,0.1s-0.2,0-0.3,0c-0.4,0.1-0.5,0.3-0.5,1.1v7.5c0,0.8,0,0.9-0.1,0.9s-0.3-0.1-1-0.8
				c-0.1-0.1-2-2-3.4-3.5c-1.5-1.6-3-3.2-3.4-3.6V44.3z"/>
			<path id="XMLID_9157_" class="st4" d="M225.2,39.1c0-2.3,0-2.8,0-3.2c0-0.5-0.2-0.8-0.6-0.9c-0.1,0-0.4,0-0.5,0s-0.1,0-0.1-0.1
				s0.1-0.1,0.2-0.1c0.3,0,0.8,0,1.1,0h0.6c0.1,0,3.1,0,3.4,0c0.3,0,0.5,0,0.6-0.1c0.1,0,0.1-0.1,0.2-0.1l0.1,0.1
				c0,0.1-0.1,0.3-0.1,0.7c0,0.2,0,0.8-0.1,1c0,0.1,0,0.2-0.1,0.2s-0.1-0.1-0.1-0.2s0-0.4-0.1-0.5c-0.1-0.2-0.3-0.4-1.1-0.5
				c-0.3,0-1.9,0-2.1,0c-0.1,0-0.1,0-0.1,0.2v4.2c0,0.1,0,0.2,0.1,0.2c0.2,0,2,0,2.4,0s0.6-0.1,0.7-0.2s0.2-0.2,0.2-0.2
				s0.1,0,0.1,0.1s-0.1,0.3-0.1,0.8c0,0.3-0.1,0.9-0.1,1s0,0.3-0.1,0.3s-0.1-0.1-0.1-0.1c0-0.2,0-0.3-0.1-0.5s-0.2-0.5-0.8-0.5
				c-0.4,0-1.9-0.1-2.2-0.1c-0.1,0-0.1,0-0.1,0.1V42c0,0.5,0,2.3,0,2.6c0,1,0.3,1.2,1.7,1.2c0.4,0,1.1,0,1.4-0.2
				c0.4-0.2,0.6-0.5,0.7-1.1c0-0.2,0.1-0.2,0.1-0.2c0.1,0,0.1,0.1,0.1,0.2s-0.1,1.1-0.2,1.5c-0.1,0.4-0.2,0.4-0.8,0.4
				c-1.1,0-2,0-2.5,0c-0.6,0-0.9,0-1.2,0c0,0-0.3,0-0.6,0s-0.6,0-0.9,0c-0.2,0-0.2,0-0.2-0.1c0,0,0-0.1,0.1-0.1s0.3,0,0.5-0.1
				c0.3-0.1,0.4-0.4,0.4-0.8c0.1-0.6,0.1-1.8,0.1-3.3v-2.9L225.2,39.1L225.2,39.1z"/>
			<path id="XMLID_9155_" class="st4" d="M235.9,41.1l-2.1-3.4c-0.3-0.5-0.6-0.9-1-1c-0.2-0.1-0.5-0.1-0.6-0.1s-0.1-0.1-0.1-0.1
				c0-0.1,0.1-0.1,0.2-0.1c0.4,0,1.4,0,1.5,0s0.8,0,1.3,0c0.2,0,0.2,0,0.2,0.1s0,0.1-0.1,0.1s-0.3,0-0.4,0c-0.1,0-0.2,0.1-0.2,0.2
				s0.1,0.3,0.1,0.4c0.6,1,1.1,1.9,1.7,3c0.4-0.6,1.8-2.7,1.9-3c0.1-0.2,0.1-0.3,0.1-0.5c0-0.1-0.1-0.2-0.2-0.2c-0.1,0-0.3,0-0.4,0
				c-0.1,0-0.1-0.1-0.1-0.1c0-0.1,0.1-0.1,0.2-0.1c0.5,0,1.1,0,1.2,0c0.1,0,0.7,0,1.1,0c0.2,0,0.2,0,0.2,0.1c0,0,0,0.1-0.1,0.1
				s-0.3,0-0.5,0.1c-0.4,0.1-0.6,0.5-1,1l-2.1,3.1c0.3,0.4,2.5,4.1,2.8,4.5c0.2,0.3,0.4,0.5,0.8,0.6c0.2,0,0.4,0.1,0.5,0.1
				s0.1,0,0.1,0.1s-0.1,0.1-0.2,0.1c-0.8,0-1.4,0-2.2,0c-0.3,0-0.4,0-0.4-0.1c0,0,0-0.1,0.1-0.1s0.2-0.2,0.1-0.4
				c-0.7-1.2-1.4-2.5-2.2-3.8l-2,3.4c-0.1,0.2-0.2,0.4-0.2,0.6c0,0.1,0.1,0.2,0.2,0.2c0.1,0,0.2,0,0.2,0c0.1,0,0.1,0.1,0.1,0.1
				c0,0.1-0.1,0.1-0.2,0.1c-0.3,0-1.2,0-1.3,0s-0.8,0-1.2,0c-0.1,0-0.1,0-0.1-0.1s0-0.1,0.1-0.1s0.3,0,0.5-0.1
				c0.4-0.1,0.7-0.3,1.1-1L235.9,41.1z"/>
			<path id="XMLID_9153_" class="st4" d="M243,40.1c0-2,0-2.3,0-2.8c0-0.4-0.1-0.6-0.5-0.7c-0.1,0-0.3,0-0.5,0l-0.1-0.1
				c0-0.1,0.1-0.1,0.2-0.1c0.6,0,1.4,0,1.5,0c0.3,0,1.3,0,1.9,0c1.7,0,2.3,0.5,2.5,0.7c0.3,0.3,0.7,0.8,0.7,1.5
				c0,1.8-1.4,3.1-3.4,3.1c-0.1,0-0.3,0-0.4,0s-0.1-0.1-0.1-0.1c0-0.1,0.1-0.1,0.3-0.1c1.4,0,2.5-0.9,2.5-2.1c0-0.4,0-1.2-0.8-1.9
				c-0.7-0.7-1.5-0.6-1.8-0.6c-0.2,0-0.6,0.1-0.7,0.1c-0.1,0-0.1,0.1-0.1,0.2v5.2c0,1.2,0,2.2,0.1,2.8c0,0.4,0.1,0.6,0.5,0.7
				c0.2,0,0.5,0.1,0.6,0.1s0.1,0.1,0.1,0.1c0,0.1-0.1,0.1-0.2,0.1c-0.7,0-1.6,0-1.7,0c0,0-0.9,0-1.3,0c-0.1,0-0.2,0-0.2-0.1
				c0,0,0-0.1,0.1-0.1s0.3,0,0.4-0.1c0.3-0.1,0.3-0.3,0.3-0.7c0.1-0.5,0.1-1.5,0.1-2.8L243,40.1z"/>
			<path id="XMLID_9151_" class="st4" d="M251.2,40.1c0-2,0-2.3,0-2.8c0-0.4-0.1-0.6-0.5-0.7c-0.1,0-0.3,0-0.5,0l-0.1-0.1
				c0-0.1,0.1-0.1,0.2-0.1c0.6,0,1.5,0,1.5,0c0.1,0,2.9,0,3.2,0s0.5-0.1,0.6-0.1s0.1-0.1,0.2-0.1l0.1,0.1c0,0.1-0.1,0.2-0.1,0.6
				c0,0.1,0,0.7-0.1,0.8c0,0.1-0.1,0.1-0.1,0.1c-0.1,0-0.1-0.1-0.1-0.2s0-0.3-0.1-0.5s-0.2-0.3-0.9-0.4c-0.2,0-1.8,0-1.9,0
				c-0.1,0-0.1,0-0.1,0.1v3.5c0,0.1,0,0.1,0.1,0.1c0.2,0,1.9,0,2.2,0s0.5,0,0.6-0.2c0.1-0.1,0.2-0.2,0.2-0.2s0.1,0,0.1,0.1
				s-0.1,0.3-0.1,0.7c0,0.3-0.1,0.7-0.1,0.8s0,0.2-0.1,0.2s-0.1,0-0.1-0.1s0-0.3-0.1-0.4c0-0.2-0.2-0.3-0.7-0.4
				c-0.4,0-1.8-0.1-2-0.1c-0.1,0-0.1,0-0.1,0.1V42c0,0.4,0,1.9,0,2.2c0,0.9,0.3,1,1.6,1c0.3,0,1,0,1.3-0.1c0.3-0.2,0.5-0.4,0.6-0.9
				c0-0.2,0.1-0.2,0.1-0.2c0.1,0,0.1,0.1,0.1,0.2s-0.1,1-0.2,1.2c-0.1,0.3-0.2,0.3-0.7,0.3c-1,0-1.8,0-2.3,0c-0.6,0-0.9,0-1.1,0
				c0,0-0.3,0-0.6,0s-0.6,0-0.8,0c-0.1,0-0.2,0-0.2-0.1c0,0,0-0.1,0.1-0.1s0.3,0,0.4-0.1c0.3,0,0.3-0.3,0.3-0.7
				c0.1-0.5,0.1-1.5,0.1-2.8v-1.8C251.1,40.1,251.2,40.1,251.2,40.1z"/>
			<path id="XMLID_9049_" class="st4" d="M259.1,40.1c0-2,0-2.3,0-2.8c0-0.4-0.1-0.6-0.5-0.7c-0.1,0-0.3,0-0.5,0l-0.1-0.1
				c0-0.1,0.1-0.1,0.2-0.1c0.6,0,1.5,0,1.6,0s1.2,0,1.7,0c0.8,0,1.8,0.1,2.5,0.6c0.3,0.2,0.9,0.9,0.9,1.7c0,0.9-0.4,1.9-1.6,2.9
				c1.1,1.4,2,2.5,2.8,3.3c0.7,0.7,1.1,0.8,1.5,0.9c0.3,0,0.4,0,0.5,0s0.1,0.1,0.1,0.1c0,0.1-0.1,0.1-0.3,0.1h-0.8
				c-0.8,0-1.1-0.1-1.4-0.3c-0.6-0.3-1.1-0.9-1.8-1.9c-0.6-0.7-1.1-1.5-1.4-1.9c-0.1-0.1-0.1-0.1-0.2-0.1h-1.7c-0.1,0-0.1,0-0.1,0.1
				v0.3c0,1.2,0,2.2,0.1,2.8c0,0.4,0.1,0.6,0.5,0.7c0.2,0,0.5,0.1,0.6,0.1s0.1,0.1,0.1,0.1c0,0.1-0.1,0.1-0.2,0.1
				c-0.7,0-1.6,0-1.6,0s-0.9,0-1.3,0c-0.1,0-0.2,0-0.2-0.1c0,0,0-0.1,0.1-0.1s0.3,0,0.4-0.1c0.3-0.1,0.3-0.3,0.3-0.7
				c0.1-0.5,0.1-1.5,0.1-2.8v-2.1H259.1z M260.3,41.2c0,0.1,0,0.1,0.1,0.2c0.2,0.1,0.9,0.2,1.5,0.2c0.3,0,0.7,0,1-0.2
				c0.5-0.3,0.8-1,0.8-2c0-1.6-0.9-2.5-2.3-2.5c-0.4,0-0.8,0-0.9,0.1c-0.1,0-0.1,0.1-0.1,0.2v4H260.3L260.3,41.2z"/>
			<path id="XMLID_9047_" class="st4" d="M271.1,42.4c0,1.2,0,2.2,0.1,2.8c0,0.4,0.1,0.6,0.5,0.7c0.2,0,0.5,0.1,0.6,0.1
				s0.1,0.1,0.1,0.1c0,0.1-0.1,0.1-0.2,0.1c-0.7,0-1.6,0-1.6,0c-0.1,0-1,0-1.4,0c-0.2,0-0.2,0-0.2-0.1c0,0,0-0.1,0.1-0.1
				s0.3,0,0.4-0.1c0.3-0.1,0.3-0.3,0.4-0.7c0.1-0.5,0.1-1.5,0.1-2.8V37h-1.9c-0.8,0-1.1,0.1-1.3,0.4c-0.2,0.2-0.2,0.3-0.2,0.4
				s-0.1,0.1-0.1,0.1s-0.1,0-0.1-0.1s0.3-1.3,0.3-1.4s0.1-0.2,0.1-0.2c0.1,0,0.2,0.1,0.6,0.2c0.4,0,0.9,0.1,1,0.1h5
				c0.4,0,0.7,0,0.9-0.1c0.2,0,0.3-0.1,0.4-0.1s0.1,0.1,0.1,0.2c0,0.4,0,1.3,0,1.5c0,0.1-0.1,0.2-0.1,0.2c-0.1,0-0.1,0-0.1-0.2v-0.1
				c0-0.4-0.3-0.7-1.6-0.7h-1.7v5.2C271.3,42.4,271.1,42.4,271.1,42.4z"/>
		</g>
		<path id="XMLID_8472_" class="st0" d="M56.3,10.3h0.6c0.9,1.2,1.8,2.4,2.5,3.7l-1.2,1.1h0.5v1.6h-1.9v1.8h2.4v1.6h-2.4V26
			c0.8-0.2,1.6-0.4,2.3-0.7V27c-2,0.6-4.2,1.1-6.6,1.5l-0.2-1.8c1-0.1,1.9-0.2,2.9-0.4v-6.2h-2.6v-1.7h2.6v-1.8h-1.7v-0.9
			c-0.2,0.3-0.4,0.5-0.6,0.7l-0.6-1.8c1.1-1.2,2.2-2.7,3.1-4.4L56.3,10.3L56.3,10.3z M54,21.2c0.2,1.2,0.4,2.5,0.6,4.1l-1.4,0.3
			c-0.1-1.4-0.3-2.7-0.5-4L54,21.2z M54.2,15.1h3.9c-0.7-1.4-1.3-2.4-1.7-3.1C55.7,13.1,55,14.1,54.2,15.1z M57.7,21.2l1.2,0.1
			c-0.1,1.4-0.2,2.7-0.3,3.7l-1.3-0.4C57.5,23.5,57.7,22.3,57.7,21.2z M59.4,11.2h4.8v-0.9h1.7v0.9h4.9v1.4h-4.9v0.8H70v1.3h-9.5
			v-1.3h3.8v-0.8h-4.8L59.4,11.2L59.4,11.2z M59.4,21.2h11.7v1.3h-1.6v0.9h1.6v1.3h-1.6v2.6c0,0.5-0.1,0.9-0.4,1.1
			c-0.3,0.3-0.7,0.4-1.4,0.4h-1.4L66,27.3c0.5,0.1,1,0.1,1.4,0.1S68,27.3,68,27v-2.3h-3.4v-1.3H68v-0.9h-8.6
			C59.4,22.5,59.4,21.2,59.4,21.2z M59.7,15.3h11.4c-0.2,1.1-0.6,2.2-1,3.3l-1.5-0.5v0.4h-2.9v0.8h4.4v1.2H59.8v-1.2h4.3v-0.8h-3.8
			v-1.2h8.2v0.6c0.2-0.4,0.4-0.8,0.6-1.3h-9.5v-1.3H59.7z M64.1,23.3v5h-1.5v-0.9h-1.3v1h-1.4v-5.1H64.1z M61.3,26.2h1.3v-1.6h-1.3
			V26.2z M65.8,24.9c0.5,0.6,0.9,1.1,1.2,1.5l-1.2,0.8c-0.2-0.5-0.6-1.1-1-1.7L65.8,24.9z"/>
		<path id="XMLID_8459_" class="st0" d="M77,15.2h2.1v-4.9h1.8v4.9h1.8V17h-1.8v12h-1.8V17H77V15.2z M82.5,12H88v-1.8h1.8V12h2.7
			c-0.2-0.4-0.5-0.7-0.8-1.1l1.1-0.7c0.6,0.5,1,1,1.4,1.3L93.5,12h2.4v1.6h-6.1v1H95v6.5c0,0.5-0.1,0.9-0.4,1.2
			c-0.2,0.2-0.6,0.3-1,0.3v0.7h2.3v1.5h-2.3v2.4c0,0.6-0.1,1.1-0.4,1.3c-0.3,0.3-0.8,0.4-1.5,0.4h-2.1l-0.3-1.8
			c0.8,0.1,1.4,0.2,1.9,0.2s0.7-0.1,0.7-0.4v-2.2h-5.4c0.6,0.8,1.2,1.5,1.6,2.3l-1.4,1.3c-0.5-0.9-1.1-1.9-2-3l0.7-0.6h-3.6v-1.5h10
			v-0.7h-0.6l-0.3-1.4l2.1,0.1c0.3,0,0.5-0.2,0.5-0.7v-0.1h-3.6v1.7h-1.8v-1.7H85v2h-1.6v-7.9h4.7v-1h-5.5L82.5,12L82.5,12z
			 M84.8,16.8h3.1v-0.9h-3.1V16.8z M84.8,19.1h3.1v-1h-3.1V19.1z M89.7,16v0.9h3.6V16H89.7z M89.7,18.1v1h3.6v-1H89.7z"/>
		<path id="XMLID_8449_" class="st0" d="M102.4,12h3v-1.6h1.8v1.7h2.6v1.6h-2.6v1.7h1.2c1.1-1.1,2.2-2.4,3.3-3.9l1.5,0.9
			c-0.8,1.1-1.6,2.2-2.4,3h1.3v1.2c0.3-0.5,0.5-1.1,0.7-1.6c0.5-1.2,0.8-2.8,1.1-4.8l1.8,0.2c-0.2,1.1-0.4,2.1-0.6,3h5.2v1.7h-1.2
			c-0.1,3.4-0.7,6.2-1.8,8.3c-0.1,0.2-0.2,0.4-0.3,0.5c0.9,1.3,2,2.4,3.4,3.4l-1.1,1.7c-1.4-1.1-2.5-2.2-3.4-3.4
			c-1,1.2-2.2,2.4-3.8,3.5l-1-1.7c1.6-1,2.9-2.2,3.8-3.4c-0.8-1.5-1.5-3.1-2-5c-0.3,0.5-0.6,1.1-1,1.6l-1.3-1.6
			c0.4-0.6,0.8-1.2,1.1-1.8H109c-0.1,0.1-0.3,0.2-0.4,0.3c-0.5,0.5-1.1,0.9-1.7,1.4h3.5v1.6c-0.7,0.7-1.5,1.3-2.4,2v0.3
			c1.3-0.1,2.4-0.3,3.5-0.5v1.6c-0.9,0.2-2.1,0.4-3.5,0.5v2.7c0,0.5-0.1,0.9-0.4,1.2c-0.3,0.4-0.7,0.6-1.1,0.6h-2.7l-0.4-1.9
			c0.7,0.1,1.4,0.1,2.2,0.1c0.4,0,0.5-0.2,0.5-0.5v-2c-1.3,0.1-2.8,0.2-4.4,0.4l-0.2-1.9c1.7,0,3.2-0.1,4.6-0.2v-1.2
			c0.6-0.3,1.3-0.7,1.9-1.3h-3.6c-0.7,0.5-1.5,0.9-2.3,1.4l-1-1.6c1.8-0.8,3.5-1.8,5.2-3.1h-4.9v-1.7h3.7v-1.7h-3V12H102.4L102.4,12
			z M114.3,16.5c0.5,2.2,1.1,4.1,1.9,5.6c0.8-1.7,1.2-4.1,1.3-7h-2.8c-0.1,0.2-0.1,0.4-0.2,0.6C114.5,15.9,114.4,16.2,114.3,16.5z"
			/>
		<path id="XMLID_7162_" class="st0" d="M135.8,10c0.3,0.5,0.6,1,0.9,1.6h8.4v1.8h-4.9c1.9,1.2,3.3,2.3,4.4,3.2l-1.8,1.2
			c-0.4-0.5-1-1-1.5-1.5c-3.1,0.4-7.8,0.7-14,1l-0.5-1.8c1.2,0,2.3,0,3.4,0c0.7-0.7,1.2-1.3,1.6-2h-5.5v-1.8h8.3
			c-0.3-0.5-0.6-0.9-0.9-1.3L135.8,10z M142.8,17.8v8.9c0,0.7-0.2,1.2-0.5,1.5s-0.8,0.5-1.3,0.5h-2.9l-0.4-1.9l2.6,0.2
			c0.4,0,0.7-0.3,0.7-0.8v-0.6h-10.2v3.3h-2v-11h14L142.8,17.8L142.8,17.8z M130.6,21h10.2v-1.5h-10.2V21z M130.6,23.9h10.2v-1.4
			h-10.2V23.9z M139.6,14.9c-0.4-0.3-0.8-0.6-1.2-0.9l1-0.6H134c-0.4,0.7-0.9,1.4-1.6,2C135.3,15.3,137.7,15.1,139.6,14.9z"/>
	</g>
</g>
</svg>
