<?xml version="1.0" encoding="utf-8"?>
<!-- Generator: Adobe Illustrator 21.1.0, SVG Export Plug-In . SVG Version: 6.00 Build 0)  -->
<svg version="1.1" id="Layer_1" xmlns="http://www.w3.org/2000/svg" xmlns:xlink="http://www.w3.org/1999/xlink" x="0px" y="0px"
	 viewBox="0 0 300 53.7" style="enable-background:new 0 0 300 53.7;" xml:space="preserve">
<style type="text/css">
	.st0{fill:#477765;}
	.st1{fill:#B5B7B7;}
	.st2{fill:#464646;}
</style>
<g>
	<g id="XMLID_7702_">
		<g id="XMLID_9637_">
			<polygon id="XMLID_9643_" class="st0" points="43.7,33.1 23,53.7 23,43.5 33.4,33.1 			"/>
			<polygon id="XMLID_9642_" class="st1" points="33.2,20.6 43.7,31.1 33.4,31.1 23,20.6 			"/>
			<polygon id="XMLID_9639_" class="st0" points="0.6,31.1 31.5,0 31.5,10.3 10.7,31.1 			"/>
			<polygon id="XMLID_9638_" class="st1" points="21.1,53.7 0.4,33 10.7,33.1 21.1,43.5 			"/>
		</g>
		<g id="XMLID_7703_">
			<g id="XMLID_7704_">
				<g>
					<polygon id="XMLID_129_" class="st0" points="17.3,26.5 26,26.5 27.4,29.5 23.6,29.5 21.7,27.4 19.7,29.5 15.9,29.5 					"/>
					<path id="XMLID_120_" class="st0" d="M26.9,35.6v-5.8h-3.3v5.8h-0.3v-5.7l-1.7-1.8l-1.7,1.8v5.8h-0.3v-5.8h-3.3v5.8h-0.4v0.5
						h11.4v-0.5L26.9,35.6L26.9,35.6z M24.9,31.1h0.7v1.4h-0.7V31.1z M24.9,33.3h0.7v1.4h-0.7V33.3z M17.7,31.1h0.7v1.4h-0.7V31.1z
						 M17.7,33.3h0.7v1.4h-0.7V33.3z M20.6,31.3h0.7V32h-0.7V31.3z M22.7,35.6h-2.2v-2.3h2.2V35.6z M22.7,31.9H22v-0.7h0.7V31.9z"/>
				</g>
			</g>
		</g>
	</g>
	<g id="XMLID_1141_">
		<g id="XMLID_8116_">
			<path id="XMLID_8208_" class="st0" d="M60,27.1c-2.1,0.7-4.3,1.2-6.5,1.6L53.2,27l1.6-0.2c0.4-0.1,0.9-0.2,1.3-0.3v-6.2h-2.6
				v-1.6h2.6V17h-1.7v-0.8l-0.6,0.6L53.1,15c1.5-1.3,2.5-2.7,3.1-4.3h1.4c1,1,1.8,2.3,2.6,3.7l-1.4,1l-1-1.7
				c-0.2-0.3-0.3-0.6-0.5-0.9c-0.1-0.1-0.2-0.3-0.3-0.3c-0.1,0.2-0.2,0.3-0.3,0.5c-0.4,0.9-1,1.7-1.7,2.5h4.4v1.6h-1.8v1.7H60v1.6
				h-2.4v5.8l1.1-0.3c0.3-0.1,0.7-0.2,1-0.3L60,27.1z M54.2,25.8c-0.1-1.6-0.3-2.9-0.5-4l1.3-0.2c0.2,0.7,0.4,1.8,0.6,3.6
				c0,0.1,0,0.3,0,0.4L54.2,25.8z M59.8,21.6l-0.1,1.7c-0.1,0.8-0.2,1.4-0.3,1.8l-1.3-0.2c0-0.2,0-0.3,0-0.3
				c0.2-1.1,0.3-1.9,0.3-2.3s0-0.6,0-0.7H59.8z M66.9,10.7v1h4.9V13h-4.9v0.8h4.1V15h-9.7v-1.2h3.9v-0.9h-5v-1.3h5v-1L66.9,10.7
				L66.9,10.7z M70.4,25.1v1.7v0.3c0,0.8-0.2,1.3-0.4,1.7c-0.3,0.3-0.9,0.4-1.7,0.4h-1L67,27.7h1.4c0.4,0,0.6-0.2,0.6-0.6v-2h-3.3
				v-1.3H69v-0.9h-8.6v-1.4h11.5v1.4h-1.5v0.9h1.5v1.3L70.4,25.1L70.4,25.1z M69.5,18.5c0.3-0.4,0.4-0.9,0.5-1.3v-0.1h-9.6v-1.4
				h11.3c0,1.1-0.3,2.3-0.9,3.3L69.5,18.5z M69,17.7v1.1h-2.6v0.8h4.5v1.2H60.7v-1.2h4v-0.7h-3.4v-1.1H69V17.7z M60.8,23.6H65v5.1
				h-1.5v-0.8h-1.3V29h-1.5L60.8,23.6L60.8,23.6z M63.5,24.9h-1.3v1.8h1.3V24.9z M66.6,27.5c-0.1-0.3-0.3-0.5-0.5-0.9l-0.5-0.8
				l1-0.6c0.2,0.2,0.4,0.4,0.6,0.7l0.6,0.9L66.6,27.5z"/>
			<path id="XMLID_8146_" class="st0" d="M77.9,17.4v-1.7h2.1v-4.9h1.8v4.9h1.6v1.7h-1.6v12h-1.8v-12H77.9z M90.6,10.7v1.7h2.8
				c-0.1-0.1-0.1-0.1-0.1-0.2c-0.1-0.1-0.2-0.3-0.3-0.3l-0.6-0.5l1.2-0.7l0.7,0.5c0.1,0.1,0.3,0.3,0.5,0.5l0.1,0.1l-1,0.5h2.7v1.6
				h-6v0.9h5.2v5.8V21c0,0.6-0.1,1-0.3,1.2s-0.6,0.3-1.1,0.4v0.6h2.3v1.7h-2.3v1.9v0.4c0,1.1-0.6,1.7-1.8,1.7h-2.1l-0.4-1.7l2,0.1
				c0.4,0,0.6-0.2,0.6-0.5V25h-5.8c0.2,0.1,0.3,0.2,0.3,0.3c0.3,0.2,0.4,0.4,0.7,0.7l1.1,1.3l-1.4,1.3c-0.5-0.8-1.1-1.5-1.8-2.2
				l-0.3-0.3l1.3-1h-3.5v-1.7h9.4v-0.6h-0.5l-0.4-1.4h1.9c0.2,0,0.3,0,0.4-0.1c0.1,0,0.1-0.2,0.1-0.4v-0.3h-3.5v1.7H89v-1.7h-3.1
				v2.1h-1.7v-7.8h4.7V14h-5.2v-1.6h5.2v-1.7H90.6z M88.8,17.1v-0.9h-3.1v0.9H88.8z M88.8,19.4v-1h-3.1v1H88.8z M94,17.1v-0.9h-3.5
				v0.9H94z M94,19.4v-1h-3.5v1H94z"/>
			<path id="XMLID_8139_" class="st0" d="M106.9,24.4l0.9-0.4l1.1-0.6v1.9c-1.9,1-3.9,1.9-6,2.7l-0.3-2l1.4-0.4
				c0.5-0.2,0.9-0.3,1-0.3v-7.4h-2.3v-1.7h2.3v-5.3h1.7v5.3h1.8v1.7h-1.8L106.9,24.4L106.9,24.4z M120.7,20.2c0,1.3-0.2,2.2-0.5,2.6
				s-1.1,0.6-2.3,0.6h-0.3c0,0-0.1,0-0.2,0l-0.5-1.9l1.1,0.1c0.3,0,0.6-0.1,0.7-0.2c0.1-0.1,0.2-0.3,0.2-0.7l0.1-4.3l-2.9,1v7.7
				h-1.7v-7l-2.4,1v7.2c0,0.3,0.1,0.6,0.3,0.7s0.3,0.2,0.6,0.2h5.5c0.4,0,0.7-0.1,0.8-0.3c0.1-0.2,0.2-1,0.3-2.5l1.9,0.6
				c-0.3,1.9-0.5,3.1-0.9,3.4s-1,0.5-1.9,0.5h-5.8h-0.3c-0.9,0-1.5-0.2-1.8-0.5s-0.5-1-0.5-2.1v-6.5l-1.6,0.5l-0.2-1.7l1.7-0.6v-5.1
				h1.8v4.5l2.4-1v-5.6h1.7v4.9l4.7-1.7L120.7,20.2z"/>
			<path id="XMLID_8136_" class="st0" d="M139.6,19.5v1.7h5.3v1.7h-5.3v1.3h4.7v1.7h-4.7v1.4h6.3V29h-15.3v-1.7h7v-1.4H133v-1.7h4.6
				v-1.3h-3.8c-0.1,0.2-0.2,0.3-0.3,0.4c-0.3,0.6-0.8,1.1-1.3,1.7c0,0-0.1,0.1-0.2,0.2l-1.5-1.1c1-1,1.7-2.4,2.4-4
				c0-0.1,0.1-0.3,0.2-0.4l1.7,0.5l-0.3,0.6l-0.2,0.4h3.1v-1.7h-6.8v1.9v0.3c0,2.6-0.6,5.1-1.9,7.5l-1.6-1.1c1-1.9,1.7-4.1,1.7-6.7
				v-3.5h16.7v1.6H139.6L139.6,19.5z M128.6,13.7v-1.6h7.2l-0.3-0.5l-0.4-0.7l2-0.3l0.4,0.8l0.3,0.7h7.2v1.6h-3.1
				c-0.1,0.2-0.2,0.3-0.3,0.3c-0.2,0.3-0.4,0.4-0.7,0.6l-0.8,0.7l1.9,0.5l2.1,0.5l-0.9,1.5c-0.2-0.1-0.3-0.1-0.4-0.2
				c-0.9-0.3-1.7-0.5-2.3-0.7l-2.3-0.6c-2,1-4.4,1.4-7.1,1.4h-0.3h-0.1l-0.6-1.5c0.1,0,0.3,0,0.4,0s0.3,0,0.6,0h0.3
				c1.7,0,3.1-0.2,4.3-0.6l-1.9-0.4l-2.4-0.5l0.8-1.1l3.1,0.5l2.8,0.5l0.3-0.1c0.4-0.3,0.8-0.5,1.2-0.9c0,0,0.1-0.1,0.2-0.1
				L128.6,13.7L128.6,13.7z"/>
		</g>
		<g id="XMLID_1156_">
			<g>
				<g id="XMLID_425_">
					<g>
						<path class="st2" d="M54.5,38.8c0-2.3,0-2.7,0-3.2s-0.2-0.7-0.6-0.9c-0.1,0-0.3-0.1-0.5-0.1c-0.1,0-0.1,0-0.1-0.1
							s0.1-0.1,0.3-0.1c0.7,0,1.6,0.1,1.7,0.1c0.3,0,1-0.1,1.6-0.1c2.4,0,3,1.5,3,2.2c0,1.2-0.7,1.9-1.4,2.6
							c1.1,0.3,2.5,1.4,2.5,3.1c0,1.6-1.2,3.2-3.8,3.2c-0.2,0-0.6,0-1-0.1c-0.4,0-0.9-0.1-0.9-0.1s-0.3,0-0.6,0s-0.6,0-0.9,0
							c-0.2,0-0.3,0-0.3-0.1s0-0.1,0.1-0.1c0.2,0,0.3,0,0.4-0.1c0.3-0.1,0.3-0.3,0.4-0.8c0.1-0.6,0.1-1.7,0.1-3.2V38.8L54.5,38.8z
							 M55.7,39.2c0,0.1,0,0.2,0.1,0.2s0.3,0.1,0.9,0.1c0.8,0,1,0,1.3-0.3s0.5-0.9,0.5-1.5c0-1.2-0.5-2.5-2-2.5
							c-0.2,0-0.4,0-0.7,0.1c-0.2,0-0.2,0.1-0.2,0.2L55.7,39.2L55.7,39.2z M55.7,40.8c0,1.1,0,3,0,3.1c0.1,0.7,0.1,1,0.5,1.1
							c0.4,0.2,1,0.3,1.3,0.3c0.8,0,2.1-0.4,2.1-2.1c0-0.9-0.3-2.2-1.4-3c-0.5-0.3-0.9-0.3-1.2-0.4c-0.2,0-1,0-1.1,0s-0.1,0-0.1,0.1
							L55.7,40.8L55.7,40.8z"/>
					</g>
				</g>
				<g id="XMLID_423_">
					<g>
						<path class="st2" d="M65.7,41.5c0,1.4,0,2.6,0.1,3.2c0.1,0.4,0.2,0.8,0.6,0.8c0.2,0,0.5,0.1,0.7,0.1c0.1,0,0.1,0.1,0.1,0.1
							c0,0.1-0.1,0.1-0.3,0.1c-0.8,0-1.7-0.1-1.8-0.1s-1,0.1-1.5,0.1c-0.2,0-0.3,0-0.3-0.1s0-0.1,0.1-0.1c0.2,0,0.3,0,0.4-0.1
							c0.3-0.1,0.3-0.3,0.4-0.8c0.1-0.6,0.1-1.7,0.1-3.2v-2.6c0-2.3,0-2.7,0-3.2s-0.2-0.8-0.5-0.8c-0.2-0.1-0.3-0.1-0.4-0.1
							c-0.1,0-0.1,0-0.1-0.1s0.1-0.1,0.3-0.1c0.5,0,1.4,0.1,1.5,0.1s1-0.1,1.5-0.1c0.2,0,0.3,0,0.3,0.1s-0.1,0.1-0.1,0.1
							c-0.1,0-0.2,0-0.3,0.1C66.1,35,66,35.2,66,35.8c0,0.4,0,0.9,0,3.2v2.5H65.7z"/>
					</g>
				</g>
				<g id="XMLID_419_">
					<g>
						<path class="st2" d="M70.9,38.8c0-2.3,0-2.7,0-3.2s-0.2-0.7-0.6-0.9c-0.1,0-0.3-0.1-0.5-0.1c-0.1,0-0.1,0-0.1-0.1
							s0.1-0.1,0.3-0.1c0.7,0,1.6,0.1,1.7,0.1c0.3,0,1-0.1,1.6-0.1c2.4,0,3,1.5,3,2.2c0,1.2-0.7,1.9-1.4,2.6
							c1.1,0.3,2.5,1.4,2.5,3.1c0,1.6-1.2,3.2-3.8,3.2c-0.2,0-0.6,0-1-0.1c-0.4,0-0.9-0.1-0.9-0.1s-0.3,0-0.6,0s-0.6,0-0.9,0
							c-0.2,0-0.3,0-0.3-0.1s0-0.1,0.1-0.1c0.2,0,0.3,0,0.4-0.1c0.3-0.1,0.3-0.3,0.4-0.8c0.1-0.6,0.1-1.7,0.1-3.2V38.8L70.9,38.8z
							 M72.1,39.2c0,0.1,0,0.2,0.1,0.2s0.3,0.1,0.9,0.1c0.8,0,1,0,1.3-0.3s0.5-0.9,0.5-1.5c0-1.2-0.5-2.5-2-2.5
							c-0.2,0-0.4,0-0.7,0.1c-0.2,0-0.2,0.1-0.2,0.2L72.1,39.2L72.1,39.2z M72.1,40.8c0,1.1,0,3,0,3.1c0.1,0.7,0.1,1,0.5,1.1
							c0.4,0.2,1,0.3,1.3,0.3c0.8,0,2.1-0.4,2.1-2.1c0-0.9-0.3-2.2-1.4-3c-0.5-0.3-0.9-0.3-1.2-0.4c-0.2,0-1,0-1.1,0s-0.1,0-0.1,0.1
							L72.1,40.8L72.1,40.8z"/>
					</g>
				</g>
				<g id="XMLID_416_">
					<g>
						<path class="st2" d="M85.8,38.8c0-2.3,0-2.7,0-3.2s-0.2-0.7-0.6-0.9c-0.1,0-0.3-0.1-0.5-0.1c-0.1,0-0.1,0-0.1-0.1
							s0.1-0.1,0.3-0.1c0.7,0,1.6,0.1,1.7,0.1c0.2,0,1.3-0.1,1.7-0.1c1,0,1.9,0.1,2.7,0.6c0.3,0.3,1,1,1,2c0,1.1-0.4,2.2-1.7,3.4
							c1.2,1.6,2.2,2.9,3.1,3.8c0.8,0.9,1.4,1,1.8,1c0.3,0.1,0.5,0.1,0.6,0.1s0.2,0.1,0.2,0.1c0,0.1-0.1,0.1-0.3,0.1h-1
							c-0.8,0-1.2-0.1-1.6-0.3c-0.6-0.3-1.1-1-2-2.2c-0.6-0.8-1.3-1.8-1.6-2.2c-0.1-0.1-0.1-0.1-0.2-0.1h-1.8
							c-0.1,0-0.1,0.1-0.1,0.1v0.3c0,1.4,0,2.6,0.1,3.2c0.1,0.4,0.2,0.8,0.6,0.8c0.2,0,0.5,0.1,0.7,0.1c0.1,0,0.1,0.1,0.1,0.1
							c0,0.1-0.1,0.1-0.3,0.1c-0.8,0-1.7-0.1-1.8-0.1c0,0-1,0.1-1.4,0.1c-0.2,0-0.3,0-0.3-0.1s0-0.1,0.1-0.1c0.2,0,0.3,0,0.4-0.1
							c0.3-0.1,0.3-0.3,0.4-0.8c0.1-0.6,0.1-1.7,0.1-3.2v-2.4h-0.3V38.8z M87.1,40.2c0,0.1,0,0.2,0.1,0.2c0.3,0.2,0.9,0.3,1.6,0.3
							c0.3,0,0.8-0.1,1.1-0.3c0.5-0.3,0.9-1.1,0.9-2.3c0-1.8-1-3-2.5-3c-0.4,0-0.9,0.1-1,0.1s-0.1,0.1-0.1,0.2L87.1,40.2L87.1,40.2z
							"/>
					</g>
				</g>
				<g id="XMLID_414_">
					<g>
						<path class="st2" d="M96.7,39.9c0-1.9,0-2.3,0-2.7c0-0.4-0.1-0.6-0.5-0.7c-0.1,0-0.3,0-0.4,0c-0.1,0-0.1-0.1-0.1-0.1
							c0-0.1,0.1-0.1,0.2-0.1c0.6,0,1.4,0,1.5,0s2.8,0,3.1,0s0.5-0.1,0.6-0.1s0.1-0.1,0.2-0.1c0.1,0,0.1,0.1,0.1,0.1
							c0,0.1-0.1,0.3-0.1,0.6c0,0.1-0.1,0.7-0.1,0.8c0,0.1-0.1,0.2-0.1,0.2c-0.1,0-0.1-0.1-0.1-0.2s0-0.3-0.1-0.4
							c-0.1-0.2-0.3-0.3-1-0.3c-0.3,0-1.7-0.1-1.8-0.1S98,36.9,98,37v3.4c0,0.1,0,0.2,0.1,0.2c0.2,0,1.8,0,2.2,0
							c0.3,0,0.5-0.1,0.6-0.2s0.2-0.2,0.2-0.2c0.1,0,0.1,0,0.1,0.1s-0.1,0.3-0.1,0.7c0,0.3-0.1,0.7-0.1,0.8c0,0.1,0,0.3-0.1,0.3
							s-0.1-0.1-0.1-0.1c0-0.1,0-0.3-0.1-0.4c-0.1-0.2-0.2-0.3-0.7-0.3c-0.3-0.1-1.7-0.1-1.9-0.1c-0.1,0-0.1,0.1-0.1,0.1v1
							c0,0.4,0,1.9,0,2.2c0,0.9,0.3,1,1.6,1c0.3,0,1,0,1.3-0.2s0.5-0.3,0.6-0.9c0-0.2,0.1-0.2,0.2-0.2c0.1,0,0.1,0.1,0.1,0.2
							s-0.1,1-0.2,1.2c-0.1,0.3-0.3,0.3-0.7,0.3c-1,0-1.7,0-2.3-0.1c-0.5,0-0.9,0-1,0c0,0-0.3,0-0.5,0c-0.3,0-0.5,0-0.8,0
							c-0.2,0-0.2,0-0.2-0.1s0-0.1,0.1-0.1s0.3-0.1,0.4-0.1c0.3-0.1,0.3-0.3,0.3-0.7c0.1-0.5,0.1-1.5,0.1-2.7v-2.2H96.7z"/>
					</g>
				</g>
				<g id="XMLID_411_">
					<g>
						<path class="st2" d="M106.7,36.5c0.2-0.4,0.3-0.5,0.3-0.5c0.2,0,0.2,0.2,0.3,0.4c0.3,0.5,2.4,5.7,3.1,7.6
							c0.4,1.1,0.8,1.3,1.1,1.4c0.2,0.1,0.3,0.1,0.5,0.1c0.1,0,0.2,0,0.2,0.1s-0.2,0.1-0.3,0.1c-0.2,0-1.1,0-2,0
							c-0.3,0-0.4,0-0.4-0.1s0-0.1,0.1-0.1s0.2-0.2,0.1-0.3l-1.1-2.9c0-0.1-0.1-0.1-0.1-0.1h-3c-0.1,0-0.1,0-0.2,0.1l-0.7,2
							c-0.1,0.3-0.2,0.6-0.2,0.9s0.3,0.3,0.4,0.3h0.1c0.1,0,0.2,0.1,0.2,0.1c0,0.1-0.1,0.1-0.2,0.1c-0.3,0-1-0.1-1.1-0.1
							c-0.2,0-0.8,0.1-1.3,0.1c-0.2,0-0.3,0-0.3-0.1s0.1-0.1,0.1-0.1c0.1,0,0.3,0,0.3,0c0.6-0.1,0.9-0.5,1.1-1.1L106.7,36.5z
							 M108.2,41.7C108.3,41.7,108.3,41.7,108.2,41.7l-1.2-3.5c-0.1-0.2-0.2-0.2-0.3,0l-1.2,3.4c0,0.1,0,0.1,0.1,0.1H108.2z"/>
					</g>
				</g>
				<g id="XMLID_409_">
					<g>
						<path class="st2" d="M115.2,42.1c0,1.8,0,2.6,0.3,2.8c0.2,0.2,0.7,0.3,1.7,0.3c0.7,0,1.2,0,1.6-0.3c0.2-0.2,0.3-0.4,0.3-0.7
							c0-0.1,0.1-0.2,0.2-0.2c0.1,0,0.1,0.1,0.1,0.2c0,0.2-0.1,0.9-0.2,1.2c-0.1,0.3-0.2,0.3-0.8,0.3c-1,0-1.7,0-2.3-0.1
							c-0.6,0-1,0-1.4,0c-0.1,0-0.3,0-0.5,0c-0.3,0-0.5,0-0.8,0c-0.2,0-0.2,0-0.2-0.1s0-0.1,0.1-0.1s0.3,0,0.4-0.1
							c0.3-0.1,0.3-0.3,0.3-0.7c0.1-0.5,0.1-1.5,0.1-2.7v-2.2c0-1.9,0-2.3,0-2.7c0-0.4-0.1-0.6-0.5-0.7c-0.1,0-0.3,0-0.4,0
							c-0.1,0-0.1-0.1-0.1-0.1c0-0.1,0.1-0.1,0.2-0.1c0.6,0,1.4,0,1.5,0s1,0,1.4,0c0.2,0,0.2,0,0.2,0.1s-0.1,0.1-0.1,0.1
							c-0.1,0-0.3,0-0.4,0c-0.3,0.1-0.4,0.3-0.5,0.7c0,0.4,0,0.8,0,2.7v2.4L115.2,42.1L115.2,42.1z"/>
					</g>
				</g>
				<g id="XMLID_407_">
					<g>
						<path class="st2" d="M127,38.8c0-2.3,0-2.7,0-3.2s-0.2-0.7-0.6-0.9c-0.1,0-0.3-0.1-0.5-0.1c-0.1,0-0.1,0-0.1-0.1
							s0.1-0.1,0.3-0.1c0.3,0,0.7,0,1,0h0.6c0.1,0,3.1,0,3.4,0c0.3,0,0.5-0.1,0.6-0.1s0.2-0.1,0.2-0.1c0.1,0,0.1,0.1,0.1,0.2
							s-0.1,0.3-0.1,0.7c0,0.2-0.1,0.8-0.1,1c0,0.1-0.1,0.2-0.1,0.2c-0.1,0-0.1-0.1-0.1-0.2s0-0.3-0.1-0.5c-0.1-0.3-0.3-0.4-1-0.5
							c-0.3,0-1.8-0.1-2-0.1c-0.1,0-0.1,0.1-0.1,0.2v4.1c0,0.1,0,0.2,0.1,0.2c0.2,0,2,0,2.4,0c0.3,0,0.5-0.1,0.7-0.2
							c0.1-0.1,0.2-0.2,0.3-0.2s0.1,0,0.1,0.1s-0.1,0.3-0.1,0.8c0,0.3-0.1,0.9-0.1,1s0,0.3-0.1,0.3s-0.1-0.1-0.1-0.2
							c0-0.2,0-0.3-0.1-0.5s-0.2-0.4-0.8-0.5c-0.4-0.1-1.8-0.1-2.1-0.1c-0.1,0-0.1,0.1-0.1,0.1v1.3c0,0.5,0,2.2,0,2.5
							c0.1,1,0.3,1.2,1.7,1.2c0.3,0,1,0,1.4-0.2c0.3-0.2,0.5-0.4,0.7-1c0-0.2,0.1-0.3,0.2-0.3s0.1,0.1,0.1,0.3
							c0,0.1-0.1,1.1-0.2,1.4c-0.1,0.3-0.3,0.3-0.8,0.3c-1.1,0-1.9,0-2.5-0.1c-0.6,0-1-0.1-1.1-0.1c0,0-0.3,0-0.6,0s-0.6,0-0.9,0
							c-0.2,0-0.3,0-0.3-0.1s0-0.1,0.1-0.1c0.2,0,0.3,0,0.4-0.1c0.3-0.1,0.3-0.3,0.4-0.8c0.1-0.6,0.1-1.7,0.1-3.2v-2.3L127,38.8
							L127,38.8z"/>
					</g>
				</g>
				<g id="XMLID_405_">
					<g>
						<path class="st2" d="M134.5,45.6c-0.2-0.1-0.2-0.2-0.2-0.4c0-0.6,0.1-1.1,0.1-1.3c0-0.2,0-0.2,0.1-0.2c0.1,0,0.1,0.1,0.1,0.2
							s0,0.3,0.1,0.4c0.2,0.9,1.2,1.2,2,1.2c1.3,0,1.9-0.7,1.9-1.7c0-0.9-0.5-1.3-1.7-2.2l-0.6-0.4c-1.4-1-1.8-1.8-1.8-2.7
							c0-1.5,1.1-2.4,2.9-2.4c0.5,0,1,0.1,1.3,0.2s0.3,0.1,0.4,0.1c0.1,0,0.2,0,0.2,0.1s-0.1,0.4-0.1,1.3c0,0.2,0,0.3-0.1,0.3
							c-0.1,0-0.1-0.1-0.1-0.2c0-0.2-0.1-0.5-0.2-0.6c-0.1-0.2-0.5-0.6-1.7-0.6c-1,0-1.7,0.4-1.7,1.4c0,0.8,0.4,1.2,1.7,2.1l0.3,0.3
							c1.6,1,2.1,1.9,2.1,3.1c0,0.7-0.3,1.6-1.2,2.2c-0.5,0.3-1.4,0.4-2.1,0.4C135.9,45.9,135.1,45.8,134.5,45.6z"/>
					</g>
				</g>
				<g id="XMLID_403_">
					<g>
						<path class="st2" d="M146.2,42.1c0,1.2,0,2.2,0.1,2.7c0.1,0.3,0.1,0.6,0.5,0.7c0.2,0,0.4,0.1,0.6,0.1c0.1,0,0.1,0.1,0.1,0.1
							c0,0.1-0.1,0.1-0.2,0.1c-0.7,0-1.6-0.1-1.6-0.1c-0.1,0-1,0.1-1.3,0.1c-0.2,0-0.2,0-0.2-0.1s0-0.1,0.1-0.1c0.1,0,0.3,0,0.3-0.1
							c0.3-0.1,0.3-0.3,0.3-0.7c0.1-0.5,0.1-1.5,0.1-2.7v-5.2h-1.8c-0.8,0-1.1,0.1-1.3,0.4s-0.2,0.3-0.2,0.4s-0.1,0.1-0.2,0.1
							c0,0-0.1,0-0.1-0.1c0-0.2,0.3-1.2,0.3-1.4c0-0.1,0.1-0.3,0.2-0.3c0.1,0,0.3,0.1,0.6,0.2s0.9,0.1,1,0.1h4.9c0.4,0,0.7,0,1-0.1
							c0.2,0,0.3-0.1,0.3-0.1c0.1,0,0.1,0.1,0.1,0.2c0,0.3-0.1,1.3-0.1,1.4s-0.1,0.2-0.1,0.2c-0.1,0-0.1-0.1-0.1-0.3v-0.2
							c-0.1-0.3-0.3-0.7-1.6-0.7h-1.7V42h0V42.1z"/>
					</g>
				</g>
				<g id="XMLID_400_">
					<g>
						<path class="st2" d="M153.8,36.5c0.2-0.4,0.3-0.5,0.3-0.5c0.2,0,0.2,0.2,0.3,0.4c0.3,0.5,2.4,5.7,3.1,7.6
							c0.4,1.1,0.8,1.3,1.1,1.4c0.2,0.1,0.3,0.1,0.5,0.1c0.1,0,0.2,0,0.2,0.1s-0.2,0.1-0.3,0.1c-0.2,0-1.1,0-2,0
							c-0.3,0-0.4,0-0.4-0.1s0-0.1,0.1-0.1c0.1,0,0.2-0.2,0.1-0.3l-1.1-2.9c0-0.1-0.1-0.1-0.1-0.1h-3c-0.1,0-0.1,0-0.2,0.1l-0.7,2
							c-0.1,0.3-0.2,0.6-0.2,0.9s0.3,0.3,0.4,0.3h0.1c0.1,0,0.2,0.1,0.2,0.1c0,0.1-0.1,0.1-0.2,0.1c-0.3,0-1-0.1-1.1-0.1
							c-0.2,0-0.8,0.1-1.3,0.1c-0.2,0-0.3,0-0.3-0.1s0.1-0.1,0.1-0.1c0.1,0,0.3,0,0.3,0c0.6-0.1,0.9-0.5,1.1-1.1L153.8,36.5z
							 M155.1,41.7C155.2,41.7,155.2,41.7,155.1,41.7l-1.2-3.5c-0.1-0.2-0.2-0.2-0.3,0l-1.2,3.4c0,0.1,0,0.1,0.1,0.1H155.1z"/>
					</g>
				</g>
				<g id="XMLID_398_">
					<g>
						<path class="st2" d="M162.8,42.1c0,1.2,0,2.2,0.1,2.7c0.1,0.3,0.1,0.6,0.5,0.7c0.2,0,0.4,0.1,0.6,0.1c0.1,0,0.1,0.1,0.1,0.1
							c0,0.1-0.1,0.1-0.2,0.1c-0.7,0-1.6-0.1-1.6-0.1c-0.1,0-1,0.1-1.3,0.1c-0.2,0-0.2,0-0.2-0.1s0-0.1,0.1-0.1c0.1,0,0.3,0,0.3-0.1
							c0.3-0.1,0.3-0.3,0.3-0.7c0.1-0.5,0.1-1.5,0.1-2.7v-5.2h-1.8c-0.8,0-1.1,0.1-1.3,0.4c-0.2,0.3-0.2,0.3-0.2,0.4
							s-0.1,0.1-0.2,0.1c0,0-0.1,0-0.1-0.1c0-0.2,0.3-1.2,0.3-1.4c0-0.1,0.1-0.3,0.2-0.3c0.1,0,0.3,0.1,0.6,0.2
							c0.3,0.1,0.9,0.1,1,0.1h4.9c0.4,0,0.7,0,1-0.1c0.2,0,0.3-0.1,0.3-0.1c0.1,0,0.1,0.1,0.1,0.2c0,0.3-0.1,1.3-0.1,1.4
							s-0.1,0.2-0.1,0.2s-0.1-0.1-0.1-0.3v-0.2c-0.1-0.3-0.3-0.7-1.6-0.7h-1.7V42h0V42.1z"/>
					</g>
				</g>
				<g id="XMLID_396_">
					<g>
						<path class="st2" d="M169,39.9c0-1.9,0-2.3,0-2.7c0-0.4-0.1-0.6-0.5-0.7c-0.1,0-0.3,0-0.4,0c-0.1,0-0.1-0.1-0.1-0.1
							c0-0.1,0.1-0.1,0.2-0.1c0.6,0,1.4,0,1.5,0c0.1,0,2.8,0,3.1,0s0.5-0.1,0.6-0.1c0.1,0,0.1-0.1,0.2-0.1c0.1,0,0.1,0.1,0.1,0.1
							c0,0.1-0.1,0.3-0.1,0.6c0,0.1-0.1,0.7-0.1,0.8c0,0.1-0.1,0.2-0.1,0.2c-0.1,0-0.1-0.1-0.1-0.2s0-0.3-0.1-0.4
							c-0.1-0.2-0.3-0.3-1-0.3c-0.3,0-1.7-0.1-1.8-0.1s-0.1,0.1-0.1,0.2v3.4c0,0.1,0,0.2,0.1,0.2c0.2,0,1.8,0,2.2,0
							c0.3,0,0.5-0.1,0.6-0.2c0.1-0.1,0.2-0.2,0.2-0.2c0.1,0,0.1,0,0.1,0.1s-0.1,0.3-0.1,0.7c0,0.3-0.1,0.7-0.1,0.8
							c0,0.1,0,0.3-0.1,0.3c-0.1,0-0.1-0.1-0.1-0.1c0-0.1,0-0.3-0.1-0.4c-0.1-0.2-0.2-0.3-0.7-0.3c-0.3-0.1-1.7-0.1-1.9-0.1
							c-0.1,0-0.1,0.1-0.1,0.1v1c0,0.4,0,1.9,0,2.2c0,0.9,0.3,1,1.6,1c0.3,0,1,0,1.3-0.2s0.5-0.3,0.6-0.9c0-0.2,0.1-0.2,0.2-0.2
							c0.1,0,0.1,0.1,0.1,0.2s-0.1,1-0.2,1.2c-0.1,0.3-0.3,0.3-0.7,0.3c-1,0-1.7,0-2.3-0.1c-0.5,0-0.9,0-1,0c0,0-0.3,0-0.5,0
							c-0.3,0-0.5,0-0.8,0c-0.2,0-0.2,0-0.2-0.1s0-0.1,0.1-0.1c0.1,0,0.3-0.1,0.4-0.1c0.3-0.1,0.3-0.3,0.3-0.7
							c0.1-0.5,0.1-1.5,0.1-2.7v-2.2H169z"/>
					</g>
				</g>
				<g id="XMLID_393_">
					<g>
						<path class="st2" d="M184.4,34.9c0.2-0.5,0.3-0.6,0.3-0.6s0.2,0.1,0.3,0.5c0.3,0.5,2.5,6.6,3.4,8.9c0.5,1.3,1,1.6,1.3,1.7
							s0.4,0.1,0.6,0.1c0.1,0,0.2,0,0.2,0.1s-0.2,0.1-0.3,0.1c-0.3,0-1.3,0-2.4,0c-0.3,0-0.4,0-0.4-0.1s0.1-0.1,0.1-0.1
							c0.1,0,0.2-0.2,0.1-0.4l-1.4-3.7c0-0.1-0.1-0.1-0.2-0.1h-3.1c-0.1,0-0.1,0.1-0.2,0.1l-0.9,2.6c-0.2,0.3-0.2,0.7-0.2,1
							s0.3,0.4,0.5,0.4h0.2c0.1,0,0.2,0,0.2,0.1s-0.1,0.1-0.3,0.1c-0.3,0-1-0.1-1.1-0.1c-0.2,0-1,0.1-1.7,0.1c-0.2,0-0.3,0-0.3-0.1
							s0.1-0.1,0.2-0.1c0.1,0,0.3,0,0.4,0c0.7-0.1,1-0.6,1.2-1.4L184.4,34.9z M186,40.9C186,40.9,186,40.8,186,40.9l-1.3-4.1
							c-0.1-0.3-0.2-0.3-0.3,0l-1.3,4c0,0.1,0,0.1,0.1,0.1H186z"/>
					</g>
				</g>
				<g id="XMLID_391_">
					<g>
						<path class="st2" d="M198.4,42.5c0-1,0-1.1-0.5-1.3c-0.1,0-0.3,0-0.4,0c-0.1,0-0.1-0.1-0.1-0.1c0-0.1,0.1-0.1,0.2-0.1
							c0.6,0,1.5,0,1.6,0c0.1,0,0.9,0,1.3,0c0.2,0,0.2,0,0.2,0.1s-0.1,0.1-0.1,0.1c-0.1,0-0.2,0-0.3,0c-0.3,0.1-0.4,0.3-0.5,0.7
							c0,0.4,0,0.8,0,1.3v1.4c0,0.6,0,0.6-0.2,0.7c-0.8,0.4-2,0.5-2.8,0.5c-1,0-2.8-0.1-4.3-1.3c-0.8-0.7-1.6-2-1.6-3.6
							c0-2,1-3.4,2.2-4.1c1.1-0.7,2.4-0.8,3.5-0.8c0.8,0,1.7,0.2,2,0.2c0.3,0.1,0.7,0.2,1,0.2c0.2,0,0.2,0.1,0.2,0.1
							c0,0.2-0.1,0.5-0.1,1.7c0,0.2-0.1,0.3-0.2,0.3c-0.1,0-0.1-0.1-0.1-0.2c0-0.2-0.1-0.5-0.3-0.8c-0.3-0.4-1.3-1-3-1
							c-0.8,0-1.7,0.1-2.7,0.8c-0.8,0.6-1.3,1.7-1.3,3.1c0,1.7,0.9,3.1,1.4,3.5c1,1,2.1,1.3,3.3,1.3c0.4,0,1-0.1,1.4-0.3
							c0.2-0.1,0.3-0.2,0.3-0.3L198.4,42.5L198.4,42.5z"/>
					</g>
				</g>
				<g id="XMLID_389_">
					<g>
						<path class="st2" d="M203.4,39.9c0-1.9,0-2.3,0-2.7c0-0.4-0.1-0.6-0.5-0.7c-0.1,0-0.3,0-0.4,0c-0.1,0-0.1-0.1-0.1-0.1
							c0-0.1,0.1-0.1,0.2-0.1c0.6,0,1.4,0,1.5,0c0.1,0,2.8,0,3.1,0c0.3,0,0.5-0.1,0.6-0.1c0.1,0,0.1-0.1,0.2-0.1s0.1,0.1,0.1,0.1
							c0,0.1-0.1,0.3-0.1,0.6c0,0.1-0.1,0.7-0.1,0.8c0,0.1-0.1,0.2-0.1,0.2c-0.1,0-0.1-0.1-0.1-0.2s0-0.3-0.1-0.4
							c-0.1-0.2-0.3-0.3-1-0.3c-0.3,0-1.7-0.1-1.8-0.1c-0.1,0-0.1,0.1-0.1,0.2v3.4c0,0.1,0,0.2,0.1,0.2c0.2,0,1.8,0,2.2,0
							c0.4,0,0.5-0.1,0.6-0.2c0.1-0.1,0.2-0.2,0.2-0.2c0.1,0,0.1,0,0.1,0.1s-0.1,0.3-0.1,0.7c0,0.3-0.1,0.7-0.1,0.8
							c0,0.1,0,0.3-0.1,0.3c-0.1,0-0.1-0.1-0.1-0.1c0-0.1,0-0.3-0.1-0.4c-0.1-0.2-0.2-0.3-0.7-0.3c-0.3-0.1-1.7-0.1-1.9-0.1
							c-0.1,0-0.1,0.1-0.1,0.1v1c0,0.4,0,1.9,0,2.2c0,0.9,0.3,1,1.6,1c0.3,0,1,0,1.3-0.2c0.3-0.2,0.5-0.3,0.6-0.9
							c0-0.2,0.1-0.2,0.2-0.2s0.1,0.1,0.1,0.2s-0.1,1-0.2,1.2c-0.1,0.3-0.3,0.3-0.7,0.3c-1,0-1.7,0-2.3-0.1c-0.5,0-0.9,0-1,0
							c0,0-0.3,0-0.5,0c-0.3,0-0.5,0-0.8,0c-0.2,0-0.2,0-0.2-0.1s0-0.1,0.1-0.1c0.1,0,0.3-0.1,0.4-0.1c0.3-0.1,0.3-0.3,0.3-0.7
							c0.1-0.5,0.1-1.5,0.1-2.7v-2.2H203.4z"/>
					</g>
				</g>
				<g id="XMLID_387_">
					<g>
						<path class="st2" d="M212.1,44c0,1,0.2,1.3,0.5,1.4s0.5,0.1,0.6,0.1c0.1,0,0.1,0.1,0.1,0.1c0,0.1-0.1,0.1-0.3,0.1
							c-0.7,0-1.2-0.1-1.4-0.1c-0.1,0-0.7,0.1-1.2,0.1c-0.2,0-0.2,0-0.2-0.1s0.1-0.1,0.1-0.1c0.1,0,0.3,0,0.5-0.1
							c0.3-0.1,0.3-0.4,0.3-1.6v-7.2c0-0.5,0.1-0.6,0.2-0.6c0.2,0,0.3,0.3,0.5,0.3c0.2,0.2,2.1,2.2,4.1,4.3c1.3,1.3,2.7,2.8,3.1,3.2
							l-0.2-6.3c0-0.8-0.1-1.1-0.5-1.1c-0.3-0.1-0.5-0.1-0.6-0.1c-0.1,0-0.1-0.1-0.1-0.1c0-0.1,0.1-0.1,0.3-0.1c0.6,0,1.2,0,1.4,0
							c0.2,0,0.6,0,1.1,0c0.2,0,0.3,0,0.3,0.1s-0.1,0.1-0.2,0.1c-0.1,0-0.2,0-0.3,0c-0.4,0.1-0.4,0.3-0.4,1.1v7.3
							c0,0.8,0,0.9-0.1,0.9c-0.2,0-0.3-0.1-1-0.8c-0.2-0.1-2-1.9-3.4-3.4c-1.5-1.6-3-3.1-3.4-3.6L212.1,44z"/>
					</g>
				</g>
				<g id="XMLID_385_">
					<g>
						<path class="st2" d="M223.8,44.5c-1.3-1.1-1.6-2.5-1.6-3.8c0-0.9,0.3-2.3,1.5-3.4c0.8-0.8,1.9-1.3,3.9-1.3
							c0.5,0,1.2,0.1,1.9,0.2c0.5,0.1,0.9,0.2,1.3,0.2c0.2,0,0.2,0.1,0.2,0.2s0,0.3-0.1,0.7c0,0.4,0,1.1,0,1.3
							c0,0.2-0.1,0.3-0.2,0.3c-0.1,0-0.1-0.1-0.1-0.3c0-0.5-0.2-1-0.5-1.2c-0.4-0.3-1.4-0.7-2.5-0.7c-1.7,0-2.4,0.4-2.9,0.9
							c-1,0.9-1.1,2-1.1,3.3c0,2.4,1.9,4.5,4.7,4.5c1,0,1.7-0.1,2.2-0.6c0.3-0.3,0.4-0.8,0.5-1c0-0.2,0.1-0.2,0.2-0.2
							c0.1,0,0.1,0.1,0.1,0.2s-0.2,1.2-0.3,1.6c-0.1,0.3-0.1,0.3-0.3,0.3c-0.5,0.2-1.5,0.3-2.4,0.3
							C226.1,45.9,224.8,45.4,223.8,44.5z"/>
					</g>
				</g>
				<g id="XMLID_383_">
					<g>
						<path class="st2" d="M235.8,42.4c0-0.7-0.1-1-0.3-1.3c-0.1-0.2-1.8-3-2.3-3.7c-0.3-0.4-0.6-0.8-0.9-0.9
							c-0.2-0.1-0.4-0.2-0.5-0.2c-0.1,0-0.2-0.1-0.2-0.1c0-0.1,0.1-0.1,0.2-0.1c0.3,0,1.2,0,1.3,0s0.6,0,1.1,0c0.2,0,0.2,0,0.2,0.1
							s-0.1,0.1-0.2,0.2c-0.1,0.1-0.2,0.1-0.2,0.2c0,0.2,0.1,0.3,0.2,0.5l2.4,3.9c0.3-0.5,1.9-3.2,2.1-3.7c0.2-0.3,0.3-0.5,0.3-0.6
							c0-0.2-0.1-0.3-0.2-0.3c-0.1,0-0.2-0.1-0.2-0.2s0.1-0.1,0.2-0.1c0.3,0,0.8,0,0.9,0c0.1,0,1,0,1.3,0c0.1,0,0.2,0,0.2,0.1
							s-0.1,0.2-0.2,0.2c-0.2,0-0.4,0.1-0.6,0.2c-0.3,0.2-0.3,0.3-0.6,0.6c-0.4,0.5-2.3,3.5-2.5,4c-0.3,0.4-0.2,0.9-0.2,1.2v1
							c0,0.2,0,0.7,0.1,1.2c0,0.3,0.1,0.6,0.5,0.7c0.2,0,0.4,0.1,0.6,0.1c0.1,0,0.1,0.1,0.1,0.1c0,0.1-0.1,0.1-0.2,0.1
							c-0.7,0-1.6-0.1-1.7-0.1s-0.9,0.1-1.3,0.1c-0.2,0-0.2,0-0.2-0.1s0-0.1,0.1-0.1c0.1,0,0.3,0,0.3-0.1c0.3-0.1,0.3-0.3,0.3-0.7
							c0-0.5,0-1,0-1.2L235.8,42.4L235.8,42.4z"/>
					</g>
				</g>
			</g>
		</g>
	</g>
</g>
</svg>
