<?xml version="1.0" encoding="utf-8"?>
<!-- Generator: Adobe Illustrator 21.1.0, SVG Export Plug-In . SVG Version: 6.00 Build 0)  -->
<svg version="1.1" id="Layer_1" xmlns="http://www.w3.org/2000/svg" xmlns:xlink="http://www.w3.org/1999/xlink" x="0px" y="0px"
	 viewBox="0 0 300 53.7" style="enable-background:new 0 0 300 53.7;" xml:space="preserve">
<style type="text/css">
	.st0{fill:#2675B0;}
	.st1{fill:#C13C38;}
	.st2{fill:#232323;}
	.st3{fill:#635D59;}
</style>
<g>
	<g>
		<polygon class="st0" points="24.4,39.7 14.1,39.7 28,53.5 27.9,43.3 		"/>
		<g>
			<polygon class="st1" points="33,39.7 29.4,43.3 29.5,53.5 43.2,39.7 			"/>
		</g>
		<g>
			<polygon class="st1" points="23,25.9 38.4,10.5 38.3,0.2 12.7,25.9 			"/>
		</g>
		<polygon class="st0" points="44.7,25.9 39.7,20.8 29.4,20.8 34.5,25.9 		"/>
		<g>
			<g>
				<path class="st1" d="M4.6,31.5L5,30.1h4.8H10l0.1-0.2l0.6-2l0.1-0.4h-0.4h-7H3.1L3,27.7l-2.9,10L0,38.1h0.4h2h0.2l0.1-0.2
					l1.1-3.8h2.8h0.2l0.1-0.2l0.6-2l0.1-0.4H7.2H4.6z"/>
				<path class="st1" d="M11.7,27.5h-0.2l-0.1,0.2l-2.9,10l-0.1,0.4h0.4h2H11l0.1-0.2l2.9-10l0.1-0.4h-0.4H11.7z"/>
				<path class="st1" d="M23.2,27.5h-8H15l-0.1,0.2l-0.6,2l-0.1,0.4h0.4h2.6L15,37.7l-0.1,0.4h0.4h2h0.2l0.1-0.2l2.3-7.8h2.8h0.2
					l0.1-0.2l0.6-2l0.1-0.4H23.2z"/>
			</g>
			<g>
				<path class="st2" d="M33.1,27.5h-0.4h-2h-0.2l-0.1,0.2l-1.7,5.6l-1.6-5.6l-0.1-0.2h-0.2h-2.1h-0.2l-0.1,0.2l-3,10l-0.1,0.4h0.4
					h2H24l0.1-0.2l1.6-5.5l1.6,5.5l0.1,0.2h0.2h2.1H30l0.1-0.2l3-10L33.1,27.5z"/>
				<path class="st2" d="M34.2,35.5l0.4-1.4h3h0.2l0.1-0.2l0.6-2l0.1-0.4h-0.4h-2.9l0.4-1.4h4.6h0.2l0.1-0.2l0.6-2l0.1-0.4h-0.4
					h-6.9H34l-0.1,0.2l-3,10l-0.1,0.4h0.4H38h0.2l0.1-0.2l0.6-2l0.1-0.4h-0.4H34.2z"/>
				<path class="st2" d="M47.5,32.5c-0.2-0.3-0.5-0.6-0.8-0.8c-0.3-0.2-0.7-0.3-1.1-0.3h-1.8c-0.1,0-0.1,0-0.2,0
					c0,0-0.1-0.1-0.1-0.1c0,0,0-0.1-0.1-0.2c0-0.1,0-0.2,0-0.3c0-0.1,0.1-0.2,0.1-0.3c0.1-0.1,0.1-0.2,0.2-0.3
					c0.1-0.1,0.2-0.1,0.3-0.2c0.1,0,0.2-0.1,0.3-0.1h4.1h0.2l0.1-0.2l0.6-2l0.1-0.4h-0.4H45c-0.4,0-0.8,0.1-1.2,0.3
					c-0.4,0.2-0.8,0.4-1.1,0.7c-0.3,0.3-0.7,0.6-0.9,1c-0.3,0.4-0.5,0.8-0.6,1.3C41,31.2,40.9,31.6,41,32c0,0.4,0.1,0.8,0.3,1.1
					c0.2,0.3,0.5,0.6,0.8,0.8c0.3,0.2,0.7,0.3,1.1,0.3H45c0.1,0,0.1,0,0.2,0c0,0,0.1,0.1,0.1,0.1c0,0,0,0.1,0.1,0.2
					c0,0.1,0,0.2,0,0.3c0,0.1-0.1,0.2-0.1,0.3c-0.1,0.1-0.1,0.2-0.2,0.3c-0.1,0.1-0.2,0.1-0.3,0.2c-0.1,0-0.2,0.1-0.3,0.1h-4h-0.2
					l-0.1,0.2l-0.6,2l-0.1,0.4h0.4h4c0.4,0,0.8-0.1,1.2-0.3c0.4-0.2,0.8-0.4,1.1-0.7c0.3-0.3,0.7-0.6,0.9-1c0.3-0.4,0.5-0.8,0.6-1.2
					c0.1-0.4,0.2-0.9,0.2-1.3C47.8,33.2,47.7,32.8,47.5,32.5z"/>
				<path class="st2" d="M57.6,27.5h-4.1c-0.4,0-0.8,0.1-1.2,0.3c-0.4,0.2-0.8,0.4-1.1,0.7c-0.3,0.3-0.7,0.6-0.9,1
					c-0.3,0.4-0.5,0.8-0.6,1.3c-0.1,0.4-0.2,0.9-0.2,1.3c0,0.4,0.1,0.8,0.3,1.1c0.2,0.3,0.5,0.6,0.8,0.8c0.3,0.2,0.7,0.3,1.1,0.3
					h1.8c0.1,0,0.1,0,0.2,0c0,0,0.1,0.1,0.1,0.1c0,0,0,0.1,0.1,0.2c0,0.1,0,0.2,0,0.3c0,0.1-0.1,0.2-0.1,0.3
					c-0.1,0.1-0.1,0.2-0.2,0.3c-0.1,0.1-0.2,0.1-0.3,0.2c-0.1,0-0.2,0.1-0.3,0.1h-4h-0.2l-0.1,0.2l-0.6,2l-0.1,0.4h0.4h4
					c0.4,0,0.8-0.1,1.2-0.3c0.4-0.2,0.8-0.4,1.1-0.7c0.3-0.3,0.7-0.6,0.9-1c0.3-0.4,0.5-0.8,0.6-1.2c0.1-0.4,0.2-0.9,0.2-1.3
					c0-0.4-0.1-0.8-0.3-1.1c-0.2-0.3-0.5-0.6-0.8-0.8c-0.3-0.2-0.7-0.3-1.1-0.3h-1.8c-0.1,0-0.1,0-0.2,0c0,0-0.1-0.1-0.1-0.1
					c0,0,0-0.1-0.1-0.2c0-0.1,0-0.2,0-0.3c0-0.1,0.1-0.2,0.1-0.3c0.1-0.1,0.1-0.2,0.2-0.3c0.1-0.1,0.2-0.1,0.3-0.2
					c0.1,0,0.2-0.1,0.3-0.1H57h0.2l0.1-0.2l0.6-2l0.1-0.4H57.6z"/>
			</g>
		</g>
	</g>
	<g>
		<path class="st1" d="M74,27.3c-2.1,0.7-4.3,1.2-6.6,1.6l-0.2-1.8l1.6-0.2c0.5-0.1,0.9-0.2,1.3-0.3v-6.3h-2.7v-1.6h2.7V17h-1.7
			v-0.8l-0.6,0.6L67.2,15c1.5-1.3,2.6-2.8,3.2-4.3h1.4c1,1.1,1.9,2.3,2.7,3.7L73,15.5l-0.9-1.7c-0.2-0.3-0.4-0.6-0.6-0.9
			c-0.1-0.1-0.2-0.2-0.3-0.4c-0.1,0.2-0.2,0.4-0.3,0.5c-0.5,0.9-1.1,1.7-1.8,2.5h4.4V17h-1.9v1.8h2.4v1.6h-2.4v5.9l1.2-0.3
			c0.3-0.1,0.7-0.2,1.1-0.3L74,27.3z M68.1,25.9c-0.1-1.6-0.2-2.9-0.5-4.1l1.3-0.2c0.2,0.7,0.4,1.9,0.6,3.6c0,0.1,0,0.2,0,0.4
			L68.1,25.9z M73.9,21.7l-0.1,1.7c-0.1,0.8-0.2,1.4-0.2,1.9L72.2,25c0-0.1,0-0.2,0-0.3c0.2-1.2,0.3-1.9,0.3-2.3c0-0.4,0-0.6,0-0.8
			L73.9,21.7z M81.1,10.6v1H86v1.4h-4.9v0.8h4.1V15h-9.8v-1.3h4v-0.8h-5v-1.4h5v-1H81.1z M84.6,25.2V27v0.2c0,0.8-0.2,1.3-0.5,1.6
			c-0.3,0.3-0.9,0.5-1.7,0.5h-1L81,27.8l1.4,0c0.4,0,0.7-0.2,0.7-0.6v-2.1h-3.4v-1.3H83v-0.9h-8.7v-1.4h11.7v1.4h-1.5v0.9h1.5v1.3
			H84.6z M83.7,18.5c0.3-0.4,0.5-0.9,0.6-1.4c0,0,0-0.1,0-0.1h-9.7v-1.4h11.5c0,1.2-0.3,2.3-0.9,3.3L83.7,18.5z M83.1,17.7v1.2h-2.7
			v0.8h4.6v1.3H74.7v-1.3h4.1v-0.8h-3.5v-1.2H83.1z M74.8,23.7h4.3v5.2h-1.5v-0.8h-1.3v1.1h-1.5V23.7z M77.6,25h-1.3v1.8h1.3V25z
			 M80.8,27.7c-0.1-0.3-0.3-0.6-0.5-0.9l-0.6-0.8l1.1-0.6c0.2,0.2,0.4,0.5,0.6,0.7l0.6,0.9L80.8,27.7z"/>
		<path class="st1" d="M91.8,17.3v-1.8h2.1v-5h1.8v5h1.6v1.8h-1.6v12.1h-1.8V17.3H91.8z M104.6,10.6v1.8h2.9
			c-0.1-0.1-0.1-0.1-0.1-0.2c-0.1-0.1-0.2-0.2-0.3-0.3l-0.6-0.6l1.3-0.7l0.7,0.6c0.1,0.1,0.3,0.3,0.5,0.6l0.1,0.1l-1,0.5h2.7v1.6
			h-6.1v0.8h5.3v5.9v0.5c0,0.6-0.1,1-0.3,1.2c-0.2,0.2-0.6,0.4-1.2,0.5v0.6h2.3v1.7h-2.3v2v0.4c0,1.1-0.6,1.7-1.8,1.7h-2.1l-0.5-1.8
			l2,0.1c0.4,0,0.6-0.2,0.6-0.6v-1.8h-5.9c0.1,0.1,0.2,0.2,0.3,0.3c0.2,0.2,0.5,0.4,0.7,0.7l1.2,1.3l-1.5,1.3
			c-0.5-0.8-1.2-1.5-1.9-2.2l-0.3-0.3l1.3-1h-3.5v-1.7h9.6v-0.6h-0.6l-0.4-1.4l2,0c0.2,0,0.3,0,0.4-0.1c0.1,0,0.1-0.2,0.1-0.5v-0.3
			h-3.6v1.7h-1.7v-1.7h-3.1v2.1h-1.7v-8.1h4.8v-0.8h-5.3v-1.6h5.3v-1.8H104.6z M102.9,17.1v-0.9h-3.1v0.9H102.9z M102.9,19.5v-1
			h-3.1v1H102.9z M108.2,17.1v-0.9h-3.6v0.9H108.2z M108.2,19.5v-1h-3.6v1H108.2z"/>
		<path class="st1" d="M131.6,22.4c-0.1-0.1-0.2-0.1-0.3-0.2c-0.6,0.6-1.4,1.3-2.4,2c-0.1,0-0.2,0.1-0.3,0.2l-1.2-1.5
			c0.8-0.3,1.5-0.9,2.3-1.5L130,21c-0.1-0.1-0.2-0.2-0.3-0.3c-0.3-0.3-0.4-0.5-0.5-0.6l-0.7-1h-5l-0.7,1c-0.2,0.2-0.4,0.5-0.7,0.7
			l-0.2,0.2c0.1,0.1,0.3,0.2,0.3,0.2c0.3,0.2,0.5,0.3,0.8,0.5l1.3,1l-1.3,1.4l-1.3-1.1c-0.3-0.3-0.7-0.5-1.2-0.9
			c-0.1,0.1-0.2,0.2-0.3,0.2c-0.6,0.5-1,0.8-1.3,0.9l-1.7,1l-1-1.8l0.8-0.4c1.7-0.9,3.1-2,4-3.1h-4.5v-1.6h5.6l0.4-0.6l0.3-0.5h-4.7
			v-1.5h5.4l0.2-0.6l0.2-0.5h-6.5v-1.6h6.9l0.2-0.8l0.2-0.9l1.8,0.2l-0.1,0.7l-0.2,0.7h7.9v1.6H126l-0.2,0.6l-0.2,0.5h7.9v1.5H125
			l-0.3,0.6l-0.3,0.6h10.7v1.6h-4.5c1,1.2,2.5,2.3,4.7,3.3l-1,1.8C133.4,23.7,132.5,23.1,131.6,22.4z M124.1,25.9
			c-1.4,0.8-3.1,1.6-5.1,2.2c-0.3,0.1-0.7,0.2-1.2,0.4l-0.9-1.8c2.9-0.8,5.2-1.6,6.9-2.5L124.1,25.9z M125.4,20.2h1.8v6.8v0.3
			c0,0.7-0.1,1.2-0.4,1.6c-0.3,0.3-0.9,0.5-1.9,0.5h-1.8l-0.5-1.9l2.1,0.1c0.5,0,0.7-0.2,0.7-0.6V20.2z M133.9,28.7
			c-1.1-0.6-2-1.2-2.9-1.5l-2.9-1.3l1-1.3c1.8,0.6,3.6,1.3,5.3,2.2c0.2,0.1,0.4,0.2,0.6,0.3L133.9,28.7z"/>
		<path class="st1" d="M145.2,20.6c-0.2,0.1-0.3,0.2-0.4,0.2c-0.8,0.5-1.7,0.9-2.7,1.3l-0.9-1.6c1.8-0.6,3.3-1.3,4.6-2.3h-4.1v-1.5
			h5.3c0.2-0.2,0.3-0.3,0.5-0.6l0.4-0.6h-5.2v-1.5h5.9c0.1-0.1,0.1-0.2,0.1-0.3c0.3-0.5,0.5-1,0.7-1.5l0.7-1.8l1.9,0.1l-0.6,1.7
			c-0.2,0.7-0.5,1.3-0.7,1.7h8.1v1.5h-8.9l-0.3,0.6c0,0.1-0.1,0.2-0.3,0.4l-0.1,0.2h10.5v1.5h-4.2c1.2,1,2.7,1.8,4.6,2.3l-0.7,1.7
			l-1.6-0.7c-0.7-0.3-1.3-0.6-1.6-0.9c-0.7,0.2-2,0.3-3.8,0.4c-0.1,0-0.3,0-0.4,0v1.2h6.2v1.5h-6.2v1.2h8v1.5h-8v0.9
			c0,0.7-0.1,1.2-0.3,1.4c-0.2,0.2-0.4,0.4-0.7,0.5c-0.3,0.1-0.7,0.2-1.3,0.2H147l-0.5-1.7l2.7,0.1c0.4,0,0.7-0.2,0.7-0.6v-0.7h-8.5
			v-1.5h8.5v-1.2h-6.6v-1.5h6.6v-1.1l-2.4,0h-2.2L145.2,20.6z M146,14c-0.3-0.4-0.8-0.8-1.2-1.2l-1.2-1l1.3-1l1.2,0.9l1.3,1.1
			L146,14z M150.5,19.6c1.8,0,3.1-0.1,3.9-0.2l-0.7-0.6l-0.7-0.6h-5c-0.1,0.1-0.2,0.2-0.2,0.3c-0.6,0.7-1,1-1.2,1h0
			C147.5,19.6,148.8,19.6,150.5,19.6z M157,11.5c-0.7,1.1-1.5,1.9-2.3,2.5l-1.6-0.9c0.9-0.7,1.6-1.4,2-2l0.2-0.3L157,11.5z"/>
		<path class="st1" d="M165.8,18.1c1-1.4,1.7-2.7,2.1-3.7c0.4-1,0.9-2.3,1.3-3.8l1.6,0.5c-0.1,0.2-0.1,0.4-0.2,0.6
			c-0.1,0.5-0.2,1-0.4,1.3l-0.7,2v14.5h-1.8V18.3l-0.7,1.1l-0.6,0.9L165.8,18.1z M172,25.2c-0.5-0.9-1-1.9-1.4-3
			c0-0.1-0.1-0.3-0.2-0.5L172,21l0.3,1c0.1,0.3,0.2,0.6,0.4,1c0,0.1,0.1,0.1,0.1,0.2c0.3-0.8,0.5-2,0.6-3.6h-2.6v-1.7
			c0.9-1.2,1.7-2.5,2.3-4.1h-2.2v-1.7h4.2v1.6c-0.7,1.6-1.4,3-2.2,4.2h2.3v1.2c-0.1,2.4-0.4,4.4-1,5.9c0.8,0.9,1.7,1.6,2.7,1.9
			c1,0.3,2.7,0.5,5.1,0.5c1.2,0,2.1,0,2.8-0.1l-0.3,1.9l-4.5,0c-2.9,0-5.1-0.8-6.6-2.4l-1,1.4c-0.4,0.6-0.8,1.1-1.2,1.4l-1.4-1.4
			C170.9,26.9,171.6,25.9,172,25.2z M180.4,12h3.4v2.9h1v1.6h-1v3h-3.4v1.2h4v1.6h-4v1.3h4.3v1.6h-4.3v1.3h-1.6v-1.3h-3.6v-1.6h3.6
			v-1.3h-3.1v-1.6h3.1v-1.2h-2.5V18h2.5v-1.5h-3.6v-1.6h3.6v-1.4h-2.5V12h2.5v-1.4h1.6V12z M182.2,14.9v-1.4h-1.8v1.4H182.2z
			 M182.2,18v-1.5h-1.8V18H182.2z"/>
		<path class="st1" d="M197.8,12.4c0.1-0.1,0.1-0.2,0.1-0.2c0.3-0.5,0.5-1,0.7-1.4l0.1-0.2l2.2,0.2c-0.1,0.1-0.1,0.2-0.1,0.3
			c-0.2,0.7-0.5,1.1-0.7,1.4h6.5v7.1c0.1-0.1,0.2-0.2,0.3-0.3c0.4-0.5,0.9-1.1,1.3-1.7c0.1-0.1,0.2-0.3,0.3-0.5l1,1.7
			c-0.6,0.9-1.5,2-2.8,3.3V27v0.3c0,1.4-0.7,2.1-2,2.1h-3.1l-0.5-1.9l2.8,0.1c0.5,0,0.7-0.2,0.7-0.6v-3.3c-2,1.7-4.5,3.1-7.6,4.1
			c-3.1,1-4.9,1.4-5.5,1.4l-1-1.8l1.2-0.2c4.5-0.8,8.2-2.3,11.3-4.3c-2.1,0.4-4.2,0.6-6.3,0.6c-1.7,0-3.6,0.1-5.8,0.4l-0.4-1.9h1.2
			c0.5,0,0.8,0,1.1,0v-9.3H197.8z M194.8,15.3h9.7v-1.2h-9.7V15.3z M194.8,18.3h9.7V17h-9.7V18.3z M194.8,21.7l4.5-0.3
			c1.7,0,3.5-0.2,5.2-0.5v-1h-9.7V21.7z"/>
		<path class="st1" d="M215.1,19.1c1.8-2.2,3.1-5,4.1-8.4l1.8,0.7c-0.1,0.3-0.2,0.9-0.6,1.9c-0.3,1-0.6,1.7-0.8,2.1v14.2h-2V18.6
			c-0.3,0.7-0.8,1.5-1.5,2.4c0,0.1-0.1,0.1-0.2,0.2L215.1,19.1z M232.5,11.5v11.9h1.6v1.6h-13.6v-1.6h1.5V11.5H232.5z M226.4,26.5
			c-1,1.2-2.5,2.1-4.5,3l-1.3-1.4l0.5-0.2c1.5-0.7,2.9-1.5,4-2.4L226.4,26.5z M230.6,13.1h-6.7v1.3h6.7V13.1z M223.9,17.3h6.7v-1.5
			h-6.7V17.3z M230.6,18.7h-6.7v1.6h6.7V18.7z M230.6,21.7h-6.7v1.6h6.7V21.7z M232.4,29.4c-0.8-0.6-1.5-1.2-2.3-1.7l-2-1.3l1.3-1.2
			c1.2,0.6,2.6,1.5,4.2,2.6L232.4,29.4z"/>
		<path class="st1" d="M250.2,21.4v1h8.3v1.6h-6.4c1.6,1.3,3.8,2.2,6.6,2.8l-0.8,1.8c-1.9-0.6-3.5-1.2-4.6-1.9
			c-1.1-0.7-2.1-1.6-3.1-2.6v5.3h-1.8v-5.3c-0.8,1-1.8,1.8-2.9,2.5c-1.1,0.7-2.7,1.4-4.8,2l-0.9-1.7c2.7-0.6,4.9-1.6,6.6-2.9h-6.5
			v-1.6h8.5v-1H250.2z M240.7,16.4l-0.2-1.5h0.4c0,0,0.1,0,0.1,0c0,0,0.1,0,0.1,0s0.3-0.4,0.7-1.2c0.4-0.8,0.8-1.8,1.1-2.8l1.6,0.3
			c-0.1,0.2-0.2,0.4-0.2,0.6c-0.5,1.3-1,2.3-1.6,3.2l0.6,0l0.8,0l0.4-0.8l0.4-0.9l1.4,0.7c-1.1,2.1-2.3,4-3.7,5.4l1.1-0.1
			c0.4,0,0.7,0,0.8-0.1l-0.1-0.8l-0.1-0.5l1.4-0.2c0.1,0.4,0.2,0.9,0.3,1.6l0.3,2l-1.5,0.2l-0.1-0.5c0-0.2,0-0.3,0-0.4
			c-0.5,0.1-1.2,0.2-1.9,0.2l-2.2,0.1l-0.3-1.6l0.6,0c0.9-1,1.8-2.1,2.4-3.1c-0.5,0.1-1.1,0.2-1.5,0.2L240.7,16.4z M246.7,21v-8.5
			h1.6c0-0.1,0.1-0.2,0.1-0.2c0.1-0.3,0.2-0.5,0.3-0.6l0.3-1l1.7,0.2l-0.3,0.9c-0.1,0.2-0.2,0.4-0.3,0.6l-0.1,0.1h2.1V21H246.7z
			 M250.6,13.9h-2.4v1.9h2.4V13.9z M248.2,19.5h2.4v-2.3h-2.4V19.5z M252.7,16.5l-0.2-1.5h0.3h0.2c0.7-1.3,1.3-2.5,1.6-3.6
			c0-0.2,0.1-0.3,0.2-0.6l1.6,0.3c-0.5,1.5-1.2,2.8-1.8,3.9l0.6,0l0.9,0l0.4-0.8l0.4-0.9l1.4,0.8c-1.1,2.2-2.3,4-3.6,5.4l1.1-0.1
			c0.3,0,0.6,0,0.8-0.1c0-0.3-0.1-0.6-0.2-0.8l-0.2-0.5l1.4-0.3c0,0.1,0.1,0.2,0.1,0.3c0.2,0.7,0.4,1.1,0.4,1.3l0.5,1.9l-1.6,0.3
			L257,21l-0.1-0.4c-0.6,0.1-1.2,0.2-2,0.2l-2.2,0.1l-0.3-1.6l0.6,0l1.3-1.6c0.3-0.4,0.6-0.7,0.8-1.1c0.1-0.1,0.2-0.3,0.3-0.5
			l-1.5,0.1L252.7,16.5z"/>
		<path class="st1" d="M264.5,20v-1.7h2.7c-0.5-1.5-1-2.5-1.4-3.1l1.8-0.5c0.4,0.7,0.8,1.7,1.2,3c0,0.2,0.1,0.3,0.2,0.6h1.8
			c0.5-1.1,1-2.3,1.4-3.6l1.7,0.7l-0.5,1.4c-0.1,0.3-0.2,0.6-0.4,1c-0.1,0.1-0.1,0.3-0.2,0.5h2.6V20H264.5z M264.8,14.3v-1.7h4.4
			l-0.5-0.9c-0.2-0.4-0.4-0.7-0.6-0.9l2-0.2c0.2,0.3,0.4,0.7,0.6,1l0.5,1h4.1v1.7H264.8z M265.4,21.6h8.8v7.8h-1.8v-1.2h-5.2v1.2
			h-1.8V21.6z M272.4,23.4h-5.2v3.1h5.2V23.4z M283.1,12.9c-0.5,1.8-1.2,3.8-2.1,6c1.4,2,2.2,3.8,2.2,5.4c0,1.1-0.3,1.9-0.8,2.5
			c-0.5,0.6-1.4,0.8-2.7,0.8h-0.5c0,0-0.1,0-0.2,0l-0.6-2c0.3,0.1,0.7,0.1,1.2,0.1c1.2,0,1.7-0.5,1.7-1.4c0-1.3-0.8-3-2.3-5.3
			c0.7-1.6,1-2.7,1.2-3l0.9-2.7h-3.3v16.2h-1.9v-18h7.1V12.9z"/>
	</g>
	<g>
		<path class="st3" d="M68.5,39.6c0-0.6,0-1.1,0-1.4c0-0.4,0-0.7,0-0.9c0-0.2,0-0.4,0-0.5c0-0.1,0-0.3,0-0.4c0-0.3-0.1-0.5-0.2-0.6
			c-0.1-0.1-0.2-0.2-0.5-0.3c-0.1,0-0.1,0-0.2,0c-0.1,0-0.2,0-0.3,0c-0.1,0-0.1,0-0.1-0.1c0-0.1,0.1-0.1,0.2-0.1c0.2,0,0.4,0,0.5,0
			c0.2,0,0.4,0,0.5,0c0.2,0,0.3,0,0.4,0c0.1,0,0.2,0,0.2,0c0.2,0,0.4,0,0.7,0c0.3,0,0.6,0,0.9,0c0.6,0,1.1,0.1,1.5,0.2
			c0.4,0.2,0.7,0.4,0.9,0.6c0.2,0.2,0.4,0.5,0.5,0.7c0.1,0.3,0.1,0.5,0.1,0.7c0,0.3,0,0.6-0.1,0.8c-0.1,0.3-0.2,0.5-0.3,0.7
			c-0.1,0.2-0.3,0.4-0.5,0.6c-0.2,0.2-0.3,0.4-0.5,0.6c0.3,0.1,0.6,0.2,0.9,0.4c0.3,0.2,0.6,0.4,0.8,0.7c0.3,0.3,0.5,0.6,0.6,0.9
			c0.2,0.4,0.2,0.7,0.2,1.2c0,0.4-0.1,0.8-0.2,1.2c-0.2,0.4-0.4,0.7-0.7,1.1c-0.3,0.3-0.7,0.6-1.2,0.8c-0.5,0.2-1,0.3-1.7,0.3
			c-0.1,0-0.2,0-0.4,0c-0.2,0-0.4,0-0.6,0c-0.2,0-0.4,0-0.6,0c-0.2,0-0.3,0-0.3,0c0,0-0.1,0-0.2,0c-0.1,0-0.2,0-0.4,0
			c-0.2,0-0.3,0-0.5,0c-0.2,0-0.3,0-0.4,0c-0.2,0-0.2,0-0.2-0.1c0-0.1,0-0.1,0.1-0.1c0.1,0,0.1,0,0.2,0c0.1,0,0.2,0,0.2,0
			c0.2,0,0.3-0.1,0.3-0.3c0.1-0.2,0.1-0.3,0.1-0.6c0-0.3,0.1-0.8,0.1-1.3c0-0.6,0-1.2,0-1.9V39.6z M69.7,39.9c0,0.1,0,0.1,0.1,0.2
			c0,0,0.1,0,0.3,0c0.1,0,0.4,0,0.6,0c0.2,0,0.4,0,0.5,0c0.1,0,0.3,0,0.4-0.1c0.1,0,0.2-0.1,0.3-0.1c0.1-0.1,0.2-0.1,0.2-0.2
			c0.2-0.2,0.3-0.4,0.4-0.7c0.1-0.3,0.2-0.5,0.2-0.9c0-0.3,0-0.6-0.1-0.9c-0.1-0.3-0.2-0.6-0.4-0.8c-0.2-0.2-0.4-0.4-0.6-0.6
			c-0.3-0.2-0.6-0.2-0.9-0.2c-0.1,0-0.2,0-0.3,0c-0.1,0-0.3,0-0.4,0.1c-0.1,0-0.2,0.1-0.2,0.2V39.9z M69.7,41.5c0,0.3,0,0.6,0,1
			c0,0.4,0,0.7,0,1c0,0.3,0,0.6,0,0.8c0,0.2,0,0.4,0,0.4c0,0.2,0,0.3,0,0.5c0,0.1,0,0.2,0.1,0.3c0,0.1,0.1,0.2,0.1,0.2
			c0.1,0.1,0.2,0.1,0.3,0.2c0.1,0.1,0.2,0.1,0.3,0.1c0.1,0,0.3,0.1,0.4,0.1c0.1,0,0.2,0,0.3,0c0.1,0,0.2,0,0.3,0
			c0.2,0,0.4,0,0.7-0.1c0.2-0.1,0.5-0.2,0.7-0.3c0.2-0.2,0.4-0.4,0.5-0.7c0.1-0.3,0.2-0.6,0.2-1c0-0.2,0-0.5-0.1-0.7
			c0-0.3-0.1-0.5-0.2-0.8c-0.1-0.3-0.3-0.5-0.4-0.8c-0.2-0.3-0.4-0.5-0.7-0.7c-0.3-0.2-0.5-0.3-0.7-0.3c-0.2-0.1-0.4-0.1-0.6-0.1
			c-0.1,0-0.1,0-0.2,0c-0.1,0-0.2,0-0.3,0c-0.1,0-0.2,0-0.3,0c-0.1,0-0.2,0-0.3,0c-0.1,0-0.1,0-0.1,0.1V41.5z"/>
		<path class="st3" d="M77.9,40.6c0-0.5,0-0.9,0-1.2c0-0.3,0-0.6,0-0.8c0-0.2,0-0.4,0-0.5c0-0.1,0-0.2,0-0.3c0-0.2-0.1-0.4-0.1-0.5
			c-0.1-0.1-0.2-0.2-0.4-0.2c-0.1,0-0.1,0-0.2,0c-0.1,0-0.2,0-0.2,0c-0.1,0-0.1,0-0.1-0.1c0-0.1,0.1-0.1,0.2-0.1c0.2,0,0.3,0,0.5,0
			c0.2,0,0.3,0,0.5,0s0.3,0,0.4,0c0.1,0,0.2,0,0.2,0c0,0,0.1,0,0.3,0c0.1,0,0.3,0,0.5,0c0.2,0,0.3,0,0.5,0c0.2,0,0.3,0,0.4,0
			c0.4,0,0.8,0,1.3,0.1c0.4,0.1,0.8,0.2,1.2,0.5c0.1,0.1,0.2,0.1,0.3,0.2c0.1,0.1,0.2,0.2,0.3,0.4c0.1,0.2,0.2,0.3,0.2,0.5
			c0.1,0.2,0.1,0.4,0.1,0.6c0,0.5-0.1,0.9-0.4,1.4c-0.2,0.5-0.7,1-1.3,1.5c0.5,0.7,1,1.3,1.5,1.9c0.5,0.6,0.9,1,1.3,1.4
			c0.4,0.4,0.6,0.6,0.9,0.7c0.2,0.1,0.4,0.2,0.6,0.2c0.1,0,0.2,0,0.3,0c0.1,0,0.1,0,0.2,0c0.1,0,0.1,0,0.1,0.1c0,0,0,0.1-0.1,0.1
			c0,0-0.1,0-0.2,0h-0.8c-0.4,0-0.7,0-0.9-0.1c-0.2,0-0.4-0.1-0.5-0.2c-0.3-0.2-0.6-0.4-0.8-0.7c-0.3-0.3-0.6-0.7-1-1.2
			c-0.1-0.2-0.3-0.3-0.4-0.5c-0.1-0.2-0.3-0.4-0.4-0.5c-0.1-0.2-0.2-0.3-0.3-0.5c-0.1-0.1-0.2-0.3-0.3-0.3c-0.1-0.1-0.1-0.1-0.2-0.1
			l-1.7,0c-0.1,0-0.1,0-0.1,0.1v0.3c0,0.6,0,1.2,0,1.6c0,0.5,0,0.8,0.1,1.1c0,0.2,0.1,0.3,0.1,0.5c0.1,0.1,0.2,0.2,0.4,0.2
			c0.1,0,0.2,0,0.3,0c0.1,0,0.2,0,0.3,0c0.1,0,0.1,0,0.1,0.1c0,0.1-0.1,0.1-0.2,0.1c-0.2,0-0.4,0-0.5,0c-0.2,0-0.4,0-0.5,0
			c-0.2,0-0.3,0-0.4,0c-0.1,0-0.2,0-0.2,0c-0.2,0-0.4,0-0.5,0c-0.1,0-0.3,0-0.4,0c-0.2,0-0.3,0-0.4,0c-0.1,0-0.2,0-0.2-0.1
			c0-0.1,0-0.1,0.1-0.1c0.1,0,0.1,0,0.2,0c0.1,0,0.1,0,0.2,0c0.1,0,0.2-0.1,0.2-0.2c0-0.1,0.1-0.3,0.1-0.5c0-0.3,0.1-0.6,0.1-1.1
			c0-0.5,0-1,0-1.7V40.6z M79.1,41.7c0,0.1,0,0.1,0.1,0.2c0.1,0,0.1,0.1,0.2,0.1c0.1,0,0.2,0,0.4,0.1c0.1,0,0.3,0,0.4,0
			c0.2,0,0.3,0,0.5,0c0.2,0,0.3,0,0.5,0c0.2,0,0.3-0.1,0.5-0.2c0.2-0.2,0.4-0.4,0.6-0.7c0.2-0.3,0.2-0.7,0.2-1.2
			c0-0.8-0.2-1.4-0.6-1.9c-0.4-0.4-1-0.7-1.7-0.7c-0.2,0-0.4,0-0.6,0c-0.2,0-0.3,0-0.4,0.1c-0.1,0-0.1,0.1-0.1,0.2V41.7z"/>
		<path class="st3" d="M88.8,42.8c0,0.6,0,1.2,0,1.7c0,0.5,0,0.9,0.1,1.1c0,0.2,0.1,0.3,0.1,0.5c0.1,0.1,0.2,0.2,0.4,0.2
			c0.1,0,0.2,0,0.3,0c0.1,0,0.2,0,0.3,0c0.1,0,0.1,0,0.1,0.1c0,0.1-0.1,0.1-0.2,0.1c-0.2,0-0.4,0-0.6,0c-0.2,0-0.4,0-0.5,0
			c-0.2,0-0.3,0-0.4,0c-0.1,0-0.2,0-0.2,0c0,0-0.1,0-0.2,0c-0.1,0-0.2,0-0.4,0c-0.1,0-0.3,0-0.4,0c-0.1,0-0.3,0-0.4,0
			c-0.1,0-0.2,0-0.2-0.1c0-0.1,0-0.1,0.1-0.1c0.1,0,0.1,0,0.2,0c0.1,0,0.1,0,0.2,0c0.1,0,0.2-0.1,0.3-0.2c0-0.1,0.1-0.3,0.1-0.5
			c0-0.3,0-0.6,0.1-1.1c0-0.5,0-1,0-1.7v-2.3c0-0.5,0-0.9,0-1.2c0-0.3,0-0.6,0-0.8c0-0.2,0-0.4,0-0.5c0-0.1,0-0.2,0-0.3
			c0-0.2-0.1-0.4-0.1-0.5c-0.1-0.1-0.2-0.2-0.3-0.2c-0.1,0-0.2,0-0.2,0c-0.1,0-0.1,0-0.2,0c-0.1,0-0.1,0-0.1-0.1
			c0-0.1,0.1-0.1,0.2-0.1c0.1,0,0.2,0,0.4,0c0.1,0,0.3,0,0.4,0c0.1,0,0.3,0,0.4,0c0.1,0,0.2,0,0.2,0c0,0,0.1,0,0.2,0
			c0.1,0,0.2,0,0.4,0c0.1,0,0.3,0,0.4,0c0.1,0,0.3,0,0.4,0c0.1,0,0.2,0,0.2,0.1c0,0.1,0,0.1-0.1,0.1c-0.1,0-0.1,0-0.2,0
			c0,0-0.1,0-0.2,0c-0.2,0-0.3,0.1-0.4,0.2c-0.1,0.1-0.1,0.3-0.1,0.5c0,0.1,0,0.2,0,0.3c0,0.1,0,0.3,0,0.5c0,0.2,0,0.4,0,0.8
			c0,0.3,0,0.7,0,1.2V42.8z"/>
		<path class="st3" d="M94.1,42.9c0,0.5,0,0.9,0,1.2c0,0.3,0,0.6,0,0.8c0,0.2,0,0.4,0.1,0.5c0,0.1,0.1,0.2,0.1,0.3
			c0.1,0.1,0.3,0.2,0.6,0.2c0.3,0,0.7,0.1,1.2,0.1c0.4,0,0.7,0,0.9-0.1c0.3,0,0.5-0.1,0.7-0.3c0.1-0.1,0.1-0.2,0.2-0.3
			c0.1-0.1,0.1-0.3,0.1-0.4c0-0.1,0.1-0.2,0.1-0.2c0.1,0,0.1,0.1,0.1,0.2c0,0,0,0.1,0,0.2c0,0.1,0,0.2,0,0.3c0,0.1,0,0.3-0.1,0.4
			c0,0.1,0,0.2-0.1,0.3c0,0.1,0,0.1-0.1,0.2c0,0-0.1,0.1-0.1,0.1c-0.1,0-0.1,0-0.2,0c-0.1,0-0.2,0-0.4,0c-0.9,0-1.7,0-2.3,0
			c-0.3,0-0.6,0-0.8,0c-0.2,0-0.4,0-0.6,0c0,0-0.1,0-0.2,0s-0.2,0-0.3,0c-0.1,0-0.3,0-0.4,0c-0.1,0-0.3,0-0.4,0
			c-0.1,0-0.2,0-0.2-0.1c0-0.1,0-0.1,0.1-0.1c0.1,0,0.1,0,0.2,0c0.1,0,0.1,0,0.2,0c0.1,0,0.2-0.1,0.2-0.2c0-0.1,0.1-0.3,0.1-0.5
			c0-0.3,0.1-0.6,0.1-1.1c0-0.5,0-1,0-1.7v-2.3c0-0.5,0-0.9,0-1.2c0-0.3,0-0.6,0-0.8c0-0.2,0-0.4,0-0.5c0-0.1,0-0.2,0-0.3
			c0-0.2-0.1-0.4-0.1-0.5c-0.1-0.1-0.2-0.2-0.4-0.2c-0.1,0-0.1,0-0.2,0c-0.1,0-0.2,0-0.2,0c-0.1,0-0.1,0-0.1-0.1
			c0-0.1,0.1-0.1,0.2-0.1c0.2,0,0.3,0,0.5,0c0.2,0,0.3,0,0.5,0c0.2,0,0.3,0,0.4,0c0.1,0,0.2,0,0.2,0c0,0,0.1,0,0.2,0
			c0.1,0,0.3,0,0.4,0c0.2,0,0.3,0,0.5,0c0.2,0,0.3,0,0.4,0c0.1,0,0.2,0,0.2,0.1c0,0.1,0,0.1-0.1,0.1c-0.1,0-0.1,0-0.2,0
			c-0.1,0-0.2,0-0.2,0c-0.2,0-0.3,0.1-0.4,0.2c-0.1,0.1-0.1,0.3-0.1,0.5c0,0.1,0,0.2,0,0.3c0,0.1,0,0.3,0,0.5c0,0.2,0,0.4,0,0.8
			c0,0.3,0,0.7,0,1.2V42.9z"/>
		<path class="st3" d="M101.7,42.9c0,0.5,0,0.9,0,1.2c0,0.3,0,0.6,0,0.8c0,0.2,0,0.4,0.1,0.5c0,0.1,0.1,0.2,0.1,0.3
			c0.1,0.1,0.3,0.2,0.6,0.2c0.3,0,0.7,0.1,1.2,0.1c0.4,0,0.7,0,0.9-0.1c0.3,0,0.5-0.1,0.7-0.3c0.1-0.1,0.1-0.2,0.2-0.3
			c0.1-0.1,0.1-0.3,0.1-0.4c0-0.1,0.1-0.2,0.1-0.2c0.1,0,0.1,0.1,0.1,0.2c0,0,0,0.1,0,0.2c0,0.1,0,0.2,0,0.3c0,0.1,0,0.3-0.1,0.4
			c0,0.1,0,0.2-0.1,0.3c0,0.1,0,0.1-0.1,0.2c0,0-0.1,0.1-0.1,0.1c-0.1,0-0.1,0-0.2,0c-0.1,0-0.2,0-0.4,0c-0.9,0-1.7,0-2.3,0
			c-0.3,0-0.6,0-0.8,0c-0.2,0-0.4,0-0.6,0c0,0-0.1,0-0.2,0c-0.1,0-0.2,0-0.3,0c-0.1,0-0.3,0-0.4,0c-0.1,0-0.3,0-0.4,0
			c-0.1,0-0.2,0-0.2-0.1c0-0.1,0-0.1,0.1-0.1c0.1,0,0.1,0,0.2,0c0.1,0,0.1,0,0.2,0c0.1,0,0.2-0.1,0.2-0.2c0-0.1,0.1-0.3,0.1-0.5
			c0-0.3,0.1-0.6,0.1-1.1c0-0.5,0-1,0-1.7v-2.3c0-0.5,0-0.9,0-1.2c0-0.3,0-0.6,0-0.8c0-0.2,0-0.4,0-0.5c0-0.1,0-0.2,0-0.3
			c0-0.2-0.1-0.4-0.1-0.5c-0.1-0.1-0.2-0.2-0.4-0.2c-0.1,0-0.1,0-0.2,0c-0.1,0-0.2,0-0.2,0c-0.1,0-0.1,0-0.1-0.1
			c0-0.1,0.1-0.1,0.2-0.1c0.2,0,0.3,0,0.5,0c0.2,0,0.3,0,0.5,0c0.2,0,0.3,0,0.4,0c0.1,0,0.2,0,0.2,0c0,0,0.1,0,0.2,0
			c0.1,0,0.3,0,0.4,0c0.2,0,0.3,0,0.5,0c0.2,0,0.3,0,0.4,0c0.1,0,0.2,0,0.2,0.1c0,0.1,0,0.1-0.1,0.1c-0.1,0-0.1,0-0.2,0
			c-0.1,0-0.2,0-0.2,0c-0.2,0-0.3,0.1-0.4,0.2c-0.1,0.1-0.1,0.3-0.1,0.5c0,0.1,0,0.2,0,0.3c0,0.1,0,0.3,0,0.5c0,0.2,0,0.4,0,0.8
			c0,0.3,0,0.7,0,1.2V42.9z"/>
		<path class="st3" d="M109.4,42.8c0,0.6,0,1.2,0,1.7c0,0.5,0,0.9,0.1,1.1c0,0.2,0.1,0.3,0.1,0.5c0.1,0.1,0.2,0.2,0.4,0.2
			c0.1,0,0.2,0,0.3,0c0.1,0,0.2,0,0.3,0c0.1,0,0.1,0,0.1,0.1c0,0.1-0.1,0.1-0.2,0.1c-0.2,0-0.4,0-0.6,0c-0.2,0-0.4,0-0.5,0
			c-0.2,0-0.3,0-0.4,0c-0.1,0-0.2,0-0.2,0c0,0-0.1,0-0.2,0c-0.1,0-0.2,0-0.4,0c-0.1,0-0.3,0-0.4,0c-0.1,0-0.3,0-0.4,0
			c-0.1,0-0.2,0-0.2-0.1c0-0.1,0-0.1,0.1-0.1c0.1,0,0.1,0,0.2,0c0.1,0,0.1,0,0.2,0c0.1,0,0.2-0.1,0.3-0.2c0-0.1,0.1-0.3,0.1-0.5
			c0-0.3,0-0.6,0.1-1.1c0-0.5,0-1,0-1.7v-2.3c0-0.5,0-0.9,0-1.2c0-0.3,0-0.6,0-0.8c0-0.2,0-0.4,0-0.5c0-0.1,0-0.2,0-0.3
			c0-0.2-0.1-0.4-0.1-0.5c-0.1-0.1-0.2-0.2-0.3-0.2c-0.1,0-0.2,0-0.2,0c-0.1,0-0.1,0-0.2,0c-0.1,0-0.1,0-0.1-0.1
			c0-0.1,0.1-0.1,0.2-0.1c0.1,0,0.2,0,0.4,0c0.1,0,0.3,0,0.4,0c0.1,0,0.3,0,0.4,0c0.1,0,0.2,0,0.2,0c0,0,0.1,0,0.2,0
			c0.1,0,0.2,0,0.4,0c0.1,0,0.3,0,0.4,0c0.1,0,0.3,0,0.4,0c0.1,0,0.2,0,0.2,0.1c0,0.1,0,0.1-0.1,0.1c-0.1,0-0.1,0-0.2,0
			c0,0-0.1,0-0.2,0c-0.2,0-0.3,0.1-0.4,0.2c-0.1,0.1-0.1,0.3-0.1,0.5c0,0.1,0,0.2,0,0.3c0,0.1,0,0.3,0,0.5c0,0.2,0,0.4,0,0.8
			c0,0.3,0,0.7,0,1.2V42.8z"/>
		<path class="st3" d="M115.7,37.1c0.1-0.2,0.1-0.3,0.2-0.4c0-0.1,0.1-0.1,0.1-0.1c0.1,0,0.1,0,0.2,0.1c0,0.1,0.1,0.2,0.2,0.3
			c0,0.1,0.1,0.3,0.3,0.6c0.1,0.3,0.3,0.7,0.5,1.2c0.2,0.5,0.4,1,0.6,1.5c0.2,0.6,0.4,1.1,0.7,1.6c0.2,0.5,0.4,1.1,0.6,1.5
			c0.2,0.5,0.4,0.9,0.5,1.2c0.1,0.3,0.2,0.5,0.3,0.7c0.1,0.2,0.2,0.3,0.3,0.4c0.1,0.1,0.2,0.2,0.3,0.2c0.1,0,0.2,0.1,0.2,0.1
			c0.1,0,0.2,0.1,0.3,0.1c0.1,0,0.2,0,0.2,0c0,0,0.1,0,0.1,0c0,0,0.1,0,0.1,0.1c0,0,0,0.1-0.1,0.1c-0.1,0-0.1,0-0.2,0
			c-0.1,0-0.1,0-0.3,0c-0.1,0-0.3,0-0.5,0c-0.2,0-0.4,0-0.6,0c-0.2,0-0.5,0-0.7,0c-0.1,0-0.2,0-0.3,0c-0.1,0-0.1,0-0.1-0.1
			c0,0,0,0,0-0.1c0,0,0,0,0.1,0c0,0,0.1-0.1,0.1-0.1c0-0.1,0-0.1,0-0.2l-1.2-2.9c0-0.1-0.1-0.1-0.1-0.1h-3.1c-0.1,0-0.1,0-0.1,0.1
			l-0.8,2c-0.1,0.3-0.2,0.6-0.2,0.9c0,0.1,0,0.2,0.1,0.3c0.1,0.1,0.2,0.1,0.3,0.1h0.1c0.1,0,0.1,0,0.1,0.1c0,0.1-0.1,0.1-0.2,0.1
			c-0.1,0-0.2,0-0.3,0c-0.1,0-0.2,0-0.4,0c-0.1,0-0.2,0-0.3,0c-0.1,0-0.2,0-0.2,0c0,0-0.1,0-0.2,0c-0.1,0-0.2,0-0.3,0
			c-0.1,0-0.3,0-0.4,0c-0.1,0-0.3,0-0.4,0c-0.2,0-0.3,0-0.3-0.1c0-0.1,0-0.1,0.1-0.1c0.1,0,0.1,0,0.2,0c0.1,0,0.1,0,0.2,0
			c0.3,0,0.5-0.2,0.7-0.4c0.2-0.2,0.3-0.5,0.4-0.8L115.7,37.1z M117.2,42.5C117.2,42.5,117.2,42.4,117.2,42.5l-1.3-3.6
			c-0.1-0.2-0.2-0.2-0.2,0l-1.2,3.5c0,0.1,0,0.1,0,0.1H117.2z"/>
		<path class="st3" d="M123.3,44.8c0,0.3,0,0.5,0,0.7c0,0.2,0.1,0.3,0.1,0.4c0,0.1,0.1,0.2,0.2,0.3c0.1,0.1,0.1,0.1,0.2,0.1
			c0.1,0,0.2,0.1,0.4,0.1c0.1,0,0.2,0,0.3,0c0.1,0,0.1,0,0.1,0.1c0,0.1-0.1,0.1-0.2,0.1c-0.4,0-0.7,0-0.9,0c-0.2,0-0.4,0-0.5,0
			c-0.1,0-0.2,0-0.5,0c-0.2,0-0.5,0-0.8,0c-0.1,0-0.2,0-0.2-0.1c0-0.1,0-0.1,0.1-0.1c0.1,0,0.1,0,0.2,0c0.1,0,0.2,0,0.3-0.1
			c0.1,0,0.1-0.1,0.2-0.1c0-0.1,0.1-0.2,0.1-0.3c0-0.1,0-0.3,0.1-0.5c0-0.2,0-0.4,0-0.7v-7.3c0-0.3,0-0.4,0.1-0.5
			c0-0.1,0.1-0.1,0.1-0.1c0.1,0,0.2,0,0.3,0.1c0.1,0.1,0.2,0.2,0.2,0.2c0.1,0.1,0.2,0.2,0.5,0.5c0.3,0.3,0.6,0.6,0.9,1
			c0.4,0.4,0.8,0.9,1.3,1.4c0.5,0.5,1,1,1.5,1.5c0.3,0.3,0.7,0.7,1,1c0.3,0.3,0.6,0.7,0.9,1c0.3,0.3,0.5,0.6,0.8,0.8
			c0.2,0.2,0.4,0.4,0.5,0.5l-0.1-6.4c0-0.4,0-0.7-0.1-0.9c-0.1-0.2-0.2-0.3-0.4-0.3c-0.1,0-0.2,0-0.4,0c-0.1,0-0.2,0-0.3,0
			c-0.1,0-0.1,0-0.1,0c0,0,0-0.1,0-0.1c0-0.1,0.1-0.1,0.3-0.1c0.3,0,0.6,0,0.9,0c0.3,0,0.4,0,0.5,0c0.1,0,0.2,0,0.4,0
			c0.2,0,0.4,0,0.7,0c0.2,0,0.2,0,0.2,0.1c0,0,0,0,0,0.1c0,0-0.1,0-0.1,0c0,0-0.1,0-0.1,0c-0.1,0-0.1,0-0.2,0
			c-0.1,0-0.2,0.1-0.3,0.1c-0.1,0.1-0.1,0.1-0.1,0.2c0,0.1-0.1,0.2-0.1,0.3c0,0.1,0,0.3,0,0.5l0,7.5c0,0.2,0,0.4,0,0.5
			c0,0.1,0,0.2,0,0.3c0,0.1,0,0.1,0,0.1c0,0,0,0-0.1,0c0,0-0.1,0-0.1,0c0,0-0.1-0.1-0.2-0.1c-0.1-0.1-0.2-0.1-0.3-0.2
			c-0.1-0.1-0.3-0.2-0.4-0.4c0,0-0.2-0.2-0.4-0.4c-0.2-0.2-0.5-0.5-0.8-0.8c-0.3-0.3-0.7-0.7-1.1-1.1c-0.4-0.4-0.8-0.8-1.1-1.1
			c-0.4-0.4-0.8-0.8-1.1-1.2c-0.4-0.4-0.7-0.7-1-1.1c-0.3-0.3-0.6-0.6-0.8-0.8c-0.2-0.2-0.4-0.4-0.5-0.5L123.3,44.8z"/>
		<path class="st3" d="M137.7,42.8c0,0.6,0,1.2,0,1.7c0,0.5,0,0.9,0.1,1.1c0,0.2,0.1,0.3,0.1,0.5c0.1,0.1,0.2,0.2,0.4,0.2
			c0.1,0,0.2,0,0.3,0c0.1,0,0.2,0,0.3,0c0.1,0,0.1,0,0.1,0.1c0,0.1-0.1,0.1-0.2,0.1c-0.2,0-0.4,0-0.5,0c-0.2,0-0.4,0-0.5,0
			c-0.2,0-0.3,0-0.4,0c-0.1,0-0.2,0-0.2,0c0,0-0.1,0-0.2,0c-0.1,0-0.2,0-0.4,0c-0.1,0-0.3,0-0.4,0c-0.1,0-0.3,0-0.4,0
			c-0.1,0-0.2,0-0.2-0.1c0-0.1,0-0.1,0.1-0.1c0.1,0,0.1,0,0.2,0c0.1,0,0.1,0,0.2,0c0.1,0,0.2-0.1,0.3-0.2c0.1-0.1,0.1-0.3,0.1-0.5
			c0-0.3,0-0.6,0.1-1.1c0-0.5,0-1,0-1.7v-5.4l-1.9,0c-0.4,0-0.7,0-0.9,0.1c-0.2,0.1-0.3,0.2-0.4,0.3c-0.1,0.1-0.1,0.2-0.2,0.2
			c0,0.1,0,0.1-0.1,0.2c0,0.1-0.1,0.1-0.1,0.1c0,0,0,0-0.1,0c0,0,0,0,0-0.1c0,0,0-0.1,0-0.3c0-0.1,0.1-0.3,0.1-0.4
			c0-0.2,0.1-0.3,0.1-0.4c0-0.1,0-0.2,0-0.2c0,0,0-0.1,0.1-0.2c0-0.1,0-0.1,0.1-0.1c0.1,0,0.1,0,0.2,0.1c0.1,0,0.2,0.1,0.4,0.1
			c0.2,0,0.4,0,0.6,0c0.2,0,0.4,0,0.4,0h5c0.2,0,0.4,0,0.6,0c0.2,0,0.3,0,0.4,0c0.1,0,0.2,0,0.2,0c0.1,0,0.1,0,0.1,0
			c0,0,0.1,0.1,0.1,0.2c0,0.1,0,0.2,0,0.4c0,0.2,0,0.3,0,0.4c0,0.1,0,0.3,0,0.4c0,0.1,0,0.2,0,0.2c0,0.1,0,0.2-0.1,0.2
			c0,0-0.1,0-0.1,0c0,0,0-0.1,0-0.2l0-0.1c0-0.1,0-0.2-0.1-0.3c-0.1-0.1-0.1-0.2-0.2-0.2c-0.1-0.1-0.3-0.1-0.5-0.2
			c-0.2,0-0.5-0.1-0.8-0.1l-1.7,0V42.8z"/>
		<path class="st3" d="M148.5,39.6c0-0.6,0-1.1,0-1.4c0-0.4,0-0.7,0-0.9c0-0.2,0-0.4,0-0.5c0-0.1,0-0.3,0-0.4c0-0.3-0.1-0.5-0.2-0.6
			c-0.1-0.1-0.2-0.2-0.5-0.3c-0.1,0-0.1,0-0.2,0c-0.1,0-0.2,0-0.3,0c-0.1,0-0.1,0-0.1-0.1c0-0.1,0.1-0.1,0.2-0.1c0.2,0,0.4,0,0.5,0
			c0.2,0,0.4,0,0.5,0l0.6,0c0,0,0.2,0,0.3,0c0.2,0,0.4,0,0.7,0c0.3,0,0.5,0,0.8,0c0.3,0,0.6,0,0.8,0c0.3,0,0.5,0,0.7,0
			c0.2,0,0.3,0,0.4,0c0.1,0,0.3,0,0.4,0c0.1,0,0.2,0,0.3,0c0,0,0.1,0,0.1-0.1c0,0,0.1,0,0.1,0c0.1,0,0.1,0,0.1,0.1
			c0,0.1,0,0.1,0,0.2c0,0.1-0.1,0.3-0.1,0.5c0,0,0,0.1,0,0.2c0,0.1,0,0.2,0,0.3c0,0.1,0,0.2,0,0.3c0,0.1,0,0.2,0,0.2
			c0,0,0,0.1,0,0.1c0,0,0,0.1-0.1,0.1c-0.1,0-0.1-0.1-0.1-0.2c0-0.1,0-0.1,0-0.3c0-0.1-0.1-0.2-0.1-0.3c-0.1-0.1-0.2-0.2-0.3-0.3
			c-0.2-0.1-0.4-0.2-0.7-0.2l-2.3,0c-0.1,0-0.1,0.1-0.1,0.2v4.2c0,0.1,0,0.1,0.1,0.1l1.9,0c0.1,0,0.2,0,0.3,0c0.1,0,0.2,0,0.3,0
			c0.2,0,0.3,0,0.4-0.1c0.1,0,0.2-0.1,0.3-0.2c0,0,0.1-0.1,0.1-0.1c0,0,0.1,0,0.1,0c0.1,0,0.1,0,0.1,0.1c0,0.1,0,0.1,0,0.3
			c0,0.1-0.1,0.3-0.1,0.6c0,0.1,0,0.2,0,0.3c0,0.1,0,0.2,0,0.3c0,0.1,0,0.2,0,0.3c0,0.1,0,0.1,0,0.2c0,0.1,0,0.1,0,0.2
			c0,0.1,0,0.1-0.1,0.1c-0.1,0-0.1,0-0.1-0.1c0-0.1,0-0.2,0-0.3c0-0.1,0-0.2-0.1-0.3c0-0.1-0.1-0.2-0.2-0.3
			c-0.1-0.1-0.3-0.2-0.5-0.2c-0.1,0-0.2,0-0.5,0c-0.2,0-0.5,0-0.7,0c-0.2,0-0.5,0-0.7,0c-0.2,0-0.3,0-0.4,0c-0.1,0-0.1,0-0.1,0.1
			v1.3c0,0.7,0,1.4,0,1.9c0,0.6,0,1,0.1,1.3c0,0.2,0.1,0.4,0.1,0.6c0.1,0.2,0.2,0.2,0.5,0.3c0.1,0,0.2,0,0.4,0c0.1,0,0.2,0,0.3,0
			c0.1,0,0.1,0,0.1,0.1c0,0.1-0.1,0.1-0.2,0.1c-0.2,0-0.4,0-0.6,0c-0.2,0-0.4,0-0.6,0c-0.2,0-0.3,0-0.4,0c-0.1,0-0.2,0-0.2,0
			c0,0-0.1,0-0.2,0c-0.1,0-0.2,0-0.4,0c-0.2,0-0.3,0-0.5,0c-0.2,0-0.3,0-0.4,0c-0.2,0-0.2,0-0.2-0.1c0-0.1,0-0.1,0.1-0.1
			c0.1,0,0.1,0,0.2,0c0.1,0,0.2,0,0.2,0c0.2,0,0.3-0.1,0.3-0.3c0.1-0.2,0.1-0.3,0.1-0.6c0-0.3,0.1-0.8,0.1-1.3c0-0.6,0-1.2,0-1.9
			V39.6z"/>
		<path class="st3" d="M158.1,42.8c0,0.6,0,1.2,0,1.7c0,0.5,0,0.9,0.1,1.1c0,0.2,0.1,0.3,0.1,0.5c0,0.1,0.2,0.2,0.4,0.2
			c0.1,0,0.2,0,0.3,0c0.1,0,0.2,0,0.3,0c0.1,0,0.1,0,0.1,0.1c0,0.1-0.1,0.1-0.2,0.1c-0.2,0-0.4,0-0.6,0c-0.2,0-0.4,0-0.5,0
			c-0.2,0-0.3,0-0.4,0c-0.1,0-0.2,0-0.2,0c0,0-0.1,0-0.2,0c-0.1,0-0.2,0-0.4,0c-0.1,0-0.3,0-0.4,0c-0.1,0-0.3,0-0.4,0
			c-0.1,0-0.2,0-0.2-0.1c0-0.1,0-0.1,0.1-0.1c0.1,0,0.1,0,0.2,0c0.1,0,0.1,0,0.2,0c0.1,0,0.2-0.1,0.3-0.2c0-0.1,0.1-0.3,0.1-0.5
			c0-0.3,0.1-0.6,0.1-1.1c0-0.5,0-1,0-1.7v-2.3c0-0.5,0-0.9,0-1.2c0-0.3,0-0.6,0-0.8c0-0.2,0-0.4,0-0.5c0-0.1,0-0.2,0-0.3
			c0-0.2-0.1-0.4-0.1-0.5c-0.1-0.1-0.2-0.2-0.3-0.2c-0.1,0-0.2,0-0.2,0c-0.1,0-0.1,0-0.2,0c-0.1,0-0.1,0-0.1-0.1
			c0-0.1,0.1-0.1,0.2-0.1c0.1,0,0.2,0,0.4,0c0.1,0,0.3,0,0.4,0c0.1,0,0.3,0,0.4,0c0.1,0,0.2,0,0.2,0c0,0,0.1,0,0.2,0
			c0.1,0,0.2,0,0.4,0c0.1,0,0.3,0,0.4,0c0.1,0,0.3,0,0.4,0c0.1,0,0.2,0,0.2,0.1c0,0.1,0,0.1-0.1,0.1c-0.1,0-0.1,0-0.2,0
			c0,0-0.1,0-0.2,0c-0.2,0-0.3,0.1-0.4,0.2c-0.1,0.1-0.1,0.3-0.1,0.5c0,0.1,0,0.2,0,0.3c0,0.1,0,0.3,0,0.5c0,0.2,0,0.4,0,0.8
			c0,0.3,0,0.7,0,1.2V42.8z"/>
		<path class="st3" d="M165,42.8c0,0.6,0,1.2,0,1.7c0,0.5,0,0.9,0.1,1.1c0,0.2,0.1,0.3,0.1,0.5c0.1,0.1,0.2,0.2,0.4,0.2
			c0.1,0,0.2,0,0.3,0c0.1,0,0.2,0,0.3,0c0.1,0,0.1,0,0.1,0.1c0,0.1-0.1,0.1-0.2,0.1c-0.2,0-0.4,0-0.5,0c-0.2,0-0.4,0-0.5,0
			c-0.2,0-0.3,0-0.4,0c-0.1,0-0.2,0-0.2,0c0,0-0.1,0-0.2,0c-0.1,0-0.2,0-0.4,0c-0.1,0-0.3,0-0.4,0c-0.1,0-0.3,0-0.4,0
			c-0.1,0-0.2,0-0.2-0.1c0-0.1,0-0.1,0.1-0.1c0.1,0,0.1,0,0.2,0c0.1,0,0.1,0,0.2,0c0.1,0,0.2-0.1,0.3-0.2c0.1-0.1,0.1-0.3,0.1-0.5
			c0-0.3,0-0.6,0.1-1.1c0-0.5,0-1,0-1.7v-5.4l-1.9,0c-0.4,0-0.7,0-0.9,0.1c-0.2,0.1-0.3,0.2-0.4,0.3c-0.1,0.1-0.1,0.2-0.2,0.2
			c0,0.1,0,0.1-0.1,0.2c0,0.1-0.1,0.1-0.1,0.1c0,0,0,0-0.1,0c0,0,0,0,0-0.1c0,0,0-0.1,0-0.3c0-0.1,0.1-0.3,0.1-0.4
			c0-0.2,0.1-0.3,0.1-0.4c0-0.1,0-0.2,0-0.2c0,0,0-0.1,0.1-0.2c0-0.1,0-0.1,0.1-0.1c0.1,0,0.1,0,0.2,0.1c0.1,0,0.2,0.1,0.4,0.1
			c0.2,0,0.4,0,0.6,0c0.2,0,0.4,0,0.4,0h5c0.2,0,0.4,0,0.6,0c0.2,0,0.3,0,0.4,0c0.1,0,0.2,0,0.2,0c0.1,0,0.1,0,0.1,0
			c0,0,0.1,0.1,0.1,0.2c0,0.1,0,0.2,0,0.4c0,0.2,0,0.3,0,0.4c0,0.1,0,0.3,0,0.4c0,0.1,0,0.2,0,0.2c0,0.1,0,0.2-0.1,0.2
			c0,0-0.1,0-0.1,0c0,0,0-0.1,0-0.2l0-0.1c0-0.1,0-0.2-0.1-0.3c-0.1-0.1-0.1-0.2-0.2-0.2c-0.1-0.1-0.3-0.1-0.5-0.2
			c-0.2,0-0.5-0.1-0.8-0.1l-1.7,0V42.8z"/>
		<path class="st3" d="M171.3,44.8c0,0.3,0,0.5,0,0.7c0,0.2,0.1,0.3,0.1,0.4c0,0.1,0.1,0.2,0.2,0.3c0.1,0.1,0.1,0.1,0.2,0.1
			c0.1,0,0.2,0.1,0.4,0.1c0.1,0,0.2,0,0.3,0c0.1,0,0.1,0,0.1,0.1c0,0.1-0.1,0.1-0.2,0.1c-0.4,0-0.7,0-0.9,0c-0.2,0-0.4,0-0.5,0
			s-0.2,0-0.5,0c-0.2,0-0.5,0-0.8,0c-0.1,0-0.2,0-0.2-0.1c0-0.1,0-0.1,0.1-0.1c0.1,0,0.1,0,0.2,0c0.1,0,0.2,0,0.3-0.1
			c0.1,0,0.1-0.1,0.2-0.1c0-0.1,0.1-0.2,0.1-0.3c0-0.1,0-0.3,0.1-0.5c0-0.2,0-0.4,0-0.7v-7.3c0-0.3,0-0.4,0.1-0.5
			c0-0.1,0.1-0.1,0.1-0.1c0.1,0,0.2,0,0.3,0.1c0.1,0.1,0.2,0.2,0.2,0.2c0.1,0.1,0.2,0.2,0.5,0.5c0.3,0.3,0.6,0.6,0.9,1
			c0.4,0.4,0.8,0.9,1.3,1.4c0.5,0.5,1,1,1.5,1.5c0.3,0.3,0.7,0.7,1,1c0.3,0.3,0.6,0.7,0.9,1c0.3,0.3,0.5,0.6,0.8,0.8
			c0.2,0.2,0.4,0.4,0.5,0.5l-0.1-6.4c0-0.4,0-0.7-0.1-0.9c-0.1-0.2-0.2-0.3-0.4-0.3c-0.1,0-0.2,0-0.4,0c-0.1,0-0.2,0-0.3,0
			c-0.1,0-0.1,0-0.1,0c0,0,0-0.1,0-0.1c0-0.1,0.1-0.1,0.3-0.1c0.3,0,0.6,0,0.9,0c0.3,0,0.4,0,0.5,0c0.1,0,0.2,0,0.4,0
			c0.2,0,0.4,0,0.7,0c0.2,0,0.2,0,0.2,0.1c0,0,0,0,0,0.1c0,0-0.1,0-0.1,0c0,0-0.1,0-0.1,0c-0.1,0-0.1,0-0.2,0
			c-0.1,0-0.2,0.1-0.3,0.1c-0.1,0.1-0.1,0.1-0.1,0.2c0,0.1-0.1,0.2-0.1,0.3c0,0.1,0,0.3,0,0.5l0,7.5c0,0.2,0,0.4,0,0.5
			c0,0.1,0,0.2,0,0.3c0,0.1,0,0.1,0,0.1c0,0,0,0-0.1,0c0,0-0.1,0-0.1,0c0,0-0.1-0.1-0.2-0.1c-0.1-0.1-0.2-0.1-0.3-0.2
			c-0.1-0.1-0.3-0.2-0.4-0.4c0,0-0.2-0.2-0.4-0.4c-0.2-0.2-0.5-0.5-0.8-0.8c-0.3-0.3-0.7-0.7-1.1-1.1c-0.4-0.4-0.8-0.8-1.1-1.1
			c-0.4-0.4-0.8-0.8-1.1-1.2c-0.4-0.4-0.7-0.7-1-1.1c-0.3-0.3-0.6-0.6-0.8-0.8c-0.2-0.2-0.4-0.4-0.5-0.5L171.3,44.8z"/>
		<path class="st3" d="M182.7,40.6c0-0.5,0-0.9,0-1.2c0-0.3,0-0.6,0-0.8c0-0.2,0-0.4,0-0.5c0-0.1,0-0.2,0-0.3c0-0.2-0.1-0.4-0.1-0.5
			c-0.1-0.1-0.2-0.2-0.4-0.2c-0.1,0-0.1,0-0.2,0c-0.1,0-0.2,0-0.2,0c-0.1,0-0.1,0-0.1-0.1c0-0.1,0.1-0.1,0.2-0.1c0.2,0,0.3,0,0.5,0
			c0.2,0,0.3,0,0.5,0c0.2,0,0.3,0,0.4,0c0.1,0,0.2,0,0.2,0c0,0,0.1,0,0.2,0c0.2,0,0.3,0,0.5,0c0.2,0,0.5,0,0.7,0c0.3,0,0.5,0,0.7,0
			c0.2,0,0.4,0,0.6,0s0.3,0,0.3,0c0.1,0,0.3,0,0.4,0c0.1,0,0.2,0,0.2,0c0,0,0.1,0,0.1,0c0,0,0.1,0,0.1,0c0,0,0.1,0,0.1,0.1
			c0,0.1,0,0.1,0,0.2c0,0.1,0,0.2-0.1,0.4c0,0,0,0.1,0,0.2c0,0.1,0,0.2,0,0.2s0,0.2,0,0.3c0,0.1,0,0.1,0,0.2c0,0,0,0.1,0,0.1
			c0,0,0,0-0.1,0c-0.1,0-0.1-0.1-0.1-0.2c0-0.1,0-0.1,0-0.2c0-0.1,0-0.2-0.1-0.2c0-0.1,0-0.1-0.1-0.1c0,0-0.1-0.1-0.2-0.1
			c-0.1,0-0.2-0.1-0.3-0.1c-0.1,0-0.3,0-0.4-0.1c-0.1,0-0.2,0-0.4,0c-0.2,0-0.4,0-0.6,0c-0.2,0-0.4,0-0.6,0s-0.3,0-0.3,0
			c-0.1,0-0.1,0-0.1,0.1V41c0,0.1,0,0.1,0.1,0.1c0,0,0.2,0,0.4,0c0.2,0,0.4,0,0.7,0c0.3,0,0.5,0,0.7,0c0.2,0,0.4,0,0.5,0
			c0.2,0,0.3,0,0.4-0.1c0.1,0,0.2-0.1,0.3-0.1c0.1-0.1,0.2-0.2,0.2-0.2c0,0,0.1,0,0.1,0.1c0,0,0,0.1,0,0.2c0,0.1,0,0.3-0.1,0.5
			c0,0.1,0,0.3,0,0.5c0,0.2,0,0.3,0,0.4s0,0.1,0,0.2c0,0.1,0,0.1-0.1,0.1c-0.1,0-0.1,0-0.1-0.1c0-0.1,0-0.1,0-0.2
			c0-0.1,0-0.1-0.1-0.2c0-0.1-0.1-0.2-0.2-0.2c-0.1-0.1-0.3-0.1-0.5-0.2c-0.1,0-0.2,0-0.4,0c-0.2,0-0.4,0-0.6,0c-0.2,0-0.4,0-0.6,0
			s-0.3,0-0.4,0c-0.1,0-0.1,0-0.1,0.1v1.1c0,0.1,0,0.3,0,0.5c0,0.2,0,0.4,0,0.7c0,0.2,0,0.4,0,0.6c0,0.2,0,0.3,0,0.4
			c0,0.2,0,0.4,0.1,0.5c0,0.1,0.1,0.2,0.2,0.3c0.1,0.1,0.3,0.1,0.5,0.2c0.2,0,0.5,0,0.8,0c0.2,0,0.4,0,0.7,0c0.3,0,0.5-0.1,0.7-0.1
			c0.2-0.1,0.3-0.2,0.4-0.3c0.1-0.1,0.2-0.3,0.2-0.6c0-0.1,0.1-0.2,0.1-0.2c0,0,0.1,0,0.1,0.1c0,0,0,0.1,0,0.1c0,0,0,0.1,0,0.2
			c0,0.1,0,0.2,0,0.4c0,0.1,0,0.3-0.1,0.4c0,0.1,0,0.2-0.1,0.3c0,0.1,0,0.1-0.1,0.2c0,0-0.1,0.1-0.1,0.1c-0.1,0-0.1,0-0.2,0
			c-0.1,0-0.2,0-0.3,0c-0.5,0-0.9,0-1.3,0c-0.4,0-0.7,0-1,0c-0.3,0-0.5,0-0.7,0c-0.2,0-0.3,0-0.4,0c0,0-0.1,0-0.2,0
			c-0.1,0-0.2,0-0.4,0c-0.1,0-0.3,0-0.4,0c-0.1,0-0.3,0-0.4,0c-0.1,0-0.2,0-0.2-0.1c0-0.1,0-0.1,0.1-0.1c0.1,0,0.1,0,0.2,0
			c0.1,0,0.1,0,0.2,0c0.1,0,0.2-0.1,0.2-0.2c0-0.1,0.1-0.3,0.1-0.5c0-0.3,0.1-0.6,0.1-1.1c0-0.5,0-1,0-1.7V40.6z"/>
		<path class="st3" d="M190.3,46.7c-0.4-0.1-0.7-0.1-0.9-0.3c-0.1-0.1-0.1-0.1-0.2-0.2c0-0.1,0-0.2,0-0.3c0-0.3,0-0.6,0-0.8
			c0-0.2,0-0.4,0-0.5c0-0.1,0-0.2,0.1-0.2c0.1,0,0.1,0.1,0.1,0.2c0,0.1,0,0.1,0,0.2c0,0.1,0,0.2,0,0.3c0,0.2,0.1,0.4,0.3,0.6
			c0.1,0.2,0.3,0.3,0.5,0.4c0.2,0.1,0.4,0.2,0.6,0.2c0.2,0,0.4,0.1,0.7,0.1c0.7,0,1.2-0.2,1.5-0.5c0.3-0.3,0.5-0.7,0.5-1.2
			c0-0.2,0-0.4-0.1-0.6c-0.1-0.2-0.2-0.4-0.3-0.5c-0.1-0.2-0.3-0.3-0.5-0.5c-0.2-0.2-0.5-0.4-0.8-0.6l-0.6-0.5
			c-0.7-0.5-1.2-1-1.5-1.4c-0.3-0.4-0.4-0.9-0.4-1.3c0-0.4,0.1-0.7,0.2-1c0.1-0.3,0.3-0.6,0.6-0.8c0.3-0.2,0.6-0.4,0.9-0.5
			c0.4-0.1,0.8-0.2,1.2-0.2c0.3,0,0.5,0,0.8,0c0.2,0,0.4,0.1,0.6,0.1c0.1,0,0.2,0,0.3,0.1c0.1,0,0.1,0,0.2,0c0.1,0,0.1,0,0.1,0.1
			c0,0,0,0.2,0,0.4c0,0.2,0,0.5,0,1c0,0.2,0,0.3-0.1,0.3c-0.1,0-0.1,0-0.1,0c0,0,0-0.1,0-0.1c0-0.1,0-0.2-0.1-0.3
			c0-0.1-0.1-0.2-0.1-0.3c0,0-0.1-0.1-0.1-0.2c-0.1-0.1-0.2-0.1-0.3-0.2c-0.1-0.1-0.3-0.1-0.5-0.2c-0.2-0.1-0.5-0.1-0.8-0.1
			c-0.5,0-0.9,0.1-1.2,0.4c-0.3,0.2-0.5,0.6-0.5,1c0,0.2,0,0.4,0.1,0.6c0.1,0.2,0.2,0.3,0.3,0.5c0.1,0.2,0.3,0.3,0.5,0.5
			c0.2,0.2,0.5,0.4,0.8,0.6l0.4,0.3c0.4,0.3,0.7,0.5,1,0.8c0.3,0.3,0.5,0.5,0.7,0.8c0.2,0.2,0.3,0.5,0.4,0.8
			c0.1,0.3,0.1,0.5,0.1,0.8c0,0.4-0.1,0.8-0.3,1.1c-0.2,0.4-0.5,0.7-1,1c-0.3,0.2-0.6,0.3-1,0.4c-0.4,0.1-0.8,0.1-1.1,0.1
			C191,46.7,190.6,46.7,190.3,46.7z"/>
		<path class="st3" d="M197.6,46.7c-0.4-0.1-0.7-0.1-0.9-0.3c-0.1-0.1-0.1-0.1-0.2-0.2c0-0.1,0-0.2,0-0.3c0-0.3,0-0.6,0-0.8
			c0-0.2,0-0.4,0-0.5c0-0.1,0-0.2,0.1-0.2c0.1,0,0.1,0.1,0.1,0.2c0,0.1,0,0.1,0,0.2c0,0.1,0,0.2,0,0.3c0,0.2,0.1,0.4,0.3,0.6
			c0.1,0.2,0.3,0.3,0.5,0.4c0.2,0.1,0.4,0.2,0.6,0.2c0.2,0,0.4,0.1,0.7,0.1c0.7,0,1.2-0.2,1.5-0.5c0.3-0.3,0.5-0.7,0.5-1.2
			c0-0.2,0-0.4-0.1-0.6c-0.1-0.2-0.2-0.4-0.3-0.5c-0.1-0.2-0.3-0.3-0.5-0.5c-0.2-0.2-0.5-0.4-0.8-0.6l-0.6-0.5
			c-0.7-0.5-1.2-1-1.5-1.4c-0.3-0.4-0.4-0.9-0.4-1.3c0-0.4,0.1-0.7,0.2-1c0.1-0.3,0.3-0.6,0.6-0.8c0.3-0.2,0.6-0.4,0.9-0.5
			c0.4-0.1,0.8-0.2,1.2-0.2c0.3,0,0.5,0,0.8,0c0.2,0,0.4,0.1,0.6,0.1c0.1,0,0.2,0,0.3,0.1c0.1,0,0.1,0,0.2,0c0.1,0,0.1,0,0.1,0.1
			c0,0,0,0.2,0,0.4c0,0.2,0,0.5,0,1c0,0.2,0,0.3-0.1,0.3c-0.1,0-0.1,0-0.1,0c0,0,0-0.1,0-0.1c0-0.1,0-0.2-0.1-0.3
			c0-0.1-0.1-0.2-0.1-0.3c0,0-0.1-0.1-0.1-0.2c-0.1-0.1-0.2-0.1-0.3-0.2c-0.1-0.1-0.3-0.1-0.5-0.2c-0.2-0.1-0.5-0.1-0.8-0.1
			c-0.5,0-0.9,0.1-1.2,0.4c-0.3,0.2-0.5,0.6-0.5,1c0,0.2,0,0.4,0.1,0.6c0.1,0.2,0.2,0.3,0.3,0.5c0.1,0.2,0.3,0.3,0.5,0.5
			c0.2,0.2,0.5,0.4,0.8,0.6l0.4,0.3c0.4,0.3,0.7,0.5,1,0.8c0.3,0.3,0.5,0.5,0.7,0.8c0.2,0.2,0.3,0.5,0.4,0.8
			c0.1,0.3,0.1,0.5,0.1,0.8c0,0.4-0.1,0.8-0.3,1.1c-0.2,0.4-0.5,0.7-1,1c-0.3,0.2-0.6,0.3-1,0.4c-0.4,0.1-0.8,0.1-1.1,0.1
			C198.3,46.7,198,46.7,197.6,46.7z"/>
		<path class="st3" d="M212,46.4c-0.8-0.3-1.5-0.7-2.1-1.2c-0.4-0.3-0.7-0.7-0.9-1.1c-0.2-0.4-0.4-0.7-0.6-1.1
			c-0.1-0.4-0.2-0.8-0.3-1.2c-0.1-0.4-0.1-0.8-0.1-1.1c0-0.3,0-0.5,0.1-0.9c0.1-0.3,0.1-0.7,0.3-1.1c0.1-0.4,0.3-0.7,0.5-1.1
			c0.2-0.4,0.5-0.7,0.8-1.1c0.2-0.2,0.5-0.4,0.8-0.6c0.3-0.2,0.6-0.4,1-0.5c0.4-0.1,0.8-0.3,1.3-0.3c0.5-0.1,1-0.1,1.6-0.1
			c0.3,0,0.6,0,1,0c0.4,0,0.8,0.1,1.1,0.1c0.3,0.1,0.6,0.1,0.8,0.1c0.2,0,0.5,0.1,0.7,0.1c0.1,0,0.1,0,0.2,0.1c0,0,0,0.1,0,0.1
			c0,0.1,0,0.1,0,0.3c0,0.1,0,0.3-0.1,0.6c0,0.1,0,0.3,0,0.4c0,0.2,0,0.3,0,0.5c0,0.2,0,0.3,0,0.4c0,0.1,0,0.2,0,0.3
			c0,0.2-0.1,0.3-0.1,0.3c-0.1,0-0.1-0.1-0.1-0.3c0-0.3-0.1-0.6-0.2-0.9c-0.1-0.3-0.3-0.5-0.5-0.7c-0.3-0.2-0.7-0.4-1.2-0.6
			c-0.5-0.2-1.1-0.3-1.8-0.3c-0.5,0-0.9,0-1.3,0.1c-0.4,0.1-0.7,0.2-1,0.3c-0.3,0.1-0.5,0.2-0.7,0.4c-0.2,0.1-0.4,0.3-0.5,0.4
			c-0.6,0.5-0.9,1.1-1.1,1.8c-0.2,0.7-0.3,1.4-0.3,2.1c0,0.7,0.1,1.4,0.4,2.1c0.3,0.7,0.6,1.2,1.1,1.8c0.5,0.5,1,0.9,1.7,1.2
			c0.7,0.3,1.4,0.5,2.2,0.5c0.6,0,1.1,0,1.5-0.1c0.4-0.1,0.8-0.3,1.1-0.6c0.2-0.2,0.3-0.4,0.4-0.7c0.1-0.3,0.2-0.5,0.2-0.6
			c0-0.2,0.1-0.2,0.2-0.2c0,0,0.1,0,0.1,0.1c0,0,0,0.1,0,0.2c0,0,0,0.1,0,0.3c0,0.2,0,0.3-0.1,0.5c0,0.2-0.1,0.4-0.1,0.6
			c0,0.2-0.1,0.4-0.1,0.5c-0.1,0.1-0.1,0.2-0.1,0.3c0,0-0.1,0.1-0.3,0.2c-0.2,0.1-0.3,0.1-0.5,0.2c-0.2,0-0.4,0.1-0.7,0.1
			c-0.2,0-0.5,0-0.7,0.1c-0.3,0-0.5,0-0.7,0C213.7,46.8,212.8,46.6,212,46.4z"/>
		<path class="st3" d="M222.2,42.9c0,0.5,0,0.9,0,1.2c0,0.3,0,0.6,0,0.8c0,0.2,0,0.4,0.1,0.5c0,0.1,0.1,0.2,0.1,0.3
			c0.1,0.1,0.3,0.2,0.6,0.2c0.3,0,0.7,0.1,1.2,0.1c0.4,0,0.7,0,0.9-0.1c0.3,0,0.5-0.1,0.7-0.3c0.1-0.1,0.1-0.2,0.2-0.3
			c0.1-0.1,0.1-0.3,0.1-0.4c0-0.1,0.1-0.2,0.1-0.2c0.1,0,0.1,0.1,0.1,0.2c0,0,0,0.1,0,0.2c0,0.1,0,0.2,0,0.3c0,0.1,0,0.3-0.1,0.4
			c0,0.1,0,0.2-0.1,0.3c0,0.1,0,0.1-0.1,0.2c0,0-0.1,0.1-0.1,0.1c-0.1,0-0.1,0-0.2,0c-0.1,0-0.2,0-0.4,0c-0.9,0-1.7,0-2.3,0
			c-0.3,0-0.6,0-0.8,0c-0.2,0-0.4,0-0.6,0c0,0-0.1,0-0.2,0c-0.1,0-0.2,0-0.3,0c-0.1,0-0.3,0-0.4,0c-0.1,0-0.3,0-0.4,0
			c-0.1,0-0.2,0-0.2-0.1c0-0.1,0-0.1,0.1-0.1c0.1,0,0.1,0,0.2,0c0.1,0,0.1,0,0.2,0c0.1,0,0.2-0.1,0.2-0.2c0-0.1,0.1-0.3,0.1-0.5
			c0-0.3,0.1-0.6,0.1-1.1c0-0.5,0-1,0-1.7v-2.3c0-0.5,0-0.9,0-1.2c0-0.3,0-0.6,0-0.8c0-0.2,0-0.4,0-0.5c0-0.1,0-0.2,0-0.3
			c0-0.2-0.1-0.4-0.1-0.5c-0.1-0.1-0.2-0.2-0.4-0.2c-0.1,0-0.1,0-0.2,0c-0.1,0-0.2,0-0.2,0c-0.1,0-0.1,0-0.1-0.1
			c0-0.1,0.1-0.1,0.2-0.1c0.2,0,0.3,0,0.5,0c0.2,0,0.3,0,0.5,0c0.2,0,0.3,0,0.4,0c0.1,0,0.2,0,0.2,0c0,0,0.1,0,0.2,0
			c0.1,0,0.3,0,0.4,0c0.2,0,0.3,0,0.5,0c0.2,0,0.3,0,0.4,0c0.1,0,0.2,0,0.2,0.1c0,0.1,0,0.1-0.1,0.1c-0.1,0-0.1,0-0.2,0
			c-0.1,0-0.2,0-0.2,0c-0.2,0-0.3,0.1-0.4,0.2c-0.1,0.1-0.1,0.3-0.1,0.5c0,0.1,0,0.2,0,0.3c0,0.1,0,0.3,0,0.5c0,0.2,0,0.4,0,0.8
			c0,0.3,0,0.7,0,1.2V42.9z"/>
		<path class="st3" d="M227.7,40.6c0-0.5,0-0.9,0-1.2c0-0.3,0-0.6,0-0.8c0-0.2,0-0.4,0-0.5c0-0.1,0-0.2,0-0.3c0-0.2-0.1-0.4-0.1-0.5
			c-0.1-0.1-0.2-0.2-0.4-0.2c-0.1,0-0.1,0-0.2,0c-0.1,0-0.2,0-0.2,0c-0.1,0-0.1,0-0.1-0.1c0-0.1,0.1-0.1,0.2-0.1c0.2,0,0.3,0,0.5,0
			c0.2,0,0.3,0,0.5,0c0.2,0,0.3,0,0.4,0c0.1,0,0.2,0,0.2,0c0,0,0.1,0,0.2,0c0.1,0,0.2,0,0.4,0c0.1,0,0.3,0,0.4,0c0.1,0,0.3,0,0.4,0
			c0.2,0,0.2,0,0.2,0.1c0,0.1,0,0.1-0.1,0.1c-0.1,0-0.1,0-0.2,0c0,0-0.1,0-0.2,0c-0.2,0-0.3,0.1-0.3,0.2c-0.1,0.1-0.1,0.3-0.1,0.5
			c0,0.1,0,0.2,0,0.3c0,0.1,0,0.3,0,0.5c0,0.2,0,0.4,0,0.8c0,0.3,0,0.7,0,1.2v1.8c0,0.5,0,0.9,0.1,1.2c0.1,0.3,0.1,0.6,0.2,0.9
			c0.1,0.2,0.2,0.5,0.3,0.6c0.1,0.2,0.3,0.3,0.4,0.4c0.3,0.3,0.6,0.5,0.9,0.6c0.3,0.1,0.6,0.1,1,0.1c0.4,0,0.8-0.1,1.2-0.2
			c0.4-0.2,0.7-0.4,0.9-0.7c0.3-0.4,0.5-0.8,0.6-1.3c0.1-0.5,0.1-1.1,0.1-1.8v-1.6c0-0.5,0-0.9,0-1.2c0-0.3,0-0.6,0-0.8
			c0-0.2,0-0.4,0-0.5c0-0.1,0-0.2,0-0.3c0-0.2,0-0.4-0.1-0.5c-0.1-0.1-0.2-0.2-0.4-0.2c-0.1,0-0.1,0-0.2,0c-0.1,0-0.2,0-0.2,0
			c-0.1,0-0.1,0-0.1-0.1c0-0.1,0.1-0.1,0.2-0.1c0.2,0,0.3,0,0.5,0c0.2,0,0.3,0,0.4,0c0.1,0,0.3,0,0.4,0c0.1,0,0.2,0,0.2,0
			c0,0,0.2,0,0.4,0c0.2,0,0.5,0,0.7,0c0.1,0,0.2,0,0.2,0.1c0,0.1,0,0.1-0.1,0.1c-0.1,0-0.1,0-0.2,0c0,0-0.1,0-0.2,0
			c-0.2,0-0.3,0.1-0.4,0.2c-0.1,0.1-0.1,0.3-0.1,0.5c0,0.1,0,0.2,0,0.3c0,0.1,0,0.3,0,0.5c0,0.2,0,0.4,0,0.8c0,0.3,0,0.7,0,1.2V42
			c0,0.4,0,0.7,0,1.1c0,0.4-0.1,0.7-0.2,1c-0.1,0.3-0.2,0.7-0.4,1c-0.2,0.3-0.4,0.6-0.6,0.8c-0.2,0.2-0.5,0.4-0.7,0.5
			c-0.2,0.1-0.5,0.2-0.7,0.3c-0.2,0.1-0.5,0.1-0.7,0.1c-0.2,0-0.4,0-0.6,0c-0.1,0-0.3,0-0.5,0c-0.2,0-0.4,0-0.7-0.1
			c-0.3-0.1-0.5-0.2-0.8-0.3c-0.3-0.1-0.5-0.3-0.8-0.5c-0.2-0.2-0.3-0.3-0.5-0.5c-0.1-0.2-0.3-0.4-0.4-0.7c-0.1-0.3-0.2-0.6-0.2-0.9
			c-0.1-0.4-0.1-0.8-0.1-1.2V40.6z"/>
		<path class="st3" d="M238.9,40.6c0-0.5,0-0.9,0-1.2c0-0.3,0-0.6,0-0.8c0-0.2,0-0.4,0-0.5c0-0.1,0-0.2,0-0.3c0-0.2-0.1-0.4-0.1-0.5
			c-0.1-0.1-0.2-0.2-0.4-0.2c-0.1,0-0.1,0-0.2,0c-0.1,0-0.2,0-0.2,0c-0.1,0-0.1,0-0.1-0.1c0-0.1,0.1-0.1,0.2-0.1c0.2,0,0.3,0,0.5,0
			c0.2,0,0.3,0,0.5,0c0.2,0,0.3,0,0.4,0c0.1,0,0.2,0,0.2,0c0.2,0,0.4,0,0.7,0c0.3,0,0.6,0,0.9,0c0.6,0,1,0.1,1.4,0.2
			c0.4,0.1,0.6,0.3,0.9,0.5c0.2,0.2,0.4,0.4,0.4,0.6c0.1,0.2,0.1,0.4,0.1,0.6c0,0.3,0,0.5-0.1,0.7c-0.1,0.2-0.2,0.4-0.3,0.6
			c-0.1,0.2-0.3,0.3-0.4,0.5c-0.2,0.2-0.3,0.3-0.5,0.5c0.3,0.1,0.5,0.2,0.8,0.3c0.3,0.2,0.5,0.3,0.8,0.6c0.2,0.2,0.4,0.5,0.6,0.8
			c0.2,0.3,0.2,0.6,0.2,1s-0.1,0.7-0.2,1.1c-0.1,0.3-0.3,0.6-0.6,0.9c-0.3,0.3-0.6,0.5-1,0.6c-0.4,0.2-0.9,0.2-1.5,0.2
			c-0.1,0-0.3,0-0.5,0c-0.2,0-0.4,0-0.6,0c-0.2,0-0.4,0-0.6,0c-0.2,0-0.3,0-0.3,0c0,0-0.1,0-0.2,0c-0.1,0-0.2,0-0.4,0
			c-0.1,0-0.3,0-0.4,0c-0.1,0-0.3,0-0.4,0c-0.1,0-0.2,0-0.2-0.1c0-0.1,0-0.1,0.1-0.1c0.1,0,0.1,0,0.2,0c0.1,0,0.1,0,0.2,0
			c0.1,0,0.2-0.1,0.2-0.2c0-0.1,0.1-0.3,0.1-0.5c0-0.3,0.1-0.6,0.1-1.1c0-0.5,0-1,0-1.7V40.6z M240,40.9c0,0.1,0,0.1,0.1,0.1
			c0,0,0.1,0,0.2,0c0.1,0,0.3,0,0.6,0c0.4,0,0.6,0,0.8-0.1c0.2,0,0.3-0.1,0.5-0.3c0.1-0.2,0.3-0.4,0.4-0.6c0.1-0.2,0.2-0.5,0.2-0.8
			c0-0.2,0-0.5-0.1-0.7c-0.1-0.2-0.2-0.5-0.3-0.7c-0.2-0.2-0.3-0.4-0.6-0.5c-0.2-0.1-0.5-0.2-0.8-0.2c-0.1,0-0.2,0-0.3,0
			c-0.1,0-0.3,0-0.4,0c-0.1,0-0.2,0.1-0.2,0.1V40.9z M240,42.3c0,0.3,0,0.5,0,0.8c0,0.3,0,0.6,0,0.8c0,0.3,0,0.5,0,0.7
			c0,0.2,0,0.3,0,0.4c0,0.2,0,0.3,0,0.4c0,0.1,0,0.2,0.1,0.3c0,0.1,0.1,0.1,0.1,0.2c0.1,0.1,0.1,0.1,0.2,0.2
			c0.2,0.1,0.4,0.1,0.6,0.2c0.2,0,0.4,0,0.5,0c0.2,0,0.4,0,0.7-0.1c0.2-0.1,0.4-0.1,0.6-0.3c0.2-0.1,0.3-0.3,0.5-0.6
			c0.1-0.3,0.2-0.6,0.2-1c0-0.1,0-0.3-0.1-0.5c0-0.2-0.1-0.4-0.2-0.6c-0.1-0.2-0.2-0.4-0.4-0.6c-0.2-0.2-0.4-0.4-0.6-0.6
			c-0.2-0.1-0.4-0.2-0.6-0.2c-0.2,0-0.4-0.1-0.5-0.1c0,0-0.1,0-0.2,0c-0.1,0-0.2,0-0.3,0c-0.1,0-0.2,0-0.3,0c-0.1,0-0.2,0-0.2,0
			c-0.1,0-0.1,0-0.1,0.1V42.3z"/>
	</g>
</g>
</svg>
