<?xml version="1.0" encoding="utf-8"?>
<!-- Generator: Adobe Illustrator 21.1.0, SVG Export Plug-In . SVG Version: 6.00 Build 0)  -->
<svg version="1.1" id="Layer_1" xmlns="http://www.w3.org/2000/svg" xmlns:xlink="http://www.w3.org/1999/xlink" x="0px" y="0px"
	 viewBox="0 0 300 53.7" style="enable-background:new 0 0 300 53.7;" xml:space="preserve">
<style type="text/css">
	.st0{fill:#009BA7;}
	.st1{fill:#B5B7B7;}
	.st2{fill:#008BB3;}
	.st3{fill:#464646;}
</style>
<g>
	<g id="XMLID_9063_">
		<polygon id="XMLID_9068_" class="st0" points="43,32.7 22.3,53.6 22.3,43.2 32.7,32.8 		"/>
		<polygon id="XMLID_9067_" class="st1" points="32.6,20.8 43,31.3 32.7,31.3 22.3,20.8 		"/>
		<polygon id="XMLID_9066_" class="st0" points="0.1,31.3 31.2,0 31.2,10.4 10.3,31.3 		"/>
		<polygon id="XMLID_9065_" class="st1" points="20.7,53.6 0,32.7 10.3,32.8 20.7,43.2 		"/>
		<polygon id="XMLID_9064_" class="st2" points="27.5,30.4 23.9,30.4 23.9,25.9 19.4,25.9 19.4,30.4 15.7,30.4 15.7,34 19.4,34 
			19.4,38.5 23.9,38.5 23.9,34 27.5,34 		"/>
	</g>
	<g id="XMLID_1487_">
		<path id="XMLID_8085_" class="st0" d="M59.4,27.8c-2.1,0.7-4.3,1.3-6.5,1.6l-0.2-1.7l1.6-0.2c0.5-0.1,0.9-0.2,1.3-0.3V21H53v-1.5
			h2.6v-1.7H54V17l-0.6,0.6l-0.7-1.9c1.5-1.4,2.5-2.7,3.1-4.3h1.4c1,1.1,1.9,2.3,2.6,3.7l-1.4,1.1l-0.9-1.7
			c-0.2-0.4-0.4-0.6-0.5-0.9c-0.1-0.1-0.2-0.2-0.3-0.4c-0.1,0.2-0.2,0.4-0.3,0.5c-0.5,0.8-1.1,1.7-1.7,2.5H59v1.5h-1.9v1.7h2.4v1.5
			h-2.4v5.9l1.2-0.3c0.3-0.1,0.6-0.2,1.1-0.4L59.4,27.8z M53.6,26.4c-0.1-1.5-0.3-2.9-0.5-4l1.3-0.2c0.2,0.7,0.4,1.9,0.6,3.5
			c0,0.1,0,0.3,0,0.4L53.6,26.4z M59.3,22.3l-0.1,1.6c-0.1,0.8-0.2,1.4-0.3,1.8l-1.3-0.2c0-0.1,0-0.3,0-0.4c0.2-1.2,0.3-1.9,0.3-2.3
			s0-0.6,0-0.7L59.3,22.3z M66.4,11.3v1h4.9v1.4h-4.9v0.8h4.1v1.3h-9.7v-1.3h4v-0.8h-5v-1.4h5v-1H66.4z M69.8,25.7v1.8v0.3
			c0,0.8-0.2,1.3-0.5,1.6c-0.3,0.3-0.9,0.5-1.7,0.5h-1l-0.5-1.4h1.4c0.5,0,0.6-0.2,0.6-0.6v-2.1h-3.3v-1.3h3.3v-0.9h-8.5v-1.4h11.6
			v1.4h-1.4v0.9h1.4v1.3L69.8,25.7L69.8,25.7z M68.9,19.1c0.3-0.5,0.5-0.9,0.5-1.4v-0.1h-9.6v-1.4h11.4c0,1.2-0.3,2.3-0.8,3.3
			L68.9,19.1z M68.4,18.4v1.2h-2.6v0.8h4.5v1.3H60.1v-1.3h4.1v-0.8h-3.4v-1.2H68.4z M60.2,24.2h4.3v5.1h-1.4v-0.8h-1.3v1.1h-1.4
			L60.2,24.2L60.2,24.2z M63,25.5h-1.3v1.8H63V25.5z M66.1,28.1c-0.1-0.3-0.3-0.5-0.5-0.9l-0.5-0.8l1.1-0.6c0.2,0.2,0.5,0.5,0.6,0.7
			l0.5,0.8L66.1,28.1z"/>
		<path id="XMLID_8072_" class="st0" d="M78,18v-1.8h2.1v-4.9h1.8v4.9h1.5V18h-1.5v11.9h-1.8V18H78z M90.6,11.3V13h2.8
			c-0.1-0.1-0.1-0.1-0.1-0.2c-0.1-0.1-0.2-0.3-0.3-0.4l-0.6-0.5l1.3-0.7l0.6,0.5c0.1,0.1,0.3,0.3,0.5,0.5l0.1,0.1l-1,0.5h2.7v1.5
			h-6.1v0.8h5.2V21v0.5c0,0.6-0.1,1-0.3,1.3c-0.2,0.2-0.5,0.4-1.2,0.5v0.5h2.4v1.6h-2.4v1.9v0.5c0,1.1-0.6,1.7-1.8,1.7h-2.1
			l-0.5-1.7l2,0.1c0.4,0,0.6-0.2,0.6-0.5v-1.8h-5.8c0.1,0.1,0.3,0.2,0.4,0.3c0.3,0.2,0.5,0.5,0.7,0.7l1.2,1.3l-1.4,1.3
			c-0.5-0.7-1.2-1.4-1.8-2.2l-0.4-0.4l1.3-1h-3.5V24h9.5v-0.5h-0.5l-0.4-1.4h1.9c0.2,0,0.4,0,0.5-0.1c0.1,0,0.1-0.2,0.1-0.5v-0.3
			h-3.5v1.7H89v-1.7h-3.1v2.1h-1.7v-8h4.7v-0.8h-5.2V13h5.2v-1.7H90.6L90.6,11.3z M88.8,17.7v-0.9h-3.1v0.9H88.8z M88.8,20.1v-1
			h-3.1v1H88.8z M94.1,17.7v-0.9h-3.5v0.9H94.1z M94.1,20.1v-1h-3.5v1H94.1z"/>
		<path id="XMLID_7695_" class="st0" d="M120.5,22.4v7.4h-1.7v-0.5h-12.3v0.5h-1.7v-7.4h5.2v-0.8h-6.5v-1.4h18.6v1.4h-7v0.8H120.5z
			 M107.1,12.9h-1.7v5.5h7.1v1.2h-8.8v-7.9h9v1.2h-4.6l-0.4,0.6h4.2v0.9h-2.1l-0.1,0.7h2.6v1h-2.8c0.5,0.1,0.8,0.3,1.3,0.5l1.3,0.5
			l-0.5,1.2c-0.6-0.4-1.4-0.8-2.5-1.3c-0.5,0.6-1.4,1.1-2.8,1.4l-0.5-1.2c1.2-0.1,2.1-0.5,2.6-1h-2.7v-1h2.9l0.1-0.7h-1.4l-0.5,0.5
			l-1-0.7l0.3-0.2C106.5,13.8,106.7,13.5,107.1,12.9z M118.7,25.5h-3.9c-1,0-1.5-0.5-1.5-1.5v-0.4h-2.2c-0.3,1.3-1.3,2.1-2.9,2.4
			l-1.2-1.2c1.1-0.1,1.9-0.5,2.4-1.1l0.1-0.2h-3.1v2.4h12.3L118.7,25.5L118.7,25.5z M106.4,28.3h12.3v-1h-12.3V28.3z M113.3,22.4
			v-0.8h-1.9v0.8H113.3z M119.6,13c0,0.3,0,0.4,0.1,0.5c0.1,0,0.2,0.1,0.4,0.1h1.5v1.1h-2.3c-0.9,0-1.4-0.5-1.4-1.3v-0.2h-2.5
			c-0.2,0.8-0.6,1.4-1.4,1.7l-0.5,0.3l-1-1c0.9-0.4,1.4-1,1.5-1.9c0-0.1,0-0.3,0-0.5h5.4L119.6,13L119.6,13z M114.3,16.4H113v-1.2
			h7.8v0.9c-0.5,0.7-1,1.4-1.7,1.9c0,0-0.1,0.1-0.2,0.1c0.1,0,0.2,0,0.2,0c0.6,0.2,1.4,0.3,2.3,0.4c0.1,0,0.1,0,0.2,0l-0.5,1.4
			c-1.4-0.2-2.8-0.5-3.9-0.9c-1,0.4-2.2,0.5-3.6,0.6c-0.1,0-0.3,0-0.4,0l-0.7-1.4c0.5,0,1,0,1.4,0c0.5,0,0.9-0.1,1.3-0.2l-1-0.6
			c-0.5-0.4-0.8-0.5-0.9-0.6L114.3,16.4z M114.8,16.4c0.6,0.5,1.4,0.8,2.3,1.2c0.1,0,0.1,0,0.2,0.1l0.9-0.5c0.2-0.1,0.4-0.3,0.5-0.5
			c0-0.1,0.1-0.1,0.2-0.2L114.8,16.4L114.8,16.4z M118.7,23.7h-3.8v0.4c0,0.3,0.2,0.5,0.5,0.5h3.3V23.7L118.7,23.7z"/>
		<path id="XMLID_6733_" class="st0" d="M128.5,15.3v-1.6h2.5l-0.3-0.9c-0.2-0.5-0.4-0.8-0.5-1.2l1.7-0.3c0.2,0.4,0.4,0.7,0.5,1.3
			l0.4,1.1h1.9v1.6L128.5,15.3L128.5,15.3z M129.1,16.6h5.2v1.5h-5.2V16.6z M129.1,19.6h5.2v1.5h-5.2V19.6z M134.2,29.8h-1.6v-1
			h-1.8V30h-1.6v-7.1h5.1L134.2,29.8L134.2,29.8z M132.6,24.3h-1.8v3h1.8V24.3z M141.6,14.4l0.4,0.7l0.3,0.6h4.4v1.2h-4.5v0.9h4.3
			v1.1h-4.3v1h4.3v1.2h-4.3v1h4.6v1.3h-11v-4.3l-0.5,0.5l-0.5,0.5l-1-1.4c1.3-1.1,2.4-2.5,3.3-4.3l1.4,0.6l-0.4,0.6h2.4l-0.3-0.5
			c-0.1-0.2-0.3-0.4-0.4-0.5L141.6,14.4z M145.7,24.3v1.2c-1,0.9-1.9,1.5-2.7,2.1c1.1,0.4,2.3,0.5,3.6,0.7c0.2,0,0.4,0,0.5,0.1
			l-0.6,1.5c-1.7-0.3-3.5-0.7-5.2-1.4c-1.4,0.6-3.4,1.1-5.9,1.4l-0.7-1.5c1.7-0.1,3.3-0.4,4.7-0.7l-1.2-0.7l-1-0.6l1.2-0.5h-2.9
			v-1.4L145.7,24.3L145.7,24.3z M137.7,14.7v-0.9h-2.9v-1.3h2.9v-1.2h1.6v1.2h1.4v1.3h-1.4v0.9H137.7z M140.7,17.8v-0.9h-3.2v0.9
			H140.7z M140.7,20v-1h-3.2v1H140.7z M140.7,22.1v-1h-3.2v1H140.7z M138.9,25.7l1.1,0.6l1.3,0.6c0.5-0.3,1-0.5,1.3-0.6l1-0.6H138.9
			z M142.8,14.7v-0.9h-1.5v-1.3h1.5v-1.2h1.6v1.2h2.7v1.3h-2.7v0.9H142.8z"/>
		<path id="XMLID_6500_" class="st0" d="M156.8,23.3c-0.2,2.7-0.6,4.9-1.4,6.5l-1.6-1.2c0.7-2.3,1.1-4.3,1.1-6.2c0-1.1,0-2.1,0-2.9
			s0-1.3,0-1.4v-6.2h6.2v16v0.4c0,0.9-0.5,1.4-1.4,1.4h-1.9l-0.4-1.9l1.4,0.1c0.3,0,0.4-0.1,0.4-0.4v-4L156.8,23.3L156.8,23.3z
			 M159.3,16.6v-2.8h-2.5v2.8H159.3z M159.3,21.6v-3.3h-2.5v3.3H159.3z M164.5,13.6v5.1h7.1v1.6c-0.5,2.5-1.2,4.6-2.1,6.1
			c0.6,0.6,1.5,1.2,2.5,1.7l0.4,0.2l-1.1,1.6c-1.2-0.6-2.2-1.3-3-2.1c-1,0.9-1.9,1.5-2.6,2l-1.1-1.6c0.2-0.1,0.4-0.2,0.5-0.3
			c1-0.5,1.7-1.1,2.1-1.5c-0.5-0.5-0.9-1.4-1.4-2.5c-0.5-1.2-0.7-2.3-0.9-3.3h-0.5v9.3h-1.9V11.8h9.1v0.8v0.6v0.3v0.3v0.8
			c0,0.4-0.1,0.6-0.1,0.7c-0.1,1.1-0.4,1.7-0.8,2c-0.5,0.3-1.2,0.5-2.2,0.5c-0.6,0-1.1,0-1.4-0.1l-0.3-1.8c0.5,0.1,1.2,0.1,1.9,0.1
			c0.5,0,0.8-0.1,1-0.4c0.1-0.3,0.2-0.9,0.2-1.9v-0.2L164.5,13.6C164.5,13.5,164.5,13.6,164.5,13.6z M166.5,20.6
			c0.3,1.5,0.8,3,1.7,4.3c0.6-0.9,1.1-2.2,1.4-3.7c0-0.2,0.1-0.4,0.2-0.6H166.5L166.5,20.6z"/>
		<path id="XMLID_6061_" class="st0" d="M186.1,23.7l-1.4-1.1c0.5-0.8,0.8-1.7,1.2-2.6c0-0.1,0.1-0.3,0.2-0.5h-1.4v7.8v0.3
			c0,0.7-0.2,1.3-0.5,1.5c-0.3,0.4-0.9,0.5-1.8,0.5h-1.3l-0.5-1.9l1.5,0.1c0.5,0,0.6-0.2,0.6-0.6v-7.6c-0.7,3.3-1.5,5.7-2.4,7.5
			l-1.4-1.4c0.8-1.4,1.5-3.4,2.3-6.2h-2.3v-1.6h3.9l-1-1.2c-0.3-0.3-0.5-0.6-1-1c-0.1-0.1-0.3-0.3-0.5-0.5l1.4-0.9l0.9,0.8l0.5,0.6
			c0.6-0.7,1.2-1.4,1.6-2.1c0-0.1,0.1-0.1,0.1-0.2h-5.4v-1.5h7.5v1.3c-0.8,1.6-1.7,3-2.7,4l0.3,0.4l0.3,0.5h2.7v1.2
			C187.3,20.8,186.7,22.3,186.1,23.7z M191,22.6l0.1-0.9l0.1-0.9L193,21l-0.2,1.6h4.1c-0.1,3.2-0.4,5.1-0.6,5.9
			c-0.3,0.7-0.7,1.2-1.4,1.2c-0.6,0-1,0-1.1,0c-0.3,0-0.5,0-0.6,0c-0.4,0-0.6,0-0.9-0.1l-0.4-1.8c0.8,0.1,1.4,0.1,1.8,0.1
			c0.5,0,0.7-0.2,0.8-0.5c0.1-0.4,0.3-1,0.4-2c0-0.3,0-0.6,0.1-1.2h-2.5c-0.5,2.7-2.4,4.6-5.8,5.6l-0.9-1.7c2.6-0.7,4.2-2,4.7-4
			h-3.3v-1.6L191,22.6L191,22.6z M186.8,16.2c1.5-1.4,2.7-3,3.4-4.9l1.8,0.4l-0.3,0.7l-0.4,0.7h6.2v1.5h-1.1
			c-0.8,1.6-1.6,2.8-2.4,3.5c0.9,0.6,2.1,1.2,3.6,1.7l-0.8,1.7c-1.4-0.5-2.9-1.3-4.3-2.3c-0.3,0.2-0.5,0.3-0.5,0.4
			c-1,0.6-2.3,1.3-3.7,1.8l-0.9-1.6c0.2-0.1,0.3-0.1,0.4-0.2c1.2-0.4,2.2-0.8,3.1-1.4c0.1,0,0.2-0.1,0.3-0.2
			c-0.6-0.7-1.3-1.4-1.8-2.3l-0.5,0.5c-0.4,0.5-0.7,0.7-0.9,0.9L186.8,16.2z M190.7,14.7c0.5,0.7,1.1,1.5,1.8,2.3l0.2,0.2l0.3-0.3
			c0.5-0.5,1-1.3,1.4-2c0-0.1,0.1-0.1,0.2-0.2C194.6,14.7,190.7,14.7,190.7,14.7z"/>
		<path id="XMLID_5947_" class="st0" d="M222.1,14.7v9h-7.4V30h-2.1v-6.3h-7.2v-9h7.2v-3.3h2.1v3.3
			C214.7,14.7,222.1,14.7,222.1,14.7z M212.6,16.5h-5.2v5.3h5.2V16.5z M220.1,16.5h-5.4v5.3h5.4V16.5z"/>
		<path id="XMLID_5537_" class="st0" d="M233.7,17.5c-0.3,3.5-1.1,7-2.3,10.2l-1.9-1.2c0.6-1.8,1.1-3.3,1.4-4.6
			c0.4-1.3,0.5-2.9,0.7-4.8L233.7,17.5z M237.3,16.3h-2v11.6c0.1,0.7,0.3,1.2,0.7,1.4c0.4,0.2,0.9,0.4,1.5,0.4h3.9
			c0.7,0,1.4-0.2,1.9-0.6c0.4-0.3,0.6-0.9,0.7-1.8c0.1-0.9,0.1-2,0.1-3.2v-0.3v-0.1l-2-0.6c0,0.6,0,1.2,0,1.5V25
			c0,1.2,0,1.9-0.1,2.3s-0.4,0.5-0.9,0.5h-3.2c-0.5,0-0.7-0.3-0.7-0.7L237.3,16.3L237.3,16.3z M237.6,11.4c1.4,1.3,2.7,2.6,4,4.2
			c0.2,0.2,0.4,0.5,0.6,0.8l-1.7,1.5c-1.3-1.8-2.4-3.3-3.7-4.6l-0.7-0.7L237.6,11.4z M246.1,26.9c-0.6-3.3-1.5-6.4-2.8-9.2l2-0.6
			c1,2.3,1.9,5,2.7,8.1c0.1,0.3,0.2,0.5,0.3,0.9L246.1,26.9z"/>
		<g id="XMLID_2132_">
			<path id="XMLID_4349_" class="st3" d="M191.9,43.5c-1.4-1.3-1.8-3-1.8-4.4c0-1,0.4-2.7,1.7-4.1c0.9-0.9,2.3-1.6,4.5-1.6
				c0.6,0,1.4,0,2.2,0.2c0.5,0.1,1.1,0.2,1.5,0.2c0.2,0,0.2,0.1,0.2,0.2s0,0.3-0.1,0.8c0,0.5,0,1.4,0,1.5c0,0.2,0,0.3-0.1,0.3
				s-0.1-0.1-0.1-0.3c0-0.5-0.3-1.2-0.6-1.5c-0.5-0.5-1.7-0.8-3-0.8c-2,0-2.9,0.5-3.4,1.1c-1.1,1.1-1.4,2.4-1.4,3.9
				c0,2.9,2.2,5.5,5.4,5.5c1.1,0,2-0.1,2.6-0.7c0.3-0.4,0.5-1,0.5-1.3c0-0.2,0.1-0.2,0.2-0.2c0.1,0,0.1,0.1,0.1,0.2
				s-0.2,1.4-0.4,1.9c-0.1,0.3-0.1,0.3-0.4,0.5c-0.6,0.3-1.7,0.4-2.7,0.4C194.6,45.1,193,44.6,191.9,43.5z"/>
			<path id="XMLID_3989_" class="st3" d="M203.4,39c0-2,0-2.4,0-2.7c0-0.5-0.1-0.6-0.5-0.7c-0.1,0-0.4,0-0.5,0l-0.1-0.1
				c0-0.1,0.1-0.1,0.2-0.1c0.6,0,1.4,0,1.5,0s2.8,0,3.2,0c0.3,0,0.5-0.1,0.6-0.1s0.1-0.1,0.2-0.1l0.1,0.1c0,0.1-0.1,0.3-0.1,0.6
				c0,0.1,0,0.7-0.1,0.8c0,0.1-0.1,0.1-0.1,0.1c-0.1,0-0.1-0.1-0.1-0.2s0-0.3-0.1-0.5s-0.2-0.3-0.9-0.4c-0.2,0-1.7,0-1.9,0
				c-0.1,0-0.1,0-0.1,0.1v3.4c0,0.1,0,0.1,0.1,0.1c0.2,0,1.9,0,2.2,0s0.5,0,0.6-0.2c0.1-0.1,0.2-0.2,0.2-0.2s0.1,0,0.1,0.1
				s-0.1,0.3-0.1,0.7c0,0.3-0.1,0.7-0.1,0.8s0,0.3-0.1,0.3s-0.1,0-0.1-0.1s0-0.3-0.1-0.5c0-0.2-0.2-0.4-0.6-0.4s-1.8-0.1-2-0.1
				c-0.1,0-0.1,0-0.1,0.1v1.1c0,0.5,0,1.9,0,2.2c0,0.8,0.3,1,1.5,1c0.4,0,1,0,1.4-0.1c0.4-0.2,0.5-0.4,0.6-0.9
				c0-0.2,0.1-0.2,0.1-0.2c0.1,0,0.1,0.1,0.1,0.2s-0.1,1-0.2,1.3c-0.1,0.4-0.2,0.4-0.7,0.4c-1,0-1.7,0-2.3,0s-0.9,0-1.1,0
				c0,0-0.3,0-0.5,0s-0.5,0-0.7,0c-0.1,0-0.2,0-0.2-0.1c0,0,0-0.1,0.1-0.1s0.3,0,0.4-0.1c0.3,0,0.3-0.3,0.4-0.6
				c0.1-0.5,0.1-1.5,0.1-2.7v-2.4h-0.3L203.4,39L203.4,39z"/>
			<path id="XMLID_3718_" class="st3" d="M212.2,43.2c0,1.1,0.2,1.4,0.5,1.4c0.3,0.1,0.5,0.1,0.6,0.1s0.1,0,0.1,0.1
				s-0.1,0.1-0.3,0.1c-0.7,0-1.3,0-1.4,0c-0.1,0-0.6,0-1.3,0c-0.1,0-0.2,0-0.2-0.1s0-0.1,0.1-0.1s0.4,0,0.5-0.1
				c0.4-0.1,0.4-0.5,0.4-1.6v-7.3c0-0.5,0.1-0.6,0.2-0.6c0.2,0,0.4,0.3,0.5,0.4c0.2,0.2,2.2,2.3,4.2,4.3c1.3,1.4,2.7,2.9,3.1,3.3
				l-0.1-6.4c0-0.8-0.1-1.1-0.5-1.2c-0.3,0-0.5-0.1-0.6-0.1s-0.1-0.1-0.1-0.1c0-0.1,0.1-0.1,0.3-0.1c0.6,0,1.3,0,1.4,0
				c0.2,0,0.5,0,1.1,0c0.1,0,0.3,0,0.3,0.1c0,0-0.1,0.1-0.2,0.1c-0.1,0-0.2,0-0.3,0c-0.5,0.1-0.5,0.4-0.5,1.1v7.4
				c0,0.8,0,0.9-0.1,0.9s-0.3-0.1-1-0.8c-0.1-0.1-2.1-2-3.4-3.4c-1.5-1.6-3-3.2-3.4-3.6L212.2,43.2
				C212.1,43.2,212.2,43.2,212.2,43.2z"/>
			<path id="XMLID_3681_" class="st3" d="M227,41.3c0,1.3,0,2.3,0.1,2.7c0,0.4,0.1,0.6,0.5,0.6c0.2,0,0.5,0.1,0.6,0.1
				s0.1,0.1,0.1,0.1c0,0.1-0.1,0.1-0.2,0.1c-0.7,0-1.5,0-1.6,0s-1,0-1.4,0c-0.2,0-0.2,0-0.2-0.1c0,0,0-0.1,0.1-0.1s0.3,0,0.4-0.1
				c0.3-0.1,0.4-0.3,0.4-0.7c0.1-0.5,0.1-1.5,0.1-2.7v-5.3H224c-0.8,0-1.2,0.1-1.4,0.4c-0.2,0.2-0.2,0.3-0.2,0.4s-0.1,0.1-0.1,0.1
				s-0.1,0-0.1-0.1s0.3-1.3,0.3-1.4s0.1-0.3,0.1-0.3c0.1,0,0.2,0.1,0.5,0.2c0.4,0,0.9,0.1,1,0.1h5c0.5,0,0.7,0,0.9-0.1
				c0.2,0,0.3-0.1,0.4-0.1s0.1,0.1,0.1,0.2c0,0.4,0,1.3,0,1.4s-0.1,0.2-0.1,0.2s-0.1,0-0.1-0.2v-0.1c0-0.4-0.4-0.6-1.6-0.7h-1.6
				L227,41.3L227,41.3z"/>
			<path id="XMLID_3535_" class="st3" d="M233.3,39c0-2,0-2.4,0-2.7c0-0.5-0.1-0.6-0.5-0.7c-0.1,0-0.4,0-0.5,0l-0.1-0.1
				c0-0.1,0.1-0.1,0.2-0.1c0.6,0,1.4,0,1.5,0s1.3,0,1.6,0c0.8,0,1.8,0.1,2.4,0.5c0.4,0.3,0.9,0.8,0.9,1.7s-0.4,1.9-1.6,2.9
				c1.1,1.4,2,2.5,2.7,3.3c0.7,0.7,1.2,0.8,1.4,0.9c0.3,0,0.4,0,0.5,0s0.1,0.1,0.1,0.1c0,0.1-0.1,0.1-0.3,0.1h-0.7
				c-0.7,0-1.1-0.1-1.4-0.3c-0.5-0.3-1.1-0.9-1.8-1.9c-0.5-0.7-1.2-1.5-1.4-1.9c-0.1-0.1-0.1-0.1-0.2-0.1h-1.7c-0.1,0-0.1,0-0.1,0.1
				v0.3c0,1.3,0,2.2,0.1,2.7c0,0.4,0.1,0.6,0.5,0.6c0.2,0,0.5,0.1,0.5,0.1l0.1,0.1c0,0.1-0.1,0.1-0.2,0.1c-0.7,0-1.5,0-1.6,0
				c0,0-0.9,0-1.3,0c-0.1,0-0.2,0-0.2-0.1c0,0,0-0.1,0.1-0.1s0.3,0,0.4-0.1c0.3-0.1,0.3-0.3,0.4-0.6c0.1-0.5,0.1-1.5,0.1-2.7
				L233.3,39L233.3,39z M234.5,40.1c0,0.1,0,0.1,0.1,0.2c0.2,0.1,0.9,0.2,1.4,0.2c0.3,0,0.6,0,1-0.2c0.5-0.3,0.8-1,0.8-2
				c0-1.6-0.9-2.5-2.3-2.5c-0.4,0-0.8,0-0.9,0.1c-0.1,0-0.1,0.1-0.1,0.2V40.1L234.5,40.1z"/>
			<path id="XMLID_3533_" class="st3" d="M243.3,39c0-2,0-2.4,0-2.7c0-0.5-0.1-0.6-0.5-0.7c-0.1,0-0.4,0-0.5,0l-0.1-0.1
				c0-0.1,0.1-0.1,0.2-0.1c0.6,0,1.4,0,1.5,0s2.8,0,3.2,0c0.3,0,0.5-0.1,0.6-0.1s0.1-0.1,0.2-0.1l0.1,0.1c0,0.1-0.1,0.3-0.1,0.6
				c0,0.1,0,0.7-0.1,0.8c0,0.1-0.1,0.1-0.1,0.1c-0.1,0-0.1-0.1-0.1-0.2s0-0.3-0.1-0.5s-0.2-0.3-0.9-0.4c-0.2,0-1.7,0-1.9,0
				c-0.1,0-0.1,0-0.1,0.1v3.4c0,0.1,0,0.1,0.1,0.1c0.2,0,1.9,0,2.2,0s0.5,0,0.6-0.2c0.1-0.1,0.2-0.2,0.2-0.2s0.1,0,0.1,0.1
				s-0.1,0.3-0.1,0.7c0,0.3-0.1,0.7-0.1,0.8s0,0.3-0.1,0.3s-0.1,0-0.1-0.1s0-0.3-0.1-0.5c0-0.2-0.2-0.4-0.6-0.4
				c-0.4,0-1.8-0.1-2-0.1c-0.1,0-0.1,0-0.1,0.1v1.1c0,0.5,0,1.9,0,2.2c0,0.8,0.3,1,1.5,1c0.4,0,1,0,1.4-0.1c0.4-0.2,0.5-0.4,0.6-0.9
				c0-0.2,0.1-0.2,0.1-0.2c0.1,0,0.1,0.1,0.1,0.2s-0.1,1-0.2,1.3c-0.1,0.4-0.2,0.4-0.7,0.4c-1,0-1.7,0-2.3,0s-0.9,0-1.1,0
				c0,0-0.3,0-0.5,0s-0.5,0-0.7,0c-0.1,0-0.2,0-0.2-0.1c0,0,0-0.1,0.1-0.1s0.3,0,0.4-0.1c0.3,0,0.3-0.3,0.4-0.6
				c0.1-0.5,0.1-1.5,0.1-2.7v-2.4h-0.3L243.3,39L243.3,39z"/>
			<g id="XMLID_2134_">
				<path id="XMLID_2628_" class="st3" d="M54,38c0-2.4,0-2.7,0-3.3c0-0.5-0.2-0.7-0.6-0.8c-0.1,0-0.4,0-0.5,0s-0.1,0-0.1-0.1
					s0.1-0.1,0.3-0.1c0.6,0,1.6,0,1.7,0c0.4,0,0.9,0,1.6,0c2.4,0,3,1.5,3,2.3c0,1.3-0.7,2-1.4,2.7c1.1,0.4,2.6,1.4,2.6,3.2
					c0,1.6-1.3,3.3-3.8,3.3c-0.2,0-0.6,0-1.1,0s-0.8,0-0.9,0c0,0-0.3,0-0.6,0s-0.6,0-0.9,0c-0.2,0-0.3,0-0.3-0.1c0,0,0-0.1,0.1-0.1
					s0.3,0,0.5-0.1c0.3-0.1,0.4-0.4,0.5-0.8c0.1-0.6,0.1-1.8,0.1-3.3V38H54z M55.2,38.3c0,0.1,0,0.1,0.1,0.2c0.1,0,0.4,0.1,0.9,0.1
					c0.8,0,1.1,0,1.4-0.4c0.3-0.4,0.5-0.9,0.5-1.5c0-1.3-0.5-2.5-2-2.5c-0.2,0-0.5,0-0.7,0.1c-0.1,0-0.2,0.1-0.2,0.2V38.3L55.2,38.3
					z M55.2,39.9c0,1.2,0,3,0,3.3c0,0.7,0,0.9,0.5,1.2c0.4,0.2,1.1,0.2,1.4,0.2c0.8,0,2.1-0.5,2.1-2.2c0-0.9-0.3-2.2-1.4-3
					c-0.5-0.4-0.9-0.4-1.3-0.5c-0.2,0-0.9,0-1.2,0c-0.1,0-0.1,0-0.1,0.1V39.9z"/>
				<path id="XMLID_2606_" class="st3" d="M64.4,40.6c0,1.4,0,2.6,0.1,3.3c0,0.5,0.1,0.7,0.5,0.8c0.2,0,0.5,0.1,0.6,0.1
					s0.1,0,0.1,0.1S65.6,45,65.4,45c-0.8,0-1.8,0-1.8,0c-0.1,0-1,0-1.4,0c-0.2,0-0.3,0-0.3-0.1c0,0,0-0.1,0.1-0.1s0.3,0,0.5-0.1
					c0.3-0.1,0.4-0.4,0.5-0.8c0.1-0.6,0.1-1.8,0.1-3.3V38c0-2.4,0-2.7,0-3.3c0-0.5-0.2-0.7-0.5-0.8c-0.2,0-0.4-0.1-0.5-0.1
					s-0.1,0-0.1-0.1s0.1-0.1,0.3-0.1c0.5,0,1.4,0,1.5,0s1,0,1.4,0c0.2,0,0.3,0,0.3,0.1s-0.1,0.1-0.1,0.1c-0.1,0-0.2,0-0.4,0
					c-0.4,0.1-0.5,0.4-0.5,0.8s0,0.9,0,3.3L64.4,40.6L64.4,40.6z"/>
				<path id="XMLID_2499_" class="st3" d="M68.8,38c0-2.4,0-2.7,0-3.3c0-0.5-0.2-0.7-0.6-0.8c-0.1,0-0.4,0-0.5,0s-0.1,0-0.1-0.1
					s0.1-0.1,0.3-0.1c0.6,0,1.6,0,1.7,0c0.4,0,0.9,0,1.6,0c2.4,0,3,1.5,3,2.3c0,1.3-0.7,2-1.4,2.7c1.1,0.4,2.6,1.4,2.6,3.2
					c0,1.6-1.3,3.3-3.8,3.3c-0.2,0-0.6,0-1.1,0s-0.8,0-0.9,0c0,0-0.3,0-0.6,0s-0.6,0-0.9,0c-0.2,0-0.3,0-0.3-0.1c0,0,0-0.1,0.1-0.1
					s0.3,0,0.5-0.1c0.3-0.1,0.4-0.4,0.5-0.8c0.1-0.6,0.1-1.8,0.1-3.3V38H68.8z M70.1,38.3c0,0.1,0,0.1,0.1,0.2
					c0.1,0,0.4,0.1,0.9,0.1c0.8,0,1.1,0,1.4-0.4s0.5-0.9,0.5-1.5c0-1.3-0.5-2.5-2-2.5c-0.2,0-0.5,0-0.7,0.1c-0.1,0-0.2,0.1-0.2,0.2
					L70.1,38.3L70.1,38.3z M70.1,39.9c0,1.2,0,3,0,3.3c0,0.7,0,0.9,0.5,1.2c0.4,0.2,1.1,0.2,1.4,0.2c0.8,0,2.1-0.5,2.1-2.2
					c0-0.9-0.3-2.2-1.4-3c-0.5-0.4-0.9-0.4-1.3-0.5c-0.2,0-0.9,0-1.2,0c-0.1,0-0.1,0-0.1,0.1V39.9z"/>
				<path id="XMLID_2332_" class="st3" d="M92.6,40.6c0,1.4,0,2.6,0.1,3.3c0,0.5,0.1,0.7,0.5,0.8c0.2,0,0.5,0.1,0.6,0.1
					s0.1,0,0.1,0.1S93.8,45,93.6,45c-0.8,0-1.8,0-1.8,0c-0.1,0-1,0-1.4,0c-0.2,0-0.3,0-0.3-0.1c0,0,0-0.1,0.1-0.1s0.3,0,0.5-0.1
					c0.3-0.1,0.4-0.4,0.5-0.8c0.1-0.6,0.1-1.8,0.1-3.3v-1.5c0-0.1,0-0.1-0.1-0.1h-6.3c0,0-0.1,0-0.1,0.1v1.5c0,1.4,0,2.6,0.1,3.3
					c0,0.5,0.1,0.7,0.5,0.8c0.2,0,0.5,0.1,0.6,0.1s0.1,0,0.1,0.1S86,45,85.8,45C85,45,84,45,84,45c-0.1,0-1,0-1.4,0
					c-0.2,0-0.3,0-0.3-0.1c0,0,0-0.1,0.1-0.1s0.3,0,0.5-0.1c0.3-0.1,0.4-0.4,0.5-0.8c0.1-0.6,0.1-1.8,0.1-3.3V38c0-2.4,0-2.7,0-3.3
					c0-0.5-0.2-0.7-0.6-0.8c-0.1,0-0.4,0-0.5,0s-0.1,0-0.1-0.1s0.1-0.1,0.3-0.1c0.6,0,1.6,0,1.7,0s1,0,1.4,0c0.2,0,0.3,0,0.3,0.1
					s-0.1,0.1-0.1,0.1c-0.1,0-0.2,0-0.4,0C85.1,34,85,34.3,85,34.7c0,0.5,0,0.9,0,3.3v0.3c0,0.1,0,0.1,0.1,0.1h6.3
					c0,0,0.1,0,0.1-0.1V38c0-2.4,0-2.7,0-3.3c0-0.5-0.2-0.7-0.6-0.8c-0.1,0-0.4,0-0.5,0s-0.1,0-0.1-0.1s0.1-0.1,0.3-0.1
					c0.6,0,1.6,0,1.7,0s1,0,1.4,0c0.2,0,0.3,0,0.3,0.1s-0.1,0.1-0.1,0.1c-0.1,0-0.2,0-0.4,0C93.1,34,93,34.3,93,34.7
					c0,0.5,0,0.9,0,3.3v2.6H92.6z"/>
				<path id="XMLID_2316_" class="st3" d="M96.7,39c0-2,0-2.4,0-2.7c0-0.5-0.1-0.6-0.5-0.7c-0.1,0-0.4,0-0.5,0l-0.1-0.1
					c0-0.1,0.1-0.1,0.2-0.1c0.6,0,1.4,0,1.5,0s2.8,0,3.2,0c0.3,0,0.5-0.1,0.6-0.1s0.1-0.1,0.2-0.1l0.1,0.1c0,0.1-0.1,0.3-0.1,0.6
					c0,0.1,0,0.7-0.1,0.8c0,0.1-0.1,0.1-0.1,0.1c-0.1,0-0.1-0.1-0.1-0.2s0-0.3-0.1-0.5s-0.2-0.3-0.9-0.4c-0.2,0-1.7,0-1.9,0
					c-0.1,0-0.1,0-0.1,0.1v3.4c0,0.1,0,0.1,0.1,0.1c0.2,0,1.9,0,2.2,0s0.5,0,0.6-0.2c0.1-0.1,0.2-0.2,0.2-0.2s0.1,0,0.1,0.1
					s-0.1,0.3-0.1,0.7c0,0.3-0.1,0.7-0.1,0.8s0,0.3-0.1,0.3s-0.1,0-0.1-0.1s0-0.3-0.1-0.5c0-0.2-0.2-0.4-0.6-0.4s-1.8-0.1-2-0.1
					c-0.1,0-0.1,0-0.1,0.1v1.1c0,0.5,0,1.9,0,2.2c0,0.8,0.3,1,1.5,1c0.4,0,1,0,1.4-0.1c0.4-0.2,0.5-0.4,0.6-0.9
					c0-0.2,0.1-0.2,0.1-0.2c0.1,0,0.1,0.1,0.1,0.2s-0.1,1-0.2,1.3c-0.1,0.4-0.2,0.4-0.7,0.4c-1,0-1.7,0-2.3,0s-0.9,0-1.1,0
					c0,0-0.3,0-0.5,0c-0.3,0-0.5,0-0.7,0c-0.1,0-0.2,0-0.2-0.1c0,0,0-0.1,0.1-0.1s0.3,0,0.4-0.1c0.3,0,0.3-0.3,0.4-0.6
					c0.1-0.5,0.1-1.5,0.1-2.7v-2.4h-0.3V39z"/>
				<path id="XMLID_2312_" class="st3" d="M106.9,35.6c0.2-0.5,0.2-0.5,0.3-0.5s0.2,0.2,0.3,0.5c0.3,0.5,2.4,5.8,3.2,7.7
					c0.5,1.2,0.8,1.3,1.1,1.4c0.2,0.1,0.4,0.1,0.5,0.1s0.2,0,0.2,0.1s-0.2,0.1-0.3,0.1c-0.2,0-1.2,0-2.1,0c-0.3,0-0.5,0-0.5-0.1
					s0-0.1,0.1-0.1s0.2-0.1,0.1-0.4l-1.2-2.9c0-0.1,0-0.1-0.1-0.1h-3.1c-0.1,0-0.1,0-0.1,0.1l-0.7,2.1c-0.1,0.3-0.2,0.6-0.2,0.8
					c0,0.3,0.2,0.4,0.5,0.4h0.1c0.1,0,0.1,0,0.1,0.1S105,45,104.9,45c-0.3,0-1,0-1.2,0c-0.1,0-0.8,0-1.4,0c-0.2,0-0.3,0-0.3-0.1
					s0.1-0.1,0.1-0.1c0.1,0,0.3,0,0.4,0c0.6-0.1,0.8-0.5,1.1-1.2L106.9,35.6z M108.5,40.9L108.5,40.9l-1.3-3.6
					c-0.1-0.2-0.2-0.2-0.2,0l-1.3,3.5c0,0.1,0,0.1,0,0.1H108.5z"/>
				<path id="XMLID_2310_" class="st3" d="M115.5,41.3c0,1.9,0,2.6,0.3,2.9c0.2,0.2,0.7,0.3,1.7,0.3c0.7,0,1.3,0,1.6-0.4
					c0.2-0.2,0.3-0.5,0.3-0.7c0-0.1,0.1-0.2,0.1-0.2c0.1,0,0.1,0.1,0.1,0.2s-0.1,0.9-0.2,1.3c-0.1,0.3-0.1,0.4-0.8,0.4
					c-0.9,0-1.7,0-2.3,0s-1.1,0-1.4,0c-0.1,0-0.3,0-0.5,0s-0.5,0-0.7,0c-0.1,0-0.2,0-0.2-0.1c0,0,0-0.1,0.1-0.1s0.3,0,0.4-0.1
					c0.3-0.1,0.3-0.3,0.4-0.6c0.1-0.5,0.1-1.5,0.1-2.7v-2.3c0-2,0-2.4,0-2.7c0-0.5-0.1-0.6-0.5-0.7c-0.1,0-0.4,0-0.5,0l-0.1-0.1
					c0-0.1,0.1-0.1,0.2-0.1c0.6,0,1.4,0,1.5,0s1.1,0,1.4,0c0.1,0,0.2,0,0.2,0.1l-0.1,0.1c-0.1,0-0.3,0-0.5,0
					c-0.4,0.1-0.5,0.3-0.5,0.7s0,0.7,0,2.7L115.5,41.3L115.5,41.3z"/>
				<path id="XMLID_2298_" class="st3" d="M123.9,41.3c0,1.3,0,2.3,0.1,2.7c0,0.4,0.1,0.6,0.5,0.6c0.2,0,0.5,0.1,0.6,0.1
					s0.1,0.1,0.1,0.1c0,0.1-0.1,0.1-0.2,0.1c-0.7,0-1.5,0-1.6,0s-1,0-1.4,0c-0.2,0-0.2,0-0.2-0.1c0,0,0-0.1,0.1-0.1s0.3,0,0.4-0.1
					c0.3-0.1,0.4-0.3,0.4-0.7c0.1-0.5,0.1-1.5,0.1-2.7v-5.3h-1.9c-0.8,0-1.2,0.1-1.4,0.4c-0.2,0.2-0.2,0.3-0.2,0.4s-0.1,0.1-0.1,0.1
					s-0.1,0-0.1-0.1s0.3-1.3,0.3-1.4s0.1-0.3,0.1-0.3c0.1,0,0.2,0.1,0.5,0.2c0.4,0,0.9,0.1,1,0.1h5c0.5,0,0.7,0,0.9-0.1
					c0.2,0,0.3-0.1,0.4-0.1s0.1,0.1,0.1,0.2c0,0.4,0,1.3,0,1.4s-0.1,0.2-0.1,0.2s-0.1,0-0.1-0.2v-0.1c0-0.4-0.4-0.6-1.6-0.7H124
					L123.9,41.3L123.9,41.3z"/>
				<path id="XMLID_2268_" class="st3" d="M137.3,41.3c0,1.3,0,2.3,0.1,2.7c0,0.4,0.1,0.6,0.5,0.6c0.2,0,0.5,0.1,0.5,0.1l0.1,0.1
					c0,0.1-0.1,0.1-0.2,0.1c-0.7,0-1.5,0-1.6,0s-0.9,0-1.3,0c-0.2,0-0.2,0-0.2-0.1c0,0,0-0.1,0.1-0.1s0.3,0,0.4-0.1
					c0.3-0.1,0.3-0.3,0.4-0.7c0.1-0.5,0.1-1.4,0.1-2.7v-1.3c0-0.1,0-0.1-0.1-0.1h-5.5c0,0-0.1,0-0.1,0.1v1.3c0,1.3,0,2.2,0.1,2.7
					c0,0.4,0.1,0.6,0.5,0.6c0.2,0,0.5,0.1,0.6,0.1s0.1,0.1,0.1,0.1c0,0.1-0.1,0.1-0.2,0.1c-0.7,0-1.5,0-1.6,0s-0.9,0-1.4,0
					c-0.1,0-0.2,0-0.2-0.1c0,0,0-0.1,0.1-0.1s0.3,0,0.4-0.1c0.3-0.1,0.3-0.3,0.4-0.6c0.1-0.5,0.1-1.5,0.1-2.7v-2.3c0-2,0-2.4,0-2.7
					c0-0.5-0.1-0.6-0.5-0.7c-0.1,0-0.4,0-0.5,0l-0.1-0.1c0-0.1,0.1-0.1,0.2-0.1c0.6,0,1.4,0,1.5,0s0.9,0,1.3,0c0.2,0,0.2,0,0.2,0.1
					l-0.1,0.1c-0.1,0-0.2,0-0.4,0c-0.4,0.1-0.5,0.3-0.5,0.7s0,0.8,0,2.8v0.3c0,0.1,0,0.1,0.1,0.1h5.5c0,0,0.1,0,0.1-0.1V39
					c0-2,0-2.4,0-2.8c0-0.5-0.1-0.6-0.5-0.7c-0.1,0-0.4,0-0.5,0s-0.1-0.1-0.1-0.1c0-0.1,0.1-0.1,0.2-0.1c0.5,0,1.4,0,1.5,0
					s0.9,0,1.3,0c0.2,0,0.2,0,0.2,0.1l-0.1,0.1c-0.1,0-0.2,0-0.4,0c-0.4,0.1-0.5,0.3-0.5,0.7s0,0.7,0,2.7L137.3,41.3L137.3,41.3z"/>
				<path id="XMLID_2266_" class="st3" d="M147.3,43.5c-1.4-1.3-1.8-3-1.8-4.4c0-1,0.4-2.7,1.7-4.1c0.9-0.9,2.3-1.6,4.5-1.6
					c0.6,0,1.4,0,2.2,0.2c0.5,0.1,1.1,0.2,1.5,0.2c0.2,0,0.2,0.1,0.2,0.2s0,0.3-0.1,0.8c0,0.5,0,1.4,0,1.5c0,0.2,0,0.3-0.1,0.3
					s-0.1-0.1-0.1-0.3c0-0.5-0.3-1.2-0.6-1.5c-0.5-0.5-1.7-0.8-3-0.8c-2,0-2.9,0.5-3.4,1.1c-1.1,1.1-1.4,2.4-1.4,3.9
					c0,2.9,2.2,5.5,5.4,5.5c1.1,0,2-0.1,2.6-0.7c0.3-0.4,0.5-1,0.5-1.3c0-0.2,0.1-0.2,0.2-0.2s0.1,0.1,0.1,0.2s-0.2,1.4-0.4,1.9
					c-0.1,0.3-0.1,0.3-0.4,0.5c-0.6,0.3-1.7,0.4-2.7,0.4C150,45.1,148.4,44.6,147.3,43.5z"/>
				<path id="XMLID_2164_" class="st3" d="M160.9,35.6c0.2-0.5,0.2-0.5,0.3-0.5s0.2,0.2,0.3,0.5c0.3,0.5,2.4,5.8,3.2,7.7
					c0.5,1.2,0.8,1.3,1.1,1.4c0.2,0.1,0.4,0.1,0.5,0.1s0.2,0,0.2,0.1s-0.2,0.1-0.3,0.1c-0.2,0-1.2,0-2.1,0c-0.3,0-0.5,0-0.5-0.1
					s0-0.1,0.1-0.1s0.2-0.1,0.1-0.4l-1.2-2.9c0-0.1,0-0.1-0.1-0.1h-3.1c-0.1,0-0.1,0-0.1,0.1l-0.7,2.1c-0.1,0.3-0.2,0.6-0.2,0.8
					c0,0.3,0.2,0.4,0.5,0.4h0.1c0.1,0,0.1,0,0.1,0.1S159,45,158.9,45c-0.3,0-1,0-1.2,0c-0.1,0-0.8,0-1.4,0c-0.2,0-0.3,0-0.3-0.1
					s0.1-0.1,0.1-0.1c0.1,0,0.3,0,0.4,0c0.6-0.1,0.8-0.5,1.1-1.2L160.9,35.6z M162.4,40.9L162.4,40.9l-1.3-3.6
					c-0.1-0.2-0.2-0.2-0.2,0l-1.3,3.5c0,0.1,0,0.1,0,0.1H162.4z"/>
				<path id="XMLID_2160_" class="st3" d="M168.3,39c0-2,0-2.4,0-2.7c0-0.5-0.1-0.6-0.5-0.7c-0.1,0-0.4,0-0.5,0l-0.1-0.1
					c0-0.1,0.1-0.1,0.2-0.1c0.6,0,1.4,0,1.5,0s1.3,0,1.6,0c0.8,0,1.8,0.1,2.4,0.5c0.4,0.3,0.9,0.8,0.9,1.7s-0.4,1.9-1.6,2.9
					c1.1,1.4,2,2.5,2.7,3.3c0.7,0.7,1.2,0.8,1.4,0.9c0.3,0,0.4,0,0.5,0s0.1,0.1,0.1,0.1c0,0.1-0.1,0.1-0.3,0.1h-0.8
					c-0.7,0-1.1-0.1-1.4-0.3c-0.5-0.3-1.1-0.9-1.8-1.9c-0.5-0.7-1.2-1.5-1.4-1.9c-0.1-0.1-0.1-0.1-0.2-0.1h-1.7
					c-0.1,0-0.1,0-0.1,0.1v0.3c0,1.3,0,2.2,0.1,2.7c0,0.4,0.1,0.6,0.5,0.6c0.2,0,0.5,0.1,0.5,0.1l0.1,0.1c0,0.1-0.1,0.1-0.2,0.1
					c-0.7,0-1.5,0-1.6,0c0,0-0.9,0-1.3,0c-0.1,0-0.2,0-0.2-0.1c0,0,0-0.1,0.1-0.1s0.3,0,0.4-0.1c0.3-0.1,0.3-0.3,0.4-0.6
					c0.1-0.5,0.1-1.5,0.1-2.7V39H168.3L168.3,39z M169.3,40.1c0,0.1,0,0.1,0.1,0.2c0.2,0.1,0.9,0.2,1.4,0.2c0.3,0,0.6,0,1-0.2
					c0.5-0.3,0.8-1,0.8-2c0-1.6-0.9-2.5-2.3-2.5c-0.4,0-0.8,0-0.9,0.1c-0.1,0-0.1,0.1-0.1,0.2V40.1L169.3,40.1z"/>
				<path id="XMLID_2157_" class="st3" d="M178.3,39c0-2,0-2.4,0-2.7c0-0.5-0.1-0.6-0.5-0.7c-0.1,0-0.4,0-0.5,0l-0.1-0.1
					c0-0.1,0.1-0.1,0.2-0.1c0.6,0,1.4,0,1.5,0s2.8,0,3.2,0c0.3,0,0.5-0.1,0.6-0.1s0.1-0.1,0.2-0.1l0.1,0.1c0,0.1-0.1,0.3-0.1,0.6
					c0,0.1,0,0.7-0.1,0.8c0,0.1-0.1,0.1-0.1,0.1c-0.1,0-0.1-0.1-0.1-0.2s0-0.3-0.1-0.5s-0.2-0.3-0.9-0.4c-0.2,0-1.7,0-1.9,0
					c-0.1,0-0.1,0-0.1,0.1v3.4c0,0.1,0,0.1,0.1,0.1c0.2,0,1.9,0,2.2,0s0.5,0,0.6-0.2c0.1-0.1,0.2-0.2,0.2-0.2s0.1,0,0.1,0.1
					s-0.1,0.3-0.1,0.7c0,0.3-0.1,0.7-0.1,0.8s0,0.3-0.1,0.3s-0.1,0-0.1-0.1s0-0.3-0.1-0.5c0-0.2-0.2-0.4-0.6-0.4s-1.8-0.1-2-0.1
					c-0.1,0-0.1,0-0.1,0.1v1.1c0,0.5,0,1.9,0,2.2c0,0.8,0.3,1,1.5,1c0.4,0,1,0,1.4-0.1c0.4-0.2,0.5-0.4,0.6-0.9
					c0-0.2,0.1-0.2,0.1-0.2c0.1,0,0.1,0.1,0.1,0.2s-0.1,1-0.2,1.3c-0.1,0.4-0.2,0.4-0.7,0.4c-1,0-1.7,0-2.3,0c-0.5,0-0.9,0-1.1,0
					c0,0-0.3,0-0.5,0c-0.3,0-0.5,0-0.7,0c-0.1,0-0.2,0-0.2-0.1c0,0,0-0.1,0.1-0.1s0.3,0,0.4-0.1c0.3,0,0.3-0.3,0.4-0.6
					c0.1-0.5,0.1-1.5,0.1-2.7v-2.4h-0.3L178.3,39L178.3,39z"/>
			</g>
		</g>
	</g>
</g>
</svg>
