<?xml version="1.0" encoding="utf-8"?>
<!-- Generator: Adobe Illustrator 21.0.2, SVG Export Plug-In . SVG Version: 6.00 Build 0)  -->
<svg version="1.1" id="圖層_1" xmlns="http://www.w3.org/2000/svg" xmlns:xlink="http://www.w3.org/1999/xlink" x="0px" y="0px"
	 viewBox="0 0 16 20" style="enable-background:new 0 0 16 20;" xml:space="preserve">
<style type="text/css">
	.st0{fill:#BD9145;}
</style>
<path class="st0" d="M8,0C3.6,0,0,3.5,0,7.7C0,8.4,0.2,9.3,0.6,10C1.1,11.5,2,12.8,3,14l5,6l5-6c1-1.2,1.9-2.5,2.4-4
	C15.8,9.3,16,8.4,16,7.7C16,3.5,12.4,0,8,0z M8,10.5c-1.5,0-2.7-1.2-2.7-2.6c0-1.5,1.2-2.6,2.7-2.6s2.7,1.2,2.7,2.6
	C10.7,9.3,9.5,10.5,8,10.5z"/>
</svg>
