<?xml version="1.0" encoding="utf-8"?>
<!-- Generator: Adobe Illustrator 21.0.2, SVG Export Plug-In . SVG Version: 6.00 Build 0)  -->
<svg version="1.1" id="圖層_1" xmlns="http://www.w3.org/2000/svg" xmlns:xlink="http://www.w3.org/1999/xlink" x="0px" y="0px"
	 viewBox="0 0 16 16" style="enable-background:new 0 0 16 16;" xml:space="preserve">
<style type="text/css">
	.st0{fill:#BD9145;}
</style>
<path class="st0" d="M15.6,12.7l-2.5-2.5c-0.5-0.5-1.3-0.5-1.8,0l-1.2,1.2c-0.1,0-0.2-0.1-0.2-0.1c-0.8-0.4-1.9-1-3-2.2
	C5.7,8,5.1,6.9,4.7,6.1c0-0.1-0.1-0.2-0.1-0.2l0.8-0.8l0.4-0.4c0.5-0.5,0.5-1.3,0-1.8L3.4,0.4c-0.5-0.5-1.3-0.5-1.8,0L0.9,1.1l0,0
	c-0.2,0.3-0.4,0.6-0.6,1c-0.1,0.4-0.2,0.7-0.3,1C-0.3,5.9,1,8.3,4.3,11.7C9,16.4,12.7,16,12.8,16c0.4,0,0.7-0.1,1-0.3
	c0.4-0.1,0.7-0.3,1-0.6l0,0l0.7-0.7C16.1,14,16.1,13.1,15.6,12.7z"/>
</svg>
