<?xml version="1.0" encoding="utf-8"?>
<!-- Generator: Adobe Illustrator 21.0.2, SVG Export Plug-In . SVG Version: 6.00 Build 0)  -->
<svg version="1.1" id="圖層_1" xmlns="http://www.w3.org/2000/svg" xmlns:xlink="http://www.w3.org/1999/xlink" x="0px" y="0px"
	 viewBox="0 0 16 17" style="enable-background:new 0 0 16 17;" xml:space="preserve">
<style type="text/css">
	.st0{fill:#BD9145;}
</style>
<path class="st0" d="M8,0.5c-4.4,0-8,3.6-8,8s3.6,8,8,8c4.4,0,8-3.6,8-8S12.4,0.5,8,0.5z M11.3,12.2L11.3,12.2
	c-0.4,0.4-0.9,0.4-1.2,0.1L7.4,9.6C7.2,9.4,7.1,9.2,7.1,9c0,0,0,0,0,0V3.9C7.1,3.4,7.5,3,8,3H8c0.5,0,0.8,0.4,0.8,0.8v4.7l2.4,2.4
	C11.6,11.4,11.6,11.9,11.3,12.2z"/>
</svg>
