<?xml version="1.0" encoding="utf-8"?>
<!-- Generator: Adobe Illustrator 21.0.2, SVG Export Plug-In . SVG Version: 6.00 Build 0)  -->
<svg version="1.1" id="圖層_1" xmlns="http://www.w3.org/2000/svg" xmlns:xlink="http://www.w3.org/1999/xlink" x="0px" y="0px"
	 viewBox="0 0 17 13" style="enable-background:new 0 0 17 13;" xml:space="preserve">
<style type="text/css">
	.st0{fill:#BD9145;}
</style>
<path class="st0" d="M15.9,0.3c-0.3-0.2-0.6-0.3-1-0.3H2.1c-0.4,0-0.7,0.1-1,0.3l7.4,6.6L15.9,0.3z M0.3,1C0.1,1.3,0,1.7,0,2.2v8.7
	c0,0.4,0.1,0.7,0.3,1l5.4-6.1L0.3,1z M16.7,1l-5.3,4.7l5.4,6.1c0.2-0.3,0.3-0.7,0.3-1V2.2C17,1.7,16.9,1.4,16.7,1z M8.8,8
	C8.7,8.1,8.6,8.1,8.5,8.1c-0.1,0-0.2,0-0.3-0.1L6.4,6.5L1,12.7C1.3,12.9,1.7,13,2.1,13h12.8c0.4,0,0.8-0.1,1.1-0.3l-5.4-6.2L8.8,8z"
	/>
</svg>
