<?xml version="1.0" encoding="utf-8"?>
<!-- Generator: Adobe Illustrator 22.1.0, SVG Export Plug-In . SVG Version: 6.00 Build 0)  -->
<svg version="1.1" id="Layer_1" xmlns="http://www.w3.org/2000/svg" xmlns:xlink="http://www.w3.org/1999/xlink" x="0px" y="0px"
	 viewBox="0 0 32 32" enable-background="new 0 0 32 32" xml:space="preserve">
<path fill="#01BAFF" d="M16,1.5C8.2,1.5,1.8,7.8,1.8,15.6c0,3.8,1.5,7.3,4,9.9l-1.5,5.1l4.6-2.7c2.1,1.2,4.5,1.9,7.1,1.9
	c7.8,0,14.2-6.3,14.2-14.2S23.8,1.5,16,1.5z M17,23.7c-0.3,0.3-0.7,0.5-1.2,0.5c-0.5,0-0.9-0.1-1.2-0.4c-0.3-0.3-0.5-0.7-0.5-1.2
	c0-0.5,0.2-0.9,0.5-1.2c0.3-0.3,0.7-0.5,1.2-0.5c0.5,0,0.9,0.2,1.2,0.5c0.3,0.3,0.5,0.7,0.5,1.2C17.5,23,17.4,23.4,17,23.7z
	 M21.3,13.3c-0.3,0.5-0.6,0.9-0.9,1.2c-0.4,0.4-1,0.9-1.9,1.8c-0.3,0.2-0.5,0.4-0.6,0.6c-0.2,0.2-0.3,0.3-0.3,0.5
	c-0.1,0.1-0.1,0.3-0.2,0.4c0,0.1-0.1,0.4-0.2,0.8c-0.1,0.8-0.6,1.2-1.3,1.2c-0.4,0-0.7-0.1-1-0.4c-0.3-0.3-0.4-0.6-0.4-1.1
	c0-0.6,0.1-1.2,0.3-1.6c0.2-0.5,0.5-0.9,0.8-1.2c0.3-0.4,0.8-0.8,1.3-1.2c0.5-0.4,0.8-0.7,1-1s0.4-0.5,0.5-0.7
	c0.1-0.3,0.2-0.6,0.2-0.9c0-0.6-0.2-1.1-0.7-1.5c-0.4-0.4-1-0.6-1.7-0.6c-0.8,0-1.4,0.2-1.8,0.6c-0.4,0.4-0.7,1-1,1.8
	c-0.3,0.9-0.7,1.3-1.5,1.3c-0.4,0-0.8-0.1-1.1-0.4c-0.3-0.3-0.4-0.6-0.4-1c0-0.7,0.2-1.4,0.7-2.2c0.5-0.7,1.1-1.3,2-1.8
	c0.9-0.5,1.9-0.7,3.1-0.7c1.1,0,2.1,0.2,2.9,0.6c0.8,0.4,1.5,1,1.9,1.6c0.5,0.7,0.7,1.4,0.7,2.3C21.7,12.2,21.5,12.8,21.3,13.3z"/>
</svg>
