<?xml version="1.0" encoding="utf-8"?>
<!-- Generator: Adobe Illustrator 21.0.2, SVG Export Plug-In . SVG Version: 6.00 Build 0)  -->
<svg version="1.1" id="圖層_1" xmlns="http://www.w3.org/2000/svg" xmlns:xlink="http://www.w3.org/1999/xlink" x="0px" y="0px"
	 viewBox="0 0 36 36" style="enable-background:new 0 0 36 36;" xml:space="preserve">
<style type="text/css">
	.st0{fill:#FFFFFF;}
</style>
<path class="st0" d="M24.2,0H11.8C5.3,0,0,5.3,0,11.8v12.4C0,30.7,5.3,36,11.8,36h2.8c0.6,0,1-0.4,1-1V22.7c0-0.6-0.4-1-1-1h-3.3
	v-3.8h3.3c0.6,0,1-0.4,1-1v-3.2c0-3.7,2.2-6,5.8-6l3.2,0v3.5l-2,0c-2.7,0-3,1.6-3,3v2.7c0,0.6,0.4,1,1,1h3.9l0,3.8h-3.9
	c-0.6,0-1,0.4-1,1V35c0,0.6,0.4,1,1,1h3.6C30.7,36,36,30.7,36,24.2V11.8C36,5.3,30.7,0,24.2,0z M34,24.2c0,5.4-4.4,9.8-9.8,9.8h-2.6
	V23.7h3.3c0.9,0,1.6-0.7,1.6-1.6l0-4.7c0-0.4-0.2-0.8-0.5-1.1c-0.3-0.3-0.7-0.5-1.1-0.5h-3.3v-1.7c0-0.9,0-1,1-1l2.5,0
	c0.9,0,1.6-0.7,1.6-1.6V7.3c0-0.9-0.7-1.6-1.6-1.6l-3.7,0c-4.7,0-7.8,3.2-7.8,8v2.2h-2.7c-0.9,0-1.6,0.7-1.6,1.6v4.7
	c0,0.9,0.7,1.6,1.6,1.6h2.7V34h-1.8C6.4,34,2,29.6,2,24.2V11.8C2,6.4,6.4,2,11.8,2h12.4c5.4,0,9.8,4.4,9.8,9.8V24.2z"/>
</svg>
