<?xml version="1.0" encoding="utf-8"?>
<!-- Generator: Adobe Illustrator 21.1.0, SVG Export Plug-In . SVG Version: 6.00 Build 0)  -->
<svg version="1.1" id="Layer_1" xmlns="http://www.w3.org/2000/svg" xmlns:xlink="http://www.w3.org/1999/xlink" x="0px" y="0px"
	 viewBox="0 0 50 50" enable-background="new 0 0 50 50" xml:space="preserve">
<g>
	<g>
		<path fill="#FFFFFF" d="M24.4,12.2c0.2-0.1,0.6-0.1,0.8,0l13.3,8.2c0.2,0.1,0.2,0.2-0.1,0.2H11.6c-0.3,0-0.3-0.1-0.1-0.3
			L24.4,12.2z"/>
	</g>
	<g>
		<path fill="#FFFFFF" d="M13.2,22.6c0-0.3,0.2-0.5,0.5-0.5h22.7c0.3,0,0.5,0.2,0.5,0.5V24c0,0.3-0.2,0.5-0.5,0.5H13.6
			c-0.3,0-0.5-0.2-0.5-0.5V22.6z"/>
	</g>
	<g>
		<path fill="#FFFFFF" d="M13.2,33.1c0-0.3,0.2-0.5,0.5-0.5h22.7c0.3,0,0.5,0.2,0.5,0.5v1.4c0,0.3-0.2,0.5-0.5,0.5H13.6
			c-0.3,0-0.5-0.2-0.5-0.5V33.1z"/>
	</g>
	<g>
		<path fill="#FFFFFF" d="M10.8,36.1c0-0.3,0.2-0.5,0.5-0.5h27.6c0.3,0,0.5,0.2,0.5,0.5v1.4c0,0.3-0.2,0.5-0.5,0.5H11.2
			c-0.3,0-0.5-0.2-0.5-0.5V36.1z"/>
	</g>
	<g>
		<path fill="#FFFFFF" d="M18.3,31.5c0,0.3-0.2,0.5-0.5,0.5h-3.1c-0.3,0-0.5-0.2-0.5-0.5v-5.7c0-0.3,0.2-0.5,0.5-0.5h3.1
			c0.3,0,0.5,0.2,0.5,0.5V31.5z"/>
	</g>
	<g>
		<path fill="#FFFFFF" d="M27.2,31.5c0,0.3-0.2,0.5-0.5,0.5h-3.1c-0.3,0-0.5-0.2-0.5-0.5v-5.7c0-0.3,0.2-0.5,0.5-0.5h3.1
			c0.3,0,0.5,0.2,0.5,0.5V31.5z"/>
	</g>
	<g>
		<path fill="#FFFFFF" d="M35.8,31.5c0,0.3-0.2,0.5-0.5,0.5h-3.1c-0.3,0-0.5-0.2-0.5-0.5v-5.7c0-0.3,0.2-0.5,0.5-0.5h3.1
			c0.3,0,0.5,0.2,0.5,0.5V31.5z"/>
	</g>
</g>
</svg>
