<?xml version="1.0" encoding="utf-8"?>
<!-- Generator: Adobe Illustrator 21.1.0, SVG Export Plug-In . SVG Version: 6.00 Build 0)  -->
<svg version="1.1" id="Layer_1" xmlns="http://www.w3.org/2000/svg" xmlns:xlink="http://www.w3.org/1999/xlink" x="0px" y="0px"
	 viewBox="0 0 26 26" enable-background="new 0 0 26 26" xml:space="preserve">
<path fill="#FFFFFF" d="M23.2,13.3v2.7c0,1-0.8,1.9-1.9,1.9h-0.6c-0.3,2.3-2.2,4.1-4.6,4.1h-1.4c-0.2,0.5-0.7,0.8-1.2,0.8h-1.3
	c-0.7,0-1.4-0.6-1.4-1.4c0-0.7,0.6-1.4,1.4-1.4h1.3c0.6,0,1,0.4,1.2,0.8h1.4c2,0,3.6-1.6,3.6-3.6v-1.5v-4V11c0-3.8-3.1-6.8-6.8-6.8
	S6.1,7.3,6.1,11v0.8v4v1.5c0,0.3-0.2,0.5-0.5,0.5h-1c-1,0-1.9-0.8-1.9-1.9v-2.7c0-1,0.8-1.9,1.9-1.9h0.5V11c0-4.3,3.5-7.8,7.8-7.8
	s7.8,3.5,7.8,7.8v0.3h0.5C22.4,11.4,23.2,12.2,23.2,13.3z"/>
</svg>
