<?xml version="1.0" encoding="utf-8"?>
<!-- Generator: Adobe Illustrator 19.1.0, SVG Export Plug-In . SVG Version: 6.00 Build 0)  -->
<svg version="1.1" id="Layer_1" xmlns="http://www.w3.org/2000/svg" xmlns:xlink="http://www.w3.org/1999/xlink" x="0px" y="0px"
	 viewBox="0 0 60 60" enable-background="new 0 0 60 60" xml:space="preserve">
<g>
	<path fill-rule="evenodd" clip-rule="evenodd" fill="#FFFFFF" d="M0,43c0,0,2.4,1.3,4.4,1.3S8.7,43,8.7,43V55H0V43z"/>
	<path fill-rule="evenodd" clip-rule="evenodd" fill="#FFFFFF" d="M21.3,29.9l-7.8,8.3v14.5c0,1.3,1.1,2.4,2.4,2.4h4
		c1.3,0,2.4-1.1,2.4-2.4V30.6L21.3,29.9z"/>
	<path fill-rule="evenodd" clip-rule="evenodd" fill="#FFFFFF" d="M35.1,38.2c-0.2,0-0.4,0-0.6,0c-2.7-0.1-4.6-1.7-5.5-2.5l-2-1.5
		v18.5c0,1.3,1.1,2.4,2.4,2.4h4c1.3,0,2.4-1.1,2.4-2.4V38.1C35.5,38.2,35.3,38.2,35.1,38.2"/>
	<path fill-rule="evenodd" clip-rule="evenodd" fill="#FFFFFF" d="M47.8,29L47.8,29l-3.4,3.5l-3.7,3.5L40.6,36c0,0,0,0-0.1,0v16.6
		c0,1.3,1.1,2.4,2.4,2.4h2h2c1.3,0,2.4-1.1,2.4-2.4V27.5L47.8,29z"/>
	<path fill-rule="evenodd" clip-rule="evenodd" fill="#FFFFFF" d="M21.4,10.5c1.2-0.1,2.3,0.6,2.9,1.4L36,23.9l10.5-10.5l-5.3-5.3
		c-0.8-0.8-0.6-1.6,0.6-1.7c0,0,17.8-1.7,18.1-1.4c0.4,0.4-1.4,18.1-1.4,18.1c-0.1,1.2-0.9,1.5-1.7,0.6l-5.3-5.3L41.1,29l0,0
		l-3.6,3.4c-0.8,0.6-1.6,1.1-2.7,1c-1.2-0.1-2.3-1-2.8-1.4l-11.2-8.5L6.1,39c-1.6,1.3-3.9,1.1-5.2-0.5c-1.3-1.6-1.1-3.9,0.5-5.2
		L19,11.4C19.7,10.8,20.5,10.5,21.4,10.5"/>
</g>
</svg>
