<?xml version="1.0" encoding="utf-8"?>
<!-- Generator: Adobe Illustrator 21.1.0, SVG Export Plug-In . SVG Version: 6.00 Build 0)  -->
<svg version="1.1" id="Layer_1" xmlns="http://www.w3.org/2000/svg" xmlns:xlink="http://www.w3.org/1999/xlink" x="0px" y="0px"
	 viewBox="0 0 50 50" enable-background="new 0 0 50 50" xml:space="preserve">
<g>
	<polygon fill="#FFFFFF" points="26.1,20.2 24.8,18.8 22.1,22.3 20.7,20.7 19.3,21.6 22.2,23.8 	"/>
	<polygon fill="#FFFFFF" points="22.2,30.2 26.1,26.6 24.8,25.3 22.1,28.7 20.7,27.1 19.3,28.1 	"/>
	<rect x="27" y="21.1" fill="#FFFFFF" width="6.7" height="1.8"/>
	<rect x="27" y="27.4" fill="#FFFFFF" width="6.7" height="1.8"/>
	<path fill="#FFFFFF" d="M35.8,11.2H17.4c-1.2,0-2.2,1-2.2,2.2v18.1h2.6V15.6c0-1,0.8-1.8,1.8-1.8h14.1c1,0,1.8,0.8,1.8,1.8v17.9
		c0,2.2-1.1,3-2.6,3h0c-2.5,0-2.9-3.9-2.9-3.9H12c0,5.8,4.2,6.3,4.2,6.3h12.6h3.7h0.7c2.7,0,4.7-0.9,4.7-5.7V13.4
		C38,12.2,37,11.2,35.8,11.2z"/>
</g>
</svg>
