<?xml version="1.0" encoding="utf-8"?>
<!-- Generator: Adobe Illustrator 19.1.0, SVG Export Plug-In . SVG Version: 6.00 Build 0)  -->
<svg version="1.1" id="Layer_1" xmlns="http://www.w3.org/2000/svg" xmlns:xlink="http://www.w3.org/1999/xlink" x="0px" y="0px"
	 viewBox="0 0 50 50" style="enable-background:new 0 0 50 50;" xml:space="preserve">
<style type="text/css">
	.st0{fill:#FFFFFF;}
</style>
<g>
	<path class="st0" d="M45.4,28.6c0.1-0.6,0.1-1.2,0.1-1.8c0-0.6,0-1.2-0.1-1.8L42,24.1c-0.2-0.9-0.6-1.7-1-2.6l1.8-3
		c-0.7-1-1.6-1.9-2.7-2.7l-3,1.8c-0.8-0.5-1.6-0.8-2.6-1l-0.8-3.4c-0.6-0.1-1.2-0.1-1.8-0.1s-1.2,0-1.8,0.1l-0.8,3.4
		c-0.9,0.2-1.7,0.6-2.6,1l-3.1-1.9c-1,0.7-1.9,1.6-2.7,2.7l1.8,3c-0.5,0.8-0.8,1.6-1,2.6l-3.4,0.8c-0.1,0.6-0.1,1.2-0.1,1.8
		c0,0.6,0,1.2,0.1,1.8l3.4,0.8c0.2,0.9,0.6,1.7,1,2.6l-1.8,3c0.7,1,1.6,1.9,2.7,2.7l3-1.8c0.8,0.5,1.6,0.8,2.6,1l0.8,3.4
		c0.6,0.1,1.2,0.1,1.8,0.1c0.6,0,1.2,0,1.8-0.1l0.8-3.4c0.9-0.2,1.7-0.6,2.6-1l3,1.8c1-0.7,1.9-1.6,2.7-2.7l-1.8-3
		c0.5-0.8,0.8-1.6,1-2.6L45.4,28.6z M31.9,32.6c-3.3,0-5.8-2.7-5.8-5.8c0-3.3,2.7-5.8,5.8-5.8c3.3,0,5.8,2.7,5.8,5.8
		S35.1,32.6,31.9,32.6z"/>
	<path class="st0" d="M20.8,20.6l-1.6-1.3c0.1-0.5,0.2-1.1,0.1-1.7l1.8-1.1c-0.1-0.4-0.2-0.7-0.3-1.1s-0.3-0.7-0.4-1.1l-2.2,0.2
		c-0.3-0.5-0.7-0.9-1.1-1.3l0.5-2.2c-0.6-0.4-1.3-0.8-2.2-1l-1.3,1.8c-0.6-0.1-1.1-0.2-1.7-0.1l-1.1-1.9c-0.4,0.1-0.7,0.2-1.1,0.3
		C9.7,10,9.4,10.2,9,10.3l0.2,2.2c-0.5,0.3-0.9,0.7-1.3,1.1l-2.2-0.5c-0.4,0.6-0.8,1.3-1,2.2l1.6,1.3c-0.1,0.5-0.2,1.1-0.1,1.7
		l-1.7,1.2c0.1,0.4,0.2,0.7,0.3,1.1c0.1,0.4,0.3,0.7,0.4,1.1l2.2-0.2c0.3,0.5,0.7,0.9,1.1,1.3L8,25.1c0.6,0.4,1.3,0.8,2.2,1l1.3-1.6
		c0.6,0.1,1.1,0.2,1.7,0.1l1.1,1.8c0.4-0.1,0.7-0.2,1.1-0.3c0.4-0.1,0.7-0.3,1.1-0.4l-0.2-2.2c0.5-0.3,0.9-0.7,1.3-1.1l2.2,0.5
		C20.2,22,20.6,21.4,20.8,20.6 M13.7,20.8c-1.5,0.5-3.2-0.3-3.8-1.8c-0.5-1.5,0.3-3.3,1.8-3.8s3.3,0.3,3.8,1.8
		C16.1,18.5,15.3,20.3,13.7,20.8"/>
</g>
</svg>
