<?xml version="1.0" encoding="utf-8"?>
<!-- Generator: Adobe Illustrator 19.1.0, SVG Export Plug-In . SVG Version: 6.00 Build 0)  -->
<svg version="1.1" id="Layer_1" xmlns="http://www.w3.org/2000/svg" xmlns:xlink="http://www.w3.org/1999/xlink" x="0px" y="0px"
	 viewBox="0 0 26 26" enable-background="new 0 0 26 26" xml:space="preserve">
<path fill="#FFFFFF" d="M15.1,9.2c-0.7,0.1-1.4,0.1-2.1,0.1c-0.7,0-1.4,0-2.1-0.1c-0.2,1.1-0.3,2.2-0.4,3.2h5
	C15.4,11.4,15.3,10.3,15.1,9.2z M10.9,16.8c0.7-0.1,1.4-0.1,2.1-0.1s1.4,0,2.1,0.1c0.2-1.1,0.4-2.2,0.4-3.2h-5
	C10.6,14.6,10.7,15.7,10.9,16.8z M11.2,3.2C8.9,3.6,6.8,4.8,5.4,6.5C6.7,7,8.4,7.4,10,7.7C10.3,6.1,10.8,4.5,11.2,3.2z M13,8
	c0.5,0,1.2,0,1.8-0.1c-0.4-1.8-1-3.6-1.5-4.9c-0.1,0-0.2,0-0.3,0s-0.2,0-0.3,0c-0.5,1.3-1.1,3.1-1.5,4.9C11.8,8,12.4,8,13,8z
	 M16.3,9c0.2,1.2,0.4,2.4,0.4,3.4H23c-0.1-1.7-0.6-3.3-1.5-4.7L20.6,8C19.3,8.5,17.8,8.8,16.3,9z M20.7,6.7c-1.5-1.8-3.6-3.1-6-3.5
	c0.4,1.3,0.9,2.9,1.3,4.6C17.7,7.5,19.4,7.1,20.7,6.7z M16.3,17c1.5,0.2,3,0.5,4.3,1l0.9,0.3c0.9-1.4,1.4-3,1.5-4.7h-6.3
	C16.7,14.6,16.5,15.8,16.3,17z M14.8,22.8c2.3-0.4,4.4-1.6,5.8-3.4c-1.3-0.4-3-0.9-4.6-1.2C15.7,19.9,15.2,21.5,14.8,22.8z M9.7,9
	c-1.5-0.2-3-0.5-4.3-1L4.5,7.7c-0.9,1.4-1.4,3-1.5,4.7h6.3C9.3,11.4,9.5,10.2,9.7,9z M13,18c-0.6,0-1.2,0.1-1.8,0.1
	c0.4,1.8,1,3.6,1.5,4.9c0.1,0,0.2,0,0.3,0s0.2,0,0.3,0c0.6-1.3,1.1-3.1,1.5-4.9C14.2,18,13.6,18,13,18z M9.7,17
	c-0.2-1.2-0.4-2.4-0.4-3.4H3c0.1,1.7,0.6,3.3,1.5,4.7L5.4,18C6.7,17.5,8.2,17.2,9.7,17z M5.4,19.5c1.5,1.7,3.5,2.9,5.8,3.4
	c-0.4-1.3-0.9-2.9-1.3-4.5C8.4,18.6,6.7,19,5.4,19.5z"/>
</svg>
