<?xml version="1.0" encoding="utf-8"?>
<!-- Generator: Adobe Illustrator 21.1.0, SVG Export Plug-In . SVG Version: 6.00 Build 0)  -->
<svg version="1.1" id="Layer_1" xmlns="http://www.w3.org/2000/svg" xmlns:xlink="http://www.w3.org/1999/xlink" x="0px" y="0px"
	 viewBox="0 0 50 50" enable-background="new 0 0 50 50" xml:space="preserve">
<path fill="#FFFFFF" d="M39.6,15.8v3.9c0,1.6-1.3,2.9-2.9,2.9h-0.5l-0.3-2.9h0.3c0.3,0,0.5-0.2,0.5-0.5v-3c0-0.3-0.2-0.5-0.5-0.5
	H13.8c-0.3,0-0.5,0.2-0.5,0.5v3c0,0.3,0.2,0.5,0.5,0.5h0.3l-0.3,2.9h-0.5c-1.6,0-2.9-1.3-2.9-2.9v-3.9c0-1.6,1.3-2.9,2.9-2.9h23.3
	C38.3,12.9,39.6,14.2,39.6,15.8z M35.1,25.7c-0.1-1.3-0.3-2.7-0.4-4.1c-0.1-1.5-0.3-3-0.5-4.8c-0.7,0-1.1,0-1.8,0
	c0.1,1.8,0.3,3.4,0.4,4.8c0.1,1.5,0.2,2.8,0.3,4.1c0.1,1.3,0.2,2.7,0.3,4.1c0.1,1.5,0.2,3,0.4,4.8c0,0.3-0.3,0.6-0.6,0.6
	c-1.1,0-1.6,0-2.6,0c-0.1-1.8-0.2-3.5-0.2-5c-0.1-1.5-0.1-2.9-0.2-4.3c-0.1-1.4-0.1-2.8-0.2-4.3c-0.1-1.5-0.2-3.1-0.2-5
	c-1.6,0-2.4,0-4,0c0,1.8,0,3.5,0,5c0,1.5,0,2.9,0,4.3c0,1.4,0,2.8,0,4.3c0,1.5,0,3.1,0,5c-1.8,0-3.1,0-4.5,0c-1.3,0-2.7,0-4.5,0
	c-0.4,0-0.6-0.3-0.6-0.6c0.1-1.8,0.3-3.4,0.4-4.8c0.1-1.5,0.2-2.8,0.3-4.1c0.1-1.3,0.2-2.7,0.3-4.1c0.1-1.5,0.2-3,0.4-4.8
	c-0.7,0-1.1,0-1.8,0c-0.2,1.8-0.3,3.4-0.5,4.8c-0.1,1.5-0.3,2.8-0.4,4.1c-0.1,1.3-0.3,2.7-0.4,4.1c-0.1,1.5-0.3,3-0.5,4.8
	c-0.1,1.4,1.1,2.5,2.7,2.5c1.7,0,3.1,0,4.4,0c1.3,0,2.6,0,3.8,0c1.2,0,2.5,0,3.8,0c1.3,0,2.8,0,4.4,0c1.6,0,2.8-1.1,2.7-2.5
	c-0.2-1.8-0.3-3.4-0.5-4.8C35.3,28.4,35.2,27,35.1,25.7z M21.4,32.3c0.2,0,0.3-0.1,0.3-0.3c0-1.5,0.1-2.7,0.1-3.9
	c0-1.2,0.1-2.2,0.1-3.4c0-1.2,0.1-2.4,0.1-3.9c0-0.2-0.1-0.3-0.3-0.3c-0.3,0-0.4,0-0.7,0c-0.2,0-0.3,0.1-0.3,0.3
	c-0.1,1.5-0.1,2.7-0.2,3.9c0,1.2-0.1,2.2-0.1,3.4c0,1.2-0.1,2.4-0.2,3.9c0,0.2,0.1,0.3,0.3,0.3C20.9,32.3,21.1,32.3,21.4,32.3z"/>
</svg>
