<?xml version="1.0" encoding="utf-8"?>
<!-- Generator: Adobe Illustrator 19.1.0, SVG Export Plug-In . SVG Version: 6.00 Build 0)  -->
<svg version="1.1" id="Layer_1" xmlns="http://www.w3.org/2000/svg" xmlns:xlink="http://www.w3.org/1999/xlink" x="0px" y="0px"
	 viewBox="0 0 20 20" enable-background="new 0 0 20 20" xml:space="preserve">
<g>
	<path fill="#FFFFFF" d="M19.1,18.3H1.7V0.9C1.7,0.4,1.3,0,0.9,0S0,0.4,0,0.9v18.3C0,19.6,0.4,20,0.9,20h18.3c0.5,0,0.9-0.4,0.9-0.9
		C20,18.7,19.6,18.3,19.1,18.3z"/>
	<path fill="#FFFFFF" d="M3.5,15.9C3.7,15.9,3.8,16,3.9,16c0.3,0,0.6-0.2,0.7-0.4L8,9.7l2.3,3.7c0.2,0.3,0.5,0.4,0.8,0.4
		c0.3,0,0.6-0.2,0.7-0.5l3.3-8.2l2.3,5.2c0.2,0.4,0.7,0.6,1.1,0.4c0.4-0.2,0.6-0.7,0.4-1.1l-3.1-7.1C15.7,2.2,15.4,2,15.1,2
		c0,0,0,0,0,0c-0.3,0-0.6,0.2-0.8,0.5l-3.4,8.5L8.7,7.6C8.5,7.3,8.3,7.2,8,7.2c0,0,0,0,0,0c-0.3,0-0.6,0.2-0.7,0.4l-4,7.1
		C3,15.1,3.1,15.6,3.5,15.9z"/>
</g>
</svg>
