<?xml version="1.0" encoding="utf-8"?>
<!-- Generator: Adobe Illustrator 21.1.0, SVG Export Plug-In . SVG Version: 6.00 Build 0)  -->
<svg version="1.1" id="Layer_1" xmlns="http://www.w3.org/2000/svg" xmlns:xlink="http://www.w3.org/1999/xlink" x="0px" y="0px"
	 viewBox="0 0 50 50" enable-background="new 0 0 50 50" xml:space="preserve">
<path fill="#FFFFFF" d="M30.9,11.3c-0.1,0-10.2,0-10.2,0c-1.8,0-3.5,1.6-3.5,3.5h-1c-1.8,0-3.3,1.6-3.3,3.4v17.1
	c0,1.7,1.6,3.5,3.5,3.5h12.8c1.8,0,3.5-1.6,3.5-3.5h0.8c1.8,0,3.5-1.6,3.5-3.5V18.1L30.9,11.3z M29.2,36.9H16.4
	c-0.9,0-1.7-0.8-1.7-1.7v-17c0-1.3,1-1.7,2.5-1.7v15.3c0,1.7,1.6,3.5,3.5,3.5c0,0,9.3,0,10.3,0C30.9,36.2,30.2,36.9,29.2,36.9z
	 M30.9,29.2h-7.6c-0.5,0-0.8-0.4-0.8-0.8s0.4-0.8,0.8-0.8h7.6c0.5,0,0.8,0.4,0.8,0.8C31.7,28.9,31.4,29.2,30.9,29.2z M30.9,25h-7.6
	c-0.5,0-0.8-0.4-0.8-0.8c0-0.5,0.4-0.8,0.8-0.8h7.6c0.5,0,0.8,0.4,0.8,0.8C31.7,24.6,31.4,25,30.9,25z M32.5,18.1
	c-0.9,0-1.7-0.8-1.7-1.7v-3.4l0,0l4.3,5.1H32.5z"/>
</svg>
