<?xml version="1.0" encoding="utf-8"?>
<!-- Generator: Adobe Illustrator 21.1.0, SVG Export Plug-In . SVG Version: 6.00 Build 0)  -->
<svg version="1.1" id="Layer_1" xmlns="http://www.w3.org/2000/svg" xmlns:xlink="http://www.w3.org/1999/xlink" x="0px" y="0px"
	 viewBox="0 0 50 50" enable-background="new 0 0 50 50" xml:space="preserve">
<g>
	<g>
		<circle fill="#FFFFFF" cx="22.5" cy="22.3" r="1.1"/>
		<ellipse fill="#FFFFFF" cx="33.2" cy="19.6" rx="1.1" ry="1.1"/>
		<circle fill="#FFFFFF" cx="28.4" cy="26.1" r="1.1"/>
		<path fill="#FFFFFF" d="M16.8,28.4c0.6,0,1.1-0.5,1.1-1.1c0-0.6-0.5-1.1-1.1-1.1c-0.6,0-1.1,0.5-1.1,1.1
			C15.7,27.9,16.2,28.4,16.8,28.4z"/>
		<path fill="#FFFFFF" d="M16.8,25.5c0.3,0,0.6,0.1,0.9,0.2l3.2-2.8c-0.1-0.2-0.1-0.4-0.1-0.6c0-1,0.8-1.8,1.8-1.8
			c1,0,1.8,0.8,1.8,1.8c0,0.3-0.1,0.6-0.2,0.9l3.3,1.5c0.3-0.2,0.6-0.3,0.9-0.3c0.2,0,0.5,0,0.7,0.1l2.8-3.6
			c-0.3-0.3-0.4-0.7-0.4-1.2c0-1,0.8-1.8,1.8-1.8c1,0,1.8,0.8,1.8,1.8c0,1-0.8,1.8-1.8,1.8c-0.2,0-0.5,0-0.7-0.1l-2.8,3.6
			c0.3,0.3,0.5,0.7,0.5,1.2c0,1-0.8,1.8-1.8,1.8c-1,0-1.8-0.8-1.8-1.8c0-0.3,0.1-0.7,0.3-0.9l-3.3-1.4c-0.3,0.2-0.7,0.3-1,0.3
			c-0.5,0-0.9-0.2-1.2-0.5l-3,2.7c0.2,0.3,0.3,0.6,0.3,1c0,1-0.8,1.8-1.8,1.8c-1,0-1.8-0.8-1.8-1.8C15,26.3,15.8,25.5,16.8,25.5z"/>
		<path fill="#FFFFFF" d="M16.8,29.1c1,0,1.8-0.8,1.8-1.8c0-0.4-0.1-0.7-0.3-1l3-2.7c0.3,0.3,0.8,0.5,1.2,0.5c0.4,0,0.7-0.1,1-0.3
			l3.3,1.4c-0.2,0.3-0.3,0.6-0.3,0.9c0,1,0.8,1.8,1.8,1.8c1,0,1.8-0.8,1.8-1.8c0-0.5-0.2-0.9-0.5-1.2l2.8-3.6
			c0.2,0.1,0.4,0.1,0.7,0.1c1,0,1.8-0.8,1.8-1.8c0-1-0.8-1.8-1.8-1.8c-1,0-1.8,0.8-1.8,1.8c0,0.5,0.2,0.9,0.4,1.2L29,24.4
			c-0.2-0.1-0.4-0.1-0.7-0.1c-0.4,0-0.7,0.1-0.9,0.3l-3.3-1.5c0.1-0.3,0.2-0.5,0.2-0.9c0-1-0.8-1.8-1.8-1.8c-1,0-1.8,0.8-1.8,1.8
			c0,0.2,0,0.4,0.1,0.6l-3.2,2.8c-0.3-0.1-0.6-0.2-0.9-0.2c-1,0-1.8,0.8-1.8,1.8C15,28.3,15.8,29.1,16.8,29.1z M33.2,18.5
			c0.6,0,1.1,0.5,1.1,1.1c0,0.6-0.5,1.1-1.1,1.1c-0.6,0-1.1-0.5-1.1-1.1C32.1,19,32.6,18.5,33.2,18.5z M28.4,25
			c0.6,0,1.1,0.5,1.1,1.1c0,0.6-0.5,1.1-1.1,1.1c-0.6,0-1.1-0.5-1.1-1.1C27.3,25.5,27.8,25,28.4,25z M22.5,21.2
			c0.6,0,1.1,0.5,1.1,1.1c0,0.6-0.5,1.1-1.1,1.1c-0.6,0-1.1-0.5-1.1-1.1C21.4,21.7,21.9,21.2,22.5,21.2z M16.8,26.2
			c0.6,0,1.1,0.5,1.1,1.1c0,0.6-0.5,1.1-1.1,1.1c-0.6,0-1.1-0.5-1.1-1.1C15.7,26.7,16.2,26.2,16.8,26.2z"/>
	</g>
	<g>
		<path fill="#FFFFFF" d="M37.5,12.9h-25c-1,0-1.4,0.5-1.4,1.4v18c0,1,0.5,1.4,1.4,1.4h7v1.4h-3.3c-0.5,0-1,0.4-1,1c0,0.5,0.4,1,1,1
			h17.6c0.5,0,1-0.4,1-1c0-0.5-0.4-1-1-1h-3.6l0-1.4h7.2c1,0,1.4-0.5,1.4-1.4v-18C38.9,13.3,38.4,12.9,37.5,12.9z M35.7,30.6H14.3
			V16h21.5V30.6z"/>
	</g>
</g>
</svg>
