<?xml version="1.0" encoding="utf-8"?>
<!-- Generator: Adobe Illustrator 21.1.0, SVG Export Plug-In . SVG Version: 6.00 Build 0)  -->
<svg version="1.1" id="Layer_1" xmlns="http://www.w3.org/2000/svg" xmlns:xlink="http://www.w3.org/1999/xlink" x="0px" y="0px"
	 viewBox="0 0 50 50" enable-background="new 0 0 50 50" xml:space="preserve">
<g>
	<path fill="#FFFFFF" d="M25,28.2c-4.3,0-12.9,2.2-12.9,6.5v3.2h25.9v-3.2C37.9,30.4,29.3,28.2,25,28.2z"/>
	<circle fill="#FFFFFF" cx="25" cy="18.5" r="6.5"/>
	<path fill="#FFFFFF" d="M43.4,19.4h-2.3c-0.3,0-0.6,0.2-0.8,0.5c-0.1,0.3-0.1,0.7,0.2,0.9l0.4,0.4l-3.7,3.5l-2.4-2.3
		c-0.2-0.2-0.5-0.3-0.7-0.3c-0.3,0-0.6,0.1-0.8,0.3l-2.7,2.6c-0.2,0.2-0.3,0.4-0.3,0.6s0.1,0.5,0.3,0.6l0.3,0.3
		c0.2,0.2,0.4,0.2,0.6,0.2c0.2,0,0.4-0.1,0.6-0.2l1.9-1.9l2.4,2.3c0.2,0.2,0.5,0.3,0.8,0.3s0.5-0.1,0.8-0.3l4.5-4.2l0.3,0.3
		c0.2,0.2,0.4,0.2,0.6,0.2l0.2,0l0.1,0c0.3-0.1,0.5-0.4,0.5-0.8v-2.3C44.3,19.8,43.9,19.4,43.4,19.4z"/>
</g>
</svg>
