<?xml version="1.0" encoding="utf-8"?>
<!-- Generator: Adobe Illustrator 19.1.0, SVG Export Plug-In . SVG Version: 6.00 Build 0)  -->
<svg version="1.1" id="Layer_1" xmlns="http://www.w3.org/2000/svg" xmlns:xlink="http://www.w3.org/1999/xlink" x="0px" y="0px"
	 viewBox="0 0 50 50" style="enable-background:new 0 0 50 50;" xml:space="preserve">
<style type="text/css">
	.st0{fill:#FFFFFF;}
</style>
<g>
	<path class="st0" d="M34.8,14h-3.2v0.1c0,1.4-0.4,2.6-1.2,3.8c-1.3,1.7-3.3,2.9-5.5,2.9s-4.2-1.2-5.4-3c-0.7-1.1-1.2-2.3-1.2-3.8
		v-0.1h-3.2c-1.9,0-3.5,1.6-3.5,3.5v23.1c0,1.9,1.6,3.5,3.5,3.5h19.6c1.9,0,3.5-1.6,3.5-3.5v-23C38.3,15.6,36.7,14,34.8,14z
		 M20.9,27.9c0-2.2,1.8-4.1,4.1-4.1c2.2,0,4.1,1.8,4.1,4.1v1.7c0,2.2-1.8,4.1-4.1,4.1c-2.2,0-4.1-1.8-4.1-4.1V27.9z M32.6,39.8
		c0,0.2-0.2,0.4-0.4,0.4H17.9c-0.2,0-0.4-0.2-0.4-0.4v-1.3c0-2.1,1.7-3.8,3.8-3.8c1.7,0,3.2,1.2,3.6,2.6c0,0.1,0.1,0.1,0.2,0.1
		c0.1,0,0.1-0.1,0.2-0.1c0.5-1.6,1.9-2.6,3.6-2.6c2.1,0,3.8,1.7,3.8,3.8v1.3H32.6z"/>
	<path class="st0" d="M25,18.5c2.4,0,4.4-2,4.4-4.4v-3.7c0-2.4-2-4.4-4.4-4.4s-4.4,2-4.4,4.4v3.7C20.6,16.5,22.6,18.5,25,18.5
		 M25.1,8c1.2,0,2,1,2,2c0,1.2-1,2-2,2c-1.2,0-2-1-2-2S23.9,8,25.1,8"/>
</g>
</svg>
