<?xml version="1.0" encoding="utf-8"?>
<!-- Generator: Adobe Illustrator 19.1.0, SVG Export Plug-In . SVG Version: 6.00 Build 0)  -->
<svg version="1.1" id="Layer_1" xmlns="http://www.w3.org/2000/svg" xmlns:xlink="http://www.w3.org/1999/xlink" x="0px" y="0px"
	 viewBox="0 0 60 60" enable-background="new 0 0 60 60" xml:space="preserve">
<g>
	<path fill-rule="evenodd" clip-rule="evenodd" fill="#FFFFFF" d="M12.9,23.9v18h-5c-0.6,0-1.2,0.4-1.5,0.9
		c-0.3,0.6-0.2,1.2,0.2,1.7l12.6,14.9c0.3,0.4,0.8,0.6,1.2,0.6c0.5,0,0.9-0.2,1.2-0.6l12.6-14.9c0.4-0.5,0.5-1.1,0.2-1.7
		c-0.3-0.6-0.8-0.9-1.5-0.9h-5v-18c0-0.9-0.7-1.6-1.6-1.6h-5.9h-5.9C13.6,22.3,12.9,23,12.9,23.9"/>
	<path fill-rule="evenodd" clip-rule="evenodd" fill="#FFFFFF" d="M32.1,36.1v-18h-5c-0.6,0-1.2-0.4-1.5-0.9
		c-0.3-0.6-0.2-1.2,0.2-1.7L38.4,0.6C38.7,0.2,39.2,0,39.6,0c0.5,0,0.9,0.2,1.2,0.6l12.6,14.9c0.4,0.5,0.5,1.2,0.2,1.7
		c-0.3,0.6-0.8,0.9-1.5,0.9h-5v18c0,0.9-0.7,1.6-1.6,1.6h-5.9h-5.9C32.8,37.7,32.1,37,32.1,36.1"/>
</g>
</svg>
