<?xml version="1.0" encoding="utf-8"?>
<!-- Generator: Adobe Illustrator 19.1.0, SVG Export Plug-In . SVG Version: 6.00 Build 0)  -->
<svg version="1.1" id="Layer_1" xmlns="http://www.w3.org/2000/svg" xmlns:xlink="http://www.w3.org/1999/xlink" x="0px" y="0px"
	 viewBox="0 0 60 60" enable-background="new 0 0 60 60" xml:space="preserve">
<path fill-rule="evenodd" clip-rule="evenodd" fill="#FFFFFF" d="M57.5,49.6h-1.4V20.7c0-1.6-1.3-2.9-2.9-2.9h-8.8
	c-1.6,0-2.9,1.3-2.9,2.9v28.9h-4.4V9c0-1.6-1.3-2.9-2.9-2.9h-8.8c-1.6,0-2.9,1.3-2.9,2.9v40.6h-4.1V32.3c0-1.6-1.3-2.9-2.9-2.9H6.8
	c-1.6,0-2.9,1.3-2.9,2.9v17.3H2.5C1.7,49.6,1,50.2,1,51v1.5c0,0.8,0.7,1.4,1.5,1.4h55.1c0.8,0,1.5-0.7,1.5-1.4V51
	C59,50.2,58.3,49.6,57.5,49.6"/>
</svg>
