<?xml version="1.0" encoding="utf-8"?>
<!-- Generator: Adobe Illustrator 21.1.0, SVG Export Plug-In . SVG Version: 6.00 Build 0)  -->
<svg version="1.1" id="Layer_1" xmlns="http://www.w3.org/2000/svg" xmlns:xlink="http://www.w3.org/1999/xlink" x="0px" y="0px"
	 viewBox="0 0 50 50" enable-background="new 0 0 50 50" xml:space="preserve">
<g>
	<g>
		<path fill="#FFFFFF" d="M31.3,30.4v2.5c0,1.1-0.5,2.1-1.6,2.1H15.8c-1.1,0-1.6-0.9-1.6-2.1V16.9c0-1.1,0.5-2.1,1.6-2.1h13.9
			c1.1,0,1.6,0.9,1.6,2.1v0.9l2.1-2v-0.2c0-1.7-1.4-3.1-3.1-3.1H15.1c-1.7,0-3.1,1.4-3.1,3.1v18.8c0,1.7,1.4,3.1,3.1,3.1h15.2
			c1.7,0,3.1-1.4,3.1-3.1v-6.6L31.3,30.4z"/>
		<path fill="#FFFFFF" d="M25.6,23.8h-8c-0.6,0-1,0.2-1,0.8v0.7c0,0.6,0.5,0.8,1,0.8h8c0.6,0,1-0.2,1-0.8v-0.7
			C26.6,24.1,26.1,23.8,25.6,23.8z"/>
		<path fill="#FFFFFF" d="M27.8,19.2H17.6c-0.6,0-1,0.2-1,0.8v0.7c0,0.6,0.5,0.8,1,0.8h10.3c0.6,0,1-0.2,1-0.8V20
			C28.9,19.4,28.4,19.2,27.8,19.2z"/>
		<path fill="#FFFFFF" d="M23.3,28.5h-5.8c-0.6,0-1,0.2-1,0.8V30c0,0.6,0.5,0.8,1,0.8h5.8c0.6,0,1-0.2,1-0.8v-0.7
			C24.4,28.7,23.9,28.5,23.3,28.5z"/>
	</g>
	<g>
		<path fill="#FFFFFF" d="M30.9,20.3l-0.9,1.2L25.8,28c-0.1,0.1-0.1,0.2-0.1,0.3c0.9,0,1.5,0,2.4,0.4c0.9,0.5,1.2,1,1.6,1.8
			c0.1-0.1,0.2-0.2,0.3-0.3l2.5-3.1l0.4,0.2l0,0c0.3,0.2,0.7,0.1,0.9-0.2l4.2-5.6l0,0c0.2-0.3,0.1-0.7-0.2-0.8l-0.6-0.3l0,0l-0.1,0
			c0.4-0.9,0.7-1.6,0.5-1.8L34.6,17C34.1,16.7,31.3,19.8,30.9,20.3z M37.2,20.5L37.2,20.5L37.2,20.5L37.2,20.5z M37.2,20.7
			L37.2,20.7L37.2,20.7z M32.7,26.6l2.1-2.6l0.9-1.2c0.2-0.2,0.7-1.1,1.2-2l0.5,0.3l0,0.1l0,0l-4.2,5.6l-0.1,0l0,0L32.7,26.6z
			 M30.1,22.5l0.3,0.1c0.1,0,0,0.2-0.1,0.4l-2.7,4.2c-0.1,0.2-0.3,0.3-0.3,0.2L27,27.3c-0.1,0,0-0.2,0.1-0.4l2.7-4.2
			C29.9,22.6,30,22.5,30.1,22.5z"/>
		<path fill="#FFFFFF" d="M25.7,28.6l0,0.2l0,0.1l-0.3,2.2c0,0.6,0.6,0.8,1.3,0.5l2.2-1.2l0.1-0.1l0.1,0c-0.3-0.7-0.6-1.1-1.3-1.5
			C27,28.6,26.5,28.6,25.7,28.6z M26.2,29.2l0.1,0l0,0.1L26,30.8l-0.1,0.1l-0.1,0l0-0.1l0.3-1.5L26.2,29.2z"/>
	</g>
</g>
</svg>
