<?xml version="1.0" encoding="utf-8"?>
<!-- Generator: Adobe Illustrator 21.1.0, SVG Export Plug-In . SVG Version: 6.00 Build 0)  -->
<svg version="1.1" id="Layer_1" xmlns="http://www.w3.org/2000/svg" xmlns:xlink="http://www.w3.org/1999/xlink" x="0px" y="0px"
	 viewBox="0 0 26 26" style="enable-background:new 0 0 26 26;" xml:space="preserve">
<g>
	<circle style="fill:#FF0000;" cx="20.6" cy="7" r="5"/>
	<g>
		<path style="fill:#FFFFFF;" d="M0.4,7.6V20c0,0.2,0,0.3,0.1,0.4l6.9-7.1L0.4,7.6z"/>
		<path style="fill:#FFFFFF;" d="M15.4,10c-0.5-0.9-0.8-1.9-0.8-3c0-0.2,0-0.3,0-0.5H1l9.4,7.5L15.4,10z"/>
		<polygon style="fill:#FFFFFF;" points="10.4,15.8 8.3,14.1 1.1,21.5 19.5,21.5 12.4,14.1 		"/>
		<path style="fill:#FFFFFF;" d="M16.2,11l-2.8,2.3l6.9,7.1c0-0.1,0.1-0.3,0.1-0.4v-7C18.7,12.9,17.2,12.2,16.2,11z"/>
	</g>
</g>
</svg>
