<?xml version="1.0" encoding="utf-8"?>
<!-- Generator: Adobe Illustrator 21.1.0, SVG Export Plug-In . SVG Version: 6.00 Build 0)  -->
<svg version="1.1" id="Layer_1" xmlns="http://www.w3.org/2000/svg" xmlns:xlink="http://www.w3.org/1999/xlink" x="0px" y="0px"
	 viewBox="0 0 50 50" enable-background="new 0 0 50 50" xml:space="preserve">
<path fill="#FFFFFF" d="M39.2,15.1v3.8c0,1.6-1.3,2.8-2.8,2.8h-0.8l-0.4-2.8h0.7c0.3,0,0.5-0.2,0.5-0.5v-2.9c0-0.2-0.2-0.5-0.5-0.5
	H14.1c-0.2,0-0.5,0.2-0.5,0.5v2.9c0,0.2,0.2,0.5,0.5,0.5h0.7l-0.4,2.8h-0.8c-1.6,0-2.8-1.3-2.8-2.8v-3.8c0-1.6,1.3-2.8,2.8-2.8h22.7
	C37.9,12.2,39.2,13.5,39.2,15.1z M25,31.1c-0.8,0-1.5,0.6-1.5,1.4c0,0.8,0.7,1.4,1.5,1.4c0.9,0,1.5-0.6,1.5-1.4
	C26.5,31.8,25.8,31.1,25,31.1z M35.5,31.1c0.2,1.3,0.3,2.7,0.6,4.2c0.2,1.4-1.1,2.4-2.8,2.4c-1.7,0-3.2,0-4.5,0c-1.3,0-2.5,0-3.7,0
	c-1.2,0-2.4,0-3.7,0c-1.3,0-2.8,0-4.5,0c-1.7,0-3-1.1-2.8-2.4c0.2-1.5,0.4-2.9,0.6-4.2c0.2-1.3,0.3-2.5,0.5-3.7
	c0.2-1.2,0.3-2.3,0.5-3.5s0.3-2.4,0.5-3.7c0.2-1.3,0.3-2.7,0.6-4.2c0.8,0,1.1,0,1.8,0c-0.1,1.1-0.2,2-0.3,2.8
	c-0.1,0.8-0.2,1.7-0.3,2.8c0.7-1.1,1.8-2,3-2.7c1.3-0.7,2.7-1.1,4.2-1.1c1.5,0,3,0.4,4.2,1.1c1.3,0.7,2.4,1.6,3,2.7
	c-0.1-1.1-0.2-2-0.3-2.8c-0.1-0.8-0.2-1.7-0.3-2.8c0.7,0,1.1,0,1.8,0c0.2,1.5,0.4,2.9,0.5,4.2c0.2,1.3,0.3,2.5,0.5,3.7
	c0.2,1.2,0.3,2.3,0.5,3.5C35.1,28.6,35.3,29.8,35.5,31.1z M19,24.1c0,0.2,0.2,0.4,0.4,0.4c0.3,0,0.5,0,0.8,0
	c0.1,1.5,1.4,2.4,2.6,2.4c1.9,0,2.5-1,2.8-2c0,0,0,0,0,0c0.2-0.7,0.3-1,0.4-1.7c0.2-0.6,0.3-1.2,1-1.2c0.3,0,1,0.2,1.1,1.7
	c0,0.8-0.4,1.3-0.9,1.5c-0.1,0-0.2,0.2-0.2,0.3c0,0.5,0,0.7,0,1.2c0,0.1,0,0.2,0.1,0.2c0.1,0.1,0.2,0.1,0.3,0.1
	c1.4-0.3,2.4-1.3,2.4-2.4c0.3,0,0.4,0,0.7,0c0.4,0,0.6-0.2,0.5-0.4c0-0.4-0.1-0.6-0.1-1c0-0.2-0.2-0.4-0.5-0.4c-0.3,0-0.5,0-0.8,0
	c-0.3-1.5-1.6-2.4-2.6-2.4c-1.8,0-2.3,1-2.6,2c-0.2,0.7-0.3,1-0.5,1.7c0,0,0,0,0,0c-0.2,0.6-0.4,1.2-1,1.2c-0.3,0-1.1-0.2-1-1.7
	c0-0.9,0.5-1.3,0.9-1.5c0.1,0,0.2-0.2,0.2-0.3c0-0.5,0-0.7,0-1.2c0-0.1,0-0.2-0.1-0.2c-0.1-0.1-0.2-0.1-0.2-0.1
	c-1.3,0.3-2.3,1.3-2.5,2.4c-0.3,0-0.5,0-0.8,0c-0.3,0-0.5,0.2-0.5,0.4C19,23.5,19,23.7,19,24.1z M33.3,32.1
	c-0.1-1.3-0.2-2.3-0.3-3.3c-0.1-1-0.2-2-0.3-3.3c-0.5,1.1-1.5,2-2.8,2.7c-1.3,0.7-3,1.1-4.8,1.1c-1.8,0-3.5-0.4-4.8-1.1
	c-1.3-0.7-2.4-1.6-2.8-2.7c-0.1,1.3-0.2,2.3-0.3,3.3c-0.1,1-0.2,2-0.3,3.3c1.2,0,2.2,0.4,3,1.1c0.7,0.7,1.2,1.6,1.1,2.7
	c1.7,0,3,0,4.3,0c1.3,0,2.5,0,4.3,0c-0.1-1,0.4-2,1.1-2.7C31.1,32.5,32.1,32.1,33.3,32.1z"/>
</svg>
