<?xml version="1.0" encoding="utf-8"?>
<!-- Generator: Adobe Illustrator 19.1.0, SVG Export Plug-In . SVG Version: 6.00 Build 0)  -->
<svg version="1.1" id="Layer_1" xmlns="http://www.w3.org/2000/svg" xmlns:xlink="http://www.w3.org/1999/xlink" x="0px" y="0px"
	 viewBox="0 0 60 60" enable-background="new 0 0 60 60" xml:space="preserve">
<g>
	<polygon fill-rule="evenodd" clip-rule="evenodd" fill="#FFFFFF" points="0,18 8.7,28.5 8.7,54.5 0,54.5 	"/>
	<path fill-rule="evenodd" clip-rule="evenodd" fill="#FFFFFF" d="M21.6,39.6c0,0-0.2,0-0.4,0c-1.9,0-3.8-0.7-5.3-2l-0.4-0.3
		l-2.1-2.6v17.5c0,1.3,1.1,2.4,2.4,2.4h4c1.3,0,2.4-1.1,2.4-2.4V39.5C22,39.5,21.8,39.6,21.6,39.6"/>
	<path fill-rule="evenodd" clip-rule="evenodd" fill="#FFFFFF" d="M41.4,43.7c-0.3,0-0.6-0.1-0.9-0.1v8.6c0,1.3,1.1,2.4,2.4,2.4h2h2
		c1.3,0,2.4-1.1,2.4-2.4v-7.8C45.5,44.1,42.1,43.7,41.4,43.7"/>
	<path fill-rule="evenodd" clip-rule="evenodd" fill="#FFFFFF" d="M27.9,36.5c-0.3,0.3-0.6,0.6-0.9,0.9v14.7c0,1.3,1.1,2.4,2.4,2.4
		h4c1.3,0,2.4-1.1,2.4-2.4V28.5L27.9,36.5z"/>
	<path fill-rule="evenodd" clip-rule="evenodd" fill="#FFFFFF" d="M21.4,34.8c1.2,0.1,2.3-0.6,2.9-1.4L36,21.4l10.5,10.5l-5.3,5.3
		c-0.8,0.8-0.6,1.6,0.6,1.7c0,0,17.8,1.7,18.1,1.4c0.4-0.4-1.4-18.1-1.4-18.1c-0.1-1.2-0.9-1.5-1.7-0.6l-5.3,5.3L41.1,16.4l0,0
		l-3.6-3.4c-0.8-0.6-1.6-1.1-2.7-1c-1.2,0.1-2.3,1-2.8,1.4l-11.2,8.5L6.1,6.3C4.5,5,2.2,5.2,0.9,6.8c-1.3,1.6-1.1,3.9,0.5,5.2
		L19,33.9C19.7,34.5,20.5,34.8,21.4,34.8"/>
</g>
</svg>
