<?xml version="1.0" encoding="utf-8"?>
<!-- Generator: Adobe Illustrator 19.1.0, SVG Export Plug-In . SVG Version: 6.00 Build 0)  -->
<svg version="1.1" id="Layer_1" xmlns="http://www.w3.org/2000/svg" xmlns:xlink="http://www.w3.org/1999/xlink" x="0px" y="0px"
	 viewBox="0 0 50 50" style="enable-background:new 0 0 50 50;" xml:space="preserve">
<style type="text/css">
	.st0{fill:#FFFFFF;}
</style>
<path class="st0" d="M37.6,17.5l0.1,0.9c0,0.9,0,0.8,0,1.6c0,8.8-6.9,14.7-16.4,14.7H18c2.6,2.6,5.7,4.1,9.9,4.1
	c0.9,0,1.8-0.1,2.6-0.2l6.2,3.8v-6.2c3.3-2.3,5.5-5.8,5.5-9.8C42,22.9,40.2,19.8,37.6,17.5z M18.6,32.4c0.8,0.1,2.8,0.3,3.7,0.3
	c7.8,0,13.2-5.9,13.2-12.8c-0.1-6.9-6.7-12.5-13.3-12.5C14.4,7.5,8,13.1,8,20c0,4,1.5,7.3,4.3,9.8v6.2L18.6,32.4z M28.3,18.4
	c0.9,0,1.6,0.7,1.6,1.6s-0.7,1.6-1.6,1.6s-1.6-0.7-1.6-1.6C26.6,19.1,27.4,18.4,28.3,18.4z M21.7,18.4c0.9,0,1.6,0.7,1.6,1.6
	s-0.7,1.6-1.6,1.6s-1.6-0.7-1.6-1.6C20.1,19.1,20.8,18.4,21.7,18.4z M15.1,18.4c0.9,0,1.6,0.7,1.6,1.6s-0.7,1.6-1.6,1.6
	c-0.9,0-1.6-0.7-1.6-1.6C13.5,19.1,14.3,18.4,15.1,18.4z"/>
</svg>
