<?xml version="1.0" encoding="utf-8"?>
<!-- Generator: Adobe Illustrator 19.1.0, SVG Export Plug-In . SVG Version: 6.00 Build 0)  -->
<svg version="1.1" id="Layer_1" xmlns="http://www.w3.org/2000/svg" xmlns:xlink="http://www.w3.org/1999/xlink" x="0px" y="0px"
	 viewBox="0 0 20 20" enable-background="new 0 0 20 20" xml:space="preserve">
<g>
	<path fill="#FFFFFF" d="M19.2,18.4H1.7V1.5c0-0.4-0.4-0.8-0.8-0.8S0,1,0,1.5v17.7C0,19.6,0.4,20,0.8,20h18.3c0.5,0,0.8-0.4,0.8-0.8
		S19.6,18.4,19.2,18.4z"/>
	<path fill-rule="evenodd" clip-rule="evenodd" fill="#FFFFFF" d="M6,6.4v-2c0-0.3-0.3-0.5-0.6-0.5c-0.3,0-0.6,0.2-0.6,0.5v2
		c-0.5,0.1-1,0.5-1,1.1v3.7c0,0.5,0.4,1,1,1.1v2c0,0.3,0.3,0.5,0.6,0.5c0.3,0,0.6-0.2,0.6-0.5v-2c0.5-0.1,1-0.5,1-1.1V7.5
		C6.9,6.9,6.5,6.5,6,6.4z"/>
	<path fill="#FFFFFF" d="M11.1,8.4v-2c0-0.3-0.3-0.5-0.6-0.5S9.9,6.1,9.9,6.4v2C9.4,8.5,9,8.9,9,9.4v3.7c0,0.5,0.4,1,1,1.1v2
		c0,0.3,0.3,0.5,0.6,0.5s0.6-0.2,0.6-0.5v-2c0.5-0.1,1-0.5,1-1.1V9.4C12,8.9,11.6,8.5,11.1,8.4z"/>
	<path fill="#FFFFFF" d="M16.2,2.5v-2c0-0.3-0.3-0.5-0.6-0.5S15,0.2,15,0.5v2c-0.5,0.1-1,0.5-1,1.1v3.7c0,0.5,0.4,1,1,1.1v2
		c0,0.3,0.3,0.5,0.6,0.5s0.6-0.2,0.6-0.5v-2c0.5-0.1,1-0.5,1-1.1V3.5C17.1,3,16.7,2.6,16.2,2.5z"/>
</g>
</svg>
