<?xml version="1.0" encoding="utf-8"?>
<!-- Generator: Adobe Illustrator 19.1.0, SVG Export Plug-In . SVG Version: 6.00 Build 0)  -->
<svg version="1.1" id="Layer_1" xmlns="http://www.w3.org/2000/svg" xmlns:xlink="http://www.w3.org/1999/xlink" x="0px" y="0px"
	 viewBox="0 0 50 50" style="enable-background:new 0 0 50 50;" xml:space="preserve">
<style type="text/css">
	.st0{fill:#FFFFFF;}
</style>
<g>
	<path class="st0" d="M44.9,30.3c-5.8-3.2-11.5-6.3-17.3-9.5c-0.2-0.1-0.3-0.2-0.5-0.3c0.5-1,1.1-1.9,1.6-2.9
		c-3.5-1.9-7-3.9-10.3-5.7c-1.9,3.4-3.8,6.9-5.7,10.3c3.4,1.9,6.9,3.8,10.4,5.8c0.5-1,1.1-1.9,1.6-2.9c0.1,0,0.2,0.1,0.3,0.1
		c4.5,2.5,9,5,13.6,7.5c1.5,0.8,2.9,1.6,4.4,2.4c1.4,0.6,3.1-0.2,3.4-1.7C46.6,32,46.2,31,44.9,30.3"/>
	<path class="st0" d="M11.6,27.6c0.6,0.3,1.2,0.6,1.8,1c1.8,1,3.6,2,5.5,3c0.8,0.4,1.6,0.3,2-0.3c0.4-0.5,0.8-1.2,1.1-1.7
		c-3.5-1.9-7-3.9-10.5-5.8c-0.2,0.4-0.4,0.9-0.6,1.3C10.5,26.1,10.7,27,11.6,27.6"/>
	<path class="st0" d="M30.4,14.5c0.4-1,0.2-1.8-0.8-2.4c-0.6-0.3-1.3-0.6-1.9-1.1c-1.8-1-3.6-2-5.5-3c-0.9-0.4-1.7-0.2-2.3,0.5
		c-0.3,0.5-0.5,1.1-0.9,1.6C22.6,12.1,26,14,29.5,16C30,15.5,30.2,15,30.4,14.5"/>
	<path class="st0" d="M27.7,38.5h-0.4c0-1-0.6-1.8-1.4-1.8H9.3c-0.8,0-1.4,0.9-1.4,1.8H7.5c-1.8,0-3.3,1.5-4,3.6h28.2
		C30.9,40,29.4,38.5,27.7,38.5"/>
</g>
</svg>
