<?xml version="1.0" encoding="utf-8"?>
<!-- Generator: Adobe Illustrator 21.1.0, SVG Export Plug-In . SVG Version: 6.00 Build 0)  -->
<svg version="1.1" id="Layer_1" xmlns="http://www.w3.org/2000/svg" xmlns:xlink="http://www.w3.org/1999/xlink" x="0px" y="0px"
	 viewBox="0 0 50 50" enable-background="new 0 0 50 50" xml:space="preserve">
<g>
	<circle fill="#FFFFFF" cx="25" cy="18.5" r="6.5"/>
	<path fill="#FFFFFF" d="M25,28.2c-4.3,0-12.9,2.2-12.9,6.5v3.2h25.9v-3.2C37.9,30.4,29.3,28.2,25,28.2z"/>
	<path fill="#FFFFFF" d="M15.8,21.5c-0.3-1.1-0.5-2.1-0.5-2.9c1.4-0.8,1.9-2,1.9-3.3c0-2.4-2.4-4.3-5.8-4.3c-3.4,0-5.8,1.9-5.8,4.3
		c0,2.4,2.4,4.3,5.8,4.3c0.3,0,0.5,0,0.8,0C13.9,21.1,15.8,21.5,15.8,21.5z"/>
</g>
</svg>
