<?xml version="1.0" encoding="utf-8"?>
<!-- Generator: Adobe Illustrator 21.1.0, SVG Export Plug-In . SVG Version: 6.00 Build 0)  -->
<svg version="1.1" id="Layer_1" xmlns="http://www.w3.org/2000/svg" xmlns:xlink="http://www.w3.org/1999/xlink" x="0px" y="0px"
	 viewBox="0 0 50 50" enable-background="new 0 0 50 50" xml:space="preserve">
<g>
	<path fill="#FFFFFF" d="M19.7,20.4c0.8,3.1,2.5,5.7,5.3,5.7c2.8,0,4.5-2.6,5.3-5.7c1.1,0,1.4-1.3,1.5-2.4c0.1-1-0.4-1.5-1.1-1.6
		c-0.1-4.1-2.6-5.8-5.7-5.8c-3.1,0-5.6,1.7-5.7,5.8c-0.7,0.1-1.2,0.6-1.2,1.6C18.2,19.1,18.5,20.4,19.7,20.4z"/>
	<path fill="#FFFFFF" d="M37.3,30.5L31.1,28c0,0,0,0,0,0l-0.7,3.6h0l-3,4.9l-1.6-4.9l1.9-3.3c0.2-0.3,0-0.5-0.3-0.5h-4.8
		c-0.3,0-0.5,0.2-0.3,0.5l1.9,3.3l-1.6,4.9l-2.9-4.8h0L19,28.1l-6.3,2.4c-0.5,0.2-0.9,0.7-0.9,1.3V34v2.6v2.8c0,0,0,0,0,0.1h26.3
		c0,0,0,0,0-0.1v-2.8V34v-2.2C38.2,31.3,37.8,30.7,37.3,30.5z"/>
</g>
</svg>
