<?xml version="1.0" encoding="utf-8"?>
<!-- Generator: Adobe Illustrator 21.1.0, SVG Export Plug-In . SVG Version: 6.00 Build 0)  -->
<svg version="1.1" id="Layer_1" xmlns="http://www.w3.org/2000/svg" xmlns:xlink="http://www.w3.org/1999/xlink" x="0px" y="0px"
	 viewBox="0 0 50 50" enable-background="new 0 0 50 50" xml:space="preserve">
<path fill="#FFFFFF" d="M26.5,20.8c0-0.7-0.3-1.2-1.9-1.7c-2.2-0.7-3.2-1.8-3.2-3.3c0-1.4,1-2.5,2.6-3v-1.2c0-0.2,0.2-0.4,0.4-0.4h1
	c0.2,0,0.4,0.2,0.4,0.4v1c0.9,0.1,1.6,0.2,2.2,0.5c0.2,0.1,0.2,0.3,0.2,0.4l-0.4,1.2c0,0.1-0.1,0.1-0.2,0.2c-0.1,0-0.2,0-0.3,0
	L27.3,15c-0.4-0.2-1.1-0.4-1.9-0.4c-1.3,0-1.7,0.6-1.7,1.2c0,0.7,0.5,1.1,2,1.6c1.5,0.6,3.1,1.4,3.1,3.3c0,1.3-0.9,2.7-2.8,3.1v1.2
	c0,0.2-0.2,0.4-0.4,0.4h-1c-0.2,0-0.4-0.2-0.4-0.4v-1c-1-0.1-2-0.3-2.7-0.7c-0.1-0.1-0.2-0.3-0.2-0.4l0.4-1.2c0-0.1,0.1-0.1,0.2-0.2
	c0.1,0,0.2,0,0.3,0l0.1,0.1c0.7,0.4,1.5,0.6,2.4,0.6C25.8,22.2,26.5,21.7,26.5,20.8z M13.1,33.2c-0.1,0.1-0.3,0.2-0.4,0.3v4.2
	c0,0.5,0.4,0.9,0.9,0.9h2.8c0.5,0,0.9-0.4,0.9-0.9V29l0,0L13.1,33.2z M19.3,30.8v6.9c0,0.5,0.4,0.9,0.9,0.9h2.8
	c0.5,0,0.9-0.4,0.9-0.9v-3c-0.4-0.1-0.9-0.4-1.2-0.7L19.3,30.8z M32.5,37.7c0,0.5,0.4,0.9,0.9,0.9h2.8c0.5,0,0.9-0.4,0.9-0.9V24.3
	l-4.7,4.5V37.7z M25.9,34.7v3c0,0.5,0.4,0.9,0.9,0.9h2.8c0.5,0,0.9-0.4,0.9-0.9v-7.1L27,34.1C26.7,34.4,26.3,34.6,25.9,34.7z
	 M39.5,17H34c-0.2,0-0.4,0.1-0.5,0.3c-0.1,0.2,0,0.4,0.1,0.6l2,2L24.9,30.2l-6.7-6.3c-0.5-0.4-1.2-0.4-1.6,0l-6.4,6.3
	c-0.1,0.1-0.2,0.3-0.2,0.5s0.1,0.3,0.2,0.5l0.8,0.8c0.3,0.2,0.6,0.2,0.9,0l5.6-5.5l6.7,6.3c0.2,0.2,0.5,0.3,0.8,0.3
	c0.3,0,0.6-0.1,0.8-0.3l11.6-11.1l1.8,1.8c0.2,0.2,0.4,0.2,0.6,0.1c0.2-0.1,0.3-0.3,0.3-0.5v-5.5C40.1,17.2,39.8,17,39.5,17z"/>
</svg>
