<?xml version="1.0" encoding="utf-8"?>
<!-- Generator: Adobe Illustrator 21.1.0, SVG Export Plug-In . SVG Version: 6.00 Build 0)  -->
<svg version="1.1" id="Layer_1" xmlns="http://www.w3.org/2000/svg" xmlns:xlink="http://www.w3.org/1999/xlink" x="0px" y="0px"
	 viewBox="0 0 50 50" enable-background="new 0 0 50 50" xml:space="preserve">
<g>
	<path fill="#FFFFFF" d="M25,29.3c-3.1,0-9.3,1.6-9.3,4.6v2.3h18.5v-2.3C34.3,30.9,28.1,29.3,25,29.3z"/>
	<circle fill="#FFFFFF" cx="25" cy="22.4" r="4.6"/>
	<path fill="#FFFFFF" d="M16.7,23c0.8,0,1.5-0.2,2.2-0.5c0,0,0-0.1,0-0.1c0-2,0.9-3.7,2.4-4.9c-0.4-2.1-2.3-3.8-4.5-3.8
		c-2.6,0-4.6,2.1-4.6,4.6S14.1,23,16.7,23z"/>
	<path fill="#FFFFFF" d="M31.2,22.4c0,0,0,0.1,0,0.1c0.6,0.3,1.4,0.5,2.2,0.5c2.6,0,4.6-2.1,4.6-4.6s-2.1-4.6-4.6-4.6
		c-2.3,0-4.1,1.6-4.5,3.8C30.2,18.6,31.2,20.4,31.2,22.4z"/>
	<path fill="#FFFFFF" d="M19.8,25.7c-1.2-0.2-2.3-0.4-3.1-0.4c-3.1,0-9.3,1.6-9.3,4.6v2.3h7.2c1.2-2.5,5-3.8,7.9-4.3
		C21.4,27.5,20.5,26.7,19.8,25.7z"/>
	<path fill="#FFFFFF" d="M33.3,25.3c-0.9,0-2,0.1-3.1,0.4c-0.6,1-1.6,1.8-2.7,2.3c2.9,0.5,6.7,1.7,7.9,4.3h7.2V30
		C42.6,26.9,36.4,25.3,33.3,25.3z"/>
</g>
</svg>
