<?xml version="1.0" encoding="utf-8"?>
<!-- Generator: Adobe Illustrator 21.1.0, SVG Export Plug-In . SVG Version: 6.00 Build 0)  -->
<svg version="1.1" id="Layer_1" xmlns="http://www.w3.org/2000/svg" xmlns:xlink="http://www.w3.org/1999/xlink" x="0px" y="0px"
	 viewBox="0 0 50 50" enable-background="new 0 0 50 50" xml:space="preserve">
<g>
	<path fill-rule="evenodd" clip-rule="evenodd" fill="#FFFFFF" d="M41.1,27.9c0.1-0.5,0.1-1,0.1-1.5c0-0.5,0-1-0.1-1.5l-2.7-0.6
		c-0.2-0.7-0.5-1.4-0.8-2.1l1.5-2.3c-0.6-0.8-1.3-1.5-2.1-2.1l-2.3,1.5c-0.6-0.4-1.3-0.7-2.1-0.8l-0.6-2.7c-0.5-0.1-1-0.1-1.5-0.1
		c-0.5,0-1,0-1.5,0.1l-0.6,2.7c-0.7,0.2-1.4,0.5-2.1,0.8l-2.3-1.5c-0.8,0.6-1.5,1.3-2.1,2.1l1.5,2.3c-0.4,0.6-0.7,1.3-0.8,2.1
		l-2.7,0.6c-0.1,0.5-0.1,1-0.1,1.5c0,0.5,0,1,0.1,1.5l2.7,0.6c0.2,0.7,0.5,1.4,0.8,2.1l-1.5,2.3c0.6,0.8,1.3,1.5,2.1,2.1l2.3-1.5
		c0.6,0.4,1.3,0.7,2.1,0.8l0.6,2.7c0.5,0.1,1,0.1,1.5,0.1c0.5,0,1,0,1.5-0.1l0.6-2.7c0.7-0.2,1.4-0.5,2.1-0.8l2.3,1.5
		c0.8-0.6,1.5-1.3,2.1-2.1l-1.5-2.3c0.4-0.6,0.7-1.3,0.8-2.1L41.1,27.9z M30.4,31c-2.6,0-4.7-2.1-4.7-4.7c0-2.6,2.1-4.7,4.7-4.7
		c2.6,0,4.7,2.1,4.7,4.7C35.1,28.9,33,31,30.4,31z"/>
	<path fill-rule="evenodd" clip-rule="evenodd" fill="#FFFFFF" d="M21.7,21.5l-1.3-1.1c0.1-0.4,0.1-0.9,0.1-1.4l1.5-0.9
		c-0.1-0.3-0.1-0.6-0.2-0.9c-0.1-0.3-0.2-0.6-0.4-0.9l-1.7,0.2c-0.3-0.4-0.6-0.7-0.9-1l0.4-1.7c-0.5-0.3-1.1-0.6-1.7-0.8l-1.1,1.3
		c-0.4-0.1-0.9-0.1-1.4-0.1l-0.9-1.5c-0.3,0.1-0.6,0.1-0.9,0.2c-0.3,0.1-0.6,0.2-0.9,0.4l0.2,1.7c-0.4,0.3-0.7,0.6-1,0.9l-1.7-0.4
		c-0.4,0.5-0.6,1.1-0.8,1.7l1.3,1.1c-0.1,0.4-0.1,0.9-0.1,1.4l-1.5,0.9C8.8,21,8.9,21.3,9,21.6c0.1,0.3,0.2,0.6,0.4,0.9l1.7-0.2
		c0.3,0.4,0.6,0.7,0.9,1L11.6,25c0.5,0.4,1.1,0.6,1.7,0.8l1.1-1.3c0.4,0.1,0.9,0.1,1.4,0.1l0.9,1.5c0.3-0.1,0.6-0.1,0.9-0.2
		c0.3-0.1,0.6-0.2,0.9-0.4l-0.2-1.7c0.4-0.3,0.7-0.6,1-0.9l1.7,0.4C21.2,22.7,21.5,22.1,21.7,21.5 M16.1,21.6
		c-1.2,0.4-2.6-0.2-3-1.5c-0.4-1.2,0.2-2.6,1.5-3c1.2-0.4,2.6,0.2,3,1.5C18,19.9,17.3,21.2,16.1,21.6"/>
</g>
</svg>
