<?xml version="1.0" encoding="utf-8"?>
<!-- Generator: Adobe Illustrator 19.1.0, SVG Export Plug-In . SVG Version: 6.00 Build 0)  -->
<svg version="1.1" id="Layer_1" xmlns="http://www.w3.org/2000/svg" xmlns:xlink="http://www.w3.org/1999/xlink" x="0px" y="0px"
	 viewBox="0 0 50 50" style="enable-background:new 0 0 50 50;" xml:space="preserve">
<style type="text/css">
	.st0{fill:#FFFFFF;}
</style>
<g>
	<path class="st0" d="M37.1,28.5c-1.5,5.3-6.4,9.1-12.1,9.1c-4.5,0-8.6-2.5-10.7-6.1l1.8-1.8c0.7-0.7,0.4-1.2-0.5-1.2H8.4v7
		c0,0.9,0.5,1.2,1.2,0.5l1.8-1.8c3,4.3,7.9,7.2,13.6,7.2c7.9,0,14.5-5.6,16.1-13H37.1z"/>
	<path class="st0" d="M12.9,21.5c1.5-5.3,6.3-9.1,12.1-9.1c4.5,0,8.6,2.5,10.7,6.1L34,20.3c-0.7,0.7-0.4,1.2,0.5,1.2h7v-7
		c0-0.9-0.5-1.2-1.2-0.5l-1.6,1.8c-3-4.3-7.9-7.2-13.6-7.2c-7.9,0-14.5,5.6-16.1,13H12.9z"/>
	<path class="st0" d="M30.5,27.9c0-2.5-2.7-4.5-6-4.5c-0.9,0-1.6-0.6-1.6-1.2c0-0.7,0.7-1.2,1.6-1.2c0.7,0,1.4,0.4,1.5,1h4.4
		c-0.2-2-1.9-3.3-3.8-3.9v-1.2h-4.3v1.1c-2.1,0.7-3.8,2.1-3.8,4.2c0,2.5,2.7,4.5,6,4.5c0.9,0,1.7,0.6,1.7,1.2c0,0.7-0.7,1.2-1.7,1.2
		c-0.7,0-1.4-0.4-1.5-1h-4.4c0.2,2,1.9,3.3,3.8,3.9v1.2h4.3v-1.1C28.7,31.4,30.5,29.9,30.5,27.9"/>
</g>
</svg>
