<?xml version="1.0" encoding="utf-8"?>
<!-- Generator: Adobe Illustrator 19.1.0, SVG Export Plug-In . SVG Version: 6.00 Build 0)  -->
<svg version="1.1" id="Layer_1" xmlns="http://www.w3.org/2000/svg" xmlns:xlink="http://www.w3.org/1999/xlink" x="0px" y="0px"
	 viewBox="0 0 18 18" enable-background="new 0 0 18 18" xml:space="preserve">
<path fill-rule="evenodd" clip-rule="evenodd" fill="#FFFFFF" d="M7.9,15.4c-0.6,0.6-0.6,1.5,0,2.1c0.6,0.6,1.5,0.6,2.1,0l7.5-7.5
	c0.6-0.6,0.6-1.5,0-2.1l-7.5-7.5c-0.6-0.6-1.5-0.6-2.1,0C7.3,1,7.3,2,7.9,2.6L14.3,9L7.9,15.4z M0.4,13.9c-0.6,0.6-0.6,1.6,0,2.2
	C1,16.6,2,16.6,2.6,16l5.9-6.5c0.6-0.6,0.7-1,0.1-1.6l-5.9-6C2,1.3,1,1.3,0.4,1.9c-0.6,0.6-0.6,1.6,0,2.2L5.3,9L0.4,13.9z"/>
</svg>
