<?xml version="1.0" encoding="utf-8"?>
<!-- Generator: Adobe Illustrator 21.1.0, SVG Export Plug-In . SVG Version: 6.00 Build 0)  -->
<svg version="1.1" id="Layer_1" xmlns="http://www.w3.org/2000/svg" xmlns:xlink="http://www.w3.org/1999/xlink" x="0px" y="0px"
	 viewBox="0 0 50 50" enable-background="new 0 0 50 50" xml:space="preserve">
<g>
	<g>
		<path fill="#FFFFFF" d="M32.7,14.5h-1v2.3H32c1.2,0,1.6,0.9,1.6,2.1v16.3c0,1.2-0.5,2.1-1.6,2.1H18c-1.2,0-1.6-0.9-1.6-2.1V18.9
			c0-1.2,0.5-2.1,1.6-2.1h0.4v-2.3h-1.1c-1.7,0-3.2,1.4-3.2,3.2v19.1c0,1.7,1.4,3.2,3.2,3.2h15.4c1.7,0,3.2-1.4,3.2-3.2V17.6
			C35.9,15.9,34.4,14.5,32.7,14.5z"/>
		<path fill="#FFFFFF" d="M30.2,26H19.8c-0.6,0-1.1,0.2-1.1,0.8v0.7c0,0.6,0.5,0.8,1.1,0.8h10.4c0.6,0,1.1-0.2,1.1-0.8v-0.7
			C31.3,26.2,30.8,26,30.2,26z"/>
		<path fill="#FFFFFF" d="M30.2,21.3H19.8c-0.6,0-1.1,0.2-1.1,0.8v0.7c0,0.6,0.5,0.8,1.1,0.8h10.4c0.6,0,1.1-0.2,1.1-0.8v-0.7
			C31.3,21.5,30.8,21.3,30.2,21.3z"/>
		<path fill="#FFFFFF" d="M30.2,30.7H19.8c-0.6,0-1.1,0.2-1.1,0.8v0.7c0,0.6,0.5,0.8,1.1,0.8h10.4c0.6,0,1.1-0.2,1.1-0.8v-0.7
			C31.3,31,30.8,30.7,30.2,30.7z"/>
	</g>
	<path fill="#FFFFFF" d="M27,14.3c-0.1,0-0.2-0.1-0.1-0.2c0,0,0.6-0.9,0.6-1.5c0-1.4-1.1-2.5-2.5-2.5c-1.4,0-2.5,1.1-2.5,2.5
		c0,0.7,0.6,1.5,0.6,1.5c0.1,0.1,0,0.2-0.1,0.2h-3.6c-0.1,0-0.2,0.1-0.2,0.2v2.3c0,0.1,0.1,0.2,0.2,0.2h11.4c0.1,0,0.2-0.1,0.2-0.2
		v-2.3c0-0.1-0.1-0.2-0.2-0.2H27z M24.9,11c0.9,0,1.6,0.7,1.6,1.6c0,0.9-0.7,1.6-1.6,1.6c-0.9,0-1.6-0.7-1.6-1.6
		C23.3,11.8,24,11,24.9,11L24.9,11z"/>
</g>
</svg>
