<?xml version="1.0" encoding="utf-8"?>
<!-- Generator: Adobe Illustrator 19.1.0, SVG Export Plug-In . SVG Version: 6.00 Build 0)  -->
<svg version="1.1" id="Layer_1" xmlns="http://www.w3.org/2000/svg" xmlns:xlink="http://www.w3.org/1999/xlink" x="0px" y="0px"
	 viewBox="0 0 50 50" enable-background="new 0 0 50 50" xml:space="preserve">
<linearGradient id="SVGID_1_" gradientUnits="userSpaceOnUse" x1="25" y1="50" x2="25" y2="8.899838e-06">
	<stop  offset="0" style="stop-color:#A23316"/>
	<stop  offset="0.1514" style="stop-color:#BA4C20"/>
	<stop  offset="0.3678" style="stop-color:#D6692C"/>
	<stop  offset="0.5833" style="stop-color:#EB7D34"/>
	<stop  offset="0.7954" style="stop-color:#F78A39"/>
	<stop  offset="1" style="stop-color:#FB8E3B"/>
</linearGradient>
<path fill-rule="evenodd" clip-rule="evenodd" fill="url(#SVGID_1_)" d="M0,0v3.1h3.1v29.7c0,3.7,2.6,6.2,6.2,6.2h9.4L12.5,50l4.7,0
	l6.2-10.9h3.1L32.8,50l4.7,0l-6.2-10.9h9.4c3.7,0,6.2-2.5,6.2-6.2V3.1H50V0H0z M17.2,29.7c0,0.9-0.7,1.6-1.6,1.6
	c-0.9,0-1.6-0.7-1.6-1.6v-6.2c0-0.9,0.7-1.6,1.6-1.6c0.9,0,1.6,0.7,1.6,1.6V29.7z M26.6,29.7c0,0.9-0.7,1.6-1.6,1.6
	s-1.6-0.7-1.6-1.6V10.9c0-0.9,0.7-1.6,1.6-1.6s1.6,0.7,1.6,1.6V29.7z M35.9,29.7c0,0.9-0.7,1.6-1.6,1.6s-1.6-0.7-1.6-1.6V15.6
	c0-0.9,0.7-1.6,1.6-1.6s1.6,0.7,1.6,1.6V29.7z"/>
</svg>
