<?xml version="1.0" encoding="utf-8"?>
<!-- Generator: Adobe Illustrator 19.1.0, SVG Export Plug-In . SVG Version: 6.00 Build 0)  -->
<svg version="1.1" id="Layer_1" xmlns="http://www.w3.org/2000/svg" xmlns:xlink="http://www.w3.org/1999/xlink" x="0px" y="0px"
	 viewBox="0 0 50 50" style="enable-background:new 0 0 50 50;" xml:space="preserve">
<style type="text/css">
	.st0{fill:#FFFFFF;}
</style>
<g>
	<path class="st0" d="M30.6,33.6L26.1,31v-5.2c0-0.6-0.5-1.1-1.1-1.1c-0.6,0-1.1,0.5-1.1,1.1V31l-4.5,2.6c-0.5,0.3-0.7,1-0.4,1.5
		c0.2,0.3,0.6,0.5,0.9,0.5c0.2,0,0.4,0,0.5-0.1l4.5-2.6l4.5,2.6c0.2,0.1,0.4,0.1,0.5,0.1c0.4,0,0.7-0.2,0.9-0.5
		C31.3,34.5,31.1,33.9,30.6,33.6"/>
	<path class="st0" d="M29.4,14.5h-2.1l-2.3,3l-2.3-2.9h-2.1c-1.3,0-2.3,1-2.3,2.3V21c0,1,0.8,1.9,1.9,1.9h9.6c1,0,1.9-0.8,1.9-1.9
		v-4.2C31.7,15.6,30.6,14.5,29.4,14.5"/>
	<path class="st0" d="M24.9,13.4c2.1,0,3.8-1.7,3.8-3.8S27,5.8,24.9,5.8s-3.8,1.7-3.8,3.8C21.2,11.7,22.9,13.4,24.9,13.4"/>
	<path class="st0" d="M42.7,35.8h-2.1l-2.3,2.9L36,35.8h-2c-1.3,0-2.3,1-2.3,2.3v4.2c0,1,0.8,1.9,1.9,1.9h9.6c1,0,1.9-0.8,1.9-1.9
		v-4.2C45,36.9,44,35.8,42.7,35.8"/>
	<path class="st0" d="M38.3,34.6c2.1,0,3.8-1.7,3.8-3.8S40.4,27,38.3,27s-3.8,1.7-3.8,3.8C34.5,33,36.2,34.6,38.3,34.6"/>
	<path class="st0" d="M16,35.8h-2l-2.3,2.9l-2.3-2.9H7.3c-1.3,0-2.3,1-2.3,2.3v4.2c0,1,0.8,1.9,1.9,1.9h9.6c1,0,1.9-0.8,1.9-1.9
		v-4.2C18.3,36.9,17.3,35.8,16,35.8"/>
	<path class="st0" d="M11.6,34.6c2.1,0,3.8-1.7,3.8-3.8S13.7,27,11.6,27s-3.8,1.7-3.8,3.8C7.8,33,9.5,34.6,11.6,34.6"/>
</g>
</svg>
