<?xml version="1.0" encoding="utf-8"?>
<!-- Generator: Adobe Illustrator 21.1.0, SVG Export Plug-In . SVG Version: 6.00 Build 0)  -->
<svg version="1.1" id="Layer_1" xmlns="http://www.w3.org/2000/svg" xmlns:xlink="http://www.w3.org/1999/xlink" x="0px" y="0px"
	 viewBox="0 0 50 50" enable-background="new 0 0 50 50" xml:space="preserve">
<path fill="#FFFFFF" d="M42.5,20.8c-0.1-0.2-0.3-0.8-1.3-0.8h-4c-0.1,0-0.2-0.1-0.2-0.2l-1.2-3.8c-0.3-0.9-0.9-1-1.1-1
	c-0.2,0-0.8,0.1-1.1,1l-1.2,3.8c0,0.1-0.2,0.2-0.2,0.2h-4c-0.1,0-0.1,0-0.1,0l-0.4-1.3c-0.5-1.4-1.5-1.9-2.4-1.9
	c-0.9,0-2,0.5-2.4,1.9l-0.4,1.3c0,0-0.1,0-0.1,0h-4c-0.1,0-0.2-0.1-0.2-0.2l-1.2-3.8c-0.3-0.9-0.9-1-1.1-1s-0.8,0.1-1.1,1L13,19.9
	c0,0.1-0.2,0.2-0.2,0.2h-4c-0.9,0-1.2,0.5-1.3,0.8c-0.1,0.2-0.2,0.8,0.6,1.4l3.3,2.4c0.1,0,0.1,0.2,0.1,0.3l-1.2,3.8
	c-0.2,0.6,0,1,0.1,1.2c0.2,0.3,0.5,0.4,0.8,0.4c0.3,0,0.6-0.1,0.8-0.3l3.3-2.4c0,0,0.1,0,0.2,0c0.1,0,0.1,0,0.2,0l3.3,2.4
	c0,0,0.1,0.1,0.1,0.1l-0.5,1.4c-0.4,1.2,0,2,0.3,2.4c0.4,0.6,1.2,1,1.9,1c0.6,0,1.1-0.2,1.6-0.6l2.7-1.9l2.7,1.9
	c0.5,0.4,1.1,0.6,1.6,0.6c0.8,0,1.5-0.4,1.9-1c0.3-0.4,0.7-1.2,0.3-2.4l-0.5-1.4c0,0,0.1,0,0.1-0.1l3.3-2.4c0,0,0.1,0,0.2,0
	c0.1,0,0.1,0,0.2,0l3.3,2.4c0.3,0.2,0.6,0.3,0.8,0.3c0.3,0,0.6-0.2,0.8-0.4c0.2-0.2,0.3-0.6,0.1-1.2l-1.2-3.8c0-0.1,0-0.2,0.1-0.3
	l3.3-2.4C42.7,21.7,42.6,21.1,42.5,20.8z M32,24.8l-3.3,2.4c-0.3,0.2-0.5,0.7-0.3,1.1l1.3,3.9c0.1,0.3,0.1,0.5,0,0.6
	c-0.1,0.2-0.4,0.2-0.8,0l-3.3-2.4c-0.3-0.2-0.8-0.2-1.1,0l-3.3,2.4c-0.2,0.1-0.3,0.2-0.5,0.2c-0.1,0-0.2-0.1-0.3-0.1
	c-0.1-0.1-0.1-0.3,0-0.6l1.3-3.9c0.1-0.4,0-0.8-0.3-1.1L18,24.8c-0.3-0.2-0.4-0.5-0.3-0.6c0-0.1,0.2-0.3,0.6-0.3h4.1
	c0.4,0,0.8-0.3,0.9-0.7l1.3-3.9c0.1-0.4,0.3-0.5,0.5-0.5c0.1,0,0.3,0.1,0.5,0.5l1.3,3.9c0.1,0.4,0.5,0.7,0.9,0.7h4.1
	c0.4,0,0.6,0.2,0.6,0.3C32.4,24.3,32.3,24.6,32,24.8z"/>
</svg>
