<?xml version="1.0" encoding="utf-8"?>
<!-- Generator: Adobe Illustrator 19.1.0, SVG Export Plug-In . SVG Version: 6.00 Build 0)  -->
<svg version="1.1" id="Layer_1" xmlns="http://www.w3.org/2000/svg" xmlns:xlink="http://www.w3.org/1999/xlink" x="0px" y="0px"
	 viewBox="0 0 50 50" style="enable-background:new 0 0 50 50;" xml:space="preserve">
<style type="text/css">
	.st0{fill:#FFFFFF;}
</style>
<path class="st0" d="M31.9,9C31.8,9,20,9,20,9c-2.1,0-4,1.9-4,4h-1.2C12.7,13,11,15,11,17v20c0,2,1.9,4,4,4h15c2.1,0,4-1.9,4-4h1
	c2.1,0,4-1.9,4-4V17L31.9,9z M29.9,38.9h-15c-1.1,0-2-1-2-2V17c0-1.5,1.2-2,3-2v18c0,2,1.9,4,4,4c0,0,10.8,0,12,0
	C31.9,38.1,31.1,38.9,29.9,38.9z M31.9,29.9H23c-0.5,0-1-0.4-1-1s0.4-1,1-1h8.9c0.5,0,1,0.4,1,1C32.9,29.5,32.4,29.9,31.9,29.9z
	 M31.9,24.9H23c-0.5,0-1-0.4-1-1s0.4-1,1-1h8.9c0.5,0,1,0.4,1,1S32.4,24.9,31.9,24.9z M33.8,17c-1.1,0-2-1-2-2V11l0,0l5,6H33.8z"/>
</svg>
