<?xml version="1.0" encoding="utf-8"?>
<!-- Generator: Adobe Illustrator 19.1.0, SVG Export Plug-In . SVG Version: 6.00 Build 0)  -->
<svg version="1.1" id="Layer_1" xmlns="http://www.w3.org/2000/svg" xmlns:xlink="http://www.w3.org/1999/xlink" x="0px" y="0px"
	 viewBox="0 0 26 26" enable-background="new 0 0 26 26" xml:space="preserve">
<path fill="#FFFFFF" d="M16.4,10.2v1.3h-6.1c-0.7,0-1.3,0.6-1.3,1.3s0.6,1.3,1.3,1.3h6.1v1.3c0,0.5-0.1,0.9,0.2,1.1
	c0.3,0.3,0.7,0.3,1,0l4-3.3c0.1-0.1,0.2-0.3,0.2-0.5s-0.1-0.4-0.2-0.5l-4-3.3c-0.3-0.3-0.7-0.3-1,0C16.3,9.4,16.4,10,16.4,10.2z
	 M11,21.6c0-0.7-0.6-1.3-1.3-1.3H6.9V5.6h2.7C10.4,5.6,11,5,11,4.2c0-0.7-0.6-1.3-1.4-1.3H4.9c-0.3,0-0.7,0.3-0.7,0.7v18.7
	c0,0.4,0.3,0.7,0.7,0.7h4.7C10.4,22.9,11,22.3,11,21.6z"/>
</svg>
