<?xml version="1.0" encoding="utf-8"?>
<!-- Generator: Adobe Illustrator 21.1.0, SVG Export Plug-In . SVG Version: 6.00 Build 0)  -->
<svg version="1.1" id="Layer_1" xmlns="http://www.w3.org/2000/svg" xmlns:xlink="http://www.w3.org/1999/xlink" x="0px" y="0px"
	 viewBox="0 0 50 50" enable-background="new 0 0 50 50" xml:space="preserve">
<g>
	<path fill="#FFFFFF" d="M21.1,13.3v22.2c0,0.2,0.5,0.9,1.2,0.9h5.5c0.6,0,1.2-0.7,1.2-0.9V13.3c0-0.2-0.5-0.9-1.2-0.9h-5.5
		C21.6,12.4,21.1,13.2,21.1,13.3z M21.9,32.9l0.1-0.1h5.9l0.1,0.1v0.6l-0.1,0.1h-5.9l-0.1-0.1V32.9z M21.9,18.7l0.1-0.1h5.9l0.1,0.1
		v0.6l-0.1,0.1h-5.9l-0.1-0.1V18.7z M21.9,15.8l0.1-0.1h5.9l0.1,0.1v0.6l-0.1,0.1h-5.9l-0.1-0.1V15.8z"/>
	<path fill="#FFFFFF" d="M29.8,13.3v22.2c0,0.2,0.5,0.9,1.2,0.9h5.5c0.6,0,1.2-0.7,1.2-0.9V13.3c0-0.2-0.5-0.9-1.2-0.9h-5.5
		C30.3,12.4,29.8,13.2,29.8,13.3z M30.5,32.9l0.1-0.1h5.9l0.1,0.1v0.6l-0.1,0.1h-5.9l-0.1-0.1V32.9z M30.5,18.7l0.1-0.1h5.9l0.1,0.1
		v0.6l-0.1,0.1h-5.9l-0.1-0.1V18.7z M30.5,15.8l0.1-0.1h5.9l0.1,0.1v0.6l-0.1,0.1h-5.9l-0.1-0.1V15.8z"/>
	<path fill="#FFFFFF" d="M12.3,13.3v22.2c0,0.2,0.5,0.9,1.2,0.9h5.5c0.6,0,1.2-0.7,1.2-0.9V13.3c0-0.2-0.5-0.9-1.2-0.9h-5.5
		C12.8,12.4,12.3,13.2,12.3,13.3z M13,32.9l0.1-0.1H19l0.1,0.1v0.6L19,33.7h-5.9L13,33.6V32.9z M13,18.7l0.1-0.1H19l0.1,0.1v0.6
		L19,19.5h-5.9L13,19.3V18.7z M13,15.8l0.1-0.1H19l0.1,0.1v0.6L19,16.6h-5.9L13,16.5V15.8z"/>
	<rect x="10.8" y="36.5" fill="#FFFFFF" width="28.5" height="1.1"/>
</g>
</svg>
