<?xml version="1.0" encoding="utf-8"?>
<!-- Generator: Adobe Illustrator 21.1.0, SVG Export Plug-In . SVG Version: 6.00 Build 0)  -->
<svg version="1.1" id="Layer_1" xmlns="http://www.w3.org/2000/svg" xmlns:xlink="http://www.w3.org/1999/xlink" x="0px" y="0px"
	 viewBox="0 0 50 50" enable-background="new 0 0 50 50" xml:space="preserve">
<path fill="#FFFFFF" d="M41.5,26.1c-0.5-1.3-1.9-2-3.3-1.5l-0.8,0.3l-2.1-6.1c-0.4-1.3-1.7-2.2-3.1-2.2c-0.4,0-0.7,0.1-1.1,0.2
	l-4.7,1.6l-5.1-4.3c0,0-1.2-1.8-5.1-0.1l-8,3.2v7.9l6.4,0c0,0,0.1,0,0.1,0l1.9,0.2l2.1,6.1L18,31.8c-1.3,0.5-2,1.9-1.5,3.3
	c0.4,1,1.4,1.7,2.4,1.7c0.3,0,0.6,0,0.9-0.2L40,29.4C41.3,28.9,42,27.4,41.5,26.1z M18.7,21.1c-0.1,0-0.1,0.1-0.2,0.1l-0.2,0
	c0-0.2,0.1-0.4,0.1-0.5c0.3-0.8,1.9-1.5,1.9-1.5S21,19.4,22,20L18.7,21.1z M19.5,34l1.7-2l0.9,2.5L19.5,34z M20.7,30.8l-1.8-5.2
	l4.4,0.5c0.1,0,0.2,0,0.3,0c1.1,0,2-0.8,2.2-1.9c0.1-1.2-0.7-2.3-1.9-2.4l-0.9-0.1l9-3.1c0.1,0,0.3-0.1,0.4-0.1c0.5,0,1,0.3,1.2,0.8
	l2.1,6.1L20.7,30.8z"/>
</svg>
