<?xml version="1.0" encoding="utf-8"?>
<!-- Generator: Adobe Illustrator 21.1.0, SVG Export Plug-In . SVG Version: 6.00 Build 0)  -->
<svg version="1.1" id="Layer_1" xmlns="http://www.w3.org/2000/svg" xmlns:xlink="http://www.w3.org/1999/xlink" x="0px" y="0px"
	 viewBox="0 0 50 50" enable-background="new 0 0 50 50" xml:space="preserve">
<g>
	<path fill-rule="evenodd" clip-rule="evenodd" fill="#FFFFFF" d="M29.3,31.6l-3.5-2v-4c0-0.5-0.4-0.8-0.8-0.8
		c-0.5,0-0.8,0.4-0.8,0.8v4l-3.5,2c-0.4,0.2-0.5,0.7-0.3,1.1c0.2,0.3,0.4,0.4,0.7,0.4c0.1,0,0.3,0,0.4-0.1l3.5-2l3.5,2
		c0.1,0.1,0.3,0.1,0.4,0.1c0.3,0,0.6-0.1,0.7-0.4C29.9,32.4,29.7,31.8,29.3,31.6"/>
	<path fill-rule="evenodd" clip-rule="evenodd" fill="#FFFFFF" d="M28.4,16.9h-1.6L25,19.2l-1.8-2.2h-1.6c-1,0-1.8,0.8-1.8,1.8v3.2
		c0,0.8,0.6,1.4,1.4,1.4h7.4c0.8,0,1.4-0.6,1.4-1.4v-3.2C30.1,17.7,29.4,16.9,28.4,16.9"/>
	<path fill-rule="evenodd" clip-rule="evenodd" fill="#FFFFFF" d="M25,16c1.6,0,2.9-1.3,2.9-2.9c0-1.6-1.3-2.9-2.9-2.9
		c-1.6,0-2.9,1.3-2.9,2.9C22,14.7,23.3,16,25,16"/>
	<path fill-rule="evenodd" clip-rule="evenodd" fill="#FFFFFF" d="M38.7,33.4h-1.6l-1.8,2.3l-1.8-2.3h-1.6c-1,0-1.8,0.8-1.8,1.8v3.2
		c0,0.8,0.6,1.4,1.4,1.4H39c0.8,0,1.4-0.6,1.4-1.4v-3.2C40.5,34.2,39.7,33.4,38.7,33.4"/>
	<path fill-rule="evenodd" clip-rule="evenodd" fill="#FFFFFF" d="M35.3,32.5c1.6,0,2.9-1.3,2.9-2.9c0-1.6-1.3-2.9-2.9-2.9
		c-1.6,0-2.9,1.3-2.9,2.9C32.4,31.2,33.7,32.5,35.3,32.5"/>
	<path fill-rule="evenodd" clip-rule="evenodd" fill="#FFFFFF" d="M18.1,33.4h-1.6l-1.8,2.3l-1.8-2.3h-1.6c-1,0-1.8,0.8-1.8,1.8v3.2
		c0,0.8,0.6,1.4,1.4,1.4h7.4c0.8,0,1.4-0.6,1.4-1.4v-3.2C19.8,34.2,19,33.4,18.1,33.4"/>
	<path fill-rule="evenodd" clip-rule="evenodd" fill="#FFFFFF" d="M14.6,32.5c1.6,0,2.9-1.3,2.9-2.9c0-1.6-1.3-2.9-2.9-2.9
		s-2.9,1.3-2.9,2.9C11.7,31.2,13,32.5,14.6,32.5"/>
</g>
</svg>
