<?xml version="1.0" encoding="utf-8"?>
<!-- Generator: Adobe Illustrator 21.1.0, SVG Export Plug-In . SVG Version: 6.00 Build 0)  -->
<svg version="1.1" id="Layer_1" xmlns="http://www.w3.org/2000/svg" xmlns:xlink="http://www.w3.org/1999/xlink" x="0px" y="0px"
	 viewBox="0 0 50 50" enable-background="new 0 0 50 50" xml:space="preserve">
<g>
	<path fill="#FFFFFF" d="M28.3,14.3c-3.9-3.9-10.2-3.9-14,0s-3.9,10.2,0,14c3.7,3.7,9.5,3.8,13.4,0.6c0.7,1.7,2.7,4.4,4.8,6.4
		c2.9,2.9,4.7,3.4,5.5,2.6c0.8-0.8,0.3-2.7-2.6-5.5c-2.1-2.1-4.8-4.1-6.4-4.8C32.2,23.8,32,18,28.3,14.3z M27.1,27.1
		c-3.2,3.2-8.4,3.2-11.7,0s-3.2-8.4,0-11.7s8.4-3.2,11.7,0S30.4,23.9,27.1,27.1z"/>
	<path fill="#FFFFFF" d="M18.4,15.4c-0.2,0.2-0.2,0.6,0,0.8c0.2,0.2,0.6,0.3,0.8,0c0.1-0.1,2.4-2,6.5,0.9c0.2,0.2,0.5,0.1,0.7-0.1
		c0,0,0,0,0.1-0.1c0.2-0.3,0.1-0.6-0.1-0.8C21.4,12.8,18.5,15.3,18.4,15.4z"/>
</g>
</svg>
