<?xml version="1.0" encoding="utf-8"?>
<!-- Generator: Adobe Illustrator 21.1.0, SVG Export Plug-In . SVG Version: 6.00 Build 0)  -->
<svg version="1.1" id="Layer_1" xmlns="http://www.w3.org/2000/svg" xmlns:xlink="http://www.w3.org/1999/xlink" x="0px" y="0px"
	 viewBox="0 0 50 50" enable-background="new 0 0 50 50" xml:space="preserve">
<g>
	<path fill-rule="evenodd" clip-rule="evenodd" fill="#FFFFFF" d="M35.1,27.9c-1.3,4.4-5.3,7.6-10.1,7.6c-3.8,0-7.2-2-9-5.1l1.5-1.5
		c0.6-0.6,0.4-1-0.4-1h-5.9v5.9c0,0.8,0.5,1,1,0.4l1.4-1.4c2.5,3.6,6.7,6,11.4,6c6.6,0,12.2-4.7,13.5-10.9H35.1z"/>
	<path fill-rule="evenodd" clip-rule="evenodd" fill="#FFFFFF" d="M14.9,22.1c1.3-4.4,5.3-7.6,10.1-7.6c3.8,0,7.2,2.1,9,5.1L32.5,21
		c-0.6,0.6-0.4,1,0.4,1h5.9v-5.9c0-0.8-0.5-1-1-0.4l-1.5,1.5c-2.5-3.6-6.7-6-11.4-6c-6.6,0-12.2,4.7-13.5,10.9H14.9z"/>
	<path fill-rule="evenodd" clip-rule="evenodd" fill="#FFFFFF" d="M29.6,27.4c0-2.1-2.3-3.8-5-3.8c-0.7,0-1.3-0.5-1.3-1.1
		c0-0.6,0.6-1.1,1.3-1.1c0.6,0,1.2,0.4,1.3,0.8h3.7c-0.1-1.7-1.6-2.8-3.2-3.3v-1h-3.7v1c-1.7,0.6-3.2,1.8-3.2,3.5
		c0,2.1,2.3,3.8,5.1,3.8c0.7,0,1.3,0.5,1.3,1.1c0,0.6-0.6,1.1-1.3,1.1c-0.6,0-1.2-0.4-1.3-0.8h-3.7c0.1,1.7,1.6,2.8,3.2,3.3v1h3.7
		v-1C28.1,30.4,29.6,29.2,29.6,27.4"/>
</g>
</svg>
