<?xml version="1.0" encoding="utf-8"?>
<!-- Generator: Adobe Illustrator 21.1.0, SVG Export Plug-In . SVG Version: 6.00 Build 0)  -->
<svg version="1.1" id="Layer_1" xmlns="http://www.w3.org/2000/svg" xmlns:xlink="http://www.w3.org/1999/xlink" x="0px" y="0px"
	 viewBox="0 0 50 50" enable-background="new 0 0 50 50" xml:space="preserve">
<g>
	<path fill="#FFFFFF" d="M37.8,22.4l-0.3-0.6c0,0,0,0,0,0L35,16.5l-2.8-5.9c-0.2-0.5-0.8-0.7-1.3-0.4l-0.6,0.3c0,0,0,0,0,0
		l-15.7,7.8c0,0,0,0,0,0l-0.6,0.3c-0.5,0.2-0.7,0.8-0.4,1.3l0.3,0.6c0,0,0,0,0,0L18.9,31c0,0,0,0,0,0l0.3,0.6
		c0.1,0.1,0.2,0.2,0.3,0.3v-4.9l-1.3-2.6l14.7-7.3l2.5,5.1l-8.8,4.4v2.5l2.4-1.2l8.5-4.2C37.9,23.5,38.1,22.9,37.8,22.4z M16.9,21.7
		L16,19.9l14.7-7.2l0.8,1.7L16.9,21.7z"/>
	<path fill="#FFFFFF" d="M25.3,25.9c0-1.3-1-2.3-2.3-2.3c-1.3,0-2.3,1-2.3,2.3v7.5c-0.2,0.1-0.4,0.1-0.6,0.1c-0.9,0-1.7-0.5-2-1.3
		l-3-6.2l-2.3,3.5c0,0-1.8,1.5,0.5,5.4l4.4,5.1h8.5l-0.9-7.7V25.9z"/>
</g>
</svg>
