<?xml version="1.0" encoding="utf-8"?>
<!-- Generator: Adobe Illustrator 21.0.2, SVG Export Plug-In . SVG Version: 6.00 Build 0)  -->
<svg version="1.1" id="圖層_1" xmlns="http://www.w3.org/2000/svg" xmlns:xlink="http://www.w3.org/1999/xlink" x="0px" y="0px"
	 viewBox="0 0 36 36" style="enable-background:new 0 0 36 36;" xml:space="preserve">
<style type="text/css">
	.st0{fill:#FFFFFF;}
</style>
<path class="st0" d="M24,0.4H12C5.6,0.4,0.4,5.6,0.4,12V24c0,6.4,5.2,11.6,11.6,11.6H24c6.4,0,11.6-5.2,11.6-11.6V12
	C35.6,5.6,30.4,0.4,24,0.4z M33.6,24c0,5.3-4.3,9.6-9.6,9.6H12c-5.3,0-9.6-4.3-9.6-9.6V12c0-5.3,4.3-9.6,9.6-9.6H24
	c5.3,0,9.6,4.3,9.6,9.6V24z M18,10.2c-4.3,0-7.8,3.5-7.8,7.8s3.5,7.8,7.8,7.8s7.8-3.5,7.8-7.8S22.3,10.2,18,10.2z M18,23.8
	c-3.2,0-5.8-2.6-5.8-5.8s2.6-5.8,5.8-5.8s5.8,2.6,5.8,5.8S21.2,23.8,18,23.8z M26.5,6.8c-1.5,0-2.7,1.2-2.7,2.7s1.2,2.7,2.7,2.7
	s2.7-1.2,2.7-2.7S28,6.8,26.5,6.8z M26.5,10.2c-0.4,0-0.7-0.3-0.7-0.7s0.3-0.7,0.7-0.7s0.7,0.3,0.7,0.7S26.9,10.2,26.5,10.2z"/>
</svg>
