<?xml version="1.0" encoding="utf-8"?>
<!-- Generator: Adobe Illustrator 19.1.0, SVG Export Plug-In . SVG Version: 6.00 Build 0)  -->
<svg version="1.1" id="Layer_1" xmlns="http://www.w3.org/2000/svg" xmlns:xlink="http://www.w3.org/1999/xlink" x="0px" y="0px"
	 viewBox="0 0 20 20" style="enable-background:new 0 0 20 20;" xml:space="preserve">
<style type="text/css">
	.st0{fill:#FFFFFF;}
</style>
<g>
	<path class="st0" d="M4,14.9c-0.3-1.2-0.6-2.5-0.6-3.9c-1.1-0.1-2.3-0.3-3.4-0.6c0.1,1.4,0.4,2.8,1,4C2,14.6,3,14.8,4,14.9z"/>
	<path class="st0" d="M14.7,5.5c-1.2,0.1-2.5,0.1-4.1,0.1v4.5c1.8,0,3.5-0.1,4.9-0.3C15.5,8.5,15.2,7.1,14.7,5.5z"/>
	<path class="st0" d="M11.8,0.1C11.4,0.1,11,0,10.7,0v4.4c1.4,0,2.6-0.1,3.7-0.1C13.7,3,12.9,1.6,11.8,0.1z"/>
	<path class="st0" d="M16.7,9.7c1.3-0.2,2.4-0.3,3-0.5c0.1,0,0.2-0.1,0.3-0.1c-0.1-1.4-0.5-2.7-1.2-4c-0.5,0.1-1.4,0.1-2.9,0.3
		C16.4,6.9,16.7,8.4,16.7,9.7z"/>
	<path class="st0" d="M16.1,14.9c1.4-0.2,2.5-0.4,2.8-0.5c0.1,0,0.1,0,0.1,0c0.6-1.2,1-2.6,1-4c-0.7,0.1-1.8,0.3-3.3,0.5
		C16.7,12.4,16.4,13.7,16.1,14.9z"/>
	<path class="st0" d="M9.4,20v-3.5c-1.2,0-2.4-0.1-3.7-0.2c0.8,1.9,1.6,3.1,1.8,3.3v0.1l-0.1,0.1C8.1,19.9,8.8,20,9.4,20z"/>
	<path class="st0" d="M9.4,4.4V0C9,0,8.7,0.1,8.3,0.1C7.2,1.6,6.4,3,5.8,4.3C7.1,4.4,8.3,4.4,9.4,4.4z"/>
	<path class="st0" d="M12.5,19.6L12.5,19.6c0.1-0.1,0.1-0.1,0.1-0.1c0.1-0.1,0.2-0.3,0.3-0.5c0.3-0.5,0.7-1,1-1.9
		c0.1-0.3,0.2-0.5,0.3-0.8c-1.1,0.1-2.4,0.1-3.7,0.2V20c0.7-0.1,1.4-0.1,2-0.3L12.5,19.6z"/>
	<path class="st0" d="M15.5,11c-1.4,0.1-3.1,0.3-4.9,0.3v3.9c1.6,0,3-0.1,4.2-0.2C15.2,13.9,15.4,12.5,15.5,11z"/>
	<path class="st0" d="M14.3,19.1c1-0.5,2-1.2,2.7-2c0.4-0.4,0.8-0.8,1.1-1.3c-0.6,0.1-1.4,0.3-2.5,0.4
		C15.2,17.4,14.8,18.4,14.3,19.1z"/>
	<path class="st0" d="M9.4,5.6c-1.2,0-2.6-0.1-4-0.1c-0.5,1.6-0.8,3-0.8,4.4c1.7,0.2,3.3,0.3,4.8,0.3L9.4,5.6L9.4,5.6z"/>
	<path class="st0" d="M1.8,15.8c0.3,0.5,0.7,0.9,1.1,1.3c0.8,0.8,1.8,1.5,2.9,2c-0.5-0.7-1-1.7-1.4-2.9C3.5,16,2.7,15.9,1.8,15.8z"
		/>
	<path class="st0" d="M4.2,5.4c-1-0.1-2-0.1-2.9-0.3c-0.7,1.2-1.1,2.5-1.2,4c1.1,0.3,2.3,0.5,3.4,0.6C3.5,8.4,3.7,6.9,4.2,5.4z"/>
	<path class="st0" d="M9.4,11.3c-1.5,0-3.1-0.1-4.8-0.3c0.1,1.4,0.3,2.8,0.7,3.9c1.4,0.1,2.8,0.2,4.1,0.3V11.3z"/>
	<path class="st0" d="M6.5,0.6C5.1,1.1,3.9,1.9,2.9,2.9C2.5,3.2,2.2,3.6,1.9,4c0.9,0.1,1.8,0.2,2.7,0.3C5,3.1,5.7,1.8,6.5,0.6z"/>
	<path class="st0" d="M18.1,4.1c-0.3-0.4-0.7-0.8-1-1.2c-1-1-2.2-1.8-3.5-2.3c0.8,1.2,1.4,2.4,1.9,3.6C16.6,4.2,17.5,4.1,18.1,4.1z"
		/>
</g>
</svg>
