<?xml version="1.0" encoding="utf-8"?>
<!-- Generator: Adobe Illustrator 19.1.0, SVG Export Plug-In . SVG Version: 6.00 Build 0)  -->
<svg version="1.1" id="Layer_1" xmlns="http://www.w3.org/2000/svg" xmlns:xlink="http://www.w3.org/1999/xlink" x="0px" y="0px"
	 viewBox="0 0 30 30" style="enable-background:new 0 0 30 30;" xml:space="preserve">
<style type="text/css">
	.st0{fill:#F0B426;}
	.st1{fill:#FFFFFF;}
</style>
<circle class="st0" cx="15" cy="15" r="15"/>
<path class="st1" d="M23.5,15.2v2.2c0,0.9-0.7,1.6-1.6,1.6h-0.5c-0.2,1.9-1.8,3.4-3.8,3.4h-1.1c-0.2,0.4-0.5,0.7-1,0.7h-1.1
	c-0.6,0-1.1-0.5-1.1-1.1c0-0.6,0.5-1.1,1.1-1.1h1.1c0.5,0,0.9,0.3,1,0.7h1.1c1.7,0,2.9-1.3,2.9-2.9v-1.2V14v-0.6
	c0-3.1-2.5-5.6-5.6-5.6s-5.6,2.5-5.6,5.6V14v3.3v1.2c0,0.2-0.2,0.4-0.4,0.4H8.1c-0.9,0-1.6-0.7-1.6-1.6v-2.2c0-0.9,0.7-1.6,1.6-1.6
	h0.4v-0.2C8.6,9.9,11.5,7,15,7s6.4,2.9,6.4,6.4v0.2h0.4C22.8,13.7,23.5,14.4,23.5,15.2z"/>
</svg>
