<?xml version="1.0" encoding="utf-8"?>
<!-- Generator: Adobe Illustrator 21.0.2, SVG Export Plug-In . SVG Version: 6.00 Build 0)  -->
<svg version="1.1" id="Layer_1" xmlns="http://www.w3.org/2000/svg" xmlns:xlink="http://www.w3.org/1999/xlink" x="0px" y="0px"
	 viewBox="0 0 220 415.7" style="enable-background:new 0 0 220 415.7;" xml:space="preserve">
<style type="text/css">
	.st0{fill:#FFFFFF;}
</style>
<g>
	<path class="st0" d="M30.3,277.6c0.1,0,0.2,0.1,0.2,0.2c0.1,0.1,0,0.3,0,0.3c-1.4,1-2.5,1.6-3.6,2s-2.2,0.6-3.3,0.6
		c-1.9,0-3.5-0.5-4.8-1.6c-1.3-1.1-1.9-2.8-1.9-5.2v-13c0-0.8-0.1-1.3-0.2-1.6c-0.1-0.3-0.4-0.6-0.7-0.7c-0.3-0.1-0.9-0.2-1.7-0.2
		c-0.1,0-0.1-0.1-0.1-0.4c0-0.2,0-0.3,0.1-0.3c1.5,0,2.7-0.4,3.7-1.1c1-0.7,1.6-1.6,1.8-2.7c0-0.1,0.1-0.1,0.3-0.1
		c0.1,0,0.2,0,0.3,0c0.1,0,0.1,0.1,0.1,0.1v3.6c1.8,0,4.7-0.2,8.7-0.4c0.1,0,0.2,0.1,0.2,0.3c0.1,0.2,0.1,0.5,0.1,0.8
		c0,0.3-0.1,0.7-0.2,1c-0.1,0.3-0.2,0.5-0.3,0.4c-2.5-0.6-5.3-0.9-8.5-1v13.9c0,2.2,0.4,3.8,1.2,4.9c0.8,1.1,2.1,1.6,3.8,1.6
		C27.3,279,28.9,278.6,30.3,277.6L30.3,277.6z M60.7,279.9c0,0.2,0,0.3-0.1,0.3c-1,0-1.8,0-2.3,0l-3,0l-3.2,0c-0.5,0-1.3,0-2.2,0
		c-0.1,0-0.1-0.1-0.1-0.3s0-0.3,0.1-0.3c1.1,0,1.8-0.1,2.3-0.2c0.5-0.2,0.8-0.5,1-1c0.2-0.5,0.2-1.2,0.2-2.2V269H40.1v7.2
		c0,1,0.1,1.7,0.2,2.2s0.5,0.8,1,1s1.2,0.2,2.3,0.2c0.1,0,0.1,0.1,0.1,0.3s0,0.3-0.1,0.3c-1,0-1.7,0-2.2,0l-3.1,0l-3.1,0
		c-0.6,0-1.3,0-2.3,0c-0.1,0-0.1-0.1-0.1-0.3s0-0.3,0.1-0.3c1.1,0,1.8-0.1,2.3-0.2s0.8-0.5,1-1c0.2-0.5,0.3-1.2,0.3-2.2V261
		c0-1-0.1-1.7-0.3-2.2c-0.2-0.5-0.5-0.8-1-1c-0.5-0.2-1.2-0.3-2.3-0.3c-0.1,0-0.1-0.1-0.1-0.3s0-0.3,0.1-0.3l2.2,0
		c1.3,0.1,2.3,0.1,3.1,0.1c0.8,0,1.8,0,3.2-0.1l2.2,0c0.1,0,0.1,0.1,0.1,0.3s0,0.3-0.1,0.3c-1,0-1.8,0.1-2.3,0.3
		c-0.5,0.2-0.8,0.5-1,1c-0.2,0.5-0.3,1.2-0.3,2.2v6.9h13.2v-6.9c0-1-0.1-1.7-0.2-2.2c-0.2-0.5-0.5-0.8-1-1c-0.5-0.2-1.3-0.3-2.3-0.3
		c-0.1,0-0.1-0.1-0.1-0.3s0-0.3,0.1-0.3l2.2,0c1.3,0.1,2.3,0.1,3.2,0.1c0.8,0,1.8,0,3-0.1l2.3,0c0.1,0,0.1,0.1,0.1,0.3
		s0,0.3-0.1,0.3c-1.1,0-1.8,0.1-2.3,0.3c-0.5,0.2-0.8,0.5-1,1c-0.2,0.5-0.3,1.2-0.3,2.2v15.2c0,1,0.1,1.7,0.3,2.2s0.5,0.8,1,1
		s1.3,0.2,2.3,0.2C60.6,279.6,60.7,279.7,60.7,279.9z M82.6,277.5c0.1,0,0.2,0.1,0.3,0.2c0.1,0.1,0.1,0.2,0,0.3
		c-2.3,1.8-4.9,2.8-7.6,2.8c-2.4,0-4.5-0.6-6.2-1.7c-1.7-1.1-3-2.6-3.9-4.3s-1.3-3.7-1.3-5.7c0-2.3,0.6-4.4,1.7-6.3s2.6-3.5,4.4-4.6
		c1.8-1.1,3.9-1.7,6-1.7c2.3,0,4,0.6,5.2,1.9c1.2,1.3,1.8,2.9,1.8,5c0,0.4,0,0.6-0.1,0.8c-0.1,0.1-0.2,0.2-0.5,0.2l-14.4,0
		c-0.1,1.1-0.2,2-0.2,2.8c0,3.5,0.8,6.4,2.5,8.6c1.7,2.2,4,3.3,6.9,3.3c0.9,0,1.9-0.1,2.8-0.4C81,278.4,81.8,278.1,82.6,277.5
		L82.6,277.5z M70.5,259.2c-1.1,1.1-1.8,2.5-2.3,4.5l10.7-0.2c0-1.9-0.3-3.3-1.1-4.3c-0.8-1-1.9-1.5-3.4-1.5
		C72.9,257.6,71.6,258.1,70.5,259.2z M23.5,291.7c1.7,0.3,3.1,0.7,4.2,1.3c0.3,0.1,0.5,0.2,0.5,0.4c0.1,0.1,0.1,0.3,0.2,0.7l0.5,6.1
		c0,0.1-0.1,0.2-0.3,0.2c-0.2,0-0.3,0-0.4-0.2c-1.9-5.3-5.4-7.9-10.6-7.9c-2,0-3.8,0.5-5.3,1.6c-1.5,1.1-2.7,2.6-3.6,4.5
		c-0.9,1.9-1.3,4.1-1.3,6.5c0,2.5,0.4,4.8,1.3,7c0.9,2.2,2.2,4.1,3.9,5.5c1.8,1.4,3.9,2.1,6.4,2.1c2.3,0,4.2-0.7,5.8-2
		c1.6-1.3,2.9-3.3,3.8-6.1c0-0.2,0.2-0.2,0.4-0.2c0.2,0,0.3,0.1,0.3,0.2l-0.7,6.3c0,0.3-0.1,0.5-0.2,0.7c-0.1,0.1-0.3,0.3-0.7,0.4
		c-3.1,1.1-6.2,1.6-9.5,1.6c-3.8,0-6.9-0.8-9.3-2.3c-2.4-1.5-4.2-3.4-5.3-5.6c-1.1-2.3-1.6-4.5-1.6-6.8c0-2.7,0.7-5.2,2.1-7.4
		c1.4-2.2,3.4-3.9,5.9-5.2c2.5-1.3,5.3-1.9,8.3-1.9C20.1,291.3,21.8,291.4,23.5,291.7z M66.4,292.4c0,0.2,0,0.4-0.1,0.4
		c-1.1,0-2,0.1-2.6,0.3c-0.6,0.2-1,0.6-1.2,1.2c-0.2,0.6-0.3,1.4-0.3,2.6V315c0,1.2,0.1,2.1,0.3,2.6c0.2,0.6,0.6,1,1.1,1.2
		c0.5,0.2,1.4,0.3,2.5,0.3c0.1,0,0.2,0.1,0.2,0.4c0,0.2-0.1,0.4-0.2,0.4l-3.9-0.1l-3.3,0.1c-0.5,0-0.8-0.1-0.9-0.2
		c-0.1-0.1-0.2-0.4-0.2-1v-3.4c-1.7,1.8-3.5,3.2-5.3,4c-1.8,0.9-3.8,1.3-5.8,1.3c-2.8,0-5.1-0.7-7-2.2c-1.8-1.5-2.8-3.6-2.8-6.3
		v-15.2c0-1.2-0.1-2.1-0.2-2.6c-0.2-0.6-0.5-0.9-0.9-1.2c-0.4-0.2-1.1-0.3-2-0.3c-0.1,0-0.1-0.1-0.1-0.4s0-0.4,0.1-0.4l2.3,0.1
		c1.3,0.1,2.3,0.1,3.1,0.1c1,0,2.2,0,3.7-0.1l2.4-0.1c0.1,0,0.1,0.1,0.1,0.4s0,0.4-0.1,0.4c-1.1,0-2,0.1-2.6,0.4
		c-0.6,0.2-0.9,0.6-1.1,1.2c-0.2,0.6-0.3,1.5-0.3,2.6v13.2c0,5.8,2.4,8.7,7.2,8.7c1.7,0,3.2-0.4,4.7-1.2c1.5-0.8,3-2,4.5-3.8v-16.9
		c0-1.2-0.1-2.1-0.3-2.6c-0.2-0.6-0.6-1-1.1-1.2c-0.5-0.2-1.4-0.4-2.5-0.4c-0.1,0-0.1-0.1-0.1-0.4s0-0.4,0.1-0.4l2.7,0.1
		c1.5,0.1,2.7,0.1,3.6,0.1c0.8,0,2,0,3.4-0.1l2.7-0.1C66.4,292,66.4,292.1,66.4,292.4z M101.1,319.5c0,0.2-0.1,0.4-0.2,0.4h-7.8
		c-0.6,0-1.8-1.2-3.6-3.6c-1.7-2.4-3.8-5.6-6.2-9.8c-0.8,0.1-1.7,0.2-2.5,0.2s-1.5,0-1.9-0.1v8.4c0,1.2,0.1,2.1,0.3,2.7
		c0.2,0.6,0.6,0.9,1.1,1.1c0.6,0.2,1.5,0.3,2.7,0.3c0.1,0,0.2,0.1,0.2,0.4c0,0.2-0.1,0.4-0.2,0.4c-1.1,0-2,0-2.6-0.1l-3.8-0.1
		l-3.7,0.1c-0.7,0-1.6,0.1-2.8,0.1c-0.1,0-0.1-0.1-0.1-0.4c0-0.2,0-0.4,0.1-0.4c1.3,0,2.2-0.1,2.8-0.3c0.6-0.2,1-0.6,1.2-1.2
		c0.2-0.6,0.3-1.5,0.3-2.6v-18.2c0-1.2-0.1-2.1-0.3-2.6c-0.2-0.6-0.6-0.9-1.2-1.2s-1.5-0.3-2.6-0.3c-0.1,0-0.2-0.1-0.2-0.4
		s0.1-0.4,0.2-0.4l2.7,0.1c1.5,0.1,2.7,0.1,3.6,0.1c0.8,0,1.4,0,2.1-0.1c0.6,0,1.1-0.1,1.6-0.1c1.2-0.1,2.4-0.2,3.5-0.2
		c2.7,0,4.8,0.5,6.3,1.5s2.2,2.4,2.2,4.3c0,1.6-0.5,3-1.4,4.4c-0.9,1.3-2.2,2.4-3.8,3.2c2.2,3.6,4,6.4,5.6,8.4
		c1.5,2,2.9,3.4,4.2,4.2c1.3,0.9,2.7,1.3,4.1,1.3C101.1,319.1,101.1,319.2,101.1,319.5z M81.3,305.6c2.4,0,4-0.5,5-1.6
		c0.9-1.1,1.4-2.7,1.4-4.8c0-4.3-1.8-6.4-5.3-6.4c-1.4,0-2.3,0.3-2.7,0.9c-0.4,0.6-0.7,1.7-0.7,3.3v8.5
		C79.8,305.5,80.6,305.6,81.3,305.6z M111.6,317.7c0.2,0.6,0.6,1,1.2,1.2c0.6,0.2,1.5,0.3,2.8,0.3c0.1,0,0.2,0.1,0.2,0.4
		c0,0.2-0.1,0.4-0.2,0.4c-1.1,0-2,0-2.7-0.1l-3.8-0.1l-3.7,0.1c-0.7,0-1.6,0.1-2.8,0.1c-0.1,0-0.1-0.1-0.1-0.4c0-0.2,0-0.4,0.1-0.4
		c1.3,0,2.2-0.1,2.8-0.3c0.6-0.2,1-0.6,1.2-1.2s0.3-1.5,0.3-2.6v-18.2c0-1.2-0.1-2.1-0.3-2.6s-0.6-0.9-1.2-1.2
		c-0.6-0.2-1.5-0.3-2.8-0.3c-0.1,0-0.1-0.1-0.1-0.4s0-0.4,0.1-0.4l2.8,0.1c1.5,0.1,2.7,0.1,3.7,0.1c1,0,2.3,0,3.9-0.1l2.6-0.1
		c0.1,0,0.2,0.1,0.2,0.4s-0.1,0.4-0.2,0.4c-1.2,0-2.1,0.1-2.7,0.4c-0.6,0.2-1,0.6-1.2,1.2c-0.2,0.6-0.3,1.5-0.3,2.6V315
		C111.3,316.2,111.4,317.1,111.6,317.7z M126.7,318.6c-2.2-1.3-3.9-3.1-5.1-5.3c-1.2-2.2-1.8-4.6-1.8-7.3c0-3.1,0.8-5.7,2.4-7.9
		s3.6-3.9,6.1-5.1c2.5-1.1,5-1.7,7.6-1.7c2.8,0,5.2,0.7,7.4,2s3.8,3.1,4.9,5.3c1.1,2.2,1.7,4.5,1.7,6.8c0,2.7-0.7,5.1-2.1,7.5
		s-3.3,4.2-5.7,5.5c-2.4,1.4-5,2-7.9,2C131.4,320.5,128.9,319.9,126.7,318.6z M142.4,316c1.7-2.2,2.5-5.2,2.5-9.1
		c0-2.6-0.4-5-1.3-7.2c-0.9-2.2-2.1-3.9-3.8-5.2c-1.7-1.3-3.6-1.9-5.9-1.9c-2.9,0-5.1,1-6.7,3.1c-1.6,2.1-2.4,5-2.4,8.7
		c0,2.8,0.5,5.3,1.4,7.5c0.9,2.3,2.2,4,3.8,5.3c1.6,1.3,3.5,2,5.7,2C138.5,319.3,140.7,318.2,142.4,316z M186.3,292.4
		c0,0.2,0,0.4-0.1,0.4c-1.2,0-2,0.1-2.6,0.3s-1,0.6-1.2,1.2c-0.2,0.6-0.3,1.4-0.3,2.6V315c0,1.2,0.1,2.1,0.3,2.6
		c0.2,0.6,0.6,1,1.1,1.2c0.5,0.2,1.4,0.3,2.5,0.3c0.1,0,0.2,0.1,0.2,0.4c0,0.2-0.1,0.4-0.2,0.4l-3.9-0.1l-3.3,0.1
		c-0.5,0-0.8-0.1-0.9-0.2c-0.1-0.1-0.2-0.4-0.2-1v-3.4c-1.7,1.8-3.5,3.2-5.3,4s-3.8,1.3-5.8,1.3c-2.8,0-5.1-0.7-7-2.2
		c-1.8-1.5-2.8-3.6-2.8-6.3v-15.2c0-1.2-0.1-2.1-0.2-2.6s-0.5-0.9-0.9-1.2c-0.4-0.2-1.1-0.3-2-0.3c-0.1,0-0.1-0.1-0.1-0.4
		s0-0.4,0.1-0.4l2.3,0.1c1.3,0.1,2.3,0.1,3.1,0.1c1,0,2.2,0,3.7-0.1l2.4-0.1c0.1,0,0.1,0.1,0.1,0.4s0,0.4-0.1,0.4
		c-1.1,0-2,0.1-2.6,0.4c-0.6,0.2-0.9,0.6-1.1,1.2c-0.2,0.6-0.3,1.5-0.3,2.6v13.2c0,5.8,2.4,8.7,7.3,8.7c1.7,0,3.2-0.4,4.7-1.2
		c1.5-0.8,3-2,4.5-3.8v-16.9c0-1.2-0.1-2.1-0.3-2.6s-0.6-1-1.1-1.2c-0.5-0.2-1.4-0.4-2.5-0.4c-0.1,0-0.1-0.1-0.1-0.4s0-0.4,0.1-0.4
		l2.7,0.1c1.5,0.1,2.7,0.1,3.6,0.1c0.8,0,2,0,3.4-0.1l2.7-0.1C186.3,292,186.3,292.1,186.3,292.4z M196.6,299.7
		c0.6,0.9,1.4,1.6,2.2,2.2s2.1,1.3,3.7,2.1c1.6,0.8,2.9,1.6,4,2.3c1,0.7,1.9,1.5,2.6,2.5s1,2.2,1,3.6c0,1.5-0.4,2.9-1.3,4.1
		c-0.9,1.2-2.1,2.2-3.6,2.9s-3.3,1.1-5.3,1.1c-1.5,0-2.9-0.2-4.3-0.6s-2.5-0.9-3.4-1.5c-0.3-0.2-0.5-0.6-0.5-1.2l-0.5-6.2
		c0-0.2,0.1-0.3,0.3-0.3c0.2,0,0.3,0,0.4,0.2c0.8,2.3,2,4.3,3.7,6c1.6,1.7,3.5,2.5,5.5,2.5c1.3,0,2.4-0.4,3.4-1.2s1.4-2,1.4-3.6
		c0-1.3-0.3-2.4-1-3.4c-0.6-1-1.4-1.8-2.4-2.4c-1-0.7-2.2-1.4-3.7-2.2c-1.5-0.8-2.8-1.6-3.7-2.2c-1-0.7-1.8-1.5-2.4-2.4
		c-0.7-1-1-2.1-1-3.4c0-2.3,0.9-4,2.8-5.3c1.8-1.3,4.1-2,6.7-2c2.2,0,4.3,0.5,6.4,1.4c0.4,0.2,0.6,0.3,0.7,0.4
		c0.1,0.1,0.2,0.3,0.2,0.6l0.2,5.3c0,0.2-0.1,0.3-0.3,0.3c-0.2,0-0.3,0-0.4-0.1c-0.2-0.9-0.6-1.8-1.3-2.9c-0.7-1.1-1.6-2-2.7-2.8
		s-2.4-1.2-3.8-1.2c-1.4,0-2.5,0.4-3.2,1.2c-0.7,0.8-1.1,1.8-1.1,3.2C195.7,297.9,196,298.9,196.6,299.7z M50.4,359.4
		c0,0.2-0.1,0.4-0.2,0.4h-7.8c-0.6,0-1.8-1.2-3.6-3.6c-1.7-2.4-3.8-5.6-6.2-9.8c-0.8,0.1-1.7,0.2-2.5,0.2s-1.5,0-1.9-0.1v8.4
		c0,1.2,0.1,2.1,0.3,2.7c0.2,0.6,0.6,0.9,1.1,1.1c0.6,0.2,1.5,0.3,2.7,0.3c0.1,0,0.2,0.1,0.2,0.4c0,0.2-0.1,0.4-0.2,0.4
		c-1.1,0-2,0-2.6-0.1l-3.8-0.1l-3.7,0.1c-0.7,0-1.6,0.1-2.8,0.1c-0.1,0-0.1-0.1-0.1-0.4c0-0.2,0-0.4,0.1-0.4c1.3,0,2.2-0.1,2.8-0.3
		c0.6-0.2,1-0.6,1.2-1.2c0.2-0.6,0.3-1.5,0.3-2.6v-18.2c0-1.2-0.1-2.1-0.3-2.6c-0.2-0.6-0.6-0.9-1.2-1.2s-1.5-0.3-2.6-0.3
		c-0.1,0-0.2-0.1-0.2-0.4s0.1-0.4,0.2-0.4l2.7,0.1c1.5,0.1,2.7,0.1,3.6,0.1c0.8,0,1.4,0,2.1-0.1c0.6,0,1.1-0.1,1.6-0.1
		c1.2-0.1,2.4-0.2,3.5-0.2c2.7,0,4.8,0.5,6.3,1.5s2.2,2.4,2.2,4.3c0,1.6-0.5,3-1.4,4.4c-0.9,1.3-2.2,2.4-3.8,3.2
		c2.2,3.6,4,6.4,5.6,8.4c1.5,2,2.9,3.4,4.2,4.2c1.3,0.9,2.7,1.3,4.1,1.3C50.3,359.1,50.4,359.2,50.4,359.4z M30.6,345.5
		c2.4,0,4-0.5,5-1.6c0.9-1.1,1.4-2.7,1.4-4.8c0-4.3-1.8-6.4-5.3-6.4c-1.4,0-2.3,0.3-2.7,0.9c-0.4,0.6-0.7,1.7-0.7,3.3v8.5
		C29.1,345.5,29.9,345.5,30.6,345.5z M77.8,356.4c0.2,0,0.3,0.1,0.3,0.3c0.1,0.2,0,0.3-0.1,0.4l-6.3,3l-0.5,0.1
		c-0.7,0-1.3-0.4-2-1.1c-0.7-0.7-1.1-1.8-1.3-3.2l-3.8,2.2c-1.3,0.8-2.5,1.3-3.4,1.6c-0.9,0.3-1.8,0.4-2.6,0.4
		c-1.5,0-2.7-0.4-3.6-1.2c-1-0.8-1.4-1.8-1.4-3c0-1.4,0.5-2.5,1.4-3.5c0.9-0.9,2.5-1.8,4.8-2.6l8.5-3.1v-7c0-2.4-0.3-4.2-1-5.3
		c-0.6-1.1-1.6-1.7-3-1.7c-1.6,0-2.8,0.6-3.7,1.7c-0.8,1.1-1.4,2.6-1.9,4.4c-0.4,1.7-1.3,2.6-2.7,2.6c-0.8,0-1.4-0.2-1.8-0.7
		c-0.5-0.4-0.7-1-0.7-1.7c0-1,0.7-2.2,2.2-3.4c1.4-1.2,3.2-2.3,5.2-3.1c2-0.9,3.9-1.3,5.6-1.3c1.8,0,3.3,0.5,4.4,1.6
		s1.6,2.7,1.6,4.9v14.1c0,1.9,0.3,3.2,0.8,3.9c0.6,0.7,1.3,1.1,2.3,1.1C75.8,357.1,76.7,356.9,77.8,356.4L77.8,356.4z M67.8,355.1
		c0-0.2-0.1-0.5-0.1-1v-6.4l-6.1,2.3c-1.3,0.5-2.2,1.1-2.8,1.8c-0.6,0.7-0.8,1.5-0.8,2.5c0,1,0.3,1.8,0.9,2.5c0.6,0.7,1.4,1,2.2,1
		c0.8,0,1.7-0.3,3-0.9L67.8,355.1z M103.4,346.4c1.6,1.1,2.4,2.8,2.4,4.9c0,1.7-0.5,3.2-1.5,4.5c-1,1.3-2.3,2.3-4,3.1
		c-1.7,0.7-3.6,1.1-5.8,1.1c-1.1,0-2.3-0.1-3.7-0.2c-0.6,0-1.2-0.1-2-0.1c-0.8,0-1.6-0.1-2.5-0.1l-3.6,0.1c-0.7,0-1.6,0.1-2.8,0.1
		c-0.1,0-0.1-0.1-0.1-0.4c0-0.2,0-0.4,0.1-0.4c1.3,0,2.3-0.1,2.9-0.3c0.6-0.2,1-0.6,1.2-1.2s0.3-1.5,0.3-2.6v-18.2
		c0-1.2-0.1-2.1-0.3-2.6s-0.6-0.9-1.2-1.2c-0.6-0.2-1.5-0.3-2.7-0.3c-0.1,0-0.2-0.1-0.2-0.4s0.1-0.4,0.2-0.4l2.7,0.1
		c1.5,0.1,2.7,0.1,3.6,0.1c1.1,0,2.2-0.1,3.4-0.2c0.4,0,0.9-0.1,1.5-0.1c0.6,0,1.4-0.1,2.3-0.1c2.9,0,5.1,0.5,6.7,1.5
		c1.6,1,2.4,2.5,2.4,4.3c0,1.5-0.5,2.8-1.6,4c-1.1,1.2-2.6,2.1-4.5,2.7C99.6,344.6,101.8,345.2,103.4,346.4z M89.9,332.9
		c-0.5,0.2-0.8,0.6-1,1.2c-0.2,0.6-0.3,1.5-0.3,2.8v7.5h2.7c1.7,0,3-0.1,3.9-0.4c1-0.3,1.7-0.8,2.2-1.6c0.5-0.8,0.8-1.9,0.8-3.4
		c0-4.2-2.1-6.4-6.2-6.4C91.1,332.5,90.4,332.7,89.9,332.9z M101.1,352.7c0-2.3-0.8-4-2.4-5.3c-1.6-1.3-4-1.9-7.4-1.9
		c-1.2,0-2.1,0-2.7,0.1v9.5c0,1.5,0.3,2.6,1,3.2c0.7,0.6,2,0.9,3.9,0.9C98.6,359.1,101.1,356.9,101.1,352.7z M133.5,346.4
		c1.6,1.1,2.4,2.8,2.4,4.9c0,1.7-0.5,3.2-1.5,4.5c-1,1.3-2.3,2.3-4,3.1c-1.7,0.7-3.6,1.1-5.8,1.1c-1.1,0-2.3-0.1-3.7-0.2
		c-0.6,0-1.2-0.1-2-0.1c-0.8,0-1.6-0.1-2.5-0.1l-3.6,0.1c-0.7,0-1.6,0.1-2.8,0.1c-0.1,0-0.1-0.1-0.1-0.4c0-0.2,0-0.4,0.1-0.4
		c1.3,0,2.3-0.1,2.9-0.3c0.6-0.2,1-0.6,1.2-1.2s0.3-1.5,0.3-2.6v-18.2c0-1.2-0.1-2.1-0.3-2.6s-0.6-0.9-1.2-1.2
		c-0.6-0.2-1.5-0.3-2.7-0.3c-0.1,0-0.2-0.1-0.2-0.4s0.1-0.4,0.2-0.4l2.7,0.1c1.5,0.1,2.7,0.1,3.6,0.1c1.1,0,2.2-0.1,3.4-0.2
		c0.4,0,0.9-0.1,1.5-0.1c0.6,0,1.4-0.1,2.3-0.1c2.9,0,5.1,0.5,6.7,1.5s2.4,2.5,2.4,4.3c0,1.5-0.5,2.8-1.6,4
		c-1.1,1.2-2.6,2.1-4.5,2.7C129.7,344.6,132,345.2,133.5,346.4z M120.1,332.9c-0.5,0.2-0.8,0.6-1,1.2c-0.2,0.6-0.3,1.5-0.3,2.8v7.5
		h2.7c1.7,0,3-0.1,3.9-0.4c1-0.3,1.7-0.8,2.2-1.6c0.5-0.8,0.8-1.9,0.8-3.4c0-4.2-2.1-6.4-6.2-6.4
		C121.2,332.5,120.5,332.7,120.1,332.9z M131.2,352.7c0-2.3-0.8-4-2.4-5.3c-1.6-1.3-4-1.9-7.4-1.9c-1.2,0-2.1,0-2.7,0.1v9.5
		c0,1.5,0.3,2.6,1,3.2c0.7,0.6,2,0.9,3.9,0.9C128.7,359.1,131.2,356.9,131.2,352.7z M149.6,357.6c0.2,0.6,0.6,1,1.2,1.2
		c0.6,0.2,1.5,0.3,2.8,0.3c0.1,0,0.2,0.1,0.2,0.4c0,0.2-0.1,0.4-0.2,0.4c-1.1,0-2,0-2.7-0.1l-3.8-0.1l-3.7,0.1
		c-0.7,0-1.6,0.1-2.8,0.1c-0.1,0-0.1-0.1-0.1-0.4c0-0.2,0-0.4,0.1-0.4c1.3,0,2.2-0.1,2.8-0.3c0.6-0.2,1-0.6,1.2-1.2s0.3-1.5,0.3-2.6
		v-18.2c0-1.2-0.1-2.1-0.3-2.6s-0.6-0.9-1.2-1.2c-0.6-0.2-1.5-0.3-2.8-0.3c-0.1,0-0.1-0.1-0.1-0.4s0-0.4,0.1-0.4l2.8,0.1
		c1.5,0.1,2.7,0.1,3.7,0.1c1,0,2.3,0,3.9-0.1l2.6-0.1c0.1,0,0.2,0.1,0.2,0.4s-0.1,0.4-0.2,0.4c-1.2,0-2.1,0.1-2.7,0.4
		c-0.6,0.2-1,0.6-1.2,1.2s-0.3,1.5-0.3,2.6V355C149.3,356.1,149.4,357,149.6,357.6z M177.1,356.7c0.1,0,0.2,0.1,0.3,0.3
		c0.1,0.2,0.1,0.3-0.1,0.4c-1.6,1.1-3.1,2-4.3,2.4s-2.6,0.7-4,0.7c-2.3,0-4.2-0.6-5.7-1.9c-1.5-1.3-2.3-3.4-2.3-6.3v-15.6
		c0-0.9-0.1-1.6-0.2-2c-0.2-0.4-0.4-0.7-0.9-0.8s-1.1-0.2-2.1-0.2c-0.1,0-0.2-0.2-0.2-0.5c0-0.3,0.1-0.4,0.2-0.4
		c1.8,0,3.3-0.4,4.5-1.3c1.2-0.9,1.9-2,2.1-3.3c0-0.1,0.1-0.2,0.4-0.2c0.1,0,0.2,0,0.3,0.1c0.1,0,0.1,0.1,0.1,0.2v4.3
		c2.2,0,5.6-0.2,10.4-0.5c0.1,0,0.2,0.1,0.3,0.4c0.1,0.3,0.1,0.6,0.1,0.9c0,0.4-0.1,0.8-0.2,1.2c-0.1,0.4-0.3,0.5-0.4,0.5
		c-3-0.7-6.4-1.1-10.2-1.2v16.6c0,2.6,0.5,4.6,1.5,5.9c1,1.3,2.5,1.9,4.6,1.9c2.1,0,4-0.5,5.6-1.6L177.1,356.7z M106.6,375.2
		c1.2,0,2.1,0.4,2.8,1.2c0.7,0.8,1,1.7,1,2.6c0,1.2-0.4,2.2-1.3,3.1c-0.9,0.9-1.8,1.3-2.9,1.3c-0.5,0-0.9,0-1.3-0.1
		c-0.4-0.1-0.7-0.1-0.7-0.1c-0.1,0-0.2,0-0.4,0.1c-0.2,0.1-0.3,0.1-0.3,0.1c0,0-0.1,0-0.2-0.1s-0.2-0.1-0.2-0.1c0,0,0-0.1,0.1-0.3
		c0-0.2,0.1-0.5,0.1-0.8c0-0.4,0.1-0.8,0.1-1.2v-7.6c0-0.4,0-0.8-0.1-1.2c-0.1-0.2-0.4-0.3-0.9-0.3h-0.2c-0.1,0-0.1-0.1-0.1-0.2
		c0-0.2,0-0.3,0.1-0.3c0.4,0,0.7-0.1,1-0.1c0.3-0.1,0.6-0.1,0.7-0.2s0.3-0.1,0.5-0.2c0.1-0.1,0.2-0.1,0.3-0.1l0.1-0.1h0
		c0,0,0.1,0,0.1,0.1c0,0.1,0.1,0.1,0.1,0.2c-0.1,0.4-0.2,0.9-0.2,1.6v3.2c0,0.1,0,0.2,0.1,0.2c0,0,0,0,0.1,0
		c0.2-0.1,0.4-0.3,0.8-0.4S106.3,375.2,106.6,375.2z M106,376.1c-0.3,0-0.6,0.1-0.9,0.3c-0.2,0.2-0.4,0.5-0.4,0.8v4.3
		c0,0.4,0.2,0.7,0.5,0.8s0.8,0.3,1.3,0.3c0.7,0,1.2-0.3,1.6-1c0.4-0.7,0.6-1.4,0.6-2.3c0-1-0.3-1.8-0.8-2.4
		C107.5,376.4,106.8,376.1,106,376.1z M113.2,375.4c0.2,0,0.4,0,0.6,0c0.2,0,0.4,0,0.6,0c0.2,0,0.4,0,0.6,0c0,0.1,0,0.2,0,0.3
		c0,0.2,0,0.3-0.1,0.3c-0.1,0-0.3,0-0.5,0.1c-0.2,0.1-0.4,0.2-0.4,0.3v0c0,0.2,0.7,1.8,2,4.8l1.4-4c0.1-0.3,0.1-0.4,0.1-0.6
		c0-0.2-0.1-0.3-0.3-0.5c-0.2-0.1-0.4-0.2-0.8-0.2c0,0-0.1-0.1-0.1-0.2c0-0.1,0-0.2,0.1-0.3c0.2,0,0.4,0,0.7,0.1c0.3,0,0.6,0,0.9,0
		c0.3,0,0.6,0,0.9,0c0.3,0,0.6,0,0.7-0.1c0,0.1,0,0.2,0,0.3c0,0.2,0,0.3-0.1,0.3c-0.2,0-0.4,0.1-0.7,0.2c-0.3,0.1-0.5,0.3-0.5,0.5
		l-3.3,8.9c-0.3,0.8-0.6,1.3-1,1.6c-0.4,0.3-0.7,0.5-1,0.5c-0.3,0-0.5-0.1-0.6-0.2c-0.1-0.2-0.2-0.3-0.2-0.5c0-0.3,0.1-0.5,0.3-0.6
		c1,0,1.7-0.5,2-1.6c0.1-0.2,0.1-0.4,0.2-0.7c0.1-0.3,0.2-0.5,0.2-0.6l-2.6-6.5c-0.1-0.3-0.3-0.5-0.4-0.6c-0.1-0.1-0.3-0.2-0.5-0.3
		c-0.2-0.1-0.4-0.1-0.5-0.1c0,0-0.1-0.1-0.1-0.2c0-0.1,0-0.2,0.1-0.3C112.5,375.3,113.1,375.4,113.2,375.4z M23.2,395.8
		c0.3,0,0.6,0,0.9,0c0.3,0,0.6,0,0.9-0.1s0.6,0,0.8-0.1c0,0.1,0,0.2,0,0.3c0,0.2,0,0.3-0.1,0.3c-0.2,0-0.4,0.1-0.8,0.2
		c-0.4,0.1-0.6,0.2-0.6,0.3c-0.1,0.5-0.2,1.2-0.2,2.1v8.5c0,0.8,0.1,1.5,0.2,2c0,0.2,0.6,0.2,1.5,0.2h1.1c1.4,0,2.3-0.1,2.8-0.4
		c0.2-0.1,0.5-0.4,0.8-0.8c0.3-0.4,0.5-0.9,0.7-1.5c0-0.1,0.1-0.1,0.3-0.1c0.3,0,0.5,0,0.6,0.1c-0.1,0.2-0.2,0.5-0.4,0.9
		c-0.2,0.4-0.3,0.8-0.4,1c-0.1,0.3-0.2,0.6-0.3,0.9s-0.2,0.6-0.2,0.9c-0.8,0-2,0-3.7-0.1c-1.7,0-3-0.1-4-0.1l-2.7,0.1
		c0,0-0.1-0.2-0.1-0.4c0-0.2,0-0.3,0.1-0.3c0.2,0,0.5,0,0.9-0.1c0.4-0.1,0.6-0.2,0.7-0.3c0.1-0.2,0.2-0.9,0.2-2.1v-8.5
		c0-1-0.1-1.6-0.2-2.1c0-0.1-0.3-0.2-0.6-0.3s-0.7-0.1-0.9-0.1c-0.1,0-0.1-0.1-0.1-0.3c0-0.2,0-0.3,0.1-0.4c0.2,0,0.6,0,1.2,0.1
		C22.3,395.8,22.8,395.8,23.2,395.8z M37.7,400.8c0.8,0,1.4,0.2,1.8,0.6c0.4,0.4,0.5,1,0.5,1.9v5.2c0,0.3,0.1,0.6,0.2,0.8
		c0.2,0.2,0.4,0.3,0.7,0.3c0.2,0,0.5-0.1,0.8-0.3c0.1,0,0.1,0.1,0.1,0.2c0,0.2,0,0.4-0.1,0.5c-0.6,0.5-1.1,0.8-1.6,0.8
		c-0.3,0-0.7-0.1-1-0.4c-0.3-0.3-0.5-0.6-0.7-0.9c0,0-0.1,0-0.2,0.1c-0.1,0.1-0.2,0.2-0.4,0.3s-0.4,0.3-0.6,0.4
		c-0.2,0.1-0.5,0.2-0.8,0.3c-0.3,0.1-0.6,0.1-0.9,0.1c-0.7,0-1.3-0.2-1.7-0.6c-0.5-0.4-0.7-0.9-0.7-1.7c0-0.3,0.1-0.6,0.2-0.9
		c0.2-0.3,0.4-0.5,0.6-0.7c0.2-0.2,0.5-0.4,0.9-0.6c0.4-0.2,0.7-0.3,1-0.4c0.3-0.1,0.6-0.2,1.1-0.4c0.5-0.2,0.8-0.3,0.9-0.3
		c0.1,0,0.2-0.2,0.2-0.3v-1.7c0-0.5-0.2-0.9-0.5-1.1c-0.3-0.3-0.7-0.4-1.1-0.4c-0.5,0-0.8,0.2-1.1,0.5c-0.3,0.3-0.5,0.7-0.5,1.2
		c0,0.5-0.3,0.8-0.9,0.8c-0.4,0-0.7-0.1-0.9-0.4c0-0.6,0.5-1.3,1.4-1.9C35.7,401.1,36.7,400.8,37.7,400.8z M35.5,409.2
		c0.3,0.2,0.6,0.3,1,0.3s0.8-0.1,1.2-0.4c0.4-0.2,0.6-0.5,0.6-0.8V406c-0.1,0.1-0.4,0.2-0.9,0.3s-0.8,0.3-1.1,0.4
		c-0.3,0.1-0.5,0.3-0.8,0.6c-0.2,0.3-0.4,0.6-0.4,0.9C35.2,408.6,35.3,408.9,35.5,409.2z M50.6,402.2c0-0.5-0.5-0.7-1.6-0.7
		c-0.1,0-0.1-0.1-0.1-0.3c0-0.2,0-0.3,0.1-0.4c0.2,0,0.5,0,0.9,0.1c0.5,0,0.9,0,1.2,0l2.3-0.1c0,0.1,0,0.2,0,0.3
		c0,0.2-0.1,0.3-0.2,0.3c-0.2,0-0.5,0.1-0.8,0.2c-0.3,0.1-0.6,0.3-0.7,0.6l-3.6,8.1c0,0.1-0.1,0.2-0.3,0.3c-0.2,0.1-0.3,0.2-0.4,0.2
		c-0.1,0-0.2,0-0.2-0.1c-0.3-0.6-0.8-1.9-1.7-3.9c-0.9-2-1.6-3.7-2.3-5c-0.2-0.3-0.6-0.5-1.3-0.5c-0.1,0-0.1-0.1-0.1-0.3
		c0-0.2,0-0.3,0.1-0.4c1.5,0.1,2.3,0.1,2.3,0.1l2.3-0.1c0,0.1,0,0.2,0,0.4c0,0.2-0.1,0.3-0.1,0.3c-0.7,0-1.1,0.1-1.1,0.4
		c0,0,0,0.1,0,0.1l2.7,6.1l2.3-5.2C50.5,402.6,50.6,402.4,50.6,402.2z M57.1,407.6c0,0.9,0.1,1.5,0.2,2c0,0.1,0.2,0.2,0.6,0.3
		c0.4,0.1,0.6,0.1,0.8,0.1c0,0,0.1,0.1,0.1,0.3s0,0.3,0,0.4c-1.5-0.1-2.3-0.1-2.4-0.1s-0.9,0-2.5,0.1c-0.1-0.1-0.1-0.2-0.1-0.4
		s0-0.3,0.1-0.3c0.2,0,0.4,0,0.8-0.1c0.4-0.1,0.5-0.2,0.6-0.3c0.1-0.4,0.2-1,0.2-1.6v-4.3c0-0.6-0.1-1-0.3-1.2
		c-0.2-0.2-0.3-0.3-0.6-0.4c-0.2-0.1-0.4-0.1-0.5-0.1c-0.1,0-0.2,0-0.2,0c0-0.4,0-0.5,0.1-0.6c1.6-0.2,2.6-0.4,3.1-0.6l0,0
		c0,0,0.1,0,0.1,0c0.1,0,0.1,0.1,0.1,0.2c0,0.1,0,0.2,0,0.3c-0.1,0.6-0.1,1.1-0.1,1.6V407.6z M55.3,398c-0.2-0.2-0.3-0.5-0.3-0.8
		c0-0.3,0.1-0.6,0.3-0.8c0.2-0.2,0.5-0.3,0.8-0.3c0.3,0,0.6,0.1,0.8,0.3c0.2,0.2,0.3,0.5,0.3,0.8c0,0.3-0.1,0.6-0.3,0.8
		c-0.2,0.2-0.5,0.3-0.8,0.3C55.8,398.3,55.5,398.2,55.3,398z M64,400.9c0.6,0,1.2,0.1,1.9,0.3s1.3,0.3,1.8,0.3H69
		c0.1,0,0.1,0.2,0.1,0.6c0,0.2,0,0.3-0.1,0.3h-1.6c-0.1,0-0.1,0-0.1,0.1l0.2,0.5c0.2,0.4,0.2,0.7,0.2,1.1c0,0.8-0.4,1.5-1.1,2.2
		c-0.7,0.6-1.6,1-2.7,1c-0.5,0-0.9,0-1.3-0.1c-0.2,0.1-0.4,0.3-0.6,0.6c-0.2,0.3-0.3,0.5-0.3,0.7s0.1,0.4,0.2,0.5
		c0.1,0.1,0.3,0.2,0.5,0.3s0.4,0.1,0.7,0.1s0.5,0,0.7,0c0.1,0,0.1,0,0.2,0c1.9,0,3.2,0.2,3.9,0.6c0.8,0.4,1.1,0.9,1.1,1.6
		c0,1.2-0.5,2.2-1.5,3c-1,0.8-2.2,1.3-3.8,1.3c-1.1,0-2-0.2-2.9-0.6c-0.9-0.4-1.3-1.1-1.3-1.9c0-0.9,0.7-1.7,2.2-2.4
		c-0.4-0.1-0.8-0.2-1.1-0.6c-0.3-0.3-0.5-0.7-0.5-1.2c0-0.4,0.2-0.8,0.5-1.2c0.3-0.4,0.7-0.8,1.1-1c-0.5-0.2-0.9-0.5-1.3-1.1
		c-0.4-0.5-0.6-1.1-0.6-1.8c0-0.9,0.4-1.6,1.1-2.2C62,401.2,63,400.9,64,400.9z M67.7,412.5c0-0.6-0.3-1.1-0.9-1.3
		c-0.6-0.2-1.8-0.3-3.7-0.3c0,0-0.1,0-0.1,0c0,0-0.1,0-0.2,0.1c-0.1,0.1-0.2,0.1-0.2,0.1c0,0-0.1,0.1-0.2,0.1
		c-0.1,0.1-0.2,0.1-0.2,0.1c0,0-0.1,0.1-0.2,0.1c-0.1,0.1-0.2,0.1-0.2,0.2c0,0.1-0.1,0.1-0.1,0.2c-0.1,0.1-0.1,0.2-0.1,0.2
		c0,0.1,0,0.2-0.1,0.3s0,0.2,0,0.3c0,0.6,0.3,1.2,1,1.6c0.7,0.4,1.4,0.6,2.2,0.6c0.9,0,1.6-0.2,2.2-0.7
		C67.4,413.7,67.7,413.1,67.7,412.5z M61.9,403.9c0,0.7,0.2,1.3,0.6,1.8c0.4,0.5,0.9,0.7,1.5,0.7c0.6,0,1.1-0.2,1.5-0.7
		c0.4-0.5,0.6-1,0.6-1.6c0-0.7-0.2-1.3-0.6-1.8c-0.4-0.5-0.9-0.7-1.5-0.7c-0.6,0-1.1,0.2-1.5,0.7S61.9,403.3,61.9,403.9z
		 M77.1,400.7c1.1,0,1.8,0.4,2.2,1.1c0.4,0.8,0.6,2,0.6,3.7v2.1c0,0.9,0.1,1.5,0.2,2c0,0.1,0.2,0.2,0.6,0.3c0.4,0.1,0.6,0.1,0.8,0.1
		c0,0,0.1,0.1,0.1,0.3c0,0.2,0,0.3,0,0.4c-1.5-0.1-2.3-0.1-2.4-0.1c0,0-0.8,0-2.4,0.1c-0.1-0.1-0.1-0.2-0.1-0.4s0-0.3,0.1-0.3
		c0.2,0,0.4,0,0.8-0.1c0.3-0.1,0.5-0.2,0.5-0.3c0.1-0.4,0.2-1,0.2-1.6v-2.3c0-1.4-0.2-2.4-0.5-2.9s-0.9-0.8-1.8-0.8
		c-0.5,0-0.9,0.2-1.4,0.5c-0.4,0.4-0.7,0.7-0.7,1v4c0,0.9,0.1,1.5,0.2,2c0,0.1,0.2,0.2,0.6,0.3c0.4,0.1,0.6,0.1,0.8,0.1
		c0,0,0.1,0.1,0.1,0.3c0,0.2,0,0.3,0,0.4c-1.5-0.1-2.3-0.1-2.4-0.1c-0.1,0-0.9,0-2.5,0.1c-0.1-0.1-0.1-0.2-0.1-0.4s0-0.3,0.1-0.3
		c0.2,0,0.4,0,0.8-0.1c0.4-0.1,0.5-0.2,0.6-0.3c0.1-0.4,0.2-1,0.2-1.6v-4.3c0-0.6-0.1-1-0.3-1.2c-0.2-0.2-0.3-0.3-0.6-0.4
		c-0.2-0.1-0.4-0.1-0.5-0.1c-0.1,0-0.2,0-0.2,0c0-0.4,0-0.5,0.1-0.6c1.6-0.2,2.6-0.4,3.1-0.6c0,0,0.1,0,0.1,0c0.1,0,0.1,0.1,0.1,0.2
		c0,0.1,0,0.2,0,0.3c-0.1,0.4-0.1,0.7-0.1,0.9c0,0.1,0,0.1,0,0.1c0,0,0,0,0.1,0c0.3-0.4,0.8-0.7,1.4-1
		C76,400.9,76.6,400.7,77.1,400.7z M87.4,400.8c0.7,0,1.3,0.1,1.8,0.4c0.5,0.3,0.9,0.6,1.2,1c0.3,0.4,0.5,0.8,0.6,1.3
		c0.1,0.4,0.2,0.9,0.2,1.3c0,0.3,0,0.5-0.1,0.6c-0.1,0.1-0.3,0.1-0.5,0.1h-5.7c-0.1,0-0.2,0-0.2,0.1c0,0.9,0.3,1.8,0.9,2.6
		c0.6,0.8,1.4,1.2,2.5,1.2c0.3,0,0.6,0,0.9-0.1c0.3-0.1,0.5-0.1,0.7-0.2c0.2-0.1,0.4-0.2,0.5-0.2c0.1-0.1,0.3-0.2,0.4-0.2l0.2-0.1
		c0.1,0,0.1,0.1,0.1,0.3c0,0.1,0,0.3-0.1,0.4c-0.3,0.4-0.7,0.8-1.3,1.1c-0.6,0.3-1.2,0.5-1.9,0.5c-1.2,0-2.3-0.5-3.2-1.4
		c-0.9-0.9-1.3-2.1-1.3-3.4c0-1.6,0.4-2.8,1.3-3.7C85.1,401.2,86.1,400.8,87.4,400.8z M87.2,401.6c-0.8,0-1.4,0.3-1.8,1
		s-0.6,1.2-0.6,1.7c0,0.1,0,0.2,0.1,0.2h4.4c0.1,0,0.1-0.1,0.1-0.2c0-0.5-0.2-1-0.6-1.7S87.9,401.6,87.2,401.6z M108.4,407.6v-4
		l0-0.1c-1.4,0-2.5,0-3.3,0c-2.3,0-3.5,0-3.5,0.1v3.9c0,0.9,0.1,1.6,0.2,2.1c0,0.1,0.2,0.2,0.6,0.3c0.4,0.1,0.7,0.1,0.8,0.1
		c0,0,0.1,0.1,0.1,0.3s0,0.3,0,0.4c-1.5-0.1-2.4-0.1-2.6-0.1c-0.1,0-1,0-2.7,0.1c-0.1-0.1-0.1-0.2-0.1-0.3c0-0.2,0-0.3,0.1-0.3
		c0.2,0,0.5,0,0.9-0.1c0.4-0.1,0.6-0.2,0.6-0.3c0.1-0.4,0.2-1.1,0.2-2v-8.8c0-0.9-0.1-1.6-0.2-2c0-0.1-0.3-0.2-0.6-0.3
		s-0.7-0.1-0.9-0.1c-0.1,0-0.1-0.1-0.1-0.3c0-0.2,0-0.3,0.1-0.4c0.2,0,0.6,0,1.2,0.1c0.6,0,1.1,0.1,1.5,0.1c0.3,0,0.6,0,0.9,0
		c0.3,0,0.6,0,0.9-0.1s0.6,0,0.8-0.1c0,0.1,0,0.2,0,0.4c0,0.2,0,0.3-0.1,0.3c-0.2,0-0.4,0.1-0.8,0.2c-0.4,0.1-0.6,0.2-0.6,0.3
		c-0.1,0.5-0.2,1.2-0.2,2.1v3.4l0,0.1c1.5,0,2.6,0,3.4,0c0.9,0,2,0,3.3,0c0,0,0-0.1,0-0.1v-3.4c0-0.9-0.1-1.6-0.2-2
		c0-0.1-0.3-0.2-0.6-0.3c-0.4-0.1-0.7-0.1-0.9-0.1c-0.1,0-0.1-0.1-0.1-0.3c0-0.2,0-0.3,0.1-0.4c0.2,0,0.6,0,1.2,0.1
		c0.6,0,1.1,0.1,1.5,0.1c0.3,0,0.6,0,0.9,0c0.3,0,0.6,0,0.9-0.1c0.3,0,0.6,0,0.8-0.1c0,0.1,0,0.2,0,0.3c0,0.2,0,0.3-0.1,0.3
		c-0.2,0-0.4,0.1-0.8,0.2c-0.4,0.1-0.6,0.2-0.6,0.3c-0.1,0.5-0.2,1.2-0.2,2.1v8.6c0,0.9,0.1,1.6,0.2,2.1c0,0.1,0.2,0.2,0.6,0.3
		c0.4,0.1,0.7,0.1,0.8,0.1c0.1,0,0.1,0.1,0.1,0.3c0,0.1,0,0.2,0,0.3c-1.5-0.1-2.4-0.1-2.6-0.1c-0.1,0-1,0-2.7,0.1
		c-0.1-0.1-0.1-0.2-0.1-0.4s0-0.3,0.1-0.3c0.2,0,0.5,0,0.9-0.1c0.4-0.1,0.6-0.2,0.6-0.3C108.4,409.2,108.4,408.5,108.4,407.6z
		 M118.2,400.8c0.8,0,1.4,0.2,1.8,0.6c0.4,0.4,0.5,1,0.5,1.9v5.2c0,0.3,0.1,0.6,0.2,0.8c0.2,0.2,0.4,0.3,0.7,0.3
		c0.2,0,0.5-0.1,0.8-0.3c0.1,0,0.1,0.1,0.1,0.2c0,0.2,0,0.4-0.1,0.5c-0.6,0.5-1.1,0.8-1.6,0.8c-0.3,0-0.7-0.1-1-0.4
		c-0.3-0.3-0.5-0.6-0.7-0.9c0,0-0.1,0-0.2,0.1c-0.1,0.1-0.2,0.2-0.4,0.3c-0.2,0.1-0.4,0.3-0.6,0.4c-0.2,0.1-0.5,0.2-0.8,0.3
		c-0.3,0.1-0.6,0.1-0.9,0.1c-0.7,0-1.3-0.2-1.7-0.6c-0.5-0.4-0.7-0.9-0.7-1.7c0-0.3,0.1-0.6,0.2-0.9c0.2-0.3,0.4-0.5,0.6-0.7
		c0.2-0.2,0.5-0.4,0.9-0.6s0.7-0.3,1-0.4s0.6-0.2,1.1-0.4c0.5-0.2,0.8-0.3,0.9-0.3c0.1,0,0.2-0.2,0.2-0.3v-1.7
		c0-0.5-0.2-0.9-0.5-1.1c-0.3-0.3-0.7-0.4-1.1-0.4c-0.5,0-0.8,0.2-1.1,0.5c-0.3,0.3-0.5,0.7-0.5,1.2c0,0.5-0.3,0.8-0.9,0.8
		c-0.4,0-0.7-0.1-0.9-0.4c0-0.6,0.5-1.3,1.4-1.9C116.3,401.1,117.2,400.8,118.2,400.8z M116.1,409.2c0.3,0.2,0.6,0.3,1,0.3
		c0.4,0,0.8-0.1,1.2-0.4c0.4-0.2,0.6-0.5,0.6-0.8V406c-0.1,0.1-0.4,0.2-0.9,0.3s-0.8,0.3-1.1,0.4c-0.3,0.1-0.5,0.3-0.8,0.6
		c-0.2,0.3-0.4,0.6-0.4,0.9C115.7,408.6,115.9,408.9,116.1,409.2z M126.6,407.6c0,0.9,0.1,1.5,0.2,2c0,0.1,0.2,0.2,0.6,0.3
		c0.4,0.1,0.6,0.1,0.8,0.1c0,0,0.1,0.1,0.1,0.3c0,0.2,0,0.3,0,0.4c-1.5-0.1-2.3-0.1-2.4-0.1c-0.1,0-0.9,0-2.5,0.1
		c-0.1-0.1-0.1-0.2-0.1-0.4s0-0.3,0.1-0.3c0.2,0,0.4,0,0.8-0.1c0.4-0.1,0.5-0.2,0.6-0.3c0.1-0.4,0.2-1,0.2-1.6v-4.3
		c0-0.6-0.1-1-0.3-1.2c-0.2-0.2-0.3-0.3-0.6-0.4c-0.2-0.1-0.4-0.1-0.5-0.1c-0.1,0-0.2,0-0.2,0c0-0.4,0-0.5,0.1-0.6
		c1.6-0.2,2.6-0.4,3.1-0.6l0,0c0,0,0.1,0,0.1,0c0.1,0,0.1,0.1,0.1,0.2c0,0.1,0,0.2,0,0.3c-0.1,0.6-0.1,1.1-0.1,1.6V407.6z
		 M124.7,398c-0.2-0.2-0.3-0.5-0.3-0.8c0-0.3,0.1-0.6,0.3-0.8c0.2-0.2,0.5-0.3,0.8-0.3c0.3,0,0.6,0.1,0.8,0.3
		c0.2,0.2,0.3,0.5,0.3,0.8c0,0.3-0.1,0.6-0.3,0.8c-0.2,0.2-0.5,0.3-0.8,0.3C125.2,398.3,125,398.2,124.7,398z M135.2,400.7
		c0.9,0,1.5,0.2,1.8,0.7c0,0.5-0.1,0.9-0.2,1.2c-0.2,0.2-0.4,0.4-0.6,0.4c-0.3,0-0.5-0.1-0.7-0.4c-0.2-0.3-0.5-0.4-0.9-0.4
		c-0.5,0-0.9,0.2-1.2,0.7s-0.5,0.9-0.5,1.4v3.4c0,0.9,0.1,1.5,0.2,2c0,0.1,0.2,0.2,0.6,0.3c0.4,0.1,0.6,0.1,0.8,0.1
		c0,0,0.1,0.1,0.1,0.3s0,0.3,0,0.4c-1.5-0.1-2.3-0.1-2.4-0.1c-0.1,0-0.9,0-2.5,0.1c-0.1-0.1-0.1-0.2-0.1-0.4s0-0.3,0.1-0.3
		c0.2,0,0.4,0,0.8-0.1c0.4-0.1,0.5-0.2,0.6-0.3c0.1-0.4,0.2-1,0.2-1.6v-4.3c0-0.6-0.1-1-0.3-1.2c-0.2-0.2-0.3-0.3-0.6-0.4
		c-0.2-0.1-0.4-0.1-0.5-0.1c-0.1,0-0.2,0-0.2,0c0-0.4,0-0.5,0.1-0.6c1.6-0.2,2.6-0.4,3.1-0.6c0,0,0.1,0,0.1,0c0.1,0,0.1,0.1,0.1,0.2
		c0,0.1,0,0.2,0,0.3l-0.1,1.1c0.3-0.4,0.6-0.8,1.1-1.1C134.2,400.9,134.7,400.7,135.2,400.7z M143.3,403.3c0-2.1,0.7-4,2.1-5.5
		c1.4-1.5,3.2-2.3,5.3-2.3c1.1,0,2.9,0.3,5.4,1c0.1,1.7,0.1,2.6,0.1,2.8c0,0.2-0.2,0.3-0.5,0.3c-0.2,0-0.2,0-0.3-0.1
		c-0.4-2.1-1.9-3.1-4.6-3.1c-1.5,0-2.8,0.6-3.8,1.9c-1,1.3-1.5,2.8-1.5,4.6c0,1.7,0.6,3.2,1.7,4.6c1.1,1.4,2.5,2.1,4.2,2.1
		c1.3,0,2.3-0.2,2.9-0.5c0.1,0,0.2-0.2,0.2-0.3l0-1.9v-0.2c0-1-0.1-1.6-0.2-1.9c-0.1-0.2-0.3-0.3-0.7-0.4c-0.4-0.1-0.8-0.1-1-0.1
		c-0.1,0-0.1-0.1-0.1-0.3s0-0.3,0.1-0.4c1.9,0.1,2.9,0.1,3,0.1c0.1,0,0.9,0,2.4-0.1c0,0.1,0,0.2,0,0.3c0,0.2,0,0.3-0.1,0.3
		c-0.1,0-0.3,0-0.6,0.1c-0.3,0.1-0.6,0.2-0.7,0.3c-0.2,0.1-0.2,0.6-0.2,1.5c0,0.3,0,0.7,0,1c0,0.4,0,0.6,0,0.6
		c0,0.3,0.1,0.5,0.2,0.8c0.1,0.3,0.2,0.4,0.2,0.5c0,0.1-0.2,0.3-0.6,0.4c0,0-0.2,0.1-0.4,0.2c-0.3,0.1-0.4,0.2-0.5,0.2
		c-0.1,0-0.2,0.1-0.5,0.2c-0.3,0.1-0.5,0.1-0.6,0.2s-0.4,0.1-0.7,0.1c-0.3,0.1-0.6,0.1-0.8,0.1c-0.3,0-0.6,0-0.9,0.1
		c-0.4,0-0.7,0-1.1,0c-2,0-3.7-0.7-5.1-2.2S143.3,405.4,143.3,403.3z M165.1,400.7c0.9,0,1.5,0.2,1.8,0.7c0,0.5-0.1,0.9-0.2,1.2
		c-0.2,0.2-0.4,0.4-0.6,0.4c-0.3,0-0.5-0.1-0.7-0.4c-0.2-0.3-0.5-0.4-0.9-0.4c-0.5,0-0.9,0.2-1.2,0.7s-0.5,0.9-0.5,1.4v3.4
		c0,0.9,0.1,1.5,0.2,2c0,0.1,0.2,0.2,0.6,0.3c0.4,0.1,0.6,0.1,0.8,0.1c0,0,0.1,0.1,0.1,0.3s0,0.3,0,0.4c-1.5-0.1-2.3-0.1-2.4-0.1
		c-0.1,0-0.9,0-2.5,0.1c-0.1-0.1-0.1-0.2-0.1-0.4s0-0.3,0.1-0.3c0.2,0,0.4,0,0.8-0.1c0.4-0.1,0.5-0.2,0.6-0.3c0.1-0.4,0.2-1,0.2-1.6
		v-4.3c0-0.6-0.1-1-0.3-1.2c-0.2-0.2-0.3-0.3-0.6-0.4c-0.2-0.1-0.4-0.1-0.5-0.1c-0.1,0-0.2,0-0.2,0c0-0.4,0-0.5,0.1-0.6
		c1.6-0.2,2.6-0.4,3.1-0.6c0,0,0.1,0,0.1,0c0.1,0,0.1,0.1,0.1,0.2c0,0.1,0,0.2,0,0.3l-0.1,1.1c0.3-0.4,0.6-0.8,1.1-1.1
		C164.1,400.9,164.6,400.7,165.1,400.7z M172.8,400.7c1.4,0,2.5,0.5,3.5,1.5c1,1,1.4,2.2,1.4,3.5c0,1.4-0.5,2.6-1.4,3.6
		c-0.9,1-2.1,1.5-3.5,1.5s-2.5-0.5-3.5-1.5c-1-1-1.4-2.2-1.4-3.6c0-1.4,0.5-2.6,1.4-3.5C170.2,401.2,171.4,400.7,172.8,400.7z
		 M172.5,401.6c-0.8,0-1.4,0.4-2,1.1c-0.5,0.7-0.8,1.6-0.8,2.7c0,1.2,0.3,2.3,1,3.2c0.6,0.9,1.4,1.3,2.2,1.3c0.8,0,1.5-0.4,2-1.1
		s0.8-1.7,0.8-2.7c0-1.2-0.3-2.3-1-3.1S173.4,401.6,172.5,401.6z M188.4,402.9v4.5c0,0.6,0.1,1.2,0.2,1.7c0,0.1,0.1,0.2,0.2,0.2
		c0.1,0.1,0.3,0.1,0.4,0.1c0.2,0,0.3,0,0.5,0l0.2,0c0,0,0.1,0.1,0.1,0.2c0,0,0,0.1-0.1,0.2c0,0.1-0.1,0.1-0.1,0.1
		c-0.2,0-0.5,0-0.8,0.1s-0.5,0.1-0.8,0.2c-0.2,0.1-0.5,0.1-0.7,0.2c-0.2,0.1-0.4,0.1-0.5,0.2l-0.2,0c-0.1,0-0.2-0.1-0.2-0.4v-1.2
		l0-0.1c-1,1.1-2,1.6-3,1.6c-0.6,0-1-0.1-1.4-0.4c-0.4-0.3-0.7-0.6-0.9-1.1c-0.2-0.5-0.3-0.9-0.4-1.3s-0.1-0.9-0.1-1.3v-2.8
		c0-0.6-0.1-1-0.3-1.2c-0.2-0.2-0.3-0.3-0.6-0.4c-0.2-0.1-0.4-0.1-0.5-0.1c-0.1,0-0.2,0-0.2,0c0-0.4,0-0.5,0.1-0.6
		c1.6-0.2,2.6-0.4,3.1-0.6c0,0,0.1,0,0.1,0c0.1,0,0.1,0.1,0.1,0.2c0,0.1,0,0.2,0,0.3c-0.1,0.7-0.1,1.3-0.1,1.7v3
		c0,1.2,0.2,2,0.5,2.6c0.3,0.5,0.9,0.8,1.7,0.8c0.5,0,0.9-0.2,1.3-0.5c0.4-0.4,0.6-0.7,0.6-0.9v-4.2c0-0.6-0.1-1-0.3-1.2
		c-0.2-0.2-0.3-0.3-0.6-0.4c-0.2-0.1-0.4-0.1-0.5-0.1c-0.1,0-0.2,0-0.2,0c0-0.4,0-0.5,0.1-0.6c1.6-0.2,2.6-0.4,3.1-0.6
		c0,0,0.1,0,0.1,0c0.1,0,0.1,0.1,0.1,0.2c0,0.1,0,0.2,0,0.3C188.4,402,188.4,402.5,188.4,402.9z M196.3,400.8c1.4,0,2.6,0.5,3.4,1.5
		c0.8,1,1.2,2,1.2,3.1c0,1.4-0.5,2.7-1.5,3.8c-1,1.1-2.2,1.6-3.4,1.6c-0.2,0-0.4,0-0.6,0c-0.2,0-0.3,0-0.5-0.1
		c-0.1,0-0.2-0.1-0.3-0.1c-0.1,0-0.2-0.1-0.3-0.1c-0.1-0.1-0.2-0.1-0.2-0.1c-0.1,0.1-0.1,0.2-0.1,0.3v1.9c0,0.9,0.1,1.5,0.2,2
		c0,0.1,0.2,0.2,0.6,0.3c0.4,0.1,0.6,0.1,0.8,0.1c0,0,0.1,0.1,0.1,0.3s0,0.3,0,0.4c-1.5-0.1-2.3-0.1-2.4-0.1c-0.1,0-0.9,0-2.5,0.1
		c-0.1-0.1-0.1-0.2-0.1-0.4s0-0.3,0.1-0.3c0.2,0,0.4,0,0.8-0.1c0.4-0.1,0.5-0.2,0.6-0.3c0.1-0.4,0.2-1,0.2-1.6v-9.3
		c0-0.6-0.1-1-0.3-1.2c-0.2-0.2-0.3-0.3-0.6-0.4c-0.2-0.1-0.4-0.1-0.5-0.1c-0.1,0-0.2,0-0.2,0c0-0.4,0-0.5,0.1-0.6
		c1.6-0.2,2.6-0.4,3.1-0.6c0,0,0.1,0,0.1,0c0,0,0.1,0,0.1,0.1s0,0.2,0,0.3c0,0.1,0,0.2,0,0.2v0.1c0.2-0.2,0.6-0.3,1.1-0.5
		C195.5,400.9,196,400.8,196.3,400.8z M195.6,401.9c-0.5,0-0.9,0.1-1.2,0.4c-0.3,0.2-0.5,0.6-0.5,1.1v5.1c0,0.4,0.2,0.7,0.7,1
		s0.9,0.4,1.4,0.4c0.9,0,1.6-0.4,2.1-1.2c0.5-0.8,0.8-1.7,0.8-2.7c0-1.3-0.3-2.3-1-3C197.3,402.2,196.5,401.9,195.6,401.9z
		 M97.4,379.1c0-0.6-0.5-1.1-1.1-1.1H16.5c-0.6,0-1.1,0.5-1.1,1.1s0.5,1.1,1.1,1.1h79.9C96.9,380.1,97.4,379.7,97.4,379.1z
		 M205.5,379.1c0-0.6-0.5-1.1-1.1-1.1h-79.9c-0.6,0-1.1,0.5-1.1,1.1s0.5,1.1,1.1,1.1h79.9C205,380.1,205.5,379.7,205.5,379.1z
		 M204.3,239.3c-0.2-0.6-0.3-1.2-0.6-1.7c-0.9-2.2-2.3-3.9-3.8-5.1c-1.5-1.2-3.1-1.9-4.3-2.2c-0.6-0.2-1.4-0.4-1.9-0.5
		c-1.1-0.3-2.6-0.4-3.2-0.5c-0.8-0.2-1.8-0.2-3.5-0.3c-0.2,0-0.4,0-0.6,0c-0.2,0-0.4,0-0.6,0c-0.4,0-0.8,0.1-1.3,0.1
		c-0.4,0.1-0.9,0.1-1.4,0.3c-0.5,0.1-1,0.2-1.5,0.4c-0.5,0.1-1,0.3-1.5,0.5c-0.5,0.2-1.1,0.5-1.6,0.8c-0.5,0.3-1,0.6-1.5,0.9
		c-0.5,0.3-1,0.6-1.4,1c-0.2,0.2-0.5,0.4-0.9,0.7c-0.3,0.3-0.8,0.6-1.2,1.1c-0.9,0.8-1.8,1.9-2.8,3.2c-0.9,1.4-1.7,3-2.6,4.5
		c-0.5,0.8-1,1.7-1.5,2.7c-0.5,1-0.8,2.2-1,3.4c-0.2,1.2-0.2,2.4-0.3,3.6c0,1.1-0.2,2.4,0,3.9c0.1,0.7,0.3,1.6,0.7,2.3
		c0.4,0.7,0.8,1.3,1.4,1.9c1,1.1,2.3,2,3.7,2.6c1.3,0.6,2.6,1,3.9,1.4c0.7,0.2,1.4,0.3,2.1,0.4c0.7,0.1,1.4,0.1,2.1,0.1
		c0.7,0,1.4,0,2.1,0c0.7,0,1.4-0.1,2.1-0.1c1.4-0.2,2.8-0.5,4.1-0.9c1.5-0.5,2.9-1.1,4.2-1.9c1.3-0.8,2.5-1.7,3.7-2.6
		c1.1-1,2.2-1.9,3.2-3c0.5-0.5,1-1.1,1.4-1.6c0.5-0.6,0.8-1.2,1.2-1.8c0.7-1.2,1.2-2.4,1.9-3.5c0.7-1.1,1.5-2.2,1.8-3.8
		c0.2-1.5,0.1-2.8-0.2-4C204.6,240.4,204.5,239.8,204.3,239.3z M201.9,244.8c-0.2,0.9-0.8,1.9-1.4,3c-0.6,1.1-1.1,2.3-1.6,3.5
		c-0.3,0.6-0.6,1.1-1,1.6c-0.4,0.5-0.8,1-1.3,1.5c-0.9,1-1.9,1.9-2.9,2.7c-1,0.9-2.1,1.7-3.3,2.3c-1.2,0.6-2.5,1.1-3.8,1.5
		c-1.2,0.3-2.4,0.5-3.6,0.6c-0.6,0-1.2,0.1-1.8,0c-0.6,0-1.2,0-1.8-0.1c-0.6,0-1.2-0.1-1.8-0.2c-0.6-0.2-1.2-0.3-1.7-0.5
		c-0.6-0.2-1.1-0.4-1.7-0.6c-0.6-0.2-1.1-0.5-1.6-0.7c-1-0.5-1.8-1.2-2.4-1.9c-0.2-0.2-0.3-0.4-0.4-0.6c-0.1-0.2-0.3-0.4-0.4-0.6
		c-0.2-0.4-0.2-0.8-0.3-1.3c0-0.9,0.2-1.9,0.3-3c0.1-1,0.1-2,0.3-2.9c0.2-0.9,0.5-1.7,0.9-2.5c0.4-0.8,0.9-1.5,1.4-2.2
		c1-1.5,1.7-2.9,2.4-3.9c0.8-1,1.6-1.9,2.2-2.5c0.3-0.3,0.6-0.5,0.9-0.7c0.3-0.2,0.5-0.4,0.7-0.5c0.9-0.6,1.8-1.3,2.5-1.8
		c0.4-0.3,0.8-0.5,1.2-0.7c0.4-0.2,0.8-0.4,1.2-0.6c0.4-0.2,0.8-0.3,1.2-0.5c0.4-0.2,0.8-0.3,1.1-0.4c0.4-0.1,0.7-0.3,1-0.4
		c0.2-0.1,0.3-0.1,0.5-0.1c0.1,0,0.3-0.1,0.4-0.1c1.2-0.2,2.2-0.3,2.9-0.3c1.3,0,2,0.1,3,0.5c0.4,0.2,0.8,0.4,1.3,0.7
		c1,0.5,2.2,1.1,3.3,2.1c1.1,0.9,2.2,2.2,2.9,3.8c0.2,0.4,0.3,0.9,0.5,1.3c0.1,0.5,0.3,1,0.4,1.5C201.9,242.7,202,243.8,201.9,244.8
		z M131,104.1c0.8,0.7,1.2,1.7,1.2,3c0.1,4.4-2.2,5.5-3.6,5.7c-0.2,0-0.4,0.1-0.5,0.1c-1,0-2-0.5-2.8-1.5c-1.1-1.3-1.9-3.6-1.4-4.9
		c0.1-0.2,0.1-0.3,0.2-0.5c0.4-1,1.1-3,3.2-3h0C128.9,102.9,130.2,103.3,131,104.1z M220,221.9c0-1.5-0.1-2.9-0.2-4.4
		c-0.1-1.5-0.3-2.9-0.5-4.4c-0.4-2.9-0.9-5.9-1.6-8.7c-0.3-1.5-0.8-2.9-1.3-4.4c-0.4-1.5-1-2.9-1.6-4.4c-0.3-0.7-0.6-1.4-0.9-2.1
		l-1.1-2l-1.1-2l-1.2-1.9c-3.3-5.2-7.5-9.8-12.3-13.5c-2.3-1.8-4-4.4-5-7.3c-1.1-2.9-1.8-6.1-2.8-9.3c-1-3.2-2.3-6.4-4.4-9.2
		c-0.5-0.7-1.1-1.3-1.7-2l-1.6-1.8c-0.5-0.6-0.9-1.2-1.4-1.8c-0.4-0.6-0.9-1.3-1.2-1.9c-1.5-2.6-2.7-5.5-3.4-8.4
		c-0.7-2.9-1.1-6-0.8-8.8c0-0.3,0.1-0.7,0.1-1l0.1-0.5l0.1-0.6c0.2-0.8,0.4-1.6,0.5-2.3c0.3-1.6,0.6-3.1,0.7-4.7
		c0.3-3,0.5-6.1,0.1-9.3c-0.2-1.6-0.5-3.2-1-4.8c-0.1-0.4-0.3-0.8-0.4-1.2l-0.2-0.6c0-0.1,0-0.1,0-0.2c-0.1-0.6-0.2-1.3-0.2-2
		c-0.1-1.3,0-2.6,0.4-3.9c0.3-1.2,0.9-2.5,1.7-3.7c0.7-1.2,1.6-2.5,2.4-3.8c0.4-0.7,0.8-1.3,1.2-2.1l0.3-0.5
		c0.1-0.1,0.1-0.2,0.2-0.2c0-0.1,0.3-0.4,0.4-0.6c0.8-0.8,1.8-1.7,2.9-2.4c1-0.7,2.1-1.4,3.2-2.1c4.3-2.6,9-5,13.5-8.2
		c0.5-0.4,1.1-0.8,1.6-1.3c0.6-0.5,1.1-1,1.6-1.5c1-1.1,1.8-2.2,2.6-3.4c1.4-2.3,2.5-4.7,3.5-7.1c1.6-4.1,2.6-8.2,3.3-12.1
		c0.3-2,0.6-3.9,0.7-5.8c0-1,0-1.9,0-2.9c0-0.2,0-0.5-0.1-0.8c0-0.3-0.1-0.5-0.1-0.8c-0.1-0.5-0.4-1.3-0.7-2c-1.2-2-3.2-2.6-4.8-2.5
		c-1.4,0.1-2.5,0.4-3.6,0.8c-1,0.4-1.9,0.9-2.8,1.3c-1.7,1-3.2,2-4.6,3c-2.8,2.1-5.2,4.2-7.4,6.2c-2.7,2.5-4.8,4.8-6.5,6.6
		c0.1-0.2,0.2-0.4,0.3-0.6c0.7-1.4,1.4-2.6,2.2-4.1c0.8-1.5,1.5-3.1,2-4.8c0.6-1.7,1-3.6,1.1-5.5c0.1-1,0.1-2,0-3.1
		c-0.1-1-0.3-2.1-0.9-3.2c-0.2-0.3-0.3-0.6-0.6-0.9l-0.2-0.2c-0.1-0.1-0.2-0.2-0.3-0.3c-0.2-0.2-0.4-0.3-0.9-0.5
		c-0.7-0.1-1.1,0-1.4,0.1c-0.3,0.1-0.6,0.2-0.9,0.3c-1,0.4-1.8,1-2.6,1.5c-1.6,1.1-3.1,2.2-4.5,3.3c-1.4,1.1-2.9,2.4-4.3,3.8
		c-1.4,1.4-3,3-4.2,5c-2.5,4-4,8.2-4.9,12.4c-0.5,2.1-0.9,4.1-1.3,6.2c-0.4,2.1-0.8,4.3-1.1,6.5c-0.6,4.4-1.1,8.8-1.7,13.2
		c-0.3,2-1,4-2.2,5.6c-1,1.2-2.3,2.2-3.8,2.7c-3.2-19.3-10.2-37-20.4-51.4C119.3,11.5,99.5,0,78.3,0s-41,11.5-55.8,32.4
		C8,52.8,0,79.9,0,108.6c0,28.7,8,55.8,22.4,76.2c14.8,20.9,34.6,32.4,55.8,32.4c15.7,0,30.6-6.3,43.3-18.1c0.1,0,0.3,0,0.4,0
		c-0.1,0.4-0.1,0.9-0.3,1.4c-0.1,0.2-0.2,0.5-0.3,0.8c-0.1,0.1-0.1,0.3-0.2,0.4c-0.1,0.2-0.2,0.4-0.3,0.5c-0.8,1.5-1.9,3.3-3.1,5.4
		c-1.2,2.1-2.6,4.6-3.6,7.4c-0.3,0.7-0.5,1.4-0.7,2.1c-0.2,0.8-0.5,1.5-0.7,2.3c-0.5,1.7-0.7,3.6-1,5.5c-0.4,3.8-0.6,7.9-0.1,12.3
		c0.1,1.1,0.3,2.2,0.5,3.4c0.2,1.1,0.4,2.2,0.7,3.3c0.1,0.5,0.3,1.1,0.4,1.6c0.2,0.5,0.4,1.1,0.5,1.7c0.2,0.6,0.4,1.1,0.6,1.7
		c0.1,0.3,0.2,0.6,0.3,0.8c0.1,0.2,0.3,0.7,0.3,0.6c0,0.1,0.1,0.3,0.1,0.4c0,0.1,0.1,0.2,0.1,0.3c0,0,0,0.1,0.1,0.1c0,0,0.1,0.1,0,0
		c0,0-0.1-0.1-0.1-0.1c-0.2-0.1-0.4-0.2-0.6-0.2c0,0-0.1,0-0.1,0l0,0c-0.2,0-0.3,0.1-0.5,0.1c-0.2,0-0.4,0.1-0.6,0.1
		c-0.2,0.1-0.4,0.2-0.6,0.3c-0.4,0.2-0.8,0.4-1.2,0.6c-1.5,0.9-2.9,2.5-3.9,4.4c-0.1,0.2-0.2,0.5-0.4,0.7c-0.1,0.3-0.3,0.6-0.4,1
		c-0.1,0.3-0.2,0.7-0.3,1c0,0.4-0.1,0.7-0.1,1.1c-0.1,1.5,0.2,3,0.8,4.4c1.2,2.8,3.5,5,6,6.8c2.6,1.8,5.6,3.2,8.8,4.3
		c6.3,2.3,14,3.9,23.1,4.5c4.4,0.3,8.8,0.2,13.1,0.2c4.3-0.1,8.6-0.2,13.5-0.7c4.8-0.6,10-1.4,15.2-3.4c5.6-2.1,10.5-5.3,14.4-8.9
		c0.5-0.4,1-0.9,1.5-1.3c0.5-0.4,0.9-0.9,1.3-1.4c0.9-0.9,1.8-1.8,2.5-2.8c1.8-2.1,3.5-4.4,5-6.8c2.9-4.9,5-10.4,6.3-16
		C219.6,233.7,220.1,227.8,220,221.9z M14.8,99c-3.6,8-1.7,17.7-0.5,22.5c0.8,3.3,0.5,9.8-2.3,16.3c-2-9.2-3-19.1-3-29.2
		c0-8.2,0.7-16.2,2-23.8C13.5,88.6,16.3,92.1,14.8,99z M72.8,208c-0.6-4.6-0.8-8.6-0.1-11.6c1.8-7.3,2.8-17.3,4.1-25.7
		c2.3-14.3-5.8-25.8-5.8-25.8s22.9-15.5,18.8-31.9c-3.9-15.8-19.4-13.4-26.1-21.5c-9.4-11.3-17.4-5.7-25.4-5.7
		c-5.2,0-10.1-2.8-11.2-10.1c-1-7.2-1.6-17-4.4-26.3C35.2,24.8,55.5,9,78.3,9c32.3,0,59.4,31.9,67.1,74.9c-1.7-0.3-3.5-0.6-5.3-0.8
		c-2.2-0.2-4.5-0.1-6.7,0.6c-2.2,0.7-4.1,1.9-5.9,3.3c-0.8,0.7-1.7,1.5-2.4,2.3l-1.1,1.2l-1,1c-1.4,1.3-3.1,2.3-4.8,3.2
		c-1.8,0.8-3.6,1.6-5.5,2.4c-1.9,0.8-3.8,1.6-5.6,2.7c-3.7,2.1-6.8,5.6-8.4,9.5c-0.4,1-0.7,2-1,3c-0.3,1-0.5,2.1-0.6,3.1
		c-0.2,2.1,0,4.2,0.5,6.2c0.5,2,1.2,3.9,2.1,5.6c0.7,1.6,1.6,3.1,2.6,4.7c1.9,3.1,4.3,6.4,7.4,9.2c1.8,1.7,3.6,3.1,5.3,4.4
		c-1.6,3-2.8,5.8-3.8,8.8c-1,3-1.7,6.1-2,9.4c-0.1,1.7-0.1,3.3,0,4.8c0.1,0.8,0.2,1.5,0.3,2.3c0.1,0.7,0.2,1.3,0.3,2
		c0.2,1.2,0.3,2.4,0.3,3.4c0,1-0.2,1.7-0.5,2.3c-0.3,0.5-0.8,1-1.5,1.4c-0.7,0.4-1.5,0.8-2.3,1c-0.8,0.3-1.7,0.5-2.5,0.7
		c-0.4,0.1-0.8,0.2-1.2,0.3c-0.2,0.1-0.5,0.1-0.7,0.2c-0.3,0.1-0.5,0.1-0.8,0.2c-2,0.7-3.5,2-4.5,3.3c-1,1.2-1.5,2.4-1.9,3.3
		c-0.8,2.1-1.1,4.2-1.1,6.3c0,2,0.4,3.9,1.1,5.7c0.4,0.9,0.8,1.8,1.5,2.5c0.4,0.5,0.8,0.9,1.3,1.3c-6,2.4-12.3,3.8-18.9,3.8
		C76.4,208.3,74.6,208.2,72.8,208z M214.5,237.5c-1.2,5.3-3.1,10.4-5.8,14.9l-1,1.7c-0.4,0.5-0.8,1.1-1.1,1.6l-1.1,1.6l-1.3,1.5
		c-0.5,0.5-0.9,1.1-1.4,1.6c-0.5,0.5-1,1-1.5,1.5c-0.9,1-2,1.9-2.9,2.8c-4,3.4-8.1,5.9-12.1,7.4c-4.4,1.6-9,2.6-13.7,3.1
		c-1.2,0.1-2.4,0.2-3.5,0.3c-1.2,0.1-2.4,0.2-3.6,0.2c-2.4,0-4.8,0.2-7.1,0.2c-4.6,0-8.9,0-12.8-0.3c-7.5-0.5-14.7-2-20.9-4.2
		c-3-1.1-5.7-2.3-7.8-3.8c-2.1-1.4-3.7-3.1-4.4-4.6c-0.3-0.8-0.5-1.5-0.4-2c0-0.3,0.1-0.6,0.1-0.8c0-0.1,0.1-0.2,0.1-0.3
		c0.1-0.2,0.2-0.3,0.3-0.5c0.7-1.3,1.4-2,2-2.3c0.1-0.1,0.3-0.2,0.4-0.2c0.1-0.1,0.3-0.1,0.5-0.2c0,0,0.2-0.1,0.3-0.1
		c0.6-0.1,1.4,0,1.9,0.2c0.4,0.1,1,0.5,1.4,0.6c1.8,0.8,5.9,3.6,7,2.2c1.2-1.4-3.1-6.6-3.1-6.6l-0.4-0.4c-0.1-0.1-0.2-0.2-0.2-0.3
		l-0.5-0.7l-1-1.4c-0.2-0.3-0.4-0.5-0.5-0.8c-0.2-0.3-0.3-0.5-0.4-0.8l-0.4-0.9l-0.6-1.5c-0.4-1-0.8-2.1-1-3.1
		c-0.3-1-0.5-2.1-0.8-3.1c-0.2-1-0.4-2-0.5-3c-0.5-4-0.6-7.8-0.4-11.3c0.1-1.7,0.3-3.4,0.6-5c0.1-0.8,0.3-1.6,0.5-2.4
		c0.2-0.8,0.4-1.6,0.6-2.3c0.9-2.9,2-5.4,2.9-7.6c0.9-2.2,1.6-4,2.1-5.5c0.5-1.5,0.3-2.8,0.1-3.6c0.3,0,0.5,0,0.8-0.1
		c2.6-0.3,3.9-1,3.8-1.3c-0.1-0.3-1.4-0.3-3.5-0.6c-1.1-0.1-2.4-0.3-3.9-0.7c-0.8-0.2-1.7-0.4-2.6-0.6c-0.9-0.2-1.9-0.5-2.9-0.8
		c-0.5-0.2-1.1-0.3-1.7-0.5c-0.6-0.2-1.1-0.3-1.7-0.5c-0.7-0.2-1.4-0.4-2-0.7l-2.1-0.8l-0.7,2.4c-0.1,0.4-0.2,0.9-0.4,1.3
		c-0.3,1.1-0.8,2.1-1.4,2.9c-0.6,0.8-1.3,1.3-2.2,1.6c-0.4,0.1-1,0.2-1.6,0.3c-0.1,0-0.3,0-0.4,0c-0.1,0-0.1,0-0.2,0
		c-0.1,0-0.1,0-0.2,0c-0.1,0-0.1-0.1-0.2-0.1c-0.2-0.1-0.5-0.4-0.8-0.8c-0.3-0.4-0.6-1-0.8-1.6c-0.8-2.5-0.8-5.7,0.1-8.2
		c0.5-1.3,1.5-3.2,3.6-4c0.4-0.1,1.5-0.4,2.4-0.6c0.9-0.3,1.9-0.5,3-0.9c1-0.4,2.2-0.9,3.3-1.6c1.1-0.7,2.3-1.9,3-3.4
		c0.7-1.6,0.7-3.1,0.7-4.5c-0.1-1.4-0.3-2.7-0.5-4l-0.2-1l-0.1-0.9c-0.1-0.6-0.2-1.2-0.2-1.8c-0.1-1.2-0.1-2.5,0-3.8
		c0.2-2.6,0.7-5.4,1.7-8.4c0.9-3,2.2-6.1,3.8-8.9c0.1-0.3,0.3-0.5,0.4-0.7l1-1.7l-1.5-1c-2.4-1.6-4.8-3.5-7-5.5
		c-2.2-2.1-4.4-4.7-6.3-7.8c-1-1.5-2-3.3-2.8-5c-0.8-1.6-1.4-3.2-1.7-4.9c-0.4-1.7-0.5-3.4-0.3-5.1c0.1-0.9,0.3-1.7,0.6-2.6
		c0.3-0.9,0.5-1.7,0.9-2.5l0.5-1.2l0.7-1.1c0.4-0.8,1.1-1.4,1.6-2.1c1.3-1.3,2.7-2.4,4.4-3.3c1.6-0.9,3.5-1.8,5.4-2.6
		c1.9-0.8,3.8-1.6,5.7-2.7c1.9-1,3.7-2.3,5.2-4l0.6-0.6l0.5-0.5l1-1.1c0.3-0.4,0.7-0.7,1.1-1c0.4-0.3,0.7-0.7,1.1-0.9
		c1.5-1.2,3.2-2.1,5-2.5c1.8-0.5,3.7-0.5,5.7-0.3c2.2,0.2,4.4,0.7,6.8,1c2.3,0.3,4.9,0.4,7.3-0.4c2.4-0.7,4.6-2.4,6-4.5
		c0.7-1.1,1.2-2.2,1.6-3.4c0.3-1.2,0.6-2.4,0.7-3.5c0.6-4.5,1.1-8.8,1.7-13.1c0.3-2.1,0.7-4.3,1.2-6.3c0.2-1.1,0.5-2.1,0.7-3.2
		c0.3-1,0.5-2.1,0.8-3.1c1.1-4,2.5-7.7,4.6-10.7c2-3.1,5-5.5,8.1-8c1.6-1.2,3.1-2.3,4.6-3.3c0.4-0.2,0.7-0.4,1.1-0.6
		c0.2-0.1,0.4-0.2,0.6-0.3c0,0,0,0,0,0l0.2,0.5c0.4,1.4,0.5,3,0.3,4.5c-0.2,1.6-0.6,3.1-1.1,4.6c-0.5,1.5-1.1,2.9-1.9,4.2
		c-0.2,0.3-0.4,0.7-0.5,1c-0.2,0.3-0.4,0.7-0.6,1c-0.4,0.7-0.8,1.4-1.1,2c-1.4,2.7-2.7,5.3-3.8,7.8c-2.2,5-3.7,9.5-4.8,13.1
		c-1.1,3.7-1.8,6.7-2,8.9c-0.2,2.1-0.1,3.3,0.3,3.4c0.4,0.1,0.9-0.9,1.6-2.8c0.7-1.9,1.6-4.6,2.9-8.3c1.4-3.8,3-8.1,5.2-13
		c0.1-0.3,0.3-0.6,0.4-0.9c0.7-0.4,1.5-1.1,2.5-1.9c2.3-1.9,5.5-4.9,9.6-8.4c2-1.7,4.3-3.6,7-5.4c1.3-0.9,2.7-1.9,4.2-2.7
		c0.7-0.4,1.5-0.8,2.3-1.1c0.8-0.3,1.6-0.5,2.2-0.6c0.2,0,0.3,0,0.4,0c0.1,0,0.2,0,0.3,0.1c0.2,0.1,0.4,0.3,0.5,0.5
		c0,0.1,0.1,0.2,0.1,0.3c0,0.1,0.1,0.3,0.1,0.5c0.1,0.4,0.1,0.8,0.1,1.2c0,0.8,0,1.7,0,2.6c-0.1,1.8-0.3,3.6-0.6,5.4
		c-0.6,3.6-1.6,7.1-2.8,10.6c-0.8,2.1-1.7,4.3-2.9,6.3c-1.1,1.9-2.5,3.7-4.3,5.1c-3.8,3-8.5,5.5-13.5,8.6c-1.3,0.8-2.5,1.6-3.7,2.5
		c-1.2,0.9-2.4,1.8-3.5,3.1c-0.1,0.2-0.3,0.3-0.4,0.5l-0.4,0.6c-0.1,0.1-0.1,0.2-0.2,0.3l-0.1,0.2l-0.2,0.4c-0.3,0.6-0.6,1.2-1,1.7
		c-0.7,1.2-1.5,2.3-2.2,3.6c-0.7,1.2-1.4,2.5-1.9,3.9c-0.5,1.4-0.7,3-0.7,4.5c0,0.8,0.1,1.5,0.1,2.3l0.2,1.1l0.1,0.6
		c0.1,0.2,0.2,0.6,0.2,0.7c0.5,1.3,0.9,2.7,1.1,4.1c0.5,2.8,0.5,5.8,0.3,8.9c-0.1,1.5-0.3,3-0.6,4.5c-0.1,0.7-0.3,1.5-0.4,2.2
		c-0.2,0.8-0.4,1.4-0.5,2.4c-0.3,1.7-0.3,3.4-0.2,5c0.1,1.6,0.4,3.3,0.7,4.9c0.7,3.2,1.8,6.4,3.4,9.3c0.4,0.7,0.8,1.5,1.3,2.2
		l0.7,1.1l0.8,1c0.5,0.7,1.1,1.3,1.7,1.9l0.8,0.9l0.7,0.8c1.9,2.3,3.3,5.1,4.2,8.1c1,3,1.7,6.2,2.7,9.4c0.5,1.6,1.2,3.2,2,4.8
		c0.2,0.4,0.5,0.8,0.7,1.1c0.3,0.4,0.5,0.8,0.8,1.1c0.6,0.7,1.1,1.4,1.8,2l3.4,3c0.5,0.5,1.1,0.9,1.6,1.4l1.5,1.6l1.5,1.6
		c0.5,0.5,0.9,1.1,1.3,1.7c0.8,1.2,1.8,2.2,2.5,3.5l1.1,1.8c0.4,0.6,0.8,1.2,1.1,1.9c0.6,1.3,1.3,2.5,1.9,3.9c0.5,1.3,1,2.6,1.5,3.9
		c0.4,1.3,0.8,2.7,1.2,4.1c0.3,1.4,0.6,2.8,0.9,4.2c0.3,1.4,0.4,2.8,0.7,4.2c0.2,1.4,0.3,2.9,0.5,4.3c0.1,1.4,0.1,2.9,0.2,4.3
		C216.2,226.5,215.7,232.2,214.5,237.5z"/>
</g>
</svg>
