<?xml version="1.0" encoding="utf-8"?>
<!-- Generator: Adobe Illustrator 19.1.0, SVG Export Plug-In . SVG Version: 6.00 Build 0)  -->
<svg version="1.1" id="Layer_1" xmlns="http://www.w3.org/2000/svg" xmlns:xlink="http://www.w3.org/1999/xlink" x="0px" y="0px"
	 viewBox="0 0 70 60" style="enable-background:new 0 0 70 60;" xml:space="preserve">
<g>
	<g>
		<path d="M52,29.6c-3.6,0-7-1.3-9.6-3.6c-1.9,0.2-6.1,0.5-6.2,0.5l-2.2,0.2l1-2c0,0,1.8-3.5,2.8-5.8c-0.4-1.3-0.6-2.7-0.6-4.1
			C37.2,6.6,43.9,0,52,0s14.8,6.6,14.8,14.8S60.2,29.6,52,29.6z M43.3,23.5l0.4,0.4c2.3,2.1,5.3,3.3,8.4,3.3
			c6.8,0,12.3-5.5,12.3-12.3S58.9,2.5,52,2.5S39.7,8,39.7,14.8c0,1.3,0.2,2.6,0.6,3.8l0.1,0.4l-0.2,0.4c-0.5,1.3-1.4,3.1-2,4.4
			c1.6-0.1,3.6-0.3,4.5-0.4L43.3,23.5z"/>
	</g>
	<g>
		<circle cx="48.7" cy="14.6" r="1.9"/>
	</g>
	<g>
		<circle cx="55.5" cy="14.6" r="1.9"/>
	</g>
	<g>
		<path d="M42.8,60C32.7,60,20,56.6,10.5,42.6C-0.4,26.4,4,10.8,4.2,10.2l0.2-0.7L5,9.2C5.4,9,13.1,5.8,20.6,7.4l0.6,0.1L21.5,8
			c4.4,6,2.9,16.2,2.9,16.7l-0.1,0.5l-0.3,0.3c-0.1,0.1-2.1,2.2-5.5,3.9c2.7,6.9,7.3,11,11.3,13.9c2.9-3.7,4.7-4.8,4.9-5l0.4-0.2
			l0.4,0c0.4,0,9.7-0.2,15.9,6l0.4,0.4l0.1,0.5c0.6,3.7-1.1,10.9-4.1,14.4l-0.4,0.5l-0.6,0.1C45.5,59.9,44.2,60,42.8,60z M6.9,11.7
			c-0.7,3.1-2.7,16.1,6.1,29.2C22.7,55.1,36,57.5,45.8,56.8c1.9-2.8,3.3-8.1,3.1-11c-4.5-4.2-11-4.6-12.8-4.7
			c-0.7,0.5-2.3,2-4.7,5.1l-0.9,1.2l-1.2-0.8c-5-3.3-11.1-8.3-14.2-17.6l-0.5-1.4l1.4-0.5c2.7-1.1,4.6-2.7,5.4-3.4
			c0.2-1.9,0.8-9.1-2-13.4C14.2,9.4,8.8,11.1,6.9,11.7z"/>
	</g>
</g>
</svg>
