<?xml version="1.0" encoding="utf-8"?>
<!-- Generator: Adobe Illustrator 19.1.0, SVG Export Plug-In . SVG Version: 6.00 Build 0)  -->
<svg version="1.1" id="Layer_1" xmlns="http://www.w3.org/2000/svg" xmlns:xlink="http://www.w3.org/1999/xlink" x="0px" y="0px"
	 viewBox="0 0 30 30" enable-background="new 0 0 30 30" xml:space="preserve">
<path fill="#D6AE6C" d="M3.5,27c-0.1,0-0.3-0.1-0.4-0.1l0,0c0-0.1-0.1-0.3-0.1-0.4v-3.3c0-1.5,1-2.8,2.5-3.2l0,0
	c1.1-0.3,2.5-0.8,3.7-1.3l0,0c1.1-0.5,2-1,2.4-1.4l0,0v-0.6c-1-0.9-1.8-2-2.1-3.6l0,0c-0.8-0.7-1-1.8-1-2.6l0,0c0-0.5,0.2-1,0.6-1.3
	l0,0C9.3,5.4,11.9,3,15,3l0,0c3.1,0,5.7,2.4,5.9,6.2l0,0c0.4,0.4,0.6,0.8,0.6,1.3l0,0c0,0.8-0.2,1.9-0.9,2.6l0,0
	c-0.4,1.6-1.2,2.7-2.1,3.6l0,0v0.6c0.4,0.4,1.3,0.9,2.4,1.4l0,0c1.2,0.5,2.6,1,3.7,1.3l0,0c1.4,0.4,2.5,1.7,2.5,3.2l0,0v3.3
	c0,0.1-0.1,0.3-0.1,0.4l0,0C26.9,27,26.8,27,26.6,27l0,0H3.5L3.5,27z"/>
</svg>
