<?xml version="1.0" encoding="utf-8"?>
<!-- Generator: Adobe Illustrator 18.1.1, SVG Export Plug-In . SVG Version: 6.00 Build 0)  -->
<svg version="1.1" id="Layer_1" xmlns="http://www.w3.org/2000/svg" xmlns:xlink="http://www.w3.org/1999/xlink" x="0px" y="0px"
	 viewBox="-291.5 275.1 300 53.7" style="enable-background:new -291.5 275.1 300 53.7;" xml:space="preserve">
<style type="text/css">
	.st0{fill:#B18642;}
	.st1{fill:#B5B7B7;}
	.st2{fill:#464646;}
</style>
<g>
	<g id="XMLID_1559_">
		<g id="XMLID_1560_">
			<polygon id="XMLID_1564_" class="st0" points="-239.5,307.4 -261,328.8 -261,318.3 -250.3,307.4 			"/>
			<polygon id="XMLID_1563_" class="st1" points="-250.4,296.6 -239.5,307.4 -250.3,307.4 -261,296.6 			"/>
			<polygon id="XMLID_1562_" class="st0" points="-282.4,307.4 -250.3,275.1 -250.2,285.8 -271.8,307.4 			"/>
			<polygon id="XMLID_1561_" class="st1" points="-261,328.8 -282.4,307.4 -271.8,307.4 -261,318.3 			"/>
		</g>
	</g>
	<g id="XMLID_3532_">
		<path id="XMLID_9694_" class="st0" d="M-222.7,302.2c-2.1,0.7-4.3,1.2-6.5,1.6l-0.2-1.7l1.6-0.2c0.5-0.1,0.9-0.2,1.3-0.3v-6.2
			h-2.7v-1.5h2.7v-1.7h-1.6v-0.8l-0.6,0.6l-0.7-1.8c1.5-1.3,2.6-2.8,3.2-4.3h1.4c1,1,1.8,2.4,2.7,3.7l-1.4,1.1l-0.9-1.7
			c-0.2-0.3-0.4-0.6-0.6-0.9c-0.1-0.1-0.2-0.2-0.3-0.4c-0.1,0.2-0.2,0.4-0.3,0.5c-0.5,0.8-1,1.7-1.7,2.6h4.4v1.5h-1.8v1.7h2.4v1.5
			h-2.4v5.9l1.1-0.3c0.3-0.1,0.7-0.2,1.1-0.3L-222.7,302.2z M-228.6,300.9c-0.1-1.5-0.2-3-0.5-4.1l1.3-0.2c0.2,0.7,0.4,1.8,0.6,3.6
			c0,0.1,0,0.2,0,0.4L-228.6,300.9z M-222.8,296.6l-0.1,1.6c-0.1,0.8-0.1,1.4-0.2,1.8l-1.3-0.2c0-0.1,0-0.2,0-0.3
			c0.2-1.1,0.3-1.9,0.3-2.4c0-0.4,0-0.6,0-0.7L-222.8,296.6z M-215.6,285.5v1h4.9v1.3h-4.9v0.8h4.1v1.2h-9.8v-1.2h4v-0.8h-5v-1.3h5
			v-1L-215.6,285.5L-215.6,285.5z M-212.1,300.1v1.8v0.2c0,0.8-0.1,1.3-0.4,1.6c-0.3,0.3-0.9,0.5-1.7,0.5h-1l-0.4-1.5h1.4
			c0.4,0,0.6-0.2,0.6-0.6v-2h-3.4v-1.3h3.4v-0.9h-8.6v-1.4h11.7v1.4h-1.4v0.9h1.4v1.3H-212.1z M-213,293.4c0.3-0.4,0.4-0.9,0.6-1.3
			V292h-9.7v-1.4h11.5c0,1.1-0.3,2.3-0.8,3.4L-213,293.4z M-213.5,292.7v1.1h-2.7v0.8h4.6v1.2h-10.3v-1.2h4.1v-0.8h-3.5v-1.1H-213.5
			z M-221.8,298.6h4.3v5.1h-1.4v-0.8h-1.3v1.1h-1.4v-5.4H-221.8z M-219.1,299.9h-1.3v1.8h1.3V299.9z M-215.9,302.5
			c-0.1-0.3-0.3-0.5-0.5-0.9l-0.5-0.8l1.1-0.6c0.2,0.2,0.4,0.4,0.6,0.7l0.6,0.8L-215.9,302.5z"/>
		<path id="XMLID_9681_" class="st0" d="M-199.4,292.3v-1.8h2.1v-4.9h1.8v4.9h1.6v1.8h-1.6v12.1h-1.8v-12.1H-199.4z M-186.7,285.5
			v1.7h2.9c-0.1-0.1-0.1-0.1-0.1-0.2c-0.1-0.1-0.2-0.2-0.3-0.3l-0.6-0.6l1.2-0.7l0.7,0.5c0.1,0.1,0.3,0.3,0.5,0.6l0.1,0.1l-1,0.5
			h2.8v1.6h-6.1v0.8h5.2v5.9v0.4c0,0.6-0.1,1-0.3,1.2c-0.2,0.2-0.6,0.4-1.2,0.5v0.6h2.4v1.6h-2.4v1.9v0.4c0,1.1-0.6,1.7-1.8,1.7h-2
			l-0.4-1.7l2,0.1c0.4,0,0.6-0.2,0.6-0.6V300h-5.8c0.1,0.1,0.2,0.2,0.3,0.3c0.2,0.2,0.5,0.4,0.7,0.7l1.1,1.3l-1.4,1.3
			c-0.5-0.7-1.1-1.5-1.8-2.3l-0.3-0.3l1.3-1h-3.5v-1.6h9.5v-0.6h-0.6l-0.4-1.3h1.9c0.2,0,0.3,0,0.4-0.1c0.1,0,0.1-0.2,0.1-0.4v-0.3
			h-3.6v1.7h-1.7v-1.7h-3.1v2.1h-1.7v-8.1h4.8v-0.8h-5.3v-1.6h5.3v-1.7H-186.7z M-188.5,292.1v-0.9h-3.1v0.9H-188.5z M-188.5,294.4
			v-1h-3.1v1H-188.5z M-183.2,292.1v-0.9h-3.6v0.9H-183.2z M-183.2,294.4v-1h-3.6v1H-183.2z"/>
		<path id="XMLID_9650_" class="st0" d="M-169.4,289.5v-1.6h2.7l-0.3-0.9c-0.2-0.5-0.3-0.8-0.5-1.2l1.7-0.2c0.2,0.4,0.4,0.8,0.5,1.2
			l0.4,1.1h2.1v1.6H-169.4z M-168.8,291h5.5v1.6h-5.5V291z M-168.8,294h5.4v1.5h-5.4V294z M-163.5,303.3h-3.7v1h-1.6v-7.2h5.3
			L-163.5,303.3L-163.5,303.3z M-165.1,298.6h-2v3.2h2V298.6z M-162.3,288.5h6.1c0-0.4-0.1-0.9-0.1-1.3v-1.6h1.7v1.5v1.4h3.7v1.7
			h-3.7c0.1,0.6,0.1,1.5,0.1,2.8c0,1.2,0.1,2.1,0.3,3c0.3-0.7,0.6-1.3,0.8-2l0.6-2.1l1.6,0.6c-1,3-1.8,5.1-2.6,6.5
			c0.4,2,0.8,3.1,1.1,3.1c0.2,0,0.3-0.8,0.3-2.5v-0.4v-0.2l1.5,1.2c-0.2,2.8-0.8,4.2-1.8,4.2c-0.9,0-1.7-1.1-2.5-3.4
			c-0.6,0.8-1.4,1.7-2.8,2.9l-1.2-1.4c1.5-1.1,2.7-2.4,3.4-3.7c-0.4-1.7-0.6-3.3-0.6-4.7c0-1.2,0-2.6-0.1-3.8h-4.4v2.1h3.6v1
			c0,2.5-0.1,4.2-0.2,5.3c-0.1,1-0.4,1.6-0.7,1.9c-0.3,0.2-0.9,0.4-1.8,0.4h-0.4h-0.1l-0.6-1.6c-0.1,0.4-0.1,0.7-0.1,0.9
			c-0.2,1.5-0.5,2.9-0.9,4.1l-1.5-1.5c0.7-2.4,1.1-5,1.1-8.2v-6.2H-162.3z M-160.5,297l-0.2,2l1.2,0.1c0.2,0,0.3,0,0.4-0.1
			c0.1-0.1,0.2-0.4,0.2-1s0.1-1.8,0.2-3.9h-1.8C-160.5,295.1-160.5,296.1-160.5,297z M-152.2,288.5c-0.4-0.7-0.8-1.4-1.3-1.8
			c0,0-0.1-0.1-0.1-0.2l1.3-0.8c0.4,0.4,0.9,0.9,1.4,1.6c0,0,0.1,0.1,0.1,0.2L-152.2,288.5z"/>
		<path id="XMLID_9330_" class="st0" d="M-138.4,294.8h7.5v9.5h-1.9v-1.2h-3.6v1.2h-1.9L-138.4,294.8L-138.4,294.8z M-132.9,296.5
			h-3.6v4.9h3.6V296.5z M-136.5,286.4h13.2v6.5h-13.2V286.4z M-125.2,288.2h-9.3v3.1h9.3L-125.2,288.2z M-129.3,294.8h7.7v9.5h-1.9
			v-1.2h-3.9v1.2h-1.9v-9.5H-129.3z M-123.5,296.5h-3.9v4.9h3.9V296.5z"/>
		<path id="XMLID_9326_" class="st0" d="M-109.5,293.5c1.5-2.4,2.8-5,3.7-8l1.8,0.6c-0.1,0.2-0.1,0.3-0.1,0.4
			c-0.4,1.4-0.8,2.6-1.2,3.6v14.1h-1.9v-10.4c-0.1,0.1-0.1,0.2-0.2,0.3c-0.3,0.6-0.8,1.2-1.3,1.8L-109.5,293.5z M-104,303.2
			l-1.1-1.6c1.7-1,3.3-2.7,4.5-4.8h-4v-1.8h5.8v-1.8h-4.5v-6.7h11.1v6.7h-4.6v1.8h6v1.8h-4.3c1,1.8,2.5,3.5,4.5,4.7l-1.1,1.7
			c-2.1-1.7-3.9-3.9-5.1-6.4v7.5h-1.9v-7.4c-0.7,1.5-1.4,2.8-2.3,3.7C-101.8,301.4-102.8,302.3-104,303.2z M-94.2,288.3h-7.3v3.1
			h7.3V288.3z"/>
		<path id="XMLID_9109_" class="st0" d="M-73.8,288.9l-0.3,0.9c2.3-0.8,4.1-2.4,5.5-4.3h1.6c0.6,0.8,1.3,1.4,2.1,2
			c0.7,0.6,2,1.2,3.9,2.1l-0.9,1.8l-1.1-0.5c-0.4-0.2-0.8-0.5-1.2-0.7v1.1h-6.8v-1.1l-1,0.6c-0.2,0.1-0.5,0.3-1,0.5
			c-0.1,0-0.1,0.1-0.2,0.1l-1-1.5l-0.4,1.1c-0.1,0.4-0.3,0.9-0.5,1.3c0.9,1.5,1.4,3,1.4,4.1c0,1.8-0.9,2.8-2.8,2.8h-0.2l0,0l-0.5-2
			c0.2,0,0.4,0,0.7,0c0.5,0,0.8-0.1,0.9-0.3c0.1-0.2,0.2-0.4,0.2-0.8c0-0.8-0.5-2-1.4-3.7c0.3-0.8,0.6-1.5,0.8-2.4l0.6-2.4h-2.3
			v16.4h-1.7v-18.2h5.7v1.6L-73.8,288.9z M-73.2,304.4l-1.3-1.3c1.5-1.3,2.6-3,3.3-5l1.6,0.5l-0.2,0.6l-0.1,0.4
			c0.6,0.4,1.3,1,2.1,1.9l0.2,0.2l-1.2,1.3l-0.8-1.1c-0.3-0.4-0.6-0.7-0.9-1c-0.1,0.1-0.1,0.2-0.2,0.3
			C-71.5,302.3-72.3,303.3-73.2,304.4z M-72.9,292.4h4.9v5.6h-4.9V292.4z M-69.6,293.9h-1.8v2.7h1.8V293.9z M-64.8,289.8l-0.4-0.3
			c-0.6-0.5-1.4-1.2-2.4-2.3c-0.1,0.1-0.1,0.2-0.2,0.2c-0.7,0.8-1.4,1.6-2.3,2.4H-64.8z M-67,304.4l-1.3-1.3c1.1-0.9,2-2.5,2.9-4.6
			c0.1-0.1,0.1-0.3,0.2-0.5l1.6,0.5l-0.3,0.8l-0.3,0.7c1,0.7,2,1.6,3,2.9l-1.2,1.2c-0.9-1.1-1.6-2-2.5-2.8
			C-65.5,302.5-66.2,303.4-67,304.4z M-66.9,292.4h5.1v5.6h-5.1V292.4z M-63.4,293.9h-1.9v2.7h1.9V293.9z"/>
		<path id="XMLID_9099_" class="st0" d="M-47,299.1c-0.1,2-0.4,3.7-0.8,5l-1.6-0.5c0.4-1.1,0.7-2.5,0.9-4c0-0.2,0.1-0.4,0.1-0.7
			L-47,299.1z M-42,289.1c-1.2,2.9-2.6,5.3-4.1,7.3c0.1,0,0.4,0,0.8,0c0.4,0,1-0.1,1.7-0.3l-0.2-0.7l-0.3-0.8l1.4-0.4
			c0.4,0.8,0.8,1.9,1.2,3.4c0,0.1,0.1,0.2,0.1,0.3l-1.6,0.4l-0.1-0.4l-0.1-0.4c-1.1,0.2-2,0.3-2.7,0.4l-3,0.3l-0.5-1.7h0.6h0.5
			c1.2-1.5,2-2.8,2.6-3.8l-1.5,0.1l-1.8,0.1l-0.3-1.6h0.6h0.4c1-1.8,1.8-3.7,2.5-5.5l1.8,0.5c-0.7,1.8-1.5,3.5-2.5,5h0.8l0.7-0.1
			c0.4-0.6,0.7-1.4,1.1-2.4c0-0.1,0-0.1,0.1-0.2L-42,289.1z M-46.3,303.6c0.1-0.6,0.1-1.4,0.1-2.4c0-0.7-0.1-1.4-0.2-2.3l1.4-0.1
			c0,0.3,0.1,0.5,0.1,0.7c0.2,1.1,0.3,2.5,0.3,3.9L-46.3,303.6z M-43.3,303.1l-0.4-2.3c-0.1-0.5-0.3-1.2-0.5-1.9l1.3-0.3
			c0.4,1,0.7,2.1,0.9,3.5c0,0.2,0.1,0.3,0.1,0.6L-43.3,303.1z M-41.9,292.6c0.8-1.2,1.5-2.6,2-4l1.6,0.7c-0.1,0.2-0.2,0.4-0.3,0.5
			c-0.5,0.9-0.9,1.7-1.3,2.5c0,0.1-0.1,0.1-0.1,0.2l0.8,1.3c0.3,0.4,0.6,1,1.1,1.9l-1.6,0.8C-40.5,295-41.2,293.7-41.9,292.6z
			 M-31.1,286.5v1.7h-10.6v-1.7H-31.1z M-41.4,303.5v-1.6h4.1v-3.3h-3.9v-1.7h9.9v1.6h-4.1v3.3h4.8v1.6h-10.8V303.5z M-38.4,292.6
			c0.8-1.2,1.3-2.4,1.7-3.3c0.1-0.2,0.2-0.4,0.3-0.7l1.6,0.8c-0.1,0.2-0.2,0.3-0.2,0.5c-0.3,0.7-0.7,1.5-1.3,2.4
			c0,0.1-0.1,0.1-0.1,0.2l0.8,1.3c0.2,0.3,0.4,0.7,0.7,1.2c0.1,0.1,0.2,0.3,0.3,0.6l-1.6,0.9c-0.1-0.3-0.3-0.5-0.3-0.7
			c-0.2-0.4-0.5-0.9-0.7-1.3L-38.4,292.6z M-34.8,292.6c0.9-1.3,1.6-2.6,2.1-3.9l1.5,0.8c-0.1,0.2-0.2,0.3-0.2,0.4
			c-0.6,1.1-1.1,2-1.5,2.6l0.9,1.2c0.2,0.3,0.4,0.6,0.7,1.1c0.1,0.1,0.2,0.3,0.3,0.6l-1.5,0.9c-0.1-0.3-0.3-0.5-0.3-0.7
			c-0.3-0.5-0.5-1-0.7-1.3L-34.8,292.6z"/>
		<path id="XMLID_9093_" class="st0" d="M-16.6,299.1c-0.1,2.1-0.4,3.8-1,5.1l-1.8-0.6c0.6-1.5,0.9-2.9,1-4c0-0.2,0.1-0.4,0.1-0.7
			L-16.6,299.1z M-10.7,289c-2,3.5-3.7,5.9-4.9,7.3l1.5-0.2l1.4-0.2c0-0.1-0.1-0.2-0.1-0.3c-0.1-0.2-0.1-0.4-0.2-0.5l-0.3-0.7
			l1.5-0.3c0.4,0.8,0.8,1.8,1.2,3.1c0,0.2,0.1,0.4,0.2,0.6l-1.6,0.4l-0.1-0.4l-0.1-0.4c-1,0.2-2,0.3-3.2,0.4l-3.5,0.4l-0.5-1.8h0.7
			l0.7-0.1c1.5-1.8,2.5-3.1,2.8-3.7l-2,0.2l-1.8,0.2l-0.4-1.7h0.5h0.5c1-1.7,1.9-3.6,2.8-5.5l1.9,0.5c-0.1,0.3-0.2,0.6-0.3,0.8
			c-0.7,1.7-1.5,3.2-2.4,4.2l0.9-0.1l1.4-0.1l0.7-1.2c0.2-0.4,0.4-0.7,0.6-1.1c0-0.1,0.1-0.2,0.1-0.3L-10.7,289z M-15.5,303.6v-0.4
			c0-1-0.1-1.6-0.1-1.9c0-0.9-0.1-1.6-0.3-2.3l1.6-0.2c0,0.2,0.1,0.3,0.1,0.4c0.3,1.1,0.4,2.4,0.5,3.7c0,0.1,0,0.2,0,0.4
			L-15.5,303.6z M-12.1,303.1c-0.1-0.3-0.1-0.5-0.1-0.7c-0.3-1.6-0.6-2.8-0.9-3.7l1.5-0.3c0.5,1.1,0.8,2.4,1.1,3.8
			c0,0.1,0.1,0.2,0.1,0.4L-12.1,303.1z M-7.1,303.9h-0.5c-0.6,0-1.1-0.2-1.6-0.5c-0.4-0.3-0.6-1-0.6-2.1v-8.5h6.3v-4.6h-7.1v-1.8h9
			v8.2h-6.2v6.7c0,0.4,0.1,0.6,0.2,0.7c0.1,0.1,0.3,0.1,0.7,0.1h3.3c0.5,0,0.8-0.2,0.9-0.6c0.1-0.4,0.2-1.5,0.2-3.4l1.9,0.6
			c0,2.6-0.2,4-0.6,4.5c-0.4,0.5-1.1,0.7-2.1,0.7h-3.8V303.9z"/>
		<g id="XMLID_5455_">
			<path id="XMLID_9070_" class="st2" d="M-228.2,314.3c0-2.4,0-2.8,0-3.3s-0.1-0.7-0.6-0.8c-0.1,0-0.4,0-0.5,0s-0.1,0-0.1-0.1
				c0-0.1,0.1-0.1,0.2-0.1c0.7,0,1.6,0,1.7,0c0.4,0,0.9,0,1.6,0c2.5,0,3.1,1.5,3.1,2.3c0,1.2-0.7,1.9-1.4,2.8
				c1.1,0.3,2.7,1.4,2.7,3.2c0,1.6-1.2,3.3-3.9,3.3c-0.2,0-0.6,0-1.1,0c-0.4,0-0.8,0-0.9,0c0,0-0.3,0-0.6,0c-0.3,0-0.6,0-0.9,0
				c-0.2,0-0.2,0-0.2-0.1c0,0,0-0.1,0.1-0.1c0.1,0,0.3,0,0.4-0.1c0.3-0.1,0.4-0.4,0.4-0.8c0.1-0.6,0.1-1.8,0.1-3.3V314.3z
				 M-227,314.6c0,0.1,0,0.1,0.1,0.2c0.1,0,0.4,0.1,0.9,0.1c0.8,0,1,0,1.3-0.4c0.3-0.4,0.5-0.9,0.5-1.5c0-1.2-0.5-2.6-2-2.6
				c-0.2,0-0.5,0-0.7,0.1c-0.1,0-0.2,0.1-0.2,0.2v3.9H-227z M-227,316.2c0,1.1,0,3.1,0,3.3c0,0.7,0,0.9,0.5,1.2
				c0.4,0.2,1,0.2,1.3,0.2c0.8,0,2.1-0.4,2.1-2.1c0-0.9-0.3-2.3-1.4-3.1c-0.5-0.3-0.9-0.4-1.2-0.4c-0.2,0-0.9,0-1.2,0
				c-0.1,0-0.1,0-0.1,0.1L-227,316.2L-227,316.2z"/>
			<path id="XMLID_9061_" class="st2" d="M-218.8,315.3c0-2,0-2.4,0-2.8s-0.1-0.6-0.5-0.7c-0.1,0-0.3,0-0.4,0l-0.1-0.1
				c0-0.1,0.1-0.1,0.2-0.1c0.6,0,1.5,0,1.5,0c0.1,0,1.2,0,1.6,0c0.8,0,1.7,0.1,2.5,0.5c0.3,0.2,0.9,0.8,0.9,1.7c0,0.9-0.4,1.8-1.6,3
				c1.1,1.3,2,2.6,2.8,3.4c0.7,0.7,1.1,0.8,1.5,0.9c0.3,0,0.4,0,0.5,0c0.1,0,0.1,0.1,0.1,0.1c0,0.1-0.1,0.1-0.3,0.1h-0.8
				c-0.7,0-1.1-0.1-1.4-0.3c-0.6-0.3-1-0.9-1.8-1.9c-0.5-0.7-1.1-1.5-1.4-1.8c-0.1-0.1-0.1-0.1-0.2-0.1h-1.7c-0.1,0-0.1,0-0.1,0.1
				v0.3c0,1.2,0,2.3,0.1,2.8c0,0.4,0.1,0.6,0.5,0.7c0.2,0,0.5,0.1,0.6,0.1c0.1,0,0.1,0.1,0.1,0.1c0,0.1-0.1,0.1-0.2,0.1
				c-0.7,0-1.5,0-1.6,0c0,0-0.9,0-1.3,0c-0.1,0-0.2,0-0.2-0.1c0,0,0-0.1,0.1-0.1c0.1,0,0.3,0,0.4-0.1c0.3-0.1,0.3-0.3,0.3-0.7
				c0.1-0.5,0.1-1.5,0.1-2.8L-218.8,315.3L-218.8,315.3z M-217.6,316.4c0,0.1,0,0.1,0.1,0.2c0.2,0.1,0.9,0.2,1.4,0.2
				c0.3,0,0.7,0,1-0.2c0.4-0.3,0.8-1,0.8-1.9c0-1.6-0.9-2.6-2.4-2.6c-0.4,0-0.8,0-0.9,0.1c-0.1,0-0.1,0.1-0.1,0.1V316.4z"/>
			<path id="XMLID_9059_" class="st2" d="M-207.8,317.6c0,1.2,0,2.3,0.1,2.8c0,0.4,0.1,0.6,0.5,0.7c0.2,0,0.5,0.1,0.6,0.1
				c0.1,0,0.1,0.1,0.1,0.1c0,0.1-0.1,0.1-0.2,0.1c-0.7,0-1.6,0-1.6,0c-0.1,0-0.9,0-1.3,0c-0.1,0-0.2,0-0.2-0.1c0,0,0-0.1,0.1-0.1
				c0.1,0,0.3,0,0.4-0.1c0.3-0.1,0.3-0.3,0.3-0.7c0.1-0.5,0.1-1.5,0.1-2.8v-2.3c0-2,0-2.4,0-2.8s-0.1-0.6-0.4-0.7
				c-0.1,0-0.3,0-0.4,0c-0.1,0-0.1-0.1-0.1-0.1c0-0.1,0.1-0.1,0.2-0.1c0.4,0,1.2,0,1.3,0c0.1,0,0.9,0,1.3,0c0.1,0,0.2,0,0.2,0.1
				l-0.1,0.1c-0.1,0-0.2,0-0.3,0c-0.4,0.1-0.4,0.3-0.5,0.7c0,0.4,0,0.8,0,2.8v2.3H-207.8z"/>
			<path id="XMLID_9057_" class="st2" d="M-202.6,317.7c0,1.9,0,2.7,0.3,2.9c0.2,0.2,0.7,0.3,1.7,0.3c0.7,0,1.3,0,1.6-0.4
				c0.2-0.2,0.3-0.5,0.3-0.7c0-0.1,0.1-0.2,0.1-0.2c0.1,0,0.1,0.1,0.1,0.2s-0.1,0.9-0.2,1.3c-0.1,0.3-0.1,0.3-0.8,0.3
				c-0.9,0-1.7,0-2.4,0s-1,0-1.4,0c-0.1,0-0.3,0-0.5,0c-0.3,0-0.5,0-0.8,0c-0.1,0-0.2,0-0.2-0.1c0,0,0-0.1,0.1-0.1s0.3,0,0.4-0.1
				c0.3-0.1,0.3-0.3,0.3-0.7c0.1-0.5,0.1-1.5,0.1-2.8v-2.3c0-2,0-2.4,0-2.8s-0.1-0.6-0.5-0.7c-0.1,0-0.3,0-0.4,0l-0.1-0.1
				c0-0.1,0.1-0.1,0.2-0.1c0.6,0,1.4,0,1.5,0c0.1,0,1,0,1.4,0c0.1,0,0.2,0,0.2,0.1l-0.1,0.1c-0.1,0-0.3,0-0.4,0
				c-0.4,0.1-0.5,0.3-0.5,0.7c0,0.4,0,0.8,0,2.8v2.4H-202.6z"/>
			<path id="XMLID_9055_" class="st2" d="M-194.9,317.7c0,1.9,0,2.7,0.3,2.9c0.2,0.2,0.7,0.3,1.7,0.3c0.7,0,1.3,0,1.6-0.4
				c0.2-0.2,0.3-0.5,0.3-0.7c0-0.1,0.1-0.2,0.1-0.2c0.1,0,0.1,0.1,0.1,0.2s-0.1,0.9-0.2,1.3c-0.1,0.3-0.1,0.3-0.8,0.3
				c-0.9,0-1.7,0-2.4,0s-1,0-1.4,0c-0.1,0-0.3,0-0.5,0c-0.3,0-0.5,0-0.8,0c-0.1,0-0.2,0-0.2-0.1c0,0,0-0.1,0.1-0.1s0.3,0,0.4-0.1
				c0.3-0.1,0.3-0.3,0.3-0.7c0.1-0.5,0.1-1.5,0.1-2.8v-2.3c0-2,0-2.4,0-2.8s-0.1-0.6-0.5-0.7c-0.1,0-0.3,0-0.4,0l-0.1-0.1
				c0-0.1,0.1-0.1,0.2-0.1c0.6,0,1.4,0,1.5,0c0.1,0,1,0,1.4,0c0.1,0,0.2,0,0.2,0.1l-0.1,0.1c-0.1,0-0.3,0-0.4,0
				c-0.4,0.1-0.5,0.3-0.5,0.7c0,0.4,0,0.8,0,2.8v2.4H-194.9z"/>
			<path id="XMLID_9053_" class="st2" d="M-187.2,317.6c0,1.2,0,2.3,0.1,2.8c0,0.4,0.1,0.6,0.5,0.7c0.2,0,0.5,0.1,0.6,0.1
				s0.1,0.1,0.1,0.1c0,0.1-0.1,0.1-0.2,0.1c-0.7,0-1.6,0-1.6,0c-0.1,0-0.9,0-1.3,0c-0.1,0-0.2,0-0.2-0.1c0,0,0-0.1,0.1-0.1
				s0.3,0,0.4-0.1c0.3-0.1,0.3-0.3,0.3-0.7c0.1-0.5,0.1-1.5,0.1-2.8v-2.3c0-2,0-2.4,0-2.8s-0.1-0.6-0.4-0.7c-0.1,0-0.3,0-0.4,0
				c-0.1,0-0.1-0.1-0.1-0.1c0-0.1,0.1-0.1,0.2-0.1c0.4,0,1.2,0,1.3,0s0.9,0,1.3,0c0.1,0,0.2,0,0.2,0.1l-0.1,0.1c-0.1,0-0.2,0-0.3,0
				c-0.4,0.1-0.4,0.3-0.5,0.7c0,0.4,0,0.8,0,2.8v2.3H-187.2z"/>
			<path id="XMLID_9050_" class="st2" d="M-181,311.8c0.2-0.4,0.2-0.5,0.3-0.5s0.2,0.2,0.3,0.5c0.2,0.5,2.4,5.8,3.2,7.8
				c0.5,1.1,0.8,1.3,1.1,1.4c0.2,0.1,0.4,0.1,0.5,0.1c0.1,0,0.2,0,0.2,0.1c0,0.1-0.1,0.1-0.3,0.1c-0.2,0-1.2,0-2.1,0
				c-0.3,0-0.5,0-0.5-0.1c0-0.1,0-0.1,0.1-0.1s0.2-0.1,0.1-0.3l-1.2-3c0-0.1,0-0.1-0.1-0.1h-3.1c-0.1,0-0.1,0-0.1,0.1l-0.7,2
				c-0.1,0.3-0.2,0.6-0.2,0.8c0,0.3,0.2,0.3,0.4,0.3h0.1c0.1,0,0.1,0,0.1,0.1s-0.1,0.1-0.2,0.1c-0.3,0-1,0-1.2,0c-0.1,0-0.8,0-1.3,0
				c-0.2,0-0.3,0-0.3-0.1s0.1-0.1,0.1-0.1c0.1,0,0.3,0,0.4,0c0.6-0.1,0.8-0.5,1.1-1.2L-181,311.8z M-179.5,317.3
				C-179.5,317.3-179.5,317.1-179.5,317.3l-1.2-3.6c-0.1-0.2-0.1-0.2-0.2,0l-1.2,3.6c0,0.1,0,0.1,0,0.1h2.7V317.3z"/>
			<path id="XMLID_9042_" class="st2" d="M-173.4,319.6c0,1,0.1,1.3,0.5,1.4c0.2,0.1,0.5,0.1,0.7,0.1c0.1,0,0.1,0,0.1,0.1
				c0,0.1-0.1,0.1-0.2,0.1c-0.7,0-1.3,0-1.4,0c-0.1,0-0.7,0-1.3,0c-0.1,0-0.2,0-0.2-0.1c0-0.1,0-0.1,0.1-0.1c0.1,0,0.3,0,0.5-0.1
				c0.3-0.1,0.4-0.4,0.4-1.6V312c0-0.5,0.1-0.6,0.2-0.6c0.1,0,0.4,0.3,0.5,0.4c0.2,0.2,2.1,2.3,4.2,4.4c1.3,1.3,2.8,2.9,3.2,3.3
				l-0.1-6.4c0-0.8-0.1-1.1-0.5-1.2c-0.2,0-0.5-0.1-0.6-0.1c-0.1,0-0.1-0.1-0.1-0.1c0-0.1,0.1-0.1,0.3-0.1c0.6,0,1.2,0,1.4,0
				c0.1,0,0.6,0,1.1,0c0.1,0,0.2,0,0.2,0.1l-0.1,0.1c-0.1,0-0.2,0-0.3,0c-0.4,0.1-0.5,0.3-0.5,1.1v7.6c0,0.8,0,0.9-0.1,0.9
				c-0.1,0-0.3-0.1-1-0.8c-0.1-0.1-2-2-3.5-3.5c-1.5-1.6-3.1-3.2-3.5-3.7V319.6z"/>
			<path id="XMLID_9034_" class="st2" d="M-158.9,317.6c0,1.2,0,2.3,0.1,2.8c0,0.4,0.1,0.6,0.5,0.7c0.2,0,0.5,0.1,0.6,0.1
				c0.1,0,0.1,0.1,0.1,0.1c0,0.1-0.1,0.1-0.2,0.1c-0.7,0-1.5,0-1.6,0c-0.1,0-1,0-1.3,0c-0.1,0-0.2,0-0.2-0.1c0,0,0-0.1,0.1-0.1
				c0.1,0,0.3,0,0.4-0.1c0.3-0.1,0.3-0.3,0.4-0.7c0.1-0.5,0.1-1.5,0.1-2.8v-5.4h-1.9c-0.8,0-1.1,0.1-1.3,0.4
				c-0.1,0.2-0.2,0.3-0.2,0.4c0,0.1-0.1,0.1-0.1,0.1s-0.1,0-0.1-0.1c0-0.1,0.3-1.3,0.3-1.4c0-0.1,0.1-0.2,0.1-0.2
				c0.1,0,0.2,0.1,0.6,0.1s0.9,0.1,1,0.1h5c0.4,0,0.7,0,0.9-0.1c0.2,0,0.3-0.1,0.4-0.1c0.1,0,0.1,0.1,0.1,0.1c0,0.4,0,1.3,0,1.4
				c0,0.1-0.1,0.2-0.1,0.2c-0.1,0-0.1,0-0.1-0.2v-0.1c0-0.4-0.3-0.7-1.6-0.7h-1.6v5.5H-158.9z"/>
			<path id="XMLID_9032_" class="st2" d="M-146.8,316.9c0,1.4,0,2.7,0.1,3.3c0,0.4,0.1,0.8,0.6,0.8c0.2,0,0.5,0.1,0.7,0.1
				c0.1,0,0.1,0,0.1,0.1c0,0.1-0.1,0.1-0.2,0.1c-0.8,0-1.7,0-1.8,0c-0.1,0-1,0-1.5,0c-0.2,0-0.2,0-0.2-0.1c0,0,0-0.1,0.1-0.1
				s0.3,0,0.4-0.1c0.3-0.1,0.4-0.4,0.4-0.8c0.1-0.6,0.1-1.8,0.1-3.3v-2.7c0-2.4,0-2.8,0-3.3s-0.2-0.8-0.5-0.8
				c-0.2,0-0.4-0.1-0.5-0.1c-0.1,0-0.1,0-0.1-0.1c0-0.1,0.1-0.1,0.2-0.1c0.5,0,1.4,0,1.5,0c0.1,0,1,0,1.5,0c0.2,0,0.2,0,0.2,0.1
				c0,0.1-0.1,0.1-0.1,0.1c-0.1,0-0.2,0-0.4,0c-0.4,0.1-0.5,0.3-0.5,0.8c0,0.5,0,0.9,0,3.3v2.8H-146.8z"/>
			<path id="XMLID_9030_" class="st2" d="M-141.7,319.6c0,1,0.1,1.3,0.5,1.4c0.2,0.1,0.5,0.1,0.7,0.1c0.1,0,0.1,0,0.1,0.1
				c0,0.1-0.1,0.1-0.2,0.1c-0.7,0-1.3,0-1.4,0c-0.1,0-0.7,0-1.3,0c-0.1,0-0.2,0-0.2-0.1c0-0.1,0-0.1,0.1-0.1c0.1,0,0.3,0,0.5-0.1
				c0.3-0.1,0.4-0.4,0.4-1.6V312c0-0.5,0.1-0.6,0.2-0.6c0.1,0,0.4,0.3,0.5,0.4c0.2,0.2,2.1,2.3,4.2,4.4c1.3,1.3,2.8,2.9,3.2,3.3
				l-0.1-6.4c0-0.8-0.1-1.1-0.5-1.2c-0.2,0-0.5-0.1-0.6-0.1c-0.1,0-0.1-0.1-0.1-0.1c0-0.1,0.1-0.1,0.3-0.1c0.6,0,1.2,0,1.4,0
				c0.1,0,0.6,0,1.1,0c0.1,0,0.2,0,0.2,0.1l-0.1,0.1c-0.1,0-0.2,0-0.3,0c-0.4,0.1-0.5,0.3-0.5,1.1v7.6c0,0.8,0,0.9-0.1,0.9
				c-0.1,0-0.3-0.1-1-0.8c-0.1-0.1-2-2-3.5-3.5c-1.5-1.6-3.1-3.2-3.5-3.7V319.6z"/>
			<path id="XMLID_9028_" class="st2" d="M-131.2,321.1c-0.2-0.1-0.2-0.1-0.2-0.5c0-0.6,0.1-1.1,0.1-1.3c0-0.1,0-0.2,0.1-0.2
				c0.1,0,0.1,0,0.1,0.1c0,0.1,0,0.3,0,0.5c0.2,0.9,1.2,1.2,2.1,1.2c1.3,0,2-0.7,2-1.7c0-0.9-0.5-1.3-1.6-2.3l-0.6-0.4
				c-1.4-1.1-1.9-1.8-1.9-2.8c0-1.5,1.2-2.5,3-2.5c0.5,0,1,0.1,1.3,0.1c0.3,0.1,0.4,0.1,0.5,0.1s0.1,0,0.1,0.1s-0.1,0.5-0.1,1.3
				c0,0.2,0,0.3-0.1,0.3c-0.1,0-0.1-0.1-0.1-0.2s-0.1-0.5-0.2-0.6c-0.1-0.1-0.5-0.6-1.7-0.6c-0.9,0-1.7,0.5-1.7,1.4
				c0,0.8,0.4,1.3,1.7,2.1l0.4,0.3c1.6,1.1,2.1,2,2.1,3.1c0,0.7-0.3,1.5-1.2,2.1c-0.5,0.4-1.4,0.4-2.1,0.4
				C-129.8,321.5-130.7,321.4-131.2,321.1z"/>
			<path id="XMLID_9026_" class="st2" d="M-123.2,315.3c0-2,0-2.4,0-2.8s-0.1-0.6-0.5-0.7c-0.1,0-0.3,0-0.4,0l-0.1-0.1
				c0-0.1,0.1-0.1,0.2-0.1c0.6,0,1.4,0,1.5,0c0.1,0,0.9,0,1.3,0c0.1,0,0.2,0,0.2,0.1l-0.1,0.1c-0.1,0-0.2,0-0.3,0
				c-0.3,0.1-0.4,0.3-0.4,0.7c0,0.4,0,0.8,0,2.8v1.8c0,1.8,0.4,2.7,1,3.2c0.6,0.6,1.2,0.7,1.9,0.7c0.8,0,1.6-0.4,2-0.9
				c0.6-0.7,0.7-1.8,0.7-3.2v-1.6c0-2,0-2.4,0-2.8s-0.1-0.6-0.5-0.7c-0.1,0-0.3,0-0.4,0c-0.1,0-0.1-0.1-0.1-0.1
				c0-0.1,0.1-0.1,0.2-0.1c0.6,0,1.3,0,1.4,0c0.1,0,0.7,0,1.1,0c0.1,0,0.2,0,0.2,0.1c0,0,0,0.1-0.1,0.1c-0.1,0-0.2,0-0.3,0
				c-0.4,0.1-0.4,0.3-0.5,0.7c0,0.4,0,0.8,0,2.8v1.3c0,1.4-0.2,3-1.2,3.9c-0.9,0.8-2,0.9-2.8,0.9c-0.4,0-1.8,0-2.8-0.9
				c-0.6-0.6-1.1-1.5-1.1-3.4v-1.8H-123.2z"/>
			<path id="XMLID_9023_" class="st2" d="M-111.8,315.3c0-2,0-2.4,0-2.8s-0.1-0.6-0.5-0.7c-0.1,0-0.3,0-0.4,0l-0.1-0.1
				c0-0.1,0.1-0.1,0.2-0.1c0.6,0,1.5,0,1.5,0c0.1,0,1.2,0,1.6,0c0.8,0,1.7,0.1,2.5,0.5c0.3,0.2,0.9,0.8,0.9,1.7c0,0.9-0.4,1.8-1.6,3
				c1.1,1.3,2,2.6,2.8,3.4c0.7,0.7,1.1,0.8,1.5,0.9c0.3,0,0.4,0,0.5,0c0.1,0,0.1,0.1,0.1,0.1c0,0.1-0.1,0.1-0.3,0.1h-0.8
				c-0.7,0-1.1-0.1-1.4-0.3c-0.6-0.3-1-0.9-1.8-1.9c-0.5-0.7-1.1-1.5-1.4-1.8c-0.1-0.1-0.1-0.1-0.2-0.1h-1.7c-0.1,0-0.1,0-0.1,0.1
				v0.3c0,1.2,0,2.3,0.1,2.8c0,0.4,0.1,0.6,0.5,0.7c0.2,0,0.5,0.1,0.6,0.1s0.1,0.1,0.1,0.1c0,0.1-0.1,0.1-0.2,0.1
				c-0.7,0-1.5,0-1.6,0c0,0-0.9,0-1.3,0c-0.1,0-0.2,0-0.2-0.1c0,0,0-0.1,0.1-0.1s0.3,0,0.4-0.1c0.3-0.1,0.3-0.3,0.3-0.7
				c0.1-0.5,0.1-1.5,0.1-2.8L-111.8,315.3z M-110.7,316.4c0,0.1,0,0.1,0.1,0.2c0.2,0.1,0.9,0.2,1.4,0.2c0.3,0,0.7,0,1-0.2
				c0.4-0.3,0.8-1,0.8-1.9c0-1.6-0.9-2.6-2.4-2.6c-0.4,0-0.8,0-0.9,0.1c-0.1,0-0.1,0.1-0.1,0.1V316.4z"/>
			<path id="XMLID_9020_" class="st2" d="M-100,311.8c0.2-0.4,0.2-0.5,0.3-0.5c0.1,0,0.2,0.2,0.3,0.5c0.2,0.5,2.4,5.8,3.2,7.8
				c0.5,1.1,0.8,1.3,1.1,1.4c0.2,0.1,0.4,0.1,0.5,0.1c0.1,0,0.2,0,0.2,0.1c0,0.1-0.1,0.1-0.3,0.1c-0.2,0-1.2,0-2.1,0
				c-0.3,0-0.5,0-0.5-0.1c0-0.1,0-0.1,0.1-0.1c0.1,0,0.2-0.1,0.1-0.3l-1.2-3c0-0.1,0-0.1-0.1-0.1h-3.1c-0.1,0-0.1,0-0.1,0.1l-0.7,2
				c-0.1,0.3-0.2,0.6-0.2,0.8c0,0.3,0.2,0.3,0.4,0.3h0.1c0.1,0,0.1,0,0.1,0.1s-0.1,0.1-0.2,0.1c-0.3,0-1,0-1.2,0c-0.1,0-0.8,0-1.3,0
				c-0.2,0-0.3,0-0.3-0.1s0.1-0.1,0.1-0.1c0.1,0,0.3,0,0.4,0c0.6-0.1,0.8-0.5,1.1-1.2L-100,311.8z M-98.5,317.3
				C-98.4,317.3-98.4,317.1-98.5,317.3l-1.2-3.6c-0.1-0.2-0.1-0.2-0.2,0l-1.2,3.6c0,0.1,0,0.1,0,0.1h2.7V317.3z"/>
			<path id="XMLID_9018_" class="st2" d="M-92.5,319.6c0,1,0.1,1.3,0.5,1.4c0.2,0.1,0.5,0.1,0.7,0.1c0.1,0,0.1,0,0.1,0.1
				c0,0.1-0.1,0.1-0.2,0.1c-0.7,0-1.3,0-1.4,0c-0.1,0-0.7,0-1.3,0c-0.1,0-0.2,0-0.2-0.1c0-0.1,0-0.1,0.1-0.1c0.1,0,0.3,0,0.5-0.1
				c0.3-0.1,0.4-0.4,0.4-1.6V312c0-0.5,0.1-0.6,0.2-0.6s0.4,0.3,0.5,0.4c0.2,0.2,2.1,2.3,4.2,4.4c1.3,1.3,2.8,2.9,3.2,3.3l-0.1-6.4
				c0-0.8-0.1-1.1-0.5-1.2c-0.2,0-0.5-0.1-0.6-0.1c-0.1,0-0.1-0.1-0.1-0.1c0-0.1,0.1-0.1,0.3-0.1c0.6,0,1.2,0,1.4,0
				c0.1,0,0.6,0,1.1,0c0.1,0,0.2,0,0.2,0.1l-0.1,0.1c-0.1,0-0.2,0-0.3,0c-0.4,0.1-0.5,0.3-0.5,1.1v7.6c0,0.8,0,0.9-0.1,0.9
				c-0.1,0-0.3-0.1-1-0.8c-0.1-0.1-2-2-3.5-3.5c-1.5-1.6-3.1-3.2-3.5-3.7L-92.5,319.6z"/>
			<path id="XMLID_9016_" class="st2" d="M-80.9,320.1c-1.3-1.1-1.6-2.6-1.6-3.8c0-0.8,0.3-2.4,1.5-3.5c0.8-0.8,2-1.3,4.1-1.3
				c0.5,0,1.3,0,1.9,0.1c0.5,0.1,0.9,0.2,1.3,0.2c0.1,0,0.2,0.1,0.2,0.1c0,0.1,0,0.3-0.1,0.7c0,0.4,0,1.1,0,1.3
				c0,0.2-0.1,0.3-0.1,0.3c-0.1,0-0.1-0.1-0.1-0.3c0-0.5-0.2-1-0.5-1.3c-0.5-0.4-1.4-0.7-2.7-0.7c-1.7,0-2.6,0.4-3,0.9
				c-1,0.9-1.2,2-1.2,3.4c0,2.5,1.9,4.7,4.8,4.7c1,0,1.6-0.1,2.1-0.6c0.3-0.3,0.5-0.8,0.5-1.1c0-0.1,0-0.2,0.1-0.2
				c0.1,0,0.1,0.1,0.1,0.2c0,0.1-0.2,1.2-0.3,1.6c-0.1,0.2-0.1,0.3-0.3,0.4c-0.5,0.2-1.5,0.3-2.5,0.3
				C-78.5,321.5-79.9,321-80.9,320.1z"/>
			<path id="XMLID_9014_" class="st2" d="M-70.7,315.3c0-2,0-2.4,0-2.8s-0.1-0.6-0.5-0.7c-0.1,0-0.3,0-0.4,0l-0.1-0.1
				c0-0.1,0.1-0.1,0.2-0.1c0.6,0,1.4,0,1.5,0c0.1,0,2.9,0,3.2,0c0.3,0,0.5-0.1,0.6-0.1c0.1,0,0.1-0.1,0.2-0.1l0.1,0.1
				c0,0.1-0.1,0.2-0.1,0.6c0,0.1,0,0.7-0.1,0.8c0,0.1-0.1,0.1-0.1,0.1c-0.1,0-0.1-0.1-0.1-0.2c0-0.1,0-0.3-0.1-0.4
				c-0.1-0.2-0.2-0.3-0.9-0.4c-0.2,0-1.7,0-1.9,0c-0.1,0-0.1,0-0.1,0.1v3.5c0,0.1,0,0.1,0.1,0.1c0.2,0,1.9,0,2.3,0
				c0.3,0,0.5,0,0.6-0.2c0.1-0.1,0.1-0.2,0.2-0.2c0,0,0.1,0,0.1,0.1s-0.1,0.3-0.1,0.7c0,0.3-0.1,0.7-0.1,0.8s0,0.2-0.1,0.2
				c-0.1,0-0.1,0-0.1-0.1c0-0.1,0-0.3-0.1-0.4c0-0.2-0.2-0.3-0.7-0.4c-0.4,0-1.7-0.1-2-0.1c-0.1,0-0.1,0-0.1,0.1v1.1
				c0,0.4,0,1.9,0,2.1c0,0.8,0.3,1,1.6,1c0.3,0,1,0,1.3-0.1c0.3-0.1,0.5-0.4,0.6-0.9c0-0.1,0.1-0.2,0.1-0.2c0.1,0,0.1,0.1,0.1,0.2
				c0,0.1-0.1,0.9-0.2,1.2c-0.1,0.3-0.2,0.3-0.7,0.3c-1,0-1.7,0-2.4,0c-0.5,0-0.9,0-1.1,0c0,0-0.3,0-0.6,0c-0.3,0-0.5,0-0.8,0
				c-0.1,0-0.2,0-0.2-0.1c0,0,0-0.1,0.1-0.1c0.1,0,0.3,0,0.4-0.1c0.3,0,0.3-0.3,0.3-0.7c0.1-0.5,0.1-1.5,0.1-2.8v-1.9H-70.7z"/>
			<path id="XMLID_9010_" class="st2" d="M-57.9,314.3c0-2.4,0-2.8,0-3.3s-0.1-0.7-0.6-0.8c-0.1,0-0.4,0-0.5,0c-0.1,0-0.1,0-0.1-0.1
				c0-0.1,0.1-0.1,0.2-0.1c0.7,0,1.6,0,1.7,0c0.4,0,0.9,0,1.6,0c2.5,0,3.1,1.5,3.1,2.3c0,1.2-0.7,1.9-1.4,2.8
				c1.1,0.3,2.7,1.4,2.7,3.2c0,1.6-1.2,3.3-3.9,3.3c-0.2,0-0.6,0-1.1,0c-0.4,0-0.8,0-0.9,0c0,0-0.3,0-0.6,0c-0.3,0-0.6,0-0.9,0
				c-0.2,0-0.2,0-0.2-0.1c0,0,0-0.1,0.1-0.1s0.3,0,0.4-0.1c0.3-0.1,0.4-0.4,0.4-0.8c0.1-0.6,0.1-1.8,0.1-3.3V314.3z M-56.8,314.6
				c0,0.1,0,0.1,0.1,0.2c0.1,0,0.4,0.1,0.9,0.1c0.8,0,1,0,1.3-0.4c0.3-0.4,0.5-0.9,0.5-1.5c0-1.2-0.5-2.6-2-2.6
				c-0.2,0-0.5,0-0.7,0.1c-0.1,0-0.2,0.1-0.2,0.2v3.9H-56.8z M-56.8,316.2c0,1.1,0,3.1,0,3.3c0,0.7,0,0.9,0.5,1.2
				c0.4,0.2,1,0.2,1.3,0.2c0.8,0,2.1-0.4,2.1-2.1c0-0.9-0.3-2.3-1.4-3.1c-0.5-0.3-0.9-0.4-1.2-0.4c-0.2,0-0.9,0-1.2,0
				c-0.1,0-0.1,0-0.1,0.1L-56.8,316.2z"/>
			<path id="XMLID_9007_" class="st2" d="M-48.6,315.3c0-2,0-2.4,0-2.8s-0.1-0.6-0.5-0.7c-0.1,0-0.3,0-0.4,0l-0.1-0.1
				c0-0.1,0.1-0.1,0.2-0.1c0.6,0,1.5,0,1.5,0c0.1,0,1.2,0,1.6,0c0.8,0,1.7,0.1,2.5,0.5c0.3,0.2,0.9,0.8,0.9,1.7c0,0.9-0.4,1.8-1.6,3
				c1.1,1.3,2,2.6,2.8,3.4c0.7,0.7,1.1,0.8,1.5,0.9c0.3,0,0.4,0,0.5,0s0.1,0.1,0.1,0.1c0,0.1-0.1,0.1-0.3,0.1h-0.8
				c-0.7,0-1.1-0.1-1.4-0.3c-0.6-0.3-1-0.9-1.8-1.9c-0.5-0.7-1.1-1.5-1.4-1.8c-0.1-0.1-0.1-0.1-0.2-0.1h-1.7c-0.1,0-0.1,0-0.1,0.1
				v0.3c0,1.2,0,2.3,0.1,2.8c0,0.4,0.1,0.6,0.5,0.7c0.2,0,0.5,0.1,0.6,0.1s0.1,0.1,0.1,0.1c0,0.1-0.1,0.1-0.2,0.1
				c-0.7,0-1.5,0-1.6,0c0,0-0.9,0-1.3,0c-0.1,0-0.2,0-0.2-0.1c0,0,0-0.1,0.1-0.1s0.3,0,0.4-0.1c0.3-0.1,0.3-0.3,0.3-0.7
				c0.1-0.5,0.1-1.5,0.1-2.8L-48.6,315.3z M-47.3,316.4c0,0.1,0,0.1,0.1,0.2c0.2,0.1,0.9,0.2,1.4,0.2c0.3,0,0.7,0,1-0.2
				c0.4-0.3,0.8-1,0.8-1.9c0-1.6-0.9-2.6-2.4-2.6c-0.4,0-0.8,0-0.9,0.1c-0.1,0-0.1,0.1-0.1,0.1V316.4z"/>
			<path id="XMLID_9004_" class="st2" d="M-34.8,311.4c3,0,5.3,1.8,5.3,4.8c0,2.9-2.1,5.2-5.3,5.2c-3.7,0-5.2-2.8-5.2-5
				C-40.1,314.4-38.4,311.4-34.8,311.4z M-34.5,320.9c1.2,0,3.6-0.6,3.6-4.4c0-3.1-1.8-4.7-4-4.7c-2.3,0-3.8,1.4-3.8,4.2
				C-38.8,319.1-36.9,320.9-34.5,320.9z"/>
			<path id="XMLID_9002_" class="st2" d="M-27.2,315.3c0-2,0-2.4,0-2.8s-0.1-0.6-0.5-0.7c-0.1,0-0.3,0-0.4,0l-0.1-0.1
				c0-0.1,0.1-0.1,0.2-0.1c0.6,0,1.4,0,1.5,0c0.1,0,0.9,0,1.3,0c0.1,0,0.2,0,0.2,0.1c0,0,0,0.1-0.1,0.1s-0.2,0-0.3,0
				c-0.3,0.1-0.4,0.3-0.5,0.7c0,0.4,0,0.8,0,2.8v0.8h0.1c0.2-0.2,2.6-2.6,3.1-3.1c0.4-0.4,0.7-0.7,0.7-0.9s-0.1-0.2-0.2-0.3
				c-0.1,0-0.1-0.1-0.1-0.1c0-0.1,0.1-0.1,0.1-0.1c0.3,0,0.7,0,1,0c0.1,0,0.9,0,1.3,0c0.1,0,0.2,0,0.2,0.1c0,0.1,0,0.1-0.1,0.1
				c-0.2,0-0.5,0.1-0.7,0.2c-0.5,0.2-0.8,0.5-1.4,1.1c-0.3,0.3-2.6,2.5-2.9,2.8c0.3,0.4,3.2,3.2,3.7,3.7c1.1,1,1.2,1.1,1.9,1.4
				c0.3,0.1,0.7,0.2,0.8,0.2c0.1,0,0.2,0,0.2,0.1c0,0.1-0.1,0.1-0.3,0.1h-0.7c-0.4,0-0.6,0-0.9,0c-0.7-0.1-1-0.3-1.6-0.8
				s-3.4-3.4-4.1-4.2h-0.1v1.2c0,1.2,0,2.3,0.1,2.8c0,0.4,0.1,0.6,0.5,0.7c0.2,0,0.4,0.1,0.5,0.1s0.1,0.1,0.1,0.1
				c0,0.1-0.1,0.1-0.2,0.1c-0.6,0-1.4,0-1.5,0s-0.9,0-1.3,0c-0.1,0-0.2,0-0.2-0.1c0,0,0-0.1,0.1-0.1c0.1,0,0.3,0,0.4-0.1
				c0.3-0.1,0.3-0.3,0.3-0.7c0.1-0.5,0.1-1.5,0.1-2.8v-2.4H-27.2z"/>
			<path id="XMLID_9000_" class="st2" d="M-17.5,315.3c0-2,0-2.4,0-2.8s-0.1-0.6-0.5-0.7c-0.1,0-0.3,0-0.4,0l-0.1-0.1
				c0-0.1,0.1-0.1,0.2-0.1c0.6,0,1.4,0,1.5,0c0.1,0,2.9,0,3.2,0c0.3,0,0.5-0.1,0.6-0.1c0.1,0,0.1-0.1,0.2-0.1l0.1,0.1
				c0,0.1-0.1,0.2-0.1,0.6c0,0.1,0,0.7-0.1,0.8c0,0.1-0.1,0.1-0.1,0.1c-0.1,0-0.1-0.1-0.1-0.2c0-0.1,0-0.3-0.1-0.4
				c-0.1-0.2-0.2-0.3-0.9-0.4c-0.2,0-1.7,0-1.9,0c-0.1,0-0.1,0-0.1,0.1v3.5c0,0.1,0,0.1,0.1,0.1c0.2,0,1.9,0,2.3,0
				c0.3,0,0.5,0,0.6-0.2c0.1-0.1,0.1-0.2,0.2-0.2c0,0,0.1,0,0.1,0.1s-0.1,0.3-0.1,0.7c0,0.3-0.1,0.7-0.1,0.8s0,0.2-0.1,0.2
				s-0.1,0-0.1-0.1c0-0.1,0-0.3-0.1-0.4c0-0.2-0.2-0.3-0.7-0.4c-0.4,0-1.7-0.1-2-0.1c-0.1,0-0.1,0-0.1,0.1v1.1c0,0.4,0,1.9,0,2.1
				c0,0.8,0.3,1,1.6,1c0.3,0,1,0,1.3-0.1c0.3-0.1,0.5-0.4,0.6-0.9c0-0.1,0.1-0.2,0.1-0.2c0.1,0,0.1,0.1,0.1,0.2
				c0,0.1-0.1,0.9-0.2,1.2c-0.1,0.3-0.2,0.3-0.7,0.3c-1,0-1.7,0-2.4,0c-0.5,0-0.9,0-1.1,0c0,0-0.3,0-0.6,0c-0.3,0-0.5,0-0.8,0
				c-0.1,0-0.2,0-0.2-0.1c0,0,0-0.1,0.1-0.1s0.3,0,0.4-0.1c0.3,0,0.3-0.3,0.3-0.7c0.1-0.5,0.1-1.5,0.1-2.8v-1.9H-17.5z"/>
			<path id="XMLID_5531_" class="st2" d="M-9.6,315.3c0-2,0-2.4,0-2.8s-0.1-0.6-0.5-0.7c-0.1,0-0.3,0-0.4,0l-0.1-0.1
				c0-0.1,0.1-0.1,0.2-0.1c0.6,0,1.5,0,1.5,0c0.1,0,1.2,0,1.6,0c0.8,0,1.7,0.1,2.5,0.5c0.3,0.2,0.9,0.8,0.9,1.7c0,0.9-0.4,1.8-1.6,3
				c1.1,1.3,2,2.6,2.8,3.4c0.7,0.7,1.1,0.8,1.5,0.9c0.3,0,0.4,0,0.5,0s0.1,0.1,0.1,0.1c0,0.1-0.1,0.1-0.3,0.1h-0.8
				c-0.7,0-1.1-0.1-1.4-0.3c-0.6-0.3-1-0.9-1.8-1.9c-0.5-0.7-1.1-1.5-1.4-1.8c-0.1-0.1-0.1-0.1-0.2-0.1h-1.7c-0.1,0-0.1,0-0.1,0.1
				v0.3c0,1.2,0,2.3,0.1,2.8c0,0.4,0.1,0.6,0.5,0.7c0.2,0,0.5,0.1,0.6,0.1c0.1,0,0.1,0.1,0.1,0.1c0,0.1-0.1,0.1-0.2,0.1
				c-0.7,0-1.5,0-1.6,0c0,0-0.9,0-1.3,0c-0.1,0-0.2,0-0.2-0.1c0,0,0-0.1,0.1-0.1c0.1,0,0.3,0,0.4-0.1c0.3-0.1,0.3-0.3,0.3-0.7
				c0.1-0.5,0.1-1.5,0.1-2.8L-9.6,315.3z M-8.5,316.4c0,0.1,0,0.1,0.1,0.2c0.2,0.1,0.9,0.2,1.4,0.2c0.3,0,0.7,0,1-0.2
				c0.4-0.3,0.8-1,0.8-1.9c0-1.6-0.9-2.6-2.4-2.6c-0.4,0-0.8,0-0.9,0.1c-0.1,0-0.1,0.1-0.1,0.1V316.4z"/>
		</g>
	</g>
</g>
</svg>
