<?xml version="1.0" encoding="utf-8"?>
<!-- Generator: Adobe Illustrator 18.1.1, SVG Export Plug-In . SVG Version: 6.00 Build 0)  -->
<svg version="1.1" id="Layer_1" xmlns="http://www.w3.org/2000/svg" xmlns:xlink="http://www.w3.org/1999/xlink" x="0px" y="0px"
	 viewBox="-291.5 275.1 300 53.7" style="enable-background:new -291.5 275.1 300 53.7;" xml:space="preserve">
<style type="text/css">
	.st0{fill:#009BA7;}
	.st1{fill:#B5B7B7;}
	.st2{fill:#008BB3;}
	.st3{fill:#464646;}
</style>
<g>
	<g id="XMLID_9063_">
		<polygon id="XMLID_9068_" class="st0" points="-222.7,307.8 -243.4,328.7 -243.4,318.3 -233,307.9 		"/>
		<polygon id="XMLID_9067_" class="st1" points="-233.1,295.9 -222.7,306.4 -233,306.4 -243.4,295.9 		"/>
		<polygon id="XMLID_9066_" class="st0" points="-265.6,306.4 -234.5,275.1 -234.5,285.5 -255.4,306.4 		"/>
		<polygon id="XMLID_9065_" class="st1" points="-245,328.7 -265.7,307.8 -255.4,307.9 -245,318.3 		"/>
		<polygon id="XMLID_9064_" class="st2" points="-238.2,305.5 -241.8,305.5 -241.8,301 -246.3,301 -246.3,305.5 -250,305.5 
			-250,309.1 -246.3,309.1 -246.3,313.6 -241.8,313.6 -241.8,309.1 -238.2,309.1 		"/>
	</g>
	<g id="XMLID_1487_">
		<path id="XMLID_8085_" class="st0" d="M-206.3,302.9c-2.1,0.7-4.3,1.3-6.5,1.6l-0.2-1.7l1.6-0.2c0.5-0.1,0.9-0.2,1.3-0.3v-6.2
			h-2.6v-1.5h2.6v-1.7h-1.6v-0.8l-0.6,0.6l-0.7-1.9c1.5-1.4,2.5-2.7,3.1-4.3h1.4c1,1.1,1.9,2.3,2.6,3.7l-1.4,1.1l-0.9-1.7
			c-0.2-0.4-0.4-0.6-0.5-0.9c-0.1-0.1-0.2-0.2-0.3-0.4c-0.1,0.2-0.2,0.4-0.3,0.5c-0.5,0.8-1.1,1.7-1.7,2.5h4.3v1.5h-1.9v1.7h2.4v1.5
			h-2.4v5.9l1.2-0.3c0.3-0.1,0.6-0.2,1.1-0.4L-206.3,302.9z M-212.1,301.5c-0.1-1.5-0.3-2.9-0.5-4l1.3-0.2c0.2,0.7,0.4,1.9,0.6,3.5
			c0,0.1,0,0.3,0,0.4L-212.1,301.5z M-206.4,297.4l-0.1,1.6c-0.1,0.8-0.2,1.4-0.3,1.8l-1.3-0.2c0-0.1,0-0.3,0-0.4
			c0.2-1.2,0.3-1.9,0.3-2.3s0-0.6,0-0.7L-206.4,297.4z M-199.3,286.4v1h4.9v1.4h-4.9v0.8h4.1v1.3h-9.7v-1.3h4v-0.8h-5v-1.4h5v-1
			H-199.3z M-195.9,300.8v1.8v0.3c0,0.8-0.2,1.3-0.5,1.6c-0.3,0.3-0.9,0.5-1.7,0.5h-1l-0.5-1.4h1.4c0.5,0,0.6-0.2,0.6-0.6v-2.1h-3.3
			v-1.3h3.3v-0.9h-8.5v-1.4h11.6v1.4h-1.4v0.9h1.4v1.3L-195.9,300.8L-195.9,300.8z M-196.8,294.2c0.3-0.5,0.5-0.9,0.5-1.4v-0.1h-9.6
			v-1.4h11.4c0,1.2-0.3,2.3-0.8,3.3L-196.8,294.2z M-197.3,293.5v1.2h-2.6v0.8h4.5v1.3h-10.2v-1.3h4.1v-0.8h-3.4v-1.2H-197.3z
			 M-205.5,299.3h4.3v5.1h-1.4v-0.8h-1.3v1.1h-1.4L-205.5,299.3L-205.5,299.3z M-202.7,300.6h-1.3v1.8h1.3V300.6z M-199.6,303.2
			c-0.1-0.3-0.3-0.5-0.5-0.9l-0.5-0.8l1.1-0.6c0.2,0.2,0.5,0.5,0.6,0.7l0.5,0.8L-199.6,303.2z"/>
		<path id="XMLID_8072_" class="st0" d="M-187.7,293.1v-1.8h2.1v-4.9h1.8v4.9h1.5v1.8h-1.5V305h-1.8v-11.9H-187.7z M-175.1,286.4
			v1.7h2.8c-0.1-0.1-0.1-0.1-0.1-0.2c-0.1-0.1-0.2-0.3-0.3-0.4l-0.6-0.5l1.3-0.7l0.6,0.5c0.1,0.1,0.3,0.3,0.5,0.5l0.1,0.1l-1,0.5
			h2.7v1.5h-6.1v0.8h5.2v5.9v0.5c0,0.6-0.1,1-0.3,1.3c-0.2,0.2-0.5,0.4-1.2,0.5v0.5h2.4v1.6h-2.4v1.9v0.5c0,1.1-0.6,1.7-1.8,1.7
			h-2.1l-0.5-1.7l2,0.1c0.4,0,0.6-0.2,0.6-0.5v-1.8h-5.8c0.1,0.1,0.3,0.2,0.4,0.3c0.3,0.2,0.5,0.5,0.7,0.7l1.2,1.3l-1.4,1.3
			c-0.5-0.7-1.2-1.4-1.8-2.2l-0.4-0.4l1.3-1h-3.5v-1.6h9.5v-0.5h-0.5l-0.4-1.4h1.9c0.2,0,0.4,0,0.5-0.1c0.1,0,0.1-0.2,0.1-0.5v-0.3
			h-3.5v1.7h-1.7v-1.7h-3.1v2.1h-1.7v-8h4.7v-0.8h-5.2v-1.5h5.2v-1.7H-175.1z M-176.9,292.8v-0.9h-3.1v0.9H-176.9z M-176.9,295.2v-1
			h-3.1v1H-176.9z M-171.6,292.8v-0.9h-3.5v0.9H-171.6z M-171.6,295.2v-1h-3.5v1H-171.6z"/>
		<path id="XMLID_7695_" class="st0" d="M-145.2,297.5v7.4h-1.7v-0.5h-12.3v0.5h-1.7v-7.4h5.2v-0.8h-6.5v-1.4h18.6v1.4h-7v0.8
			H-145.2z M-158.6,288h-1.7v5.5h7.1v1.2h-8.8v-7.9h9v1.2h-4.6l-0.4,0.6h4.2v0.9h-2.1l-0.1,0.7h2.6v1h-2.8c0.5,0.1,0.8,0.3,1.3,0.5
			l1.3,0.5l-0.5,1.2c-0.6-0.4-1.4-0.8-2.5-1.3c-0.5,0.6-1.4,1.1-2.8,1.4l-0.5-1.2c1.2-0.1,2.1-0.5,2.6-1h-2.7v-1h2.9l0.1-0.7h-1.4
			l-0.5,0.5l-1-0.7l0.3-0.2C-159.2,288.9-159,288.6-158.6,288z M-147,300.6h-3.9c-1,0-1.5-0.5-1.5-1.5v-0.4h-2.2
			c-0.3,1.3-1.3,2.1-2.9,2.4l-1.2-1.2c1.1-0.1,1.9-0.5,2.4-1.1l0.1-0.2h-3.1v2.4h12.3L-147,300.6L-147,300.6z M-159.3,303.4h12.3v-1
			h-12.3V303.4z M-152.4,297.5v-0.8h-1.9v0.8H-152.4z M-146.1,288.1c0,0.3,0,0.4,0.1,0.5c0.1,0,0.2,0.1,0.4,0.1h1.5v1.1h-2.3
			c-0.9,0-1.4-0.5-1.4-1.3v-0.2h-2.5c-0.2,0.8-0.6,1.4-1.4,1.7l-0.5,0.3l-1-1c0.9-0.4,1.4-1,1.5-1.9c0-0.1,0-0.3,0-0.5h5.4
			L-146.1,288.1L-146.1,288.1z M-151.4,291.5h-1.3v-1.2h7.8v0.9c-0.5,0.7-1,1.4-1.7,1.9c0,0-0.1,0.1-0.2,0.1c0.1,0,0.2,0,0.2,0
			c0.6,0.2,1.4,0.3,2.3,0.4c0.1,0,0.1,0,0.2,0l-0.5,1.4c-1.4-0.2-2.8-0.5-3.9-0.9c-1,0.4-2.2,0.5-3.6,0.6c-0.1,0-0.3,0-0.4,0
			l-0.7-1.4c0.5,0,1,0,1.4,0c0.5,0,0.9-0.1,1.3-0.2l-1-0.6c-0.5-0.4-0.8-0.5-0.9-0.6L-151.4,291.5z M-150.9,291.5
			c0.6,0.5,1.4,0.8,2.3,1.2c0.1,0,0.1,0,0.2,0.1l0.9-0.5c0.2-0.1,0.4-0.3,0.5-0.5c0-0.1,0.1-0.1,0.2-0.2L-150.9,291.5L-150.9,291.5z
			 M-147,298.8h-3.8v0.4c0,0.3,0.2,0.5,0.5,0.5h3.3L-147,298.8L-147,298.8z"/>
		<path id="XMLID_6733_" class="st0" d="M-137.2,290.4v-1.6h2.5l-0.3-0.9c-0.2-0.5-0.4-0.8-0.5-1.2l1.7-0.3c0.2,0.4,0.4,0.7,0.5,1.3
			l0.4,1.1h1.9v1.6L-137.2,290.4L-137.2,290.4z M-136.6,291.7h5.2v1.5h-5.2V291.7z M-136.6,294.7h5.2v1.5h-5.2V294.7z M-131.5,304.9
			h-1.6v-1h-1.8v1.2h-1.6v-7.1h5.1V304.9z M-133.1,299.4h-1.8v3h1.8V299.4z M-124.1,289.5l0.4,0.7l0.3,0.6h4.4v1.2h-4.5v0.9h4.3v1.1
			h-4.3v1h4.3v1.2h-4.3v1h4.6v1.3h-11v-4.3l-0.5,0.5l-0.5,0.5l-1-1.4c1.3-1.1,2.4-2.5,3.3-4.3l1.4,0.6l-0.4,0.6h2.4l-0.3-0.5
			c-0.1-0.2-0.3-0.4-0.4-0.5L-124.1,289.5z M-120,299.4v1.2c-1,0.9-1.9,1.5-2.7,2.1c1.1,0.4,2.3,0.5,3.6,0.7c0.2,0,0.4,0,0.5,0.1
			l-0.6,1.5c-1.7-0.3-3.5-0.7-5.2-1.4c-1.4,0.6-3.4,1.1-5.9,1.4l-0.7-1.5c1.7-0.1,3.3-0.4,4.7-0.7l-1.2-0.7l-1-0.6l1.2-0.5h-2.9
			v-1.4L-120,299.4L-120,299.4z M-128,289.8v-0.9h-2.9v-1.3h2.9v-1.2h1.6v1.2h1.4v1.3h-1.4v0.9H-128z M-125,292.9V292h-3.2v0.9H-125
			z M-125,295.1v-1h-3.2v1H-125z M-125,297.2v-1h-3.2v1H-125z M-126.8,300.8l1.1,0.6l1.3,0.6c0.5-0.3,1-0.5,1.3-0.6l1-0.6H-126.8z
			 M-122.9,289.8v-0.9h-1.5v-1.3h1.5v-1.2h1.6v1.2h2.7v1.3h-2.7v0.9H-122.9z"/>
		<path id="XMLID_6500_" class="st0" d="M-108.9,298.4c-0.2,2.7-0.6,4.9-1.4,6.5l-1.6-1.2c0.7-2.3,1.1-4.3,1.1-6.2
			c0-1.1,0-2.1,0-2.9c0-0.8,0-1.3,0-1.4v-6.2h6.2V303v0.4c0,0.9-0.5,1.4-1.4,1.4h-1.9l-0.4-1.9l1.4,0.1c0.3,0,0.4-0.1,0.4-0.4v-4
			L-108.9,298.4L-108.9,298.4z M-106.4,291.7v-2.8h-2.5v2.8H-106.4z M-106.4,296.7v-3.3h-2.5v3.3H-106.4z M-101.2,288.7v5.1h7.1v1.6
			c-0.5,2.5-1.2,4.6-2.1,6.1c0.6,0.6,1.5,1.2,2.5,1.7l0.4,0.2l-1.1,1.6c-1.2-0.6-2.2-1.3-3-2.1c-1,0.9-1.9,1.5-2.6,2l-1.1-1.6
			c0.2-0.1,0.4-0.2,0.5-0.3c1-0.5,1.7-1.1,2.1-1.5c-0.5-0.5-0.9-1.4-1.4-2.5c-0.5-1.2-0.7-2.3-0.9-3.3h-0.5v9.3h-1.9v-18.1h9.1v0.8
			v0.6v0.3v0.3v0.8c0,0.4-0.1,0.6-0.1,0.7c-0.1,1.1-0.4,1.7-0.8,2c-0.5,0.3-1.2,0.5-2.2,0.5c-0.6,0-1.1,0-1.4-0.1l-0.3-1.8
			c0.5,0.1,1.2,0.1,1.9,0.1c0.5,0,0.8-0.1,1-0.4c0.1-0.3,0.2-0.9,0.2-1.9v-0.2h-5.4V288.7z M-99.2,295.7c0.3,1.5,0.8,3,1.7,4.3
			c0.6-0.9,1.1-2.2,1.4-3.7c0-0.2,0.1-0.4,0.2-0.6L-99.2,295.7L-99.2,295.7z"/>
		<path id="XMLID_6061_" class="st0" d="M-79.6,298.8l-1.4-1.1c0.5-0.8,0.8-1.7,1.2-2.6c0-0.1,0.1-0.3,0.2-0.5H-81v7.8v0.3
			c0,0.7-0.2,1.3-0.5,1.5c-0.3,0.4-0.9,0.5-1.8,0.5h-1.3l-0.5-1.9l1.5,0.1c0.5,0,0.6-0.2,0.6-0.6v-7.6c-0.7,3.3-1.5,5.7-2.4,7.5
			l-1.4-1.4c0.8-1.4,1.5-3.4,2.3-6.2h-2.3V293h3.9l-1-1.2c-0.3-0.3-0.5-0.6-1-1c-0.1-0.1-0.3-0.3-0.5-0.5l1.4-0.9l0.9,0.8l0.5,0.6
			c0.6-0.7,1.2-1.4,1.6-2.1c0-0.1,0.1-0.1,0.1-0.2h-5.4V287h7.5v1.3c-0.8,1.6-1.7,3-2.7,4l0.3,0.4l0.3,0.5h2.7v1.2
			C-78.4,295.9-79,297.4-79.6,298.8z M-74.7,297.7l0.1-0.9l0.1-0.9l1.8,0.2l-0.2,1.6h4.1c-0.1,3.2-0.4,5.1-0.6,5.9
			c-0.3,0.7-0.7,1.2-1.4,1.2c-0.6,0-1,0-1.1,0c-0.3,0-0.5,0-0.6,0c-0.4,0-0.6,0-0.9-0.1l-0.4-1.8c0.8,0.1,1.4,0.1,1.8,0.1
			c0.5,0,0.7-0.2,0.8-0.5c0.1-0.4,0.3-1,0.4-2c0-0.3,0-0.6,0.1-1.2h-2.5c-0.5,2.7-2.4,4.6-5.8,5.6l-0.9-1.7c2.6-0.7,4.2-2,4.7-4
			h-3.3v-1.6L-74.7,297.7L-74.7,297.7z M-78.9,291.3c1.5-1.4,2.7-3,3.4-4.9l1.8,0.4l-0.3,0.7l-0.4,0.7h6.2v1.5h-1.1
			c-0.8,1.6-1.6,2.8-2.4,3.5c0.9,0.6,2.1,1.2,3.6,1.7l-0.8,1.7c-1.4-0.5-2.9-1.3-4.3-2.3c-0.3,0.2-0.5,0.3-0.5,0.4
			c-1,0.6-2.3,1.3-3.7,1.8l-0.9-1.6c0.2-0.1,0.3-0.1,0.4-0.2c1.2-0.4,2.2-0.8,3.1-1.4c0.1,0,0.2-0.1,0.3-0.2
			c-0.6-0.7-1.3-1.4-1.8-2.3l-0.5,0.5c-0.4,0.5-0.7,0.7-0.9,0.9L-78.9,291.3z M-75,289.8c0.5,0.7,1.1,1.5,1.8,2.3l0.2,0.2l0.3-0.3
			c0.5-0.5,1-1.3,1.4-2c0-0.1,0.1-0.1,0.2-0.2H-75z"/>
		<path id="XMLID_5947_" class="st0" d="M-43.6,289.8v9H-51v6.3h-2.1v-6.3h-7.2v-9h7.2v-3.3h2.1v3.3H-43.6z M-53.1,291.6h-5.2v5.3
			h5.2V291.6z M-45.6,291.6H-51v5.3h5.4V291.6z"/>
		<path id="XMLID_5537_" class="st0" d="M-32,292.6c-0.3,3.5-1.1,7-2.3,10.2l-1.9-1.2c0.6-1.8,1.1-3.3,1.4-4.6
			c0.4-1.3,0.5-2.9,0.7-4.8L-32,292.6z M-28.4,291.4h-2V303c0.1,0.7,0.3,1.2,0.7,1.4s0.9,0.4,1.5,0.4h3.9c0.7,0,1.4-0.2,1.9-0.6
			c0.4-0.3,0.6-0.9,0.7-1.8c0.1-0.9,0.1-2,0.1-3.2v-0.3v-0.1l-2-0.6c0,0.6,0,1.2,0,1.5v0.4c0,1.2,0,1.9-0.1,2.3
			c-0.1,0.4-0.4,0.5-0.9,0.5h-3.2c-0.5,0-0.7-0.3-0.7-0.7V291.4z M-28.1,286.5c1.4,1.3,2.7,2.6,4,4.2c0.2,0.2,0.4,0.5,0.6,0.8
			l-1.7,1.5c-1.3-1.8-2.4-3.3-3.7-4.6l-0.7-0.7L-28.1,286.5z M-19.6,302c-0.6-3.3-1.5-6.4-2.8-9.2l2-0.6c1,2.3,1.9,5,2.7,8.1
			c0.1,0.3,0.2,0.5,0.3,0.9L-19.6,302z"/>
		<g id="XMLID_2132_">
			<path id="XMLID_4349_" class="st3" d="M-73.8,318.6c-1.4-1.3-1.8-3-1.8-4.4c0-1,0.4-2.7,1.7-4.1c0.9-0.9,2.3-1.6,4.5-1.6
				c0.6,0,1.4,0,2.2,0.2c0.5,0.1,1.1,0.2,1.5,0.2c0.2,0,0.2,0.1,0.2,0.2s0,0.3-0.1,0.8c0,0.5,0,1.4,0,1.5c0,0.2,0,0.3-0.1,0.3
				s-0.1-0.1-0.1-0.3c0-0.5-0.3-1.2-0.6-1.5c-0.5-0.5-1.7-0.8-3-0.8c-2,0-2.9,0.5-3.4,1.1c-1.1,1.1-1.4,2.4-1.4,3.9
				c0,2.9,2.2,5.5,5.4,5.5c1.1,0,2-0.1,2.6-0.7c0.3-0.4,0.5-1,0.5-1.3c0-0.2,0.1-0.2,0.2-0.2c0.1,0,0.1,0.1,0.1,0.2
				c0,0.1-0.2,1.4-0.4,1.9c-0.1,0.3-0.1,0.3-0.4,0.5c-0.6,0.3-1.7,0.4-2.7,0.4C-71.1,320.2-72.7,319.7-73.8,318.6z"/>
			<path id="XMLID_3989_" class="st3" d="M-62.3,314.1c0-2,0-2.4,0-2.7c0-0.5-0.1-0.6-0.5-0.7c-0.1,0-0.4,0-0.5,0l-0.1-0.1
				c0-0.1,0.1-0.1,0.2-0.1c0.6,0,1.4,0,1.5,0c0.1,0,2.8,0,3.2,0c0.3,0,0.5-0.1,0.6-0.1c0.1,0,0.1-0.1,0.2-0.1l0.1,0.1
				c0,0.1-0.1,0.3-0.1,0.6c0,0.1,0,0.7-0.1,0.8c0,0.1-0.1,0.1-0.1,0.1c-0.1,0-0.1-0.1-0.1-0.2s0-0.3-0.1-0.5
				c-0.1-0.2-0.2-0.3-0.9-0.4c-0.2,0-1.7,0-1.9,0c-0.1,0-0.1,0-0.1,0.1v3.4c0,0.1,0,0.1,0.1,0.1c0.2,0,1.9,0,2.2,0
				c0.3,0,0.5,0,0.6-0.2c0.1-0.1,0.2-0.2,0.2-0.2s0.1,0,0.1,0.1c0,0.1-0.1,0.3-0.1,0.7c0,0.3-0.1,0.7-0.1,0.8s0,0.3-0.1,0.3
				c-0.1,0-0.1,0-0.1-0.1c0-0.1,0-0.3-0.1-0.5c0-0.2-0.2-0.4-0.6-0.4c-0.4,0-1.8-0.1-2-0.1c-0.1,0-0.1,0-0.1,0.1v1.1
				c0,0.5,0,1.9,0,2.2c0,0.8,0.3,1,1.5,1c0.4,0,1,0,1.4-0.1c0.4-0.2,0.5-0.4,0.6-0.9c0-0.2,0.1-0.2,0.1-0.2c0.1,0,0.1,0.1,0.1,0.2
				c0,0.1-0.1,1-0.2,1.3c-0.1,0.4-0.2,0.4-0.7,0.4c-1,0-1.7,0-2.3,0s-0.9,0-1.1,0c0,0-0.3,0-0.5,0s-0.5,0-0.7,0
				c-0.1,0-0.2,0-0.2-0.1c0,0,0-0.1,0.1-0.1s0.3,0,0.4-0.1c0.3,0,0.3-0.3,0.4-0.6c0.1-0.5,0.1-1.5,0.1-2.7v-2.4H-62.3z"/>
			<path id="XMLID_3718_" class="st3" d="M-53.5,318.3c0,1.1,0.2,1.4,0.5,1.4c0.3,0.1,0.5,0.1,0.6,0.1c0.1,0,0.1,0,0.1,0.1
				c0,0.1-0.1,0.1-0.3,0.1c-0.7,0-1.3,0-1.4,0s-0.6,0-1.3,0c-0.1,0-0.2,0-0.2-0.1c0-0.1,0-0.1,0.1-0.1c0.1,0,0.4,0,0.5-0.1
				c0.4-0.1,0.4-0.5,0.4-1.6v-7.3c0-0.5,0.1-0.6,0.2-0.6c0.2,0,0.4,0.3,0.5,0.4c0.2,0.2,2.2,2.3,4.2,4.3c1.3,1.4,2.7,2.9,3.1,3.3
				l-0.1-6.4c0-0.8-0.1-1.1-0.5-1.2c-0.3,0-0.5-0.1-0.6-0.1c-0.1,0-0.1-0.1-0.1-0.1c0-0.1,0.1-0.1,0.3-0.1c0.6,0,1.3,0,1.4,0
				c0.2,0,0.5,0,1.1,0c0.1,0,0.3,0,0.3,0.1c0,0-0.1,0.1-0.2,0.1c-0.1,0-0.2,0-0.3,0c-0.5,0.1-0.5,0.4-0.5,1.1v7.4
				c0,0.8,0,0.9-0.1,0.9c-0.1,0-0.3-0.1-1-0.8c-0.1-0.1-2.1-2-3.4-3.4c-1.5-1.6-3-3.2-3.4-3.6V318.3z"/>
			<path id="XMLID_3681_" class="st3" d="M-38.7,316.4c0,1.3,0,2.3,0.1,2.7c0,0.4,0.1,0.6,0.5,0.6c0.2,0,0.5,0.1,0.6,0.1
				c0.1,0,0.1,0.1,0.1,0.1c0,0.1-0.1,0.1-0.2,0.1c-0.7,0-1.5,0-1.6,0s-1,0-1.4,0c-0.2,0-0.2,0-0.2-0.1c0,0,0-0.1,0.1-0.1
				s0.3,0,0.4-0.1c0.3-0.1,0.4-0.3,0.4-0.7c0.1-0.5,0.1-1.5,0.1-2.7v-5.3h-1.9c-0.8,0-1.2,0.1-1.4,0.4c-0.2,0.2-0.2,0.3-0.2,0.4
				c0,0.1-0.1,0.1-0.1,0.1s-0.1,0-0.1-0.1c0-0.1,0.3-1.3,0.3-1.4c0-0.1,0.1-0.3,0.1-0.3c0.1,0,0.2,0.1,0.5,0.2c0.4,0,0.9,0.1,1,0.1
				h5c0.5,0,0.7,0,0.9-0.1c0.2,0,0.3-0.1,0.4-0.1c0.1,0,0.1,0.1,0.1,0.2c0,0.4,0,1.3,0,1.4c0,0.1-0.1,0.2-0.1,0.2s-0.1,0-0.1-0.2
				v-0.1c0-0.4-0.4-0.6-1.6-0.7h-1.6L-38.7,316.4L-38.7,316.4z"/>
			<path id="XMLID_3535_" class="st3" d="M-32.4,314.1c0-2,0-2.4,0-2.7c0-0.5-0.1-0.6-0.5-0.7c-0.1,0-0.4,0-0.5,0l-0.1-0.1
				c0-0.1,0.1-0.1,0.2-0.1c0.6,0,1.4,0,1.5,0c0.1,0,1.3,0,1.6,0c0.8,0,1.8,0.1,2.4,0.5c0.4,0.3,0.9,0.8,0.9,1.7
				c0,0.9-0.4,1.9-1.6,2.9c1.1,1.4,2,2.5,2.7,3.3c0.7,0.7,1.2,0.8,1.4,0.9c0.3,0,0.4,0,0.5,0s0.1,0.1,0.1,0.1c0,0.1-0.1,0.1-0.3,0.1
				h-0.7c-0.7,0-1.1-0.1-1.4-0.3c-0.5-0.3-1.1-0.9-1.8-1.9c-0.5-0.7-1.2-1.5-1.4-1.9c-0.1-0.1-0.1-0.1-0.2-0.1h-1.7
				c-0.1,0-0.1,0-0.1,0.1v0.3c0,1.3,0,2.2,0.1,2.7c0,0.4,0.1,0.6,0.5,0.6c0.2,0,0.5,0.1,0.5,0.1s0.1,0.1,0.1,0.1
				c0,0.1-0.1,0.1-0.2,0.1c-0.7,0-1.5,0-1.6,0c0,0-0.9,0-1.3,0c-0.1,0-0.2,0-0.2-0.1c0,0,0-0.1,0.1-0.1s0.3,0,0.4-0.1
				c0.3-0.1,0.3-0.3,0.4-0.6c0.1-0.5,0.1-1.5,0.1-2.7L-32.4,314.1L-32.4,314.1z M-31.2,315.2c0,0.1,0,0.1,0.1,0.2
				c0.2,0.1,0.9,0.2,1.4,0.2c0.3,0,0.6,0,1-0.2c0.5-0.3,0.8-1,0.8-2c0-1.6-0.9-2.5-2.3-2.5c-0.4,0-0.8,0-0.9,0.1
				c-0.1,0-0.1,0.1-0.1,0.2L-31.2,315.2L-31.2,315.2z"/>
			<path id="XMLID_3533_" class="st3" d="M-22.4,314.1c0-2,0-2.4,0-2.7c0-0.5-0.1-0.6-0.5-0.7c-0.1,0-0.4,0-0.5,0l-0.1-0.1
				c0-0.1,0.1-0.1,0.2-0.1c0.6,0,1.4,0,1.5,0s2.8,0,3.2,0c0.3,0,0.5-0.1,0.6-0.1c0.1,0,0.1-0.1,0.2-0.1l0.1,0.1
				c0,0.1-0.1,0.3-0.1,0.6c0,0.1,0,0.7-0.1,0.8c0,0.1-0.1,0.1-0.1,0.1c-0.1,0-0.1-0.1-0.1-0.2s0-0.3-0.1-0.5
				c-0.1-0.2-0.2-0.3-0.9-0.4c-0.2,0-1.7,0-1.9,0c-0.1,0-0.1,0-0.1,0.1v3.4c0,0.1,0,0.1,0.1,0.1c0.2,0,1.9,0,2.2,0s0.5,0,0.6-0.2
				c0.1-0.1,0.2-0.2,0.2-0.2s0.1,0,0.1,0.1c0,0.1-0.1,0.3-0.1,0.7c0,0.3-0.1,0.7-0.1,0.8s0,0.3-0.1,0.3s-0.1,0-0.1-0.1
				c0-0.1,0-0.3-0.1-0.5c0-0.2-0.2-0.4-0.6-0.4c-0.4,0-1.8-0.1-2-0.1c-0.1,0-0.1,0-0.1,0.1v1.1c0,0.5,0,1.9,0,2.2c0,0.8,0.3,1,1.5,1
				c0.4,0,1,0,1.4-0.1c0.4-0.2,0.5-0.4,0.6-0.9c0-0.2,0.1-0.2,0.1-0.2c0.1,0,0.1,0.1,0.1,0.2c0,0.1-0.1,1-0.2,1.3
				c-0.1,0.4-0.2,0.4-0.7,0.4c-1,0-1.7,0-2.3,0s-0.9,0-1.1,0c0,0-0.3,0-0.5,0s-0.5,0-0.7,0c-0.1,0-0.2,0-0.2-0.1c0,0,0-0.1,0.1-0.1
				s0.3,0,0.4-0.1c0.3,0,0.3-0.3,0.4-0.6c0.1-0.5,0.1-1.5,0.1-2.7v-2.4H-22.4z"/>
			<g id="XMLID_2134_">
				<path id="XMLID_2628_" class="st3" d="M-211.7,313.1c0-2.4,0-2.7,0-3.3c0-0.5-0.2-0.7-0.6-0.8c-0.1,0-0.4,0-0.5,0
					c-0.1,0-0.1,0-0.1-0.1c0-0.1,0.1-0.1,0.3-0.1c0.6,0,1.6,0,1.7,0c0.4,0,0.9,0,1.6,0c2.4,0,3,1.5,3,2.3c0,1.3-0.7,2-1.4,2.7
					c1.1,0.4,2.6,1.4,2.6,3.2c0,1.6-1.3,3.3-3.8,3.3c-0.2,0-0.6,0-1.1,0c-0.5,0-0.8,0-0.9,0c0,0-0.3,0-0.6,0c-0.3,0-0.6,0-0.9,0
					c-0.2,0-0.3,0-0.3-0.1c0,0,0-0.1,0.1-0.1c0.1,0,0.3,0,0.5-0.1c0.3-0.1,0.4-0.4,0.5-0.8c0.1-0.6,0.1-1.8,0.1-3.3V313.1z
					 M-210.5,313.4c0,0.1,0,0.1,0.1,0.2c0.1,0,0.4,0.1,0.9,0.1c0.8,0,1.1,0,1.4-0.4c0.3-0.4,0.5-0.9,0.5-1.5c0-1.3-0.5-2.5-2-2.5
					c-0.2,0-0.5,0-0.7,0.1c-0.1,0-0.2,0.1-0.2,0.2L-210.5,313.4L-210.5,313.4z M-210.5,315c0,1.2,0,3,0,3.3c0,0.7,0,0.9,0.5,1.2
					c0.4,0.2,1.1,0.2,1.4,0.2c0.8,0,2.1-0.5,2.1-2.2c0-0.9-0.3-2.2-1.4-3c-0.5-0.4-0.9-0.4-1.3-0.5c-0.2,0-0.9,0-1.2,0
					c-0.1,0-0.1,0-0.1,0.1V315z"/>
				<path id="XMLID_2606_" class="st3" d="M-201.3,315.7c0,1.4,0,2.6,0.1,3.3c0,0.5,0.1,0.7,0.5,0.8c0.2,0,0.5,0.1,0.6,0.1
					s0.1,0,0.1,0.1c0,0.1-0.1,0.1-0.3,0.1c-0.8,0-1.8,0-1.8,0c-0.1,0-1,0-1.4,0c-0.2,0-0.3,0-0.3-0.1c0,0,0-0.1,0.1-0.1
					c0.1,0,0.3,0,0.5-0.1c0.3-0.1,0.4-0.4,0.5-0.8c0.1-0.6,0.1-1.8,0.1-3.3v-2.6c0-2.4,0-2.7,0-3.3c0-0.5-0.2-0.7-0.5-0.8
					c-0.2,0-0.4-0.1-0.5-0.1c-0.1,0-0.1,0-0.1-0.1c0-0.1,0.1-0.1,0.3-0.1c0.5,0,1.4,0,1.5,0s1,0,1.4,0c0.2,0,0.3,0,0.3,0.1
					c0,0.1-0.1,0.1-0.1,0.1c-0.1,0-0.2,0-0.4,0c-0.4,0.1-0.5,0.4-0.5,0.8s0,0.9,0,3.3L-201.3,315.7L-201.3,315.7z"/>
				<path id="XMLID_2499_" class="st3" d="M-196.9,313.1c0-2.4,0-2.7,0-3.3c0-0.5-0.2-0.7-0.6-0.8c-0.1,0-0.4,0-0.5,0
					c-0.1,0-0.1,0-0.1-0.1c0-0.1,0.1-0.1,0.3-0.1c0.6,0,1.6,0,1.7,0c0.4,0,0.9,0,1.6,0c2.4,0,3,1.5,3,2.3c0,1.3-0.7,2-1.4,2.7
					c1.1,0.4,2.6,1.4,2.6,3.2c0,1.6-1.3,3.3-3.8,3.3c-0.2,0-0.6,0-1.1,0c-0.5,0-0.8,0-0.9,0c0,0-0.3,0-0.6,0c-0.3,0-0.6,0-0.9,0
					c-0.2,0-0.3,0-0.3-0.1c0,0,0-0.1,0.1-0.1c0.1,0,0.3,0,0.5-0.1c0.3-0.1,0.4-0.4,0.5-0.8c0.1-0.6,0.1-1.8,0.1-3.3V313.1z
					 M-195.6,313.4c0,0.1,0,0.1,0.1,0.2c0.1,0,0.4,0.1,0.9,0.1c0.8,0,1.1,0,1.4-0.4c0.3-0.4,0.5-0.9,0.5-1.5c0-1.3-0.5-2.5-2-2.5
					c-0.2,0-0.5,0-0.7,0.1c-0.1,0-0.2,0.1-0.2,0.2L-195.6,313.4L-195.6,313.4z M-195.6,315c0,1.2,0,3,0,3.3c0,0.7,0,0.9,0.5,1.2
					c0.4,0.2,1.1,0.2,1.4,0.2c0.8,0,2.1-0.5,2.1-2.2c0-0.9-0.3-2.2-1.4-3c-0.5-0.4-0.9-0.4-1.3-0.5c-0.2,0-0.9,0-1.2,0
					c-0.1,0-0.1,0-0.1,0.1V315z"/>
				<path id="XMLID_2332_" class="st3" d="M-173.1,315.7c0,1.4,0,2.6,0.1,3.3c0,0.5,0.1,0.7,0.5,0.8c0.2,0,0.5,0.1,0.6,0.1
					c0.1,0,0.1,0,0.1,0.1c0,0.1-0.1,0.1-0.3,0.1c-0.8,0-1.8,0-1.8,0c-0.1,0-1,0-1.4,0c-0.2,0-0.3,0-0.3-0.1c0,0,0-0.1,0.1-0.1
					c0.1,0,0.3,0,0.5-0.1c0.3-0.1,0.4-0.4,0.5-0.8c0.1-0.6,0.1-1.8,0.1-3.3v-1.5c0-0.1,0-0.1-0.1-0.1h-6.3c0,0-0.1,0-0.1,0.1v1.5
					c0,1.4,0,2.6,0.1,3.3c0,0.5,0.1,0.7,0.5,0.8c0.2,0,0.5,0.1,0.6,0.1c0.1,0,0.1,0,0.1,0.1c0,0.1-0.1,0.1-0.3,0.1
					c-0.8,0-1.8,0-1.8,0c-0.1,0-1,0-1.4,0c-0.2,0-0.3,0-0.3-0.1c0,0,0-0.1,0.1-0.1c0.1,0,0.3,0,0.5-0.1c0.3-0.1,0.4-0.4,0.5-0.8
					c0.1-0.6,0.1-1.8,0.1-3.3v-2.6c0-2.4,0-2.7,0-3.3c0-0.5-0.2-0.7-0.6-0.8c-0.1,0-0.4,0-0.5,0c-0.1,0-0.1,0-0.1-0.1
					c0-0.1,0.1-0.1,0.3-0.1c0.6,0,1.6,0,1.7,0c0.1,0,1,0,1.4,0c0.2,0,0.3,0,0.3,0.1c0,0.1-0.1,0.1-0.1,0.1c-0.1,0-0.2,0-0.4,0
					c-0.4,0.1-0.5,0.4-0.5,0.8c0,0.5,0,0.9,0,3.3v0.3c0,0.1,0,0.1,0.1,0.1h6.3c0,0,0.1,0,0.1-0.1v-0.3c0-2.4,0-2.7,0-3.3
					c0-0.5-0.2-0.7-0.6-0.8c-0.1,0-0.4,0-0.5,0c-0.1,0-0.1,0-0.1-0.1c0-0.1,0.1-0.1,0.3-0.1c0.6,0,1.6,0,1.7,0c0.1,0,1,0,1.4,0
					c0.2,0,0.3,0,0.3,0.1c0,0.1-0.1,0.1-0.1,0.1c-0.1,0-0.2,0-0.4,0c-0.4,0.1-0.5,0.4-0.5,0.8c0,0.5,0,0.9,0,3.3v2.6H-173.1z"/>
				<path id="XMLID_2316_" class="st3" d="M-169,314.1c0-2,0-2.4,0-2.7c0-0.5-0.1-0.6-0.5-0.7c-0.1,0-0.4,0-0.5,0l-0.1-0.1
					c0-0.1,0.1-0.1,0.2-0.1c0.6,0,1.4,0,1.5,0c0.1,0,2.8,0,3.2,0c0.3,0,0.5-0.1,0.6-0.1c0.1,0,0.1-0.1,0.2-0.1l0.1,0.1
					c0,0.1-0.1,0.3-0.1,0.6c0,0.1,0,0.7-0.1,0.8c0,0.1-0.1,0.1-0.1,0.1c-0.1,0-0.1-0.1-0.1-0.2s0-0.3-0.1-0.5
					c-0.1-0.2-0.2-0.3-0.9-0.4c-0.2,0-1.7,0-1.9,0c-0.1,0-0.1,0-0.1,0.1v3.4c0,0.1,0,0.1,0.1,0.1c0.2,0,1.9,0,2.2,0s0.5,0,0.6-0.2
					c0.1-0.1,0.2-0.2,0.2-0.2s0.1,0,0.1,0.1c0,0.1-0.1,0.3-0.1,0.7c0,0.3-0.1,0.7-0.1,0.8s0,0.3-0.1,0.3c-0.1,0-0.1,0-0.1-0.1
					c0-0.1,0-0.3-0.1-0.5c0-0.2-0.2-0.4-0.6-0.4c-0.4,0-1.8-0.1-2-0.1c-0.1,0-0.1,0-0.1,0.1v1.1c0,0.5,0,1.9,0,2.2
					c0,0.8,0.3,1,1.5,1c0.4,0,1,0,1.4-0.1c0.4-0.2,0.5-0.4,0.6-0.9c0-0.2,0.1-0.2,0.1-0.2c0.1,0,0.1,0.1,0.1,0.2
					c0,0.1-0.1,1-0.2,1.3c-0.1,0.4-0.2,0.4-0.7,0.4c-1,0-1.7,0-2.3,0s-0.9,0-1.1,0c0,0-0.3,0-0.5,0c-0.3,0-0.5,0-0.7,0
					c-0.1,0-0.2,0-0.2-0.1c0,0,0-0.1,0.1-0.1c0.1,0,0.3,0,0.4-0.1c0.3,0,0.3-0.3,0.4-0.6c0.1-0.5,0.1-1.5,0.1-2.7v-2.4H-169z"/>
				<path id="XMLID_2312_" class="st3" d="M-158.8,310.7c0.2-0.5,0.2-0.5,0.3-0.5c0.1,0,0.2,0.2,0.3,0.5c0.3,0.5,2.4,5.8,3.2,7.7
					c0.5,1.2,0.8,1.3,1.1,1.4c0.2,0.1,0.4,0.1,0.5,0.1c0.1,0,0.2,0,0.2,0.1c0,0.1-0.2,0.1-0.3,0.1c-0.2,0-1.2,0-2.1,0
					c-0.3,0-0.5,0-0.5-0.1c0-0.1,0-0.1,0.1-0.1c0.1,0,0.2-0.1,0.1-0.4l-1.2-2.9c0-0.1,0-0.1-0.1-0.1h-3.1c-0.1,0-0.1,0-0.1,0.1
					l-0.7,2.1c-0.1,0.3-0.2,0.6-0.2,0.8c0,0.3,0.2,0.4,0.5,0.4h0.1c0.1,0,0.1,0,0.1,0.1c0,0.1-0.1,0.1-0.2,0.1c-0.3,0-1,0-1.2,0
					c-0.1,0-0.8,0-1.4,0c-0.2,0-0.3,0-0.3-0.1c0-0.1,0.1-0.1,0.1-0.1c0.1,0,0.3,0,0.4,0c0.6-0.1,0.8-0.5,1.1-1.2L-158.8,310.7z
					 M-157.2,316L-157.2,316l-1.3-3.6c-0.1-0.2-0.2-0.2-0.2,0l-1.3,3.5c0,0.1,0,0.1,0,0.1H-157.2z"/>
				<path id="XMLID_2310_" class="st3" d="M-150.2,316.4c0,1.9,0,2.6,0.3,2.9c0.2,0.2,0.7,0.3,1.7,0.3c0.7,0,1.3,0,1.6-0.4
					c0.2-0.2,0.3-0.5,0.3-0.7c0-0.1,0.1-0.2,0.1-0.2c0.1,0,0.1,0.1,0.1,0.2c0,0.1-0.1,0.9-0.2,1.3c-0.1,0.3-0.1,0.4-0.8,0.4
					c-0.9,0-1.7,0-2.3,0c-0.6,0-1.1,0-1.4,0c-0.1,0-0.3,0-0.5,0s-0.5,0-0.7,0c-0.1,0-0.2,0-0.2-0.1c0,0,0-0.1,0.1-0.1
					c0.1,0,0.3,0,0.4-0.1c0.3-0.1,0.3-0.3,0.4-0.6c0.1-0.5,0.1-1.5,0.1-2.7v-2.3c0-2,0-2.4,0-2.7c0-0.5-0.1-0.6-0.5-0.7
					c-0.1,0-0.4,0-0.5,0l-0.1-0.1c0-0.1,0.1-0.1,0.2-0.1c0.6,0,1.4,0,1.5,0s1.1,0,1.4,0c0.1,0,0.2,0,0.2,0.1l-0.1,0.1
					c-0.1,0-0.3,0-0.5,0c-0.4,0.1-0.5,0.3-0.5,0.7c0,0.4,0,0.7,0,2.7L-150.2,316.4L-150.2,316.4z"/>
				<path id="XMLID_2298_" class="st3" d="M-141.8,316.4c0,1.3,0,2.3,0.1,2.7c0,0.4,0.1,0.6,0.5,0.6c0.2,0,0.5,0.1,0.6,0.1
					c0.1,0,0.1,0.1,0.1,0.1c0,0.1-0.1,0.1-0.2,0.1c-0.7,0-1.5,0-1.6,0c-0.1,0-1,0-1.4,0c-0.2,0-0.2,0-0.2-0.1c0,0,0-0.1,0.1-0.1
					c0.1,0,0.3,0,0.4-0.1c0.3-0.1,0.4-0.3,0.4-0.7c0.1-0.5,0.1-1.5,0.1-2.7v-5.3h-1.9c-0.8,0-1.2,0.1-1.4,0.4
					c-0.2,0.2-0.2,0.3-0.2,0.4c0,0.1-0.1,0.1-0.1,0.1s-0.1,0-0.1-0.1c0-0.1,0.3-1.3,0.3-1.4c0-0.1,0.1-0.3,0.1-0.3
					c0.1,0,0.2,0.1,0.5,0.2c0.4,0,0.9,0.1,1,0.1h5c0.5,0,0.7,0,0.9-0.1c0.2,0,0.3-0.1,0.4-0.1s0.1,0.1,0.1,0.2c0,0.4,0,1.3,0,1.4
					c0,0.1-0.1,0.2-0.1,0.2s-0.1,0-0.1-0.2v-0.1c0-0.4-0.4-0.6-1.6-0.7h-1.6L-141.8,316.4L-141.8,316.4z"/>
				<path id="XMLID_2268_" class="st3" d="M-128.4,316.4c0,1.3,0,2.3,0.1,2.7c0,0.4,0.1,0.6,0.5,0.6c0.2,0,0.5,0.1,0.5,0.1
					s0.1,0.1,0.1,0.1c0,0.1-0.1,0.1-0.2,0.1c-0.7,0-1.5,0-1.6,0c-0.1,0-0.9,0-1.3,0c-0.2,0-0.2,0-0.2-0.1c0,0,0-0.1,0.1-0.1
					c0.1,0,0.3,0,0.4-0.1c0.3-0.1,0.3-0.3,0.4-0.7c0.1-0.5,0.1-1.4,0.1-2.7V315c0-0.1,0-0.1-0.1-0.1h-5.5c0,0-0.1,0-0.1,0.1v1.3
					c0,1.3,0,2.2,0.1,2.7c0,0.4,0.1,0.6,0.5,0.6c0.2,0,0.5,0.1,0.6,0.1c0.1,0,0.1,0.1,0.1,0.1c0,0.1-0.1,0.1-0.2,0.1
					c-0.7,0-1.5,0-1.6,0c-0.1,0-0.9,0-1.4,0c-0.1,0-0.2,0-0.2-0.1c0,0,0-0.1,0.1-0.1c0.1,0,0.3,0,0.4-0.1c0.3-0.1,0.3-0.3,0.4-0.6
					c0.1-0.5,0.1-1.5,0.1-2.7V314c0-2,0-2.4,0-2.7c0-0.5-0.1-0.6-0.5-0.7c-0.1,0-0.4,0-0.5,0l-0.1-0.1c0-0.1,0.1-0.1,0.2-0.1
					c0.6,0,1.4,0,1.5,0s0.9,0,1.3,0c0.2,0,0.2,0,0.2,0.1l-0.1,0.1c-0.1,0-0.2,0-0.4,0c-0.4,0.1-0.5,0.3-0.5,0.7c0,0.4,0,0.8,0,2.8
					v0.3c0,0.1,0,0.1,0.1,0.1h5.5c0,0,0.1,0,0.1-0.1v-0.3c0-2,0-2.4,0-2.8c0-0.5-0.1-0.6-0.5-0.7c-0.1,0-0.4,0-0.5,0
					c-0.1,0-0.1-0.1-0.1-0.1c0-0.1,0.1-0.1,0.2-0.1c0.5,0,1.4,0,1.5,0s0.9,0,1.3,0c0.2,0,0.2,0,0.2,0.1l-0.1,0.1c-0.1,0-0.2,0-0.4,0
					c-0.4,0.1-0.5,0.3-0.5,0.7c0,0.4,0,0.7,0,2.7L-128.4,316.4L-128.4,316.4z"/>
				<path id="XMLID_2266_" class="st3" d="M-118.4,318.6c-1.4-1.3-1.8-3-1.8-4.4c0-1,0.4-2.7,1.7-4.1c0.9-0.9,2.3-1.6,4.5-1.6
					c0.6,0,1.4,0,2.2,0.2c0.5,0.1,1.1,0.2,1.5,0.2c0.2,0,0.2,0.1,0.2,0.2s0,0.3-0.1,0.8c0,0.5,0,1.4,0,1.5c0,0.2,0,0.3-0.1,0.3
					s-0.1-0.1-0.1-0.3c0-0.5-0.3-1.2-0.6-1.5c-0.5-0.5-1.7-0.8-3-0.8c-2,0-2.9,0.5-3.4,1.1c-1.1,1.1-1.4,2.4-1.4,3.9
					c0,2.9,2.2,5.5,5.4,5.5c1.1,0,2-0.1,2.6-0.7c0.3-0.4,0.5-1,0.5-1.3c0-0.2,0.1-0.2,0.2-0.2s0.1,0.1,0.1,0.2
					c0,0.1-0.2,1.4-0.4,1.9c-0.1,0.3-0.1,0.3-0.4,0.5c-0.6,0.3-1.7,0.4-2.7,0.4C-115.7,320.2-117.3,319.7-118.4,318.6z"/>
				<path id="XMLID_2164_" class="st3" d="M-104.8,310.7c0.2-0.5,0.2-0.5,0.3-0.5c0.1,0,0.2,0.2,0.3,0.5c0.3,0.5,2.4,5.8,3.2,7.7
					c0.5,1.2,0.8,1.3,1.1,1.4c0.2,0.1,0.4,0.1,0.5,0.1c0.1,0,0.2,0,0.2,0.1c0,0.1-0.2,0.1-0.3,0.1c-0.2,0-1.2,0-2.1,0
					c-0.3,0-0.5,0-0.5-0.1c0-0.1,0-0.1,0.1-0.1s0.2-0.1,0.1-0.4l-1.2-2.9c0-0.1,0-0.1-0.1-0.1h-3.1c-0.1,0-0.1,0-0.1,0.1l-0.7,2.1
					c-0.1,0.3-0.2,0.6-0.2,0.8c0,0.3,0.2,0.4,0.5,0.4h0.1c0.1,0,0.1,0,0.1,0.1c0,0.1-0.1,0.1-0.2,0.1c-0.3,0-1,0-1.2,0
					c-0.1,0-0.8,0-1.4,0c-0.2,0-0.3,0-0.3-0.1c0-0.1,0.1-0.1,0.1-0.1c0.1,0,0.3,0,0.4,0c0.6-0.1,0.8-0.5,1.1-1.2L-104.8,310.7z
					 M-103.3,316L-103.3,316l-1.3-3.6c-0.1-0.2-0.2-0.2-0.2,0l-1.3,3.5c0,0.1,0,0.1,0,0.1H-103.3z"/>
				<path id="XMLID_2160_" class="st3" d="M-97.4,314.1c0-2,0-2.4,0-2.7c0-0.5-0.1-0.6-0.5-0.7c-0.1,0-0.4,0-0.5,0l-0.1-0.1
					c0-0.1,0.1-0.1,0.2-0.1c0.6,0,1.4,0,1.5,0s1.3,0,1.6,0c0.8,0,1.8,0.1,2.4,0.5c0.4,0.3,0.9,0.8,0.9,1.7c0,0.9-0.4,1.9-1.6,2.9
					c1.1,1.4,2,2.5,2.7,3.3c0.7,0.7,1.2,0.8,1.4,0.9c0.3,0,0.4,0,0.5,0s0.1,0.1,0.1,0.1c0,0.1-0.1,0.1-0.3,0.1h-0.8
					c-0.7,0-1.1-0.1-1.4-0.3c-0.5-0.3-1.1-0.9-1.8-1.9c-0.5-0.7-1.2-1.5-1.4-1.9c-0.1-0.1-0.1-0.1-0.2-0.1h-1.7
					c-0.1,0-0.1,0-0.1,0.1v0.3c0,1.3,0,2.2,0.1,2.7c0,0.4,0.1,0.6,0.5,0.6c0.2,0,0.5,0.1,0.5,0.1s0.1,0.1,0.1,0.1
					c0,0.1-0.1,0.1-0.2,0.1c-0.7,0-1.5,0-1.6,0c0,0-0.9,0-1.3,0c-0.1,0-0.2,0-0.2-0.1c0,0,0-0.1,0.1-0.1s0.3,0,0.4-0.1
					c0.3-0.1,0.3-0.3,0.4-0.6c0.1-0.5,0.1-1.5,0.1-2.7v-2.1H-97.4z M-96.4,315.2c0,0.1,0,0.1,0.1,0.2c0.2,0.1,0.9,0.2,1.4,0.2
					c0.3,0,0.6,0,1-0.2c0.5-0.3,0.8-1,0.8-2c0-1.6-0.9-2.5-2.3-2.5c-0.4,0-0.8,0-0.9,0.1c-0.1,0-0.1,0.1-0.1,0.2L-96.4,315.2
					L-96.4,315.2z"/>
				<path id="XMLID_2157_" class="st3" d="M-87.4,314.1c0-2,0-2.4,0-2.7c0-0.5-0.1-0.6-0.5-0.7c-0.1,0-0.4,0-0.5,0l-0.1-0.1
					c0-0.1,0.1-0.1,0.2-0.1c0.6,0,1.4,0,1.5,0s2.8,0,3.2,0c0.3,0,0.5-0.1,0.6-0.1c0.1,0,0.1-0.1,0.2-0.1l0.1,0.1
					c0,0.1-0.1,0.3-0.1,0.6c0,0.1,0,0.7-0.1,0.8c0,0.1-0.1,0.1-0.1,0.1c-0.1,0-0.1-0.1-0.1-0.2s0-0.3-0.1-0.5
					c-0.1-0.2-0.2-0.3-0.9-0.4c-0.2,0-1.7,0-1.9,0c-0.1,0-0.1,0-0.1,0.1v3.4c0,0.1,0,0.1,0.1,0.1c0.2,0,1.9,0,2.2,0
					c0.3,0,0.5,0,0.6-0.2c0.1-0.1,0.2-0.2,0.2-0.2s0.1,0,0.1,0.1c0,0.1-0.1,0.3-0.1,0.7c0,0.3-0.1,0.7-0.1,0.8s0,0.3-0.1,0.3
					s-0.1,0-0.1-0.1c0-0.1,0-0.3-0.1-0.5c0-0.2-0.2-0.4-0.6-0.4c-0.4,0-1.8-0.1-2-0.1c-0.1,0-0.1,0-0.1,0.1v1.1c0,0.5,0,1.9,0,2.2
					c0,0.8,0.3,1,1.5,1c0.4,0,1,0,1.4-0.1c0.4-0.2,0.5-0.4,0.6-0.9c0-0.2,0.1-0.2,0.1-0.2c0.1,0,0.1,0.1,0.1,0.2
					c0,0.1-0.1,1-0.2,1.3c-0.1,0.4-0.2,0.4-0.7,0.4c-1,0-1.7,0-2.3,0c-0.5,0-0.9,0-1.1,0c0,0-0.3,0-0.5,0c-0.3,0-0.5,0-0.7,0
					c-0.1,0-0.2,0-0.2-0.1c0,0,0-0.1,0.1-0.1s0.3,0,0.4-0.1c0.3,0,0.3-0.3,0.4-0.6c0.1-0.5,0.1-1.5,0.1-2.7v-2.4H-87.4z"/>
			</g>
		</g>
	</g>
</g>
</svg>
