<?xml version="1.0" encoding="utf-8"?>
<!-- Generator: Adobe Illustrator 21.1.0, SVG Export Plug-In . SVG Version: 6.00 Build 0)  -->
<svg version="1.1" id="Layer_1" xmlns="http://www.w3.org/2000/svg" xmlns:xlink="http://www.w3.org/1999/xlink" x="0px" y="0px"
	 viewBox="0 0 300 53.7" style="enable-background:new 0 0 300 53.7;" xml:space="preserve">
<style type="text/css">
	.st0{fill:#FFFFFF;}
</style>
<g>
	<g>
		<g>
			<g id="XMLID_1_">
				<g id="XMLID_2_">
					<polygon id="XMLID_6_" class="st0" points="60.7,32.3 39.3,53.6 39.3,43.1 50,32.3 					"/>
					<polygon id="XMLID_5_" class="st0" points="49.9,21.4 60.7,32.3 50,32.3 39.3,21.4 					"/>
					<polygon id="XMLID_4_" class="st0" points="18,32.3 50,0 50,10.7 28.5,32.3 					"/>
					<polygon id="XMLID_3_" class="st0" points="39.3,53.7 17.9,32.3 28.6,32.3 39.3,43.1 					"/>
				</g>
			</g>
			<g>
				<path class="st0" d="M39.3,31.7h5.9v3.9c0,0.9-0.4,1.5-1.2,2c-0.8,0.4-1.7,0.6-2.6,0.6h-3.9c-1.1,0-2-0.3-2.8-0.8
					c-0.8-0.5-1.2-1.1-1.2-1.8v-6.5c0-0.7,0.4-1.3,1.1-1.8c0.8-0.5,1.7-0.8,2.8-0.8h3.9c2.5,0,3.8,0.9,3.9,2.6h-1.9
					c-0.2-0.9-0.8-1.3-1.9-1.3h-2c-0.5,0-1,0.1-1.4,0.4c-0.4,0.3-0.6,0.6-0.6,0.9v6.5c0,0.4,0.2,0.7,0.6,0.9
					c0.4,0.3,0.8,0.4,1.4,0.4c1.3,0,1.9-0.5,2-1.3V33h-2V31.7z"/>
			</g>
		</g>
	</g>
	<g>
		<path class="st0" d="M77.6,26.9c-2.1,0.7-4.2,1.2-6.5,1.6l-0.2-1.7l1.6-0.2c0.5-0.1,0.9-0.2,1.3-0.3v-6.2h-2.6v-1.6h2.6v-1.7h-1.6
			v-0.8l-0.6,0.6l-0.7-1.9c1.5-1.3,2.5-2.7,3.1-4.3h1.4c1,1,1.9,2.3,2.6,3.7l-1.4,1.1l-0.9-1.7c-0.2-0.3-0.4-0.6-0.6-0.9
			c-0.1-0.1-0.2-0.2-0.3-0.4c-0.1,0.2-0.2,0.4-0.3,0.5c-0.5,0.8-1.1,1.7-1.8,2.5h4.4v1.5h-1.9v1.7h2.3v1.6h-2.3V26l1.1-0.3
			c0.3-0.1,0.7-0.2,1.1-0.3L77.6,26.9z M71.7,25.6c-0.1-1.5-0.2-2.9-0.5-4l1.3-0.2c0.2,0.7,0.4,1.9,0.6,3.5c0,0.1,0,0.2,0,0.4
			L71.7,25.6z M77.4,21.4L77.3,23c-0.1,0.8-0.1,1.4-0.2,1.8l-1.3-0.2c0-0.1,0-0.2,0-0.3c0.2-1.1,0.3-1.9,0.3-2.3c0-0.4,0-0.6,0-0.7
			L77.4,21.4z M84.5,10.5v1h4.8v1.3h-4.8v0.8h4.1v1.3h-9.6v-1.3h3.9v-0.8h-4.9v-1.3h4.9v-1H84.5z M87.9,24.8v1.8v0.2
			c0,0.8-0.1,1.3-0.4,1.6c-0.3,0.3-0.9,0.5-1.7,0.5h-1l-0.4-1.5l1.4,0c0.4,0,0.6-0.2,0.6-0.6v-2h-3.3v-1.3h3.3v-0.9h-8.5v-1.4h11.5
			v1.4h-1.5v0.9h1.5v1.3H87.9z M87,18.3c0.3-0.4,0.4-0.9,0.6-1.3c0,0,0-0.1,0-0.1h-9.5v-1.4h11.3c0,1.1-0.3,2.2-0.8,3.3L87,18.3z
			 M86.5,17.5v1.2h-2.6v0.8h4.5v1.2H78.2v-1.2h4v-0.8h-3.4v-1.2H86.5z M78.3,23.4h4.2v5.1h-1.5v-0.8h-1.3v1.1h-1.5V23.4z M81.1,24.7
			h-1.3v1.8h1.3V24.7z M84.2,27.3c-0.1-0.3-0.3-0.6-0.5-0.9l-0.5-0.8l1.1-0.6c0.2,0.2,0.4,0.5,0.6,0.7l0.6,0.8L84.2,27.3z"/>
		<path class="st0" d="M102.7,17.1v-1.8h2.1v-4.9h1.8v4.9h1.6v1.8h-1.6v11.9h-1.8V17.1H102.7z M115.2,10.5v1.7h2.8
			c-0.1-0.1-0.1-0.1-0.1-0.2c-0.1-0.1-0.2-0.2-0.3-0.3l-0.6-0.6l1.3-0.7l0.7,0.5c0.1,0.1,0.3,0.3,0.5,0.6l0.1,0.1l-1,0.5h2.7v1.6h-6
			v0.8h5.2v5.8v0.4c0,0.6-0.1,1-0.3,1.2c-0.2,0.2-0.6,0.4-1.2,0.5v0.6h2.3v1.7h-2.3v1.9v0.4c0,1.1-0.6,1.7-1.8,1.7h-2.1l-0.4-1.7
			l2,0.1c0.4,0,0.6-0.2,0.6-0.6v-1.8h-5.8c0.1,0.1,0.2,0.2,0.3,0.3c0.2,0.2,0.5,0.4,0.7,0.7l1.1,1.3l-1.4,1.3
			c-0.5-0.7-1.2-1.5-1.8-2.2l-0.3-0.3l1.3-1h-3.5v-1.7h9.4v-0.6h-0.6l-0.4-1.4l1.9,0c0.2,0,0.3,0,0.4-0.1c0.1,0,0.1-0.2,0.1-0.4
			v-0.3h-3.5v1.7h-1.7v-1.7h-3v2.1h-1.7v-8h4.7v-0.8h-5.2v-1.6h5.2v-1.7H115.2z M113.5,16.9V16h-3v0.9H113.5z M113.5,19.2v-1h-3v1
			H113.5z M118.7,16.9V16h-3.5v0.9H118.7z M118.7,19.2v-1h-3.5v1H118.7z"/>
		<path class="st0" d="M135.4,20.7h16.9v1.7h-7.5v1.4h7v1.6h-7V27h8.3v1.6h-18.5V27h8.3v-1.6h-7.1v-1.6h7.1v-1.4h-7.5V20.7z
			 M151.5,12.2v7.3h-15.4v-7.3h6.2l0.2-0.8l0.2-0.9l2.1,0.3l-0.2,0.7l-0.2,0.7H151.5z M149.6,13.9h-11.6v1.2h11.6V13.9z M137.9,18
			h11.6v-1.4h-11.6V18z"/>
		<path class="st0" d="M168.4,21.5l-0.5,0.7c-0.2,0.2-0.4,0.4-0.5,0.6l-0.3,0.3l-0.7-1.9c1.3-1.4,2.4-3.2,3.5-5.5l1.4,0.9l-0.5,1.1
			c-0.2,0.4-0.4,0.8-0.7,1.2v10.1h-1.7V21.5z M166.5,15c1.1-1,2.1-2.2,3-3.8l0.4-0.7l1.6,0.7c-0.1,0.2-0.2,0.3-0.3,0.5
			c-1,1.9-2.2,3.4-3.5,4.6L166.5,15z M172.4,16.1l-1.5-0.9c1.3-1.4,2.2-3,2.8-4.6l1.6,0.6l-0.3,0.8l-0.4,0.9h4.1v1.5h-2.1V17h2.4
			v1.6h-2.4V21h2v1.6h-2v3l1.1-0.3c0.4-0.1,0.7-0.2,1-0.3c0,0,0.1,0,0.1,0v1.7c-1.7,0.5-3.8,1-6.5,1.4c-0.3,0.1-0.7,0.1-1.3,0.2
			l-0.2-1.8l0.7,0l0.5-0.1v-6.5h1.6v6.3l0.6-0.1l0.7-0.1v-7.4h-3.4V17h3.4v-2.6h-1l-0.6,0.9C172.9,15.5,172.7,15.8,172.4,16.1z
			 M182.8,13.3H181v15.7h-1.7V11.6h5.1v13.1v0.2c0,0.8-0.2,1.3-0.5,1.6c-0.3,0.3-0.9,0.5-1.6,0.5h-0.6l-0.5-1.8l0.8,0
			c0.4,0,0.7-0.2,0.7-0.6V13.3z"/>
		<path class="st0" d="M208.4,10.5v1h6.5v3.8h-6.5v0.8h8.4v1.4h-18.6v-1.4h8.4v-0.8h-6.4v-3.8h6.4v-1H208.4z M206,27.5
			c-2,0.6-4.3,1.1-6.9,1.5l-0.6-1.6c2.3-0.1,4.5-0.5,6.5-1.1L206,27.5z M214.7,26.1h-14.3v-7.8h14.3V26.1z M206.6,12.8h-4.7v1.1h4.7
			V12.8z M212.9,19.6h-10.7v0.9h10.7V19.6z M202.2,22.6h10.7v-1h-10.7V22.6z M202.2,24.7h10.7v-1.1h-10.7V24.7z M213.2,12.8h-4.8
			v1.1h4.8V12.8z M216,29c-2.4-0.6-4.7-1.1-6.8-1.4l0.8-1.4c2.6,0.3,4.8,0.6,6.7,1.1L216,29z"/>
		<path class="st0" d="M234.6,26.7c-0.6-1.7-1.1-2.9-1.5-3.6l1.8-0.7c0.6,1.1,1,2.3,1.4,3.4l0.3,0.8h1.8v-5.2h-7.3v-1.8h7.3v-2.2
			h-4.4v-0.9l-1.3,0.7l-1.5,0.7l-1.1-1.8c3.8-1.6,6.5-3.5,8.3-5.7h1.8c2.3,2.2,5.2,4.1,8.6,5.6l-1.2,1.8l-1.3-0.6
			c-0.7-0.3-1.1-0.6-1.3-0.7v1h-4.5v2.2h7.3v1.8h-7.3v5.2h1.8c0.6-1.4,1.2-2.9,1.8-4.4l1.9,0.7c-0.1,0.2-0.1,0.3-0.2,0.5
			c-0.4,1.2-0.9,2.3-1.4,3.2h3.9v1.8h-17.5v-1.8H234.6z M239.3,12.3c-1.4,1.4-2.7,2.6-4,3.4h8.4C242.2,14.8,240.8,13.7,239.3,12.3z"
			/>
		<path class="st0" d="M276.6,28.4l-0.8,0.3l-0.2-0.4l-4.9,0.3l-4.7,0.2l-0.3-1.4c1.5,0,2.5,0,3.2,0l2.3,0v-0.9H267v-2.3l-1.5,0.9
			l-0.8-1.5c-0.2,1.5-0.6,3.2-1.2,5.3l-1.6-1.3c0.9-2.4,1.3-5.3,1.3-8.6v-0.2c0-0.2,0-0.5,0-0.7c0-0.2,0-0.4,0-0.7V11h16.6v3.5H265
			v3.9l-0.1,2.6c0,1-0.1,1.8-0.2,2.5c1.3-0.4,2.4-1,3.6-2c0.1-0.1,0.1-0.1,0.2-0.2H266v-3h13.9v3h-9l-0.3,0.4l-0.3,0.3h9.9
			c0,2.4-0.1,4-0.2,4.9c-0.1,0.9-0.3,1.5-0.5,1.7c-0.2,0.2-0.5,0.4-0.9,0.4c-0.9,0-1.4,0-1.7,0L276.6,28.4z M278,12.2H265v1H278
			V12.2z M271.2,16h-5.4v-1h5.4V16z M271.2,17.6h-5.4v-1h5.4V17.6z M267.7,19.3v0.9h2.6v-0.9H267.7z M268.6,23.1l-0.4,0.3l-0.5,0.3
			h3.4v-0.7H268.6z M268.5,25.5h2.6v-0.8h-2.6V25.5z M273.7,14.9v2.9H272v-2.9H273.7z M272,19.3v0.9h2.2v-0.9H272z M276,26.5
			c0,0.1,0.1,0.1,0.1,0.2c0.1,0.1,0.1,0.2,0.2,0.3l0.3,0.4l1,0.1c0.2,0,0.3-0.1,0.4-0.2c0.1-0.1,0.2-1,0.3-2.5c0-0.4,0-0.9,0.1-1.7
			h-5.5v0.7h4.1v2.7H276z M275.3,24.7h-2.5v0.8h2.5V24.7z M274.4,26.5h-1.7v0.8l1,0l1.2-0.1L274.4,26.5z M280.3,16h-5.8v-1h5.8V16z
			 M280.3,17.6h-5.8v-1h5.8V17.6z M278.1,20.2v-0.9h-2.4v0.9H278.1z"/>
	</g>
	<g>
		<path class="st0" d="M72.1,39c0-2.4,0-2.8,0-3.3c0-0.5-0.2-0.8-0.7-0.9c-0.1,0-0.4,0-0.5,0c-0.1,0-0.1,0-0.1-0.1
			c0-0.1,0.1-0.1,0.2-0.1c0.7,0,1.6,0,1.7,0c0.4,0,1,0,1.7,0c2.5,0,3,1.5,3,2.3c0,1.2-0.7,2-1.4,2.7c1.1,0.3,2.6,1.4,2.6,3.2
			c0,1.6-1.3,3.3-3.9,3.3c-0.2,0-0.7,0-1.1,0c-0.4,0-0.9,0-0.9,0c0,0-0.3,0-0.6,0c-0.3,0-0.7,0-0.9,0c-0.2,0-0.2,0-0.2-0.1
			c0,0,0-0.1,0.1-0.1c0.1,0,0.3,0,0.5-0.1c0.3-0.1,0.4-0.4,0.4-0.8c0.1-0.6,0.1-1.8,0.1-3.3V39z M73.3,39.3c0,0.1,0,0.1,0.1,0.2
			c0.1,0,0.4,0.1,0.9,0.1c0.9,0,1.1,0,1.4-0.4c0.3-0.4,0.5-0.9,0.5-1.5c0-1.3-0.6-2.6-2.1-2.6c-0.2,0-0.5,0-0.7,0.1
			c-0.1,0-0.2,0.1-0.2,0.2V39.3z M73.3,40.9c0,1.2,0,3.1,0,3.3c0,0.7,0,1,0.5,1.2c0.4,0.2,1.1,0.2,1.3,0.2c0.8,0,2.1-0.4,2.1-2.2
			c0-0.9-0.3-2.2-1.5-3C75.4,40.1,75,40,74.6,40c-0.2,0-1,0-1.2,0c-0.1,0-0.1,0-0.1,0.1V40.9z"/>
		<path class="st0" d="M81.5,40c0-2,0-2.4,0-2.8c0-0.4-0.1-0.7-0.5-0.7c-0.1,0-0.3,0-0.5,0c0,0-0.1-0.1-0.1-0.1
			c0-0.1,0.1-0.1,0.2-0.1c0.6,0,1.5,0,1.6,0c0.1,0,1.3,0,1.7,0c0.9,0,1.8,0.1,2.5,0.6c0.3,0.2,0.9,0.9,0.9,1.8c0,1-0.4,1.9-1.6,3
			c1.1,1.4,2,2.5,2.8,3.3c0.7,0.7,1.2,0.9,1.5,0.9c0.3,0,0.4,0,0.5,0s0.1,0.1,0.1,0.1c0,0.1-0.1,0.1-0.3,0.1h-0.8
			c-0.8,0-1.1-0.1-1.4-0.3c-0.6-0.3-1.1-0.9-1.8-1.9c-0.6-0.7-1.2-1.5-1.4-1.9C84.5,42,84.5,42,84.4,42l-1.7,0c-0.1,0-0.1,0-0.1,0.1
			v0.3c0,1.2,0,2.3,0.1,2.8c0,0.4,0.1,0.6,0.5,0.7c0.2,0,0.5,0.1,0.6,0.1c0.1,0,0.1,0.1,0.1,0.1c0,0.1-0.1,0.1-0.2,0.1
			c-0.7,0-1.6,0-1.6,0c0,0-0.9,0-1.3,0c-0.1,0-0.2,0-0.2-0.1c0,0,0-0.1,0.1-0.1c0.1,0,0.3,0,0.4-0.1c0.3-0.1,0.3-0.3,0.3-0.7
			c0.1-0.5,0.1-1.6,0.1-2.8V40z M82.6,41.1c0,0.1,0,0.1,0.1,0.2c0.2,0.1,0.9,0.2,1.5,0.2c0.3,0,0.7,0,1-0.2c0.5-0.3,0.8-1,0.8-2
			c0-1.6-0.9-2.5-2.3-2.5c-0.4,0-0.8,0-1,0.1c-0.1,0-0.1,0.1-0.1,0.2V41.1z"/>
		<path class="st0" d="M92.4,42.3c0,1.2,0,2.3,0.1,2.8c0,0.4,0.1,0.6,0.5,0.7c0.2,0,0.5,0.1,0.6,0.1c0.1,0,0.1,0.1,0.1,0.1
			c0,0.1-0.1,0.1-0.2,0.1c-0.7,0-1.6,0-1.7,0c-0.1,0-0.9,0-1.3,0c-0.1,0-0.2,0-0.2-0.1c0,0,0-0.1,0.1-0.1c0.1,0,0.3,0,0.4-0.1
			c0.3-0.1,0.3-0.3,0.3-0.7c0.1-0.5,0.1-1.6,0.1-2.8V40c0-2,0-2.4,0-2.8c0-0.4-0.1-0.6-0.4-0.7c-0.2,0-0.3,0-0.4,0
			c-0.1,0-0.1-0.1-0.1-0.1c0-0.1,0.1-0.1,0.2-0.1c0.4,0,1.3,0,1.4,0c0.1,0,0.9,0,1.3,0c0.2,0,0.2,0,0.2,0.1c0,0-0.1,0.1-0.1,0.1
			c-0.1,0-0.2,0-0.3,0c-0.4,0.1-0.4,0.3-0.5,0.7c0,0.4,0,0.8,0,2.8V42.3z"/>
		<path class="st0" d="M97.5,42.4c0,1.9,0,2.7,0.3,2.9c0.2,0.2,0.7,0.3,1.8,0.3c0.7,0,1.3,0,1.6-0.4c0.2-0.2,0.3-0.5,0.3-0.7
			c0-0.1,0.1-0.2,0.1-0.2c0.1,0,0.1,0.1,0.1,0.2c0,0.1-0.1,0.9-0.2,1.3c-0.1,0.3-0.1,0.3-0.9,0.3c-1,0-1.7,0-2.3,0
			c-0.6,0-1.1,0-1.5,0c-0.1,0-0.3,0-0.5,0c-0.3,0-0.6,0-0.8,0c-0.1,0-0.2,0-0.2-0.1c0,0,0-0.1,0.1-0.1c0.1,0,0.3,0,0.4-0.1
			c0.3-0.1,0.3-0.3,0.3-0.7c0.1-0.5,0.1-1.6,0.1-2.8V40c0-2,0-2.4,0-2.8c0-0.4-0.1-0.7-0.5-0.7c-0.1,0-0.3,0-0.5,0
			c0,0-0.1-0.1-0.1-0.1c0-0.1,0.1-0.1,0.2-0.1c0.6,0,1.4,0,1.5,0c0.1,0,1.1,0,1.5,0c0.1,0,0.2,0,0.2,0.1c0,0-0.1,0.1-0.1,0.1
			c-0.1,0-0.3,0-0.4,0c-0.4,0.1-0.5,0.3-0.5,0.7c0,0.4,0,0.8,0,2.8V42.4z"/>
		<path class="st0" d="M105.2,42.4c0,1.9,0,2.7,0.3,2.9c0.2,0.2,0.7,0.3,1.8,0.3c0.7,0,1.3,0,1.6-0.4c0.2-0.2,0.3-0.5,0.3-0.7
			c0-0.1,0.1-0.2,0.1-0.2c0.1,0,0.1,0.1,0.1,0.2c0,0.1-0.1,0.9-0.2,1.3c-0.1,0.3-0.1,0.3-0.9,0.3c-1,0-1.7,0-2.3,0
			c-0.6,0-1.1,0-1.5,0c-0.1,0-0.3,0-0.5,0c-0.3,0-0.6,0-0.8,0c-0.1,0-0.2,0-0.2-0.1c0,0,0-0.1,0.1-0.1c0.1,0,0.3,0,0.4-0.1
			c0.3-0.1,0.3-0.3,0.3-0.7c0.1-0.5,0.1-1.6,0.1-2.8V40c0-2,0-2.4,0-2.8c0-0.4-0.1-0.7-0.5-0.7c-0.1,0-0.3,0-0.5,0
			c0,0-0.1-0.1-0.1-0.1c0-0.1,0.1-0.1,0.2-0.1c0.6,0,1.4,0,1.5,0c0.1,0,1.1,0,1.5,0c0.1,0,0.2,0,0.2,0.1c0,0-0.1,0.1-0.1,0.1
			c-0.1,0-0.3,0-0.4,0c-0.4,0.1-0.5,0.3-0.5,0.7c0,0.4,0,0.8,0,2.8V42.4z"/>
		<path class="st0" d="M112.8,42.3c0,1.2,0,2.3,0.1,2.8c0,0.4,0.1,0.6,0.5,0.7c0.2,0,0.5,0.1,0.6,0.1c0.1,0,0.1,0.1,0.1,0.1
			c0,0.1-0.1,0.1-0.2,0.1c-0.7,0-1.6,0-1.7,0c-0.1,0-0.9,0-1.3,0c-0.1,0-0.2,0-0.2-0.1c0,0,0-0.1,0.1-0.1c0.1,0,0.3,0,0.4-0.1
			c0.3-0.1,0.3-0.3,0.3-0.7c0.1-0.5,0.1-1.6,0.1-2.8V40c0-2,0-2.4,0-2.8c0-0.4-0.1-0.6-0.4-0.7c-0.2,0-0.3,0-0.4,0
			c-0.1,0-0.1-0.1-0.1-0.1c0-0.1,0.1-0.1,0.2-0.1c0.4,0,1.3,0,1.4,0c0.1,0,0.9,0,1.3,0c0.2,0,0.2,0,0.2,0.1c0,0-0.1,0.1-0.1,0.1
			c-0.1,0-0.2,0-0.3,0c-0.4,0.1-0.4,0.3-0.5,0.7c0,0.4,0,0.8,0,2.8V42.3z"/>
		<path class="st0" d="M119,36.6c0.2-0.4,0.2-0.5,0.3-0.5c0.1,0,0.2,0.2,0.3,0.5c0.2,0.5,2.4,5.9,3.2,7.8c0.5,1.2,0.9,1.3,1.1,1.4
			c0.2,0.1,0.4,0.1,0.5,0.1c0.1,0,0.2,0,0.2,0.1s-0.2,0.1-0.3,0.1c-0.2,0-1.2,0-2.1,0c-0.3,0-0.5,0-0.5-0.1c0-0.1,0-0.1,0.1-0.1
			c0.1,0,0.2-0.1,0.1-0.3l-1.2-3c0-0.1,0-0.1-0.1-0.1h-3.1c-0.1,0-0.1,0-0.1,0.1l-0.8,2.1c-0.1,0.3-0.2,0.6-0.2,0.9
			c0,0.3,0.2,0.3,0.5,0.3h0.1c0.1,0,0.1,0,0.1,0.1c0,0.1-0.1,0.1-0.2,0.1c-0.3,0-1,0-1.2,0c-0.1,0-0.8,0-1.4,0c-0.2,0-0.3,0-0.3-0.1
			c0-0.1,0.1-0.1,0.1-0.1c0.1,0,0.3,0,0.4,0c0.6-0.1,0.9-0.5,1.1-1.2L119,36.6z M120.5,41.9C120.6,41.9,120.6,41.9,120.5,41.9
			l-1.3-3.6c-0.1-0.2-0.2-0.2-0.2,0l-1.2,3.5c0,0.1,0,0.1,0,0.1H120.5z"/>
		<path class="st0" d="M126.5,44.3c0,1.1,0.2,1.4,0.5,1.5c0.2,0.1,0.5,0.1,0.7,0.1c0.1,0,0.1,0,0.1,0.1c0,0.1-0.1,0.1-0.2,0.1
			c-0.8,0-1.3,0-1.4,0s-0.7,0-1.3,0c-0.1,0-0.2,0-0.2-0.1c0-0.1,0-0.1,0.1-0.1c0.1,0,0.3,0,0.5-0.1c0.3-0.1,0.4-0.4,0.4-1.6v-7.4
			c0-0.5,0.1-0.7,0.2-0.7c0.2,0,0.4,0.3,0.5,0.4c0.2,0.2,2.2,2.3,4.2,4.4c1.3,1.4,2.8,2.9,3.2,3.3l-0.1-6.5c0-0.8-0.1-1.1-0.5-1.2
			c-0.2,0-0.5-0.1-0.7-0.1c-0.1,0-0.1-0.1-0.1-0.1c0-0.1,0.1-0.1,0.3-0.1c0.6,0,1.2,0,1.4,0s0.6,0,1.1,0c0.1,0,0.2,0,0.2,0.1
			c0,0-0.1,0.1-0.2,0.1c-0.1,0-0.2,0-0.3,0c-0.4,0.1-0.5,0.3-0.5,1.1l0,7.6c0,0.9,0,0.9-0.1,0.9c-0.1,0-0.3-0.1-1-0.8
			c-0.1-0.1-2.1-2-3.5-3.5c-1.6-1.6-3.1-3.2-3.5-3.7L126.5,44.3z"/>
		<path class="st0" d="M141.1,42.3c0,1.2,0,2.3,0.1,2.8c0,0.4,0.1,0.6,0.5,0.7c0.2,0,0.5,0.1,0.6,0.1c0.1,0,0.1,0.1,0.1,0.1
			c0,0.1-0.1,0.1-0.2,0.1c-0.7,0-1.6,0-1.7,0c-0.1,0-1,0-1.4,0c-0.2,0-0.2,0-0.2-0.1c0,0,0-0.1,0.1-0.1c0.1,0,0.3,0,0.4-0.1
			c0.3-0.1,0.3-0.3,0.4-0.7c0.1-0.5,0.1-1.6,0.1-2.8v-5.4l-1.9,0c-0.8,0-1.2,0.1-1.4,0.4c-0.2,0.2-0.2,0.3-0.2,0.4
			c0,0.1-0.1,0.1-0.1,0.1c0,0-0.1,0-0.1-0.1c0-0.1,0.3-1.3,0.3-1.4c0-0.1,0.1-0.2,0.1-0.2c0.1,0,0.2,0.1,0.6,0.2
			c0.4,0,0.9,0.1,1,0.1h5c0.4,0,0.7,0,1-0.1c0.2,0,0.3-0.1,0.4-0.1c0.1,0,0.1,0.1,0.1,0.2c0,0.4,0,1.3,0,1.5c0,0.1-0.1,0.2-0.1,0.2
			c-0.1,0-0.1,0-0.1-0.2l0-0.1c0-0.4-0.3-0.7-1.6-0.7l-1.7,0V42.3z"/>
		<path class="st0" d="M178.3,44.9c-1.3-1.1-1.6-2.6-1.6-3.8c0-0.9,0.3-2.4,1.5-3.5c0.8-0.8,2-1.4,4.1-1.4c0.5,0,1.3,0,1.9,0.2
			c0.5,0.1,0.9,0.2,1.4,0.2c0.1,0,0.2,0.1,0.2,0.1c0,0.1,0,0.3-0.1,0.7c0,0.4,0,1.1,0,1.3c0,0.2-0.1,0.3-0.2,0.3
			c-0.1,0-0.1-0.1-0.1-0.3c0-0.5-0.2-1-0.6-1.3c-0.5-0.4-1.4-0.7-2.6-0.7c-1.7,0-2.5,0.5-3,0.9c-1,0.9-1.2,2.1-1.2,3.4
			c0,2.5,2,4.7,4.8,4.7c1,0,1.7-0.1,2.2-0.6c0.3-0.3,0.5-0.8,0.5-1.1c0-0.1,0-0.2,0.1-0.2c0.1,0,0.1,0.1,0.1,0.2
			c0,0.1-0.2,1.2-0.3,1.7c-0.1,0.2-0.1,0.3-0.3,0.4c-0.5,0.2-1.6,0.3-2.4,0.3C180.7,46.3,179.4,45.8,178.3,44.9z"/>
		<path class="st0" d="M189.7,42.3c0,1.2,0,2.3,0.1,2.8c0,0.4,0.1,0.6,0.5,0.7c0.2,0,0.5,0.1,0.6,0.1c0.1,0,0.1,0.1,0.1,0.1
			c0,0.1-0.1,0.1-0.2,0.1c-0.7,0-1.6,0-1.7,0c-0.1,0-0.9,0-1.3,0c-0.1,0-0.2,0-0.2-0.1c0,0,0-0.1,0.1-0.1c0.1,0,0.3,0,0.4-0.1
			c0.3-0.1,0.3-0.3,0.3-0.7c0.1-0.5,0.1-1.6,0.1-2.8V40c0-2,0-2.4,0-2.8c0-0.4-0.1-0.6-0.4-0.7c-0.2,0-0.3,0-0.4,0
			c-0.1,0-0.1-0.1-0.1-0.1c0-0.1,0.1-0.1,0.2-0.1c0.4,0,1.3,0,1.4,0c0.1,0,0.9,0,1.3,0c0.2,0,0.2,0,0.2,0.1c0,0-0.1,0.1-0.1,0.1
			c-0.1,0-0.2,0-0.3,0c-0.4,0.1-0.4,0.3-0.5,0.7c0,0.4,0,0.8,0,2.8V42.3z"/>
		<path class="st0" d="M197.5,36.1c3,0,5.3,1.8,5.3,4.9c0,2.9-2.1,5.3-5.4,5.3c-3.7,0-5.2-2.8-5.2-5.1
			C192.1,39.1,193.8,36.1,197.5,36.1z M197.8,45.7c1.2,0,3.6-0.6,3.6-4.4c0-3.1-1.9-4.7-4-4.7c-2.2,0-3.8,1.4-3.8,4.2
			C193.5,43.8,195.3,45.7,197.8,45.7z"/>
		<path class="st0" d="M204.8,40c0-2,0-2.4,0-2.8c0-0.4-0.1-0.7-0.5-0.7c-0.1,0-0.3,0-0.5,0c0,0-0.1-0.1-0.1-0.1
			c0-0.1,0.1-0.1,0.2-0.1c0.6,0,1.4,0,1.5,0c0.1,0,1,0,1.4,0c0.2,0,0.2,0,0.2,0.1c0,0-0.1,0.1-0.1,0.1c-0.1,0-0.2,0-0.3,0
			c-0.3,0.1-0.4,0.3-0.5,0.7c0,0.4,0,0.8,0,2.8v1.8c0,1.9,0.4,2.6,1,3.2c0.7,0.6,1.2,0.7,2,0.7c0.8,0,1.6-0.4,2.1-0.9
			c0.6-0.7,0.8-1.8,0.8-3.1V40c0-2,0-2.4,0-2.8c0-0.4-0.1-0.7-0.5-0.7c-0.1,0-0.3,0-0.5,0c-0.1,0-0.1-0.1-0.1-0.1
			c0-0.1,0.1-0.1,0.2-0.1c0.6,0,1.4,0,1.4,0c0.1,0,0.7,0,1.1,0c0.2,0,0.2,0,0.2,0.1c0,0,0,0.1-0.1,0.1c-0.1,0-0.2,0-0.3,0
			c-0.4,0.1-0.4,0.3-0.5,0.7c0,0.4,0,0.8,0,2.8v1.4c0,1.4-0.2,3-1.2,3.9c-1,0.8-2,0.9-2.8,0.9c-0.4,0-1.8,0-2.8-0.9
			c-0.7-0.6-1.2-1.5-1.2-3.4V40z"/>
		<path class="st0" d="M215,45.9c-0.2-0.1-0.2-0.1-0.2-0.5c0-0.6,0.1-1.2,0.1-1.4c0-0.1,0-0.2,0.1-0.2s0.1,0,0.1,0.2
			c0,0.1,0,0.3,0,0.5c0.2,0.9,1.2,1.3,2.1,1.3c1.3,0,2-0.7,2-1.7c0-0.9-0.5-1.4-1.7-2.3l-0.6-0.5c-1.4-1.1-1.9-1.9-1.9-2.8
			c0-1.5,1.2-2.4,3-2.4c0.5,0,1.1,0.1,1.4,0.2c0.3,0.1,0.4,0.1,0.5,0.1s0.1,0,0.1,0.1c0,0.1-0.1,0.5-0.1,1.4c0,0.2,0,0.3-0.1,0.3
			c-0.1,0-0.1-0.1-0.1-0.2c0-0.2-0.1-0.5-0.2-0.6c-0.1-0.2-0.5-0.6-1.7-0.6c-1,0-1.8,0.5-1.8,1.4c0,0.8,0.4,1.3,1.7,2.2l0.4,0.3
			c1.6,1.1,2.2,2,2.2,3.1c0,0.8-0.3,1.6-1.2,2.2c-0.6,0.4-1.4,0.5-2.1,0.5C216.3,46.3,215.5,46.2,215,45.9z"/>
		<path class="st0" d="M239.7,44.1c0.1,0.5,0.2,1.4,0.8,1.6c0.4,0.1,0.8,0.1,1,0.1c0.1,0,0.1,0,0.1,0.1c0,0.1-0.1,0.1-0.3,0.1
			c-0.3,0-2,0-2.5-0.1c-0.3,0-0.4-0.1-0.4-0.2c0-0.1,0-0.1,0.1-0.1c0.1,0,0.1-0.3,0.1-0.5l-0.7-7.9h0l-3.7,7.9
			c-0.3,0.7-0.4,0.8-0.5,0.8c-0.1,0-0.2-0.2-0.5-0.7c-0.4-0.7-1.7-3.4-1.8-3.5c-0.1-0.3-1.8-3.9-2-4.3h-0.1l-0.6,7.1
			c0,0.2,0,0.5,0,0.8c0,0.2,0.2,0.4,0.4,0.5c0.3,0.1,0.5,0.1,0.6,0.1c0.1,0,0.1,0,0.1,0.1c0,0.1-0.1,0.1-0.3,0.1c-0.6,0-1.3,0-1.4,0
			c-0.1,0-0.9,0-1.3,0c-0.2,0-0.3,0-0.3-0.1c0,0,0.1-0.1,0.2-0.1c0.1,0,0.2,0,0.5,0c0.5-0.1,0.5-0.7,0.6-1.3l1.1-9.9
			c0-0.2,0.1-0.3,0.2-0.3c0.1,0,0.2,0.1,0.2,0.2l4.7,9.6l4.5-9.6c0.1-0.1,0.1-0.2,0.2-0.2s0.2,0.1,0.2,0.4L239.7,44.1z"/>
		<path class="st0" d="M243.5,40c0-2,0-2.4,0-2.8c0-0.4-0.1-0.7-0.5-0.7c-0.1,0-0.3,0-0.5,0c0,0-0.1-0.1-0.1-0.1
			c0-0.1,0.1-0.1,0.2-0.1c0.6,0,1.5,0,1.6,0c0.1,0,2.9,0,3.2,0c0.3,0,0.5-0.1,0.6-0.1c0.1,0,0.1-0.1,0.2-0.1c0,0,0.1,0.1,0.1,0.1
			c0,0.1-0.1,0.2-0.1,0.6c0,0.1,0,0.7-0.1,0.9c0,0.1-0.1,0.1-0.1,0.1c-0.1,0-0.1-0.1-0.1-0.2c0-0.1,0-0.3-0.1-0.5
			c-0.1-0.2-0.2-0.3-1-0.4c-0.2,0-1.8,0-1.9,0c-0.1,0-0.1,0-0.1,0.1v3.5c0,0.1,0,0.1,0.1,0.1c0.2,0,1.9,0,2.2,0c0.3,0,0.5,0,0.7-0.2
			c0.1-0.1,0.2-0.2,0.2-0.2c0,0,0.1,0,0.1,0.1c0,0.1-0.1,0.3-0.1,0.7c0,0.3-0.1,0.7-0.1,0.8c0,0.1,0,0.2-0.1,0.2
			c-0.1,0-0.1,0-0.1-0.1c0-0.1,0-0.3-0.1-0.4c0-0.2-0.2-0.3-0.7-0.4c-0.4,0-1.8-0.1-2-0.1c-0.1,0-0.1,0-0.1,0.1v1.1
			c0,0.4,0,1.9,0,2.2c0,0.9,0.3,1,1.6,1c0.3,0,1,0,1.3-0.1c0.3-0.2,0.5-0.4,0.6-0.9c0-0.2,0.1-0.2,0.1-0.2s0.1,0.1,0.1,0.2
			c0,0.1-0.1,1-0.2,1.2c-0.1,0.3-0.2,0.3-0.7,0.3c-1,0-1.8,0-2.3,0c-0.6,0-0.9,0-1.1,0c0,0-0.3,0-0.6,0c-0.3,0-0.6,0-0.8,0
			c-0.1,0-0.2,0-0.2-0.1c0,0,0-0.1,0.1-0.1c0.1,0,0.3,0,0.4-0.1c0.3,0,0.3-0.3,0.3-0.7c0.1-0.5,0.1-1.6,0.1-2.8V40z"/>
		<path class="st0" d="M254.3,42.3c0,1.2,0,2.3,0.1,2.8c0,0.4,0.1,0.6,0.5,0.7c0.2,0,0.5,0.1,0.6,0.1c0.1,0,0.1,0.1,0.1,0.1
			c0,0.1-0.1,0.1-0.2,0.1c-0.7,0-1.6,0-1.7,0c-0.1,0-1,0-1.4,0c-0.2,0-0.2,0-0.2-0.1c0,0,0-0.1,0.1-0.1c0.1,0,0.3,0,0.4-0.1
			c0.3-0.1,0.3-0.3,0.4-0.7c0.1-0.5,0.1-1.6,0.1-2.8v-5.4l-1.9,0c-0.8,0-1.2,0.1-1.4,0.4c-0.2,0.2-0.2,0.3-0.2,0.4
			c0,0.1-0.1,0.1-0.1,0.1c0,0-0.1,0-0.1-0.1c0-0.1,0.3-1.3,0.3-1.4c0-0.1,0.1-0.2,0.1-0.2c0.1,0,0.2,0.1,0.6,0.2
			c0.4,0,0.9,0.1,1,0.1h5c0.4,0,0.7,0,1-0.1c0.2,0,0.3-0.1,0.4-0.1c0.1,0,0.1,0.1,0.1,0.2c0,0.4,0,1.3,0,1.5c0,0.1-0.1,0.2-0.1,0.2
			s-0.1,0-0.1-0.2l0-0.1c0-0.4-0.3-0.7-1.6-0.7l-1.7,0V42.3z"/>
		<path class="st0" d="M261.5,36.6c0.2-0.4,0.2-0.5,0.3-0.5c0.1,0,0.2,0.2,0.3,0.5c0.2,0.5,2.4,5.9,3.2,7.8c0.5,1.2,0.9,1.3,1.1,1.4
			c0.2,0.1,0.4,0.1,0.5,0.1c0.1,0,0.2,0,0.2,0.1s-0.2,0.1-0.3,0.1c-0.2,0-1.2,0-2.1,0c-0.3,0-0.5,0-0.5-0.1c0-0.1,0-0.1,0.1-0.1
			c0.1,0,0.2-0.1,0.1-0.3l-1.2-3c0-0.1,0-0.1-0.1-0.1h-3.1c-0.1,0-0.1,0-0.1,0.1l-0.8,2.1c-0.1,0.3-0.2,0.6-0.2,0.9
			c0,0.3,0.2,0.3,0.5,0.3h0.1c0.1,0,0.1,0,0.1,0.1c0,0.1-0.1,0.1-0.2,0.1c-0.3,0-1,0-1.2,0c-0.1,0-0.8,0-1.4,0c-0.2,0-0.3,0-0.3-0.1
			c0-0.1,0.1-0.1,0.1-0.1c0.1,0,0.3,0,0.4,0c0.6-0.1,0.9-0.5,1.1-1.2L261.5,36.6z M263,41.9C263.1,41.9,263.1,41.9,263,41.9
			l-1.3-3.6c-0.1-0.2-0.2-0.2-0.2,0l-1.2,3.5c0,0.1,0,0.1,0,0.1H263z"/>
		<path class="st0" d="M269.7,42.4c0,1.9,0,2.7,0.3,2.9c0.2,0.2,0.7,0.3,1.8,0.3c0.7,0,1.3,0,1.6-0.4c0.2-0.2,0.3-0.5,0.3-0.7
			c0-0.1,0.1-0.2,0.1-0.2c0.1,0,0.1,0.1,0.1,0.2c0,0.1-0.1,0.9-0.2,1.3c-0.1,0.3-0.1,0.3-0.9,0.3c-1,0-1.7,0-2.3,0
			c-0.6,0-1.1,0-1.5,0c-0.1,0-0.3,0-0.5,0c-0.3,0-0.6,0-0.8,0c-0.1,0-0.2,0-0.2-0.1c0,0,0-0.1,0.1-0.1c0.1,0,0.3,0,0.4-0.1
			c0.3-0.1,0.3-0.3,0.3-0.7c0.1-0.5,0.1-1.6,0.1-2.8V40c0-2,0-2.4,0-2.8c0-0.4-0.1-0.7-0.5-0.7c-0.1,0-0.3,0-0.5,0
			c0,0-0.1-0.1-0.1-0.1c0-0.1,0.1-0.1,0.2-0.1c0.6,0,1.4,0,1.5,0c0.1,0,1.1,0,1.5,0c0.1,0,0.2,0,0.2,0.1c0,0-0.1,0.1-0.1,0.1
			c-0.1,0-0.3,0-0.4,0c-0.4,0.1-0.5,0.3-0.5,0.7c0,0.4,0,0.8,0,2.8V42.4z"/>
		<path class="st0" d="M275,45.9c-0.2-0.1-0.2-0.1-0.2-0.5c0-0.6,0.1-1.2,0.1-1.4c0-0.1,0-0.2,0.1-0.2c0.1,0,0.1,0,0.1,0.2
			c0,0.1,0,0.3,0,0.5c0.2,0.9,1.2,1.3,2.1,1.3c1.3,0,2-0.7,2-1.7c0-0.9-0.5-1.4-1.7-2.3l-0.6-0.5c-1.4-1.1-1.9-1.9-1.9-2.8
			c0-1.5,1.2-2.4,3-2.4c0.5,0,1.1,0.1,1.4,0.2c0.3,0.1,0.4,0.1,0.5,0.1s0.1,0,0.1,0.1c0,0.1-0.1,0.5-0.1,1.4c0,0.2,0,0.3-0.1,0.3
			s-0.1-0.1-0.1-0.2c0-0.2-0.1-0.5-0.2-0.6c-0.1-0.2-0.5-0.6-1.7-0.6c-1,0-1.8,0.5-1.8,1.4c0,0.8,0.4,1.3,1.7,2.2l0.4,0.3
			c1.6,1.1,2.2,2,2.2,3.1c0,0.8-0.3,1.6-1.2,2.2c-0.6,0.4-1.4,0.5-2.1,0.5C276.3,46.3,275.6,46.2,275,45.9z"/>
		<g>
			<path class="st0" d="M151.8,38.9c0-2.4,0-2.8,0-3.3c0-0.5-0.2-0.8-0.7-0.9c-0.1,0-0.4,0-0.5,0c-0.1,0-0.1,0-0.1-0.1
				c0-0.1,0.1-0.1,0.2-0.1c0.7,0,1.6,0,1.7,0c0.3,0,1.2,0,1.9,0c1.9,0,2.6,0.6,2.8,0.9c0.3,0.3,0.8,1,0.8,1.8c0,2.2-1.6,3.6-3.7,3.6
				c-0.1,0-0.2,0-0.3,0c-0.1,0-0.2,0-0.2-0.1c0-0.1,0.1-0.1,0.4-0.1c1.5,0,2.6-1.1,2.6-2.5c0-0.5,0-1.5-0.9-2.3
				c-0.8-0.8-1.7-0.8-2.1-0.8c-0.3,0-0.5,0-0.7,0.1c-0.1,0-0.1,0.1-0.1,0.3v6.3c0,1.5,0,2.7,0.1,3.3c0,0.4,0.1,0.8,0.6,0.8
				c0.2,0,0.5,0.1,0.7,0.1c0.1,0,0.1,0,0.1,0.1c0,0.1-0.1,0.1-0.2,0.1c-0.8,0-1.8,0-1.9,0c0,0-1,0-1.5,0c-0.2,0-0.2,0-0.2-0.1
				c0,0,0-0.1,0.1-0.1c0.1,0,0.3,0,0.5-0.1c0.3-0.1,0.4-0.4,0.4-0.8c0.1-0.6,0.1-1.8,0.1-3.3V38.9z"/>
			<path class="st0" d="M160.5,39.9c0-2,0-2.4,0-2.8c0-0.4-0.1-0.7-0.5-0.7c-0.1,0-0.3,0-0.5,0c0,0-0.1-0.1-0.1-0.1
				c0-0.1,0.1-0.1,0.2-0.1c0.6,0,1.5,0,1.6,0c0.1,0,1.3,0,1.7,0c0.9,0,1.8,0.1,2.5,0.6c0.3,0.2,0.9,0.9,0.9,1.8c0,1-0.4,1.9-1.6,3
				c1.1,1.4,2,2.5,2.8,3.3c0.7,0.7,1.2,0.9,1.5,0.9c0.3,0,0.4,0,0.5,0s0.1,0.1,0.1,0.1c0,0.1-0.1,0.1-0.3,0.1h-0.8
				c-0.8,0-1.1-0.1-1.4-0.3c-0.6-0.3-1.1-0.9-1.8-1.9c-0.6-0.7-1.2-1.5-1.4-1.9c-0.1-0.1-0.1-0.1-0.2-0.1l-1.7,0
				c-0.1,0-0.1,0-0.1,0.1v0.3c0,1.2,0,2.3,0.1,2.8c0,0.4,0.1,0.6,0.5,0.7c0.2,0,0.5,0.1,0.6,0.1c0.1,0,0.1,0.1,0.1,0.1
				c0,0.1-0.1,0.1-0.2,0.1c-0.7,0-1.6,0-1.6,0c0,0-0.9,0-1.3,0c-0.1,0-0.2,0-0.2-0.1c0,0,0-0.1,0.1-0.1c0.1,0,0.3,0,0.4-0.1
				c0.3-0.1,0.3-0.3,0.3-0.7c0.1-0.5,0.1-1.6,0.1-2.8V39.9z M161.7,41c0,0.1,0,0.1,0.1,0.2c0.2,0.1,0.9,0.2,1.5,0.2
				c0.3,0,0.7,0,1-0.2c0.5-0.3,0.8-1,0.8-2c0-1.6-0.9-2.5-2.3-2.5c-0.4,0-0.8,0-1,0.1c-0.1,0-0.1,0.1-0.1,0.2V41z"/>
			<path class="st0" d="M170.2,39.9c0-2,0-2.4,0-2.8c0-0.4-0.1-0.7-0.5-0.7c-0.1,0-0.3,0-0.5,0c0,0-0.1-0.1-0.1-0.1
				c0-0.1,0.1-0.1,0.2-0.1c0.6,0,1.5,0,1.6,0c0.1,0,2.9,0,3.2,0c0.3,0,0.5-0.1,0.6-0.1c0.1,0,0.1-0.1,0.2-0.1c0,0,0.1,0.1,0.1,0.1
				c0,0.1-0.1,0.2-0.1,0.6c0,0.1,0,0.7-0.1,0.9c0,0.1-0.1,0.1-0.1,0.1c-0.1,0-0.1-0.1-0.1-0.2c0-0.1,0-0.3-0.1-0.5
				c-0.1-0.2-0.2-0.3-1-0.4c-0.2,0-1.8,0-1.9,0c-0.1,0-0.1,0-0.1,0.1v3.5c0,0.1,0,0.1,0.1,0.1c0.2,0,1.9,0,2.2,0
				c0.3,0,0.5,0,0.7-0.2c0.1-0.1,0.2-0.2,0.2-0.2c0,0,0.1,0,0.1,0.1c0,0.1-0.1,0.3-0.1,0.7c0,0.3-0.1,0.7-0.1,0.8
				c0,0.1,0,0.2-0.1,0.2c-0.1,0-0.1,0-0.1-0.1c0-0.1,0-0.3-0.1-0.4c0-0.2-0.2-0.3-0.7-0.4c-0.4,0-1.8-0.1-2-0.1
				c-0.1,0-0.1,0-0.1,0.1v1.1c0,0.4,0,1.9,0,2.2c0,0.9,0.3,1,1.6,1c0.3,0,1,0,1.3-0.1c0.3-0.2,0.5-0.4,0.6-0.9
				c0-0.2,0.1-0.2,0.1-0.2s0.1,0.1,0.1,0.2c0,0.1-0.1,1-0.2,1.2c-0.1,0.3-0.2,0.3-0.7,0.3c-1,0-1.8,0-2.3,0c-0.6,0-0.9,0-1.1,0
				c0,0-0.3,0-0.6,0c-0.3,0-0.6,0-0.8,0c-0.1,0-0.2,0-0.2-0.1c0,0,0-0.1,0.1-0.1c0.1,0,0.3,0,0.4-0.1c0.3,0,0.3-0.3,0.3-0.7
				c0.1-0.5,0.1-1.6,0.1-2.8V39.9z"/>
		</g>
	</g>
</g>
</svg>
