<?xml version="1.0" encoding="utf-8"?>
<!-- Generator: Adobe Illustrator 21.1.0, SVG Export Plug-In . SVG Version: 6.00 Build 0)  -->
<svg version="1.1" id="Layer_1" xmlns="http://www.w3.org/2000/svg" xmlns:xlink="http://www.w3.org/1999/xlink" x="0px" y="0px"
	 viewBox="0 0 300 53.7" style="enable-background:new 0 0 300 53.7;" xml:space="preserve">
<style type="text/css">
	.st0{fill:#FFFFFF;}
</style>
<g>
	<path class="st0" d="M106.4,48.7c-0.1,0-0.1,0-0.2,0.2l-1.1,2.7c-0.2,0.5-0.3,1-0.3,1.2c0,0.3,0.2,0.6,0.8,0.6h0.3
		c0.2,0,0.3,0,0.3,0.2s-0.1,0.2-0.3,0.2c-0.6,0-1.5-0.1-2.1-0.1c-0.2,0-1.3,0.1-2.3,0.1c-0.3,0-0.4,0-0.4-0.2c0-0.1,0.1-0.2,0.2-0.2
		c0.2,0,0.4,0,0.6,0c0.9-0.1,1.3-0.8,1.7-1.7l4.9-12.1c0.2-0.6,0.3-0.8,0.5-0.8s0.3,0.2,0.5,0.6c0.5,1.1,3.6,8.9,4.8,11.8
		c0.7,1.8,1.3,2,1.7,2.1c0.3,0.1,0.6,0.1,0.8,0.1c0.2,0,0.3,0,0.3,0.2s-0.2,0.2-0.9,0.2c-0.7,0-2.1,0-3.7,0c-0.3,0-0.6,0-0.6-0.2
		c0-0.1,0.1-0.2,0.3-0.2c0.1,0,0.3-0.2,0.2-0.4l-1.6-4c0-0.1-0.1-0.1-0.2-0.1h-4.2V48.7z M110.4,47.7
		C110.5,47.7,110.5,47.6,110.4,47.7l-1.7-4.9c0-0.1,0-0.2-0.1-0.2s-0.1,0.1-0.1,0.2l-1.8,4.8c0,0.1,0,0.1,0.1,0.1H110.4z"/>
	<path class="st0" d="M123.7,48.8c0,2.1,0,3.2,0.4,3.5c0.3,0.2,1,0.3,2.3,0.3c0.9,0,1.6,0,2-0.5c0.2-0.2,0.4-0.7,0.4-1
		c0-0.2,0.1-0.3,0.2-0.3c0.1,0,0.2,0.2,0.2,0.4s-0.1,1.4-0.3,1.9c-0.1,0.4-0.2,0.4-1.1,0.4c-1.2,0-2.2,0-3.1-0.1c-0.9,0-1.6,0-2.3,0
		c-0.2,0-0.6,0-1,0s-0.8,0-1.2,0c-0.2,0-0.3-0.1-0.3-0.2c0-0.1,0.1-0.2,0.3-0.2c0.3,0,0.4,0,0.6-0.1c0.4-0.1,0.4-0.4,0.5-0.9
		c0.1-0.7,0.1-2,0.1-3.5v-2.9c0-2.5,0-3,0-3.5c0-0.6-0.2-0.7-0.7-0.9c-0.1,0-0.4-0.1-0.6-0.1s-0.3-0.1-0.3-0.2
		c0-0.1,0.1-0.2,0.4-0.2c0.8,0,1.9,0,2.4,0c0.4,0,1.8,0,2.5,0c0.3,0,0.4,0,0.4,0.2c0,0.1-0.1,0.2-0.3,0.2c-0.2,0-0.5,0-0.7,0.1
		c-0.5,0.1-0.6,0.3-0.6,0.9c0,0.5,0,1,0,3.5v3.2H123.7z"/>
	<path class="st0" d="M137,48.8c0,2.1,0,3.2,0.4,3.5c0.3,0.2,1,0.3,2.3,0.3c0.9,0,1.6,0,2-0.5c0.2-0.2,0.4-0.7,0.4-1
		c0-0.2,0.1-0.3,0.2-0.3c0.1,0,0.2,0.2,0.2,0.4s-0.1,1.4-0.3,1.9c-0.1,0.4-0.2,0.4-1.1,0.4c-1.2,0-2.2,0-3.1-0.1c-0.9,0-1.6,0-2.3,0
		c-0.2,0-0.6,0-1,0s-0.8,0-1.2,0c-0.2,0-0.3-0.1-0.3-0.2c0-0.1,0.1-0.2,0.3-0.2c0.3,0,0.4,0,0.6-0.1c0.4-0.1,0.4-0.4,0.5-0.9
		c0.1-0.7,0.1-2,0.1-3.5v-2.9c0-2.5,0-3,0-3.5c0-0.6-0.2-0.7-0.7-0.9c-0.1,0-0.4-0.1-0.6-0.1c-0.2,0-0.3-0.1-0.3-0.2
		c0-0.1,0.1-0.2,0.4-0.2c0.8,0,1.9,0,2.4,0c0.4,0,1.8,0,2.5,0c0.3,0,0.4,0,0.4,0.2c0,0.1-0.1,0.2-0.3,0.2s-0.5,0-0.7,0.1
		c-0.5,0.1-0.6,0.3-0.6,0.9c0,0.5,0,1,0,3.5v3.2H137z"/>
	<path class="st0" d="M145.6,42.7c-0.2-0.6-0.3-1-0.6-1.1c-0.2-0.1-0.5-0.1-0.7-0.1s-0.3-0.1-0.3-0.2c0-0.1,0.1-0.2,0.4-0.2
		c0.9,0,1.8,0,2,0s1,0,2,0c0.3,0,0.4,0,0.4,0.2c0,0.1-0.1,0.2-0.3,0.2c-0.1,0-0.3,0-0.4,0.1c-0.2,0.1-0.2,0.2-0.2,0.3
		c0,0.2,0.2,0.8,0.4,1.5c0.3,1.1,1.8,6.1,2.1,6.8h0.1l3.3-8.5c0.2-0.5,0.3-0.6,0.5-0.6s0.4,0.3,0.6,0.8l3.4,8.2h0.1
		c0.3-1,1.6-5.3,2.2-7.2c0.1-0.4,0.2-0.7,0.2-1s-0.2-0.5-0.8-0.5c-0.2,0-0.3-0.1-0.3-0.2c0-0.1,0.1-0.2,0.4-0.2c0.9,0,1.7,0,1.8,0
		s0.9,0,1.4,0c0.2,0,0.3,0,0.3,0.1s-0.1,0.2-0.2,0.2c-0.2,0-0.4,0-0.6,0.1c-0.4,0.2-0.6,0.8-1,1.7c-0.8,2.1-2.6,7.3-3.4,9.8
		c-0.2,0.6-0.3,0.8-0.5,0.8s-0.4-0.2-0.6-0.8l-3.5-8.2l0,0c-0.3,0.7-2.6,6.6-3.3,8.1c-0.3,0.7-0.4,0.9-0.7,0.9
		c-0.2,0-0.3-0.2-0.5-0.6L145.6,42.7z"/>
	<path class="st0" d="M168.3,45.9c0-2.5,0-3,0-3.5c0-0.6-0.2-0.8-0.6-0.9c-0.2-0.1-0.4-0.1-0.6-0.1c-0.2,0-0.3,0-0.3-0.2
		c0-0.1,0.1-0.1,0.4-0.1c0.6,0,1.8,0,2.3,0c0.4,0,1.5,0,2.2,0c0.2,0,0.3,0,0.3,0.1c0,0.2-0.1,0.2-0.3,0.2s-0.3,0-0.5,0.1
		c-0.5,0.1-0.6,0.3-0.6,0.9c0,0.5,0,1,0,3.5v2.9c0,1.6,0,2.9,0.1,3.6c0.1,0.4,0.2,0.7,0.7,0.8c0.2,0,0.6,0.1,0.9,0.1
		c0.2,0,0.3,0.1,0.3,0.2c0,0.1-0.1,0.2-0.3,0.2c-1.1,0-2.3-0.1-2.8-0.1c-0.4,0-1.6,0.1-2.2,0.1c-0.2,0-0.3-0.1-0.3-0.2
		c0-0.1,0.1-0.2,0.3-0.2c0.3,0,0.4,0,0.6-0.1c0.3-0.1,0.4-0.3,0.5-0.8c0.1-0.7,0.1-2,0.1-3.6v-2.9H168.3z"/>
	<path class="st0" d="M179.8,51.4c0,1.3,0.3,1.7,0.6,1.8s0.6,0.1,0.9,0.1c0.2,0,0.3,0.1,0.3,0.2c0,0.1-0.2,0.2-0.4,0.2
		c-1.1,0-1.9-0.1-2.2-0.1c-0.2,0-1,0.1-1.8,0.1c-0.2,0-0.4,0-0.4-0.2c0-0.1,0.1-0.2,0.3-0.2s0.5,0,0.8-0.1c0.4-0.1,0.5-0.6,0.5-2
		l0.2-9.8c0-0.3,0.1-0.6,0.3-0.6s0.4,0.3,0.7,0.5c0.2,0.2,2.8,2.8,5.3,5.3c1.2,1.1,3.4,3.5,3.7,3.7h0.1l-0.2-7.4
		c0-1-0.2-1.3-0.6-1.5c-0.3-0.1-0.7-0.1-0.9-0.1s-0.3-0.1-0.3-0.2c0-0.1,0.2-0.2,0.4-0.2c0.9,0,1.8,0,2.2,0c0.2,0,0.8,0,1.7,0
		c0.2,0,0.4,0,0.4,0.2c0,0.1-0.1,0.2-0.3,0.2s-0.3,0-0.5,0.1c-0.5,0.1-0.6,0.4-0.6,1.4l-0.2,10.4c0,0.4-0.1,0.5-0.3,0.5
		c-0.3,0-0.5-0.2-0.7-0.3c-1.1-1-3.2-3-5-4.8c-1.9-1.8-3.7-3.8-4-4.1h-0.1L179.8,51.4z"/>
	<path class="st0" d="M196.7,53.4c-0.3-0.1-0.3-0.2-0.3-0.6c0-0.9,0.1-1.9,0.1-2.2s0.1-0.4,0.2-0.4c0.2,0,0.2,0.2,0.2,0.3
		c0,0.2,0.1,0.6,0.2,0.9c0.4,1.2,1.7,1.6,2.7,1.6c1.5,0,2.4-0.9,2.4-2.1c0-0.7-0.2-1.4-1.7-2.3l-1-0.6c-2-1.2-2.7-2.3-2.7-3.8
		c0-2,1.9-3.3,4.3-3.3c1.1,0,2,0.2,2.4,0.3c0.2,0,0.2,0.1,0.2,0.2c0,0.2-0.1,0.7-0.1,2c0,0.4-0.1,0.5-0.2,0.5
		c-0.1,0-0.2-0.1-0.2-0.3s-0.1-0.7-0.4-1.1c-0.3-0.3-0.8-0.8-1.9-0.8c-1.2,0-2.3,0.6-2.3,1.8c0,0.7,0.3,1.3,1.8,2.2l0.7,0.4
		c2.3,1.2,3,2.5,3,4c0,1.2-0.5,2.2-1.7,3.1c-0.8,0.6-1.9,0.7-2.9,0.7C198.5,53.8,197.4,53.8,196.7,53.4"/>
	<path class="st0" d="M209.1,52.4c0-0.5,0.3-1.2,1.2-1.2c0.7,0,1.2,0.4,1.2,1.1s-0.5,1.2-1.2,1.2C209.5,53.6,209.1,52.9,209.1,52.4"
		/>
	<path class="st0" d="M218.3,52.1c-1.7-1.4-2.1-3.3-2.1-4.9c0-1.1,0.4-3.1,2-4.5c1.2-1.1,2.9-1.8,5.4-1.8c1.1,0,1.7,0.1,2.5,0.2
		c0.6,0.1,1.2,0.2,1.7,0.3c0.2,0,0.3,0.1,0.3,0.2c0,0.1,0,0.3-0.1,0.9c0,0.5,0,1.5-0.1,1.8c0,0.2-0.1,0.4-0.2,0.4
		c-0.1,0-0.2-0.1-0.2-0.3c0-0.5-0.2-1.1-0.7-1.5c-0.6-0.6-1.7-1-3.3-1c-1.5,0-2.5,0.3-3.2,0.9c-1.3,1.1-1.6,2.7-1.6,4.3
		c0,3.9,3,5.8,5.3,5.8c1.5,0,2.4-0.1,3-0.9c0.3-0.3,0.5-0.8,0.6-1.1c0-0.3,0.1-0.3,0.2-0.3c0.1,0,0.2,0.2,0.2,0.3
		c0,0.2-0.2,1.6-0.4,2.2c-0.1,0.3-0.2,0.4-0.4,0.5c-0.7,0.3-2,0.4-3.1,0.4C221.9,53.8,219.9,53.4,218.3,52.1"/>
	<path class="st0" d="M232.4,47.4c0-2.8,2-6.5,7.2-6.5c4.3,0,7,2.4,7,6.2s-2.8,6.8-7.2,6.8C234.5,53.8,232.4,50.3,232.4,47.4
		 M244.1,47.7c0-3.7-2.2-5.9-5-5.9c-1.9,0-4.1,1-4.1,5.1c0,3.4,1.9,6.1,5.2,6.1C241.3,53,244.1,52.4,244.1,47.7"/>
	<path class="st0" d="M253.5,41.3c0-0.3,0.2-0.4,0.3-0.4c0.2,0,0.3,0.1,0.5,0.5l4.6,9.2l4.6-9.3c0.1-0.3,0.3-0.4,0.4-0.4
		s0.3,0.2,0.4,0.5l1.6,10.2c0.2,1,0.3,1.5,0.8,1.6s0.8,0.2,1,0.2s0.3,0.1,0.3,0.2c0,0.1-0.2,0.2-0.4,0.2c-0.4,0-2.9-0.1-3.5-0.1
		c-0.4,0-0.5-0.1-0.5-0.2c0-0.1,0.1-0.1,0.2-0.2c0.1,0,0.1-0.2,0.1-0.7l-1-7.1h-0.1l-3.7,7.3c-0.4,0.8-0.5,0.9-0.7,0.9
		s-0.4-0.3-0.7-0.8c-0.4-0.8-1.8-3.3-2-3.8c-0.1-0.3-1.2-2.3-1.7-3.5h0l-0.8,6.4c0,0.3-0.1,0.5-0.1,0.8s0.2,0.4,0.5,0.5
		s0.4,0.1,0.6,0.1c0.2,0,0.3,0.1,0.3,0.2c0,0.2-0.2,0.2-0.4,0.2c-0.7,0-1.5-0.1-1.8-0.1s-1.1,0.1-1.7,0.1c-0.2,0-0.3,0-0.3-0.2
		c0-0.1,0.1-0.2,0.3-0.2c0.1,0,0.3,0,0.5,0c0.5-0.1,0.6-0.7,0.7-1.3L253.5,41.3z"/>
	<polygon class="st0" points="60.9,0 45.1,42.2 38.2,7 32.1,11 41.3,53.7 47.2,53.7 60.9,16.3 65.8,29.8 70,24.3 	"/>
	<polygon class="st0" points="89.5,11 83.5,7 76.7,42.2 73.2,33 69,38.6 74.6,53.7 80.6,53.7 	"/>
	<polygon class="st0" points="38.2,7 41.3,23 48.6,33 51.8,24.3 	"/>
	<polygon class="st0" points="70,24.3 65.8,29.8 60.9,36.2 56,29.8 52.7,38.6 60.9,50 69,38.6 73.2,33 80.4,23 83.5,7 	"/>
	<path class="st0" d="M109.5,30.1c-2.3,0.8-4.6,1.3-7.1,1.7l-0.2-1.9l1.7-0.2c0.5-0.1,1-0.2,1.4-0.3v-6.7h-2.8V21h2.8v-1.9h-1.8
		v-0.9l-0.7,0.7l-0.7-2c1.6-1.4,2.8-3,3.4-4.7h1.5c1.1,1.1,2,2.5,2.9,4l-1.5,1.2l-1-1.9c-0.2-0.4-0.4-0.7-0.6-1
		c-0.1-0.1-0.2-0.2-0.3-0.4c-0.1,0.2-0.2,0.4-0.3,0.6c-0.5,0.9-1.2,1.8-1.9,2.7h4.8v1.7h-2V21h2.5v1.7H107v6.4l1.2-0.3
		c0.3-0.1,0.7-0.2,1.2-0.4L109.5,30.1z M103.1,28.6c-0.1-1.7-0.3-3.1-0.6-4.4l1.4-0.2c0.2,0.8,0.4,2,0.7,3.9c0,0.1,0,0.3,0,0.4
		L103.1,28.6z M109.3,24l-0.1,1.8c-0.1,0.9-0.2,1.5-0.3,2l-1.4-0.2c0-0.1,0-0.3,0-0.4c0.2-1.2,0.3-2.1,0.3-2.5s0-0.7,0-0.8L109.3,24
		z M117,12.1v1.1h5.3v1.5H117v0.9h4.4V17h-10.5v-1.4h4.3v-0.9h-5.4v-1.5h5.4v-1.1H117z M120.8,27.8v1.9V30c0,0.8-0.2,1.4-0.5,1.8
		c-0.3,0.3-0.9,0.5-1.9,0.5h-1.1l-0.5-1.6h1.5c0.5,0,0.7-0.2,0.7-0.7v-2.2h-3.6v-1.4h3.6v-1h-9.3v-1.5h12.6v1.5h-1.6v1h1.6v1.4
		C122.3,27.8,120.8,27.8,120.8,27.8z M119.8,20.6c0.3-0.5,0.5-0.9,0.6-1.5V19H110v-1.5h12.4c0,1.2-0.3,2.4-0.9,3.6L119.8,20.6z
		 M119.2,19.8V21h-2.9v0.8h5v1.3h-11.1v-1.3h4.4V21h-3.7v-1.3L119.2,19.8L119.2,19.8z M110.3,26.2h4.6v5.6h-1.6v-0.9h-1.4v1.2h-1.6
		V26.2z M113.3,27.6h-1.4v2h1.4V27.6z M116.7,30.5c-0.1-0.3-0.3-0.6-0.5-1l-0.6-0.9l1.2-0.7c0.2,0.2,0.5,0.5,0.7,0.8l0.6,0.9
		L116.7,30.5z"/>
	<path class="st0" d="M126.4,19.4v-1.9h2.3v-5.3h2v5.3h1.7v1.9h-1.7v13h-2v-13C128.7,19.4,126.4,19.4,126.4,19.4z M140.1,12.1V14
		h3.1c-0.1-0.1-0.1-0.1-0.1-0.2c-0.1-0.1-0.2-0.3-0.3-0.4l-0.7-0.6l1.4-0.8l0.7,0.6c0.1,0.1,0.3,0.3,0.6,0.6l0.1,0.1l-1.1,0.6h2.9
		v1.7h-6.6v0.9h5.7V23v0.5c0,0.7-0.1,1.1-0.3,1.3c-0.2,0.2-0.6,0.4-1.3,0.5V26h2.5v1.8h-2.5v2.1v0.5c0,1.2-0.7,1.8-2,1.8h-2.3
		l-0.5-1.9l2.2,0.1c0.4,0,0.7-0.2,0.7-0.6v-2H136c0.1,0.1,0.3,0.2,0.4,0.3c0.3,0.2,0.5,0.5,0.8,0.8l1.2,1.4l-1.6,1.4
		c-0.6-0.8-1.3-1.6-2-2.4l-0.4-0.4l1.4-1.1H132V26h10.3v-0.6h-0.6l-0.4-1.5h2.1c0.2,0,0.4,0,0.5-0.1c0.1,0,0.1-0.2,0.1-0.5V23h-3.8
		v1.9h-1.9V23H135v2.3h-1.8v-8.7h5.1v-0.9h-5.7V14h5.7v-1.9H140.1z M138.2,18.2h-3.3v1h3.3V18.2z M138.2,20.6h-3.3v1.1h3.3V20.6z
		 M143.9,18.2h-3.8v1h3.8V18.2z M143.9,20.6h-3.8v1.1h3.8V20.6z"/>
	<path class="st0" d="M155.8,18.6h-3.9v-2h3.9v-4.3h2.2v4.3h5.6v-4.3h2.2v4.3h4.1v2h-4.1v4.7h5v2h-20.3v-2h5.2v-4.7H155.8z
		 M157.3,25.8l1.7,1.3c-1.9,2.2-4.2,4-6.7,5.2l-1.5-1.8C153.5,29.3,155.6,27.7,157.3,25.8 M163.6,18.6H158v4.7h5.6V18.6z
		 M168.8,32.3c-1.7-1.9-3.7-3.6-6-5.2l1.6-1.3c2.4,1.6,4.4,3.2,6.2,4.8L168.8,32.3z"/>
	<path class="st0" d="M176.3,32.4l-1.5-1.2c0.7-1,1.1-2.5,1.1-4.4v-4.2h5v7.9c0,0.7-0.1,1.1-0.3,1.4c-0.2,0.2-0.6,0.4-1.2,0.4H178
		l-0.3-1.5l1.2,0.1c0.3,0,0.4-0.2,0.4-0.5v-1.1h-1.9C177.3,30.6,176.9,31.7,176.3,32.4 M175.1,13.4h9l-0.4-0.5l-0.5-0.6l2.3-0.2
		l0.5,0.6l0.5,0.7h8.5V15h-15.3v0.5c0,0.4,0.2,0.6,0.6,0.6H193v1.4h-13h-0.3c-0.8,0-1.3-0.1-1.6-0.4s-0.5-0.8-0.5-1.4V15H175v-1.6
		H175.1z M176.8,18.2h16.7v3.6h-16.7V18.2z M177.5,25.3h1.9V24h-1.9V25.3z M177.5,27.9h1.9v-1.4h-1.9V27.9z M191.6,19.5h-12.9v1
		h12.9V19.5z M184.4,30.4c-0.6,0.7-1.3,1.3-2.1,1.9c-0.1,0-0.1,0.1-0.2,0.2l-1-1.2c0.8-0.4,1.5-0.9,2-1.5l0.2-0.2L184.4,30.4z
		 M181.9,22.6h5.6v6.8h-5.6V22.6z M186,23.7h-2.6v0.8h2.6V23.7z M183.4,26.4h2.6v-0.9h-2.6V26.4z M183.4,28.2h2.6v-0.9h-2.6V28.2z
		 M187.8,31.3l-0.8,0.9l-0.9-0.9c-0.4-0.4-0.7-0.7-1-0.9l1-0.9l1,0.9l0.6,0.6c0.6-0.5,1.1-1.3,1.3-2.3l-0.7-0.8
		c-0.2-0.3-0.5-0.5-0.8-0.8l0.7-1.3l0.5,0.4l0.5,0.4v-1.1v-1.2H188v-1.6h5.3c0,1.8-0.1,3.2-0.1,4.4c0,2.3,0.1,3.4,0.3,3.4
		c0.1,0,0.1-0.2,0.2-0.5l0.2-2l1.2,0.9c-0.2,1.4-0.4,2.4-0.6,2.8c-0.2,0.5-0.6,0.7-1,0.7c-1.2,0-1.7-1.5-1.7-4.6c0-1.9,0-3.1,0-3.6
		h-1.1v1.9c0,0.8,0,1.4-0.1,1.7l0.6,0.7l0.5,0.7L191,31l-0.4-0.7l-0.3-0.6c-0.3,0.9-0.8,1.8-1.5,2.6L187.8,31.3z"/>
	<path class="st0" d="M219.1,13.6v1.8h-19.6v-1.8h8.8l-0.4-0.6l-0.6-0.7l2.1-0.2c0.3,0.3,0.5,0.6,0.6,0.8l0.4,0.7H219.1z
		 M214.6,16.3c-0.1,0.1-0.1,0.2-0.2,0.3c-0.5,0.9-0.8,1.4-1.1,1.7h5.1v11.1c0,1-0.1,1.7-0.4,2.1c-0.3,0.4-0.9,0.6-1.8,0.6h-1.7
		l-0.5-1.9l1.5,0.1c0.5,0,0.7-0.2,0.7-0.7v-9.5h-4v1.2c0,0.4,0.2,0.7,0.5,0.7h2.9v1.7H213h-0.6c-0.6,0-1.1-0.2-1.4-0.5
		c-0.3-0.3-0.5-1-0.5-2.1v-1h-2.3c-0.1,1.3-0.5,2.2-1.1,2.8c-0.6,0.6-1.5,1.1-2.8,1.5c-0.2,0.1-0.4,0.1-0.7,0.2l-1.1-1.6
		c1-0.1,1.8-0.4,2.5-0.9s1.1-0.9,1.1-1.3s0.1-0.6,0.1-0.8h-4.1v12.3h-2v-14h5c-0.2-0.3-0.4-0.6-0.7-1l-0.8-1l1.9-0.8
		c0.1,0.1,0.1,0.2,0.2,0.2c0.5,0.6,0.9,1.4,1.4,2.2c0,0.1,0.1,0.1,0.1,0.2h3.5c0.8-0.9,1.4-1.8,1.8-2.7L214.6,16.3z M214.5,30h-10.3
		v-5.4h10.3V30z M212.4,26.3h-6.3v1.9h6.3V26.3z"/>
	<path class="st0" d="M227.9,18.6l1.1,1.3l1,1.2l-0.9,1.7l-0.6-1l-0.6-0.9v11.6H226V22l-0.8,2.2c-0.2,0.7-0.6,1.4-1,2.1l-0.9-2.2
		c1-1.5,1.8-3.4,2.6-5.8h-2.3v-1.8h2.4v-4.3h1.9v4.3h1.5v1.8h-1.5V18.6z M233.4,21.4v1.7h2.8c-0.3-1.8-0.4-3.5-0.4-5.1
		c0-2.4,0-4.3-0.2-5.8h1.8c0,0.4,0,0.7,0,1c0.1,1.7,0.1,3.5,0.1,5.2c0,1.7,0.2,3.3,0.5,4.7h2.1l-0.2-0.7l-0.3-0.7l-0.7,0.1h-0.5
		l-0.4-1.6h0.6c0.1-0.1,0.1-0.2,0.2-0.2c0.3-0.4,0.6-0.7,0.7-1l0.9-1.3l-1.2,0.2l-1,0.1l-0.4-1.5h0.5c0.5-1.1,1-2.3,1.3-3.5
		c0-0.2,0.1-0.4,0.1-0.6l1.5,0.4c-0.4,1.6-0.9,2.9-1.3,3.7h0.6l0.6-0.1c0.1-0.1,0.2-0.4,0.4-0.8l0.4-0.8l1.5,0.6l-1.3,2.6
		c-0.4,0.7-0.9,1.5-1.5,2.3l1.1-0.1L242,20l-0.2-0.7l-0.2-0.6l1.2-0.2c0.2,0.5,0.3,1,0.4,1.5l0.3,1.8l-1.2,0.3l-0.1-0.4l-0.1-0.4
		l-1.3,0.1l0.4,0.7l0.3,0.8h2.1v1.7h-5.5c0,0.1,0.1,0.3,0.1,0.4c0.2,1,0.5,1.6,0.7,2l0.2-0.2c0.3-0.4,0.7-1,1.1-1.8l1.5,1l-1,1.4
		c-0.3,0.4-0.6,0.8-1,1.2c0.3,0.4,0.6,0.8,0.9,1.1c0.4,0.3,0.6,0.4,0.6,0.4c0.3,0,0.5-0.9,0.6-2.8l1.6,1c-0.2,1.4-0.4,2.4-0.7,3
		s-0.7,0.9-1.2,0.9c-0.8,0-1.8-0.8-3.2-2.4c-1.1,0.9-2.4,1.7-4,2.4l-1-1.8c1.6-0.6,3-1.3,4.1-2.2c-0.4-1-0.7-1.6-0.8-1.9l-0.5-1.7
		h-3.2l-0.1,0.7c0.9,0.6,1.9,1.4,2.9,2.3l-1,1.6l-1.1-1.2c-0.3-0.3-0.6-0.6-1-0.9c-0.6,1.9-1.6,3.6-3.1,5.1l-1.3-1.7
		c1.7-1.4,2.7-3.4,3-6H229v-1.7h2.3v-1.5l-1.3,0.2l-0.4-1.6h0.9c0.4-0.5,0.7-0.9,0.9-1.2l0.7-1.2l-1.3,0.2l-1.1,0.1l-0.4-1.5h0.6
		c0.4-0.8,0.9-2.1,1.3-3.8c0-0.1,0-0.2,0.1-0.3l1.5,0.3c-0.5,1.7-1,3-1.4,3.7l0.7-0.1h0.5l0.4-0.9l0.4-0.9l1.5,0.6l-1.3,2.6
		c-0.3,0.6-0.8,1.4-1.5,2.4l1-0.1l0.7-0.1l-0.2-0.7l-0.2-0.6l1.2-0.2c0.2,0.5,0.3,1,0.4,1.6l0.3,1.8l-1.2,0.3l-0.2-0.8L233.4,21.4z"
		/>
	<path class="st0" d="M248.2,12.6h19.1v19.8h-2.1v-0.9h-15v0.9h-2L248.2,12.6L248.2,12.6z M250.2,29.8h15V14.4h-15L250.2,29.8
		L250.2,29.8z M253.6,17.2l-0.5-0.8c-0.2-0.4-0.4-0.7-0.7-1l1.6-0.5l0.6,1.1c0.2,0.3,0.3,0.6,0.5,0.9c0,0.1,0.1,0.2,0.2,0.4h0.8
		c0.2-0.5,0.5-1.2,0.8-2.4c0-0.1,0-0.1,0.1-0.2l1.9,0.2l-0.4,1.3c-0.1,0.3-0.2,0.6-0.4,1.1h1.7c0.3-0.4,0.5-0.8,0.7-1.2l0.6-1.2
		l1.7,0.5l-0.6,1.1c-0.1,0.2-0.3,0.5-0.5,0.7h2.1v1.5h-6.3l-0.3,0.5l-0.3,0.4h7.3v1.5h-2c0.6,0.8,1.6,1.7,3,2.6l-1.1,1.4
		c-1.1-0.8-2.1-1.6-2.8-2.5v0.2c0,0.2,0,0.3,0,0.5c0,0.1,0,0.3,0,0.4c0,1.2-0.2,1.9-0.7,2.2c-0.4,0.3-1.4,0.5-2.9,0.5h-0.4h-0.2
		l-0.4-1.5c0.4,0.1,0.9,0.1,1.5,0.1c0.5,0,0.8-0.1,1-0.2s0.3-0.5,0.3-1h-4.4v2.6c0,0.5,0.2,0.8,0.8,0.8h5.3c0.5,0,0.8-0.5,0.9-1.6
		c0-0.1,0-0.2,0-0.3l1.8,0.8c-0.1,1-0.4,1.7-0.8,2.1s-1.1,0.6-2.1,0.6h-5.3h-0.3c-0.7,0-1.2-0.2-1.6-0.5c-0.4-0.4-0.6-1-0.6-2v-2.5
		c-0.4,0.3-0.7,0.6-1.1,0.8l-1.2,0.8l-0.9-1.6c1.2-0.6,2.3-1.3,3.3-2.2c0.1-0.1,0.1-0.1,0.2-0.2H251v-1.5h3.6
		c0.1-0.1,0.2-0.2,0.3-0.5l0.3-0.5h-3.7v-1.5h2.1V17.2z M260.2,21.3h-4.4l-0.5,0.7l-0.4,0.4h6.2l-0.1-0.1c-0.1-0.1-0.3-0.3-0.3-0.4
		L260.2,21.3z"/>
</g>
</svg>
