<?xml version="1.0" encoding="utf-8"?>
<!-- Generator: Adobe Illustrator 18.1.1, SVG Export Plug-In . SVG Version: 6.00 Build 0)  -->
<svg version="1.1" id="Layer_1" xmlns="http://www.w3.org/2000/svg" xmlns:xlink="http://www.w3.org/1999/xlink" x="0px" y="0px"
	 viewBox="-640.2 -45.6 300 53.7" style="enable-background:new -640.2 -45.6 300 53.7;" xml:space="preserve">
<style type="text/css">
	.st0{display:none;}
	.st1{display:inline;}
	.st2{fill:#D19113;}
	.st3{fill:#B5B7B7;}
	.st4{fill:#464646;}
	.st5{fill:#FFFFFF;}
	.st6{clip-path:url(#SVGID_2_);}
	.st7{fill:none;}
	.st8{fill:#395D76;}
	.st9{fill:#FFDA48;}
	.st10{fill:#735744;}
	.st11{fill:#466A7D;}
	.st12{fill:url(#XMLID_57_);}
	.st13{fill:url(#XMLID_58_);}
	.st14{fill:#009BA7;}
	.st15{fill:#008BB3;}
	.st16{clip-path:url(#SVGID_4_);}
	.st17{fill:#B18642;}
</style>
<g id="XMLID_76_">
	<g id="XMLID_84_">
		<g>
			<path id="XMLID_93_" class="st5" d="M-505.7-11.6v2c-1.7-1.2-3.3-1.7-4.7-1.7c-1,0-1.9,0.3-2.6,0.9c-0.7,0.6-1.1,1.3-1.1,2.1
				c0,0.6,0.2,1.1,0.6,1.6c0.4,0.5,1.7,1.1,3.6,1.9c2,0.7,3.2,1.5,3.9,2.4c0.6,0.9,0.9,1.7,0.9,2.7c0,1.3-0.6,2.5-1.7,3.4
				c-1.1,0.9-2.5,1.3-4,1.3c-1.7,0-3.5-0.6-5.2-1.6V1.5c2.1,1,3.9,1.6,5.5,1.6c1,0,2-0.3,2.6-0.9c0.7-0.6,1-1.3,1-2.1
				c0-0.6-0.2-1.1-0.6-1.7c-0.5-0.5-1.7-1.1-3.6-1.9s-3.2-1.5-3.8-2.3c-0.6-0.7-0.9-1.6-0.9-2.5c0-1.3,0.6-2.5,1.7-3.3
				c1.1-0.9,2.4-1.3,4-1.3C-508.8-13.1-507.3-12.6-505.7-11.6z"/>
			<path id="XMLID_92_" class="st5" d="M-493.5-13.1c2.5,0,4.6,0.9,6.3,2.5c1.7,1.7,2.5,3.8,2.5,6.4c0,2.5-0.9,4.7-2.5,6.3
				c-1.7,1.7-3.8,2.5-6.3,2.5c-2.5,0-4.6-0.9-6.3-2.5c-1.7-1.7-2.5-3.8-2.5-6.3s0.9-4.7,2.5-6.4C-498.1-12.2-496-13.1-493.5-13.1z
				 M-493.5,3c2,0,3.6-0.7,4.9-2.1c1.3-1.3,2-3,2-5.1s-0.6-3.7-2-5.1c-1.3-1.3-2.9-2.1-4.8-2.1c-2,0-3.6,0.7-4.9,2.1s-2,3.1-2,5.1
				s0.6,3.7,2,5.1C-497,2.3-495.4,3-493.5,3z"/>
			<path id="XMLID_91_" class="st5" d="M-478.5-21.6v26h-1.9v-26H-478.5z"/>
			<path id="XMLID_90_" class="st5" d="M-461.2,4.4V1.6h-0.1c-0.8,1.1-1.7,2-2.5,2.5c-0.8,0.5-1.9,0.7-3.2,0.7
				c-1.8,0-3.4-0.6-4.6-1.8c-1.2-1.2-1.8-2.8-1.8-5.1v-10.6h1.8v10.6c0,1.6,0.5,2.8,1.3,3.7c0.9,0.9,2.1,1.3,3.4,1.3
				c1.2,0,2.2-0.2,3.1-0.8s1.7-1.5,2.5-2.8v-12h1.8l0,17.2L-461.2,4.4L-461.2,4.4z"/>
			<path id="XMLID_89_" class="st5" d="M-451.1-18.4v5.7l4.8,0v1.5l-4.8,0v10.2c0,1.7,0.2,2.7,0.4,3.2s1,0.8,2.1,0.8
				c0.9,0,2-0.3,3.2-0.9V4c-1.2,0.6-2.4,0.9-3.6,0.9c-1.1,0-2.1-0.3-2.8-0.9c-0.8-0.6-1.1-1.5-1.1-2.7l0-12.3l-4.7,0v-1.5l4.7,0
				v-4.1l1.3-1.6H-451.1z"/>
			<path id="XMLID_88_" class="st5" d="M-440.7-12.7l0,17.2l-1.9,0l0-17.2H-440.7z"/>
			<path id="XMLID_87_" class="st5" d="M-427.6-13.1c2.5,0,4.6,0.9,6.3,2.5c1.7,1.7,2.5,3.8,2.5,6.4c0,2.5-0.9,4.7-2.5,6.3
				c-1.7,1.7-3.8,2.5-6.3,2.5c-2.5,0-4.6-0.9-6.3-2.5c-1.7-1.7-2.5-3.8-2.5-6.3c0-2.5,0.9-4.7,2.5-6.4
				C-432.2-12.2-430.1-13.1-427.6-13.1z M-427.6,3c2,0,3.6-0.7,4.9-2.1c1.3-1.3,2-3,2-5.1s-0.6-3.7-2-5.1c-1.3-1.3-2.9-2.1-4.8-2.1
				c-2,0-3.6,0.7-4.9,2.1s-2,3.1-2,5.1s0.6,3.7,2,5.1C-431.2,2.3-429.6,3-427.6,3z"/>
			<path id="XMLID_86_" class="st5" d="M-413-12.7v3h0.1c1.4-2.2,3.3-3.3,5.7-3.3c2,0,3.5,0.6,4.7,1.9c1.2,1.3,1.7,2.9,1.7,5.1
				l0,10.4h-1.8l0-9.7c0-4-1.6-5.9-4.7-5.9c-2.3,0-4.2,1.2-5.7,3.6l0,12h-1.8l0-17.2H-413z"/>
			<path id="XMLID_85_" class="st5" d="M-386.4-11.6v2c-1.7-1.2-3.3-1.7-4.7-1.7c-1,0-1.9,0.3-2.6,0.9c-0.7,0.6-1.1,1.3-1.1,2.1
				c0,0.6,0.2,1.1,0.6,1.6c0.4,0.5,1.7,1.1,3.6,1.9c2,0.7,3.2,1.5,3.9,2.4c0.6,0.9,0.9,1.7,0.9,2.7c0,1.3-0.6,2.5-1.7,3.4
				c-1.1,0.9-2.5,1.3-4,1.3c-1.7,0-3.5-0.6-5.2-1.6V1.5c2.1,1,3.9,1.6,5.5,1.6c1,0,2-0.3,2.6-0.9c0.7-0.6,1-1.3,1-2.1
				c0-0.6-0.2-1.1-0.6-1.7c-0.5-0.5-1.7-1.1-3.6-1.9s-3.2-1.5-3.8-2.3c-0.6-0.7-0.9-1.6-0.9-2.5c0-1.3,0.6-2.5,1.7-3.3
				c1.1-0.9,2.4-1.3,4-1.3C-389.6-13.1-388-12.6-386.4-11.6z"/>
		</g>
	</g>
	<g id="XMLID_80_">
		<g>
			<path id="XMLID_83_" class="st5" d="M-573.6,1.3c-2.5,2.5-6,3.8-10.4,3.8c-3.5,0-6.5-1-9-3v2.5l-4.9,0v-45l4.9,2.8v18.6
				c2.4-1.9,5.4-2.8,9-2.8c4.4,0,7.9,1.3,10.4,4c2.3,2.5,3.5,5.6,3.5,9.7C-570-4.2-571.2-1.1-573.6,1.3z M-577.1-14.7
				c-1.5-1.7-3.7-2.6-6.6-2.6c-6.2,0-9.2,3.1-9.2,9.2c0,2.6,0.9,4.7,2.5,6.3c1.7,1.7,4,2.5,6.7,2.5c2.8,0,5-0.9,6.6-2.5
				c1.5-1.6,2.2-3.7,2.2-6.3C-574.9-10.9-575.7-13.1-577.1-14.7z"/>
			<path id="XMLID_82_" class="st5" d="M-564.2,4.7v-25.9l4.9,0l0,25.9L-564.2,4.7z M-558.4-28.3c0,2.1-1.7,3.7-3.7,3.7
				c-2.1,0-3.7-1.7-3.7-3.7s1.7-3.7,3.7-3.7C-560-32-558.4-30.3-558.4-28.3z"/>
			<path id="XMLID_81_" class="st5" d="M-528.3,1.3c-2.5,2.5-6,3.8-10.4,3.8c-3.5,0-6.5-1-9-3v2.5l-4.9,0l0-45l4.9,2.8v18.6
				c2.4-1.9,5.4-2.8,9-2.8c4.4,0,7.9,1.3,10.4,4c2.3,2.5,3.5,5.6,3.5,9.7C-524.7-4.2-525.9-1.1-528.3,1.3z M-531.9-14.7
				c-1.5-1.7-3.7-2.6-6.6-2.6c-6.2,0-9.2,3.1-9.2,9.2c0,2.6,0.9,4.7,2.5,6.3c1.7,1.7,4,2.5,6.7,2.5c2.8,0,5-0.9,6.6-2.5
				c1.5-1.6,2.2-3.7,2.2-6.3C-529.6-10.9-530.4-13.1-531.9-14.7z"/>
		</g>
	</g>
	<ellipse id="XMLID_79_" class="st5" cx="-441.2" cy="-19" rx="3.7" ry="3.7"/>
	<ellipse id="XMLID_78_" class="st5" cx="-433.8" cy="-27.5" rx="4.5" ry="4.4"/>
	<ellipse id="XMLID_77_" class="st5" cx="-445.5" cy="-33.8" rx="6.5" ry="6.4"/>
</g>
</svg>
