<?xml version="1.0" encoding="utf-8"?>
<!-- Generator: Adobe Illustrator 18.1.1, SVG Export Plug-In . SVG Version: 6.00 Build 0)  -->
<svg version="1.1" id="Layer_1" xmlns="http://www.w3.org/2000/svg" xmlns:xlink="http://www.w3.org/1999/xlink" x="0px" y="0px"
	 viewBox="-291.5 275.1 300 53.7" style="enable-background:new -291.5 275.1 300 53.7;" xml:space="preserve">
<style type="text/css">
	.st0{fill:#FFFFFF;}
</style>
<g>
	<g id="XMLID_7702_">
		<g id="XMLID_9637_">
			<polygon id="XMLID_9643_" class="st0" points="-218.6,308.2 -239.3,328.8 -239.3,318.6 -228.9,308.2 			"/>
			<polygon id="XMLID_9642_" class="st0" points="-229.1,295.7 -218.6,306.2 -228.9,306.2 -239.3,295.7 			"/>
			<polygon id="XMLID_9639_" class="st0" points="-261.8,306.2 -230.8,275.1 -230.8,285.4 -251.6,306.2 			"/>
			<polygon id="XMLID_9638_" class="st0" points="-241.2,328.8 -261.9,308.1 -251.6,308.2 -241.2,318.6 			"/>
		</g>
		<g id="XMLID_7703_">
			<g id="XMLID_7704_">
				<g>
					<polygon id="XMLID_129_" class="st0" points="-245,301.6 -236.3,301.6 -234.9,304.6 -238.7,304.6 -240.6,302.5 -242.6,304.6 
						-246.4,304.6 					"/>
					<path id="XMLID_120_" class="st0" d="M-235.4,310.7v-5.8h-3.3v5.8h-0.3V305l-1.7-1.8l-1.7,1.8v5.8h-0.3v-5.8h-3.3v5.8h-0.4v0.5
						h11.4v-0.5H-235.4z M-237.4,306.2h0.7v1.4h-0.7V306.2z M-237.4,308.4h0.7v1.4h-0.7V308.4z M-244.6,306.2h0.7v1.4h-0.7V306.2z
						 M-244.6,308.4h0.7v1.4h-0.7V308.4z M-241.7,306.4h0.7v0.7h-0.7V306.4z M-239.6,310.7h-2.2v-2.3h2.2V310.7z M-239.6,307h-0.7
						v-0.7h0.7V307z"/>
				</g>
			</g>
		</g>
	</g>
	<g id="XMLID_1141_">
		<g id="XMLID_8116_">
			<path id="XMLID_8208_" class="st0" d="M-202.3,302.2c-2.1,0.7-4.3,1.2-6.5,1.6l-0.3-1.7l1.6-0.2c0.4-0.1,0.9-0.2,1.3-0.3v-6.2
				h-2.6v-1.6h2.6v-1.7h-1.7v-0.8l-0.6,0.6l-0.7-1.8c1.5-1.3,2.5-2.7,3.1-4.3h1.4c1,1,1.8,2.3,2.6,3.7l-1.4,1l-1-1.7
				c-0.2-0.3-0.3-0.6-0.5-0.9c-0.1-0.1-0.2-0.3-0.3-0.3c-0.1,0.2-0.2,0.3-0.3,0.5c-0.4,0.9-1,1.7-1.7,2.5h4.4v1.6h-1.8v1.7h2.4v1.6
				h-2.4v5.8l1.1-0.3c0.3-0.1,0.7-0.2,1-0.3L-202.3,302.2z M-208.1,300.9c-0.1-1.6-0.3-2.9-0.5-4l1.3-0.2c0.2,0.7,0.4,1.8,0.6,3.6
				c0,0.1,0,0.3,0,0.4L-208.1,300.9z M-202.5,296.7l-0.1,1.7c-0.1,0.8-0.2,1.4-0.3,1.8l-1.3-0.2c0-0.2,0-0.3,0-0.3
				c0.2-1.1,0.3-1.9,0.3-2.3s0-0.6,0-0.7H-202.5z M-195.4,285.8v1h4.9v1.3h-4.9v0.8h4.1v1.2h-9.7v-1.2h3.9V288h-5v-1.3h5v-1H-195.4z
				 M-191.9,300.2v1.7v0.3c0,0.8-0.2,1.3-0.4,1.7c-0.3,0.3-0.9,0.4-1.7,0.4h-1l-0.4-1.5h1.4c0.4,0,0.6-0.2,0.6-0.6v-2h-3.3v-1.3h3.3
				V298h-8.6v-1.4h11.5v1.4h-1.5v0.9h1.5v1.3L-191.9,300.2L-191.9,300.2z M-192.8,293.6c0.3-0.4,0.4-0.9,0.5-1.3v-0.1h-9.6v-1.4
				h11.3c0,1.1-0.3,2.3-0.9,3.3L-192.8,293.6z M-193.3,292.8v1.1h-2.6v0.8h4.5v1.2h-10.2v-1.2h4V294h-3.4v-1.1H-193.3z
				 M-201.5,298.7h4.2v5.1h-1.5V303h-1.3v1.1h-1.5L-201.5,298.7L-201.5,298.7z M-198.8,300h-1.3v1.8h1.3V300z M-195.7,302.6
				c-0.1-0.3-0.3-0.5-0.5-0.9l-0.5-0.8l1-0.6c0.2,0.2,0.4,0.4,0.6,0.7l0.6,0.9L-195.7,302.6z"/>
			<path id="XMLID_8146_" class="st0" d="M-184.4,292.5v-1.7h2.1v-4.9h1.8v4.9h1.6v1.7h-1.6v12h-1.8v-12H-184.4z M-171.7,285.8v1.7
				h2.8c-0.1-0.1-0.1-0.1-0.1-0.2c-0.1-0.1-0.2-0.3-0.3-0.3l-0.6-0.5l1.2-0.7l0.7,0.5c0.1,0.1,0.3,0.3,0.5,0.5l0.1,0.1l-1,0.5h2.7
				v1.6h-6v0.9h5.2v5.8v0.4c0,0.6-0.1,1-0.3,1.2c-0.2,0.2-0.6,0.3-1.1,0.4v0.6h2.3v1.7h-2.3v1.9v0.4c0,1.1-0.6,1.7-1.8,1.7h-2.1
				l-0.4-1.7l2,0.1c0.4,0,0.6-0.2,0.6-0.5v-1.8h-5.8c0.2,0.1,0.3,0.2,0.3,0.3c0.3,0.2,0.4,0.4,0.7,0.7l1.1,1.3l-1.4,1.3
				c-0.5-0.8-1.1-1.5-1.8-2.2l-0.3-0.3l1.3-1h-3.5v-1.7h9.4v-0.6h-0.5l-0.4-1.4h1.9c0.2,0,0.3,0,0.4-0.1c0.1,0,0.1-0.2,0.1-0.4v-0.3
				h-3.5v1.7h-1.7v-1.7h-3.1v2.1h-1.7v-7.8h4.7v-0.9h-5.2v-1.6h5.2v-1.7H-171.7z M-173.5,292.2v-0.9h-3.1v0.9H-173.5z M-173.5,294.5
				v-1h-3.1v1H-173.5z M-168.3,292.2v-0.9h-3.5v0.9H-168.3z M-168.3,294.5v-1h-3.5v1H-168.3z"/>
			<path id="XMLID_8139_" class="st0" d="M-155.4,299.5l0.9-0.4l1.1-0.6v1.9c-1.9,1-3.9,1.9-6,2.7l-0.3-2l1.4-0.4
				c0.5-0.2,0.9-0.3,1-0.3v-7.4h-2.3v-1.7h2.3v-5.3h1.7v5.3h1.8v1.7h-1.8L-155.4,299.5L-155.4,299.5z M-141.6,295.3
				c0,1.3-0.2,2.2-0.5,2.6c-0.3,0.4-1.1,0.6-2.3,0.6h-0.3c0,0-0.1,0-0.2,0l-0.5-1.9l1.1,0.1c0.3,0,0.6-0.1,0.7-0.2
				c0.1-0.1,0.2-0.3,0.2-0.7l0.1-4.3l-2.9,1v7.7h-1.7v-7l-2.4,1v7.2c0,0.3,0.1,0.6,0.3,0.7c0.2,0.1,0.3,0.2,0.6,0.2h5.5
				c0.4,0,0.7-0.1,0.8-0.3c0.1-0.2,0.2-1,0.3-2.5l1.9,0.6c-0.3,1.9-0.5,3.1-0.9,3.4s-1,0.5-1.9,0.5h-5.8h-0.3
				c-0.9,0-1.5-0.2-1.8-0.5c-0.3-0.3-0.5-1-0.5-2.1v-6.5l-1.6,0.5l-0.2-1.7l1.7-0.6v-5.1h1.8v4.5l2.4-1v-5.6h1.7v4.9l4.7-1.7
				L-141.6,295.3z"/>
			<path id="XMLID_8136_" class="st0" d="M-122.7,294.6v1.7h5.3v1.7h-5.3v1.3h4.7v1.7h-4.7v1.4h6.3v1.7h-15.3v-1.7h7v-1.4h-4.6v-1.7
				h4.6v-1.3h-3.8c-0.1,0.2-0.2,0.3-0.3,0.4c-0.3,0.6-0.8,1.1-1.3,1.7c0,0-0.1,0.1-0.2,0.2l-1.5-1.1c1-1,1.7-2.4,2.4-4
				c0-0.1,0.1-0.3,0.2-0.4l1.7,0.5l-0.3,0.6l-0.2,0.4h3.1v-1.7h-6.8v1.9v0.3c0,2.6-0.6,5.1-1.9,7.5l-1.6-1.1c1-1.9,1.7-4.1,1.7-6.7
				V293h16.7v1.6L-122.7,294.6L-122.7,294.6z M-133.7,288.8v-1.6h7.2l-0.3-0.5l-0.4-0.7l2-0.3l0.4,0.8l0.3,0.7h7.2v1.6h-3.1
				c-0.1,0.2-0.2,0.3-0.3,0.3c-0.2,0.3-0.4,0.4-0.7,0.6l-0.8,0.7l1.9,0.5l2.1,0.5l-0.9,1.5c-0.2-0.1-0.3-0.1-0.4-0.2
				c-0.9-0.3-1.7-0.5-2.3-0.7l-2.3-0.6c-2,1-4.4,1.4-7.1,1.4h-0.3h-0.1l-0.6-1.5c0.1,0,0.3,0,0.4,0s0.3,0,0.6,0h0.3
				c1.7,0,3.1-0.2,4.3-0.6l-1.9-0.4l-2.4-0.5l0.8-1.1l3.1,0.5l2.8,0.5l0.3-0.1c0.4-0.3,0.8-0.5,1.2-0.9c0,0,0.1-0.1,0.2-0.1
				L-133.7,288.8L-133.7,288.8z"/>
		</g>
		<g id="XMLID_1156_">
			<g>
				<g id="XMLID_425_">
					<g>
						<path class="st0" d="M-207.8,313.9c0-2.3,0-2.7,0-3.2c0-0.5-0.2-0.7-0.6-0.9c-0.1,0-0.3-0.1-0.5-0.1c-0.1,0-0.1,0-0.1-0.1
							s0.1-0.1,0.3-0.1c0.7,0,1.6,0.1,1.7,0.1c0.3,0,1-0.1,1.6-0.1c2.4,0,3,1.5,3,2.2c0,1.2-0.7,1.9-1.4,2.6
							c1.1,0.3,2.5,1.4,2.5,3.1c0,1.6-1.2,3.2-3.8,3.2c-0.2,0-0.6,0-1-0.1c-0.4,0-0.9-0.1-0.9-0.1s-0.3,0-0.6,0c-0.3,0-0.6,0-0.9,0
							c-0.2,0-0.3,0-0.3-0.1c0-0.1,0-0.1,0.1-0.1c0.2,0,0.3,0,0.4-0.1c0.3-0.1,0.3-0.3,0.4-0.8c0.1-0.6,0.1-1.7,0.1-3.2
							L-207.8,313.9L-207.8,313.9z M-206.6,314.3c0,0.1,0,0.2,0.1,0.2c0.1,0,0.3,0.1,0.9,0.1c0.8,0,1,0,1.3-0.3
							c0.3-0.3,0.5-0.9,0.5-1.5c0-1.2-0.5-2.5-2-2.5c-0.2,0-0.4,0-0.7,0.1c-0.2,0-0.2,0.1-0.2,0.2L-206.6,314.3L-206.6,314.3z
							 M-206.6,315.9c0,1.1,0,3,0,3.1c0.1,0.7,0.1,1,0.5,1.1c0.4,0.2,1,0.3,1.3,0.3c0.8,0,2.1-0.4,2.1-2.1c0-0.9-0.3-2.2-1.4-3
							c-0.5-0.3-0.9-0.3-1.2-0.4c-0.2,0-1,0-1.1,0c-0.1,0-0.1,0-0.1,0.1L-206.6,315.9L-206.6,315.9z"/>
					</g>
				</g>
				<g id="XMLID_423_">
					<g>
						<path class="st0" d="M-196.6,316.6c0,1.4,0,2.6,0.1,3.2c0.1,0.4,0.2,0.8,0.6,0.8c0.2,0,0.5,0.1,0.7,0.1c0.1,0,0.1,0.1,0.1,0.1
							c0,0.1-0.1,0.1-0.3,0.1c-0.8,0-1.7-0.1-1.8-0.1c-0.1,0-1,0.1-1.5,0.1c-0.2,0-0.3,0-0.3-0.1s0-0.1,0.1-0.1c0.2,0,0.3,0,0.4-0.1
							c0.3-0.1,0.3-0.3,0.4-0.8c0.1-0.6,0.1-1.7,0.1-3.2v-2.6c0-2.3,0-2.7,0-3.2c0-0.5-0.2-0.8-0.5-0.8c-0.2-0.1-0.3-0.1-0.4-0.1
							c-0.1,0-0.1,0-0.1-0.1c0-0.1,0.1-0.1,0.3-0.1c0.5,0,1.4,0.1,1.5,0.1s1-0.1,1.5-0.1c0.2,0,0.3,0,0.3,0.1c0,0.1-0.1,0.1-0.1,0.1
							c-0.1,0-0.2,0-0.3,0.1c-0.4,0.1-0.5,0.3-0.5,0.9c0,0.4,0,0.9,0,3.2v2.5H-196.6z"/>
					</g>
				</g>
				<g id="XMLID_419_">
					<g>
						<path class="st0" d="M-191.4,313.9c0-2.3,0-2.7,0-3.2c0-0.5-0.2-0.7-0.6-0.9c-0.1,0-0.3-0.1-0.5-0.1c-0.1,0-0.1,0-0.1-0.1
							s0.1-0.1,0.3-0.1c0.7,0,1.6,0.1,1.7,0.1c0.3,0,1-0.1,1.6-0.1c2.4,0,3,1.5,3,2.2c0,1.2-0.7,1.9-1.4,2.6
							c1.1,0.3,2.5,1.4,2.5,3.1c0,1.6-1.2,3.2-3.8,3.2c-0.2,0-0.6,0-1-0.1c-0.4,0-0.9-0.1-0.9-0.1s-0.3,0-0.6,0c-0.3,0-0.6,0-0.9,0
							c-0.2,0-0.3,0-0.3-0.1c0-0.1,0-0.1,0.1-0.1c0.2,0,0.3,0,0.4-0.1c0.3-0.1,0.3-0.3,0.4-0.8c0.1-0.6,0.1-1.7,0.1-3.2
							L-191.4,313.9L-191.4,313.9z M-190.2,314.3c0,0.1,0,0.2,0.1,0.2c0.1,0,0.3,0.1,0.9,0.1c0.8,0,1,0,1.3-0.3
							c0.3-0.3,0.5-0.9,0.5-1.5c0-1.2-0.5-2.5-2-2.5c-0.2,0-0.4,0-0.7,0.1c-0.2,0-0.2,0.1-0.2,0.2L-190.2,314.3L-190.2,314.3z
							 M-190.2,315.9c0,1.1,0,3,0,3.1c0.1,0.7,0.1,1,0.5,1.1c0.4,0.2,1,0.3,1.3,0.3c0.8,0,2.1-0.4,2.1-2.1c0-0.9-0.3-2.2-1.4-3
							c-0.5-0.3-0.9-0.3-1.2-0.4c-0.2,0-1,0-1.1,0c-0.1,0-0.1,0-0.1,0.1L-190.2,315.9L-190.2,315.9z"/>
					</g>
				</g>
				<g id="XMLID_416_">
					<g>
						<path class="st0" d="M-176.5,313.9c0-2.3,0-2.7,0-3.2c0-0.5-0.2-0.7-0.6-0.9c-0.1,0-0.3-0.1-0.5-0.1c-0.1,0-0.1,0-0.1-0.1
							s0.1-0.1,0.3-0.1c0.7,0,1.6,0.1,1.7,0.1c0.2,0,1.3-0.1,1.7-0.1c1,0,1.9,0.1,2.7,0.6c0.3,0.3,1,1,1,2c0,1.1-0.4,2.2-1.7,3.4
							c1.2,1.6,2.2,2.9,3.1,3.8c0.8,0.9,1.4,1,1.8,1c0.3,0.1,0.5,0.1,0.6,0.1c0.1,0,0.2,0.1,0.2,0.1c0,0.1-0.1,0.1-0.3,0.1h-1
							c-0.8,0-1.2-0.1-1.6-0.3c-0.6-0.3-1.1-1-2-2.2c-0.6-0.8-1.3-1.8-1.6-2.2c-0.1-0.1-0.1-0.1-0.2-0.1h-1.8
							c-0.1,0-0.1,0.1-0.1,0.1v0.3c0,1.4,0,2.6,0.1,3.2c0.1,0.4,0.2,0.8,0.6,0.8c0.2,0,0.5,0.1,0.7,0.1c0.1,0,0.1,0.1,0.1,0.1
							c0,0.1-0.1,0.1-0.3,0.1c-0.8,0-1.7-0.1-1.8-0.1c0,0-1,0.1-1.4,0.1c-0.2,0-0.3,0-0.3-0.1c0-0.1,0-0.1,0.1-0.1
							c0.2,0,0.3,0,0.4-0.1c0.3-0.1,0.3-0.3,0.4-0.8c0.1-0.6,0.1-1.7,0.1-3.2v-2.4H-176.5z M-175.2,315.3c0,0.1,0,0.2,0.1,0.2
							c0.3,0.2,0.9,0.3,1.6,0.3c0.3,0,0.8-0.1,1.1-0.3c0.5-0.3,0.9-1.1,0.9-2.3c0-1.8-1-3-2.5-3c-0.4,0-0.9,0.1-1,0.1
							c-0.1,0-0.1,0.1-0.1,0.2L-175.2,315.3L-175.2,315.3z"/>
					</g>
				</g>
				<g id="XMLID_414_">
					<g>
						<path class="st0" d="M-165.6,315c0-1.9,0-2.3,0-2.7c0-0.4-0.1-0.6-0.5-0.7c-0.1,0-0.3,0-0.4,0c-0.1,0-0.1-0.1-0.1-0.1
							c0-0.1,0.1-0.1,0.2-0.1c0.6,0,1.4,0,1.5,0s2.8,0,3.1,0s0.5-0.1,0.6-0.1s0.1-0.1,0.2-0.1c0.1,0,0.1,0.1,0.1,0.1
							c0,0.1-0.1,0.3-0.1,0.6c0,0.1-0.1,0.7-0.1,0.8c0,0.1-0.1,0.2-0.1,0.2c-0.1,0-0.1-0.1-0.1-0.2c0-0.1,0-0.3-0.1-0.4
							c-0.1-0.2-0.3-0.3-1-0.3c-0.3,0-1.7-0.1-1.8-0.1c-0.1,0-0.1,0.1-0.1,0.2v3.4c0,0.1,0,0.2,0.1,0.2c0.2,0,1.8,0,2.2,0
							c0.3,0,0.5-0.1,0.6-0.2c0.1-0.1,0.2-0.2,0.2-0.2c0.1,0,0.1,0,0.1,0.1s-0.1,0.3-0.1,0.7c0,0.3-0.1,0.7-0.1,0.8
							c0,0.1,0,0.3-0.1,0.3c-0.1,0-0.1-0.1-0.1-0.1c0-0.1,0-0.3-0.1-0.4c-0.1-0.2-0.2-0.3-0.7-0.3c-0.3-0.1-1.7-0.1-1.9-0.1
							c-0.1,0-0.1,0.1-0.1,0.1v1c0,0.4,0,1.9,0,2.2c0,0.9,0.3,1,1.6,1c0.3,0,1,0,1.3-0.2c0.3-0.2,0.5-0.3,0.6-0.9
							c0-0.2,0.1-0.2,0.2-0.2c0.1,0,0.1,0.1,0.1,0.2c0,0.1-0.1,1-0.2,1.2c-0.1,0.3-0.3,0.3-0.7,0.3c-1,0-1.7,0-2.3-0.1
							c-0.5,0-0.9,0-1,0c0,0-0.3,0-0.5,0c-0.3,0-0.5,0-0.8,0c-0.2,0-0.2,0-0.2-0.1s0-0.1,0.1-0.1c0.1,0,0.3-0.1,0.4-0.1
							c0.3-0.1,0.3-0.3,0.3-0.7c0.1-0.5,0.1-1.5,0.1-2.7V315H-165.6z"/>
					</g>
				</g>
				<g id="XMLID_411_">
					<g>
						<path class="st0" d="M-155.6,311.6c0.2-0.4,0.3-0.5,0.3-0.5c0.2,0,0.2,0.2,0.3,0.4c0.3,0.5,2.4,5.7,3.1,7.6
							c0.4,1.1,0.8,1.3,1.1,1.4c0.2,0.1,0.3,0.1,0.5,0.1c0.1,0,0.2,0,0.2,0.1c0,0.1-0.2,0.1-0.3,0.1c-0.2,0-1.1,0-2,0
							c-0.3,0-0.4,0-0.4-0.1c0-0.1,0-0.1,0.1-0.1c0.1,0,0.2-0.2,0.1-0.3l-1.1-2.9c0-0.1-0.1-0.1-0.1-0.1h-3c-0.1,0-0.1,0-0.2,0.1
							l-0.7,2c-0.1,0.3-0.2,0.6-0.2,0.9s0.3,0.3,0.4,0.3h0.1c0.1,0,0.2,0.1,0.2,0.1c0,0.1-0.1,0.1-0.2,0.1c-0.3,0-1-0.1-1.1-0.1
							c-0.2,0-0.8,0.1-1.3,0.1c-0.2,0-0.3,0-0.3-0.1c0-0.1,0.1-0.1,0.1-0.1c0.1,0,0.3,0,0.3,0c0.6-0.1,0.9-0.5,1.1-1.1L-155.6,311.6
							z M-154.1,316.8C-154,316.8-154,316.8-154.1,316.8l-1.2-3.5c-0.1-0.2-0.2-0.2-0.3,0l-1.2,3.4c0,0.1,0,0.1,0.1,0.1H-154.1z"/>
					</g>
				</g>
				<g id="XMLID_409_">
					<g>
						<path class="st0" d="M-147.1,317.2c0,1.8,0,2.6,0.3,2.8c0.2,0.2,0.7,0.3,1.7,0.3c0.7,0,1.2,0,1.6-0.3c0.2-0.2,0.3-0.4,0.3-0.7
							c0-0.1,0.1-0.2,0.2-0.2c0.1,0,0.1,0.1,0.1,0.2c0,0.2-0.1,0.9-0.2,1.2c-0.1,0.3-0.2,0.3-0.8,0.3c-1,0-1.7,0-2.3-0.1
							c-0.6,0-1,0-1.4,0c-0.1,0-0.3,0-0.5,0c-0.3,0-0.5,0-0.8,0c-0.2,0-0.2,0-0.2-0.1c0-0.1,0-0.1,0.1-0.1c0.1,0,0.3,0,0.4-0.1
							c0.3-0.1,0.3-0.3,0.3-0.7c0.1-0.5,0.1-1.5,0.1-2.7v-2.2c0-1.9,0-2.3,0-2.7c0-0.4-0.1-0.6-0.5-0.7c-0.1,0-0.3,0-0.4,0
							c-0.1,0-0.1-0.1-0.1-0.1c0-0.1,0.1-0.1,0.2-0.1c0.6,0,1.4,0,1.5,0c0.1,0,1,0,1.4,0c0.2,0,0.2,0,0.2,0.1c0,0.1-0.1,0.1-0.1,0.1
							c-0.1,0-0.3,0-0.4,0c-0.3,0.1-0.4,0.3-0.5,0.7c0,0.4,0,0.8,0,2.7v2.4H-147.1z"/>
					</g>
				</g>
				<g id="XMLID_407_">
					<g>
						<path class="st0" d="M-135.3,313.9c0-2.3,0-2.7,0-3.2c0-0.5-0.2-0.7-0.6-0.9c-0.1,0-0.3-0.1-0.5-0.1c-0.1,0-0.1,0-0.1-0.1
							s0.1-0.1,0.3-0.1c0.3,0,0.7,0,1,0h0.6c0.1,0,3.1,0,3.4,0c0.3,0,0.5-0.1,0.6-0.1s0.2-0.1,0.2-0.1c0.1,0,0.1,0.1,0.1,0.2
							s-0.1,0.3-0.1,0.7c0,0.2-0.1,0.8-0.1,1c0,0.1-0.1,0.2-0.1,0.2c-0.1,0-0.1-0.1-0.1-0.2s0-0.3-0.1-0.5c-0.1-0.3-0.3-0.4-1-0.5
							c-0.3,0-1.8-0.1-2-0.1c-0.1,0-0.1,0.1-0.1,0.2v4.1c0,0.1,0,0.2,0.1,0.2c0.2,0,2,0,2.4,0c0.3,0,0.5-0.1,0.7-0.2
							c0.1-0.1,0.2-0.2,0.3-0.2c0.1,0,0.1,0,0.1,0.1s-0.1,0.3-0.1,0.8c0,0.3-0.1,0.9-0.1,1c0,0.1,0,0.3-0.1,0.3
							c-0.1,0-0.1-0.1-0.1-0.2c0-0.2,0-0.3-0.1-0.5c-0.1-0.2-0.2-0.4-0.8-0.5c-0.4-0.1-1.8-0.1-2.1-0.1c-0.1,0-0.1,0.1-0.1,0.1v1.3
							c0,0.5,0,2.2,0,2.5c0.1,1,0.3,1.2,1.7,1.2c0.3,0,1,0,1.4-0.2c0.3-0.2,0.5-0.4,0.7-1c0-0.2,0.1-0.3,0.2-0.3s0.1,0.1,0.1,0.3
							c0,0.1-0.1,1.1-0.2,1.4c-0.1,0.3-0.3,0.3-0.8,0.3c-1.1,0-1.9,0-2.5-0.1c-0.6,0-1-0.1-1.1-0.1c0,0-0.3,0-0.6,0
							c-0.3,0-0.6,0-0.9,0c-0.2,0-0.3,0-0.3-0.1c0-0.1,0-0.1,0.1-0.1c0.2,0,0.3,0,0.4-0.1c0.3-0.1,0.3-0.3,0.4-0.8
							c0.1-0.6,0.1-1.7,0.1-3.2v-2.3H-135.3z"/>
					</g>
				</g>
				<g id="XMLID_405_">
					<g>
						<path class="st0" d="M-127.8,320.7c-0.2-0.1-0.2-0.2-0.2-0.4c0-0.6,0.1-1.1,0.1-1.3c0-0.2,0-0.2,0.1-0.2s0.1,0.1,0.1,0.2
							s0,0.3,0.1,0.4c0.2,0.9,1.2,1.2,2,1.2c1.3,0,1.9-0.7,1.9-1.7c0-0.9-0.5-1.3-1.7-2.2l-0.6-0.4c-1.4-1-1.8-1.8-1.8-2.7
							c0-1.5,1.1-2.4,2.9-2.4c0.5,0,1,0.1,1.3,0.2c0.3,0.1,0.3,0.1,0.4,0.1s0.2,0,0.2,0.1s-0.1,0.4-0.1,1.3c0,0.2,0,0.3-0.1,0.3
							s-0.1-0.1-0.1-0.2c0-0.2-0.1-0.5-0.2-0.6c-0.1-0.2-0.5-0.6-1.7-0.6c-1,0-1.7,0.4-1.7,1.4c0,0.8,0.4,1.2,1.7,2.1l0.3,0.3
							c1.6,1,2.1,1.9,2.1,3.1c0,0.7-0.3,1.6-1.2,2.2c-0.5,0.3-1.4,0.4-2.1,0.4C-126.4,321-127.2,320.9-127.8,320.7z"/>
					</g>
				</g>
				<g id="XMLID_403_">
					<g>
						<path class="st0" d="M-116.1,317.2c0,1.2,0,2.2,0.1,2.7c0.1,0.3,0.1,0.6,0.5,0.7c0.2,0,0.4,0.1,0.6,0.1c0.1,0,0.1,0.1,0.1,0.1
							c0,0.1-0.1,0.1-0.2,0.1c-0.7,0-1.6-0.1-1.6-0.1c-0.1,0-1,0.1-1.3,0.1c-0.2,0-0.2,0-0.2-0.1s0-0.1,0.1-0.1s0.3,0,0.3-0.1
							c0.3-0.1,0.3-0.3,0.3-0.7c0.1-0.5,0.1-1.5,0.1-2.7v-5.2h-1.8c-0.8,0-1.1,0.1-1.3,0.4c-0.2,0.3-0.2,0.3-0.2,0.4
							s-0.1,0.1-0.2,0.1c0,0-0.1,0-0.1-0.1c0-0.2,0.3-1.2,0.3-1.4c0-0.1,0.1-0.3,0.2-0.3s0.3,0.1,0.6,0.2c0.3,0.1,0.9,0.1,1,0.1h4.9
							c0.4,0,0.7,0,1-0.1c0.2,0,0.3-0.1,0.3-0.1c0.1,0,0.1,0.1,0.1,0.2c0,0.3-0.1,1.3-0.1,1.4s-0.1,0.2-0.1,0.2
							c-0.1,0-0.1-0.1-0.1-0.3v-0.2c-0.1-0.3-0.3-0.7-1.6-0.7h-1.7v5.3H-116.1z"/>
					</g>
				</g>
				<g id="XMLID_400_">
					<g>
						<path class="st0" d="M-108.6,311.6c0.2-0.4,0.3-0.5,0.3-0.5c0.2,0,0.2,0.2,0.3,0.4c0.3,0.5,2.4,5.7,3.1,7.6
							c0.4,1.1,0.8,1.3,1.1,1.4c0.2,0.1,0.3,0.1,0.5,0.1c0.1,0,0.2,0,0.2,0.1c0,0.1-0.2,0.1-0.3,0.1c-0.2,0-1.1,0-2,0
							c-0.3,0-0.4,0-0.4-0.1c0-0.1,0-0.1,0.1-0.1c0.1,0,0.2-0.2,0.1-0.3l-1.1-2.9c0-0.1-0.1-0.1-0.1-0.1h-3c-0.1,0-0.1,0-0.2,0.1
							l-0.7,2c-0.1,0.3-0.2,0.6-0.2,0.9s0.3,0.3,0.4,0.3h0.1c0.1,0,0.2,0.1,0.2,0.1c0,0.1-0.1,0.1-0.2,0.1c-0.3,0-1-0.1-1.1-0.1
							c-0.2,0-0.8,0.1-1.3,0.1c-0.2,0-0.3,0-0.3-0.1c0-0.1,0.1-0.1,0.1-0.1c0.1,0,0.3,0,0.3,0c0.6-0.1,0.9-0.5,1.1-1.1L-108.6,311.6
							z M-107.2,316.8C-107.1,316.8-107.1,316.8-107.2,316.8l-1.2-3.5c-0.1-0.2-0.2-0.2-0.3,0l-1.2,3.4c0,0.1,0,0.1,0.1,0.1H-107.2z
							"/>
					</g>
				</g>
				<g id="XMLID_398_">
					<g>
						<path class="st0" d="M-99.5,317.2c0,1.2,0,2.2,0.1,2.7c0.1,0.3,0.1,0.6,0.5,0.7c0.2,0,0.4,0.1,0.6,0.1c0.1,0,0.1,0.1,0.1,0.1
							c0,0.1-0.1,0.1-0.2,0.1c-0.7,0-1.6-0.1-1.6-0.1c-0.1,0-1,0.1-1.3,0.1c-0.2,0-0.2,0-0.2-0.1s0-0.1,0.1-0.1s0.3,0,0.3-0.1
							c0.3-0.1,0.3-0.3,0.3-0.7c0.1-0.5,0.1-1.5,0.1-2.7v-5.2h-1.8c-0.8,0-1.1,0.1-1.3,0.4c-0.2,0.3-0.2,0.3-0.2,0.4
							s-0.1,0.1-0.2,0.1c0,0-0.1,0-0.1-0.1c0-0.2,0.3-1.2,0.3-1.4c0-0.1,0.1-0.3,0.2-0.3c0.1,0,0.3,0.1,0.6,0.2
							c0.3,0.1,0.9,0.1,1,0.1h4.9c0.4,0,0.7,0,1-0.1c0.2,0,0.3-0.1,0.3-0.1c0.1,0,0.1,0.1,0.1,0.2c0,0.3-0.1,1.3-0.1,1.4
							s-0.1,0.2-0.1,0.2s-0.1-0.1-0.1-0.3v-0.2c-0.1-0.3-0.3-0.7-1.6-0.7h-1.7v5.3H-99.5z"/>
					</g>
				</g>
				<g id="XMLID_396_">
					<g>
						<path class="st0" d="M-93.3,315c0-1.9,0-2.3,0-2.7c0-0.4-0.1-0.6-0.5-0.7c-0.1,0-0.3,0-0.4,0s-0.1-0.1-0.1-0.1
							c0-0.1,0.1-0.1,0.2-0.1c0.6,0,1.4,0,1.5,0s2.8,0,3.1,0c0.3,0,0.5-0.1,0.6-0.1c0.1,0,0.1-0.1,0.2-0.1s0.1,0.1,0.1,0.1
							c0,0.1-0.1,0.3-0.1,0.6c0,0.1-0.1,0.7-0.1,0.8c0,0.1-0.1,0.2-0.1,0.2c-0.1,0-0.1-0.1-0.1-0.2c0-0.1,0-0.3-0.1-0.4
							c-0.1-0.2-0.3-0.3-1-0.3c-0.3,0-1.7-0.1-1.8-0.1s-0.1,0.1-0.1,0.2v3.4c0,0.1,0,0.2,0.1,0.2c0.2,0,1.8,0,2.2,0
							c0.3,0,0.5-0.1,0.6-0.2s0.2-0.2,0.2-0.2c0.1,0,0.1,0,0.1,0.1s-0.1,0.3-0.1,0.7c0,0.3-0.1,0.7-0.1,0.8c0,0.1,0,0.3-0.1,0.3
							s-0.1-0.1-0.1-0.1c0-0.1,0-0.3-0.1-0.4c-0.1-0.2-0.2-0.3-0.7-0.3c-0.3-0.1-1.7-0.1-1.9-0.1c-0.1,0-0.1,0.1-0.1,0.1v1
							c0,0.4,0,1.9,0,2.2c0,0.9,0.3,1,1.6,1c0.3,0,1,0,1.3-0.2c0.3-0.2,0.5-0.3,0.6-0.9c0-0.2,0.1-0.2,0.2-0.2s0.1,0.1,0.1,0.2
							c0,0.1-0.1,1-0.2,1.2c-0.1,0.3-0.3,0.3-0.7,0.3c-1,0-1.7,0-2.3-0.1c-0.5,0-0.9,0-1,0c0,0-0.3,0-0.5,0c-0.3,0-0.5,0-0.8,0
							c-0.2,0-0.2,0-0.2-0.1s0-0.1,0.1-0.1s0.3-0.1,0.4-0.1c0.3-0.1,0.3-0.3,0.3-0.7c0.1-0.5,0.1-1.5,0.1-2.7V315H-93.3z"/>
					</g>
				</g>
				<g id="XMLID_393_">
					<g>
						<path class="st0" d="M-77.9,310c0.2-0.5,0.3-0.6,0.3-0.6s0.2,0.1,0.3,0.5c0.3,0.5,2.5,6.6,3.4,8.9c0.5,1.3,1,1.6,1.3,1.7
							c0.3,0.1,0.4,0.1,0.6,0.1c0.1,0,0.2,0,0.2,0.1c0,0.1-0.2,0.1-0.3,0.1c-0.3,0-1.3,0-2.4,0c-0.3,0-0.4,0-0.4-0.1
							c0-0.1,0.1-0.1,0.1-0.1c0.1,0,0.2-0.2,0.1-0.4l-1.4-3.7c0-0.1-0.1-0.1-0.2-0.1h-3.1c-0.1,0-0.1,0.1-0.2,0.1l-0.9,2.6
							c-0.2,0.3-0.2,0.7-0.2,1c0,0.3,0.3,0.4,0.5,0.4h0.2c0.1,0,0.2,0,0.2,0.1c0,0.1-0.1,0.1-0.3,0.1c-0.3,0-1-0.1-1.1-0.1
							c-0.2,0-1,0.1-1.7,0.1c-0.2,0-0.3,0-0.3-0.1c0-0.1,0.1-0.1,0.2-0.1c0.1,0,0.3,0,0.4,0c0.7-0.1,1-0.6,1.2-1.4L-77.9,310z
							 M-76.3,316C-76.3,316-76.3,315.9-76.3,316l-1.3-4.1c-0.1-0.3-0.2-0.3-0.3,0l-1.3,4c0,0.1,0,0.1,0.1,0.1H-76.3z"/>
					</g>
				</g>
				<g id="XMLID_391_">
					<g>
						<path class="st0" d="M-63.9,317.6c0-1,0-1.1-0.5-1.3c-0.1,0-0.3,0-0.4,0c-0.1,0-0.1-0.1-0.1-0.1c0-0.1,0.1-0.1,0.2-0.1
							c0.6,0,1.5,0,1.6,0c0.1,0,0.9,0,1.3,0c0.2,0,0.2,0,0.2,0.1c0,0.1-0.1,0.1-0.1,0.1c-0.1,0-0.2,0-0.3,0
							c-0.3,0.1-0.4,0.3-0.5,0.7c0,0.4,0,0.8,0,1.3v1.4c0,0.6,0,0.6-0.2,0.7c-0.8,0.4-2,0.5-2.8,0.5c-1,0-2.8-0.1-4.3-1.3
							c-0.8-0.7-1.6-2-1.6-3.6c0-2,1-3.4,2.2-4.1c1.1-0.7,2.4-0.8,3.5-0.8c0.8,0,1.7,0.2,2,0.2c0.3,0.1,0.7,0.2,1,0.2
							c0.2,0,0.2,0.1,0.2,0.1c0,0.2-0.1,0.5-0.1,1.7c0,0.2-0.1,0.3-0.2,0.3c-0.1,0-0.1-0.1-0.1-0.2c0-0.2-0.1-0.5-0.3-0.8
							c-0.3-0.4-1.3-1-3-1c-0.8,0-1.7,0.1-2.7,0.8c-0.8,0.6-1.3,1.7-1.3,3.1c0,1.7,0.9,3.1,1.4,3.5c1,1,2.1,1.3,3.3,1.3
							c0.4,0,1-0.1,1.4-0.3c0.2-0.1,0.3-0.2,0.3-0.3L-63.9,317.6L-63.9,317.6z"/>
					</g>
				</g>
				<g id="XMLID_389_">
					<g>
						<path class="st0" d="M-58.9,315c0-1.9,0-2.3,0-2.7c0-0.4-0.1-0.6-0.5-0.7c-0.1,0-0.3,0-0.4,0c-0.1,0-0.1-0.1-0.1-0.1
							c0-0.1,0.1-0.1,0.2-0.1c0.6,0,1.4,0,1.5,0c0.1,0,2.8,0,3.1,0s0.5-0.1,0.6-0.1s0.1-0.1,0.2-0.1c0.1,0,0.1,0.1,0.1,0.1
							c0,0.1-0.1,0.3-0.1,0.6c0,0.1-0.1,0.7-0.1,0.8c0,0.1-0.1,0.2-0.1,0.2c-0.1,0-0.1-0.1-0.1-0.2c0-0.1,0-0.3-0.1-0.4
							c-0.1-0.2-0.3-0.3-1-0.3c-0.3,0-1.7-0.1-1.8-0.1s-0.1,0.1-0.1,0.2v3.4c0,0.1,0,0.2,0.1,0.2c0.2,0,1.8,0,2.2,0s0.5-0.1,0.6-0.2
							c0.1-0.1,0.2-0.2,0.2-0.2c0.1,0,0.1,0,0.1,0.1s-0.1,0.3-0.1,0.7c0,0.3-0.1,0.7-0.1,0.8c0,0.1,0,0.3-0.1,0.3
							c-0.1,0-0.1-0.1-0.1-0.1c0-0.1,0-0.3-0.1-0.4c-0.1-0.2-0.2-0.3-0.7-0.3c-0.3-0.1-1.7-0.1-1.9-0.1c-0.1,0-0.1,0.1-0.1,0.1v1
							c0,0.4,0,1.9,0,2.2c0,0.9,0.3,1,1.6,1c0.3,0,1,0,1.3-0.2c0.3-0.2,0.5-0.3,0.6-0.9c0-0.2,0.1-0.2,0.2-0.2s0.1,0.1,0.1,0.2
							c0,0.1-0.1,1-0.2,1.2c-0.1,0.3-0.3,0.3-0.7,0.3c-1,0-1.7,0-2.3-0.1c-0.5,0-0.9,0-1,0c0,0-0.3,0-0.5,0c-0.3,0-0.5,0-0.8,0
							c-0.2,0-0.2,0-0.2-0.1s0-0.1,0.1-0.1c0.1,0,0.3-0.1,0.4-0.1c0.3-0.1,0.3-0.3,0.3-0.7c0.1-0.5,0.1-1.5,0.1-2.7V315H-58.9z"/>
					</g>
				</g>
				<g id="XMLID_387_">
					<g>
						<path class="st0" d="M-50.2,319.1c0,1,0.2,1.3,0.5,1.4c0.3,0.1,0.5,0.1,0.6,0.1s0.1,0.1,0.1,0.1c0,0.1-0.1,0.1-0.3,0.1
							c-0.7,0-1.2-0.1-1.4-0.1c-0.1,0-0.7,0.1-1.2,0.1c-0.2,0-0.2,0-0.2-0.1c0-0.1,0.1-0.1,0.1-0.1c0.1,0,0.3,0,0.5-0.1
							c0.3-0.1,0.3-0.4,0.3-1.6v-7.2c0-0.5,0.1-0.6,0.2-0.6c0.2,0,0.3,0.3,0.5,0.3c0.2,0.2,2.1,2.2,4.1,4.3c1.3,1.3,2.7,2.8,3.1,3.2
							l-0.2-6.3c0-0.8-0.1-1.1-0.5-1.1c-0.3-0.1-0.5-0.1-0.6-0.1c-0.1,0-0.1-0.1-0.1-0.1c0-0.1,0.1-0.1,0.3-0.1c0.6,0,1.2,0,1.4,0
							s0.6,0,1.1,0c0.2,0,0.3,0,0.3,0.1c0,0.1-0.1,0.1-0.2,0.1s-0.2,0-0.3,0c-0.4,0.1-0.4,0.3-0.4,1.1v7.3c0,0.8,0,0.9-0.1,0.9
							c-0.2,0-0.3-0.1-1-0.8c-0.2-0.1-2-1.9-3.4-3.4c-1.5-1.6-3-3.1-3.4-3.6L-50.2,319.1z"/>
					</g>
				</g>
				<g id="XMLID_385_">
					<g>
						<path class="st0" d="M-38.6,319.6c-1.3-1.1-1.6-2.5-1.6-3.8c0-0.9,0.3-2.3,1.5-3.4c0.8-0.8,1.9-1.3,3.9-1.3
							c0.5,0,1.2,0.1,1.9,0.2c0.5,0.1,0.9,0.2,1.3,0.2c0.2,0,0.2,0.1,0.2,0.2s0,0.3-0.1,0.7c0,0.4,0,1.1,0,1.3
							c0,0.2-0.1,0.3-0.2,0.3s-0.1-0.1-0.1-0.3c0-0.5-0.2-1-0.5-1.2c-0.4-0.3-1.4-0.7-2.5-0.7c-1.7,0-2.4,0.4-2.9,0.9
							c-1,0.9-1.1,2-1.1,3.3c0,2.4,1.9,4.5,4.7,4.5c1,0,1.7-0.1,2.2-0.6c0.3-0.3,0.4-0.8,0.5-1c0-0.2,0.1-0.2,0.2-0.2
							s0.1,0.1,0.1,0.2s-0.2,1.2-0.3,1.6c-0.1,0.3-0.1,0.3-0.3,0.3c-0.5,0.2-1.5,0.3-2.4,0.3C-36.2,321-37.5,320.5-38.6,319.6z"/>
					</g>
				</g>
				<g id="XMLID_383_">
					<g>
						<path class="st0" d="M-26.5,317.5c0-0.7-0.1-1-0.3-1.3c-0.1-0.2-1.8-3-2.3-3.7c-0.3-0.4-0.6-0.8-0.9-0.9
							c-0.2-0.1-0.4-0.2-0.5-0.2c-0.1,0-0.2-0.1-0.2-0.1c0-0.1,0.1-0.1,0.2-0.1c0.3,0,1.2,0,1.3,0c0.1,0,0.6,0,1.1,0
							c0.2,0,0.2,0,0.2,0.1c0,0.1-0.1,0.1-0.2,0.2s-0.2,0.1-0.2,0.2c0,0.2,0.1,0.3,0.2,0.5l2.4,3.9c0.3-0.5,1.9-3.2,2.1-3.7
							c0.2-0.3,0.3-0.5,0.3-0.6c0-0.2-0.1-0.3-0.2-0.3c-0.1,0-0.2-0.1-0.2-0.2c0-0.1,0.1-0.1,0.2-0.1c0.3,0,0.8,0,0.9,0s1,0,1.3,0
							c0.1,0,0.2,0,0.2,0.1c0,0.1-0.1,0.2-0.2,0.2c-0.2,0-0.4,0.1-0.6,0.2c-0.3,0.2-0.3,0.3-0.6,0.6c-0.4,0.5-2.3,3.5-2.5,4
							c-0.3,0.4-0.2,0.9-0.2,1.2v1c0,0.2,0,0.7,0.1,1.2c0,0.3,0.1,0.6,0.5,0.7c0.2,0,0.4,0.1,0.6,0.1c0.1,0,0.1,0.1,0.1,0.1
							c0,0.1-0.1,0.1-0.2,0.1c-0.7,0-1.6-0.1-1.7-0.1c-0.1,0-0.9,0.1-1.3,0.1c-0.2,0-0.2,0-0.2-0.1s0-0.1,0.1-0.1
							c0.1,0,0.3,0,0.3-0.1c0.3-0.1,0.3-0.3,0.3-0.7c0-0.5,0-1,0-1.2L-26.5,317.5L-26.5,317.5z"/>
					</g>
				</g>
			</g>
		</g>
	</g>
</g>
</svg>
