<?xml version="1.0" encoding="utf-8"?>
<!-- Generator: Adobe Illustrator 21.1.0, SVG Export Plug-In . SVG Version: 6.00 Build 0)  -->
<svg version="1.1" id="Layer_1" xmlns="http://www.w3.org/2000/svg" xmlns:xlink="http://www.w3.org/1999/xlink" x="0px" y="0px"
	 viewBox="0 0 300 53.7" style="enable-background:new 0 0 300 53.7;" xml:space="preserve">
<style type="text/css">
	.st0{fill:#FFFFFF;}
</style>
<g id="XMLID_13135_">
	<g id="XMLID_13260_">
		<g id="XMLID_13261_">
			<polygon id="XMLID_13265_" class="st0" points="42.5,32.3 21.2,53.6 21.2,43.1 31.9,32.3 			"/>
			<polygon id="XMLID_13264_" class="st0" points="31.8,21.5 42.5,32.3 31.9,32.3 21.2,21.5 			"/>
			<polygon id="XMLID_13263_" class="st0" points="0,32.3 31.9,0.2 31.9,10.9 10.5,32.3 			"/>
			<polygon id="XMLID_13262_" class="st0" points="21.2,53.6 -0.1,32.3 10.5,32.3 21.2,43.1 			"/>
		</g>
	</g>
</g>
<g>
	<path class="st0" d="M55.3,27c-2.1,0.7-4.2,1.2-6.4,1.6l-0.2-1.7l1.6-0.2c0.5-0.1,0.9-0.2,1.3-0.3v-6.1H49v-1.6h2.6V17H50v-0.8
		l-0.6,0.6L48.6,15c1.5-1.3,2.5-2.7,3.1-4.3H53c1,1,1.9,2.3,2.6,3.7l-1.4,1.1l-0.9-1.7c-0.2-0.3-0.4-0.6-0.6-0.9
		c-0.1-0.1-0.2-0.2-0.3-0.4c-0.1,0.2-0.2,0.4-0.3,0.5c-0.5,0.8-1.1,1.7-1.8,2.5h4.4V17H53v1.7h2.3v1.6H53v5.8l1.1-0.3
		c0.3-0.1,0.7-0.2,1.1-0.3L55.3,27z M49.5,25.7c-0.1-1.5-0.2-2.9-0.5-4l1.3-0.2c0.2,0.7,0.4,1.9,0.6,3.5c0,0.1,0,0.2,0,0.4
		L49.5,25.7z M55.2,21.5l-0.1,1.6c-0.1,0.8-0.1,1.4-0.2,1.8l-1.3-0.2c0-0.1,0-0.2,0-0.3c0.2-1.1,0.3-1.9,0.3-2.3s0-0.6,0-0.7
		L55.2,21.5z M62.2,10.6v1H67v1.3h-4.8v0.8h4.1v1.2h-9.6v-1.2h3.9v-0.8h-4.9v-1.3h4.9v-1H62.2z M65.7,24.9v1.8V27
		c0,0.8-0.1,1.3-0.4,1.6c-0.3,0.3-0.9,0.5-1.7,0.5h-1l-0.4-1.5h1.4c0.4,0,0.6-0.2,0.6-0.6v-2h-3.3v-1.3h3.3v-0.9h-8.5v-1.4h11.5v1.4
		h-1.5v0.9h1.5V25h-1.5V24.9z M64.8,18.4c0.3-0.4,0.4-0.9,0.6-1.3V17h-9.5v-1.4h11.3c0,1.1-0.3,2.2-0.8,3.3L64.8,18.4z M64.2,17.6
		v1.1h-2.6v0.8h4.5v1.2H56v-1.2h4v-0.8h-3.4v-1.1H64.2z M56.1,23.5h4.2v5.1h-1.5v-0.8h-1.3v1.1H56L56.1,23.5L56.1,23.5z M58.8,24.8
		h-1.3v1.8h1.3V24.8z M61.9,27.4c-0.1-0.3-0.3-0.6-0.5-0.9l-0.5-0.8l1.1-0.6c0.2,0.2,0.4,0.5,0.6,0.7l0.6,0.8L61.9,27.4z"/>
	<path class="st0" d="M73.2,17.3v-1.8h2.1v-4.9H77v4.9h1.6v1.8H77v11.9h-1.8V17.3H73.2z M85.7,10.6v1.7h2.8
		c-0.1-0.1-0.1-0.1-0.1-0.2c-0.1-0.1-0.2-0.2-0.3-0.3l-0.6-0.6l1.2-0.7l0.7,0.5c0.1,0.1,0.3,0.3,0.5,0.6l0.1,0.1l-1,0.5h2.7v1.6h-6
		v0.8h5.2v5.8V21c0,0.6-0.1,1-0.3,1.2c-0.2,0.2-0.6,0.4-1.2,0.5v0.6h2.3V25h-2.3v1.9v0.4c0,1.1-0.6,1.7-1.8,1.7h-2.1l-0.4-1.7l2,0.1
		c0.4,0,0.6-0.2,0.6-0.6V25h-5.8c0.1,0.1,0.2,0.2,0.3,0.3c0.2,0.2,0.5,0.4,0.7,0.7l1.1,1.3l-1.4,1.3c-0.5-0.7-1.1-1.5-1.8-2.2
		L80.5,26l1.3-1h-3.5v-1.7h9.4v-0.6h-0.6l-0.4-1.4h1.9c0.2,0,0.3,0,0.4-0.1c0.1,0,0.1-0.2,0.1-0.4v-0.3h-3.5v1.7H84v-1.7h-3v2.1
		h-1.7v-7.9H84v-0.8h-5.2v-1.6H84v-1.7H85.7z M84,17.1v-0.9h-3v0.9H84z M84,19.3v-1h-3v1H84z M89.2,17.1v-0.9h-3.5v0.9H89.2z
		 M89.2,19.3v-1h-3.5v1H89.2z"/>
	<path class="st0" d="M101.9,25.4c-0.1,0.1-0.1,0.2-0.2,0.3c-0.6,1.2-1.4,2.3-2.5,3.4l-1.6-1l0.5-0.5c0.9-0.9,1.5-1.9,2-2.9
		L101.9,25.4z M106.2,11.3v12.8h-7.4V11.3H106.2z M104.5,12.9h-4v2h4V12.9z M100.5,18.6h4v-2.1h-4V18.6z M100.5,22.5h4v-2.3h-4V22.5
		z M105.2,29.1c-0.5-1.3-1.2-2.6-2.1-3.7l1.5-0.9c0.9,1.2,1.7,2.4,2.3,3.7L105.2,29.1z M112.7,19.1c-1.2,2.2-2.9,4.3-5.1,6.2
		l-1.2-1.7c1.5-1.2,2.7-2.3,3.5-3.4c0.9-1.1,1.8-2.4,2.7-4H107v-1.7h5.7v-3.8h1.9v3.8h1.7v1.7h-1.7v10.5v0.2c0,0.7-0.1,1.3-0.4,1.6
		c-0.3,0.3-0.9,0.5-1.8,0.5h-2.5l-0.4-1.8l2.7,0.1c0.4,0,0.7-0.2,0.7-0.6v-7.6H112.7z"/>
	<path class="st0" d="M130.6,11.9l-0.4-0.5l-0.4-0.5l2-0.3l0.5,0.6l0.5,0.6h7.9V16h-1.9v-2.6h-14.3V16h-1.9v-4.2L130.6,11.9
		L130.6,11.9z M125.4,29.2h-1.9v-7.3h16.4v7.3H138v-0.8h-12.6V29.2z M124.9,16.9h13.8v4h-13.8C124.9,20.9,124.9,16.9,124.9,16.9z
		 M130.7,24.4v-1.1h-5.3v1.1H130.7z M130.7,27v-1.3h-5.3V27H130.7z M137.9,15.9h-12.3v-1.5h12.3V15.9z M136.8,18.3h-10v1.2h10V18.3z
		 M138,24.4v-1.1h-5.4v1.1H138z M138,27v-1.3h-5.4V27H138z"/>
	<path class="st0" d="M156.1,13.3c0.7-0.5,1.4-1.4,2.1-2.7l1.8,0.3l-0.3,0.5l-0.3,0.5h6v1.6H162l0.2,0.6l0.3,0.9l-1.8,0.3l-0.3-1.1
		l-0.2-0.7h-1.9l-0.5,0.7l-0.6,0.6l-1.1-1.3h-2.8l0.2,0.6l0.2,0.9l-1.9,0.3l-0.2-1.1l-0.2-0.8h-1.5l-0.2,0.2
		c-0.2,0.2-0.4,0.4-0.6,0.5l-1.1,0.8l-1.1-1.4c1.2-0.7,2.2-1.7,3-3l1.9,0.2l-0.4,0.6l-0.3,0.5h5L156.1,13.3L156.1,13.3z M155.1,16
		l-0.3-0.8c-0.1-0.3-0.3-0.5-0.4-0.8l1.8-0.2c0.2,0.3,0.3,0.6,0.4,0.9L157,16h8.2v4.4h-1.8v-2.8h-14.3v2.8h-1.8V16H155.1z
		 M162.7,18.7v4.2h-11.3V24h12v5.2h-1.7v-0.8h-10.2v0.8h-1.7V18.7H162.7z M161,20.1h-9.6v1.2h9.6V20.1z M161.6,25.4h-10.2v1.5h10.2
		V25.4z"/>
	<path class="st0" d="M175.9,24l1.1-0.5l1-0.5v2c-2.2,1-4.3,1.9-6.3,2.5l-0.3-2c0.1,0,0.3-0.1,0.4-0.1c1-0.2,1.7-0.5,2.1-0.7v-5.2
		h-2.3v-1.7h2.3v-4.3h-2.5v-1.8h6.4v1.8h-2.1v4.3h1.9v1.7h-1.9V24H175.9z M177.3,28.6v-1.7h5.7v-2.2h-4.2V23h4.2v-2h-4.3v-9.7h10.5
		V21h-4.4v2h4.5v1.7h-4.5v2.2h5.2v1.7C190,28.6,177.3,28.6,177.3,28.6z M183,15.3v-2.4h-2.5v2.4C180.5,15.3,183,15.3,183,15.3z
		 M183,19.4v-2.6h-2.5v2.6H183z M187.4,15.3v-2.4h-2.6v2.4C184.8,15.3,187.4,15.3,187.4,15.3z M187.4,19.4v-2.6h-2.6v2.6H187.4z"/>
</g>
<g>
	<path class="st0" d="M49.9,39.1c0-2.4,0-2.8,0-3.3s-0.2-0.8-0.7-0.9c-0.1,0-0.4,0-0.5,0s-0.1,0-0.1-0.1s0.1-0.1,0.2-0.1
		c0.7,0,1.6,0,1.7,0c0.4,0,1,0,1.7,0c2.5,0,3,1.5,3,2.3c0,1.2-0.7,2-1.4,2.7c1.1,0.3,2.6,1.4,2.6,3.2c0,1.6-1.3,3.3-3.9,3.3
		c-0.2,0-0.7,0-1.1,0c-0.4,0-0.9,0-0.9,0s-0.3,0-0.6,0s-0.7,0-0.9,0s-0.2,0-0.2-0.1c0,0,0-0.1,0.1-0.1s0.3,0,0.5-0.1
		c0.3-0.1,0.4-0.4,0.4-0.8c0.1-0.6,0.1-1.8,0.1-3.3C49.9,41.8,49.9,39.1,49.9,39.1z M51.1,39.4c0,0.1,0,0.1,0.1,0.2
		c0.1,0,0.4,0.1,0.9,0.1c0.9,0,1.1,0,1.4-0.4c0.3-0.4,0.5-0.9,0.5-1.5c0-1.3-0.6-2.6-2.1-2.6c-0.2,0-0.5,0-0.7,0.1
		c-0.1,0-0.2,0.1-0.2,0.2L51.1,39.4L51.1,39.4z M51.1,41c0,1.2,0,3.1,0,3.3c0,0.7,0,1,0.5,1.2c0.4,0.2,1.1,0.2,1.3,0.2
		c0.8,0,2.1-0.4,2.1-2.2c0-0.9-0.3-2.2-1.5-3c-0.5-0.3-0.9-0.4-1.3-0.4c-0.2,0-1,0-1.2,0c-0.1,0-0.1,0-0.1,0.1V41H51.1z"/>
	<path class="st0" d="M59.2,40.1c0-2,0-2.4,0-2.8c0-0.4-0.1-0.7-0.5-0.7c-0.1,0-0.3,0-0.5,0l-0.1-0.1c0-0.1,0.1-0.1,0.2-0.1
		c0.6,0,1.5,0,1.6,0s1.3,0,1.7,0c0.9,0,1.8,0.1,2.5,0.6c0.3,0.2,0.9,0.9,0.9,1.8c0,1-0.4,1.9-1.6,2.9c1.1,1.4,2,2.5,2.8,3.3
		c0.7,0.7,1.2,0.9,1.5,0.9s0.4,0,0.5,0s0.1,0.1,0.1,0.1c0,0.1-0.1,0.1-0.3,0.1h-1c-0.8,0-1.1-0.1-1.4-0.3C65,45.6,64.5,45,63.8,44
		c-0.6-0.7-1.2-1.5-1.4-1.9C62.3,42,62.3,42,62.2,42h-1.7c-0.1,0-0.1,0-0.1,0.1v0.3c0,1.2,0,2.2,0.1,2.8c0,0.4,0.1,0.6,0.5,0.7
		c0.2,0,0.5,0.1,0.6,0.1s0.1,0.1,0.1,0.1c0,0.1-0.1,0.1-0.2,0.1c-0.7,0-1.6,0-1.6,0s-0.9,0-1.3,0c-0.1,0-0.2,0-0.2-0.1
		c0,0,0-0.1,0.1-0.1s0.3,0,0.4-0.1c0.3-0.1,0.3-0.3,0.3-0.7c0.1-0.5,0.1-1.5,0.1-2.8L59.2,40.1L59.2,40.1z M60.4,41.2
		c0,0.1,0,0.1,0.1,0.2c0.2,0.1,0.9,0.2,1.5,0.2c0.3,0,0.7,0,1-0.2c0.5-0.3,0.8-1,0.8-2c0-1.6-0.9-2.5-2.3-2.5c-0.4,0-0.8,0-1,0.1
		c-0.1,0-0.1,0.1-0.1,0.2V41.2z"/>
	<path class="st0" d="M70.1,42.4c0,1.2,0,2.3,0.1,2.8c0,0.4,0.1,0.6,0.5,0.7c0.2,0,0.5,0.1,0.6,0.1s0.1,0.1,0.1,0.1
		c0,0.1-0.1,0.1-0.2,0.1c-0.7,0-1.6,0-1.7,0s-0.9,0-1.3,0c-0.1,0-0.2,0-0.2-0.1c0,0,0-0.1,0.1-0.1s0.3,0,0.4-0.1
		c0.3-0.1,0.3-0.3,0.3-0.7c0.1-0.5,0.1-1.5,0.1-2.8v-2.3c0-2,0-2.4,0-2.8c0-0.4-0.1-0.6-0.4-0.7c-0.2,0-0.3,0-0.4,0S68,36.5,68,36.5
		c0-0.1,0.1-0.1,0.2-0.1c0.4,0,1.3,0,1.4,0s0.9,0,1.3,0c0.2,0,0.2,0,0.2,0.1L71,36.6c-0.1,0-0.2,0-0.3,0c-0.4,0.1-0.4,0.3-0.5,0.7
		c0,0.4,0,0.8,0,2.8L70.1,42.4L70.1,42.4z"/>
	<path class="st0" d="M75.2,42.4c0,1.9,0,2.7,0.3,2.9c0.2,0.2,0.7,0.3,1.8,0.3c0.7,0,1.3,0,1.6-0.4c0.2-0.2,0.3-0.5,0.3-0.7
		c0-0.1,0.1-0.2,0.1-0.2c0.1,0,0.1,0.1,0.1,0.2c0,0.1-0.1,0.9-0.2,1.3c-0.1,0.3-0.1,0.3-0.9,0.3c-1,0-1.7,0-2.3,0
		c-0.6,0-1.1,0-1.5,0c-0.1,0-0.3,0-0.5,0c-0.3,0-0.6,0-0.8,0c-0.1,0-0.2,0-0.2-0.1c0,0,0-0.1,0.1-0.1s0.3,0,0.4-0.1
		c0.3-0.1,0.3-0.3,0.3-0.7c0.1-0.5,0.1-1.5,0.1-2.8V40c0-2,0-2.4,0-2.8c0-0.4-0.1-0.7-0.5-0.7c-0.1,0-0.3,0-0.5,0l-0.1-0.1
		c0-0.1,0.1-0.1,0.2-0.1c0.6,0,1.4,0,1.5,0s1.1,0,1.5,0c0.1,0,0.2,0,0.2,0.1l-0.1,0.1c-0.1,0-0.3,0-0.4,0c-0.4,0.1-0.5,0.3-0.5,0.7
		s0,0.8,0,2.8V42.4z"/>
	<path class="st0" d="M82.9,42.4c0,1.9,0,2.7,0.3,2.9c0.2,0.2,0.7,0.3,1.8,0.3c0.7,0,1.3,0,1.6-0.4c0.2-0.2,0.3-0.5,0.3-0.7
		c0-0.1,0.1-0.2,0.1-0.2c0.1,0,0.1,0.1,0.1,0.2c0,0.1-0.1,0.9-0.2,1.3c-0.1,0.3-0.1,0.3-0.9,0.3c-1,0-1.7,0-2.3,0
		c-0.6,0-1.1,0-1.5,0c-0.1,0-0.3,0-0.5,0c-0.3,0-0.6,0-0.8,0c-0.1,0-0.2,0-0.2-0.1c0,0,0-0.1,0.1-0.1s0.3,0,0.4-0.1
		c0.3-0.1,0.3-0.3,0.3-0.7c0.1-0.5,0.1-1.5,0.1-2.8V40c0-2,0-2.4,0-2.8c0-0.4-0.1-0.7-0.5-0.7c-0.1,0-0.3,0-0.5,0l-0.1-0.1
		c0-0.1,0.1-0.1,0.2-0.1c0.6,0,1.4,0,1.5,0s1.1,0,1.5,0c0.1,0,0.2,0,0.2,0.1l-0.1,0.1c-0.1,0-0.3,0-0.4,0c-0.4,0.1-0.5,0.3-0.5,0.7
		s0,0.8,0,2.8V42.4z"/>
	<path class="st0" d="M90.5,42.4c0,1.2,0,2.3,0.1,2.8c0,0.4,0.1,0.6,0.5,0.7c0.2,0,0.5,0.1,0.6,0.1s0.1,0.1,0.1,0.1
		c0,0.1-0.1,0.1-0.2,0.1c-0.7,0-1.6,0-1.7,0s-0.9,0-1.3,0c-0.1,0-0.2,0-0.2-0.1c0,0,0-0.1,0.1-0.1s0.3,0,0.4-0.1
		c0.3-0.1,0.3-0.3,0.3-0.7c0.1-0.5,0.1-1.5,0.1-2.8v-2.3c0-2,0-2.4,0-2.8c0-0.4-0.1-0.6-0.4-0.7c-0.2,0-0.3,0-0.4,0
		s-0.1-0.1-0.1-0.1c0-0.1,0.1-0.1,0.2-0.1c0.4,0,1.3,0,1.4,0s0.9,0,1.3,0c0.2,0,0.2,0,0.2,0.1l-0.1,0.1c-0.1,0-0.2,0-0.3,0
		c-0.4,0.1-0.4,0.3-0.5,0.7c0,0.4,0,0.8,0,2.8L90.5,42.4L90.5,42.4z"/>
	<path class="st0" d="M96.7,36.7c0.2-0.4,0.2-0.5,0.3-0.5c0.1,0,0.2,0.2,0.3,0.5c0.2,0.5,2.4,5.9,3.2,7.8c0.5,1.2,0.9,1.3,1.1,1.4
		c0.2,0.1,0.4,0.1,0.5,0.1s0.2,0,0.2,0.1s-0.2,0.1-0.3,0.1c-0.2,0-1.2,0-2.1,0c-0.3,0-0.5,0-0.5-0.1s0-0.1,0.1-0.1s0.2-0.1,0.1-0.3
		l-1.2-3c0-0.1,0-0.1-0.1-0.1h-3.1c-0.1,0-0.1,0-0.1,0.1l-0.8,2.1c-0.1,0.3-0.2,0.6-0.2,0.9c0,0.3,0.2,0.3,0.5,0.3h0.1
		c0.1,0,0.1,0,0.1,0.1s-0.1,0.1-0.2,0.1c-0.3,0-1,0-1.2,0c-0.1,0-0.8,0-1.4,0c-0.2,0-0.3,0-0.3-0.1s0.1-0.1,0.1-0.1
		c0.1,0,0.3,0,0.4,0c0.6-0.1,0.9-0.5,1.1-1.2L96.7,36.7z M98.2,42C98.3,42,98.3,42,98.2,42l-1.3-3.6c-0.1-0.2-0.2-0.2-0.2,0
		l-1.2,3.5c0,0.1,0,0.1,0,0.1H98.2z"/>
	<path class="st0" d="M104.2,44.4c0,1.1,0.2,1.4,0.5,1.5c0.2,0.1,0.5,0.1,0.7,0.1c0.1,0,0.1,0,0.1,0.1s-0.1,0.1-0.2,0.1
		c-0.8,0-1.3,0-1.4,0s-0.7,0-1.3,0c-0.1,0-0.2,0-0.2-0.1s0-0.1,0.1-0.1s0.3,0,0.5-0.1c0.3-0.1,0.4-0.4,0.4-1.6v-7.4
		c0-0.5,0.1-0.7,0.2-0.7c0.2,0,0.4,0.3,0.5,0.4c0.2,0.2,2.2,2.3,4.2,4.4c1.3,1.4,2.7,2.9,3.2,3.3l-0.1-6.5c0-0.8-0.1-1.1-0.5-1.2
		c-0.2,0-0.5-0.1-0.7-0.1c-0.1,0-0.1-0.1-0.1-0.1c0-0.1,0.1-0.1,0.3-0.1c0.6,0,1.2,0,1.4,0c0.2,0,0.6,0,1.1,0c0.1,0,0.2,0,0.2,0.1
		c0,0-0.1,0.1-0.2,0.1s-0.2,0-0.3,0c-0.4,0.1-0.5,0.3-0.5,1.1v7.6c0,0.9,0,0.9-0.1,0.9s-0.3-0.1-1-0.8c-0.1-0.1-2.1-2-3.5-3.5
		c-1.5-1.6-3.1-3.2-3.5-3.7L104.2,44.4z"/>
	<path class="st0" d="M118.7,42.4c0,1.2,0,2.3,0.1,2.8c0,0.4,0.1,0.6,0.5,0.7c0.2,0,0.5,0.1,0.6,0.1s0.1,0.1,0.1,0.1
		c0,0.1-0.1,0.1-0.2,0.1c-0.7,0-1.6,0-1.7,0s-1,0-1.4,0c-0.2,0-0.2,0-0.2-0.1c0,0,0-0.1,0.1-0.1s0.3,0,0.4-0.1
		c0.3-0.1,0.3-0.3,0.4-0.7c0.1-0.5,0.1-1.5,0.1-2.8V37h-1.9c-0.8,0-1.2,0.1-1.4,0.4c-0.2,0.2-0.2,0.3-0.2,0.4c0,0.1-0.1,0.1-0.1,0.1
		s-0.1,0-0.1-0.1s0.3-1.3,0.3-1.4c0-0.1,0.1-0.2,0.1-0.2c0.1,0,0.2,0.1,0.6,0.2c0.4,0,0.9,0.1,1,0.1h5c0.4,0,0.7,0,1-0.1
		c0.2,0,0.3-0.1,0.4-0.1s0.1,0.1,0.1,0.2c0,0.4,0,1.3,0,1.5c0,0.1-0.1,0.2-0.1,0.2s-0.1,0-0.1-0.2v-0.1c0-0.4-0.3-0.7-1.6-0.7h-1.7
		v5.2H118.7z"/>
	<path class="st0" d="M138.8,44.1L138.8,44.1c0.5-1.4,1.9-5.8,2.4-7.7c0.2-0.6,0.2-0.8,0.2-1c0-0.3-0.2-0.5-0.9-0.5
		c-0.1,0-0.1,0-0.1-0.1s0.1-0.1,0.3-0.1c0.8,0,1.4,0,1.5,0s0.8,0,1.2,0c0.1,0,0.2,0,0.2,0.1s0,0.1-0.1,0.1s-0.3,0-0.5,0.1
		c-0.5,0.2-0.7,0.8-1,1.6c-0.7,1.9-2.2,6.8-2.8,8.5c-0.4,1.1-0.5,1.3-0.6,1.3c-0.2,0-0.2-0.2-0.5-0.8l-3-8.5l0,0
		c-0.5,1.5-2.6,7-3.2,8.4c-0.2,0.6-0.3,0.8-0.5,0.8s-0.2-0.2-0.5-1.2l-2.7-9c-0.2-0.8-0.4-1-0.8-1.2c-0.2-0.1-0.6-0.1-0.7-0.1
		s-0.1,0-0.1-0.1s0.1-0.1,0.2-0.1c0.8,0,1.6,0,1.8,0c0.1,0,0.8,0,1.6,0c0.2,0,0.3,0,0.3,0.1s-0.1,0.1-0.2,0.1c-0.1,0-0.4,0-0.6,0.1
		c-0.1,0-0.2,0.2-0.2,0.4s0.1,0.7,0.3,1.4c0.2,1,1.8,6.5,2,7.4l0,0l3.2-8.7c0.2-0.6,0.3-0.7,0.4-0.7c0.1,0,0.2,0.2,0.4,0.7
		L138.8,44.1z"/>
	<path class="st0" d="M145.2,40.1c0-2,0-2.4,0-2.8c0-0.4-0.1-0.7-0.5-0.7c-0.1,0-0.3,0-0.5,0l-0.1-0.1c0-0.1,0.1-0.1,0.2-0.1
		c0.6,0,1.5,0,1.5,0c0.1,0,2.9,0,3.2,0s0.5-0.1,0.6-0.1s0.1-0.1,0.2-0.1l0.1,0.1c0,0.1-0.1,0.2-0.1,0.6c0,0.1,0,0.7-0.1,0.9
		c0,0.1-0.1,0.1-0.1,0.1c-0.1,0-0.1-0.1-0.1-0.2c0-0.1,0-0.3-0.1-0.5s-0.2-0.3-1-0.4c-0.2,0-1.8,0-1.9,0c-0.1,0-0.1,0-0.1,0.1v3.5
		c0,0.1,0,0.1,0.1,0.1c0.2,0,1.9,0,2.2,0s0.5,0,0.7-0.2c0.1-0.1,0.2-0.2,0.2-0.2s0.1,0,0.1,0.1s-0.1,0.3-0.1,0.7
		c0,0.3-0.1,0.7-0.1,0.8s0,0.2-0.1,0.2s-0.1,0-0.1-0.1s0-0.3-0.1-0.4c0-0.2-0.2-0.3-0.7-0.4c-0.4,0-1.8-0.1-2-0.1
		c-0.1,0-0.1,0-0.1,0.1v1.1c0,0.4,0,1.9,0,2.2c0,0.9,0.3,1,1.6,1c0.3,0,1,0,1.3-0.1c0.3-0.2,0.5-0.4,0.6-0.9c0-0.2,0.1-0.2,0.1-0.2
		s0.1,0.1,0.1,0.2c0,0.1-0.1,1-0.2,1.2c-0.1,0.3-0.2,0.3-0.7,0.3c-1,0-1.8,0-2.3,0c-0.6,0-0.9,0-1.1,0c0,0-0.3,0-0.6,0s-0.6,0-0.8,0
		c-0.1,0-0.2,0-0.2-0.1c0,0,0-0.1,0.1-0.1s0.3,0,0.4-0.1c0.3,0,0.3-0.3,0.3-0.7c0.1-0.5,0.1-1.5,0.1-2.8v-1.9H145.2z"/>
	<path class="st0" d="M155.1,36.7c0.2-0.4,0.2-0.5,0.3-0.5s0.2,0.2,0.3,0.5c0.2,0.5,2.4,5.9,3.2,7.8c0.5,1.2,0.9,1.3,1.1,1.4
		c0.2,0.1,0.4,0.1,0.5,0.1s0.2,0,0.2,0.1s-0.2,0.1-0.3,0.1c-0.2,0-1.2,0-2.1,0c-0.3,0-0.5,0-0.5-0.1s0-0.1,0.1-0.1s0.2-0.1,0.1-0.3
		l-1.2-3c0-0.1,0-0.1-0.1-0.1h-3.1c-0.1,0-0.1,0-0.1,0.1l-0.8,2.1c-0.1,0.3-0.2,0.6-0.2,0.9c0,0.3,0.2,0.3,0.5,0.3h0.1
		c0.1,0,0.1,0,0.1,0.1s-0.1,0.1-0.2,0.1c-0.3,0-1,0-1.2,0c-0.1,0-0.8,0-1.4,0c-0.2,0-0.3,0-0.3-0.1s0.1-0.1,0.1-0.1
		c0.1,0,0.3,0,0.4,0c0.6-0.1,0.9-0.5,1.1-1.2L155.1,36.7z M156.6,42C156.7,42,156.7,42,156.6,42l-1.3-3.6c-0.1-0.2-0.2-0.2-0.2,0
		l-1.2,3.5c0,0.1,0,0.1,0,0.1H156.6z"/>
	<path class="st0" d="M163.3,42.4c0,1.9,0,2.7,0.3,2.9c0.2,0.2,0.7,0.3,1.8,0.3c0.7,0,1.3,0,1.6-0.4c0.2-0.2,0.3-0.5,0.3-0.7
		c0-0.1,0.1-0.2,0.1-0.2c0.1,0,0.1,0.1,0.1,0.2c0,0.1-0.1,0.9-0.2,1.3c-0.1,0.3-0.1,0.3-0.9,0.3c-1,0-1.7,0-2.3,0s-1.1,0-1.5,0
		c-0.1,0-0.3,0-0.5,0c-0.3,0-0.6,0-0.8,0c-0.1,0-0.2,0-0.2-0.1c0,0,0-0.1,0.1-0.1s0.3,0,0.4-0.1c0.3-0.1,0.3-0.3,0.3-0.7
		c0.1-0.5,0.1-1.5,0.1-2.8V40c0-2,0-2.4,0-2.8c0-0.4-0.1-0.7-0.5-0.7c-0.1,0-0.3,0-0.5,0l-0.1-0.1c0-0.1,0.1-0.1,0.2-0.1
		c0.6,0,1.4,0,1.5,0s1.1,0,1.5,0c0.1,0,0.2,0,0.2,0.1l-0.1,0.1c-0.1,0-0.3,0-0.4,0c-0.4,0.1-0.5,0.3-0.5,0.7s0,0.8,0,2.8L163.3,42.4
		L163.3,42.4z"/>
	<path class="st0" d="M171.8,42.4c0,1.2,0,2.3,0.1,2.8c0,0.4,0.1,0.6,0.5,0.7c0.2,0,0.5,0.1,0.6,0.1s0.1,0.1,0.1,0.1
		c0,0.1-0.1,0.1-0.2,0.1c-0.7,0-1.6,0-1.7,0c-0.1,0-1,0-1.4,0c-0.2,0-0.2,0-0.2-0.1c0,0,0-0.1,0.1-0.1s0.3,0,0.4-0.1
		c0.3-0.1,0.3-0.3,0.4-0.7c0.1-0.5,0.1-1.5,0.1-2.8V37h-1.9c-0.8,0-1.2,0.1-1.4,0.4c-0.2,0.2-0.2,0.3-0.2,0.4c0,0.1-0.1,0.1-0.1,0.1
		s-0.1,0-0.1-0.1s0.3-1.3,0.3-1.4c0-0.1,0.1-0.2,0.1-0.2c0.1,0,0.2,0.1,0.6,0.2c0.4,0,0.9,0.1,1,0.1h5c0.4,0,0.7,0,1-0.1
		c0.2,0,0.3-0.1,0.4-0.1c0.1,0,0.1,0.1,0.1,0.2c0,0.4,0,1.3,0,1.5c0,0.1-0.1,0.2-0.1,0.2s-0.1,0-0.1-0.2v-0.1c0-0.4-0.3-0.7-1.6-0.7
		h-1.7v5.2H171.8z"/>
	<path class="st0" d="M185.8,42.4c0,1.2,0,2.3,0.1,2.8c0,0.4,0.1,0.6,0.5,0.7c0.2,0,0.5,0.1,0.6,0.1s0.1,0.1,0.1,0.1
		c0,0.1-0.1,0.1-0.2,0.1c-0.7,0-1.6,0-1.7,0c-0.1,0-0.9,0-1.3,0c-0.2,0-0.2,0-0.2-0.1c0,0,0-0.1,0.1-0.1s0.3,0,0.4-0.1
		c0.3-0.1,0.3-0.3,0.4-0.7c0.1-0.5,0.1-1.5,0.1-2.8v-1.3c0-0.1,0-0.1-0.1-0.1H179c0,0-0.1,0-0.1,0.1v1.3c0,1.2,0,2.2,0.1,2.8
		c0,0.4,0.1,0.6,0.5,0.7c0.2,0,0.5,0.1,0.6,0.1s0.1,0.1,0.1,0.1c0,0.1-0.1,0.1-0.2,0.1c-0.7,0-1.6,0-1.7,0c-0.1,0-0.9,0-1.3,0
		c-0.1,0-0.2,0-0.2-0.1c0,0,0-0.1,0.1-0.1s0.3,0,0.4-0.1c0.3-0.1,0.3-0.3,0.3-0.7c0.1-0.5,0.1-1.5,0.1-2.8v-2.3c0-2,0-2.4,0-2.8
		c0-0.4-0.1-0.7-0.5-0.7c-0.1,0-0.3,0-0.5,0l-0.1-0.1c0-0.1,0.1-0.1,0.2-0.1c0.6,0,1.5,0,1.5,0c0.1,0,0.9,0,1.3,0
		c0.2,0,0.2,0,0.2,0.1l-0.1,0.1c-0.1,0-0.2,0-0.3,0c-0.4,0.1-0.4,0.3-0.5,0.7c0,0.4,0,0.8,0,2.8v0.3c0,0.1,0,0.1,0.1,0.1h5.6
		c0,0,0.1,0,0.1-0.1v-0.3c0-2,0-2.4,0-2.8c0-0.4-0.1-0.7-0.5-0.7c-0.1,0-0.3,0-0.5,0c-0.1,0-0.1-0.1-0.1-0.1c0-0.1,0.1-0.1,0.2-0.1
		c0.6,0,1.5,0,1.5,0c0.1,0,0.9,0,1.3,0c0.2,0,0.2,0,0.2,0.1l-0.1,0.1c-0.1,0-0.2,0-0.3,0c-0.3,0.1-0.4,0.3-0.5,0.7
		c0,0.4,0,0.8,0,2.8v2.3H185.8z"/>
	<path class="st0" d="M206.1,44.2c0.1,0.5,0.2,1.4,0.8,1.6c0.4,0.1,0.8,0.1,1,0.1c0.1,0,0.1,0,0.1,0.1s-0.1,0.1-0.3,0.1
		c-0.3,0-2,0-2.5-0.1c-0.3,0-0.4-0.1-0.4-0.2c0-0.1,0-0.1,0.1-0.1s0.1-0.3,0.1-0.5l-0.7-7.9l0,0l-3.7,7.9c-0.3,0.7-0.4,0.8-0.5,0.8
		s-0.2-0.2-0.5-0.7c-0.4-0.7-1.7-3.4-1.8-3.5c-0.1-0.3-1.8-3.9-2-4.3h-0.1l-0.6,7c0,0.2,0,0.5,0,0.8c0,0.2,0.2,0.4,0.4,0.5
		c0.3,0.1,0.5,0.1,0.6,0.1s0.1,0,0.1,0.1s-0.1,0.1-0.3,0.1c-0.6,0-1.3,0-1.4,0c-0.1,0-0.9,0-1.3,0c-0.2,0-0.3,0-0.3-0.1
		c0,0,0.1-0.1,0.2-0.1c0.1,0,0.2,0,0.5,0c0.5-0.1,0.5-0.7,0.6-1.3l1.1-9.9c0-0.2,0.1-0.3,0.2-0.3s0.2,0.1,0.2,0.2l4.6,9.6l4.5-9.5
		c0.1-0.1,0.1-0.2,0.2-0.2c0.1,0,0.2,0.1,0.2,0.4L206.1,44.2z"/>
	<path class="st0" d="M212.3,36.7c0.2-0.4,0.2-0.5,0.3-0.5s0.2,0.2,0.3,0.5c0.2,0.5,2.4,5.9,3.2,7.8c0.5,1.2,0.9,1.3,1.1,1.4
		c0.2,0.1,0.4,0.1,0.5,0.1s0.2,0,0.2,0.1s-0.2,0.1-0.3,0.1c-0.2,0-1.2,0-2.1,0c-0.3,0-0.5,0-0.5-0.1s0-0.1,0.1-0.1s0.2-0.1,0.1-0.3
		l-1.2-3c0-0.1,0-0.1-0.1-0.1h-3.1c-0.1,0-0.1,0-0.1,0.1l-0.8,2.1c-0.1,0.3-0.2,0.6-0.2,0.9c0,0.3,0.2,0.3,0.5,0.3h0.1
		c0.1,0,0.1,0,0.1,0.1s-0.1,0.1-0.2,0.1c-0.3,0-1,0-1.2,0c-0.1,0-0.8,0-1.4,0c-0.2,0-0.3,0-0.3-0.1s0.1-0.1,0.1-0.1
		c0.1,0,0.3,0,0.4,0c0.6-0.1,0.9-0.5,1.1-1.2L212.3,36.7z M213.8,42L213.8,42l-1.3-3.6c-0.1-0.2-0.2-0.2-0.2,0l-1.2,3.5
		c0,0.1,0,0.1,0,0.1H213.8z"/>
	<path class="st0" d="M219.8,44.4c0,1.1,0.2,1.4,0.5,1.5c0.2,0.1,0.5,0.1,0.7,0.1c0.1,0,0.1,0,0.1,0.1s-0.1,0.1-0.2,0.1
		c-0.8,0-1.3,0-1.4,0c-0.1,0-0.7,0-1.3,0c-0.1,0-0.2,0-0.2-0.1s0-0.1,0.1-0.1s0.3,0,0.5-0.1c0.3-0.1,0.4-0.4,0.4-1.6v-7.4
		c0-0.5,0.1-0.7,0.2-0.7c0.2,0,0.4,0.3,0.5,0.4c0.2,0.2,2.2,2.3,4.2,4.4c1.3,1.4,2.7,2.9,3.2,3.3l-0.1-6.5c0-0.8-0.1-1.1-0.5-1.2
		c-0.2,0-0.5-0.1-0.7-0.1c-0.1,0-0.1-0.1-0.1-0.1c0-0.1,0.1-0.1,0.3-0.1c0.6,0,1.2,0,1.4,0s0.6,0,1.1,0c0.1,0,0.2,0,0.2,0.1
		c0,0-0.1,0.1-0.2,0.1c-0.1,0-0.2,0-0.3,0c-0.4,0.1-0.5,0.3-0.5,1.1v7.6c0,0.9,0,0.9-0.1,0.9s-0.3-0.1-1-0.8c-0.1-0.1-2.1-2-3.5-3.5
		c-1.5-1.6-3.1-3.2-3.5-3.7L219.8,44.4z"/>
	<path class="st0" d="M233.4,36.7c0.2-0.4,0.2-0.5,0.3-0.5s0.2,0.2,0.3,0.5c0.2,0.5,2.4,5.9,3.2,7.8c0.5,1.2,0.9,1.3,1.1,1.4
		c0.2,0.1,0.4,0.1,0.5,0.1s0.2,0,0.2,0.1s-0.2,0.1-0.3,0.1c-0.2,0-1.2,0-2.1,0c-0.3,0-0.5,0-0.5-0.1s0-0.1,0.1-0.1s0.2-0.1,0.1-0.3
		l-1.2-3c0-0.1,0-0.1-0.1-0.1h-3c-0.1,0-0.1,0-0.1,0.1l-0.8,2.1c-0.1,0.3-0.2,0.6-0.2,0.9c0,0.3,0.2,0.3,0.5,0.3h0.1
		c0.1,0,0.1,0,0.1,0.1s-0.1,0.1-0.2,0.1c-0.3,0-1,0-1.2,0c-0.1,0-0.8,0-1.4,0c-0.2,0-0.3,0-0.3-0.1s0.1-0.1,0.1-0.1
		c0.1,0,0.3,0,0.4,0c0.6-0.1,0.9-0.5,1.1-1.2L233.4,36.7z M234.9,42C235,42,235,42,234.9,42l-1.3-3.6c-0.1-0.2-0.2-0.2-0.2,0
		l-1.2,3.5c0,0.1,0,0.1,0,0.1H234.9z"/>
	<path class="st0" d="M246.6,42.9c0-1,0-1.2-0.6-1.3c-0.1,0-0.3,0-0.5,0l-0.1-0.1c0-0.1,0.1-0.1,0.2-0.1c0.6,0,1.5,0,1.6,0
		s0.9,0,1.3,0c0.2,0,0.2,0,0.2,0.1l-0.1,0.1c-0.1,0-0.2,0-0.3,0c-0.4,0.1-0.5,0.3-0.5,0.7s0,0.8,0,1.3V45c0,0.6,0,0.6-0.2,0.7
		c-0.9,0.4-2.1,0.6-2.8,0.6c-1,0-2.9-0.1-4.4-1.4c-0.8-0.7-1.6-2.1-1.6-3.7c0-2.1,1-3.5,2.2-4.2s2.5-0.8,3.6-0.8
		c0.9,0,1.8,0.2,2.1,0.2c0.3,0.1,0.7,0.1,1.1,0.1c0.1,0,0.2,0.1,0.2,0.1c0,0.2-0.1,0.5-0.1,1.8c0,0.2-0.1,0.3-0.2,0.3
		c-0.1,0-0.1-0.1-0.1-0.2c0-0.2-0.1-0.5-0.3-0.9c-0.3-0.5-1.4-1-3.1-1c-0.8,0-1.8,0.1-2.8,0.8c-0.8,0.6-1.3,1.7-1.3,3.3
		c0,1.8,0.9,3.1,1.4,3.6c1.1,1,2.2,1.4,3.4,1.4c0.5,0,1.1,0,1.4-0.2c0.2-0.1,0.3-0.2,0.3-0.4L246.6,42.9L246.6,42.9z"/>
	<path class="st0" d="M251.4,40.1c0-2,0-2.4,0-2.8c0-0.4-0.1-0.7-0.5-0.7c-0.1,0-0.3,0-0.5,0l-0.1-0.1c0-0.1,0.1-0.1,0.2-0.1
		c0.6,0,1.5,0,1.5,0c0.1,0,2.9,0,3.2,0s0.5-0.1,0.6-0.1s0.1-0.1,0.2-0.1l0.1,0.1c0,0.1-0.1,0.2-0.1,0.6c0,0.1,0,0.7-0.1,0.9
		c0,0.1-0.1,0.1-0.1,0.1c-0.1,0-0.1-0.1-0.1-0.2c0-0.1,0-0.3-0.1-0.5s-0.2-0.3-1-0.4c-0.2,0-1.8,0-1.9,0c-0.1,0-0.1,0-0.1,0.1v3.5
		c0,0.1,0,0.1,0.1,0.1c0.2,0,1.9,0,2.2,0s0.5,0,0.7-0.2c0.1-0.1,0.2-0.2,0.2-0.2s0.1,0,0.1,0.1s-0.1,0.3-0.1,0.7
		c0,0.3-0.1,0.7-0.1,0.8s0,0.2-0.1,0.2s-0.1,0-0.1-0.1s0-0.3-0.1-0.4c0-0.2-0.2-0.3-0.7-0.4c-0.4,0-1.8-0.1-2-0.1
		c-0.1,0-0.1,0-0.1,0.1v1.1c0,0.4,0,1.9,0,2.2c0,0.9,0.3,1,1.6,1c0.3,0,1,0,1.3-0.1c0.3-0.2,0.5-0.4,0.6-0.9c0-0.2,0.1-0.2,0.1-0.2
		c0.1,0,0.1,0.1,0.1,0.2c0,0.1-0.1,1-0.2,1.2c-0.1,0.3-0.2,0.3-0.7,0.3c-1,0-1.8,0-2.3,0c-0.6,0-0.9,0-1.1,0c0,0-0.3,0-0.6,0
		s-0.6,0-0.8,0c-0.1,0-0.2,0-0.2-0.1c0,0,0-0.1,0.1-0.1s0.3,0,0.4-0.1c0.3,0,0.3-0.3,0.3-0.7c0.1-0.5,0.1-1.5,0.1-2.8v-1.9H251.4z"
		/>
	<path class="st0" d="M269.3,44.5c0,0.5,0.1,1.2,0.7,1.3c0.4,0.1,0.7,0.1,0.9,0.1c0.1,0,0.1,0,0.1,0.1s-0.1,0.1-0.3,0.1
		c-0.3,0-1.8,0-2.3-0.1c-0.3,0-0.4-0.1-0.4-0.1s0-0.1,0.1-0.1s0.1-0.2,0.1-0.5l-0.6-6.6l0,0l-3.2,6.6c-0.3,0.6-0.3,0.7-0.5,0.7
		c-0.1,0-0.2-0.1-0.5-0.6c-0.3-0.6-1.2-2.3-1.6-3c-0.4-0.8-1.5-3-1.7-3.5H260l-0.5,5.8c0,0.2,0,0.4,0,0.7c0,0.2,0.1,0.3,0.3,0.4
		c0.2,0.1,0.4,0.1,0.5,0.1c0,0,0.1,0,0.1,0.1s-0.1,0.1-0.2,0.1c-0.5,0-1.1,0-1.2,0s-0.8,0-1.1,0c-0.1,0-0.2,0-0.2-0.1l0.1-0.1
		c0.1,0,0.2,0,0.4,0c0.4-0.1,0.5-0.5,0.5-1l1-8.4c0-0.1,0.1-0.2,0.2-0.2s0.2,0,0.3,0.2l4,8l3.9-8c0.1-0.1,0.1-0.2,0.2-0.2
		s0.2,0.1,0.2,0.3L269.3,44.5z"/>
	<path class="st0" d="M272.8,40.1c0-2,0-2.4,0-2.8c0-0.4-0.1-0.7-0.5-0.7c-0.1,0-0.3,0-0.5,0l-0.1-0.1c0-0.1,0.1-0.1,0.2-0.1
		c0.6,0,1.5,0,1.5,0c0.1,0,2.9,0,3.2,0c0.3,0,0.5-0.1,0.6-0.1s0.1-0.1,0.2-0.1l0.1,0.1c0,0.1-0.1,0.2-0.1,0.6c0,0.1,0,0.7-0.1,0.9
		c0,0.1-0.1,0.1-0.1,0.1c-0.1,0-0.1-0.1-0.1-0.2c0-0.1,0-0.3-0.1-0.5s-0.2-0.3-1-0.4c-0.2,0-1.8,0-1.9,0s-0.1,0-0.1,0.1v3.5
		c0,0.1,0,0.1,0.1,0.1c0.2,0,1.9,0,2.2,0c0.3,0,0.5,0,0.7-0.2c0.1-0.1,0.2-0.2,0.2-0.2s0.1,0,0.1,0.1s-0.1,0.3-0.1,0.7
		c0,0.3-0.1,0.7-0.1,0.8s0,0.2-0.1,0.2s-0.1,0-0.1-0.1s0-0.3-0.1-0.4c0-0.2-0.2-0.3-0.7-0.4c-0.4,0-1.8-0.1-2-0.1
		c-0.1,0-0.1,0-0.1,0.1v1.1c0,0.4,0,1.9,0,2.2c0,0.9,0.3,1,1.6,1c0.3,0,1,0,1.3-0.1c0.3-0.2,0.5-0.4,0.6-0.9c0-0.2,0.1-0.2,0.1-0.2
		c0.1,0,0.1,0.1,0.1,0.2c0,0.1-0.1,1-0.2,1.2c-0.1,0.3-0.2,0.3-0.7,0.3c-1,0-1.8,0-2.3,0c-0.6,0-0.9,0-1.1,0c0,0-0.3,0-0.6,0
		c-0.3,0-0.6,0-0.8,0c-0.1,0-0.2,0-0.2-0.1c0,0,0-0.1,0.1-0.1s0.3,0,0.4-0.1c0.3,0,0.3-0.3,0.3-0.7c0.1-0.5,0.1-1.5,0.1-2.8v-1.9
		H272.8z"/>
	<path class="st0" d="M281.2,44.4c0,1.1,0.2,1.4,0.5,1.5c0.2,0.1,0.5,0.1,0.7,0.1c0.1,0,0.1,0,0.1,0.1s-0.1,0.1-0.2,0.1
		c-0.8,0-1.3,0-1.4,0s-0.7,0-1.3,0c-0.1,0-0.2,0-0.2-0.1s0-0.1,0.1-0.1s0.3,0,0.5-0.1c0.3-0.1,0.4-0.4,0.4-1.6v-7.4
		c0-0.5,0.1-0.7,0.2-0.7c0.2,0,0.4,0.3,0.5,0.4c0.2,0.2,2.2,2.3,4.2,4.4c1.3,1.4,2.7,2.9,3.2,3.3l-0.1-6.5c0-0.8-0.1-1.1-0.5-1.2
		c-0.2,0-0.5-0.1-0.7-0.1c-0.1,0-0.1-0.1-0.1-0.1c0-0.1,0.1-0.1,0.3-0.1c0.6,0,1.2,0,1.4,0s0.6,0,1.1,0c0.1,0,0.2,0,0.2,0.1
		c0,0-0.1,0.1-0.2,0.1s-0.2,0-0.3,0c-0.4,0.1-0.5,0.3-0.5,1.1v7.6c0,0.9,0,0.9-0.1,0.9s-0.3-0.1-1-0.8c-0.1-0.1-2.1-2-3.5-3.5
		c-1.5-1.6-3.1-3.2-3.5-3.7L281.2,44.4z"/>
	<path class="st0" d="M295.7,42.4c0,1.2,0,2.3,0.1,2.8c0,0.4,0.1,0.6,0.5,0.7c0.2,0,0.5,0.1,0.6,0.1s0.1,0.1,0.1,0.1
		c0,0.1-0.1,0.1-0.2,0.1c-0.7,0-1.6,0-1.7,0s-1,0-1.4,0c-0.2,0-0.2,0-0.2-0.1c0,0,0-0.1,0.1-0.1s0.3,0,0.4-0.1
		c0.3-0.1,0.3-0.3,0.4-0.7c0.1-0.5,0.1-1.5,0.1-2.8V37h-1.9c-0.8,0-1.2,0.1-1.4,0.4c-0.2,0.2-0.2,0.3-0.2,0.4c0,0.1-0.1,0.1-0.1,0.1
		s-0.1,0-0.1-0.1s0.3-1.3,0.3-1.4c0-0.1,0.1-0.2,0.1-0.2c0.1,0,0.2,0.1,0.6,0.2c0.4,0,0.9,0.1,1,0.1h5c0.4,0,0.7,0,1-0.1
		c0.2,0,0.3-0.1,0.4-0.1s0.1,0.1,0.1,0.2c0,0.4,0,1.3,0,1.5c0,0.1-0.1,0.2-0.1,0.2c-0.1,0-0.1,0-0.1-0.2v-0.1c0-0.4-0.3-0.7-1.6-0.7
		h-1.7L295.7,42.4L295.7,42.4z"/>
</g>
</svg>
