<?xml version="1.0" encoding="utf-8"?>
<!-- Generator: Adobe Illustrator 18.1.1, SVG Export Plug-In . SVG Version: 6.00 Build 0)  -->
<svg version="1.1" id="Layer_1" xmlns="http://www.w3.org/2000/svg" xmlns:xlink="http://www.w3.org/1999/xlink" x="0px" y="0px"
	 viewBox="27.6 287.5 551.5 201.1" enable-background="new 27.6 287.5 551.5 201.1" xml:space="preserve">
<g>
	<g>
		<polygon fill="#BE9A5C" points="188,408.4 107.8,488.6 107.8,448.8 147.9,408.4 		"/>
		
			<linearGradient id="SVGID_1_" gradientUnits="userSpaceOnUse" x1="100.0452" y1="678.9732" x2="74.2495" y2="679.4509" gradientTransform="matrix(1.7363 0 0 -1.7363 0 1567.4562)">
			<stop  offset="0" style="stop-color:#969696"/>
			<stop  offset="1" style="stop-color:#DCDCDC"/>
		</linearGradient>
		<polygon fill="url(#SVGID_1_)" points="147.6,367.7 188,408.4 147.9,408.4 107.8,367.7 		"/>
		<polygon fill="#BE9A5C" points="27.8,408.4 148.1,287.5 148.1,327.6 67.5,408.4 		"/>
		
			<linearGradient id="SVGID_2_" gradientUnits="userSpaceOnUse" x1="38.8155" y1="644.3065" x2="54.0777" y2="656.1771" gradientTransform="matrix(1.7363 0 0 -1.7363 0 1567.4562)">
			<stop  offset="0" style="stop-color:#969696"/>
			<stop  offset="1" style="stop-color:#DCDCDC"/>
		</linearGradient>
		<polygon fill="url(#SVGID_2_)" points="107.8,488.6 27.6,408.4 67.5,408.4 107.8,448.8 		"/>
	</g>
	<path fill="#575756" d="M227.3,437.2c0-6.3,0-7.3-0.2-8.7c0-1.4-0.3-2.1-1.7-2.3c-0.3-0.2-1-0.2-1.4-0.2c-0.2,0-0.3-0.2-0.3-0.2
		c0-0.2,0.2-0.3,0.7-0.3c1.7,0,4.3,0.2,4.5,0.2c1,0,2.4-0.2,4.3-0.2c6.6,0,8,4,8,5.9c0,3.3-1.9,5.2-3.8,7.1c3,0.9,6.9,3.8,6.9,8.5
		c0,4.3-3.3,8.7-10.2,8.7c-0.3,0-1.7,0-3-0.2c-1.2,0-2.3-0.2-2.4-0.2c-0.2,0-0.7,0-1.6,0s-1.7,0-2.3,0c-0.3,0-0.7,0-0.7-0.3
		c0-0.2,0.2-0.2,0.3-0.2c0.3,0,0.9,0,1.2-0.2c0.9-0.2,1-1,1.2-2.3c0.2-1.7,0.2-4.9,0.2-8.7l0,0v-6.6H227.3L227.3,437.2z
		 M230.4,438.1c0,0.3,0,0.3,0.3,0.3c0.2,0,1,0.2,2.4,0.2c2.3,0,2.8,0,3.6-1c0.9-1,1.4-2.4,1.4-4c0-3.3-1.6-6.9-5.4-6.9
		c-0.5,0-1.2,0-1.9,0.2c-0.3,0-0.5,0.2-0.5,0.5l0,0L230.4,438.1L230.4,438.1L230.4,438.1z M230.4,442.2c0,3.1,0,8,0,8.7
		c0.2,1.9,0.2,2.6,1.4,3.1c1,0.5,2.8,0.5,3.5,0.5c2.1,0,5.7-1.2,5.7-5.7c0-2.4-0.9-5.9-3.8-8c-1.4-0.9-2.4-1-3.3-1.2
		c-0.5,0-2.6,0-3.1,0c-0.2,0-0.2,0-0.2,0.3l0,0v2.3H230.4z M252.1,440c0-5.2,0-6.3,0-7.3c-0.2-1.2-0.3-1.7-1.4-1.9
		c-0.3,0-0.9-0.2-1.2-0.2c-0.2,0-0.3-0.2-0.3-0.3c0-0.2,0.2-0.3,0.5-0.3c1.6,0,4,0,4.2,0c0.3,0,3.3,0,4.3,0c2.3,0,4.7,0.2,6.6,1.6
		c0.9,0.7,2.4,2.3,2.4,4.7c0,2.6-1,5-4.3,7.8c3,3.6,5.4,6.6,7.3,8.9c1.9,1.9,3.1,2.3,4,2.4c0.7,0.2,1,0.2,1.2,0.2
		c0.2,0,0.3,0.2,0.3,0.3c0,0.2-0.2,0.3-0.9,0.3l0,0h-2.3l0,0c-2.1,0-3-0.2-3.8-0.7c-1.6-0.9-2.8-2.4-4.9-5c-1.6-1.9-3.1-4-3.8-5
		c-0.2-0.2-0.2-0.2-0.5-0.2l0,0h-4.5l0,0c-0.2,0-0.2,0-0.2,0.3l0,0v0.9l0,0c0,3.3,0,5.9,0.2,7.3c0.2,1,0.3,1.6,1.4,1.7
		c0.5,0,1.2,0.2,1.6,0.2c0.2,0,0.3,0.2,0.3,0.3c0,0.2-0.2,0.3-0.5,0.3c-1.9,0-4.2-0.2-4.3-0.2c0,0-2.4,0.2-3.5,0.2
		c-0.3,0-0.5,0-0.5-0.3c0-0.2,0.2-0.3,0.3-0.3c0.3,0,0.7,0,1-0.2c0.7-0.2,0.7-0.9,0.9-1.7c0.2-1.4,0.2-4,0.2-7.3l0,0V440H252.1
		L252.1,440z M255.2,442.8c0,0.2,0.2,0.3,0.2,0.3c0.5,0.3,2.3,0.5,3.8,0.5c0.9,0,1.7,0,2.6-0.7c1.2-0.9,2.1-2.6,2.1-5.2
		c0-4.2-2.3-6.6-6.1-6.6c-1,0-2.1,0.2-2.4,0.2c-0.2,0-0.3,0.2-0.3,0.3l0,0v11.1H255.2z M281.3,445.9V440l0,0c0-5.2,0-6.3,0-7.3
		c0-1.2,0.3-1.7,1.2-1.9c0.3-0.2,0.7-0.2,0.9-0.2s0.3-0.2,0.3-0.3c0-0.2-0.2-0.3-0.5-0.3c-1,0-3.3,0.2-3.5,0.2
		c-0.2,0-2.4-0.2-3.5-0.2c-0.3,0-0.5,0.2-0.5,0.3c0,0.2,0.2,0.3,0.3,0.3c0.2,0,0.7,0,1,0.2c0.7,0.2,1,0.7,1,1.9c0,1,0,2.1,0,7.3l0,0
		v6.1l0,0c0,3.3,0,5.9-0.2,7.3c-0.2,1-0.2,1.6-0.9,1.7c-0.3,0-0.7,0.2-1,0.2c-0.2,0-0.3,0.2-0.3,0.3c0,0.2,0.2,0.3,0.5,0.3
		c1,0,3.3-0.2,3.5-0.2c0.2,0,2.4,0.2,4.3,0.2c0.3,0,0.5-0.2,0.5-0.3c0-0.2,0-0.3-0.3-0.3s-1,0-1.6-0.2c-1-0.2-1.2-0.9-1.2-1.7
		C281.3,451.8,281.3,449.2,281.3,445.9L281.3,445.9z M295,446.1V440l0,0c0-5.2,0-6.3,0-7.3c0-1.2,0.3-1.7,1.4-1.9c0.3,0,0.9,0,1.2,0
		c0.2,0,0.3-0.2,0.3-0.2c0-0.2-0.2-0.3-0.5-0.3c-1,0-3.6,0.2-3.8,0.2c-0.2,0-2.4-0.2-4-0.2c-0.3,0-0.5,0.2-0.5,0.3
		c0,0.2,0.2,0.3,0.3,0.3c0.3,0,0.9,0,1.2,0.2c1.2,0.2,1.4,0.7,1.4,1.9c0,1,0,2.1,0,7.3l0,0v6.1l0,0c0,3.3,0,5.9-0.2,7.3
		c-0.2,1-0.2,1.6-0.9,1.7c-0.3,0-0.7,0.2-1,0.2c-0.2,0-0.3,0.2-0.3,0.3c0,0.2,0.2,0.3,0.5,0.3c0.5,0,1.4,0,2.1,0s1.2,0,1.4,0
		c1,0,2.3,0,3.8,0c1.6,0,3.6,0.2,6.1,0.2c1.9,0,2.1-0.2,2.3-0.9c0.3-1,0.5-3.1,0.5-3.5s0-0.5-0.2-0.5s-0.3,0.2-0.3,0.3
		c-0.2,0.7-0.3,1.4-0.9,1.9c-0.9,1-2.4,1-4.2,1c-2.8,0-4.2-0.2-4.7-0.9C295,453,295,450.9,295,446.1L295,446.1z M315.3,446.1V440
		l0,0c0-5.2,0-6.3,0-7.3c0-1.2,0.3-1.7,1.4-1.9c0.3,0,0.9,0,1.2,0c0.2,0,0.3-0.2,0.3-0.2c0-0.2-0.2-0.3-0.5-0.3
		c-1,0-3.6,0.2-3.8,0.2c-0.2,0-2.4-0.2-4-0.2c-0.3,0-0.5,0.2-0.5,0.3c0,0.2,0.2,0.3,0.3,0.3c0.3,0,0.9,0,1.2,0.2
		c1.2,0.2,1.4,0.7,1.4,1.9c0,1,0,2.1,0,7.3l0,0v6.1l0,0c0,3.3,0,5.9-0.2,7.3c-0.2,1-0.2,1.6-0.9,1.7c-0.3,0-0.7,0.2-1,0.2
		c-0.2,0-0.3,0.2-0.3,0.3c0,0.2,0.2,0.3,0.5,0.3c0.5,0,1.4,0,2.1,0s1.2,0,1.4,0c1,0,2.3,0,3.8,0s3.6,0.2,6.1,0.2
		c1.9,0,2.1-0.2,2.3-0.9c0.3-1,0.5-3.1,0.5-3.5s-0.2-0.5-0.2-0.5c-0.2,0-0.3,0.2-0.3,0.3c-0.2,0.7-0.3,1.4-0.9,1.9
		c-0.9,1-2.4,1-4.2,1c-2.8,0-4.2-0.2-4.7-0.9C315.5,453,315.3,450.9,315.3,446.1L315.3,446.1z M335.8,445.9V440l0,0
		c0-5.2,0-6.3,0-7.3c0-1.2,0.3-1.7,1.2-1.9c0.3-0.2,0.7-0.2,0.9-0.2s0.3-0.2,0.3-0.3c0-0.2-0.2-0.3-0.5-0.3c-1,0-3.3,0.2-3.5,0.2
		s-2.4-0.2-3.5-0.2c-0.3,0-0.5,0.2-0.5,0.3c0,0.2,0.2,0.3,0.3,0.3c0.2,0,0.7,0,1,0.2c0.7,0.2,1,0.7,1,1.9c0,1,0,2.1,0,7.3l0,0v6.1
		l0,0c0,3.3,0,5.9-0.2,7.3c-0.2,1-0.2,1.6-0.9,1.7c-0.3,0-0.7,0.2-1,0.2c-0.2,0-0.3,0.2-0.3,0.3c0,0.2,0.2,0.3,0.5,0.3
		c1,0,3.3-0.2,3.5-0.2s2.4,0.2,4.3,0.2c0.3,0,0.5-0.2,0.5-0.3c0-0.2,0-0.3-0.3-0.3s-1,0-1.6-0.2c-1-0.2-1.2-0.9-1.2-1.7
		C335.8,451.8,335.8,449.2,335.8,445.9L335.8,445.9z M352.5,430.8c0.3-1,0.5-1.4,0.9-1.4s0.5,0.5,0.9,1.2c0.7,1.4,6.3,15.5,8.5,20.7
		c1.2,3.1,2.3,3.5,3,3.6c0.5,0.2,1,0.2,1.4,0.2c0.2,0,0.5,0.2,0.5,0.3c0,0.2-0.3,0.3-0.9,0.3s-3.1,0-5.6,0c-0.7,0-1.2,0-1.2-0.2
		c0-0.2,0-0.2,0.2-0.2s0.5-0.3,0.3-0.9l0,0l-3.1-7.8l0,0c0-0.2-0.2-0.2-0.3-0.2l0,0h-8.2l0,0c-0.2,0-0.3,0.2-0.3,0.3l0,0l-2.1,5.4
		l0,0c-0.3,0.9-0.5,1.7-0.5,2.3c0,0.7,0.5,0.9,1.2,0.9l0,0h0.3l0,0c0.3,0,0.3,0.2,0.3,0.3c0,0.2-0.2,0.3-0.5,0.3
		c-0.9,0-2.8-0.2-3.1-0.2s-2.1,0.2-3.6,0.2c-0.5,0-0.7,0-0.7-0.3c0-0.2,0.2-0.3,0.3-0.3c0.2,0,0.7,0,1,0c1.6-0.2,2.3-1.4,3-3.1l0,0
		L352.5,430.8L352.5,430.8L352.5,430.8z M356.3,444.8c0.2,0,0.2,0,0.2-0.2l0,0l-3.5-9.4l0,0c-0.2-0.5-0.3-0.5-0.5,0l0,0l-3.3,9.4
		l0,0c0,0.2,0,0.2,0.2,0.2l0,0H356.3L356.3,444.8z M372.4,451.1l-0.3-16l0,0c1,1.2,5,5.4,9,9.5c3.8,3.8,8.9,8.9,9.2,9.2
		c1.9,1.7,2.3,2.1,2.6,2.1c0.2,0,0.3-0.2,0.3-2.4l0,0l0.2-20l0,0c0-2.1,0.2-2.8,1.2-3c0.3-0.2,0.7-0.2,0.9-0.2s0.3-0.2,0.3-0.3
		c0-0.2-0.3-0.2-0.7-0.2c-1.4,0-2.6,0.2-3,0.2s-2.1-0.2-3.6-0.2c-0.3,0-0.7,0-0.7,0.2c0,0.2,0,0.3,0.3,0.3s1,0,1.7,0.2
		c1,0.2,1.2,1,1.4,3.1l0,0l0.3,17l0,0c-1-1-4.9-5.2-8.3-8.9c-5.4-5.6-10.6-10.9-11.1-11.6c-0.3-0.3-1-1-1.4-1s-0.5,0.3-0.5,1.7l0,0
		v19.4l0,0c0,3.1-0.2,4-1,4.2c-0.5,0.2-1.2,0.2-1.4,0.2s-0.3,0.2-0.3,0.3c0,0.2,0.2,0.3,0.5,0.3c1.6,0,3.1-0.2,3.5-0.2
		s1.7,0.2,3.6,0.2c0.3,0,0.7,0,0.7-0.3c0-0.2-0.2-0.3-0.3-0.3c-0.3,0-1,0-1.7-0.2C373,454.7,372.6,453.9,372.4,451.1L372.4,451.1z
		 M411,445.9v-14.2h4.3l0,0c3.3,0,4.2,0.9,4.2,1.9l0,0v0.3l0,0c0,0.5,0.2,0.5,0.3,0.5c0.2,0,0.3-0.2,0.3-0.3c0-0.3,0.2-2.8,0.2-3.8
		c0-0.2,0-0.3-0.2-0.3s-0.5,0-1,0.2c-0.5,0-1.4,0.2-2.4,0.2l0,0h-13.2l0,0c-0.3,0-1.7,0-2.8-0.2c-1-0.2-1.4-0.3-1.6-0.3
		c-0.2,0-0.3,0.3-0.3,0.7c0,0.3-0.7,3.3-0.7,3.6c0,0.2,0.2,0.3,0.2,0.3c0.2,0,0.3,0,0.3-0.3c0.2-0.2,0.2-0.5,0.5-1
		c0.5-0.9,1.4-1,3.6-1l0,0h5v14.2l0,0c0,3.3,0,5.9-0.2,7.3c-0.2,1-0.3,1.7-1,1.9c-0.3,0-0.7,0.2-1,0.2c-0.2,0-0.3,0.2-0.3,0.2
		c0,0.2,0.2,0.3,0.5,0.3c1,0,3.5-0.2,3.6-0.2s2.4,0.2,4.3,0.2c0.3,0,0.5-0.2,0.5-0.3c0-0.2,0-0.3-0.3-0.3s-1,0-1.6-0.2
		c-1-0.2-1.2-0.9-1.4-1.7C411,451.8,411,449.2,411,445.9L411,445.9z M458.6,445.5v6.8l0,0c0,0.7-0.3,1-0.9,1.4
		c-1,0.5-3.1,0.9-4.5,0.9c-3.6,0-7.3-1.2-10.4-4.3c-1.4-1.4-4.2-5.4-4.2-11.1c0-4.7,1.6-8.3,4-10.1c3-2.4,6.1-2.6,8.5-2.6
		c5.2,0,8.3,1.7,9.4,3.3c0.5,1,0.9,2.1,0.9,2.6c0,0.3,0,0.7,0.3,0.7s0.3-0.2,0.3-0.9c0-4,0.3-5,0.3-5.7c0-0.2-0.2-0.3-0.5-0.3
		c-1,0-2.4-0.2-3.3-0.3c-0.7-0.2-3.6-0.7-6.1-0.7c-3.1,0-7.1,0.3-10.6,2.4c-3.5,2.3-6.6,6.8-6.6,13.2c0,5,2.3,9.2,4.7,11.5
		c4.5,3.8,10.1,4.3,13.2,4.3c2.3,0,5.9-0.3,8.5-1.7c0.5-0.3,0.5-0.3,0.5-2.1l0,0v-4.5l0,0c0-1.7,0-3,0-4.2c0-1.4,0.3-2.1,1.6-2.3
		c0.5,0,0.7-0.2,1-0.2c0.2,0,0.3-0.2,0.3-0.2c0-0.2-0.2-0.3-0.7-0.3c-1.2,0-3.8,0.2-4,0.2c-0.2,0-2.8-0.2-4.5-0.2
		c-0.3,0-0.7,0-0.7,0.3c0,0.2,0.2,0.2,0.3,0.2c0.3,0,1,0,1.4,0.2C458.4,441.9,458.6,442.4,458.6,445.5L458.6,445.5z M472.1,440
		c0-5.2,0-6.3,0-7.3c-0.2-1.2-0.3-1.7-1.4-1.9c-0.3,0-0.9-0.2-1.2-0.2c-0.2,0-0.3-0.2-0.3-0.3c0-0.2,0.2-0.3,0.5-0.3
		c1.6,0,4,0,4.2,0c0.3,0,3.3,0,4.3,0c2.3,0,4.7,0.2,6.6,1.6c0.9,0.7,2.4,2.3,2.4,4.7c0,2.6-1,5-4.3,7.8c3,3.6,5.4,6.6,7.3,8.9
		c1.9,1.9,3.1,2.3,4,2.4c0.7,0.2,1,0.2,1.2,0.2s0.3,0.2,0.3,0.3c0,0.2-0.2,0.3-0.9,0.3l0,0h-2.3l0,0c-2.1,0-3-0.2-3.8-0.7
		c-1.6-0.9-2.8-2.4-4.9-5c-1.6-1.9-3.1-4-3.8-5c-0.2-0.2-0.2-0.2-0.5-0.2l0,0h-4.5l0,0c-0.2,0-0.2,0-0.2,0.3l0,0v0.9l0,0
		c0,3.3,0,5.9,0.2,7.3c0.2,1,0.3,1.6,1.4,1.7c0.5,0,1.2,0.2,1.6,0.2c0.2,0,0.3,0.2,0.3,0.3c0,0.2-0.2,0.3-0.5,0.3
		c-1.9,0-4.2-0.2-4.3-0.2c0,0-2.4,0.2-3.5,0.2c-0.3,0-0.5,0-0.5-0.3c0-0.2,0.2-0.3,0.3-0.3c0.3,0,0.7,0,1-0.2
		c0.7-0.2,0.7-0.9,0.9-1.7c0.2-1.4,0.2-4,0.2-7.3l0,0V440H472.1L472.1,440z M475.2,442.8c0,0.2,0,0.3,0.2,0.3
		c0.5,0.3,2.3,0.5,3.8,0.5c0.9,0,1.7,0,2.6-0.7c1.2-0.9,2.1-2.6,2.1-5.2c0-4.2-2.3-6.6-6.1-6.6c-1,0-2.1,0.2-2.4,0.2
		c-0.2,0-0.3,0.2-0.3,0.3l0,0v11.1H475.2z M508.6,429.6c8,0,13.9,4.9,13.9,12.7c0,7.6-5.7,13.9-14.1,13.9c-9.7,0-13.7-7.3-13.7-13.4
		C494.5,437.4,498.8,429.6,508.6,429.6L508.6,429.6z M509.3,454.7c3.1,0,9.5-1.7,9.5-11.5c0-8.2-4.9-12.3-10.4-12.3
		c-5.9,0-10.1,3.6-10.1,11.1C498.2,449.9,503,454.7,509.3,454.7z M528,440v5l0,0c0,4.9,1.4,7.3,3.1,8.9c2.4,2.3,6.1,2.4,7.3,2.4
		c2.1,0,4.9-0.3,7.3-2.4c2.8-2.4,3.3-6.6,3.3-10.2l0,0V440l0,0c0-5.2,0-6.3,0-7.3c0-1,0.3-1.7,1.2-1.9c0.5-0.2,0.7-0.2,0.9-0.2
		c0.2,0,0.3-0.2,0.3-0.3c0-0.2-0.2-0.3-0.5-0.3c-1,0-2.8,0.2-3,0.2s-2.3-0.2-3.8-0.2c-0.3,0-0.5,0.2-0.5,0.3c0,0.2,0.2,0.3,0.3,0.3
		c0.3,0,0.9,0,1.2,0.2c1.2,0.2,1.4,0.9,1.4,1.9c0,1,0.2,2.1,0.2,7.3l0,0v4.3l0,0c0,3.5-0.3,6.3-2.1,8.2c-1.2,1.4-3.3,2.4-5.4,2.4
		c-1.9,0-3.5-0.3-5.2-1.9c-1.6-1.4-2.6-3.5-2.6-8.3l0,0V440l0,0c0-5.2,0-6.3,0.2-7.3c0-1,0.3-1.7,1.2-1.9c0.3-0.2,0.7-0.2,0.9-0.2
		s0.3-0.2,0.3-0.3c0-0.2-0.2-0.3-0.5-0.3c-1,0-3.3,0.2-3.5,0.2c-0.3,0-2.4-0.2-4-0.2c-0.3,0-0.5,0.2-0.5,0.3c0,0.2,0.2,0.3,0.3,0.3
		c0.3,0,0.9,0,1.2,0.2c1.2,0.2,1.4,0.9,1.4,1.9C528,433.7,528,434.6,528,440L528,440z M558.1,440v6.1l0,0c0,3.3,0,5.9-0.2,7.3
		c-0.2,1-0.2,1.6-0.9,1.7c-0.3,0-0.7,0.2-1,0.2c-0.2,0-0.3,0.2-0.3,0.3c0,0.2,0.2,0.3,0.5,0.3c1,0,3.3-0.2,3.5-0.2s2.4,0.2,4.3,0.2
		c0.3,0,0.5-0.2,0.5-0.3c0-0.2,0-0.3-0.3-0.3c-0.3,0-1,0-1.6-0.2c-1-0.2-1.2-0.9-1.4-1.7c-0.2-1.4-0.2-4-0.2-7.3l0,0v-13.9l0,0
		c0-0.3,0.2-0.5,0.3-0.7c0.3,0,1.4-0.2,1.9-0.2c0.9,0,3-0.2,4.7,1.6c1.9,1.9,1.9,4,1.9,5.2c0,3.1-2.8,5.6-6.4,5.6
		c-0.7,0-0.9,0.2-0.9,0.3c0,0.2,0.2,0.3,0.3,0.3s0.9,0,1,0c5.4,0,9-3.3,9-8.2c0-1.9-1-3.3-1.7-4c-0.5-0.5-2.3-1.9-6.8-1.9
		c-1.6,0-4.2,0.2-5,0.2c-0.3,0-2.4-0.2-4-0.2c-0.3,0-0.5,0.2-0.5,0.3c0,0.2,0.2,0.3,0.3,0.3c0.3,0,0.9,0,1.2,0.2
		c1.2,0.2,1.4,0.7,1.4,1.9C558.1,433.7,558.1,434.6,558.1,440L558.1,440z"/>
	<g>
		<path fill="#BE9A5C" d="M432,346.7v-0.2C432.2,346.6,432,346.6,432,346.7c0.5-0.3,0.3-0.7,0.9-0.7c0.2-0.3,0.5-0.5,0.7-0.9
			c0.2,0,0.2,0,0.2,0c-0.2-0.5,0.7-0.9,0.5-1.4c0-0.2,0.2-0.3,0.2-0.5c-0.5,0.2-0.5,0.7-1,0.9c0-0.2,0.2-0.2,0.2-0.3
			c-0.2,0-0.2,0.2-0.2,0c-0.3,0-0.5,0.3-0.5,0.5c0.2,0,0.2-0.3,0.5-0.3c-0.2,0.3-0.5,0.5-0.7,1c-0.2,0-0.2-0.2-0.3-0.2
			c0.2-0.2,0.3-0.5,0.3-0.7c0.5-0.2,0.7-0.7,1-1c0.2-0.7,0.7-0.9,1-1.4c0.2,0,0.2,0,0.2,0c0-0.9,0.7-1.2,1-1.9c0-0.2,0-0.2,0-0.3
			c1-1,1.9-2.1,2.8-3.5c0.3-0.7,0.9-1.2,1.2-1.9c0.3-0.9,0.5-2.4,0.5-3.6c0-0.3,0-0.9,0-1.2c0.2,0,0.3,0,0.5-0.2
			c0.2-0.2-0.2-0.2,0-0.3c0.3,0.2,0.5,0.3,0.7,0.2c0.2,0,0.2-0.2,0.2-0.3c0.7,0.2,0.9,0.7,1.2,1.2c0.3,0.3,0.7,0.5,0.9,0.7
			c0.2,0.2,0.2,0.3,0.3,0.7c1.2,1.6,2.4,3,2.4,5.4c0,0.2,0,0.3,0,0.7c0,0.2-0.2,0-0.2,0.2c0.2,0.3,0,0.9,0,1.2h-0.2
			c0,0.3-0.2,0.3-0.3,0.5c0,0.2,0.2,0.2,0.2,0.2c0.5,0,0.9-0.7,1.2-0.9c0.2,0,0.3,0,0.5,0s0.3-0.3,0.3-0.3c0.2-0.2,0.3-0.2,0.5-0.2
			c0.2-0.2,0.3-0.3,0.5-0.3c0.3-0.2,0.7-0.2,1-0.3c0.3-0.2,0.5-0.3,0.7-0.5c0.2,0,0.5-0.2,0.7-0.2s0.3-0.2,0.5-0.3
			c0.5-0.2,1-0.5,1.6-0.7c0.3-0.3,0.7-0.7,1.2-0.7c0.2,0,0.3,0,0.3,0c0.5-0.3,1.2-0.3,1.7-0.7c1,0,1.6-0.5,2.4-0.7
			c0.3,0,0.9,0,1.2,0c1.4,0,3,0.5,4,0.9c0.3,0,0.3,0,0.5,0c0.2,0,0.2-0.2,0.3-0.3c0,0.2,0.2,0.2,0.2,0.2c0.7,0.2,1.7,0.5,1.7,1.4
			c-0.2-0.2-0.2-0.3-0.5-0.3c0,0.3,0.2,0.7,0.3,1.2c-0.3,0.2-0.3,0.5,0,0.9c0,0.2-0.2,0.2-0.3,0.3c-0.2,0.9-0.7,1-1.2,1.2l-0.2,0.2
			c-0.5,0.2-1.4-0.2-1.9,0.2c-0.5-0.5-1.2,0-1.7,0.3c-1.2,0.2-2.1,0.5-3.1,0.9c-0.2,0-0.2,0.3-0.3,0.2c0,0.2-0.2,0.3,0,0.5
			c0.5,0.2,1,0.5,1.6,0.7c0.3,0.2,0.9,0.2,1.2,0.3c0.7,0.5,1.7,2.3,1.9,3.1c0,0.3,0.2,0.5,0.5,0.7c0.2,0.3,0.2,0.9,0,1.4
			c0.3,0.3,0.9-0.2,1.2-0.2c0.3,0,0.7,0.2,1.2,0.3c0.2,0,0-0.2,0.2,0c0.3,0.2,0.5,0.3,0.9,0.3c0,0.2,0.2,0.3,0.2,0.5
			c0.5,0.3,0.7,0.9,1.2,1.4c0.2,0.3,0.5,0.5,0.5,0.9s-0.2,0.5,0,0.9c0.3,0.2,0.5,0.5,0.7,0.9c0,0.2-0.2,0.3,0,0.7
			c-0.3,0.2-0.5-0.2-0.7-0.3c-0.3,0.2-0.7,0.3-0.9,0.7c-0.2,0-0.5-0.2-0.7,0c-0.2-0.2-0.2-0.3-0.3-0.5c-0.2,0.2,0,0.7-0.2,1
			c0.2,0.2,0.3,0.3,0.3,0.7c-0.2,0-0.3,0.2-0.5,0.2c-0.2,0-0.2-0.2-0.2-0.3c-0.3,0-0.7,0.3-0.5,0.5c-0.2,0-0.2,0-0.2,0
			c0,0.2,0.2,0.2,0,0.3c-0.2,0.2-0.3,0.2-0.3,0.3c-0.5,0-0.7-0.5-1.2-0.7c-0.5-0.2-1.2,0-1.9-0.2c-0.3,0.2-0.5,0.2-0.9,0
			c0,0.5-0.2,0.9-0.2,1.2s0,0.5-0.2,0.9s-0.2,1-0.3,1.4c0.2,0.2,0.5,0.2,0.7,0.3c0.2,0,0.5,0,0.5-0.2c0.2,0,0.3,0.2,0.5,0.2
			c0.5-0.5,1.6,0,2.1-0.5c1.2,0.3,2.4,0.5,3,1.7c0.3,0.2,0.5,0.7,0.7,1.2l0.2,0.2v0.2c-0.2,0.2-0.3,0.2-0.5,0
			c0.2,0.3,0.5,0.7,0.7,0.9c0,1-0.7,1.7-1.7,1.4c-0.9,0.5-2.3,0.5-3.5,0.7c-0.5,0.2-1,0.3-1.6,0.3c-0.2,0.2-0.7,0.7-0.9,0.9
			c-0.2,0-0.3,0-0.7,0c-0.2,0-0.3,0.2-0.5,0.2c0,0.7-0.3,1.6-0.3,2.1c0.2,0.2,0.3,0.3,0.5,0.5c0.3,0,0.5,0,0.5-0.3
			c0.5,0,0.7-0.2,1-0.2c0.2-0.3,0.9-0.3,1.2-0.5c0.2,0,0.2-0.2,0.3-0.2c0.3-0.2,0.9-0.2,1.4-0.2c0.2,0,0.3-0.2,0.3-0.2
			c0.2,0,0.2,0,0.3,0c0.5,0,1-0.3,1.6-0.5c0.3,0.3,1,0.5,1.7,0.7c0,0,0.2,0.2,0.2,0.3c0.3,0,0.5,0,0.7,0.2c0,0.2-0.2,0.3-0.3,0.3
			c0,0.2-0.2,0.3-0.2,0.5c0,0.3,0.5,0.3,0.9,0.7c0,0,0,0.2,0.2,0.2c0.3,0.3,1,0.3,1,0.7c0.2,0.9-0.9,0.9-1,1.7c0,0-0.2,0-0.3,0
			c0,0.3,0.2,0.2,0,0.5c-0.2,0-0.3-0.2-0.5-0.2c-0.2,0,0,0.2,0,0.3c-0.3-0.2-0.9,0.2-1.2,0.3c-0.5,0-1-0.2-1.6,0
			c-0.3,0-0.5,0.2-0.9,0.3c-0.9,0.3-1.7,0.7-2.8,0.9c0,0,0,0.2,0.2,0.2c-0.7,0.2-1.4,0.3-2.1,0.5c-0.2,0.5-0.7,0.5-1.2,0.5
			c-0.2,0.9,0,2.1-0.3,2.8c0,0.2,0.2,0.3,0.2,0.3c0.3,0,0.5,0,0.5,0.2c0.2,0,0.3-0.2,0.3-0.5c1-0.3,2.1-0.7,3.3-1c0,0-0.2,0-0.2,0.2
			c0.3,0,0.3-0.2,0.5-0.2c1.9-0.3,3.6-1,5.6-1.4c0.5-0.2,1.2-0.3,1.7-0.5c1.4-0.3,2.8-0.3,4-1c0.7,0,1-0.3,1.6-0.5l0,0
			c1,0.2,2.1-0.2,3.1-0.3c0-0.2,0.2-0.2,0.2-0.3c0.7,0,1.4,0.3,1.9,0.5c0,0,0.2,0.2,0,0.3c0.2,0,0.5,0.2,0.9,0c0.2,0,0-0.2,0.2-0.2
			c0.3,0,0.5-0.2,1-0.2c0.3,0.2,0.5,1,1,0.9c0.9,0.5,1.4,1.4,2.4,1.9c0,0.2,0.2,0.3,0.2,0.5c0.2,0.2,0.3,0.2,0.5,0.2
			c-0.5,0.9-2.1,0.3-3,1c0,0.2,0,0.3,0,0.3c-0.3,0-0.9,0.2-1,0.3c-0.2,0-0.2,0-0.3,0v0.2c-1,0.2-2.1,0.3-3.1,0.5
			c0,0.2-0.2,0.2-0.3,0.3c-0.9,0-1.9,0-2.8,0c-0.2,0.3-0.9,0.7-1,0.2c-0.7-0.2-0.5,0.5-1,0.7c-0.3-0.3-0.7,0-1,0.2
			c-0.2,0-0.3-0.2-0.5,0.2c-1.7,0.2-2.8,0.9-4.7,1c-0.2,0-0.2,0.2-0.3,0.3c-0.5,0-1,0.2-1.4,0.3c-0.5,0.3-1.6,0.2-2.3,0.5
			c-0.2,0-0.2-0.2-0.3-0.2c-0.5,0.2-1.4,0.2-1.6,0.5c0,0.2,0.2,0,0.3,0c-1.2,0.7-2.8,0.9-4,1.4c-0.2,0.7-0.3,1.4-0.5,2.1
			c0.2,0.5,0,1.6,0,2.1c0.2-0.2,0-0.7,0.2-0.9c0,0.3,0,0.9-0.2,1.2c0.2,2.8,0,5.2,0,7.8c0,0.9-0.3,1.6-0.2,2.4c0,0.2,0.2,0,0.2,0.2
			c-0.2,0.2-0.2,0.5,0,0.9c0.3,2.8,0,6.1,0.2,8.9c0,0.9,0,1.7,0,2.4c0,0.2,0,0.2,0.2,0.2c0,0.3,0,0.7,0,1c0,0.9,0.2,1.7,0,2.4
			c-0.2,0.5-0.7,0.5-1.2,1c0,0-0.3-0.2-0.3,0c-0.2-0.3-0.3,0-0.7,0c0-0.2,0.5,0,0.3-0.3c-0.2,0.2-0.3,0.3-0.7,0.3c0,0,0.2,0,0.2-0.2
			c-0.2-0.2-0.2,0.2-0.2,0.2c-0.9-0.2-1.9,0.3-2.6,0.5c-0.5,0-0.9-0.2-1.6-0.2c-1.2-0.2-2.6-0.2-3.6-0.3c-0.5-0.2-1,0-1.6-0.2
			c-0.5,0-1-0.3-1.6-0.5c-1.2-0.3-2.3-0.9-3.1-1.6c-0.9-0.3-1.7-0.9-2.6-1.4c0,0,0-0.2-0.2-0.2s-0.2,0-0.3,0
			c-0.3-0.2-0.5-0.5-0.9-0.7c-0.3-0.7-1.2-0.9-1.7-1.4c-0.7-0.3-1.2-0.9-1.9-1.2c0.2-0.3,0-0.5,0.2-1c-0.2-0.2-0.3-0.3-0.5-0.5
			c0,0-0.2,0.2,0,0.2l-0.3-0.2c0.2-0.2,0,0,0.2,0c0-0.2-0.2-0.2-0.3-0.3c0.3-0.2-0.5-0.3-0.3,0c-0.2-0.2-0.3,0.3-0.3,0.2
			c0.2,0,0,0,0,0c-0.2,0.2-0.2,0.3-0.3,0.7c-0.2,0-0.3-0.2-0.5-0.2c-0.3,0.3-1.2,0.5-1.2,1.2c-0.2-0.2-0.5,0-0.7-0.2
			c-0.2,0-0.2,0.2-0.2,0.3c-0.2,0-0.2-0.2-0.2-0.2c-0.2,0-0.2,0.2-0.2,0.3c-0.2,0-0.2,0-0.2,0.2c-0.5,0-0.7,0.3-1,0.5
			c-0.2,0-0.2-0.2-0.3-0.2c-0.3,0-0.2,0.3-0.2,0.5c-0.2-0.2,0,0.2-0.2,0c-0.3,0-0.3-0.7-0.5-0.9c0-0.2,0-0.2,0-0.2
			c-0.2,0-0.2,0.2-0.3,0c-0.2-0.3-0.3-0.7-0.5-1c-0.2,0-0.2,0.2-0.3,0.2c-0.5-1.2-1.4-1.9-1.9-3.1c-0.2-0.2-0.2-0.5-0.3-0.5
			c-0.3-0.7-0.3-1.7-0.7-2.3c0-0.3-0.2-0.7-0.2-1c0,0,0.2,0,0,0c0-0.2,0.2,0,0.2,0c0-0.2,0-0.2,0-0.3c0.3,0,0.2-0.5,0.5-0.5
			c0-0.2,0.2-0.3,0.2-0.7c0,0,0.3,0.2,0.5,0c0.5,0.2,0.9,0.7,1.4,1c0-0.2-0.2-0.2-0.2-0.2c0.7,0,1.6,0,1.7-0.3c0,0,0.2,0,0.3,0
			c1.7-1.2,3.6-2.1,5.4-3.1c0,0,0,0,0.2,0c0.2-0.2,0.3-0.2,0.3-0.3c0.9-0.2,1.6-0.7,2.1-1.2c1.2-0.5,2.1-1.4,3.1-2.1
			c0-0.2,0-0.2,0-0.2c0.5-0.3,0.9-0.7,1-1.4c-0.3-0.2-0.5,0.2-1,0.3c-0.5,0.2-1.4,0.2-1.7,0.7c-0.3-0.2-0.5-0.2-0.7,0l-0.2,0.2
			c-0.3,0.2-1,0-1.4,0.3c-0.3,0.5-1.4,0.5-1.9,0.9c0,0,0,0.2-0.2,0.2c-0.9,0.3-1.7,0.7-2.4,1h-0.2c-0.3,0.2-0.7,0.2-0.7,0.5
			c-0.5,0.2-0.9,0.5-1.4,0.5c-0.2,0,0-0.2,0-0.2c-1.4,0.3-2.8,0.9-4,1.4c-1,0.5-2.1,1-3.1,1.6c-0.5,0.3-1,0.5-1.7,0.5
			c-0.2,0.2-0.5,0.3-0.7,0.5c0,0.2,0.2,0.3,0,0.3c-0.5,0.3-1.2,1-2.1,0.7c-0.7,0-1,0.3-1.6,0.5c0-0.3-0.2-0.5-0.3-0.7
			c0-1-1-1.2-1.2-2.1c-0.2,0.2,0,0.3,0,0.5c-0.3-0.2-0.2-0.5-0.2-0.9s-0.5-0.5-0.3-0.9c-0.7-0.3-0.9-1.4-1.2-2.1
			c-0.3-0.2-0.3-0.7-0.5-1c-0.3-0.2-0.5-0.9-0.3-1.6c0.5-0.2,0.7-0.9,1.2-1c0-0.2,0.2-0.3,0.2-0.5c1-1,2.4-1.7,3.6-2.4
			c0-0.2,0.2-0.2,0.2-0.3c0.2,0,0.2,0,0.3,0c1.4-0.5,2.4-1.4,3.8-1.7c0.9-0.7,2.1-1.2,3.1-1.4c0-0.2,0.2-0.2,0-0.3
			c0.2,0,0.3-0.2,0.5-0.2v0.2c0.3,0,0.3-0.3,0.9-0.3c-0.2,0.3-0.3,0.7-0.7,0.7c0,0,0.2,0,0,0.2c0,0.2-0.2-0.2-0.3,0
			c-0.3,0.2-0.7,0.5-0.5,1c-0.7,0.3-1.4,0.7-1.7,1.4c-0.7,0.3-1.4,0.7-1.9,1.2c-0.3,0.5-0.7,1-1.2,1.2c0,0.2,0,0.3-0.2,0.3
			c0,0.2,0.2,0.2,0.3,0.2v0.2c0,0.2,0.3,0.3,0.5,0.3c0,0.5,0.7,0.9,1.2,0.5c0.3,0,0.9,0,1-0.2c0.3-0.5,1.4-0.5,2.1-0.9
			c0.3-0.2,0.7-0.3,1-0.5c0.7-0.3,1.6-0.5,2.3-0.9c0.3-0.2,0.7-0.5,1-0.7c0.5-0.2,1-0.3,1.7-0.3c0.7-0.2,1.4-0.7,2.1-0.9
			c0.7-0.2,1.4-0.3,2.1-0.7c0-0.2,0.2-0.2,0-0.3c-0.7-0.9-0.9-2.4-1.4-3.5c0-0.2,0.2-0.2,0-0.2c-0.3-0.7-0.5-1.4-0.5-2.4l-0.2-0.2
			c-0.3-3-0.5-6.3-0.5-9.4c0.3-0.5,0.2-1.4,0.2-2.1c0-0.3,0.2-0.9,0.2-1.4c0-0.9,0.2-1.4,0.3-2.3c0,0,0,0,0.2,0
			c0.2-0.7,0.2-1.2,0.3-1.9c0-0.2,0-0.2,0-0.2c0.3-1.6,0.7-2.8,1-4.2c0.2,0.2,0.2,0.5,0.3,0.5c0.3,0,0.3-0.5,0.5-0.9
			c0-0.2,0.3-0.3,0.3-0.7c0.5-0.3,0.5-1.2,0.9-1.6c0-0.2-0.2,0,0-0.2c0.2-0.2,0.3-0.3,0.3-0.5c0.3-0.3,0.7-0.7,0.7-1.2
			c0-0.2,0-0.3,0-0.5c0-0.5,0.5-0.7,0.5-1.2c0,0,0,0.2,0.2,0.2c0.2,0,0.2-0.2,0.2-0.2c0-0.2,0,0-0.2-0.2c0.5-0.7,1-1.2,1.6-1.7
			c0-0.9,0.7-0.9,0.9-1.6c-0.5,0-1,0.5-1.4,0.9s-0.9,0.7-1.2,1c-1.2,1.2-2.6,2.4-3.8,3.8c0,0.2,0,0-0.2,0c-0.2,0.3-0.7,0.5-1,0.9
			c-0.3,0.2-0.7,0.5-1,0.7c-0.2,0.2-0.5,0.3-0.7,0.3c-0.3,0-0.7-0.2-1,0c-0.5,0-0.9,0.3-1.2,0.2c-0.2,0-0.2,0-0.2,0.2
			c-0.7-0.2-1.6,0.3-2.1,0.2c0,0,0-0.2,0-0.3c-0.2,0-0.2,0-0.3,0c-0.3-0.2-0.7-0.3-0.9-0.5c-0.3-0.3-0.9-1-0.9-1.4
			c0-0.3,0-0.9,0-1.4c0-0.2-0.2-0.3-0.2-0.7c0-0.7,0.7-0.9,0.9-1.6c0.3,0,0.7-0.5,0.9-0.9c0.3-0.3,0.9-0.7,1-1
			c0.3,0,0.3-0.5,0.7-0.9c0.2-0.2,0.3-0.3,0.7-0.7c0.2-0.2,0.3-0.2,0.3-0.5c0.3,0,0.5,0,0.7,0c0,0.2-0.2,0,0,0.2c0,0.2,0.2,0,0.2,0
			c0,0.2-0.2,0.2-0.2,0.3c0.2,0,0.5-0.2,0.5,0.2c0.3-0.3,0.7-0.9,1.2-1c0.2-0.5,0.9-0.7,0.9-1.2C431.7,346.9,431.8,346.6,432,346.7
			L432,346.7L432,346.7L432,346.7z M470.2,389.1L470.2,389.1L470.2,389.1c-0.2,0-0.3-0.3-0.5-0.2C469.8,388.9,470,388.9,470.2,389.1
			c-0.3,0-0.3,0.2-0.7,0.2c-0.3-0.2-0.5-0.5-0.9-0.5c-0.2-0.3,0-0.7-0.3-0.9c0,0.2,0,0.3-0.2,0.3s-0.2,0-0.2,0c0,0.2,0,0.2,0,0.3
			c0.3,0.5-0.3,0.7-0.3,1.2c0,0.2,0,0.7,0.2,1c0.2,1,0.2,2.1,0.3,3c0.2,0.2,0.3,0.5,0.5,0.7c0,0.7,0.3,1,0.3,1.7
			c0.3,0.3,0.7,0.5,0.9,1c0,0-0.2-0.2-0.2,0l0.2,0.2c0.2,0.2,0.3,0,0.3,0.2c0,0.2-0.2-0.2-0.2,0c0.2,0.3,0.7,0.5,0.9,1
			c0.3,0.3,1,0.3,1.2,0.9c0.3,0,0.3,0.2,0.7,0.2c0.3,0.9,0.9,1.7,1.6,2.4c0,0.2,0,0.2,0,0.2c0.9,0.5,1.7,1.2,2.8,1.7
			c0.3,0,0.3,0.2,0.7,0.3c0,0,0,0,0,0.2c0.2,0,0-0.2,0.2,0c0.7,0.3,1,0.7,1.7,1v0.2c0-0.2,0.5,0.2,0.9,0.3c0.9,0.3,1.6,0.3,2.4,0.3
			c0.5,0,1,0.3,1.6,0c0.2,0,0,0.2,0.2,0.2c0-0.2,0.2-0.3,0.2-0.2c0-0.2-0.2-0.2,0-0.2v0.2c0-0.3,0-0.3,0-0.7c0.2,0,0,0.2,0.2,0.2
			c0-0.2,0-0.2,0.2-0.3c0.2,0,0,0.2,0,0.2c0.2-0.2-0.2-0.2-0.2-0.3c0-0.2,0.2,0,0.2,0c-0.2-0.2,0-0.7,0-0.7c0.2,0,0.2,0.2,0.2,0.2
			c-0.2-1,0.2-2.3,0-3.3c-0.2-1-0.5-2.1-0.7-3c0-0.3,0-0.7-0.2-1s-0.5-0.5-0.7-0.9c-0.3-0.5-0.5-1-0.9-1.4c-0.2-0.2-0.5-0.5-0.7-0.7
			c-0.3-0.3-0.5-0.7-0.7-0.9c-0.3-0.3-0.7-0.5-1.2-1c-0.3-0.5-0.9-1.4-1.4-1c-0.7-0.3-1.4-0.5-2.1-0.7c-1.4-0.5-2.8-1.6-4.3-1.7
			c-0.3,0-0.7-0.2-0.9-0.2C471.1,388.8,470.7,389.1,470.2,389.1z M443.1,398.3c0.2,0.3,0.5,0,0.7-0.2c0.5,0.5-0.2,1.2-0.3,1.6
			c0,0.2,0,0.2,0,0.3c0,0.2-0.2,0.2-0.3,0.3c-0.5,0.7-1.2,1.7-1.7,2.4c0,0.2,0,0.3,0,0.5c-0.2,0.3-0.3,0.7-0.7,0.7
			c0.2,0.3-0.2,0.5-0.3,0.7c0-0.3,0.2-0.5,0.2-0.9c-0.3,0.3-0.5,0.9-1,1c0,0.5-0.3,0.5-0.7,0.5c-0.2,0.5-0.5,0.3-0.7,0.7
			c0.3,0.3,1,0.5,1.4,0.3c0.2,0.3,0.7,0.2,1.2,0.3c0.2,0,0.5,0.2,0.7,0.2c1.4,0.3,3,0.3,4,0.7c0.2,0,0-0.2,0.2-0.2v0.2
			c0-0.2,0-0.2,0-0.3c0,0-0.2,0.2-0.2,0c0.3,0,0.5,0,0.7,0c-0.2,0-0.2,0-0.2,0.2c0.2,0,0,0,0,0c1.6,0,2.8,0,4.2-0.5v-0.2
			c0,0,0,0.2,0,0c0-0.2,0-0.2,0-0.2s-0.2,0.2,0,0.2c0.3-0.5,1-0.5,1.4-1c0-0.7,0.9-0.9,0.7-1.7c0.2-0.2,0.2-0.3,0.2-0.5
			c0-0.2-0.2,0.2-0.2,0c0-0.2,0-0.3,0.2-0.3v0.3c0-0.7,0.2-1.6,0.2-2.3h-0.2c0.3-0.2,0-0.3,0-0.5c0,0,0,0.2,0.2,0.2
			c-0.2-0.7,0-1.2,0-1.9h0.2c0-0.5-0.2-0.9-0.2-1.2c0,0.2,0,0.3,0,0.3c0.2-3.5,0.5-6.9,0.7-10.6c-0.9,0.2-2.1,0.2-2.6,0.7
			c0,0.2,0.2,0,0.2,0.2c0,0.2-0.2,0.2-0.3,0.2c0-0.2,0.2-0.2,0-0.3c-0.2,0.2-0.2,0.3-0.2,0.3c-0.2,0-0.2,0.2-0.2,0
			c0-0.2,0-0.2,0-0.2c-0.2,0-0.3-0.2-0.2-0.3c-0.5,0.2-0.9,0.3-1.4,0.5c0,0.2,0,0.3-0.2,0.3c0,0,0.2-0.2,0-0.3
			c-0.3,0.2-0.9,0.3-0.9,0.7c0-0.2,0-0.2,0-0.2c-0.3,0-0.3,0.5-0.7,0.3c-0.3,0.3-0.9,0.3-1.4,0.7c-0.2-0.2-0.2,0-0.2,0
			c-0.5,0.3-1.4,0.2-1.2,1c0-0.2,0-0.3,0-0.3c-0.7,0-0.7,0.5-1.2,0.5c0,0.2,0,0.2,0,0.2c0.3,0.2-0.2,0.7,0,1c-0.3,0.3-0.2,0.7-0.2,1
			s-0.2,0.7-0.2,1c-0.2,0.9-1.2,1.6-1.7,2.1c-0.2,0,0.2-0.2,0,0c0,0,0,0.2,0,0c-0.2,0,0.2,0.3,0,0.5c0,0,0.2,0.2,0.2,0.3
			c0.2,0,0.3,0,0.7,0c0.3-0.5,1-0.9,1.7-0.9c-0.3,0.3-0.3,0.9-0.7,1C442.4,398.5,442.9,398.6,443.1,398.3L443.1,398.3L443.1,398.3
			L443.1,398.3z M448.5,381.8C448.5,381.6,448.3,381.5,448.5,381.8C448.3,381.6,448.3,381.6,448.5,381.8c-1,0.3-1.7,0.9-2.1,1.7
			c-0.2,0-0.2,0-0.3,0c0,0.2-0.2,0.2-0.2,0.3c-0.5,0.2-1.2,0.3-1.7,0.7c0,0-0.2,0-0.2-0.2c-0.3,0.2-0.7,0-1-0.2c0-0.2-0.2-0.3,0-0.3
			c-0.3-0.2-0.2-0.7-0.3-0.9v0.2V383c0,0.2-0.2,0,0-0.2c0.2,0,0.2,0,0.2,0.2c-0.2-0.3-0.5-0.3-0.7-0.7c-0.2,0.2,0,0.5,0,0.7l0,0
			c0.2,0.3,0.2,0.7-0.2,1v-0.2c-0.2,0-0.2-0.2-0.3-0.2c0-0.2,0-0.2,0-0.3c0,0,0,0-0.2,0c0-0.3-0.2-0.9-0.2-1c-0.2,0,0.2,0.3,0,0.3
			s0-0.2-0.2-0.2c0,0.3,0.2,0.3,0.2,0.5c-0.2,0.2,0,0.7,0.2,0.9c0,0.3,0,0.5,0,1c0.3,0.3,0.2,0.9,0.5,1.2c1.9-0.3,3.5-1,5-1.6
			c0.5,0,0.7-0.3,1.2-0.3c0.3-0.2,1-0.5,1.6-0.2c0.2,0,0.3-0.2,0.7-0.2c0-0.2,0.2-0.2,0.2-0.3c1-0.3,2.3-0.7,3.5-1.2
			c0.2-0.9,0-1.6,0-2.6c-0.2,0-0.2,0-0.3,0c0,0.2,0,0.3-0.2,0.3c0,0,0-0.2-0.2,0v0.2c0,0,0,0-0.2,0c-0.2,0.2-0.3,0.5-0.7,0.3
			c0.2,0,0.3-0.2,0.3-0.3c-0.2,0.2-0.3,0.2-0.5,0.3c0,0,0-0.2-0.2-0.2c0,0.2-0.3,0.2-0.5,0.3l0,0c-0.2,0,0-0.2,0-0.2
			c-0.2,0.2-0.3,0.2-0.3,0.3v-0.2c-0.2,0.3-0.5,0.3-0.9,0.7c0-0.2,0-0.2-0.2-0.2c-0.2,0.2-0.2,0.3-0.3,0.3c0-0.2,0-0.3,0-0.3
			c-0.2,0-0.2,0-0.3,0.2c0,0.3-0.2,0.2-0.2,0.2C449.2,381.5,448.7,381.5,448.5,381.8L448.5,381.8L448.5,381.8L448.5,381.8z
			 M449.4,374.7h-0.2c0.2,0.2-0.2,0.2,0,0.3C449.2,374.9,449.4,374.7,449.4,374.7c0.2,0,0.2,0.2,0.2,0.2c0.7-0.2,0.9-0.5,1.4-0.9
			c0.2,0.2,0.5-0.2,0.7,0c0.2-0.2,0.3-0.2,0.3-0.5c0,0.2,0,0.2,0.2,0.2c0.3-0.2,0.5-0.3,0.9-0.5c0,0,0,0,0,0.2
			c0.2-0.3,0.9-0.3,1-0.7c0-0.2-0.2,0-0.2-0.2c0-0.2,0.2,0,0.2,0c0.2-0.7,0.5-1.4,0.2-2.3c-0.9,0.5-1.7,1-2.3,1.9h-0.2
			c-0.2,0.5-0.5,0.7-0.5,1.2c-0.2,0.2-0.5,0.2-0.7,0.3c-0.2,0-0.3,0-0.7,0c-0.2,0.2-0.3,0.3-0.7,0.5
			C449.5,374.5,449.2,374.5,449.4,374.7C449.4,374.5,449.4,374.5,449.4,374.7L449.4,374.7L449.4,374.7L449.4,374.7z M443.6,372.3
			c0,0.3-0.5,0.2-0.7,0.5c-0.3-0.2-0.5-0.5-0.5-0.9c-0.2-0.3-0.3-0.9-0.2-1.4c0,0.2,0.2,0.2,0.2,0.2c0-0.2-0.2-0.2-0.3-0.3
			c0-0.2,0-0.2,0-0.5l0.2-0.2c0,0.2,0.2,0,0.2,0.2c0,0.2-0.2,0.2-0.2,0.3c0.2,0,0.2,0,0.3,0c0-0.2,0.2-0.2,0.2-0.3
			c0-0.2-0.2-0.2-0.3-0.2c0.2-0.2,0-0.3,0.2-0.5c0,0.2-0.2,0.3,0,0.3v-0.3c0.2,0,0.3-0.2,0.5-0.3c0.2-1,0.9-1.6,1.2-2.4
			c0.3,0.2,0.7,0,0.9-0.3c0,0,0-0.2,0-0.3c0.7-1,1.6-1.9,2.3-3c0.2-0.3,0.5-0.5,0.7-0.9c0.3-0.3,0.7-0.9,1-1.4
			c0.2,0,0.3-0.3,0.2-0.5c-0.9,0.9-1.9,1.7-2.8,2.6c-0.5,0.5-0.9,1-1.4,1.4c-0.3,0.3-0.7,0.9-1,1.2c0,0-0.2,0-0.3,0.2
			c-0.2,0.2-0.2,0.3-0.2,0.5c-0.3,0.3-0.3,0.9-0.7,1.2c-0.3,0-0.3,0.3-0.5,0.3c0,0.2,0,0.3-0.2,0.5c-0.2,0-0.2-0.2-0.2,0
			c0,0.2,0.2,0,0.2,0h-0.2c0.2,0,0.2,0,0.2,0.2c-0.2,0.3-0.5,0-0.7,0.2v-0.2c-0.2,0,0,0.2,0,0.2s0,0-0.2,0c0,0.2,0,0.2,0,0.3
			c-0.2-0.2-0.3,0.5-0.7,0.5c0,1.2-0.5,2.3-0.7,3.6h-0.2c0,0.5,0.2,1,0,1.4c0.3,0.3-0.2,0.9,0,1.6c0.2,0,0-0.3,0.2-0.2
			c0,0.2,0,0.3,0,0.5c-0.3,0-0.2,0.7-0.2,0.9c0.2,0,0-0.2,0.2-0.2c0,0.3,0,0.5-0.2,0.7c0.2,0.2,0.2,0.2,0.3,0.3
			c0.2,0,0.2-0.2,0.2-0.2c-0.2-0.3-0.2-0.9,0-1.2c0,0.3,0.2,0.5,0.3,0.9c0.3,0,0.3,0.2,0.5,0.2c-0.2,0-0.2,0.2-0.2,0.3
			c0.2,0,0.3,0.2,0.5,0.2c0.2-0.2,0.3-0.5,0.9-0.3c0-0.2-0.2-0.2-0.2-0.3c1.2-0.3,2.1-1.2,2.8-2.3c1-0.7,1.7-1.6,2.6-2.4
			c0.2-0.3,0.5-0.5,0.7-1c0.5-0.3,0.7-1,1.2-1.4c0-0.5,0.3-0.9,0.5-1.2c-0.2,0-0.2,0-0.3,0c0,0.2-0.2,0.3-0.2,0.3
			c-0.2,0.2-0.2,0-0.3,0c-1,1-2.1,2.1-4,2.4c0-0.3-0.2-0.7-0.3-0.7c0-0.2,0.2-0.2,0.2-0.3c0,0-0.2,0-0.2-0.2c0.2,0,0.2-0.2,0.2-0.3
			c-0.2,0-0.5,0-0.5,0.2c0,0,0-0.2-0.2,0c0,0.2-0.5,0.2-0.3,0.3c0,0.2,0.5-0.2,0.5,0C444,371.4,444.3,372.4,443.6,372.3L443.6,372.3
			L443.6,372.3L443.6,372.3z M454.6,358.4c-0.3,0.7-1.2,0.7-1.4,1.4c-0.7,0.2-1,0.5-1.4,0.9c0,0.2,0.2,0.2,0,0.2
			c-0.5,0.3-0.7,1.2-1.4,1.2c0,0.2,0,0.5,0,0.5c0.3,0,0.5-0.2,0.9,0c0.2,0,0.2-0.2,0.3-0.3c0.3-0.2,0.7-0.2,1-0.5
			c0.5-0.2,0.9-0.5,1.4-0.7c0,0,0-0.2,0-0.3c0.2,0,0.2,0,0.3,0c0.3-0.7,0.7-1.4,0.5-2.4C454.9,358.4,454.7,358.4,454.6,358.4
			L454.6,358.4L454.6,358.4L454.6,358.4z M453,350.4c0.5-0.2,1.2-0.7,1.9-1c0,0.2,0.3,0,0.5,0c0-0.2,0-0.3,0-0.5
			c0.3,0,0,0.2,0.2,0.2s0.2-0.2,0.3-0.2c0.3-0.7,0-1.6-0.3-2.1c-0.2-0.2-0.5-0.3-0.7-0.5c0.2-0.2,0-0.3,0-0.5c-1-0.3-0.5-2.1,0-2.8
			c-0.7,0-1,0.7-1.7,0.9c-0.3,0.5-1,0.7-1.4,1c-0.2,0.2-0.2,0.3-0.3,0.5c-0.3,0.3-0.9,0.9-1.2,1.2c-0.2,0-0.2,0.2-0.3,0.2
			c0,0.2,0.2,0.2,0,0.2l0,0c0,0.2-0.3,0.2-0.2,0.5c-0.2,0-0.2,0.3-0.3,0.3c-0.2,0.3-0.3,0.5-0.5,1c0,0,0,0-0.2,0c0,0,0,0,0,0.2
			c-0.2,0-0.2,0.2-0.3,0.2c-0.3,0.5-1,0.9-1.4,1.6c-0.3,0.3-0.3,1-0.9,1.2c-0.2,0.3-0.2,0.7-0.3,1c0,0.2,0,0.2,0.2,0.3
			c-0.7,1.2-1.7,2.1-2.3,3.5h-0.2c-0.2,0.2-0.2,0.7-0.3,0.9c-0.2,0.3-0.9,0.7-0.5,1.2c0.7,0,0.7-0.9,1.2-0.9c0.2-0.7,0.5-1.2,1-1.4
			c0-0.2,0.2-0.2,0.2-0.3c0.7-0.3,1-1,1.9-1.6c0.7-0.9,1.9-1.4,2.8-2.3c0.5-0.2,0.7-0.7,1.2-0.9c0-0.2-0.2,0,0-0.2
			c0.2,0.2,0,0,0.2,0c0.5,0,0.9-0.3,1-0.7c0,0,0,0,0,0.2C452,350.9,452.5,350.7,453,350.4C452.8,350.4,452.8,350.2,453,350.4
			C452.8,350.2,452.8,350.4,453,350.4L453,350.4L453,350.4L453,350.4z"/>
		<path fill="#BE9A5C" d="M280.4,326.4c0,0.2,0,0.2-0.2,0.2C280.2,326.6,280.4,326.6,280.4,326.4c0.2,0.3-0.2,0.2,0,0.3
			c0,0.2,0.2,0.2,0.3,0.2c0,0-0.2-0.2,0-0.3c0.2,0.3,0.3,0.5,0.7,0.9c0,0.7,0.5,1.2,1,1.4c0.2,0.3,0.2,0.5,0.3,0.9
			c0,0,0.2,0.2,0.3,0.2c0.2,0,0-0.2,0-0.3c0.5,0.9,1.2,1.2,1.2,2.8c0.3,0.3,0.3,1.2,0.3,1.9c0,0.2,0.2,0,0.2,0
			c0,0.2-0.2,0.2-0.2,0.3c0.2,0,0.3,0.2,0.5,0.3c-0.2,0.7-0.9,0.9-0.9,1.6c0.2,0,0.2-0.2,0.2-0.2c0,0.2-0.3,0.7-0.5,0.9
			c0.2,0.3-0.2,0.7-0.3,0.9c0,0.5-0.3,0.9-0.7,1.2c0,0.3-0.2,0.7-0.3,1c-0.5,0.3-0.9,1-0.9,1.9c0,0.2,0.2-0.2,0.3,0
			c0,0.2-0.2,0.2-0.3,0.3c0.2,0.2,0.3-0.2,0.5-0.2c0,0,0,0,0,0.2c0.2,0,0.3-0.2,0.5-0.2c0.3-0.2,0.2-0.9,0.3-1.2
			c-0.2,0.3,0.2,0.3,0.3,0.7c0.7,0,1.2-0.5,1.7-0.2v-0.2c1.2-0.2,2.4-0.5,3.6-0.3c0.3,0.2,0.9,0.5,1.4,0.3c0.2,0.3,0.7,0.5,0.9,0.7
			c0,0.2,0,0.2,0,0.3c0,0,0,0,0-0.2c0,0.2,0.2,0.7-0.2,0.7c0.7,0,1,1.2,0.9,1.9c-0.2,0-0.2-0.2-0.2-0.2v0.2c-0.2,0,0-0.2-0.2-0.2
			c-0.2,0.2,0,0.3,0.2,0.3c0,0.2,0,0.3,0,0.3c-0.5,0-0.7-0.2-0.9-0.3c-0.3,0-0.3-0.2-0.7,0c-0.3,0.7-1-0.3-1.6,0.2
			c-0.5-0.2-0.9,0-1.4,0.2c0-0.2,0,0,0-0.2c-0.2,0-0.3,0-0.3,0c-1.6-0.2-2.8,0.7-4,1.2c0,0.2-0.2,0.2,0,0.2c-0.2,0-0.2,0-0.3,0.2
			c-0.2,0.3-0.2,0.7-0.3,1c0.5,0,1-0.2,1.7-0.3c0.3,0,0.5,0,0.9-0.2l0.2-0.2c0.3,0,0.5-0.2,0.7-0.3c0.5,0,1-0.2,1.6,0.2
			c0,0,0,0,0,0.2c0.2,0.2,0.2,0.2,0.5,0.2c0,0,0-0.2,0-0.3c0.5,0.2,1,0.5,1.6,0.9c0,0.2,0,0.2,0,0.3c0.2-0.2,0.3,0.2,0.3,0.3
			c-0.3,0.3-0.9,0.3-0.9,0.9c0,0.2,0.2,0.2,0.3,0.3c0,0.2,0,0.3,0,0.5s0-0.2,0-0.3c-2.8,0.3-4.9,1.4-7.1,2.4l-0.2,0.2
			c-0.3,0-0.7,0-1.2,0.2c-0.2,0-0.3,0-0.5,0c-0.3,0.2-0.7,1,0,1.2c0.2,0,0.5-0.2,0.7-0.2c0.2,0,0.3,0,0.5,0s0.3-0.2,0.5-0.3
			c0.2,0,0.3,0,0.7,0c0.5-0.2,0.9-0.7,1.6-0.7c0.7-0.2,1.4-0.3,1.9-0.5c0.2,0,0.3-0.2,0.3-0.2c0.7-0.2,1.4-0.2,1.7-0.7
			c0.3,0.2,0.9-0.2,1-0.3c0.2,0,0,0.2,0,0.2c0.2-0.2,0.2,0,0.3,0c0.2,0-0.2,0-0.2-0.2c0.2,0,0.2,0,0.2,0.2v-0.2c0.2,0,0.5,0,0.3,0.2
			c0.2,0,0-0.2,0.2-0.2c3.1,0.3,5.7,1.6,7.6,3.3c0.2,0.3,0.7,0.7,1,1.2c0,0.2,0,0.3,0.2,0.5c0.2,0.3,0.5,0.7,0.5,1
			c0.2,0.5,0,1-0.2,1.6c0,0.2,0.2,0,0.2,0.2c0.2,0,0.2-0.2,0.3-0.2c-0.3,0.9-0.2,2.1-0.2,3.3c-0.2,0.2-0.3,0.5-0.3,0.7
			c-0.2,0-0.2,0-0.2-0.2c-0.3,0.3-0.5,0.7-0.9,0.9c-0.2,0-0.3,0-0.5,0c-0.5,0.2-0.7,0.5-1.2,0.9c-0.2,0-0.5,0-0.7,0.2
			c-0.3-0.2-0.5,0.2-1,0.2v0.2c-0.2-0.2-0.3,0-0.3,0c-0.2-0.2-0.3,0.2-0.9,0.2c-0.3,0-0.7-0.2-0.7,0.2c-0.5-0.2-1,0.3-1.4,0
			c0-0.2,0.2-0.2,0.2-0.2c-0.5-0.7-1.4,0.3-2.3,0v0.2c-0.2,0-0.7-0.3-0.9,0.2c-0.5,0-0.9,0-1.2,0c0,0.2,0,0.2,0,0.3
			c-0.2-0.2-0.2-0.3-0.3-0.3c0.5,0,1-0.2,1.4-0.3c-0.2-0.2-0.5,0-0.9,0v-0.2c0.2,0,0.7,0,0.7-0.3c-0.3,0.3-0.9,0.2-1.4,0.2
			c-0.2,0-0.2,0.2-0.2,0.2c-0.2-0.2-0.7,0-0.9-0.2c0,0,0,0,0,0.2c-0.2-0.2-0.5,0-0.9,0c0-0.2-0.2-0.2-0.2-0.3
			c-0.2,0-0.2,0.2-0.3,0.3v-0.2c-0.2,0-0.2,0-0.3,0c0-0.2,0.3,0,0.5-0.2c-0.2,0-0.5,0-0.9,0c0,0.2,0.2,0.2,0,0.3
			c-0.2,0-0.2-0.2-0.2-0.2c-0.2-0.2-0.3,0-0.5,0c0.2,0.5,0.5,0.7,0.7,1.2c0.2,0.3,0.3,0.9,0.7,1c0,0,0.2,0.2,0.3,0.2
			c0.7,0.9,0.9,2.3,0,3c0,0.9-0.5,1.4-1,1.9c-0.2,0.2-0.5,0.3-0.7,0.3c0,0-0.2,0-0.3,0c-0.3,0.2-0.3,0.5-0.7,0.7
			c-0.3,0.3-0.7,0.5-0.9,0.9c0.3,0.2,0.5,0.3,0.9,0.5c4.2-1.4,8.2-3,12-4.7c0.9,0,1.6-0.5,2.4-0.5c0.3,0,0.9,0.2,1.2,0.2
			s0.7,0.2,1,0.2v0.2c0.7,0,1,0.5,1.7,0.2c0.2,0.3,0.5,0.5,0.7,0.9c0.3,0.2,0.5,0.5,0.7,0.7c0,0.2-0.2,0.2-0.2,0.2
			c0.3,0.5,0.9,1.2,0.3,1.9c0,0.2,0.3,0.3,0.2,0.5c0,0.2-0.3,0.2-0.5,0.3c-0.3,0.2-0.5,0.3-0.9,0.3s-0.7-0.2-0.9,0l0,0
			c-0.2,0.2-0.3,0-0.7,0c-0.2,0,0.2,0,0,0.2c-0.2,0-0.5,0-0.5,0c-0.2,0-0.2,0.2-0.2,0.3c-0.2,0-0.5,0-0.7,0.2c0,0.2,0.2,0.2,0.2,0.2
			c-0.2,0.2-0.3,0-0.5,0.2c-0.2-0.2-0.3,0-0.3,0.2c-0.2,0-0.5,0-0.5-0.2c-0.5,0.2-1.2,0.2-1.6,0.3c0,0,0,0,0-0.2
			c-0.2,0-0.2,0.2-0.2,0.3c-0.3,0.2-0.5,0.2-0.9,0.2c0.2-0.2,0.2-0.3,0.3-0.3c-0.3-0.2-0.7,0.2-1,0.2c0,0.2,0.2,0,0.2,0.2
			c0,0.3-0.3,0.3-0.5,0.3s0-0.2,0-0.3c0,0.2,0.2,0.2,0.2,0c0,0,0,0,0.2,0c0,0,0-0.2,0-0.3c-0.2,0-0.3,0.2-0.5,0.2c0,0.2,0,0.2,0,0.3
			c0,0.2-0.3,0.2-0.3,0.2c0-0.2,0-0.2,0-0.3c-0.3,0-0.7,0.2-1,0.3c0,0.2,0,0.2,0,0.3c-0.5,0-1,0.5-1.4,0.2c0-0.2,0.2,0,0.2-0.2
			c-0.7,0.2-1.7,0.5-2.4,0.9c0,0.2,0.2,0.2,0,0.3c0.3,0.7,1.9,1,1.2,2.1c0,0.2,0,0.3,0,0.3c-0.2,0.3-0.7,0.7-0.5,1.2
			c0.2,0,0.3,0,0.3-0.2c0.2,0,0.3,0,0.7,0c0,0,0,0,0,0.2c0.9,0,1.7-0.5,2.8-0.5c0.2,0,0-0.3,0-0.5s-0.2,0-0.2-0.2
			c0.5,0,1,0.3,1.6,0.3c0.7,0.2,1.2,0.2,2.1,0.2c0.3,0.2,0.7,0.2,1,0.5c0.2,0.2,0.2,0.3,0.3,0.5c0.2,0,0-0.2,0-0.2
			c0.2,0,0.2,0.3,0,0.3c0.3,0.2,0.2,0.7,0.2,0.9c0,0.2,0.2,0.3,0.3,0.5c0,0.2,0,0.3,0,0.5c0.2,0.5,0.7,0.7,0.7,1.2
			c0,0.2,0,0.3,0,0.5c-0.2,0-0.2,0.3-0.2,0.5c-0.2,0.2-0.9,0-1.2,0.3c-0.5-0.2-1,0-1.6,0c0,0,0,0,0-0.2c-0.2,0.2-0.5,0.2-0.7,0
			c0,0.2-0.2,0-0.3,0c0.2,0.2,0.2,0.3,0.2,0.5c-0.3,0-0.7-0.3-1-0.5c-0.3,0.2-0.5,0.2-0.9,0c-0.2,0.2-0.9,0-0.9,0.3
			c-0.2,0-0.3,0.2-0.5,0c0,0.5-0.9,0-1.2,0.3v-0.2c-0.2,0-0.3,0.2-0.5,0.3c-0.2,0-0.2-0.2-0.2-0.2c-0.3,0.3-0.9,0-1.2,0.3
			c-0.3,0-0.3-0.2-0.5,0c0-0.2,0.2-0.2,0.2-0.3c-0.2,0-0.3,0-0.3,0.2c-0.3-0.2-0.5,0.2-0.5,0.3c0-0.2,0-0.2,0-0.3
			c-0.3,0.3-0.3,1-0.2,1.6c0,0,0,0,0,0.2c0.2,0.3,0.2,0.9,0.2,1.4c0,0.3,0.3,0.7,0.3,1c0,0.5-0.3,1.4-0.2,2.3c0,0.3,0.2,1.4-0.2,1.7
			c0.2,0.7-0.2,1.4,0,2.1c0,0.7,0,1.4,0,2.1c0,2.6-0.3,5.4,0.2,7.6c0.2,0.7,0.2,1.4,0.3,2.1c0,0.2,0.2,0,0.2,0s0,0.2,0,0
			c-0.2,0.2-0.5,1,0,1.2c0,0.3,0,0.5,0,0.9v-0.2c-0.2,0.2,0.2,0.5,0.2,0.5c-0.2,0.2,0,0.5,0,0.7c0,0.9-0.2,1.4-0.2,2.3
			c0,0,0,0-0.2,0c-0.2,0.3-0.5,0.5-0.5,0.9c-0.2,0-0.3,0-0.3,0.2c-0.2,0-0.3,0.2-0.5,0.3c-0.5,0.2-1.2,0.2-1.7,0.5
			c-0.5-0.2-1,0.2-1.6,0.2c-0.3,0-0.7,0-1.2,0c-0.9,0-1.9,0.2-2.6-0.3c-0.2,0-0.2,0.2-0.3,0c0,0.2,0,0.2,0,0.2c-0.2,0.2-0.5,0-0.9,0
			c0,0,0,0,0-0.2c-1-0.2-2.1-0.7-3.1-0.9c-0.2-0.3-0.7-0.3-1-0.5c-0.3-0.3-0.5-0.7-1-0.9c-0.2,0,0-0.2-0.2-0.2
			c-0.5,0-0.9-0.5-1.6-0.5c-1.2-0.5-2.1-1-2.8-1.9c-0.3-0.7-1-0.9-1.4-1.6c0-0.3-0.3-0.5-0.5-0.7c-0.2-0.5-0.3-0.7-0.7-0.9
			c0-0.3-0.2-0.3-0.2-0.7c-0.2,0,0,0.2-0.2,0.2c0-0.2-0.2-0.2-0.2-0.3c0-0.2-0.2,0.2-0.2,0c0-0.5-0.3-1.2-0.9-1.6v0.2
			c-0.2,0-0.2-0.3-0.2-0.5c0-0.3-0.3-0.5-0.3-0.9c0,0,0,0,0,0.2c-0.2-0.2-0.2-0.7-0.3-1c-0.2,0,0.2,0.3,0,0.2
			c-0.2-0.2,0.2-0.5,0-0.7c-0.2,0,0,0.3,0,0.5c-0.2-0.2-0.2-0.3-0.2-0.5c0,0,0,0,0,0.2c0-0.3-0.3-0.9-0.3-1.4c-0.2,0,0,0.2,0,0.2
			c-0.2,0-0.3-0.3-0.2-0.5c0-0.2,0-0.3,0.2-0.3c0-0.2,0,0-0.2,0c-0.3-0.3-0.2-1-0.3-1.4c0,0,0,0-0.2,0c0-0.3,0-0.9-0.2-0.9
			c0.2-0.2,0-0.5,0-0.7c0.2,0,0,0.2,0.2,0.2c0,0.2,0,0.2,0,0.2c0.3,0.2,0.2,0.9,0.3,1c0.2,0,0-0.3,0-0.3c0.2-0.2,0.2-0.7,0-0.9h0.2
			c-0.2,0-0.2-0.2-0.2-0.3c0,0,0.2,0,0,0.2c0.2-0.3,0-0.7-0.2-1c0.2-0.2,0-0.9-0.2-1c0-0.2,0-0.5,0-0.7c0.2-0.2,0.2-0.5,0.2-0.7v0.2
			c0.2-0.7,0.2-1.4,0.2-2.1c-0.2,0-0.2,0.3-0.2,0.3c0-0.5,0.2-1.2,0.3-1.7c0-0.2-0.2-0.2-0.2-0.3c0.2,0,0.2,0.2,0.2,0.2
			c0-0.3,0.3-0.5,0.3-1c0,0,0,0,0.2,0c0.2-0.3,0.5-0.9,0.7-1.2c-0.2,0-0.3,0.2-0.3,0.2c-0.2,0-0.2-0.2-0.3,0c-0.2,0,0-0.2,0-0.3
			c-0.9,0.2-1,1.2-1.6,1.6c0-0.2-0.2-0.2,0-0.3c-0.2,0-0.3,0.2-0.5,0.2c0.2,0.7-0.3,0.7-0.7,0.9c-0.2-0.2-0.5,0-0.5,0.2
			c-0.2,0,0-0.2,0-0.2c-0.3,0.2-0.5,0.5-0.7,0.9c-0.3,0-0.5,0.2-0.7,0.2c0,0.3-0.3,0.2-0.2,0.3c0,0,0-0.2-0.2-0.2
			c-0.2,0.2-0.2,0.2-0.2,0.3c-0.2,0,0,0,0-0.2c-0.5,0.2-0.7,0.5-1.2,0.7c0,0.2,0,0.2,0,0.3c-0.3-0.3-0.5,0.3-0.9,0.2
			c-0.2,0.5-1,0.7-1.2,1v-0.2c-0.2,0-0.2,0-0.3,0c0,0.2,0,0.3-0.2,0.5c-0.2,0-0.3-0.2-0.5,0c0,0.2,0.2,0.2,0,0.3
			c-0.2,0-0.3,0.2-0.7,0.3c0-0.2,0-0.2-0.2-0.3c-0.2,0-0.3,0.2-0.3,0.5h-0.2c-0.2,0.3-1.2,0.5-1.7,0.9c-0.3,0.2-0.9,0.7-1,0
			c-0.2,0-0.2,0-0.3,0c-0.2-0.2-0.7-0.5-0.9-0.5h-0.2c-0.3-0.2-0.9-0.5-0.9-0.9c0-0.2,0.2-0.5-0.3-0.7c-0.2-0.7,0.2-1.2,0.2-1.9
			c0.2,0,0.2,0,0.2,0s0,0.2,0.2,0.2c0,0,0.2,0,0.2-0.2c0-0.7-0.3-1.2,0-1.7c-0.2-0.2,0-0.5,0-0.7c-0.3,0-0.3,0.3-0.5,0.5
			c0,0,0,0,0-0.2c-0.3,0.2-0.5,0.5-1,0.9c0,0,0,0-0.2,0c-0.9,0.3-1.6,0.9-2.3,1.2h-0.2c-0.5,0.3-1,0.7-1.7,1c-0.9,0.5-2.4,1-3.5,1.4
			c-0.5,0.2-0.9,0-1,0.5c-1.2,0.2-1.4,1.2-2.6,1.2c-0.5,0.3-1.2,0.5-1.6,1c-0.7,0.3-1.4,0.5-2.1,1l0,0c-0.5-0.2-0.9,0.5-1.2,0.7
			c-0.2,0-0.5,0-0.7,0c-0.2,0-0.2,0.2-0.3,0.2c-0.5,0.2-1,0.2-1.4,0.5c-0.9,0-1.4-0.2-2.1-0.3c-0.2,0.2-0.7,0.2-0.9,0
			c-0.2,0-0.2,0.2-0.2,0.2c-1.4,0-1.7-1-1.9-2.1c-0.5-0.5-0.7-1.4-0.9-2.3c-0.3-0.2-0.5-0.7-0.7-1.2c-0.2-0.3-0.7-0.9-0.3-1.6
			c0-0.2,0.2-0.9,0.5-1.2l-0.2,0.3l0.2,0.2c0.2-0.2,0.3-0.2,0.5-0.3c0,0.2-0.2,0.3-0.3,0.5c0.2,0.2,0.2-0.2,0.2-0.2
			c0.3-0.2,0.5-0.5,0.7-0.7c-0.2,0.3-0.5,0.5-0.7,1c0.2,0,0-0.2,0.2,0c0,0.3,0.2,0.3,0.3,0.7c0.3-0.2,0.7-0.2,0.7-0.9
			c0.2,0,0.2,0,0.2,0c0-0.3,0-0.9-0.2-1c0-0.2,0.2,0,0.2-0.2c0.2,0.2,0.3,0,0.3-0.2c-0.3,0,0.2-0.2,0.3-0.2c-0.5-0.3,0-1,0.3-1.2
			c0,0.2,0,0.3,0.2,0.2c-0.2,0.2-0.3,0.2-0.5,0.3c0.2,0,0.3,0,0.7-0.2c-0.2,0.2-0.3,0.2-0.3,0.3c0.2,0,0.2,0,0.3-0.2
			c0.3,0,0.9-0.2,1.2-0.2c0.7-0.3,1.2-0.5,1.7-0.9c0.9-0.5,1.7-0.7,2.6-1.2c0.7,0,1.2-0.3,1.7-0.5c0-0.2-0.2,0-0.3,0
			c0.2-0.2,0.5-0.2,0.7-0.5c-0.2-0.2-0.2,0-0.3,0c0,0,0,0,0-0.2l-0.2-0.2c0.3-0.2,0.7-0.3,0.9-0.7c-0.2-0.2-0.3-0.2-0.7-0.3
			c-0.2-0.2-0.3-0.5-0.7-0.5c-0.7-0.3-1.2-1.2-1.7-2.1c-0.2-0.3-0.5-0.5-0.9-0.9c-0.3-0.5-0.3-1.2-0.7-1.7c0-0.5,0.3-0.9,0.9-1
			c0.2-0.2,0.2-0.3,0.2-0.7c0,0,0.2,0.3,0.3,0.5c0.2,0,0.2-0.2,0.3-0.2c-0.2-0.7,0.7-0.5,0.7-1c0.3,0,0.9-0.3,1.2-0.2
			c0-0.2,0.7,0,0.7-0.2c-0.5-0.2-1-0.5-1.4-0.9s-0.7-0.5-0.5-1c0-0.3,0-0.7,0-1c0-0.2-0.2-0.3-0.2-0.7s0-0.9,0.5-0.9
			c0-0.2,0.2-0.5,0.3-0.3c1-2.1,2.8-3.5,4.3-5.2c-0.3,0-0.7,0-0.7,0.3c-1.2-0.2-1.4,1-2.1,1.6c0.2-0.5,0.9-1,1.2-1.6
			c0-0.2-0.2,0-0.2-0.2c-0.5,0.3-0.7,1.2-1.2,1.6h-0.2c-0.3,0.3-0.7,0.9-1,1.4c0.3-0.2,0.5-0.5,0.9-0.7c-0.3,0.5-0.7,0.9-1,1.2
			c-0.2,0-0.2,0-0.3,0c0,0,0,0.2,0,0.3c-0.3,0.2-0.5,0.3-0.5,0.9c-0.3,0.3-0.7,0.3-1,0.5c-0.2,0.2-0.3,0.7-0.9,0.5
			c-0.2,0.2-0.5,0.2-0.5,0.5c-0.2,0.2-0.5,0.3-0.5,0.5c-0.2,0-0.3,0-0.3,0s0,0,0,0.2c-0.5,0-0.7,0.3-0.9,0.7c-0.3,0-0.7,0.2-0.7,0.5
			c-0.3,0.2-0.9,0.3-0.9,0.7c-0.3,0-0.5,0-0.3,0.3c-0.3,0.2-0.3,0.5-0.7,0.7c-0.3,0-0.5-0.2-0.9-0.2c-0.2,0-0.2,0.3-0.5,0.3
			c0,0.2-0.2,0.2-0.2,0.3c-0.7,0-1-0.5-1.6-0.9c-0.7-0.2-0.7-0.7-1.4-1c0-0.2-0.2-0.2-0.2-0.3c-0.2,0-0.2,0-0.3-0.2
			c0-0.2,0-0.5-0.2-0.5c0-0.7,0-1.6,0.3-2.1c-0.2-0.2,0-0.7-0.3-0.7c0-0.3-0.2-0.7-0.2-1.2c0.7,0,0.7-0.7,1-1.2
			c0,0.2-0.2,0.7-0.3,0.9c0,0.2,0.2,0,0.2,0c0.2-0.3,0.3-0.9,0.7-1c0-0.3,0.3-0.7,0.3-1.2c0,0,0,0,0.2,0c0.5-1.2,1-2.4,1.6-3.3
			c0,0,0,0.2,0.2,0.2c0-0.2-0.2-0.3,0.2-0.3c0,0.5-0.3,1-0.3,1.6c0.2,0,0-0.2,0.2-0.2c0,0,0,0,0,0.2c0.5-0.9,0.9-1.7,1-2.8
			c-0.2,0.7-0.2,1.7-0.3,2.6c0,0.2,0.2,0.3,0.2,0.5c0,0.2-0.2,0.2,0,0.3c0,0.2,0.2,0.2,0.2,0.3c0-0.2,0.2-0.2,0.2,0
			c0-0.2,0.3-1,0.2-1c0.2,0.3-0.2,0.7,0,1c0.2,0,0.2,0,0.2-0.2c0.2,0.2,0,0.3,0.2,0.7c0-0.3,0.2-0.7,0-0.9c0.2,0,0.2,0.2,0.2,0
			c0.2,0.3,0,1,0.5,1c0.2-1.2,0.3-2.6,0.5-4c0,1.2-0.3,3.1,0,4.3c0.2,0,0.3,0,0.5-0.2c0.5-0.3,1-1,1.7-1.6c0.3-0.3,0.7-0.7,1-1
			c0.3-0.3,0.7-0.9,1-1.4c0.2,0,0.3-0.2,0.3-0.3c0.2,0,0,0,0.2,0c1.6-1.7,3.1-3.3,4.5-5.2c0-0.2-0.2,0.2-0.2,0
			c0-0.2,0.2-0.2,0.2-0.2v0.2c1.6-1.9,2.8-4.2,4-6.3c1.2-1.7,2.6-3.5,3.6-5.2c0,0-0.2,0-0.2-0.2c0.5-0.2,0.9-0.7,0.9-1.2
			c1.4-1.6,2.3-3.6,3.5-5.7c1-1.9,2.3-4,3.1-6.1c0.2-0.3,0.3-0.9,0.3-1c0-0.5-1-1.6-1.4-2.1c-0.2-0.2-0.2-0.3-0.3-0.3
			c0-0.2,0-0.2-0.2-0.3c0.5,0.3,1.6,0,2.1,0.3c0.5,0.2,1,0.9,1.6,1.2c0.5,0.3,1.2,0.5,1.7,0.9c0.2,0,0.2,0.3,0.3,0.3
			c0.3,0.3,0.9,0.5,1.2,0.9c-0.2,0.3,0,0.5-0.3,0.7c0,0.2,0.2,0,0.2,0.2c0,0.2,0,0.2,0,0.2c-0.2,0,0,0-0.2,0c0,0,0,0.2,0,0.3
			c0.2,0,0.2,0,0.2,0c0-0.2,0.2-0.2,0.2-0.3c-0.2-0.2,0,0.2-0.2,0c0-0.3,0.2-0.2,0.2-0.7c0.2,0,0,0.2,0,0.2c0.2,0,0.2-0.2,0.2,0
			c0.2,0,0-0.2,0-0.2c0.5,0.3,0.7,1,0.9,1.7c0.2,0.2,0.3,0.3,0.3,0.3c0,0.5-0.2,0.9,0,1.4c0.5,0.3,0.5,1.2,1,1.6
			c-0.2,0.2-0.5,0.2-0.7,0.3c-0.2,0.2-0.2,0.2-0.2,0.3c-0.2,0.3-0.7,0.5-1,0.9c-0.2,0.2-0.2,0.3-0.3,0.5c1,0.5,2.1,1.2,3.1,1.7
			l0.2,0.2c0.9,0.2,1.2,0.7,1.9,1.2c0.5,0.2,0.7,0.5,1,0.7c0.3,0.5,0.7,0.7,0.9,1.4c0,0.2-0.2,0.2-0.2,0.3c0,0.2,0.2,0.2,0.3,0.3
			c0,0.3,0,1-0.5,1c-0.2,0.2,0.2,0.2,0,0.3c-0.2,0-0.5,0.2-0.5,0.3c-0.3,0-0.7,0.2-0.5,0.5c-0.2,0-0.2,0-0.3,0c0,0,0,0,0,0.2
			c0,0,0,0,0-0.2c0,0-0.2,0.2-0.2,0c-0.2,0.3-0.3,0.2-0.5,0.3c0,0,0,0,0-0.2c-0.2,0.3-0.5-0.2-0.5,0.2c0-0.2-0.2,0-0.3,0
			c-0.7,0.2-1.7-0.3-2.3-0.5c0,0.2-0.2,0-0.2,0.2c-0.2-0.2-0.3,0-0.3-0.2c-0.3,0.2-0.9,0.3-1.2,0.3c0.2-0.2-0.2,0-0.2,0
			c0-0.2,0,0,0-0.2c-0.2,0.2-0.5,0.2-0.7,0.3c-1.2,0.3-2.3,0.9-3.1,1.4c-0.2,0-0.2,0-0.3,0c0-0.2,0.2,0,0.2-0.2c0,0-0.2,0-0.3,0
			c0.3,0.5,0.7,1,1.2,1.4c1.4-0.5,2.3,0.9,3.5,0.5c0,0.2,0.2,0.3,0.3,0.3c0-0.2-0.2-0.2,0-0.3c0.2,0,0.2,0.2,0.3,0.2v0.2h0.2
			c0,0.5,0.5,0.3,0.9,0.5c0.5,0.7,1.4,1,1.6,1.9c0,0.2-0.2,0.2-0.2,0.3c0,0.2,0.3,0.3,0.2,0.3c0,0.2-0.3,0.2-0.5,0.2
			c0,0.2,0.2,0.3,0.2,0.5c0,0.2-0.2,0,0,0c-0.2,0.2-0.3,0.3-0.9,0.3c0,0.2,0,0.2,0,0.3c0,0-0.3,0.2-0.2,0.2c-0.5,0.2-1,0.7-1.7,1
			c-0.2,0-0.2,0.2-0.2,0.2c-1.2,0-2.1,0.3-2.3,1.6c0.3,0,0.3-0.3,0.7-0.3c-0.2,0.2-0.5,0.3-0.7,0.5c0,0.3,0,0.7-0.2,0.9
			c0.2,0,0.5,0.2,0.7,0c0.2,0,0.2,0,0.2,0.2c0.2,0,0.3,0,0.5,0c0.7,0,1.4,0.2,1.9,0.5c1-0.3,1,1.4,1.9,0.5c0.2,0.2,0.2,0.5,0.5,0.3
			c0,0.2-0.2,0.3-0.5,0.5c0,0.3-0.2,0.7-0.2,0.9c0,0.2,0.2,0,0,0.2c-0.2,0-0.3,0.2-0.5,0.2c0,0.2,0,0.2,0,0.3
			c-0.3,0-0.3,0.3-0.5,0.3c0.7,0,1.2-0.2,1.9,0c0.2,0,0.3,0.2,0.7,0.2c0.5,0.2,1,0.2,1.6,0.2c-0.2-0.2-0.3-0.5-0.3-0.9
			c-0.5-0.5-0.3-1.9-0.9-2.6c0.2-0.2,0.2-0.5-0.2-0.5c0-0.2,0.2,0,0.2-0.2c0-0.3-0.2-0.3-0.2-0.7c0.2-0.3,0.7-0.5,0.7-0.9
			c0.3,0,0.7-0.7,1.2-1c0.9-0.7,1.9-1.6,2.6-2.3c-0.5-0.7-0.3-1.7-0.2-2.8c0-1-0.2-1.9,0.3-2.6c-0.5-1.2-1.4-1.9-1.7-3.1
			c0-0.2,0,0,0.2,0c0-0.2-0.2-0.2,0-0.3s0.5-0.3,0.5-0.7c0.7-0.5,1.6-1,2.3-1.6l0,0c2.1-0.7,3.5-1.9,5.4-2.6c0,0,0.2-0.2,0-0.2
			c0.3,0,0.7-0.2,1.2-0.3c0.3-0.2,0.7-0.3,1-0.3c0.3-0.2,1-0.5,1.6-0.7c0.3,0,0.5-0.3,1-0.3c0.2,0,0,0.2,0.2,0.2v-0.2
			c0.5,0,0.7-0.3,1-0.3v0.2c0.2,0,0.2-0.3,0.3-0.3c0,0.2-0.2,0.2-0.2,0.3c0.3,0,0.7-0.2,1-0.2c0,0,0.2-0.2,0-0.2c0,0,0.2,0,0.2-0.2
			c0.3-1.9,0.7-3.6,0.9-5.6c0-0.3,0.2-0.7,0.2-0.9c0.3-1.9,1-3.5,1.4-5c-0.3-0.3-0.7,0.2-1,0c-0.2,0-0.2,0.2-0.2,0.2
			c-0.2,0,0-0.2-0.2-0.2c-0.2,0.2-0.3,0.5-0.7,0.5c0-0.2,0-0.2,0-0.2c-0.2,0-0.3,0.3-0.5,0.3c-0.2-0.2,0.2-0.3,0-0.5
			c-0.2,0-0.2,0.2-0.2,0c0,0.2,0,0.2,0,0.3c-0.2,0-0.2,0.2-0.3,0.2l0,0c-0.2,0,0.2-0.2,0-0.3c-0.2,0.2-0.2,0.3-0.3,0.5
			c-0.2-0.3,0.3-0.3,0.3-0.7c-0.2,0.2-0.5,0.3-0.5,0.7c0,0,0-0.2-0.2,0c-0.2,0.2,0,0.2,0,0.3c-0.2,0,0,0.2-0.2,0.2c0-0.2,0,0,0,0
			v-0.2c-0.2,0,0,0-0.2,0s0,0.2,0,0.3c0-0.2-0.2-0.2-0.2,0c0-0.2,0-0.3-0.2-0.5c-0.3,0.2-0.2,0.5-0.3,0.9c-0.3-0.2-0.5,0.7-0.7,0.9
			c-0.2,0,0,0-0.2,0c-0.2,0.2-0.2,0.3-0.5,0.5c0.2,0.2,0,0.5-0.3,0.5v0.2c-0.2,0-0.2,0-0.3,0v-0.2c-0.2,0.2-0.2,0.7-0.5,0.9
			c0.2-0.3,0-0.9,0.2-1.2c0,0,0,0-0.2,0c0.7-1.4,1.2-3,2.1-4.2c0-0.2,0-0.5,0.2-0.5c0,0.2,0,0.2-0.2,0.3c0.5-0.3,1-1,1.6-1.7
			c0.2,0,0.3-0.2,0.5-0.5c0-0.2-0.2,0-0.2-0.2c0.2,0.2,0.2,0,0.2,0c0.2,0.2,0.2,0,0.3,0c0,0.2-0.2,0-0.2,0.2c1-0.3,2.3-1,3.6-1.2
			c0.2,0,0-0.3,0.2-0.3c0-0.2-0.2,0-0.2,0C280.1,326.6,280.1,326.4,280.4,326.4c-0.2,0.2-0.3,0.2-0.2,0.3
			C280.2,326.6,280.2,326.4,280.4,326.4L280.4,326.4L280.4,326.4z M275.2,371.6c0.2,0,0.3-0.5,0.2-0.7
			C275.4,371,275.2,371.2,275.2,371.6L275.2,371.6L275.2,371.6L275.2,371.6z M259.9,369.5c0,0.2,0.2,0.3,0.3,0.3
			c0-0.3,0.3-0.7,0.3-0.9C260.4,369.3,260.3,369.5,259.9,369.5L259.9,369.5L259.9,369.5L259.9,369.5z M252.8,343.3
			c0.2,0.2,0.5,0.2,0.7,0.3c0-0.3,0.5-0.7,0.3-1C253.5,342.7,253.3,343.3,252.8,343.3L252.8,343.3L252.8,343.3L252.8,343.3z
			 M240.3,389.1c-0.9,0.3-1.6,0.5-2.1,1.2c0,0.2,0,0.2,0,0.2c0.2,0,0.2-0.2,0.2,0c-0.2,0.2-0.3,0.2-0.5,0.5c0,0.2,0.2-0.2,0.2,0
			c-0.2,0-0.3,0.2-0.5,0.3c-0.5-0.2-1,0.5-1.6,0.7c0,0.2,0,0.2,0,0.2c-0.2-0.2-0.5,0-0.7,0.2c0.3,0,0.5,0,0.9,0
			c0.7,0,1.6-0.5,2.3-0.5c0.2,0,0.2,0,0.3,0c0.9,0.2,1.7-0.2,2.3-0.5c0.5-0.2,1-0.3,1.4-0.7c-0.2-0.2,0,0.2-0.2,0
			c0-0.3,0.2-0.9,0-1.4c0.2-0.3,0.3-0.5,0.2-1C241.5,388.4,240.7,388.6,240.3,389.1L240.3,389.1L240.3,389.1L240.3,389.1z
			 M240.8,382.7c-0.3-0.2-0.5,0.2-0.9,0.2c-0.2,0.3-0.3,0.9,0,1.2c0,0.2-0.2,0-0.2,0.2c0.5-0.2,1.2-0.5,1.6-0.9
			C241.3,383,241,383,240.8,382.7L240.8,382.7L240.8,382.7L240.8,382.7z M260.1,381.6c-0.3-0.3-0.5-0.9-1-0.7c-0.3,0.2,0,0.5,0,0.9
			c0,0.7-0.5,1-0.9,1.6c0,0.2,0,0.2,0,0.2c-0.3,0.2-0.3,0.7-0.7,0.9c-0.2,0.5,0,1.4-0.5,1.7c0-0.2,0.2-0.5,0-0.7
			c-0.2,0.2-0.5,0.7-0.9,0.7c-0.5,0.5-0.9,1.2-1.2,1.7c0,0-0.3,0.3-0.5,0c0.2-0.2,0.2-0.3,0.3-0.7c-0.7,0.2-0.7,0.9-1.4,1.2
			c-0.3,0-0.3,0.2-0.5,0.3c0.2,0,0.2,0.2,0.3,0.3c-0.2,0.2-0.3,0.2-0.3,0.3c0.3-0.2,0.5-0.2,0.5-0.5c0,0,0,0.2,0.2,0
			c2.1-1.2,3.8-3,5.7-4.3l0,0h0.2v0.2c0.9-1.4,3-2.1,4-3.5c-0.3,0.2-0.7,0-0.9,0c0,0.2,0.2,0.2,0.2,0.3l0,0c-0.2,0-0.2-0.2-0.3-0.2
			v0.2c-0.3,0.2-0.7,0.5-1.4,0.3C260.6,382.2,260.3,381.8,260.1,381.6L260.1,381.6L260.1,381.6L260.1,381.6z M241.2,382
			c0.5,0,0.9,0,1.4,0c-0.3-0.9,0.3-1.9,0-3C242.2,380.1,240.7,380.6,241.2,382L241.2,382L241.2,382L241.2,382z M257.1,377.8
			C257,377.8,257,377.8,257.1,377.8c-0.7,0.5-0.9,1.4-1.6,1.7c-0.2,0.5-0.5,0.7-0.9,1c-0.2,0.2-0.3,0.3-0.3,0.5
			c-0.9,0.5-1.4,1.4-2.1,2.1c-0.2,0-0.2,0-0.2,0c-0.3,0.5-0.9,0.9-1.6,1.2c0-0.2-0.2-0.2-0.2,0c0,0.2,0.2,0,0.3,0
			c-0.5,0.2-0.7,0.7-1.4,0.7c0,0.5,0,1,0,1.4c0.2,0,0.3,0,0.5,0c0.3-0.5,1.2-0.7,1.4-1.2c0.2,0,0,0.2,0,0.2c0.9-0.3,1.6-1,1.9-2.1
			c0.3-0.2,0.3-0.3,0.5-0.7c0.2,0,0.3,0,0.5,0c0-0.2,0-0.3,0-0.3c0.2,0,0.2,0,0.3,0c0-0.2,0.2-0.2,0.2-0.5c0.7-0.7,1.2-1.4,1.9-1.9
			c0-0.3,0.3-0.5,0.3-0.7c0.2-0.2,0.2-0.5,0.3-0.7c0.3-0.5,1.2-0.7,1-1.4C257.8,377.1,257.1,376.9,257.1,377.8L257.1,377.8
			L257.1,377.8L257.1,377.8z M234.1,380.2c0.3,0,0.9-0.2,1.2,0c0.7,0.2,1.4,0.5,2.1,0.7c1-0.5,2.1-1.2,3.3-1.9
			c0.2-0.2,0.5-0.3,1-0.5c0.2-0.2,0.9-0.5,0.9-0.7c0.2-0.5-0.2-0.9,0-1.4c-0.9,0.3-1.6,1-2.4,1.4c-0.5,0.2-1,0.2-1.6,0.3
			c-0.3,0.2-0.5,0.3-0.9,0.5c-0.5,0.2-1.2,0.2-1.7,0.5c-0.2,0-0.2,0.2-0.3,0.3c-0.3,0.2-0.7,0.2-1,0.2c-0.5,0.2-1,0.7-1.7,0.5
			C233,379.9,233.5,380.1,234.1,380.2L234.1,380.2L234.1,380.2L234.1,380.2z M234.8,380.6c-0.3,0.3-0.7,0.9-1.4,0.9
			c-0.3,0.2-0.5,0.9-1,0.5c0,0.2,0,0.3,0.2,0.3c2.1,0.2,3.3-0.7,4.7-1.4C236.5,380.6,235.6,380.1,234.8,380.6L234.8,380.6
			L234.8,380.6L234.8,380.6z M281.3,374.2c-0.2-0.2-0.3,0.2-0.7,0.2c0,0.3-0.5,0.5-0.5,0.9c0.5-0.2,1-0.5,1.6-0.7
			c0-0.2-0.2-0.2-0.2-0.5C281.5,374.2,281.5,374.2,281.3,374.2L281.3,374.2L281.3,374.2L281.3,374.2z M253,370.5L253,370.5
			c-1.4,0.3-2.8,0.9-3.6,1.6c-0.3,2.3-0.3,4.5-0.7,6.9c0.5-0.3,1.2-0.9,1.6-1.4c0.3-0.2,0.9-0.5,0.9-1c0.2,0,0.2-0.2,0.3-0.2
			c0.9-0.9,1.7-1.7,2.4-2.8c0.2-0.9,0.5-1.4,0.5-2.4c-0.2-0.9-1-0.3-1.7-0.3c0.3-0.2,0.7-0.3,1-0.5c-0.3-0.2-0.9,0.2-1,0.2
			C252.8,370.5,253.2,370.7,253,370.5L253,370.5L253,370.5L253,370.5z M271.2,368.4c-0.9,0.3-1.4,0.5-2.4,1.2
			c-1,0.7-2.3,1.2-2.8,1.9c-0.3,0.3-0.5,1.2-0.7,1.7c-0.3,0.9,0.2,1.6,0.3,2.3c0.2,0.3,0.3,1.2,0.5,1.2s0.3-0.5,0.5-0.7
			c0,0,0,0.2,0.2,0.2c1.7-0.3,2.3-1.9,3.1-3.3c0-0.2-0.2-0.3-0.2-0.3s0.2,0.3,0.2,0c0.3-0.2,0.3-0.5,0.5-0.9
			C270.9,370.9,271.4,369.7,271.2,368.4L271.2,368.4L271.2,368.4L271.2,368.4L271.2,368.4z M238.6,368.8c-0.2,0.2-0.3,0.3-0.5,0.5
			c-1.4,0.5-2.3,1.7-3.5,2.4c0,0.3-0.5,0.3-0.7,0.7c-0.3,0.2-0.5,0.7-0.7,0.9c-0.3,0.3-0.9,0.5-0.9,1.2c0.3,0,0.9,0,1-0.2
			c0.7-0.3,1.4-1,2.3-1.6c2.3-1.6,4.7-3,7.3-4c0-0.5,0.2-1.2,0-1.6C241.2,367.4,240.3,368.4,238.6,368.8L238.6,368.8L238.6,368.8
			L238.6,368.8z M276.1,371.6c0.3-0.2,0.7-0.5,1-0.9c0.9-0.7,1-1.7,1.6-2.6c0.2-0.2,0.5-0.5,0.5-0.7c0-0.7-1-0.7-1.9-0.7
			c-0.3,0.7-0.3,1.7-0.7,2.3c0.2-0.5,0.3-1.2,0.3-1.7c0,0.2-0.2,0.2-0.3,0.2c0,0.2-0.2,0.3,0,0.5c0,0,0,0-0.2,0c0,0.2,0,0.2,0,0.3
			c-0.2,0.2-0.3,0.5-0.3,0.7c0,0.2,0.2-0.2,0.2,0c-0.2,0.5-0.3,1-0.5,1.6c0,0.2,0.2,0,0.2,0.2c-0.2,0.3-0.5,1-0.3,1.4
			C275.6,371.9,275.9,371.9,276.1,371.6L276.1,371.6L276.1,371.6L276.1,371.6z M263.9,367.7c-0.3,0.3-0.3,0.7-0.5,1
			c0.2,0,0,0.3,0.2,0.2c-0.2,0.5,0,0.7,0,1c0.9-0.7,1.7-1.6,2.8-2.3c0-0.2-0.2-0.2,0-0.2v0.2c0.2,0,0.3-0.3,0.5-0.5
			c0.7-0.2,1-0.7,1.7-1c0.3-0.2,1-0.3,1.2-0.7c0,0.2,0.2,0,0.3,0c0.5-0.5,1.2-0.9,2.1-1c0-0.2,0.2-0.2,0.2-0.3c0-0.5,0.2-1,0.2-1.6
			c-0.2,0-0.5,0.2-0.7,0.3c-2.1-0.3-3.3,1.6-4.9,1.7c0,0.2,0,0.2-0.2,0.2c0,0.2-0.2,0.2-0.3,0.3c0,0,0,0.2,0,0.3
			c-0.2,0.2-0.3,0.2-0.3,0.3C265.1,366.5,264.4,366.9,263.9,367.7c0,0,0,0.3-0.2,0.3C263.7,367.9,263.9,367.9,263.9,367.7
			L263.9,367.7L263.9,367.7L263.9,367.7z M272.8,356.1h-0.2c-0.3,0.2-0.7,0.3-1.2,0.5c-0.2,0-0.2,0-0.3,0c-0.2,0.2-0.3,0.3-0.5,0.3
			h-0.2c-0.2,0-0.3,0.2-0.5,0.3h-0.2c-0.3,0.2-0.5,0.3-0.7,0.3c-0.5,0.5-1.2,0.5-1.7,0.9c-1.2,0.7-2.3,1.4-3.3,2.3
			c-0.2,0.2-0.3,0.2-0.3,0.3c0.7-0.2,1.4-0.3,2.3-0.7c1.2-0.5,2.3-1,3.3-1.6c0.5-0.2,1.4-0.7,1.7-1c0,0,0,0.2,0,0
			c0-0.3-0.3-0.5-0.3-0.7c0.2,0.2,0.3,0.5,0.5,0.7c0.9-0.5,1.6-0.9,2.4-1.2c0-0.3,0.2-0.7,0-1C273.5,355.9,273,355.8,272.8,356.1
			L272.8,356.1L272.8,356.1L272.8,356.1z M278,362c0,0.2,0.3,0.3,0.5,0.2c-0.2,0.2,0,0,0.2,0v0.2c0.3,0.3,1.2,0.2,1.6,0
			c0.3,0.2,0.5,0.5,1,0.3c0,0.2,0.3,0.2,0.3,0.3c0.5,0,0.7,0.2,1.2,0c1-0.2,2.3-0.9,3.5-1.4s2.6-0.9,3.6-1.4
			c0.5-0.3,1.2-0.7,1.7-0.9c0.5-0.3,1.2-0.7,1.6-1s0.9-1.4,1.2-1.7c0-0.2-0.2-0.5-0.2-0.7c-0.2-0.2-0.5-0.3-0.9-0.3
			c-0.5,0-0.9-0.3-1.4-0.5c-0.2,0-0.5,0-0.7,0c-0.2,0-0.3-0.2-0.5,0c-0.3,0.2-0.9,0.5-1.4,0.3c0,0-0.2,0.2-0.3,0.2
			c-0.3,0-0.5,0.2-0.9,0.2c-0.2,0-0.5,0-0.9,0.2c-0.2,0-0.3,0.2-0.5,0.3h-0.2c-0.2,0-0.3,0.2-0.7,0.2c-0.5,0.2-0.9,0.2-1.2,0.5
			c-0.2,0-0.3,0.2-0.5,0.2c0-0.2,0-0.2,0-0.2c-0.3,0.2-0.7,0.5-1,0.7c-0.2,0-0.5-0.2-0.5,0.2c0,0,0-0.2-0.2,0
			c-0.2,0.2-0.3,0.3-0.5,0.3c-0.3-0.2-1,0.3-1.4,0.2c0.2-0.2,0.3-0.3,0.5-0.5c-0.5,0-0.9,0.2-1,0.3c0,0.2,0.2,0,0,0.2
			c-0.2,0.2-0.5,0.3-0.9,0.5c0-0.2-0.2-0.3-0.3-0.3c-0.2,0-0.2,0.2-0.3,0.2c0,0.2,0,0.3-0.2,0.5c0-0.2,0.2-0.3,0-0.5
			c0,0.2-0.2,0.5-0.3,0.5c0,0.2,0.2,0.2,0,0.3c-0.2,0.3-0.2,0.7-0.2,1.2c-0.2,0.2-0.3,0.9-0.2,0.7C277.8,361.8,278,362,278,362
			L278,362L278,362L278,362z M242.4,356.5c0,0.2,0.2,0.2,0,0.3c-0.2,0-0.2,0-0.2,0S242.4,356.6,242.4,356.5
			c-0.2,0.5-0.9,0.7-0.7,1.2c-0.2,0-0.2,0-0.3,0c-1.6,1.9-3,4-4.2,6.1c1-0.2,1.4-0.9,2.1-1.4c1.4-1.2,2.8-2.1,4.3-3.1
			c0.2-1.2,0.2-2.8,0.2-3.8c0-0.2,0.2-0.7,0-0.7C243.4,355.2,243.1,355.9,242.4,356.5L242.4,356.5L242.4,356.5L242.4,356.5z
			 M274.3,349.9C274.3,350,274.3,350,274.3,349.9C274.3,350,274.3,349.9,274.3,349.9c-0.3,0.2-0.5,0.3-0.7,0.3V350
			c-0.2,0.3-0.5,0.3-0.9,0.5c0,0,0,0,0-0.2c-0.2,0-0.2,0.2-0.2,0.2c0-0.2,0.2-0.2,0-0.2s0,0.2,0,0.2c0-0.2,0-0.2,0-0.2
			c-0.5,0.2-1.6,0.3-1.9,0.7c-0.2,0-0.3,0-0.5,0.2v-0.2c-0.2,0.3-0.9,0.5-1.2,0.7c-0.3,0.2-0.7,0.2-1,0.3c-0.2,0.2-0.3,0.3-0.5,0.3
			c0,0,0,0.2-0.2,0.2c-0.5-0.2-0.7,0.5-0.5,0.9c0.2,0,0.2-0.2,0.5,0c0.2,0,0.2,0.2,0.5,0.2c0.7-0.3,1.2-0.7,1.9-1
			c0.3-0.2,0.5-0.2,0.9-0.2c1.7-0.5,3.6-1.4,5.2-2.1c0-0.3,0.2-0.7,0.2-1.2C275.2,349.5,274.7,350,274.3,349.9L274.3,349.9
			L274.3,349.9L274.3,349.9z M250,346.6c-0.5,0.5-0.9,0.9-1.2,1.4s-0.5,1-0.9,1.6c-0.5,0.9-0.7,1.9-1.2,2.8c0.5,0.3,0.7,1,1.4,1.2
			c1.4-1.2,2.8-2.4,3.8-4c-0.2-0.2-0.3-0.5-0.3-0.7c-0.5-0.5-0.7-1.2-1.2-1.7c-0.2,0-0.2,0.2-0.3,0.2
			C250.2,347.1,250.2,346.7,250,346.6C250.2,346.6,250,346.6,250,346.6L250,346.6L250,346.6L250,346.6z M282.5,390.3
			C282.5,390.1,282.7,390.3,282.5,390.3c-0.2-0.2-0.5,0-0.7,0.3v-0.2c-0.2,0.3-0.3,0.3-0.7,0.5c-0.2,0,0-0.3-0.2-0.3
			c-0.3,0-0.2,0.3-0.3,0.5c0,0,0-0.3-0.2-0.3c-0.2,0.2-0.2,0.3-0.3,0.5v-0.2c-0.3,0-0.3,0.3-0.7,0.5c0-0.2,0,0,0-0.2
			c-0.3,0-0.3,0.2-0.5,0.3c-0.2,0-0.2,0-0.3-0.2c-0.3,0-0.5,0.3-0.5,0.5c-0.2,0-0.2,0.2-0.3,0c0,0,0.2-0.2,0-0.2c0,0-0.2,0.2-0.5,0
			c0,0.2-0.2,0.2-0.2,0.3c-0.3-0.2-0.7,0.3-1,0.3v-0.2c-0.3,0.7,0.7,0.5,1,0.9c0.2,0.7,0.9,0.7,1,1.4c0.5,0.3,1,1,1.4,1.7
			c0.2,0.3,0.7,0.9,0.7,1.4c0,0.2,0,0.3,0,0.5c0,0.3,0,0.7,0,1c0,0.7,0,0.7-0.2,1.2c-0.3,0.2-0.7,0-1,0c-0.3,0-0.3,0.3-0.7,0.5
			c-0.2,0-0.5,0-0.7,0c-0.7,0-1.6-0.5-2.3-0.5c0-0.2-0.2-0.2-0.2-0.2c-0.2,0-0.2,0.2-0.3,0.2c0-0.2-0.2-0.2-0.3-0.2
			c0-0.2-0.2-0.2-0.2-0.3c-0.3,0-0.5,0-0.5-0.2c-0.2,0.2-0.3-0.2-0.5-0.2c0-0.2,0-0.2,0-0.2c-0.2-0.3-0.5-0.3-0.9-0.5
			c-0.3-0.2-0.3-0.7-0.9-0.9c-0.5-1-1.7-1.4-1.7-2.8c-0.5,0.3-1.6,0.5-2.1,0.9c-0.3,0-0.7,0-1.2,0c0-0.2,0.2,0,0-0.2
			c-0.7,0-0.7-0.7-1.4-0.5c-0.2-0.3-0.5-0.5-0.3-1c-0.2,0-0.3-0.2-0.5-0.2c0-0.2,0-0.5-0.2-0.5c0,0.5-0.3,1.2,0,1.6
			c-0.3,1.6,0.3,3.1,0.9,4.7c0.2,0.5,0.2,1.2,0.5,1.7c0,0.5,0.3,0.7,0.5,1h0.2c0.5,1.4,1.2,2.6,2.1,3.8c0.3,0.5,0.9,0.7,1,1.2
			c0.5,0.5,1,0.9,1.7,1.2c0.5,0.3,1.2,0.7,1.9,0.9c1.6,0.3,3.5,0.7,5.2,0.7c1.7,0,3.5-0.3,4.2-1.6c-0.2-0.9,0-1.6,0-2.3
			c0.3-0.3,0.2-0.9,0.3-1.4c0,0-0.2,0-0.2-0.2c0.5-3.1,0.5-6.8,0.9-10.1c0.2-1.6,0-3.3,0-4.7c0-0.3,0.2-0.7,0-0.7
			C282.8,390.1,282.7,390.5,282.5,390.3L282.5,390.3L282.5,390.3L282.5,390.3z M276.1,383.7c0,0.2-0.2,0.2-0.3,0.3
			c0,0,0-0.2-0.2-0.2s-0.2,0.2-0.2,0.3c0,0,0-0.2-0.2-0.2c-0.2,0.2-0.2,0.3-0.3,0.5c0-0.2-0.2-0.2-0.2-0.2c-1.2,1-2.4,2.1-3.1,3.8
			c0.2,0,0,0.2,0.2,0.2c0,0-0.2-0.2,0-0.2c0,0,0,0.2,0.2,0.2v-0.2c0,0.2,0.2,0.2,0.2,0.2c0.3-0.2,0.5-0.3,0.9-0.5c0,0.2,0,0.2,0,0.3
			c3.3-1.4,6.3-3,9.7-4c-0.2-1.4,0-3.3-0.5-4.2c0,0.3-0.2,0.3-0.3,0.5c0,0,0-0.2-0.2-0.2c0.2,0.3-0.3,0.2-0.3,0.3
			c0.2,0,0.3-0.2,0.3,0c-0.3,0.3-0.9,0.3-1.2,0.5c0-0.2,0-0.2,0-0.2c0,0.2-0.2,0-0.2,0c0-0.2,0.2-0.2,0.2-0.3
			c-0.3-0.2-0.9,0-0.7,0.5c-0.2,0-0.3,0.2-0.3,0.3h0.2c-0.3,0.3-0.7,0.3-1,0.5c0-0.2,0-0.2,0-0.2c-0.2,0,0,0.2-0.2,0.2V382
			c-0.2,0-0.2,0.2-0.3,0.3c0.2,0,0.2-0.2,0.2,0c-0.3,0.2-0.7,0.3-0.9,0.5c-0.3-0.2-0.5,0.2-0.5,0.3c-0.3,0-0.3,0.2-0.5,0.2
			c0,0.3-0.3,0.3-0.5,0.5C276.2,383.9,276.2,383.7,276.1,383.7L276.1,383.7L276.1,383.7L276.1,383.7z"/>
		<path fill="#BE9A5C" d="M576.8,352.3c0.2,0,0-0.2,0.2-0.2c0,0.2,0,0.3-0.2,0.3c0.2,0,0,0.3,0.2,0.5c0,0,0,0.2-0.2,0.2
			c0,0.2,0.2,0.2,0.2,0.2c0,0.7-0.3,1.4-0.3,2.1c-0.2,1.2,0.2,2.3,0.5,3.6c0.2-0.2,0-0.2,0-0.3c0.2,0.3,0.2,0.7,0,1.2
			c0.2,0,0-0.2,0.2-0.2c0.2,1.2,0.2,2.6,0.3,3.8c0.2,0,0-0.5,0.2-0.7c0.2,0.2,0,0.7-0.2,0.9c0,0.5,0.2,1,0.2,1.6
			c0.2,0,0.2-0.3,0.2-0.7c0.3,0.3-0.2,0.5-0.2,1c0,0.5,0.2,0.9,0,1.4c0.3,0.9,0.2,2.3,0,3.1c0.2-0.2,0.2-0.2,0.2-0.5
			c0.2,1.2,0.3,2.8,0.3,4.2c0,0.2,0.2,0,0,0c0.2,0.2,0.2,0.7,0,0.9c0.3,0.5,0.3,1.6,0.2,2.3c0.2,0,0.2-0.3,0.3-0.2
			c0,0.3,0,0.5,0.2,0.7c-0.2-0.2-0.2,0.2-0.2,0.3c0,0,0-0.2-0.2-0.3c-0.2,0.3,0,1,0,1.2c0.2,0,0-0.3,0.2-0.3c0,0.2,0,0.3,0.2,0.2
			c-0.2,0.5-0.2,1.2-0.2,1.9c0-0.2,0-0.3-0.2-0.5c0,0.3,0,0.5,0,0.9v-0.2c0,0.3,0,1,0.2,1.2c0,0.3,0,1,0.2,1.4c0.2,0,0-0.2,0.2,0
			v0.2c-0.2,0.3-0.3,0.7-0.2,1.2l0,0c0,0.9,0,2.3,0,3.5c0.2,0.2,0-0.3,0.2-0.2c0.2,0,0,0.2,0,0.2c-0.2,0.2-0.2,0-0.2,0.2
			c0,0,0,0,0-0.2c-0.2,0.7,0,1.2,0,1.9c-0.3,0.3,0,0.9,0,1.2c-0.3,0-0.2,0.7-0.2,1c0.2-0.5,0-1,0.5-1.4c0-0.2,0-0.2,0-0.3
			c0.2,0,0,0.3,0,0.3c-0.2,0-0.2,0.2-0.2,0.2c0,0.3-0.3,0.7-0.2,1.2c-0.5,0.7,0,2.1-0.3,3c-0.2,0.5-0.3,1-0.3,1.6c0,0,0,0.2,0.2,0.2
			c-0.2,0.5-0.2,1-0.3,1.6c0.2,0.2,0,0.5,0.2,0.9c0,0-0.2,0-0.3,0c0,0.2-0.2,0.3,0,0.5c-0.2,0-0.2,0.2-0.2,0c0,0.5-0.5,0.9-0.3,1.4
			l-0.2,0.2c-0.2,1-0.7,1.6-1,2.4c0.2,0,0.2-0.2,0.2-0.3c0,0.2,0,0.7-0.3,0.7c0,0.2-0.2,0.3,0,0.5c-0.2,0.7-0.9,1-1.4,1.6
			c-0.2,0.2-0.2,0.3-0.3,0.5c-0.3,0.5-0.9,0.9-1.2,1.4c-0.9,0.9-1.7,1.9-2.8,2.8c-0.3,0-0.2,0.3-0.5,0.3c-0.2,0.5-0.7,0.7-1,0.9
			l-0.2-0.2c-0.5,0.2-1.2,0.3-1.7,0.9c-0.7-0.2-1.2,0.2-1.6,0.3c-0.5,0.2-1.2,0.2-1.7,0.2c-0.3,0-0.7,0.2-1,0.3c-0.5,0-1.4,0-1.9,0
			c-0.2,0-0.3,0.2-0.5,0.2c-0.5,0-1.2,0-1.7,0c-0.9,0-1.7,0-2.4-0.3c-1.7,0-2.8-0.7-3.6-1.4c-0.5-0.2-1-0.3-1.4-0.7
			c-0.9-0.2-1.2-1-1.7-1.6c0-0.3,0-0.7-0.3-0.7c-0.2,0.2,0,0.3,0,0.5c-0.5,0.2-0.9-0.5-1-0.9c-0.2,0-0.2,0-0.2,0.2c0,0,0-0.2,0-0.3
			c-0.2,0-0.2-0.2-0.3-0.2c-0.2,0.2-0.3,0.2-0.5,0.2c-0.5,0.2-1,0.5-2.1,0.5c-0.7,0-1.4,0.3-1.9,0.5c-0.3,0.2-0.5,0.5-1.2,0.2
			c-0.5,0.2-1,0.3-1.6,0.3c-1.4,0-2.4,0.5-3.8,0.5c-0.2,0,0,0.2-0.2,0.2c0-0.3-0.5-0.2-0.5,0c0-0.2-0.5-0.2-0.9-0.2
			c-0.2,0-0.2,0.2-0.5,0v0.2v-0.2c-0.2,0.2-0.3,0.3-0.5,0.2c-0.2,0,0,0.2-0.2,0.2c-0.2-0.3-0.5,0-0.7,0c0-0.2-0.2-0.2,0-0.3
			c-0.3-0.2-0.7,0.5-1,0.2c0-0.2,0-0.3,0.2-0.3c-0.2-0.2-0.3-0.2-0.7-0.3c-0.2,0.2-0.3,0.5-0.7,0.7c0,0.2,0,0.2,0,0.2
			c-0.9,0-1.7,0.2-2.3-0.2c-0.2,0-0.2,0-0.3,0c-1-0.5-2.4-0.3-3.1-1.2c-0.2,0-0.2,0-0.3,0c-0.5-0.5-1.4-0.7-1.9-1.2
			c-0.5-0.2-1-0.3-1.6-0.7l-0.2-0.2c-0.5-0.2-0.9-0.3-1-0.7c-0.2,0-0.3,0-0.5,0.2c0,0-0.2-0.2,0-0.2c-1.2-1-2.1-2.1-2.8-3.5
			c-0.2-0.5-0.5-1-0.7-1.6s-0.3-1.2-0.5-1.7c-0.5-1.6-1.2-3.1-1.7-4.7c0-0.2,0.2,0,0.2,0c-0.2-0.3-0.2-0.9-0.3-1.2
			c0-0.5,0-1.2-0.2-1.6c0,0,0,0-0.2,0c-0.2-0.3-0.2-0.9-0.2-1.4s-0.3-1.2,0-1.7c-0.2-0.3-0.3-0.7-0.2-1.2c0-0.3,0.3-0.7,0.3-1
			c0.2-0.9,0-1.6,0-2.4c0-0.2-0.2,0-0.2,0c0-0.7,0.2-1.4,0.2-1.9c0.2,0,0,0.2,0.2,0.2c0.3-1.4,0.5-2.8,0.5-4.2c0-0.3,0-0.7,0.2-1
			c0-0.3,0.3-0.5,0.3-0.9c0-0.7,0-1.4,0.2-2.1c-0.2,0-0.2,0-0.2,0.2c0.5-3.6,1.4-7.5,2.6-10.6c0.3-1,0.9-2.1,1-3
			c0.2-0.5,0.5-1.7,0.2-2.4c-0.2-0.2-0.7-0.5-1-0.9s-0.7-0.3-0.9-0.9c0-0.5,0.7-1,0.3-1.6c0.5-0.2,0.5-0.7,0.7-1
			c0.5,0,0.5,0.2,1,0.2c1,0.5,2.4,0.7,3,1.7c0.5,0.5,1.2,1,1.7,1.6c0,0.2,0,0.2,0,0.2c0.3,0.3,0.7,0.7,1,1.2c0,1,0.5,1.6,0.9,2.1
			c-0.2,0.5,0,1,0.3,1.2c0,0.2,0,0.2-0.2,0.3c0.2,0.9,1,1.2,1,2.1c0.5,1,1.6,1.7,1.2,3.3c-0.9,0.2-1,1.2-1.7,1.6c0,0.2,0,0.2,0,0.3
			c-0.3-0.2-0.5,0.5-0.9,0.3c-0.3,0.2-0.5,0.7-0.9,1c0-0.2,0.2-0.5-0.2-0.7c-0.3,0.2-1,0.2-1,0.7c-0.3,0.2-0.3,0.9-0.7,1.2
			c-0.2,0,0-0.3-0.2-0.3s-0.2,0.3-0.3,0.3c0,0.9-0.5,1.7-0.7,2.4c-0.2,0.5-0.2,1.2-0.3,1.9c0,0.3-0.3,0.9-0.3,1.2
			c-0.2,0.2-0.2,0.2-0.3,0.3c0,0.2,0,0.5,0.2,0.7c-0.3,0.3-0.2,0.7-0.2,1c0,0.5-0.5,1-0.3,1.6c0,0.2,0.2,0,0,0.2
			c-0.2,0.5-0.2,0.7-0.2,1.2h0.2c0,0.3-0.2,0.9-0.2,1.6c0.2,0,0-0.3,0.2-0.3c0,0.3-0.2,0.5-0.2,0.9c0.2,0,0.2-0.2,0.2-0.2
			c0,0.7-0.3,1.7-0.2,2.6c0-0.5,0.2-0.9,0.2-1.4c0.2,0,0.2,0.3,0,0.5c0.3,0.2,0,0.9,0.2,1c0,0.5-0.2,0.9,0,1.6c0,0,0,0,0-0.2
			c0.2,0.2-0.2,0.2,0,0.3c0,0.2,0.2-0.2,0.2,0c-0.2,0.5,0.2,1,0,1.6c0,0,0,0,0.2,0c-0.2,0.3,0.2,0.9,0.2,1.2h0.2
			c0.2,0,0-0.2,0.2-0.2c0.3,1.2,0.5,2.8,0.9,3.8c-0.2-0.2-0.2-0.3-0.3-0.5c-0.3,0.3-0.2,0.7,0,1c0.3,0.7,0.3,1.6,1,1.9
			c0-0.3-0.2-0.5-0.2-0.9c0.3,0.5,0.2,1.2,0.5,1.6c0.7,0.9,1.9,1.6,3,1.7c0,0.2,0,0.3,0,0.5c2.4,0,4.7,1.6,7.5,0.9c0.2,0,0,0,0-0.2
			c0.5,0,1-0.2,1.6-0.3v-0.2c0.3,0,0.5-0.2,0.9-0.2v0.2h0.2c0.2,0,0-0.2,0.2-0.3c0.5-0.3,1,0,1.6,0c0.3,0,0.7-0.3,1-0.3v-0.2
			c0.3,0,0.7,0,0.7-0.5c0,0.2,0.3,0.2,0.2,0.3c0.2,0,0.2,0,0.2,0c0,0.2-0.2,0-0.2,0.2c0.2,0,0.2-0.2,0.3-0.2c0,0-0.2,0,0-0.2
			c0.2,0,0.3,0,0.2-0.2c0,0.2,0.3-0.2,0.5,0c0,0.2-0.2,0-0.2,0.2c0,0,0.2,0,0.3,0s-0.2-0.2,0-0.2c0.2-0.2,0,0,0,0.2
			c0.2,0,0.3,0,0.5-0.2c0-0.2-0.3,0-0.5-0.2c0.2-0.2,0.5-0.2,0.7-0.3c0.2,0,0.2,0.2,0.2,0.3c0.2,0,0.3-0.2,0.3-0.3
			c0.2,0,0.2,0.2,0.2,0.3c0.3,0,0.5-0.2,0.9-0.2c-0.3-0.5-0.9-1-1.2-1.6c-0.5-0.7-0.7-1.6-1.2-2.1c-0.2-0.5-0.7-0.7-0.7-1.4
			c0.2,0,0.2-0.2,0.3-0.2c-0.2-0.3-0.3-0.7-0.3-1c-1.4,0.2-3,0-4.3-0.3c-0.9-0.2-1.7-0.3-2.4-0.7c-0.3-0.3-0.5-0.5-1.2-0.7
			c-1.2-0.2-2.3-0.5-2.4-1.9c0-0.3,0.2-0.7,0-1l-0.2,0.2c-0.2-0.5,0.3-0.7,0.3-1.4c0.7-0.3,0.9-1.2,1.7-1.6c0,0.2,0,0.2,0,0.5
			c0.3,0,0-0.7,0.3-0.7c0,0,0-0.2,0-0.3c0.2,0,0.3-0.2,0.3-0.2c0.7,0.2,0.9-0.7,1-1.2c0.2,0,0.2,0,0.3-0.2c0-0.2,0.2-0.2,0-0.3
			c0,0,0.2,0.2,0.2,0c0.9-0.3,1.2-0.9,2.1-1.2l0.2-0.2c0.2,0,0.3-0.2,0.3-0.2c0.5,0,1.6,0,1.9-0.2c0.3-0.3,1.7-0.3,2.4-0.2v-0.2
			c0.2,0.2,0.5-0.2,0.3,0c0.3-0.2,0.9,0,1.4-0.2c0,0.2,0,0.5,0,0.7c0.2,0.3,0.7,0.2,0.9,0.3c0.2-0.2,0.5,0,0.3-0.5
			c0-0.2-0.2-0.2-0.3-0.2c0-0.2,0-0.3,0-0.5c0.3,0,0.7,0.3,0.9,0.3c0.2,0.5,0.3,1,0.9,1v-0.2c0.3,0.2,0.9,0.2,1.2,0.2
			c0-0.2-0.2-0.2-0.2-0.3c-0.2,0-0.2,0-0.3,0c-0.2-0.3-0.5-0.3-0.9-0.5c0-0.3-0.2-0.3-0.3-0.5c0.2-0.3,0.5,0.2,0.7,0.2
			c0.2-0.2-0.2-0.2-0.2-0.2c1.2,0.3,2.3,0.7,3.5,0.9c0.2,0.2,0.3,0.2,0.5,0.3c0.2,0.3,0.3,0.7,0.5,1.2c0.2-0.2,0.2,0,0.2-0.2
			c0.5,0,0.3,0.5,0.5,0.9c0.3-0.2,0.3,0.3,0.7,0.2c0-0.2-0.2,0-0.2-0.2c0.2,0,0.2,0,0.2,0c0-0.2-0.2-0.2-0.2-0.5
			c0.3,0.2,0.5,0,0.7,0.2c-0.2,0-0.3,0.2-0.5,0.2c0.3,0,0.7,0.2,1,0.2c-0.2,0.2-0.3,0.3-0.5,0.5c0.2,0,0.3,0,0.5,0.2
			c0.7,0.2,0.9-0.2,1.2-0.5c0.5-0.3,1.2-0.5,1.6-0.9c0.2,0,0.2-0.2,0.2-0.2c0.7-0.2,0.9-0.9,1.4-1.2c0-0.2-0.2,0,0-0.2
			c0.2,0.2,0.2,0,0.3,0c0-0.2-0.2-0.3,0-0.3c0.2-0.2,0,0.2,0.2,0.3l0.2-0.2c0.2,0,0.5-0.3,0.7-0.5l-0.2-0.2c0,0,0,0.2,0.2,0.2
			c0-0.3,0.3-0.3,0.2-0.5c0.2,0,0.2,0,0.2,0c0.2-0.5,0-1,0.2-1.4c-0.2-0.3-0.2-0.7-0.3-1c-0.2-0.2-0.3-0.2-0.5-0.3
			c-0.2-0.2-0.3-0.3-0.5-0.5c-0.2,0-0.2,0-0.3-0.2c-0.3-0.2-1.2-0.7-1.9-0.7c-0.2,0-0.5-0.2-0.7-0.2c-1.4-0.2-3,0.3-4.2,0.7
			c-0.3,0-0.9,0.2-1.2,0.2c-0.5,0-0.9-0.3-1.4-0.2c-0.3-0.3-0.9-0.7-1.6-0.7c-0.3-0.5-0.9-0.9-1.2-1.4c-0.7-0.2-0.9-1-1.4-1.6v0.2
			c-0.2-0.2,0-0.3,0-0.3c-0.2,0,0,0.2,0,0.2c-0.2-0.2-0.2-0.3-0.2-0.5c-0.2,0.3-0.2,0.9-0.7,1c-0.2,0.7-0.9,0.9-1,1.4
			c-0.2,0-0.2,0.2-0.2,0c0,0.3-0.2,0.3-0.3,0.5c-0.2-0.3-0.3,0.3-0.3,0.5c0,0,0-0.2-0.2-0.2c-0.2,0.5-0.9,0.5-1,1c-0.2,0,0,0-0.2,0
			c-0.7,0.9-1.2,1.7-2.4,2.1c0,0.2,0,0.2,0,0.2h0.2c0,0,0.3-0.2,0.5-0.2c-0.3,0.2-0.5,0.5-0.9,0.5c0,0.2-0.2,0.2,0,0.3
			c-0.3,0.2-0.9,0.3-0.9,0.7c0,0-0.2-0.2-0.2-0.3c-0.2,0-0.2,0.3-0.3,0.5c0-0.2,0.2-0.2,0-0.3c-0.3,0.3-0.5,0.7-1.2,0.7
			c-0.2-0.2-0.2-0.7-0.5-0.5c-0.2,0.2-0.5,0.3-0.5,0.7c-0.2,0-0.3,0.2-0.7,0c-0.2,0-0.2-0.2-0.2-0.2s-0.2,0-0.3,0
			c-0.2-0.2-0.3-0.5-0.3-0.2c0-0.2-0.2-0.3-0.3-0.5c0.2-0.7,0-1.4,0-2.3c0.2-0.2,0.3-0.3,0.5-0.5c0-0.5-0.2-0.9,0-1.4
			c0.7-0.3,0.9-1.2,1.6-1.6c0-0.2,0.2-0.2,0.2-0.3c0-0.3-0.3-0.3-0.5-0.5c0-0.2,0-0.5,0-0.5c0-0.2,0.2-0.3,0.3-0.5
			c0-0.7-0.7-0.9-0.7-1.4l0.2-0.2c-0.3-1.6-1.2-2.6-1.2-4.5c-0.2,0.5-0.2,0.9,0,1.6c0.3,1.6,1,3.3,1.4,4.9c-0.2-0.2-0.3-0.3-0.3-0.5
			v0.2c-0.5-1.2-0.9-3-1.4-4.3c-0.2-0.7-0.5-1.2-0.5-1.9c0-1,0.5-1.7,0.7-2.8c0.2,0,0.2,0,0.2-0.2c0-0.3,0.3-0.5,0.3-0.9
			c1-1.7,1.9-3.6,3.6-4.9v-0.2c1.4-1,2.6-2.3,4-3.3c0.3-0.3,0.7-0.7,1-0.9c0.3-0.3,0.9-0.5,1.4-0.9c0.2-0.2,0.3-0.3,0.5-0.5
			c0.2-0.2,0.5-0.2,0.7-0.3c0.3-0.2,0.5-0.5,0.9-0.7c0.3-0.2,0.7-0.3,0.9-0.7c0.3-0.3,0.9-0.5,1.4-0.7c-0.2,0,0,0.2,0,0.2
			c-0.9,0.5-1.9,1.2-2.6,1.7c0-0.2,0.2-0.2,0.3-0.3c-0.3,0-0.7,0.5-1,0.7c0,0.2,0.2-0.2,0.2,0c-0.2,0-0.5,0.2-0.7,0.3
			c0,0.2,0.2,0,0.2,0.2c0,0.2-0.2,0.2-0.3,0.2c0-0.2,0.2,0,0.2-0.2c-0.7,0.5-1.4,1-1.9,1.6c0,0.2,0.2-0.2,0.3,0
			c-0.2,0.2-0.3,0.5-0.7,0.5c0-0.2,0.3-0.2,0.3-0.3c-0.9,0.2-1.6,0.9-2.3,1.6c0.5-0.2,0.9-0.7,1.4-1c0.2,0.2-0.2,0.2-0.2,0.3
			c0.3,0.3,0.9,0,1.2-0.5c0.3,0,0.7-0.3,1-0.5c0.3-0.3,0.7-0.7,1-0.9c0,0,0,0,0.2,0s0.2-0.3,0.3-0.2V354c0,0,0,0,0.2,0
			c0-0.2,0.2-0.2,0.2-0.3c0.9-0.2,1.2-1,2.1-1.2c0.3-0.3,0.5-0.5,0.9-0.9c0.2-0.3,0-0.5,0-1c0.7-0.3,0.7-1.2,1-1.9
			c0.2,0.2-0.2,0.3-0.2,0.5c0.2-0.2,0.2-0.5,0.3-0.9c-0.2-0.2,0,0.2-0.2,0.2c1-2.6,2.1-5.2,3.8-6.9c-0.3,0-0.2,0.3-0.5,0.2
			c0,0.5-0.3,0.7-0.7,0.5c0-0.2,0.2-0.2,0.2-0.2c-0.2,0-0.2-0.2,0-0.2c0,0-0.2,0-0.3,0c0,0,0,0,0-0.2c-0.5,0-1,0.2-1.2,0.5
			c-0.3-0.2-0.5,0.2-0.7,0.2c0,0-0.3-0.2-0.5,0c-0.2,0,0-0.2,0-0.2c-0.3-0.2-1.2-0.2-1.4,0.2c-0.2,0-0.2,0-0.3,0c0,0,0,0.2-0.3,0.2
			c0.2-0.2,0.2-0.2,0.3-0.3c-0.3,0-0.7,0.2-0.9,0.3c0,0.2,0.2,0.2,0.2,0.3c-0.2,0,0,0,0,0.2c-0.2-0.2-0.3,0-0.7,0
			c-0.2-0.3,0.2-0.2,0.2-0.3c-0.3,0.2-1.2,0.2-1.4,0.5c-0.7,0-0.9,0.7-1.4,0.7c0,0.2-0.2,0.2-0.2,0.3c-0.2,0-0.3,0.2-0.5,0.2
			c0-0.2,0.2-0.2,0-0.3c-0.5,0-0.5,0.5-0.7,0.7c-0.3,0.3-0.7,0.3-1,0.7c0,0.2,0,0.2,0,0.3c-0.3,0.2-0.7,0.3-1,0.5
			c0-0.2,0.2-0.2,0.2-0.3c-0.3,0-0.5,0.3-0.7,0.7c-0.2,0-0.2,0-0.2,0c-0.5,0.3-1.2,0.7-1.6,1.2c-0.2,0-0.2-0.2-0.3-0.2
			c-0.5,0.3-0.9,0.9-1,1.6c-0.3,0.2-0.5,0.3-0.5,0.7c-0.2,0.2-0.9,0.5-0.5,0.7c0.2,0,1,0.3,1,0.2c0,0.3-0.3,0.9,0,1
			c-0.3,0.5-1.2,0.9-1.6,1.7c-0.3,0.2-0.5,0.5-0.7,0.9c-0.2,0.2-0.3,0.2-0.5,0.3c-0.5,0.7-0.9,2.3-2.3,1.7c-0.2-0.2-0.3-0.7-0.3,0
			c-0.2-0.3-1-0.2-1.2-0.3c0,0,0-0.2,0-0.3c-0.2,0-0.2,0-0.2,0.2c-0.7-0.3-1.2-0.9-1.9-1.2c-0.5-0.2-1-0.2-1.6-0.3
			c-0.3-0.3-0.5-0.9-0.9-1c-0.5-0.3-1-0.5-1.6-0.9s-0.9-0.5-1.2-0.9c-0.2,0-0.3,0-0.5,0c0.2-0.2,0.2-0.3,0.2-0.3H519
			c0.2-0.3,0-1,0.2-1.4c0.3,0,0.9-0.2,1.2,0c1.2-0.9,2.1-1.9,3.1-2.8c0.7-0.2,1-0.5,1.4-0.9c1.4-0.9,2.8-1.7,4.2-2.6
			c0.7-0.5,1.4-1,2.1-1.4c0.9-0.3,1.6-0.7,2.4-1c1-0.3,2.1-0.7,3.1-1.4c-0.2,0-0.3,0.2-0.7,0.2c0-0.2,0-0.2,0-0.2
			c0.7,0,0.9-0.3,1.4-0.5v0.2c0.2-0.2,0.3-0.2,0.5,0c0.2-0.2,0.2-0.2,0.5-0.2c0,0,0,0,0,0.2c0.2,0,0.3,0,0.2-0.2c0,0,0,0,0,0.2
			c0.3-0.3,0.7,0,1-0.3c-0.2,0-0.5,0.2-0.9,0.2c0.2-0.2,0.3-0.2,0.3-0.2s0,0,0-0.2c0.2-0.2,0.3-0.3,0.5-0.3c0.2,0.2-0.2,0.3-0.2,0.3
			c0.3,0,0.7-0.2,1-0.3c0-0.2,0-0.2,0.2-0.3c1.7-0.9,4-1.2,6.4-1.6c0,0.2,0,0.2,0,0.3c0.3,0,0.7,0,0.9-0.2c0-0.2,0-0.2,0-0.3
			c0.3-0.2,1-0.2,1.6-0.2c-0.3,0.3-0.7,0.2-1,0.3c1,0,2.6,0,3.8,0c0.2,0,0.3,0.2,0.5-0.2c0,0-0.2,0-0.2-0.2c-0.2,0.2-0.9,0.2-0.9,0
			c1.7,0.2,3.6-0.3,5-0.2c0.2,0.2,0,0.2,0,0.3c0.5,0.2,1.2,0.3,1.7,0.2c0,0-0.2,0-0.2-0.2c-0.2,0-0.5,0-0.5,0
			c0.3-0.2,0.9,0.2,1.2,0.2c0.2-0.2,0.5-0.3,0.7-0.2c0.2,0,0.2,0.2,0.3,0.2s0.2-0.2,0.3-0.2c0.9-0.2,1.7,0.5,2.4,0.7
			c0.5-0.2,0.9,0.2,1.4,0.2c0.2,0,0.5,0,0.9,0c0.5,0,1,0.3,1.4,0.7c0.2,0,0.3,0,0.5,0c1,1.4,2.3,2.4,3.5,3.6
			c0.3,0.3,0.5,0.7,0.7,0.9c0.9,0.3,1.7,0.7,2.1,1.6c0.5,0.3,0.7,1,1.2,1.6c-0.2,0.9,0.5,1,0.9,1.6h-0.2c0,0.2,0.2,0,0.2,0
			c0.2,0.3,0,0.9,0.3,1.2c0.2,0.7,0,1.4,0.2,2.1c0,0,0.2,0,0.3,0C576.5,351.2,576.8,351.6,576.8,352.3L576.8,352.3L576.8,352.3
			L576.8,352.3z M543.1,338.4c-0.2,0-0.2,0.2-0.3,0.2c0,0-0.5,0-0.3,0.2c0.5-0.2,1-0.3,1.7-0.3c0-0.2,0.2-0.2,0-0.2
			C544,338.1,543.3,338.2,543.1,338.4L543.1,338.4L543.1,338.4L543.1,338.4z M569.9,401.3c0-0.2-0.2,0.2-0.2,0
			c0.9-1.2,1.2-2.4,1.6-4c0.3-1.9,0.9-4.2,1-6.1c0-1,0-2.6,0-3.6c0-3.3,0-6.4-0.2-9.7c0.3-0.3-0.2-0.9,0-1.6
			c-0.3-0.3-0.2-0.9-0.2-1.2c-0.2-0.9-0.3-1.7-0.3-2.6c-0.3-0.7-0.2-1.7-0.3-2.6c0,0-0.2,0-0.2-0.2c-0.2-2.3-0.3-4.9-0.5-7.3v0.2
			c0.2-0.2,0.2-0.5-0.2-0.5v0.2c-0.2-1.2-0.3-2.4-0.5-3.6c0-0.2,0-0.3,0-0.7c-0.9-2.8-1.2-6.1-1.9-8.7c-0.2-0.9-0.5-1.7-0.9-2.4
			c-0.2-0.2-0.2-0.3-0.3-0.7s-0.2-0.9-0.3-1.2c0-0.2,0-0.2,0-0.2c-0.2,0-0.3,0.2-0.5,0.2c-0.7-0.3-1.4-0.9-2.1-1.4
			c-1-0.3-1.9-1.2-3.1-1.4c-0.5,0-1.2-0.5-1.7-0.3v-0.2c-0.7-0.2-1.6-0.5-2.4-0.2c0,0-0.2,0-0.3,0c-0.3,0.3-0.9,0-1.2,0.2
			c0,0.2,0.3,0.2,0.3,0.3c-0.2,0-0.2-0.2-0.3-0.2c0,0.2,0,0.3,0,0.3c0-0.3-0.3-0.7-0.5-0.5c0,0,0,0,0.2,0c-0.2,0.2-0.2,0.2-0.2,0.5
			c0-0.2,0-0.2,0-0.3c-0.2,0-0.3,0-0.5,0c0.2,0.2,0.5,0.2,0.5,0.5c-0.2,0-0.3-0.2-0.5,0V342c0,0-0.3,0-0.3,0.2
			c0.3,0.2,0.9,0.2,0.9,0.7c0.5,0.3,0.7,1,1.4,1.2c0.2,0,0-0.2,0-0.2c0.2,0.3,0.3,0.9,0.2,1.2c-0.2,0-0.2,0-0.2,0
			c-0.3,0.3-0.2,1.2-0.2,1.6c0,0,0-0.2,0,0c-0.2,1-0.5,3.5,0.7,3.8c0,0.2,0.3,0.3,0.3,0.5c0-0.2-0.2-0.3,0-0.5c0.2,0,0,0.3,0.2,0.3
			s0-0.2,0-0.2c0.3,0.7,0,1.2,0.5,1.7c0-0.3-0.3-1-0.2-1.4c0.2,0.7,0.5,1.2,0.7,1.7c-0.2,0,0-0.2-0.2-0.2c0.2,0.3,0.2,0.7,0.3,0.9
			c0,1.9,0.7,3,1.6,4c0,0,0,0.2,0,0.3c0.2,0,0.2,0,0.3,0c0,0,0-0.3,0.2-0.3c0,0.2,0,0.2,0.2,0.2c0.2-0.2,0-0.3,0.2-0.5
			c0,0.3,0.2,0.7,0.3,0.9c0.2,0.3,0.2,0.7,0.5,0.7c0.2,0,0-0.2,0.2-0.2c0.3,0.3,0.3,0.9,0.7,1.2c0.3,0.5,0.9,0.9,1,1.4
			c0.2,0.9-0.3,1.7,0,2.4c-0.2,0.2-0.3,0.3-0.5,0.5h-0.2c-0.3,0-0.7,0.5-1,0.5c0-0.2-0.2-0.2-0.3-0.2c0,0.3,0.2,0.7,0,1
			c-1,0.2-1.7,0.7-2.6,0.7c-0.2,0.5-0.7,0.2-1,0.5v-0.2c-0.2,0-0.5,0.2-0.5,0.3c-0.9,0.3-1.9,0.3-2.6,0.9c-0.5-0.2-1.2,0.3-1.7,0.3
			c0,0.2-0.3,0.2-0.5,0.5c-0.9,0.2-1.6,0.3-2.3,0.7c-0.3,0.3-0.7,0.7-1.2,1c0,0.7,0.3,1.2,0.5,1.6c0.9,0.3,1.6,0.7,2.6,0.5
			c0.3,0,0.5-0.3,0.7-0.3s0.3,0.2,0.5,0.2c0.5,0,1.2,0,1.7,0.2c0,0-0.2,0,0,0c0.3,0,0.5,0.2,0.9,0c0.2,0,0.2-0.2,0.3-0.2
			c1-0.2,1.4,1,2.4,1c0,0.2,0.3,0.3,0.5,0.2c0,0-0.2,0,0,0.2c0.5,0,1,0.3,1.4,0.5c0.2,0.3,0.5,0.5,0.9,0.3c0-0.2-0.2-0.2-0.2-0.3
			c0.2,0,0.2,0,0.2,0c0.2,0.2,0.3,0.2,0.3,0.2c0.5,0.2,1.2,0.3,1.7,0.9c0.3,0.3,0.5,0.9,0.9,1.4c0.3,0.3,0.7,0.5,0.7,1
			c0.2,0,0.2,0.3,0.2,0.5c0-0.3-0.2-0.3-0.3-0.5c0,0.9,0.2,1.7,0.3,2.8c0,1-0.3,1.7-0.7,2.6c-0.2,0.3-0.3,0.5-0.5,0.7
			c0,0.2-0.2,0.3-0.2,0.5c-0.3,0-0.3,0.7-0.7,0.7c0,0.2,0.2,0,0,0.2c-0.2,0.2-0.3,0.3-0.5,0.2c0,0.2-0.2,0.2-0.2,0.3
			c0.2,0,0.2-0.2,0.2,0c-0.5,0.3-1,1-1.4,1.7c-0.3,0-0.5,0.2-0.5,0.5c-0.2,0,0-0.2,0-0.2c-0.2,0.2,0,0.5-0.2,0.7
			c-0.2,0,0-0.3-0.2-0.2c-0.2,0,0,0.2-0.2,0.3c0,0,0,0-0.2,0c-0.2,0.5-1,0.3-1.2,0.9c-0.2,0-0.3-0.2-0.5,0c0,0.3-0.3,0.3-0.3,0.7
			c0.2,0,0.3-0.2,0.3,0c-0.2,0.2-0.2,0.2-0.3,0.3c-0.2,0,0-0.2-0.3-0.2c0.2,0.3,0.5,0.5,0.7,0.9c0.9,0.5,1.6,1,1.9,2.1
			c0.3,0.5,0.5,1,0.7,1.7c0.5,0.3,0.2,1,0.5,1.6c-0.2,0.2-0.3,0.2-0.3,0.3v0.2c-0.3,0.2-0.3,0.7-0.7,0.9H560
			c-0.2,0.5-0.7,0.7-1.6,0.7c0-0.2-0.3-0.2-0.3-0.3c-0.3,0-0.3,0.3-0.7,0.3c-0.5,0-0.9-0.7-1.4-0.9c-0.5,0.5-1.2,0.2-1.7-0.3
			c0,0,0,0.2-0.2,0.2c0-0.2-0.2-0.2-0.2-0.2c-0.5,0-0.7-0.3-0.9-0.5c0-0.2,0.3-0.2,0.3-0.2c-0.2,0-0.2-0.2-0.3-0.2
			c0,0,0,0.2-0.2,0.2c0-0.2,0-0.2,0-0.3c-0.2,0-0.2-0.2-0.5-0.2c0,0.2,0,0.3,0,0.5c-0.2,0,0-0.3,0-0.5c-0.2,0-0.2-0.2-0.3-0.3
			c0,0,0,0.2-0.2,0c0,0,0.2-0.2,0-0.2l0,0c0-0.9-1.2-0.9-1.6-1.4c-0.7-0.3-1-0.2-1.9-0.2c-0.2,0.2-0.3,0.2-0.5,0.2
			c0-0.2-0.2-0.2-0.2-0.2c0,0.2,0.2,0,0.2,0.2c-0.2,0-0.2,0-0.3,0v0.2c-0.5-0.2-0.5,0.3-0.9,0.3c-0.2-0.3-0.7-0.3-0.7,0
			c-0.3,0-0.7,0-0.9,0v-0.2c-0.5,0-0.7,0-1,0c-0.5,0.3-1.2,0-2.1,0c0,0.2,0.2,0.2,0,0.3c0,0,0-0.2-0.2,0c0.2,0.2,0,0.3,0,0.5
			c0.3,0.3,0.3,0.9,0.7,1.2c0.3,0.2,0.5,0.2,0.7,0.5c0,0.2,0.2,0.2,0.2,0.3c0.7,0.5,1.4,1.2,1.9,2.1l0.2-0.2c-0.2,0.2,0,0.3,0,0.5
			c0.3,0,0.3-0.2,0.5-0.3c0,0,0.2,0,0.3,0.2c0-0.2,0-0.7-0.2-0.9c0.3-1.2-0.9-1.6-1-2.8c0.2,0,0.3-0.2,0.5-0.2
			c0.7,0.5,1.2,1,1.7,1.6c0.2,0,0.2,0,0.3,0c0.2-0.2-0.2-0.2,0-0.3c0.2,0,0.2,0,0.3,0c0-0.3,0.2-0.5,0.3-0.7c0,0,0.2,0.2,0.2,0
			c0-0.7,0.5-0.9,0.5-1.4c0.2,0,0,0.2,0.2,0.3c0.2-0.3-0.2-0.5,0-0.9c0.2,0.3,0.5,0.9,0.7,1.2c0,0.2,0,0.2,0.2,0.2s-0.2-0.2,0-0.2
			c0,0.2,0,0.2,0.2,0.2s0-0.3,0.2-0.3c0,0.2,0.2,0,0.2,0c0.2,0.3,0.7,0.3,0.3,0.9c0,0.2,0.2,0,0.2,0s0,0.3,0,0.5
			c0.2,0,0-0.2,0.2-0.2c0,0.3,0.3,0.3,0.2,0.9c0.2,0.2,0.3,0.2,0.5,0c0,0.3,0.2,0.7,0.5,0.9c0.9,0,1,0.9,1.6,1.2c0,1,0,2.1-0.3,2.8
			c-0.2,0-0.3,0-0.5,0c-0.2,0.2,0.2,0.2,0.3,0.3c-0.3,0.3-0.3,0.7-0.9,0.7c0,0.2-0.2,0.2-0.2,0.3c0.2,0.2,0.3,0.3,0.2,0.7
			c0.2,0,0.2,0.2,0.5,0.2c0.7,0.9,1.2,1.9,2.3,2.4c0,0-0.2-0.2,0-0.3c0,0.2,0.2,0.3,0.2,0.5c0.5,0,0.7,0.5,1.2,0.3v0.2
			c0.2,0,0.5,0,0.7,0c0,0,0-0.3,0.2-0.3c0,0.2-0.2,0.3,0,0.3c0-0.2,0.2-0.2,0.3-0.3c0,0.2-0.2,0.2,0,0.2l0.2-0.2c0.2,0,0.3,0,0.5,0
			c0,0,0.2,0.2,0,0.2c0.2,0,0.2-0.2,0.2-0.3c0.2,0.2,0.3,0,0.7,0c0,0.2,0,0.2,0,0.3c0.2-0.2,0.5,0,0.5-0.3c0,0.2,0.5,0.3,0.7,0.2
			c0-0.2-0.2,0-0.2-0.2c0.2,0,0.2,0.2,0.3,0.2c0-0.2-0.2-0.2,0-0.3c0,0.3,0.2,0.2,0.3,0.3c0.2,0.2-0.2,0.2-0.2,0.3
			c0.5,0.2,1.2-0.2,1-0.7c0.5,0,0.9,0.2,1.2-0.3c0,0,0,0,0,0.2c0.5-0.2,1-0.3,1.6-0.5c0-0.2,0.2-0.2,0.2-0.3h0.2
			c1.4-1.4,2.6-2.8,3.8-4.3c0,0.2,0,0.2,0,0.2C569.7,401.6,569.7,401.3,569.9,401.3L569.9,401.3L569.9,401.3L569.9,401.3z
			 M553.4,343.3c0.2,0,0.2,0.2,0,0.3c0.2,0.2,0.3,0.2,0.5,0.3c0.2,0,0.2,0,0.2,0c0.2,0.3,0.7,0.5,1,0.7c-0.2-0.5-0.5-0.7-0.7-1.2
			c-0.3,0-0.3-0.3-0.7-0.5c-0.2,0.2-0.2,0-0.2,0C553.4,343.1,553.4,343.1,553.4,343.3L553.4,343.3L553.4,343.3L553.4,343.3z
			 M554.1,348.5c-0.2-0.5-0.5-0.9-0.7-1.4c-0.2-0.7-0.3-1.2-0.7-1.6c0,0,0,0-0.2,0c-0.9,1-1.7,2.3-2.3,3.6c0.7-0.2,1.6-0.3,2.1,0
			c0,0.2,0,0.2,0,0.2c0.3,0,0.5,0,0.7,0.2c0.3-0.2,0.7,0,0.9,0.2c0,0-0.2,0.2,0,0.2C554.1,349.5,554.1,349,554.1,348.5L554.1,348.5
			L554.1,348.5L554.1,348.5z M546.4,348.5c0.2-0.3,0.7-0.7,0.5-1.2C546.8,347.6,546.4,348.1,546.4,348.5L546.4,348.5L546.4,348.5
			L546.4,348.5z M550.2,349.5c0.3-0.2,0.9-0.2,1.2-0.3C551.1,349.3,550.4,349.3,550.2,349.5L550.2,349.5L550.2,349.5L550.2,349.5z
			 M541.9,354.5c-0.3,0.5-1,0.9-1.6,1.2c0-0.2-0.2-0.2-0.2-0.2c0,0.2-0.2,0.3,0,0.5c-0.3,0.2-0.7,0.3-0.9,0.7
			c1.2-0.7,2.1-1.6,3.1-2.3C542.3,354.4,542.1,354.5,541.9,354.5L541.9,354.5L541.9,354.5L541.9,354.5z M548.9,355.9
			c-0.3,0.7-0.9,1.4-0.3,2.1c0.5,0.2,0.5-0.2,0.7-0.5c0.3-0.5,1.6-1.2,1.4-2.1C549.9,354.9,549.4,355.9,548.9,355.9L548.9,355.9
			L548.9,355.9L548.9,355.9z M554.4,355.6c-0.3,0.2-0.3,1-0.7,0.9c-0.2,0.3-0.5,0.7-0.9,1c0,0.3-0.2,0.5-0.3,0.7c0,0,0,0,0-0.2
			c-0.2,0.3-0.5,0.5-0.7,0.9c-0.2,0-0.3,0.3-0.5,0.5c-0.5,1-1.4,1.7-1.9,2.6c-0.3,0.2-0.3,0.5-0.5,0.9c-0.2,0.2-0.3,0.3-0.5,0.5
			c0,0.3-0.3,0.5-0.2,1c0,0-0.2,0,0,0.2c0.2,0,0.3,0,0.5,0c0.5-0.3,1-0.7,1.6-1c0.2-0.3,0.7-0.5,1-0.7c0-0.2,0.2-0.2,0.2-0.2
			c0.3,0,0.9,0.2,1.2-0.2c0-0.2-0.2,0-0.2-0.2c0.9-0.3,1.9-0.7,3-0.9c0-1.9-0.5-3.5-0.7-5.2c0.2,0,0.2-0.2,0.2-0.3
			C554.9,355.6,554.6,355.6,554.4,355.6L554.4,355.6L554.4,355.6L554.4,355.6z M541.6,361c-0.7,0.3-0.9,0.9-1.7,1.2
			c-0.5,0.3-0.9,0.9-1.6,1.2c-0.5,0.9-1.4,1.6-1.9,2.4h-0.2c-0.2,0.3-0.3,0.7-0.5,0.9c0,0.2-0.2,0.3-0.2,0.5
			c-0.5,0.7-1.4,1.4-1.4,2.4c0,0.3,0.3,0.7,0.2,1.2h-0.2c0,0.2,0.2,0,0.2,0.2c0,0.7-0.2,1-0.2,1.6c0,0.3,0.2,0.7,0.2,1
			c0.2,0.2,0.3,0.3,0.3,0.3c0.2,0,0.3-0.2,0.2-0.5c0.2-0.2,0.2-0.2,0.5-0.3c0-0.2,0-0.2,0-0.3c0.9-0.2,0.9-1.2,1.4-1.9
			c0.3,0,0.7-0.5,0.7-0.7c0.3-0.3,0.7-0.7,0.9-1c1.6-1.6,3-3.3,4.3-4.9c0-1.7,0.5-3.1,0.7-4.5l0,0
			C542.9,360.3,542.1,360.5,541.6,361L541.6,361L541.6,361L541.6,361z M529.6,367.9c0.2,0.3-0.2,1,0.2,1.2c0-0.5,0.3-1.2,0.2-1.7
			c0,0.3,0,0-0.2,0C529.8,367.6,529.8,367.7,529.6,367.9L529.6,367.9L529.6,367.9L529.6,367.9z M547.3,384.6
			c0.3,0.2,0.9,0.5,1.2,0.7C548.2,384.9,548,384.4,547.3,384.6L547.3,384.6L547.3,384.6L547.3,384.6z M541.2,388.2
			c-0.3,0-0.7-0.2-1-0.2c-1-0.2-2.4,0-3.3,0.5c0,0,0-0.2-0.2,0c0,0.2,0,0.2-0.2,0.3c-0.2,0-0.2,0-0.5,0v-0.2c-0.2,0-0.3,0-0.5,0
			c0,0.2,0.2,0.3,0,0.3s-0.3-0.2-0.5,0c0.2,0,0.2,0.2,0.3,0.3c-0.2,0.2-0.3,0.3-0.5,0.2c0,0,0,0.2-0.2,0.2c0,0.2,0,0.3-0.2,0.5
			c0.5,0.3,1.4,0.5,2.1,0.5c0.3,0.5,1,0.5,1.6,0.3c0.2,0,0.3-0.2,0.5-0.2c0.7-0.2,1.6,0,1.9-0.2c0.2,0,0.3,0.2,0.5,0
			c0.2,0,0-0.2,0-0.3c0.2,0,0.5,0.2,0.5,0c0.3,0.3,0.5-0.3,0.9-0.3s0.5-0.2,0.9-0.2c0-0.2,0-0.3-0.2-0.2c-0.2,0,0.2,0.2,0,0.2
			c0-0.3-0.5-0.2-0.7-0.3v-0.2c-0.3,0-0.7-0.3-0.9-0.2c0,0,0-0.2-0.2-0.2c0,0.2-0.2,0.2-0.2,0C541.9,388.4,541.4,388.4,541.2,388.2
			L541.2,388.2L541.2,388.2L541.2,388.2z M540.9,395.5c-0.2-0.3,0-0.7-0.5-0.7c-0.2,0.5,0.3,0.9,0.7,1.4
			C541.2,395.9,541,395.7,540.9,395.5L540.9,395.5L540.9,395.5L540.9,395.5z M521.9,400.4c0.3,0,0.3,0.3,0.5,0.3
			c-0.5-0.3-1-0.9-1.6-1.4C520.9,399.9,521.8,399.9,521.9,400.4L521.9,400.4L521.9,400.4L521.9,400.4z"/>
		<path fill="#BE9A5C" d="M357.3,346.4C357.5,346.4,357.3,346.6,357.3,346.4C357.5,346.6,357.7,346.6,357.3,346.4
			c0.3,0,0.3-0.2,0.5-0.2c0-0.2,0.2-0.2,0.2-0.3c0.3-0.2,0.7-0.3,0.7-0.5c0.2,0.2,0.2-0.2,0.2-0.2s0,0.2,0,0c0,0,0-0.2,0.2-0.2
			c0.3-0.2,1-0.3,1.2-0.7c0.9-0.3,1.7-0.7,2.8-0.9c-0.2-0.7,0.5-1.4,0-1.9c0.2-0.7,0.3-1.9,0.2-2.8c0.3-0.9-0.2-2.1,0-3.1
			c0,0,0,0,0.2,0c0-1,0-1.9-0.2-2.6c-0.3-0.2-0.9-0.2-1.2,0c0,0.2,0,0.2,0.2,0.2c-0.2,0.2,0,0.5-0.2,0.9c-0.5,0-1,0-1.4-0.5
			c0-0.5,0.7-0.2,0.9-0.5c-0.2,0-0.3,0-0.9,0c0-0.2-0.2-0.3-0.2-0.5c0-0.5,0.5-0.9,0.5-1.4c0-0.2,0-0.2,0-0.3c0-0.3,0.3-0.3,0.5-0.7
			c0.2-0.2,0-0.3,0.2-0.5c0.2-0.2,0.3-0.2,0.5-0.3c0.7,0.3,1.6,0,2.3-0.2c0.7-0.2,0.9,0.3,1.2,0.7c0.9-0.2,1.4,0.2,1.9,0.5
			c1,1,1.7,2.6,2.3,4.3c0,0.2,0.2,0.2,0.2,0.2c0,0.3-0.5,1,0,1c0,0.2-0.2,0.2-0.2,0.3c0,1.2-0.2,2.1-0.7,2.6c0,0.7-0.2,1.2-0.3,1.6
			c-0.2,0.2-0.3,0.2-0.3,0.3c0,0.3,0.2,0.7,0,1.2c-0.2,0-0.3,0.2-0.3,0.5c0.3,0.2,0.7,0,1-0.2c-0.2-0.2-0.5,0-0.7-0.2
			c1.4-0.2,3.1-1,4.9-0.9c0.5,0,1,0.3,1.4,0.5c0.3,0.2,0.7,0,0.9,0.2c0.3,0.3,1,0.7,1.2,1.2c0.5,0.3,1,0.5,1.7,0.7
			c0.3,0.5,0.9,0.5,1.4,0.9c0-0.7-0.3-1.4-0.3-2.3c-0.2-1.7,0-3.5,0.5-5c0-0.2,0-0.2,0-0.3c0.2-0.2,0.5-0.3,0.9-0.7
			c0.2,0,0.2,0.2,0.3,0c0,0.3,0.3,0.2,0.5,0.3v0.2c0.3,0.2,0.5,0.2,0.9,0.3c0.3,0.2,0.9,0.5,1.2,0.9v0.2c0.3,0.2,0.5,0.5,0.9,0.7
			c0.3,0.2,0.5,0.5,0.9,0.7s0.7,0.3,1,0.7c0.7,0.7,1.2,1,1.7,1.9c0.3,0.7,0.7,1.2,0.7,2.3c0.2,1-0.2,2.6-0.2,3.6
			c0,0.3,0.2,0.7-0.2,1c0,0.7,0,0.9,0,1.4c-0.5,0.2-0.5,0.7-1,0.9c-0.7-0.3-1.6-0.3-2.4-0.5c0-0.2-0.2-0.2-0.2-0.3
			c-0.2-0.2-0.3-0.2-0.5-0.2s-0.3-0.3-0.5-0.3h-0.2c0,0-0.2,0-0.3-0.2v-0.2c-0.2,0-0.3,0-0.3-0.2c-0.3-0.2-0.3-0.7-0.9-0.7
			c-0.2-0.3-0.3-0.9-0.9-1c0-0.5-0.5-0.9-0.3-1.4c-0.3,0.2-0.9,0-1.2,0.2v0.2c-0.2,0-0.3-0.2-0.5,0c-0.2,0-0.3,0.3-0.5,0.3
			c0.2,0.2,0,0.3,0,0.5c-0.3,0.2-0.5,0.3-0.7,0.5c-0.5-0.2-1,0-1.6-0.2c0-0.2-0.2,0-0.2-0.2c-0.9-0.3-2.1-0.2-3.3,0
			c-0.7,0.2-1.6,0.5-2.4,0.7c-0.2,0-0.5,0-0.7,0c-0.5,0.2-1,0.3-1.6,0.5c-0.2,0-0.3,0-0.5,0c-0.2,0.3-0.3,0.5-0.2,1
			c0.7-0.2,1.4-0.5,2.3-0.7c1-0.3,2.3-0.2,3.6-0.2c0.5,0,1.2,0,1.7,0c0.3,0,0.9,0.3,1.2,0c0.2,0,0.2,0,0.3,0c0-0.2,0.3,0,0.3-0.2
			c0.2,0.2,0.5,0,0.7,0.2c0.3-0.2,0.5-0.3,0.9-0.3c0,0.2,0.2,0.2,0.2,0.3c0.2,0,0.5,0,0.7,0c0,0.2-0.2,0.3-0.3,0.3
			c0,0.3,0.3,0.3,0.7,0.5c0,0.3-0.2,0.2-0.3,0.2c0.2,0.5,0.9,0.5,1.2,0.9c0.2,0,0.3,0,0.3,0c0.3,0.5,1,0.9,1.6,1.4
			c0,0.9,0.9,0.7,0.9,1.4c0.3,0.3,0.9,0.7,1.2,0.9c0.2,0.2,0.7,0.3,0.7,0.7c0,0.2,0,0.2,0,0.3c0,0.2,0.2,0,0.2,0.2
			c0,0.5,0.2,1.2-0.3,1.4c0,0.3,0.2,0.5,0,0.9c-0.2,0-0.3,0-0.5-0.2c-0.3,0.5,0.2,1.2-0.2,1.7c0,0.2-0.3,0.2-0.5,0.5
			c-0.3,0.5-0.5,1.2-0.9,1.9c-0.2,0.3-0.3,0.7-0.9,0.5c-0.2,0.2-0.2,0.5-0.3,0.9c-0.3,0.3-0.3,0.9-0.9,1.2v0.2
			c-0.2,0-0.2,0.2-0.3,0.2c-0.2,0.7-0.9,1-1.2,1.7c-0.3,0.2-0.5,0.5-0.9,0.7c0.2,0,0.2-0.2,0.3,0c0,0.3-0.2,0.3-0.3,0.5
			c0.9,0.2,0.2,1.2,0.5,1.9c-0.3,0-0.3,0.2-0.7,0.3c0.7,0.2,1,0.5,1.9,0.7c0.2,0.5,0.9,0.7,1.2,1c2.4-0.3,5.7-1,8.5-0.5
			c1.2,0.2,3,0.3,3.5,1.2c0.7,0,1,0.3,1.6,0.7c-0.2,0.2-0.9,0.2-0.9,0c0,0.3,0.7,0.5,0.7,1.2c0,0.2-0.2,0.3,0,0.7
			c-0.3,0.3-1,0.3-1,1c-0.2,0-0.3,0-0.5,0s0.3,0.2,0.2,0.2c-0.2,0.2-0.5,0.2-0.7,0.3c-0.5,0.2-1,0-1.6,0c-0.3,0-0.7,0.2-1,0.2
			c-1.7,0.2-3.3,0.2-5,0.3c-0.7,0.3-1.9,0-2.8,0c-0.2,0-0.2,0.2-0.2,0.3c0.2,0.2,0.2,0.5,0.3,0.7c-0.3,0.9,0.3,2.3,0,3.1
			c0,0.2,0,0.3,0.2,0.5c0,0.2-0.2,0-0.2,0.2c-0.2,0.3-0.2,1.2,0,1.7c0.2,1.4-0.3,2.4-0.2,3.5c0,0.2,0.2,0,0.2,0.2
			c-0.2,1.4-0.3,3.5,0,5.2c0,0.2,0,0.3,0.2,0.3l-0.2,0.2c0.2,1.6,0.3,3.3,0.3,4.9c0,0.2,0.2,0,0.2,0.2c0,0.3-0.2,0.7,0,0.9
			c-0.2,0-0.2,0.3-0.3,0.7c0,0,0.2,0.2,0.3,0.2c0.2,0,0-0.2,0.2-0.2c0.2,0.2,0,0.3,0,0.7c-0.3,0-0.3,0.3-0.3,0.5c0,0.2,0.2,0,0.2,0
			c0.2-0.2,0-0.3,0.3-0.3c-0.2,0.3,0,0.3-0.2,0.7c0,0.2,0.2,0,0.2,0c0,0.2-0.3,0.2-0.2,0.3c0,0.2,0.2,0,0.3,0c0,0.2-0.2,0.2-0.3,0.2
			c0,0.2,0,0.3,0,0.5c0.2,0,0-0.2,0.2,0c0,0.5-0.3,0.5-0.3,0.9c0,0,0.2,0,0.3,0c0,0.2-0.3,0.2-0.3,0.5c0,0.2,0.2,0,0.2,0
			c0,0.3-0.3,0.3-0.3,0.7c0,0.2,0.2,0,0.2,0c-0.2,0.3,0,0.5-0.2,0.9c0,0.2,0.2,0.2,0.2,0.2c0,0.9-0.5,1.7-0.3,2.8
			c0.2,0.2,0.3,0.5,0.2,0.7c0.2,0,0.2,0.3,0.2,0.5c0,0.2,0.2,0.2,0.2,0.2c0,0.2-0.2,0-0.2,0.2c0,0.2-0.2,0.3-0.2,0.7s0.2,0.7,0.2,1
			c0,0.5-0.2,1-0.3,1.6c-0.2,0-0.3,0-0.5,0c-0.2,0.2-0.3,0.5-0.7,0.5v0.2c-0.3,0-0.7,0.2-1,0.2c0,0,0,0.2-0.2,0.2
			c-0.3,0.2-0.7,0-1.2,0c-0.7,0-1.6,0.3-2.1,0c-0.3,0.2-1.2,0-1.4-0.2h0.2c-0.7-0.3-1.6-0.2-2.3-0.2c-0.2,0-0.2,0.2-0.2,0.2
			c-0.5,0-1,0.2-1.6,0.2c0,0,0-0.2-0.2-0.2c-0.7,0.2-1.4,0-1.9,0v-0.2c-1.7-0.5-4-0.7-6.1-1c0-0.2,0-0.2,0-0.2
			c-0.7,0-1.2-0.3-1.7-0.5c0,0.2,0.2,0,0.2,0.2c-0.3,0-0.5-0.3-0.7-0.2c-0.2-0.2-0.5-0.3-0.7-0.3c0.2-0.2-0.2-0.3,0-0.5
			c-0.2-0.3-0.7-0.2-1-0.3c-0.2,0-0.2,0.2-0.2,0.2c-0.5,0-0.5-0.5-1.2-0.5c0.3,0.3,0.7,0.5,1.2,0.7c-0.9,0-1.2-0.9-1.9-1.2
			c0.2-0.5-0.5-0.5-0.9-0.7c0-0.5-0.3-0.3-0.7-0.5c0-0.2,0-0.3,0-0.5c-0.2,0-0.2,0-0.3,0c-0.3-0.2-0.3-0.7-0.5-0.9h-0.2
			c0,0-0.2-0.3-0.2-0.5c-0.2-0.2-0.3-0.3-0.3-0.5s-0.2-0.2-0.2-0.2c-0.2-0.3-0.5-0.7-0.7-0.9c0-0.5-0.7-0.9-0.5-1.2
			c-0.2,0-0.3-0.2-0.3-0.3c0-0.2,0,0,0.2-0.2c-0.2,0-0.3-0.3-0.3-0.5c0.2,0.2,0.2,0.3,0.2,0.3c-0.2-1-0.3-2.1-0.9-3
			c-0.2,0,0.2,0.2,0,0.3c-0.3,0.2-0.3-0.3-0.3-0.7c0-0.2,0.2-0.2,0.2-0.2c-0.3-0.2,0.2-1.2-0.3-1.2c0-0.2-0.2-0.3-0.2-0.5
			c0-0.2,0,0,0.2,0c0-0.3-0.3-0.7,0-0.9c-0.2-0.7,0-1.6,0-2.3c0,0-0.2-0.2,0-0.3c0,0,0,0,0,0.2c0.2-0.5,0.2-1,0.3-1.4
			c0,0.5-0.3,1.6-0.2,2.3c0.3-0.2,0.2-0.9,0.2-1l0.2-0.2c0-0.7,0.2-1,0.5-1.6c0.2-0.3,0.3-0.7,0.5-0.9c0.3-0.3,1-0.7,1-1.4
			c0.3,0,0.2-0.5,0.3-0.7c-0.2-0.2-0.2-0.2-0.3-0.2c0,0,0,0,0,0.2c0-0.2,0.2-0.3,0.2-0.3s-0.3-0.2,0-0.2c0,0-0.2-0.2-0.2,0
			c0-0.3,0.3-0.5,0.7-0.7c0.5-0.3,1.2-1,1.9-1.4c0.3-0.2,1.2,0.2,1.6-0.2c0.2,0,0.2,0,0.3,0c0-0.5,1-0.5,1.6-0.3
			c0.7-0.2,1.2,0.3,1.7,0.5c0.2,0,0.2-0.2,0.2-0.2c0.2,0,0.2,0.2,0.2,0.2c0.3,0,0.5,0,0.9,0c0,0,0.2,0.2,0.2,0.3
			c0.5-0.2,1.4,0,1.7,0.2c0.2,0,0.2,0,0.3-0.2c0.7,0,1.4,0.2,1.9,0.5c0.2,0.2,0.5,0.3,0.7,0.5c0.5,0.5,0.9,1,1.4,1.6
			c0.3,0.2,0.7,0.3,0.9,0.7c0.2,0.2,0.2,0.3,0.3,0.5c0.3,0.3,0.9,0.5,1,1c0,0.2,0.2,0.3,0.2,0.5c0.2,0.3,0.3,0.3,0.3,0.7
			c0.7,0.9,0.9,2.3,1.2,3.6c0,0,0,0.2-0.2,0.2c0,0.2,0,0.3,0,0.3c-0.2,0.2-0.2,0.7-0.3,0.9c0.2,0.5-0.5,0.7-0.3,1.2
			c-0.3,0.5-1,0.3-1.6,0.7c0,0.2,0.3,0.2,0.3,0.3c-0.5,0.3-1,0-1.4,0c-0.2,0-0.5,0.2-0.7,0c-0.3,0-0.9-0.3-1.2-0.5
			c-1.2-0.5-2.4-1.4-3.1-2.3c-0.2-0.9-0.7-1.2-1.2-1.7c-0.2,0-0.2,0-0.2,0c0-0.3-0.2-0.7-0.7-0.7c0-0.2-0.2-0.2,0-0.3
			c-0.7-0.9-1.4-1.7-1.9-2.8c0-0.2,0,0-0.2,0c0-0.2,0.2-0.2,0-0.2h-0.2c0-0.2,0.2-0.2,0.2-0.2s-0.2,0-0.3-0.2
			c-0.2-0.5-0.7-0.7-0.9-1.2c-0.5,0-1,0-1.2-0.3c-1.4,0.3-2.3,1-3.1,1.9c-0.2,0-0.2,0-0.2,0c-0.5,0.7-0.9,1.4-1.2,2.1
			c-0.2,0,0-0.2-0.2-0.3c-0.2,0,0,0.3-0.2,0.3c-0.2-0.2,0-0.5,0.2-0.5c0-0.2-0.2,0-0.2,0c0-0.2,0.2,0,0.2,0c0-0.2-0.2-0.2-0.2-0.2
			c0.2-0.2,0.2-0.5,0.3-0.5c0-0.2-0.2-0.2,0-0.3c-0.2,0-0.2,0-0.3,0c0,0.2,0,0,0.2,0c0,0.2-0.2,0.2,0,0.3c-0.3,0.2-0.9,0.7-0.7,1.2
			c0.2-0.2,0.2-0.5,0.3-0.7c0.2,0.2-0.3,0.5-0.2,1c0,0,0,0-0.2,0c0,0.5-0.2,1.7,0.3,1.9c0.2-0.3-0.2-1,0-1.4c0,0.5,0,1.2,0.2,1.7
			c0.2,0,0-0.2,0-0.3c0.2,0.2,0,0.5,0.2,0.5c0,0,0-0.2,0-0.3c-0.3-0.3,0-0.9-0.2-1.2c0.2,0,0.2,0,0.2,0c0.2,0.2,0,0.3,0,0.3
			s0,0.2,0.2,0c0,0-0.2,0-0.2,0.2c0,0.2,0,0.2,0.2,0.2c0,1,0.5,1.7,1,2.4c0,0.2-0.2-0.2-0.3-0.2c0,0.2,0.2,0.2,0.2,0.3v-0.2
			l-0.2,0.2c0.2,0.2,0.3,0.3,0.3,0.7c0,0,0-0.3,0.2-0.2c0.2,0.2,0,0.5,0.3,0.7c0,0.3,0.2,0.7,0.3,0.9c0.5,0.5,0.7,1.4,1.6,1.4
			c0.2,0,0.2,0.3,0.5,0.3c0,0-0.2,0-0.2,0.2c0.3,0.2,0.5,0.7,1,0.7c0.2,0,0.2-0.2,0.2,0c0,0,0,0-0.2,0c0,0.2,0.3-0.2,0.3,0.2
			c-0.3,0-0.3,0-0.7,0c0.3,0.2,0.3,0.5,0.7,0.5h-0.2c0.3,0.7,1.2,0.9,1.7,1c0.2,0,0.2-0.2,0.2-0.2c1.6,0.5,3.3,1,4.9,1.6
			c1,0.3,2.3,0.9,3.6,1c0.7,0,1.7,0.2,2.3-0.3c1.6-0.2,2.8-0.7,3.6-1.6c0.7,0.2,1.2-0.2,1.2-1c0.2-0.2,0.2,0,0.3,0
			c0,0-0.2-0.2-0.2,0c0.2-0.9,0.9-1.9,1-3.1c0-0.3,0-0.7,0-1.2s0.2-1,0-1.7c0-0.9-0.2-1.9,0-3c0-0.9,0.2-1.6,0.2-2.3
			c0-0.9-0.2-1.7-0.2-2.6c0-0.5,0.2-1.4,0.2-2.1c0-0.3,0-0.5,0-0.7c0-0.3-0.2-0.7-0.3-1.2c-0.2-1,0-2.3,0-3.3c0-1.4-0.9-2.6-0.9-4
			c-2.3,0-4.5,0.5-6.4,1.2c-0.2,0-0.2,0-0.2,0c-0.2,0-0.2,0.2-0.2,0.2c-3,0.5-5.9,1.4-8.5,2.4c0-0.3,0.5-0.5,1-0.5
			c-0.5-0.2-1,0.2-1.7,0.2c0,0-0.2,0-0.2,0.2c-0.7,0-0.9,0.3-1.4,0.5v0.2c0.3,0,0.5-0.3,0.9-0.2c-0.2,0.3-0.7,0.5-1.4,0.7
			c0,0.3-0.7,0.2-0.7,0.5c-0.2,0,0-0.2-0.2-0.2s0,0.2,0,0.2c-1.4,0.3-2.3,1.4-3.6,1.4c-0.2,0.2-0.2,0.3-0.3,0.3v0.2
			c-1.4,0.3-2.6,1.2-4.3,1.4h0.2c-0.7,0.3-1.4,0.5-2.3,0.3c-0.2,0,0-0.2-0.2-0.2s-0.2,0.3-0.5,0.2c0.2,0.2,0.2,0.3,0,0.5
			c0,0,0.2,0,0.2,0.2h-0.2c0,0.2,0.3,0.2,0.2,0.3c-1,0.2-1.7,0.5-3,0.5c-0.3,0.3-1.2,0.3-1.9,0.7c0-0.2,0-0.2-0.2-0.2
			c0,0.2-0.3,0.3-0.3,0.5c-0.5,0-0.7-0.2-1.2-0.2c-0.5-0.3-0.7-0.9-1.2-1.4c0-0.5-0.3-0.5-0.3-1c-0.7-0.9-0.5-2.8-0.7-4
			c0-0.2,0-0.2,0-0.3c0-0.2-0.2-0.2-0.2-0.2c0-0.2,0.2-0.7-0.2-0.9c-0.2-0.7,0.2-1.2,0.7-1.4c0.7-0.2,1.4,0.5,2.1,0.7
			c0.9,0.2,1.7-0.3,2.8-0.3c0.2,0,0.2,0,0.2,0.2c0.7-0.2,1.2-0.3,1.7-0.7c1.6,0,2.6-0.5,3.8-0.9c0,0,0,0,0-0.2
			c0.3,0.2,1-0.3,1.6-0.5c0.7-0.2,1.2,0,1.6-0.5c0.3,0,0.7,0,1-0.2v-0.2c0.2,0,0.5,0,0.3-0.2c0.5,0,0.9-0.3,1.4-0.3v-0.2
			c0.2,0.2,0.3-0.2,0.5-0.2h0.2c0.3,0,0.5-0.3,1-0.3c0,0-0.2,0,0-0.2c0.9,0.2,1.2-0.7,2.3-0.7c0.2-1-1.4,0.3-1.6-0.5
			c-0.5,0.2-0.5-0.5-0.9-0.7c-0.2,0,0,0.2-0.2,0.3c-0.3-0.2-0.9-0.2-1.2-0.3c-0.5,0.2-0.9,0.3-1.4,0.2c-0.7-0.2-1-1-1.6-1.2
			c0-0.2,0-0.2,0-0.2c-0.2-0.2-0.5-0.3-0.7-0.3c0-0.2,0.2,0,0.2-0.2c-0.2-0.3-1-0.7-1.4-1c-0.2,0-0.2,0-0.3,0c0-0.2-0.2-0.2-0.2-0.3
			c-0.3-0.3-0.7-0.5-0.9-1c-0.7-0.5-1.2-1.4-1.9-1.7c0,0,0,0,0-0.2h-0.3c0-0.3,0.3-0.2,0.5-0.3c0-0.2-0.2-0.2-0.2-0.3
			c0-0.3,0.2-0.3,0.2-0.5c-0.2-0.2-0.3-0.2-0.5-0.3c0-0.2,0-0.3-0.2-0.5c0.2-0.7,0.5-0.7,0.7-1.4c0-0.2-0.2-0.2-0.2-0.3
			c0-0.2,0.2,0,0.2,0c0-0.2,0-0.3-0.2-0.7c0,0,0-0.2,0.2,0c0-0.3,0-0.7,0.3-0.7c0-0.3,0.2-0.5,0-0.7c0.3-1.2,0.9-1.9,1.2-3.1h0.2
			c0.3-1.6,1-2.8,1.9-4c-0.2,0-0.3,0.3-0.7,0.2c-0.5,0.2-0.9,0.7-1.4,1c-0.2,0-0.2,0-0.2,0c-0.5,0.3-1.2,0.7-1.9,1c-0.2,0,0,0-0.2,0
			c-0.2,0.2-0.3,0.3-0.7,0.3c0-0.2,0-0.2,0-0.2c-0.2,0-0.2,0-0.2,0c1.2-0.2,1.6-1.2,2.4-1.9c-0.3,0-1,0.5-1.4,0.2
			c0-0.2,0.2-0.3,0.2-0.5c-0.7-0.3-1.4,0.7-1.9,0.2c-0.2,0-0.2,0.2-0.3,0.2c0.2-0.5,0.7-1,1-1.4c0-0.2,0-0.2-0.2-0.2
			c1.6-1.6,3.3-3,4.7-4.5c0.3,0,0.3-0.2,0.5-0.2c0.2-0.2,0.3-0.3,0.5-0.3c0-0.2-0.2,0-0.2,0l0,0c-0.2,0.2-0.2-0.2,0-0.2
			s0.2,0,0.3,0.2c0.5-0.3,1.2-0.7,1.4-1.2c0.3,0.2,0.3-0.3,0.5-0.3c-0.2-0.2-0.2,0-0.3,0c0-0.2,0.2-0.2,0.2-0.3c0-0.2,0,0-0.2,0
			c0-0.2,0.3,0,0.3,0c0,0.2,0,0.2,0,0.2c0.3-0.2,0.5-0.2,0.7-0.5c0.2,0,0.2,0,0.2,0c0.2-0.2,0.5-0.2,0.5-0.5c0.2,0,0.3,0,0.3-0.2
			h-0.3c-0.2-0.2,0.2-0.2,0.3-0.2c0-0.2-0.2,0-0.2-0.2c0-0.2,0.3,0,0.2,0c0.5,0,0.9-0.5,1.2-0.5
			C356.5,347.1,357.3,346.9,357.3,346.4L357.3,346.4L357.3,346.4L357.3,346.4z M339.3,366.7L339.3,366.7L339.3,366.7
			c0.2,0,0.2-0.5,0.5-0.2c0,0,0,0,0-0.2l0.2-0.2c0,0.2,0.2,0,0.3,0.2c-0.2,0-0.2,0.2-0.2,0.3c0.2,0,0.3-0.2,0.5,0c0-0.2-0.2,0,0-0.2
			h0.2c0-0.2,0-0.2,0-0.3c-0.2,0-0.5,0.2-0.7,0c0,0,0.2-0.2,0.3-0.2c0,0-0.2,0.2,0,0.2c0.2,0,0-0.3,0.2-0.3s0,0.2,0.2,0.2
			c0.2-0.2,0.3-0.5,0.2-0.9c0.3-0.2,0.5-0.3,0.7-0.3c0.2-0.3,0.5-0.5,0.9-0.7c0.2-0.3,0.3-0.7,0.7-0.9c0-0.2-0.3-0.3-0.3-0.5
			c-0.3,0.5-0.9,1.2-1.6,0.9c0-0.2,0-0.5,0-0.7c0.7-0.5,0.9-1.4,1-2.6c-0.2-0.2-0.3-0.2-0.5-0.2c-1.2,0.9-2.4,1.9-3.6,3
			c0-0.7,0.2-1.7,0.2-2.6c0-0.5,0.2-1,0.5-1.4c0,0,0,0.2,0.2,0.2c0-0.3,0.3-0.7,0.5-1c-0.2-0.7,0.5-1.2,0.7-1.9
			c0.3,0,0.5-0.2,0.9-0.2c0.3-0.5,0.7-1,1-1.4c0-0.3,0-0.9,0.2-1.2s0.5-0.9,0.7-1.2c0-0.2,0-0.3,0-0.5c0.2-0.7,0.9-1.2,0.5-2.3
			c-0.5-0.2-0.5-0.7-1-0.9c0-0.3-0.3-0.5-0.5-0.9c0-0.2,0-0.3,0-0.5c-0.2-0.5-1-0.5-1.2-1.2c-0.7-0.3-1.2-1-1.7-1.6
			c-0.3,0-0.5-0.3-0.9-0.3c0-0.2-0.2-0.2-0.3-0.3c-0.2-0.2-0.3-0.3-0.5-0.5c-0.2-0.2-0.5-0.2-0.9-0.3c-0.5-0.2-1.2-0.5-1.7-0.5
			c-0.3,0-0.5,0.2-0.9,0.2c-0.2,0-0.2,0-0.3,0c-1.4,0.2-1.6,1-1.7,2.3c-0.2,0.9-0.5,1.6-0.5,2.3c-0.2,1.2,0.2,1.6,0.7,2.1
			c0.3,0.3,0.7,0.9,1,0.5c-0.2,0-0.3,0-0.3,0c0-0.2,0.3-0.2,0.5-0.3c-0.2-0.5,0.2-0.7,0.3-1c0.3-0.7,0-2.3,0.9-2.4
			c0,0.7,0,1.4,0,1.9c-0.2,1.6-0.3,3.1-0.9,4.5c-0.2,0.9-0.3,1.6-0.5,2.4c0,0.3-0.2,0.7-0.2,1.2c0,0.9-0.2,1.9-0.3,3
			c-0.2,1.6-0.3,3.3-0.3,4.9c-0.2,1.2-0.3,2.4-0.7,3.5c-1,0.5-2.6,0.7-4,0.5c-0.3-0.3-0.9-0.3-1-0.9c-0.7,0-1.2,0.2-1.7-0.2
			c0,0.2-0.2,0.2-0.2,0.3c0,0-0.3,0-0.5,0c-0.3,0.3-0.7,0.2-1,0.5c-0.3,0.3-0.7,0.7-1,1c0,0.5-0.3,0.7-0.3,1.2
			c-0.3,0.2-0.7,0.9-0.2,1.2c0,0.3-0.5,0.5-0.3,0.9c0,0.2,0.2,0.2,0.3,0.3c0.3,0.5,0.3,1.6,0.9,1.9c0.2,0.2,0.5,0.2,0.7,0.3
			c0,0.3,0.3,0.5,0.5,0.9c0.2,0.5,0.2,1,0.7,1c0.3,0.7,1.2,0.9,1.9,1c0.5-0.5,1.6-0.5,2.4-0.7c0.5-0.3,1.2-0.3,1.4-1
			c0.3,0,0.3,0,0.7,0c0.2,0.2,0,0.7-0.2,0.9c0,0.3,0.3,0.7,0.3,0.9c0.2,0.5-0.3,1-0.3,1.4c-0.2,0.5,0,1-0.2,1.6c0,1.4,0,2.8,0,4.2
			c0,1,0,1.9,0,3c-0.2,1.4-0.3,3.1-0.3,4.5c0,0.7,0,1.6,0,2.3c0,1.7,0.3,3.5,0.5,5c0.2,1.6,0.2,3,0.2,4.3c0,0.9,0.2,1.6,0.2,2.3
			c0,0.7-0.2,1.2-0.2,1.9c-0.7,0.2-0.2,1.2-0.3,1.9c0,1.2,0.9,1.6,1.7,1.9c0.2,0.3,0.3,0.3,0.5,0.7c0,0.2,0,0.3,0,0.3
			c0.3,0,0.7,0,0.7,0.2c0.2,0,0.2-0.2,0.3,0c0.5,0.2,1,0.3,1.4,0.7c0.9,0,1.4,0.5,1.7,1c0.7,0,0.9,0.5,1.4,0.3c0.5,0,0.5-0.7,1-0.7
			c0-0.5,0.5-0.7,0.3-1.2c0-0.2,0.2-0.2,0.2-0.3c0-0.2-0.2-0.2-0.2-0.3c0-0.7-0.5-1.2-0.7-2.1h0.2c-0.2-0.3,0.2-0.7,0-1h0.2
			c-0.2-1.6-0.3-3.1-0.7-4.3c0-0.2,0.2,0,0.2-0.2c-0.3-0.5-0.3-1.2-0.7-1.7c0-0.7-0.2-1.4-0.3-2.1c0-0.3,0-0.7-0.2-1.2
			c0-0.2-0.2-0.3-0.2-0.5c0-0.3,0-0.7,0-1c0-0.2-0.2-0.5-0.2-0.7c0-0.5,0-1,0-1.4c-0.2-0.5,0-1.2-0.2-1.9c0-0.2-0.2-0.3-0.2-0.5
			c0-0.3,0.2-0.5,0-0.9c0-0.2-0.2,0-0.2,0c0-0.2,0-0.3,0-0.7c0,0-0.2,0.2-0.2,0c0.2-0.5,0.2-1.4,0.2-2.3c0-0.5,0-1-0.2-1.2
			c-0.2,0.2,0,0.3-0.3,0.3c0-0.3,0-0.9,0.2-1.2c0.2,0,0.2,0,0.2-0.2c-0.2,0.2-0.2-0.2-0.2-0.3c0-0.2,0.2,0,0.3-0.2
			c0-0.2,0-0.3,0-0.5c0-0.2,0.2-0.2,0.2-0.3c-0.2,0,0,0.2-0.2,0.2c0-0.2,0-0.2,0-0.3c-0.2,0,0,0.5-0.3,0.5c0-0.5-0.2-1.6,0.3-1.7
			c0-0.5,0-1.2,0.2-1.6c-0.2-0.2-0.2,0.2-0.3,0c-0.2-0.2,0.2-0.5,0-0.7c0-0.2,0.3-0.2,0.2-0.3c-0.2,0,0,0.2-0.2,0.2
			c0-1.7-0.2-3.8,0.3-5.2c-0.5-0.2,0-0.9,0-1.2c-0.5-0.5,0.2-1.4,0-1.9c0,0.2,0,0.2-0.2,0.2c0-0.2,0,0,0-0.2c0-0.2,0.2,0,0.2-0.2
			c0-0.9,0.2-1.6,0.2-2.3c-0.2-0.9,0-1.6,0.2-2.3c0-0.2,0.2,0,0.3-0.2c0-0.2-0.2-0.3,0-0.5c0,0,0,0.2,0.2,0
			C338.2,367.2,338.9,366.9,339.3,366.7C339.5,366.7,339.3,366.5,339.3,366.7z M373.8,373C373.8,373.1,374,373,373.8,373
			c-0.2,0.2-0.2,0.3-0.5,0.2c0,0.2,0.2,0,0.2,0.2c-0.3,0-0.7,0.2-1,0c0,0.2,0.3,0,0.2,0.2c-0.2,0-0.3,0-0.5,0
			c-0.3,0.5-1.2,0.2-1.7,0.3c0-0.2,0.3,0,0.2-0.2c-0.3-0.2-0.7,0-1,0.2c-0.5,0.2-1,0-1.6,0.2c-0.3,0.2-0.5,0.5-0.9,0.5
			c-0.2,0-0.3,0-0.3,0c-0.2,0-0.9,0.3-0.9,0.3c-0.2,0-0.2,0.2-0.3,0.2c0,0-0.2-0.2-0.2,0c0,0-0.2,0.2-0.2,0
			c-0.2,0.3-0.3,0.3-0.5,0.7c0,0.7,0.9,0.7,1.2,0.3c1-0.3,1.7-0.5,3-0.5c1.4-0.2,2.6-0.9,4-1c0.7-0.2,1.4-0.2,2.3-0.2
			c0.2-0.7-0.3-1.2-0.7-1.7C374.2,373,374,373,373.8,373L373.8,373L373.8,373L373.8,373z M357,371.9c0.9,0.5,1.4-0.3,2.4-0.3
			c0.3-0.5,1.2-0.5,1.2-1.2c0-0.2,0.2-0.2,0.2-0.3c-0.7,0-1.2,0.3-1.9,0.3c-0.3-0.2-0.7-0.2-0.9-0.5c-0.3,0-0.5,0-0.5-0.2
			c0-0.2,0-0.2,0-0.2c-0.2,0-0.3,0-0.5,0c0-0.3-0.5-0.5-0.3-0.9c-0.2,0-0.3-0.2-0.3-0.2c-0.2,0.2-0.2,0.3,0,0.5
			c-0.3,0.2,0,0.5,0,0.9c-0.2,0.3-0.2,0.5-0.3,0.7c0.2,0.3,0.3,1,0.5,1.6h-0.2c0.2,0,0,0.3,0.2,0.2
			C356.6,371.9,356.6,372.1,357,371.9L357,371.9L357,371.9L357,371.9z M373.1,364.6c-0.9,0.2-1.9,0.5-3,0.9c-0.3,0-0.7,0.2-1,0.2
			c-0.2,0-0.3,0.3-0.3,0.3c-0.2,0.2-0.5,0.2-0.7,0.3c0,0.7-0.5,0.9-0.7,1.4c1.6,0.7,3.6-0.2,4.7-0.9c0-0.2,0-0.2,0-0.3
			c0.2,0,0.2,0,0.3,0c0-0.2,0-0.2,0-0.3c0.7-0.3,1.2-0.5,1.6-1.2C373.7,364.8,373.3,364.6,373.1,364.6L373.1,364.6L373.1,364.6
			L373.1,364.6z M371.7,364.3c-0.7,0.3-1.2,0.5-1.4,0.9c1-0.2,1.9-0.7,3-1C372.8,363.9,372.3,364.1,371.7,364.3L371.7,364.3
			L371.7,364.3L371.7,364.3z M358.7,363.2c0.3,0,0.3-0.3,0.9-0.5c0.2-0.2,0.3,0,0.7,0s1-0.3,1.4-0.7c0,0,0-0.2,0.2-0.2
			c0.2-0.2,0.3-0.2,0.3-0.3c0-0.2,0-0.5-0.2-0.7c-0.3,0.2-0.7,0.3-1,0.3c-0.5,0.2-1,0.5-1.4,0.9c-0.5,0-0.9,0.3-1.4,0.2
			c-0.2,0.2-0.3,0.5-0.2,0.9C358,362.9,358.4,363.2,358.7,363.2L358.7,363.2L358.7,363.2L358.7,363.2z M373.8,355.9
			c-2.3-0.3-3.6,0.9-5.6,1.4c0,0.5-0.9,0.2-0.9,0.7c0.3,0.2,0.7,0,1,0.3c0.3-0.2,0.9-0.3,1.2-0.7c0,0,0.2,0.2,0.2,0l0,0
			c0.3,0,0.5-0.2,0.7,0c0.2,0,0.2-0.2,0.2-0.2c0.2,0,0.5,0,0.7,0.2c0.9,0.2,1.4,0.7,2.4,0.7c0.3,0.5,0.9,0.9,0.9,1.7
			c0.3,0.3,0.7,0.5,1,0.9c0.5-1.7,1.2-3.5,1.6-5.6C376.3,355.6,374.7,355.2,373.8,355.9L373.8,355.9L373.8,355.9L373.8,355.9z
			 M361.2,352.1c0,0.2,0.2,0.2,0,0.3c-0.7,0.2-1.2,0.5-1.9,1c-1,0.5-1.7,1-1.7,2.4c1.7-0.7,3-1.6,4.7-2.3c0.2-0.5,0-1.2,0.2-1.7
			C361.9,351.9,361.3,351.9,361.2,352.1L361.2,352.1L361.2,352.1L361.2,352.1z"/>
	</g>
</g>
</svg>
