<?xml version="1.0" encoding="utf-8"?>
<!-- Generator: Adobe Illustrator 19.0.0, SVG Export Plug-In . SVG Version: 6.00 Build 0)  -->
<svg version="1.1" id="Layer_1" xmlns="http://www.w3.org/2000/svg" xmlns:xlink="http://www.w3.org/1999/xlink" x="0px" y="0px"
	 viewBox="-291.5 275.1 300 53.7" style="enable-background:new -291.5 275.1 300 53.7;" xml:space="preserve">
<style type="text/css">
	.st0{fill:#255AA8;}
	.st1{fill:#B5B7B7;}
	.st2{fill:#464646;}
</style>
<g>
	<g id="XMLID_5424_">
		<g id="XMLID_5470_">
			<polygon id="XMLID_5479_" class="st0" points="-257.2,300.1 -268.4,305.1 -257.2,310 -249.5,306.6 -249,306.4 -246,305.1 			"/>
			<path id="XMLID_5478_" class="st0" d="M-249.5,305.7v6.2c-0.3,0.1-0.5,0.4-0.5,0.7c0,0.4,0.3,0.8,0.7,0.8s0.7-0.4,0.7-0.8
				c0-0.3-0.2-0.6-0.5-0.7v-6.4"/>
			<polygon id="XMLID_5477_" class="st0" points="-262.7,308.7 -262.7,311.6 -257.3,313.9 -251.9,311.7 -251.9,308.7 -257.3,310.9 
							"/>
			<path id="XMLID_5476_" class="st0" d="M-250.9,312.3"/>
			<path id="XMLID_5475_" class="st0" d="M-248,309.5"/>
			<polygon id="XMLID_5474_" class="st1" points="-243.3,305.1 -246,306.3 -236,306.3 -246.5,295.8 -256.7,295.8 -250.8,301.7 			
				"/>
			<polygon id="XMLID_5473_" class="st0" points="-271.1,305.1 -264.5,302.2 -247.8,285.4 -247.8,275.1 -278.8,306.3 -268.6,306.3 
				-268.5,306.2 			"/>
			<polygon id="XMLID_5472_" class="st1" points="-268.6,307.8 -278.9,307.8 -258.2,328.5 -258.2,318.2 			"/>
			<path id="XMLID_5471_" class="st0" d="M-246.3,307.8l-1.1,1.1l-0.6,0.6v2.1c0.3,0.3,0.5,0.7,0.5,1.2c0,0.9-0.8,1.6-1.7,1.6
				s-1.6-0.7-1.6-1.6c0-0.2,0-0.4,0.1-0.5l-0.4,0.4l-5.5,5.6v10.2l20.7-20.7L-246.3,307.8z"/>
		</g>
	</g>
	<g id="XMLID_3280_">
		<g id="XMLID_8632_">
			<path id="XMLID_9198_" class="st2" d="M-225.3,314.2c0-2.3,0-2.8,0-3.2c0-0.5-0.2-0.8-0.6-0.9c-0.1,0-0.4,0-0.5,0s-0.1,0-0.1-0.1
				s0.1-0.1,0.2-0.1c0.7,0,1.6,0,1.7,0c0.4,0,0.9,0,1.6,0c2.5,0,3,1.5,3,2.3c0,1.2-0.7,2-1.4,2.7c1.1,0.3,2.6,1.4,2.6,3.2
				c0,1.6-1.3,3.3-3.8,3.3c-0.2,0-0.6,0-1.1,0c-0.4,0-0.9,0-0.9,0s-0.3,0-0.6,0s-0.6,0-0.9,0c-0.2,0-0.2,0-0.2-0.1
				c0,0,0-0.1,0.1-0.1s0.3,0,0.5-0.1c0.3-0.1,0.4-0.4,0.4-0.8c0.1-0.6,0.1-1.8,0.1-3.3v-2.8H-225.3z M-224.1,314.5
				c0,0.1,0,0.1,0.1,0.2c0.1,0,0.4,0.1,0.9,0.1c0.8,0,1.1,0,1.4-0.4c0.3-0.4,0.5-0.9,0.5-1.5c0-1.2-0.6-2.6-2-2.6
				c-0.2,0-0.5,0-0.7,0.1c-0.1,0-0.2,0.1-0.2,0.2V314.5z M-224.1,316.1c0,1.2,0,3,0,3.2c0,0.7,0,0.9,0.5,1.2
				c0.4,0.2,1.1,0.2,1.3,0.2c0.8,0,2.1-0.4,2.1-2.1c0-0.9-0.3-2.2-1.5-3c-0.5-0.3-0.9-0.4-1.2-0.4c-0.2,0-0.9,0-1.2,0
				c-0.1,0-0.1,0-0.1,0.1L-224.1,316.1L-224.1,316.1z"/>
			<path id="XMLID_9195_" class="st2" d="M-215.9,315.2c0-2,0-2.3,0-2.8c0-0.4-0.1-0.6-0.5-0.7c-0.1,0-0.3,0-0.5,0l-0.1-0.1
				c0-0.1,0.1-0.1,0.2-0.1c0.6,0,1.5,0,1.6,0s1.2,0,1.7,0c0.8,0,1.8,0.1,2.5,0.6c0.3,0.2,0.9,0.9,0.9,1.7c0,0.9-0.4,1.9-1.6,2.9
				c1.1,1.4,2,2.5,2.8,3.3c0.7,0.7,1.1,0.8,1.5,0.9c0.3,0,0.4,0,0.5,0s0.1,0.1,0.1,0.1c0,0.1-0.1,0.1-0.3,0.1h-0.8
				c-0.8,0-1.1-0.1-1.4-0.3c-0.6-0.3-1.1-0.9-1.8-1.9c-0.6-0.7-1.1-1.5-1.4-1.9c-0.1-0.1-0.1-0.1-0.2-0.1h-1.7c-0.1,0-0.1,0-0.1,0.1
				v0.3c0,1.2,0,2.2,0.1,2.8c0,0.4,0.1,0.6,0.5,0.7c0.2,0,0.5,0.1,0.6,0.1s0.1,0.1,0.1,0.1c0,0.1-0.1,0.1-0.2,0.1
				c-0.7,0-1.6,0-1.6,0s-0.9,0-1.3,0c-0.1,0-0.2,0-0.2-0.1c0,0,0-0.1,0.1-0.1s0.3,0,0.4-0.1c0.3-0.1,0.3-0.3,0.3-0.7
				c0.1-0.5,0.1-1.5,0.1-2.8v-2.1H-215.9z M-214.8,316.3c0,0.1,0,0.1,0.1,0.2c0.2,0.1,0.9,0.2,1.5,0.2c0.3,0,0.7,0,1-0.2
				c0.5-0.3,0.8-1,0.8-2c0-1.6-0.9-2.5-2.3-2.5c-0.4,0-0.8,0-0.9,0.1c-0.1,0-0.1,0.1-0.1,0.2v4H-214.8z"/>
			<path id="XMLID_9193_" class="st2" d="M-205,317.5c0,1.2,0,2.2,0.1,2.8c0,0.4,0.1,0.6,0.5,0.7c0.2,0,0.5,0.1,0.6,0.1
				s0.1,0.1,0.1,0.1c0,0.1-0.1,0.1-0.2,0.1c-0.7,0-1.6,0-1.7,0c-0.1,0-0.9,0-1.3,0c-0.1,0-0.2,0-0.2-0.1c0,0,0-0.1,0.1-0.1
				s0.3,0,0.4-0.1c0.3-0.1,0.3-0.3,0.3-0.7c0.1-0.5,0.1-1.5,0.1-2.8v-2.3c0-2,0-2.3,0-2.8c0-0.4-0.1-0.6-0.4-0.7c-0.2,0-0.3,0-0.4,0
				c-0.1,0-0.1-0.1-0.1-0.1c0-0.1,0.1-0.1,0.2-0.1c0.4,0,1.3,0,1.3,0c0.1,0,0.9,0,1.3,0c0.2,0,0.2,0,0.2,0.1l-0.1,0.1
				c-0.1,0-0.2,0-0.3,0c-0.4,0.1-0.4,0.3-0.5,0.7c0,0.4,0,0.8,0,2.8L-205,317.5L-205,317.5z"/>
			<path id="XMLID_9191_" class="st2" d="M-199.8,317.5c0,1.9,0,2.6,0.3,2.9c0.2,0.2,0.7,0.3,1.8,0.3c0.7,0,1.3,0,1.6-0.4
				c0.2-0.2,0.3-0.5,0.3-0.7c0-0.1,0.1-0.2,0.1-0.2c0.1,0,0.1,0.1,0.1,0.2s-0.1,0.9-0.2,1.3c-0.1,0.3-0.1,0.3-0.8,0.3
				c-0.9,0-1.7,0-2.3,0s-1.1,0-1.4,0c-0.1,0-0.3,0-0.5,0c-0.3,0-0.6,0-0.8,0c-0.1,0-0.2,0-0.2-0.1c0,0,0-0.1,0.1-0.1s0.3,0,0.4-0.1
				c0.3-0.1,0.3-0.3,0.3-0.7c0.1-0.5,0.1-1.5,0.1-2.8v-2.3c0-2,0-2.3,0-2.8c0-0.4-0.1-0.6-0.5-0.7c-0.1,0-0.3,0-0.5,0l-0.1-0.1
				c0-0.1,0.1-0.1,0.2-0.1c0.6,0,1.4,0,1.5,0s1.1,0,1.5,0c0.1,0,0.2,0,0.2,0.1l-0.1,0.1c-0.1,0-0.3,0-0.4,0
				c-0.4,0.1-0.5,0.3-0.5,0.7c0,0.4,0,0.8,0,2.8v2.4H-199.8z"/>
			<path id="XMLID_9189_" class="st2" d="M-192.1,317.5c0,1.9,0,2.6,0.3,2.9c0.2,0.2,0.7,0.3,1.8,0.3c0.7,0,1.3,0,1.6-0.4
				c0.2-0.2,0.3-0.5,0.3-0.7c0-0.1,0.1-0.2,0.1-0.2c0.1,0,0.1,0.1,0.1,0.2s-0.1,0.9-0.2,1.3c-0.1,0.3-0.1,0.3-0.8,0.3
				c-0.9,0-1.7,0-2.3,0s-1.1,0-1.4,0c-0.1,0-0.3,0-0.5,0c-0.3,0-0.6,0-0.8,0c-0.1,0-0.2,0-0.2-0.1c0,0,0-0.1,0.1-0.1s0.3,0,0.4-0.1
				c0.3-0.1,0.3-0.3,0.3-0.7c0.1-0.5,0.1-1.5,0.1-2.8v-2.3c0-2,0-2.3,0-2.8c0-0.4-0.1-0.6-0.5-0.7c-0.1,0-0.3,0-0.5,0l-0.1-0.1
				c0-0.1,0.1-0.1,0.2-0.1c0.6,0,1.4,0,1.5,0s1.1,0,1.5,0c0.1,0,0.2,0,0.2,0.1l-0.1,0.1c-0.1,0-0.3,0-0.4,0
				c-0.4,0.1-0.5,0.3-0.5,0.7c0,0.4,0,0.8,0,2.8v2.4H-192.1z"/>
			<path id="XMLID_9187_" class="st2" d="M-184.5,317.5c0,1.2,0,2.2,0.1,2.8c0,0.4,0.1,0.6,0.5,0.7c0.2,0,0.5,0.1,0.6,0.1
				s0.1,0.1,0.1,0.1c0,0.1-0.1,0.1-0.2,0.1c-0.7,0-1.6,0-1.7,0c-0.1,0-0.9,0-1.3,0c-0.1,0-0.2,0-0.2-0.1c0,0,0-0.1,0.1-0.1
				s0.3,0,0.4-0.1c0.3-0.1,0.3-0.3,0.3-0.7c0.1-0.5,0.1-1.5,0.1-2.8v-2.3c0-2,0-2.3,0-2.8c0-0.4-0.1-0.6-0.4-0.7c-0.2,0-0.3,0-0.4,0
				c-0.1,0-0.1-0.1-0.1-0.1c0-0.1,0.1-0.1,0.2-0.1c0.4,0,1.3,0,1.3,0c0.1,0,0.9,0,1.3,0c0.2,0,0.2,0,0.2,0.1l-0.1,0.1
				c-0.1,0-0.2,0-0.3,0c-0.4,0.1-0.4,0.3-0.5,0.7c0,0.4,0,0.8,0,2.8L-184.5,317.5L-184.5,317.5z"/>
			<path id="XMLID_9184_" class="st2" d="M-178.2,311.8c0.2-0.4,0.2-0.5,0.3-0.5s0.2,0.2,0.3,0.5c0.2,0.5,2.4,5.8,3.2,7.8
				c0.5,1.1,0.8,1.3,1.1,1.4c0.2,0.1,0.4,0.1,0.5,0.1s0.2,0,0.2,0.1s-0.2,0.1-0.3,0.1c-0.2,0-1.2,0-2.1,0c-0.3,0-0.5,0-0.5-0.1
				s0-0.1,0.1-0.1s0.2-0.1,0.1-0.3l-1.2-2.9c0-0.1,0-0.1-0.1-0.1h-3.1c-0.1,0-0.1,0-0.1,0.1l-0.8,2c-0.1,0.3-0.2,0.6-0.2,0.9
				s0.2,0.3,0.5,0.3h0.1c0.1,0,0.1,0,0.1,0.1s-0.1,0.1-0.2,0.1c-0.3,0-1,0-1.2,0c-0.1,0-0.8,0-1.3,0c-0.2,0-0.3,0-0.3-0.1
				s0.1-0.1,0.1-0.1c0.1,0,0.3,0,0.4,0c0.6-0.1,0.9-0.5,1.1-1.2L-178.2,311.8z M-176.7,317.1C-176.6,317.1-176.6,317.1-176.7,317.1
				l-1.3-3.6c-0.1-0.2-0.2-0.2-0.2,0l-1.2,3.5c0,0.1,0,0.1,0,0.1H-176.7z"/>
			<path id="XMLID_9182_" class="st2" d="M-170.6,319.4c0,1.1,0.2,1.4,0.5,1.5c0.2,0.1,0.5,0.1,0.7,0.1c0.1,0,0.1,0,0.1,0.1
				s-0.1,0.1-0.2,0.1c-0.8,0-1.3,0-1.4,0c-0.1,0-0.7,0-1.3,0c-0.1,0-0.2,0-0.2-0.1s0-0.1,0.1-0.1s0.3,0,0.5-0.1
				c0.3-0.1,0.4-0.4,0.4-1.6V312c0-0.5,0.1-0.6,0.2-0.6c0.2,0,0.4,0.3,0.5,0.4c0.2,0.2,2.1,2.3,4.2,4.4c1.3,1.4,2.7,2.9,3.1,3.3
				l-0.1-6.4c0-0.8-0.1-1.1-0.5-1.2c-0.2,0-0.5-0.1-0.6-0.1s-0.1-0.1-0.1-0.1c0-0.1,0.1-0.1,0.3-0.1c0.6,0,1.2,0,1.4,0s0.6,0,1.1,0
				c0.1,0,0.2,0,0.2,0.1c0,0-0.1,0.1-0.2,0.1c-0.1,0-0.2,0-0.3,0c-0.4,0.1-0.5,0.3-0.5,1.1v7.5c0,0.8,0,0.9-0.1,0.9s-0.3-0.1-1-0.8
				c-0.1-0.1-2-2-3.4-3.5c-1.5-1.6-3-3.2-3.4-3.6V319.4z"/>
			<path id="XMLID_9180_" class="st2" d="M-156.1,317.5c0,1.2,0,2.2,0.1,2.8c0,0.4,0.1,0.6,0.5,0.7c0.2,0,0.5,0.1,0.6,0.1
				s0.1,0.1,0.1,0.1c0,0.1-0.1,0.1-0.2,0.1c-0.7,0-1.6,0-1.6,0c-0.1,0-1,0-1.4,0c-0.2,0-0.2,0-0.2-0.1c0,0,0-0.1,0.1-0.1
				s0.3,0,0.4-0.1c0.3-0.1,0.3-0.3,0.4-0.7c0.1-0.5,0.1-1.5,0.1-2.8v-5.4h-1.9c-0.8,0-1.1,0.1-1.3,0.4c-0.2,0.2-0.2,0.3-0.2,0.4
				s-0.1,0.1-0.1,0.1s-0.1,0-0.1-0.1s0.3-1.3,0.3-1.4s0.1-0.2,0.1-0.2c0.1,0,0.2,0.1,0.6,0.2c0.4,0,0.9,0.1,1,0.1h5
				c0.4,0,0.7,0,0.9-0.1c0.2,0,0.3-0.1,0.4-0.1c0.1,0,0.1,0.1,0.1,0.2c0,0.4,0,1.3,0,1.5c0,0.1-0.1,0.2-0.1,0.2
				c-0.1,0-0.1,0-0.1-0.2V313c0-0.4-0.3-0.7-1.6-0.7h-1.7v5.2H-156.1z"/>
			<path id="XMLID_9178_" class="st2" d="M-145.4,314.2c0-2.3,0-2.8,0-3.2c0-0.5-0.2-0.8-0.6-0.9c-0.1,0-0.4,0-0.5,0s-0.1,0-0.1-0.1
				s0.1-0.1,0.2-0.1c0.3,0,0.8,0,1.1,0h0.6c0.1,0,3.1,0,3.4,0c0.3,0,0.5,0,0.6-0.1c0.1,0,0.1-0.1,0.2-0.1l0.1,0.1
				c0,0.1-0.1,0.3-0.1,0.7c0,0.2,0,0.8-0.1,1c0,0.1,0,0.2-0.1,0.2s-0.1-0.1-0.1-0.2s0-0.4-0.1-0.5c-0.1-0.2-0.3-0.4-1.1-0.5
				c-0.3,0-1.9,0-2.1,0c-0.1,0-0.1,0-0.1,0.2v4.2c0,0.1,0,0.2,0.1,0.2c0.2,0,2,0,2.4,0s0.6-0.1,0.7-0.2c0.1-0.1,0.2-0.2,0.2-0.2
				s0.1,0,0.1,0.1s-0.1,0.3-0.1,0.8c0,0.3-0.1,0.9-0.1,1s0,0.3-0.1,0.3s-0.1-0.1-0.1-0.1c0-0.2,0-0.3-0.1-0.5s-0.2-0.5-0.8-0.5
				c-0.4,0-1.9-0.1-2.2-0.1c-0.1,0-0.1,0-0.1,0.1v1.3c0,0.5,0,2.3,0,2.6c0,1,0.3,1.2,1.7,1.2c0.4,0,1.1,0,1.4-0.2
				c0.4-0.2,0.6-0.5,0.7-1.1c0-0.2,0.1-0.2,0.1-0.2c0.1,0,0.1,0.1,0.1,0.2s-0.1,1.1-0.2,1.5c-0.1,0.4-0.2,0.4-0.8,0.4
				c-1.1,0-2,0-2.5,0c-0.6,0-0.9,0-1.2,0c0,0-0.3,0-0.6,0s-0.6,0-0.9,0c-0.2,0-0.2,0-0.2-0.1c0,0,0-0.1,0.1-0.1s0.3,0,0.5-0.1
				c0.3-0.1,0.4-0.4,0.4-0.8c0.1-0.6,0.1-1.8,0.1-3.3v-2.9H-145.4z"/>
			<path id="XMLID_9175_" class="st2" d="M-136.9,315.2c0-2,0-2.3,0-2.8c0-0.4-0.1-0.6-0.5-0.7c-0.1,0-0.3,0-0.5,0l-0.1-0.1
				c0-0.1,0.1-0.1,0.2-0.1c0.6,0,1.5,0,1.5,0c0.2,0,1,0,1.8,0c1.3,0,3.7-0.1,5.3,1.5c0.7,0.7,1.3,1.7,1.3,3.2c0,1.6-0.7,2.8-1.4,3.6
				c-0.6,0.6-1.8,1.5-4,1.5c-0.6,0-1.3,0-1.8-0.1c-0.6,0-1-0.1-1.1-0.1c0,0-0.3,0-0.5,0c-0.3,0-0.6,0-0.8,0c-0.1,0-0.2,0-0.2-0.1
				c0,0,0-0.1,0.1-0.1s0.3,0,0.4-0.1c0.3-0.1,0.3-0.3,0.3-0.7c0.1-0.5,0.1-1.5,0.1-2.8v-2.1H-136.9z M-135.7,316.6
				c0,1.4,0,2.5,0,2.8s0,0.8,0.2,0.9c0.2,0.2,0.6,0.5,2.2,0.5c1.2,0,2.3-0.4,3.1-1.2c0.7-0.6,1-1.9,1-3c0-1.6-0.7-2.7-1.2-3.2
				c-1.2-1.3-2.7-1.4-4.3-1.4c-0.3,0-0.7,0-0.8,0.1c-0.1,0-0.2,0.1-0.2,0.3V316.6z"/>
			<path id="XMLID_9173_" class="st2" d="M-125.8,315.2c0-2,0-2.3,0-2.8c0-0.4-0.1-0.6-0.5-0.7c-0.1,0-0.3,0-0.5,0l-0.1-0.1
				c0-0.1,0.1-0.1,0.2-0.1c0.6,0,1.4,0,1.5,0s0.9,0,1.3,0c0.2,0,0.2,0,0.2,0.1l-0.1,0.1c-0.1,0-0.2,0-0.3,0
				c-0.3,0.1-0.4,0.3-0.5,0.7c0,0.4,0,0.8,0,2.8v1.8c0,1.8,0.4,2.6,1,3.1c0.6,0.6,1.2,0.7,2,0.7s1.6-0.4,2-0.9
				c0.6-0.7,0.8-1.8,0.8-3.1v-1.6c0-2,0-2.3,0-2.8c0-0.4-0.1-0.6-0.5-0.7c-0.1,0-0.3,0-0.5,0c-0.1,0-0.1-0.1-0.1-0.1
				c0-0.1,0.1-0.1,0.2-0.1c0.6,0,1.4,0,1.4,0c0.1,0,0.7,0,1.1,0c0.2,0,0.2,0,0.2,0.1c0,0,0,0.1-0.1,0.1s-0.2,0-0.3,0
				c-0.4,0.1-0.4,0.3-0.5,0.7c0,0.4,0,0.8,0,2.8v1.4c0,1.4-0.2,2.9-1.2,3.8c-1,0.8-2,0.9-2.8,0.9c-0.4,0-1.8,0-2.8-0.9
				c-0.6-0.6-1.2-1.5-1.2-3.4v-1.8H-125.8z"/>
			<path id="XMLID_9171_" class="st2" d="M-114.4,320c-1.3-1.1-1.6-2.6-1.6-3.8c0-0.9,0.3-2.3,1.5-3.5c0.8-0.8,2-1.4,4-1.4
				c0.5,0,1.3,0,1.9,0.2c0.5,0.1,0.9,0.2,1.4,0.2c0.1,0,0.2,0.1,0.2,0.1c0,0.1,0,0.3-0.1,0.7c0,0.4,0,1.1,0,1.3
				c0,0.2-0.1,0.3-0.2,0.3s-0.1-0.1-0.1-0.3c0-0.5-0.2-1-0.6-1.3c-0.5-0.4-1.4-0.7-2.6-0.7c-1.7,0-2.5,0.5-3,0.9
				c-1,0.9-1.2,2-1.2,3.3c0,2.5,1.9,4.6,4.8,4.6c1,0,1.7-0.1,2.2-0.6c0.3-0.3,0.5-0.8,0.5-1.1c0-0.1,0-0.2,0.1-0.2s0.1,0.1,0.1,0.2
				s-0.2,1.2-0.3,1.6c-0.1,0.2-0.1,0.3-0.3,0.4c-0.5,0.2-1.5,0.3-2.4,0.3C-112,321.3-113.3,320.9-114.4,320z"/>
			<path id="XMLID_9168_" class="st2" d="M-102.2,311.8c0.2-0.4,0.2-0.5,0.3-0.5c0.1,0,0.2,0.2,0.3,0.5c0.2,0.5,2.4,5.8,3.2,7.8
				c0.5,1.1,0.8,1.3,1.1,1.4c0.2,0.1,0.4,0.1,0.5,0.1s0.2,0,0.2,0.1s-0.2,0.1-0.3,0.1c-0.2,0-1.2,0-2.1,0c-0.3,0-0.5,0-0.5-0.1
				s0-0.1,0.1-0.1s0.2-0.1,0.1-0.3l-1.2-2.9c0-0.1,0-0.1-0.1-0.1h-3.1c-0.1,0-0.1,0-0.1,0.1l-0.8,2c-0.1,0.3-0.2,0.6-0.2,0.9
				s0.2,0.3,0.5,0.3h0.1c0.1,0,0.1,0,0.1,0.1s-0.1,0.1-0.2,0.1c-0.3,0-1,0-1.2,0c-0.1,0-0.8,0-1.3,0c-0.2,0-0.3,0-0.3-0.1
				s0.1-0.1,0.1-0.1c0.1,0,0.3,0,0.4,0c0.6-0.1,0.9-0.5,1.1-1.2L-102.2,311.8z M-100.7,317.1L-100.7,317.1l-1.3-3.6
				c-0.1-0.2-0.2-0.2-0.2,0l-1.2,3.5c0,0.1,0,0.1,0,0.1H-100.7z"/>
			<path id="XMLID_9166_" class="st2" d="M-93.3,317.5c0,1.2,0,2.2,0.1,2.8c0,0.4,0.1,0.6,0.5,0.7c0.2,0,0.5,0.1,0.6,0.1
				s0.1,0.1,0.1,0.1c0,0.1-0.1,0.1-0.2,0.1c-0.7,0-1.6,0-1.6,0c-0.1,0-1,0-1.4,0c-0.2,0-0.2,0-0.2-0.1c0,0,0-0.1,0.1-0.1
				s0.3,0,0.4-0.1c0.3-0.1,0.3-0.3,0.4-0.7c0.1-0.5,0.1-1.5,0.1-2.8v-5.4h-1.9c-0.8,0-1.1,0.1-1.3,0.4c-0.2,0.2-0.2,0.3-0.2,0.4
				s-0.1,0.1-0.1,0.1s-0.1,0-0.1-0.1s0.3-1.3,0.3-1.4s0.1-0.2,0.1-0.2c0.1,0,0.2,0.1,0.6,0.2c0.4,0,0.9,0.1,1,0.1h5
				c0.4,0,0.7,0,0.9-0.1c0.2,0,0.3-0.1,0.4-0.1s0.1,0.1,0.1,0.2c0,0.4,0,1.3,0,1.5c0,0.1-0.1,0.2-0.1,0.2s-0.1,0-0.1-0.2V313
				c0-0.4-0.3-0.7-1.6-0.7h-1.7v5.2H-93.3z"/>
			<path id="XMLID_9164_" class="st2" d="M-86.2,317.5c0,1.2,0,2.2,0.1,2.8c0,0.4,0.1,0.6,0.5,0.7c0.2,0,0.5,0.1,0.6,0.1
				s0.1,0.1,0.1,0.1c0,0.1-0.1,0.1-0.2,0.1c-0.7,0-1.6,0-1.7,0s-0.9,0-1.3,0c-0.1,0-0.2,0-0.2-0.1c0,0,0-0.1,0.1-0.1s0.3,0,0.4-0.1
				c0.3-0.1,0.3-0.3,0.3-0.7c0.1-0.5,0.1-1.5,0.1-2.8v-2.3c0-2,0-2.3,0-2.8c0-0.4-0.1-0.6-0.4-0.7c-0.2,0-0.3,0-0.4,0
				s-0.1-0.1-0.1-0.1c0-0.1,0.1-0.1,0.2-0.1c0.4,0,1.3,0,1.3,0c0.1,0,0.9,0,1.3,0c0.2,0,0.2,0,0.2,0.1l-0.1,0.1c-0.1,0-0.2,0-0.3,0
				c-0.4,0.1-0.4,0.3-0.5,0.7c0,0.4,0,0.8,0,2.8V317.5z"/>
			<path id="XMLID_9161_" class="st2" d="M-78.4,311.3c3,0,5.2,1.8,5.2,4.8c0,2.9-2.1,5.2-5.3,5.2c-3.6,0-5.2-2.7-5.2-5
				C-83.6,314.3-82,311.3-78.4,311.3z M-78.1,320.8c1.2,0,3.6-0.6,3.6-4.3c0-3.1-1.9-4.7-4-4.7c-2.2,0-3.8,1.4-3.8,4.2
				C-82.2,319-80.5,320.8-78.1,320.8z"/>
			<path id="XMLID_9159_" class="st2" d="M-70.2,319.4c0,1.1,0.2,1.4,0.5,1.5c0.2,0.1,0.5,0.1,0.7,0.1c0.1,0,0.1,0,0.1,0.1
				s-0.1,0.1-0.2,0.1c-0.8,0-1.3,0-1.4,0s-0.7,0-1.3,0c-0.1,0-0.2,0-0.2-0.1s0-0.1,0.1-0.1s0.3,0,0.5-0.1c0.3-0.1,0.4-0.4,0.4-1.6
				V312c0-0.5,0.1-0.6,0.2-0.6c0.2,0,0.4,0.3,0.5,0.4c0.2,0.2,2.1,2.3,4.2,4.4c1.3,1.4,2.7,2.9,3.1,3.3l-0.1-6.4
				c0-0.8-0.1-1.1-0.5-1.2c-0.2,0-0.5-0.1-0.6-0.1s-0.1-0.1-0.1-0.1c0-0.1,0.1-0.1,0.3-0.1c0.6,0,1.2,0,1.4,0s0.6,0,1.1,0
				c0.1,0,0.2,0,0.2,0.1c0,0-0.1,0.1-0.2,0.1c-0.1,0-0.2,0-0.3,0c-0.4,0.1-0.5,0.3-0.5,1.1v7.5c0,0.8,0,0.9-0.1,0.9s-0.3-0.1-1-0.8
				c-0.1-0.1-2-2-3.4-3.5c-1.5-1.6-3-3.2-3.4-3.6L-70.2,319.4z"/>
			<path id="XMLID_9157_" class="st2" d="M-53.7,314.2c0-2.3,0-2.8,0-3.2c0-0.5-0.2-0.8-0.6-0.9c-0.1,0-0.4,0-0.5,0s-0.1,0-0.1-0.1
				s0.1-0.1,0.2-0.1c0.3,0,0.8,0,1.1,0h0.6c0.1,0,3.1,0,3.4,0c0.3,0,0.5,0,0.6-0.1c0.1,0,0.1-0.1,0.2-0.1l0.1,0.1
				c0,0.1-0.1,0.3-0.1,0.7c0,0.2,0,0.8-0.1,1c0,0.1,0,0.2-0.1,0.2s-0.1-0.1-0.1-0.2s0-0.4-0.1-0.5c-0.1-0.2-0.3-0.4-1.1-0.5
				c-0.3,0-1.9,0-2.1,0c-0.1,0-0.1,0-0.1,0.2v4.2c0,0.1,0,0.2,0.1,0.2c0.2,0,2,0,2.4,0s0.6-0.1,0.7-0.2c0.1-0.1,0.2-0.2,0.2-0.2
				s0.1,0,0.1,0.1s-0.1,0.3-0.1,0.8c0,0.3-0.1,0.9-0.1,1s0,0.3-0.1,0.3s-0.1-0.1-0.1-0.1c0-0.2,0-0.3-0.1-0.5s-0.2-0.5-0.8-0.5
				c-0.4,0-1.9-0.1-2.2-0.1c-0.1,0-0.1,0-0.1,0.1v1.3c0,0.5,0,2.3,0,2.6c0,1,0.3,1.2,1.7,1.2c0.4,0,1.1,0,1.4-0.2
				c0.4-0.2,0.6-0.5,0.7-1.1c0-0.2,0.1-0.2,0.1-0.2c0.1,0,0.1,0.1,0.1,0.2s-0.1,1.1-0.2,1.5c-0.1,0.4-0.2,0.4-0.8,0.4
				c-1.1,0-2,0-2.5,0c-0.6,0-0.9,0-1.2,0c0,0-0.3,0-0.6,0s-0.6,0-0.9,0c-0.2,0-0.2,0-0.2-0.1c0,0,0-0.1,0.1-0.1s0.3,0,0.5-0.1
				c0.3-0.1,0.4-0.4,0.4-0.8c0.1-0.6,0.1-1.8,0.1-3.3v-2.9H-53.7z"/>
			<path id="XMLID_9155_" class="st2" d="M-43,316.2l-2.1-3.4c-0.3-0.5-0.6-0.9-1-1c-0.2-0.1-0.5-0.1-0.6-0.1s-0.1-0.1-0.1-0.1
				c0-0.1,0.1-0.1,0.2-0.1c0.4,0,1.4,0,1.5,0s0.8,0,1.3,0c0.2,0,0.2,0,0.2,0.1s0,0.1-0.1,0.1s-0.3,0-0.4,0c-0.1,0-0.2,0.1-0.2,0.2
				s0.1,0.3,0.1,0.4c0.6,1,1.1,1.9,1.7,3c0.4-0.6,1.8-2.7,1.9-3c0.1-0.2,0.1-0.3,0.1-0.5c0-0.1-0.1-0.2-0.2-0.2c-0.1,0-0.3,0-0.4,0
				s-0.1-0.1-0.1-0.1c0-0.1,0.1-0.1,0.2-0.1c0.5,0,1.1,0,1.2,0c0.1,0,0.7,0,1.1,0c0.2,0,0.2,0,0.2,0.1c0,0,0,0.1-0.1,0.1
				s-0.3,0-0.5,0.1c-0.4,0.1-0.6,0.5-1,1l-2.1,3.1c0.3,0.4,2.5,4.1,2.8,4.5c0.2,0.3,0.4,0.5,0.8,0.6c0.2,0,0.4,0.1,0.5,0.1
				s0.1,0,0.1,0.1s-0.1,0.1-0.2,0.1c-0.8,0-1.4,0-2.2,0c-0.3,0-0.4,0-0.4-0.1c0,0,0-0.1,0.1-0.1s0.2-0.2,0.1-0.4
				c-0.7-1.2-1.4-2.5-2.2-3.8l-2,3.4c-0.1,0.2-0.2,0.4-0.2,0.6c0,0.1,0.1,0.2,0.2,0.2c0.1,0,0.2,0,0.2,0c0.1,0,0.1,0.1,0.1,0.1
				c0,0.1-0.1,0.1-0.2,0.1c-0.3,0-1.2,0-1.3,0s-0.8,0-1.2,0c-0.1,0-0.1,0-0.1-0.1s0-0.1,0.1-0.1s0.3,0,0.5-0.1
				c0.4-0.1,0.7-0.3,1.1-1L-43,316.2z"/>
			<path id="XMLID_9153_" class="st2" d="M-35.9,315.2c0-2,0-2.3,0-2.8c0-0.4-0.1-0.6-0.5-0.7c-0.1,0-0.3,0-0.5,0l-0.1-0.1
				c0-0.1,0.1-0.1,0.2-0.1c0.6,0,1.4,0,1.5,0c0.3,0,1.3,0,1.9,0c1.7,0,2.3,0.5,2.5,0.7c0.3,0.3,0.7,0.8,0.7,1.5
				c0,1.8-1.4,3.1-3.4,3.1c-0.1,0-0.3,0-0.4,0c-0.1,0-0.1-0.1-0.1-0.1c0-0.1,0.1-0.1,0.3-0.1c1.4,0,2.5-0.9,2.5-2.1
				c0-0.4,0-1.2-0.8-1.9c-0.7-0.7-1.5-0.6-1.8-0.6c-0.2,0-0.6,0.1-0.7,0.1c-0.1,0-0.1,0.1-0.1,0.2v5.2c0,1.2,0,2.2,0.1,2.8
				c0,0.4,0.1,0.6,0.5,0.7c0.2,0,0.5,0.1,0.6,0.1s0.1,0.1,0.1,0.1c0,0.1-0.1,0.1-0.2,0.1c-0.7,0-1.6,0-1.7,0c0,0-0.9,0-1.3,0
				c-0.1,0-0.2,0-0.2-0.1c0,0,0-0.1,0.1-0.1s0.3,0,0.4-0.1c0.3-0.1,0.3-0.3,0.3-0.7c0.1-0.5,0.1-1.5,0.1-2.8L-35.9,315.2z"/>
			<path id="XMLID_9151_" class="st2" d="M-27.7,315.2c0-2,0-2.3,0-2.8c0-0.4-0.1-0.6-0.5-0.7c-0.1,0-0.3,0-0.5,0l-0.1-0.1
				c0-0.1,0.1-0.1,0.2-0.1c0.6,0,1.5,0,1.5,0c0.1,0,2.9,0,3.2,0c0.3,0,0.5-0.1,0.6-0.1s0.1-0.1,0.2-0.1l0.1,0.1
				c0,0.1-0.1,0.2-0.1,0.6c0,0.1,0,0.7-0.1,0.8c0,0.1-0.1,0.1-0.1,0.1c-0.1,0-0.1-0.1-0.1-0.2s0-0.3-0.1-0.5s-0.2-0.3-0.9-0.4
				c-0.2,0-1.8,0-1.9,0s-0.1,0-0.1,0.1v3.5c0,0.1,0,0.1,0.1,0.1c0.2,0,1.9,0,2.2,0c0.3,0,0.5,0,0.6-0.2c0.1-0.1,0.2-0.2,0.2-0.2
				s0.1,0,0.1,0.1s-0.1,0.3-0.1,0.7c0,0.3-0.1,0.7-0.1,0.8c0,0.1,0,0.2-0.1,0.2s-0.1,0-0.1-0.1s0-0.3-0.1-0.4c0-0.2-0.2-0.3-0.7-0.4
				c-0.4,0-1.8-0.1-2-0.1c-0.1,0-0.1,0-0.1,0.1v1.1c0,0.4,0,1.9,0,2.2c0,0.9,0.3,1,1.6,1c0.3,0,1,0,1.3-0.1c0.3-0.2,0.5-0.4,0.6-0.9
				c0-0.2,0.1-0.2,0.1-0.2c0.1,0,0.1,0.1,0.1,0.2s-0.1,1-0.2,1.2c-0.1,0.3-0.2,0.3-0.7,0.3c-1,0-1.8,0-2.3,0c-0.6,0-0.9,0-1.1,0
				c0,0-0.3,0-0.6,0c-0.3,0-0.6,0-0.8,0c-0.1,0-0.2,0-0.2-0.1c0,0,0-0.1,0.1-0.1s0.3,0,0.4-0.1c0.3,0,0.3-0.3,0.3-0.7
				c0.1-0.5,0.1-1.5,0.1-2.8v-1.8H-27.7z"/>
			<path id="XMLID_9049_" class="st2" d="M-19.8,315.2c0-2,0-2.3,0-2.8c0-0.4-0.1-0.6-0.5-0.7c-0.1,0-0.3,0-0.5,0l-0.1-0.1
				c0-0.1,0.1-0.1,0.2-0.1c0.6,0,1.5,0,1.6,0s1.2,0,1.7,0c0.8,0,1.8,0.1,2.5,0.6c0.3,0.2,0.9,0.9,0.9,1.7c0,0.9-0.4,1.9-1.6,2.9
				c1.1,1.4,2,2.5,2.8,3.3c0.7,0.7,1.1,0.8,1.5,0.9c0.3,0,0.4,0,0.5,0s0.1,0.1,0.1,0.1c0,0.1-0.1,0.1-0.3,0.1h-0.8
				c-0.8,0-1.1-0.1-1.4-0.3c-0.6-0.3-1.1-0.9-1.8-1.9c-0.6-0.7-1.1-1.5-1.4-1.9c-0.1-0.1-0.1-0.1-0.2-0.1h-1.7c-0.1,0-0.1,0-0.1,0.1
				v0.3c0,1.2,0,2.2,0.1,2.8c0,0.4,0.1,0.6,0.5,0.7c0.2,0,0.5,0.1,0.6,0.1s0.1,0.1,0.1,0.1c0,0.1-0.1,0.1-0.2,0.1
				c-0.7,0-1.6,0-1.6,0s-0.9,0-1.3,0c-0.1,0-0.2,0-0.2-0.1c0,0,0-0.1,0.1-0.1s0.3,0,0.4-0.1c0.3-0.1,0.3-0.3,0.3-0.7
				c0.1-0.5,0.1-1.5,0.1-2.8v-2.1H-19.8z M-18.6,316.3c0,0.1,0,0.1,0.1,0.2c0.2,0.1,0.9,0.2,1.5,0.2c0.3,0,0.7,0,1-0.2
				c0.5-0.3,0.8-1,0.8-2c0-1.6-0.9-2.5-2.3-2.5c-0.4,0-0.8,0-0.9,0.1c-0.1,0-0.1,0.1-0.1,0.2v4H-18.6z"/>
			<path id="XMLID_9047_" class="st2" d="M-7.8,317.5c0,1.2,0,2.2,0.1,2.8c0,0.4,0.1,0.6,0.5,0.7c0.2,0,0.5,0.1,0.6,0.1
				s0.1,0.1,0.1,0.1c0,0.1-0.1,0.1-0.2,0.1c-0.7,0-1.6,0-1.6,0c-0.1,0-1,0-1.4,0c-0.2,0-0.2,0-0.2-0.1c0,0,0-0.1,0.1-0.1
				s0.3,0,0.4-0.1c0.3-0.1,0.3-0.3,0.4-0.7c0.1-0.5,0.1-1.5,0.1-2.8v-5.4h-1.9c-0.8,0-1.1,0.1-1.3,0.4c-0.2,0.2-0.2,0.3-0.2,0.4
				s-0.1,0.1-0.1,0.1s-0.1,0-0.1-0.1s0.3-1.3,0.3-1.4s0.1-0.2,0.1-0.2c0.1,0,0.2,0.1,0.6,0.2c0.4,0,0.9,0.1,1,0.1h5
				c0.4,0,0.7,0,0.9-0.1c0.2,0,0.3-0.1,0.4-0.1s0.1,0.1,0.1,0.2c0,0.4,0,1.3,0,1.5c0,0.1-0.1,0.2-0.1,0.2c-0.1,0-0.1,0-0.1-0.2V313
				c0-0.4-0.3-0.7-1.6-0.7h-1.7v5.2H-7.8z"/>
		</g>
		<path id="XMLID_8472_" class="st0" d="M-222.6,285.4h0.6c0.9,1.2,1.8,2.4,2.5,3.7l-1.2,1.1h0.5v1.6h-1.9v1.8h2.4v1.6h-2.4v5.9
			c0.8-0.2,1.6-0.4,2.3-0.7v1.7c-2,0.6-4.2,1.1-6.6,1.5l-0.2-1.8c1-0.1,1.9-0.2,2.9-0.4v-6.2h-2.6v-1.7h2.6v-1.8h-1.7v-0.9
			c-0.2,0.3-0.4,0.5-0.6,0.7l-0.6-1.8c1.1-1.2,2.2-2.7,3.1-4.4L-222.6,285.4L-222.6,285.4z M-224.9,296.3c0.2,1.2,0.4,2.5,0.6,4.1
			l-1.4,0.3c-0.1-1.4-0.3-2.7-0.5-4L-224.9,296.3z M-224.7,290.2h3.9c-0.7-1.4-1.3-2.4-1.7-3.1
			C-223.2,288.2-223.9,289.2-224.7,290.2z M-221.2,296.3l1.2,0.1c-0.1,1.4-0.2,2.7-0.3,3.7l-1.3-0.4
			C-221.4,298.6-221.2,297.4-221.2,296.3z M-219.5,286.3h4.8v-0.9h1.7v0.9h4.9v1.4h-4.9v0.8h4.1v1.3h-9.5v-1.3h3.8v-0.8h-4.8v-1.4
			H-219.5z M-219.5,296.3h11.7v1.3h-1.6v0.9h1.6v1.3h-1.6v2.6c0,0.5-0.1,0.9-0.4,1.1c-0.3,0.3-0.7,0.4-1.4,0.4h-1.4l-0.3-1.5
			c0.5,0.1,1,0.1,1.4,0.1s0.6-0.1,0.6-0.4v-2.3h-3.4v-1.3h3.4v-0.9h-8.6V296.3z M-219.2,290.4h11.4c-0.2,1.1-0.6,2.2-1,3.3l-1.5-0.5
			v0.4h-2.9v0.8h4.4v1.2h-10.3v-1.2h4.3v-0.8h-3.8v-1.2h8.2v0.6c0.2-0.4,0.4-0.8,0.6-1.3h-9.5v-1.3H-219.2z M-214.8,298.4v5h-1.5
			v-0.9h-1.3v1h-1.4v-5.1H-214.8z M-217.6,301.3h1.3v-1.6h-1.3V301.3z M-213.1,300c0.5,0.6,0.9,1.1,1.2,1.5l-1.2,0.8
			c-0.2-0.5-0.6-1.1-1-1.7L-213.1,300z"/>
		<path id="XMLID_8459_" class="st0" d="M-201.9,290.3h2.1v-4.9h1.8v4.9h1.8v1.8h-1.8v12h-1.8v-12h-2.1V290.3z M-196.4,287.1h5.5
			v-1.8h1.8v1.8h2.7c-0.2-0.4-0.5-0.7-0.8-1.1l1.1-0.7c0.6,0.5,1,1,1.4,1.3l-0.7,0.5h2.4v1.6h-6.1v1h5.2v6.5c0,0.5-0.1,0.9-0.4,1.2
			c-0.2,0.2-0.6,0.3-1,0.3v0.7h2.3v1.5h-2.3v2.4c0,0.6-0.1,1.1-0.4,1.3c-0.3,0.3-0.8,0.4-1.5,0.4h-2.1l-0.3-1.8
			c0.8,0.1,1.4,0.2,1.9,0.2s0.7-0.1,0.7-0.4v-2.2h-5.4c0.6,0.8,1.2,1.5,1.6,2.3l-1.4,1.3c-0.5-0.9-1.1-1.9-2-3l0.7-0.6h-3.6v-1.5h10
			v-0.7h-0.6l-0.3-1.4l2.1,0.1c0.3,0,0.5-0.2,0.5-0.7v-0.1h-3.6v1.7h-1.8v-1.7h-3.1v2h-1.6v-7.9h4.7v-1h-5.5L-196.4,287.1
			L-196.4,287.1z M-194.1,291.9h3.1V291h-3.1V291.9z M-194.1,294.2h3.1v-1h-3.1V294.2z M-189.2,291.1v0.9h3.6v-0.9H-189.2z
			 M-189.2,293.2v1h3.6v-1H-189.2z"/>
		<path id="XMLID_8449_" class="st0" d="M-176.5,287.1h3v-1.6h1.8v1.7h2.6v1.6h-2.6v1.7h1.2c1.1-1.1,2.2-2.4,3.3-3.9l1.5,0.9
			c-0.8,1.1-1.6,2.2-2.4,3h1.3v1.2c0.3-0.5,0.5-1.1,0.7-1.6c0.5-1.2,0.8-2.8,1.1-4.8l1.8,0.2c-0.2,1.1-0.4,2.1-0.6,3h5.2v1.7h-1.2
			c-0.1,3.4-0.7,6.2-1.8,8.3c-0.1,0.2-0.2,0.4-0.3,0.5c0.9,1.3,2,2.4,3.4,3.4l-1.1,1.7c-1.4-1.1-2.5-2.2-3.4-3.4
			c-1,1.2-2.2,2.4-3.8,3.5l-1-1.7c1.6-1,2.9-2.2,3.8-3.4c-0.8-1.5-1.5-3.1-2-5c-0.3,0.5-0.6,1.1-1,1.6l-1.3-1.6
			c0.4-0.6,0.8-1.2,1.1-1.8h-2.7c-0.1,0.1-0.3,0.2-0.4,0.3c-0.5,0.5-1.1,0.9-1.7,1.4h3.5v1.6c-0.7,0.7-1.5,1.3-2.4,2v0.3
			c1.3-0.1,2.4-0.3,3.5-0.5v1.6c-0.9,0.2-2.1,0.4-3.5,0.5v2.7c0,0.5-0.1,0.9-0.4,1.2c-0.3,0.4-0.7,0.6-1.1,0.6h-2.7l-0.4-1.9
			c0.7,0.1,1.4,0.1,2.2,0.1c0.4,0,0.5-0.2,0.5-0.5v-2c-1.3,0.1-2.8,0.2-4.4,0.4l-0.2-1.9c1.7,0,3.2-0.1,4.6-0.2v-1.2
			c0.6-0.3,1.3-0.7,1.9-1.3h-3.6c-0.7,0.5-1.5,0.9-2.3,1.4l-1-1.6c1.8-0.8,3.5-1.8,5.2-3.1h-4.9v-1.7h3.7v-1.7h-3v-1.7H-176.5z
			 M-164.6,291.6c0.5,2.2,1.1,4.1,1.9,5.6c0.8-1.7,1.2-4.1,1.3-7h-2.8c-0.1,0.2-0.1,0.4-0.2,0.6C-164.4,291-164.5,291.3-164.6,291.6
			z"/>
		<path id="XMLID_7162_" class="st0" d="M-143.1,285.1c0.3,0.5,0.6,1,0.9,1.6h8.4v1.8h-4.9c1.9,1.2,3.3,2.3,4.4,3.2l-1.8,1.2
			c-0.4-0.5-1-1-1.5-1.5c-3.1,0.4-7.8,0.7-14,1l-0.5-1.8c1.2,0,2.3,0,3.4,0c0.7-0.7,1.2-1.3,1.6-2h-5.5v-1.8h8.3
			c-0.3-0.5-0.6-0.9-0.9-1.3L-143.1,285.1z M-136.1,292.9v8.9c0,0.7-0.2,1.2-0.5,1.5s-0.8,0.5-1.3,0.5h-2.9l-0.4-1.9l2.6,0.2
			c0.4,0,0.7-0.3,0.7-0.8v-0.6h-10.2v3.3h-2v-11h14V292.9z M-148.3,296.1h10.2v-1.5h-10.2V296.1z M-148.3,299h10.2v-1.4h-10.2V299z
			 M-139.3,290c-0.4-0.3-0.8-0.6-1.2-0.9l1-0.6h-5.4c-0.4,0.7-0.9,1.4-1.6,2C-143.6,290.4-141.2,290.2-139.3,290z"/>
	</g>
</g>
</svg>
