<?xml version="1.0" encoding="utf-8"?>
<!-- Generator: Adobe Illustrator 19.0.0, SVG Export Plug-In . SVG Version: 6.00 Build 0)  -->
<svg version="1.1" id="Layer_1" xmlns="http://www.w3.org/2000/svg" xmlns:xlink="http://www.w3.org/1999/xlink" x="0px" y="0px"
	 viewBox="-270 271.6 300 53.7" style="enable-background:new -270 271.6 300 53.7;" xml:space="preserve">
<style type="text/css">
	.st0{fill:#0F6FAF;}
	.st1{fill:#C1332B;}
	.st2{fill:#202121;}
	.st3{fill:#635D59;}
</style>
<g id="XMLID_14531_">
	<g id="XMLID_15005_">
		<polygon id="XMLID_15030_" class="st0" points="-245.5,311.4 -255.8,311.4 -241.9,325.2 -241.9,314.9 		"/>
		<g id="XMLID_15027_">
			<polygon class="st1" points="-236.9,311.4 -240.4,314.9 -240.4,325.2 -226.6,311.4 			"/>
		</g>
		<g id="XMLID_15024_">
			<polygon class="st1" points="-246.9,297.5 -231.5,282 -231.5,271.6 -257.3,297.5 			"/>
		</g>
		<polygon id="XMLID_15023_" class="st0" points="-225.1,297.5 -230.1,292.4 -240.4,292.4 -235.4,297.5 		"/>
		<g id="XMLID_15006_">
			<g id="XMLID_15016_">
				<path id="XMLID_15021_" class="st1" d="M-265.4,303.1l0.4-1.4h4.8h0.2l0.1-0.2l0.6-2l0.1-0.4h-0.4h-7h-0.2l-0.1,0.2l-2.9,10
					l-0.1,0.4h0.4h2h0.2l0.1-0.2l1.1-3.8h2.8h0.2l0.1-0.2l0.6-2l0.1-0.4h-0.4H-265.4z"/>
				<path id="XMLID_15019_" class="st1" d="M-258.2,299.1h-0.2l-0.1,0.2l-2.9,10l-0.1,0.4h0.4h2h0.2l0.1-0.2l3-10l0.1-0.4h-0.4
					H-258.2z"/>
				<path id="XMLID_15017_" class="st1" d="M-246.7,299.1h-8h-0.2l-0.1,0.2l-0.6,2l-0.1,0.4h0.4h2.6l-2.2,7.6l-0.1,0.4h0.4h2h0.2
					l0.1-0.2l2.3-7.8h2.8h0.2l0.1-0.2l0.6-2l0.1-0.4H-246.7z"/>
			</g>
			<g id="XMLID_15007_">
				<path id="XMLID_15014_" class="st2" d="M-236.7,299.1h-0.4h-2h-0.2l-0.1,0.2l-1.7,5.6l-1.6-5.6l-0.1-0.2h-0.2h-2.2h-0.2
					l-0.1,0.2l-3,10l-0.1,0.4h0.4h2h0.2l0.1-0.2l1.7-5.6l1.6,5.6l0.1,0.2h0.2h2.1h0.2l0.1-0.2l3-10L-236.7,299.1z"/>
				<path id="XMLID_15012_" class="st2" d="M-235.6,307.1l0.4-1.4h3.1h0.2l0.1-0.2l0.6-2l0.1-0.4h-0.4h-2.9l0.4-1.4h4.6h0.2l0.1-0.2
					l0.6-2l0.1-0.4h-0.4h-6.9h-0.2l-0.1,0.2l-3,10l-0.1,0.4h0.4h6.9h0.2l0.1-0.2l0.6-2l0.1-0.4h-0.4H-235.6z"/>
				<path id="XMLID_15010_" class="st2" d="M-222.3,304.1c-0.2-0.3-0.5-0.6-0.8-0.8c-0.3-0.2-0.7-0.3-1.1-0.3h-1.8
					c-0.1,0-0.1,0-0.2,0c0,0-0.1-0.1-0.1-0.1c0,0,0-0.1-0.1-0.2c0-0.1,0-0.2,0-0.3c0-0.1,0.1-0.2,0.1-0.3c0.1-0.1,0.1-0.2,0.2-0.3
					c0.1-0.1,0.2-0.1,0.3-0.2c0.1,0,0.2-0.1,0.3-0.1h4.1h0.2l0.1-0.2l0.6-2l0.1-0.4h-0.4h-4.1c-0.4,0-0.8,0.1-1.2,0.3
					c-0.4,0.2-0.8,0.4-1.1,0.7c-0.3,0.3-0.7,0.6-0.9,1c-0.3,0.4-0.5,0.8-0.6,1.3c-0.1,0.5-0.2,0.9-0.1,1.3c0,0.4,0.2,0.8,0.3,1.1
					c0.2,0.3,0.5,0.6,0.8,0.8c0.3,0.2,0.7,0.3,1.1,0.3h1.8c0.1,0,0.1,0,0.2,0c0,0,0.1,0.1,0.1,0.1c0,0.1,0,0.1,0.1,0.2
					c0,0.1,0,0.2,0,0.3c0,0.1-0.1,0.2-0.1,0.3c-0.1,0.1-0.1,0.2-0.2,0.3c-0.1,0.1-0.2,0.1-0.3,0.2c-0.1,0-0.2,0.1-0.3,0.1h-4h-0.2
					l-0.1,0.2l-0.6,2l-0.1,0.4h0.4h4c0.4,0,0.8-0.1,1.2-0.3c0.4-0.2,0.8-0.4,1.1-0.7c0.3-0.3,0.7-0.6,0.9-1c0.3-0.4,0.5-0.8,0.6-1.3
					c0.1-0.4,0.2-0.9,0.2-1.3C-222,304.8-222.1,304.4-222.3,304.1z"/>
				<path id="XMLID_15008_" class="st2" d="M-212.1,299.1h-4.1c-0.4,0-0.8,0.1-1.2,0.3c-0.4,0.2-0.8,0.4-1.1,0.7
					c-0.3,0.3-0.7,0.6-0.9,1c-0.3,0.4-0.5,0.8-0.6,1.3c-0.1,0.5-0.2,0.9-0.2,1.3c0,0.4,0.1,0.8,0.3,1.1c0.2,0.3,0.5,0.6,0.8,0.8
					c0.3,0.2,0.7,0.3,1.1,0.3h1.8c0.1,0,0.1,0,0.2,0c0,0,0.1,0.1,0.1,0.1c0,0,0,0.1,0.1,0.2c0,0.1,0,0.2,0,0.3
					c0,0.1-0.1,0.2-0.1,0.3c-0.1,0.1-0.1,0.2-0.2,0.3c-0.1,0.1-0.2,0.1-0.3,0.2c-0.1,0-0.2,0.1-0.3,0.1h-4h-0.2l-0.1,0.2l-0.6,2
					l-0.1,0.4h0.4h4c0.4,0,0.8-0.1,1.2-0.3c0.4-0.2,0.8-0.4,1.1-0.7c0.3-0.3,0.7-0.6,0.9-1c0.3-0.4,0.5-0.8,0.6-1.3
					c0.1-0.4,0.2-0.9,0.2-1.3c0-0.4-0.1-0.8-0.3-1.1c-0.2-0.3-0.5-0.6-0.8-0.8c-0.3-0.2-0.7-0.3-1.1-0.3h-1.8c-0.1,0-0.1,0-0.2,0
					c0,0-0.1-0.1-0.1-0.1c0,0,0-0.1-0.1-0.2c0-0.1,0-0.2,0-0.3c0-0.1,0.1-0.2,0.1-0.3c0.1-0.1,0.1-0.2,0.2-0.3
					c0.1-0.1,0.2-0.1,0.3-0.2c0.1,0,0.2-0.1,0.3-0.1h4.1h0.2l0.1-0.2l0.6-2l0.1-0.4H-212.1z"/>
			</g>
		</g>
	</g>
	<g id="XMLID_14601_">
		<path id="XMLID_14994_" class="st1" d="M-195.7,298.8c-2.1,0.7-4.3,1.2-6.6,1.6l-0.2-1.8l1.6-0.2c0.5-0.1,0.9-0.2,1.3-0.3v-6.3
			h-2.7v-1.6h2.7v-1.8h-1.7v-0.8l-0.6,0.6l-0.7-1.9c1.5-1.3,2.6-2.8,3.2-4.4h1.4c1,1.1,1.9,2.3,2.7,3.8l-1.4,1.1l-0.9-1.8
			c-0.2-0.3-0.4-0.6-0.6-0.9c-0.1-0.1-0.2-0.2-0.3-0.4c-0.1,0.2-0.2,0.4-0.3,0.5c-0.5,0.9-1.1,1.7-1.8,2.6h4.5v1.6h-1.9v1.8h2.4v1.6
			h-2.4v6l1.2-0.3c0.3-0.1,0.7-0.2,1.1-0.4L-195.7,298.8z M-201.6,297.5c-0.1-1.6-0.2-2.9-0.5-4.1l1.3-0.2c0.2,0.7,0.4,1.9,0.6,3.6
			c0,0.1,0,0.2,0,0.4L-201.6,297.5z M-195.8,293.2l-0.1,1.7c-0.1,0.8-0.2,1.4-0.2,1.9l-1.3-0.2c0-0.1,0-0.2,0-0.3
			c0.2-1.2,0.3-1.9,0.3-2.3s0-0.6,0-0.8L-195.8,293.2z M-188.6,282.1v1h5v1.4h-5v0.8h4.1v1.3h-9.9v-1.3h4v-0.8h-5V283h5v-1H-188.6z
			 M-185.1,296.7v1.8v0.2c0,0.8-0.2,1.3-0.5,1.7c-0.3,0.3-0.9,0.5-1.7,0.5h-1l-0.4-1.5l1.4,0c0.4,0,0.7-0.2,0.7-0.6v-2.1h-3.4v-1.3
			h3.4v-0.9h-8.7v-1.4h11.8v1.4h-1.5v0.9h1.5v1.3H-185.1z M-186,290c0.3-0.4,0.5-0.9,0.6-1.4c0,0,0-0.1,0-0.1h-9.8v-1.4h11.6
			c0,1.2-0.3,2.3-0.9,3.4L-186,290z M-186.5,289.2v1.2h-2.7v0.8h4.6v1.3H-195v-1.3h4.1v-0.8h-3.5v-1.2H-186.5z M-194.9,295.3h4.3
			v5.2h-1.5v-0.8h-1.3v1.1h-1.5V295.3z M-192,296.5h-1.3v1.8h1.3V296.5z M-188.9,299.2c-0.1-0.3-0.3-0.6-0.5-0.9l-0.6-0.8l1.1-0.6
			c0.2,0.2,0.4,0.5,0.6,0.7l0.6,0.9L-188.9,299.2z"/>
		<path id="XMLID_14987_" class="st1" d="M-177.8,288.9V287h2.1v-5h1.8v5h1.6v1.8h-1.6V301h-1.8v-12.2H-177.8z M-165,282.1v1.8h2.9
			c-0.1-0.1-0.1-0.1-0.1-0.2c-0.1-0.1-0.2-0.2-0.3-0.3l-0.6-0.6l1.3-0.7l0.7,0.6c0.1,0.1,0.3,0.3,0.5,0.6l0.1,0.1l-1.1,0.5h2.7v1.6
			h-6.2v0.8h5.3v6v0.5c0,0.6-0.1,1-0.3,1.2c-0.2,0.2-0.6,0.4-1.2,0.5v0.6h2.4v1.7h-2.4v2v0.4c0,1.1-0.6,1.7-1.8,1.7h-2.1l-0.5-1.8
			l2,0.1c0.4,0,0.6-0.2,0.6-0.6v-1.9h-5.9c0.1,0.1,0.2,0.2,0.3,0.3c0.2,0.2,0.5,0.4,0.7,0.7l1.2,1.3l-1.5,1.3
			c-0.6-0.8-1.2-1.5-1.9-2.2l-0.3-0.3l1.3-1h-3.5V295h9.6v-0.6h-0.6l-0.4-1.4l2,0c0.2,0,0.4,0,0.4-0.1c0.1,0,0.1-0.2,0.1-0.5v-0.3
			h-3.6v1.7h-1.7v-1.7h-3.1v2.1h-1.7v-8.1h4.8v-0.8h-5.4v-1.6h5.4v-1.8H-165z M-166.7,288.7v-0.9h-3.1v0.9H-166.7z M-166.7,291v-1
			h-3.1v1H-166.7z M-161.4,288.7v-0.9h-3.6v0.9H-161.4z M-161.4,291v-1h-3.6v1H-161.4z"/>
		<path id="XMLID_14982_" class="st1" d="M-137.8,294c-0.1-0.1-0.2-0.1-0.3-0.2c-0.6,0.6-1.4,1.3-2.4,2c-0.1,0-0.2,0.1-0.3,0.2
			l-1.2-1.5c0.8-0.3,1.6-0.9,2.3-1.5l0.3-0.3c-0.1-0.1-0.2-0.2-0.3-0.3c-0.3-0.3-0.4-0.5-0.5-0.6l-0.7-1h-5l-0.7,1
			c-0.2,0.2-0.4,0.5-0.7,0.7l-0.2,0.2c0.1,0.1,0.3,0.2,0.4,0.2c0.3,0.2,0.5,0.3,0.8,0.5l1.3,1l-1.3,1.4l-1.3-1.1
			c-0.3-0.3-0.7-0.6-1.2-0.9c-0.1,0.1-0.2,0.2-0.3,0.2c-0.6,0.5-1,0.8-1.3,0.9l-1.7,1l-1.1-1.8l0.8-0.4c1.7-0.9,3.1-2,4-3.1h-4.5
			v-1.6h5.6l0.4-0.6l0.3-0.5h-4.7v-1.5h5.4l0.2-0.6l0.2-0.5h-6.5v-1.6h6.9l0.2-0.8l0.2-0.9l1.8,0.2l-0.1,0.7l-0.2,0.7h7.9v1.6h-8.3
			l-0.2,0.6l-0.2,0.5h7.9v1.5h-8.5l-0.3,0.6l-0.3,0.6h10.7v1.6h-4.5c1,1.2,2.6,2.3,4.7,3.4l-1,1.8C-136,295.3-137,294.7-137.8,294z
			 M-145.4,297.4c-1.4,0.8-3.1,1.6-5.1,2.2c-0.3,0.1-0.7,0.2-1.2,0.4l-0.9-1.8c2.9-0.8,5.2-1.6,6.9-2.5L-145.4,297.4z M-144.1,291.7
			h1.8v6.8v0.3c0,0.7-0.1,1.2-0.4,1.6c-0.3,0.3-0.9,0.5-1.9,0.5h-1.8l-0.5-1.9l2.1,0.1c0.5,0,0.7-0.2,0.7-0.6V291.7z M-135.5,300.3
			c-1.1-0.6-2.1-1.2-3-1.5l-2.9-1.3l1-1.3c1.8,0.6,3.6,1.3,5.3,2.2c0.2,0.1,0.4,0.2,0.6,0.3L-135.5,300.3z"/>
		<path id="XMLID_14977_" class="st1" d="M-124.2,292.2c-0.2,0.1-0.3,0.2-0.4,0.2c-0.8,0.5-1.7,0.9-2.7,1.3l-0.9-1.6
			c1.8-0.6,3.3-1.4,4.6-2.3h-4.1v-1.5h5.3c0.2-0.2,0.3-0.3,0.5-0.6l0.4-0.6h-5.2v-1.5h5.9c0.1-0.1,0.1-0.2,0.1-0.3
			c0.3-0.5,0.5-1,0.7-1.5l0.7-1.8l1.9,0.1l-0.6,1.7c-0.2,0.7-0.5,1.3-0.7,1.7h8.1v1.5h-8.9l-0.3,0.6c0,0.1-0.1,0.2-0.3,0.4l-0.1,0.2
			h10.6v1.5h-4.2c1.2,1,2.7,1.8,4.6,2.4l-0.7,1.7l-1.7-0.7c-0.7-0.3-1.3-0.6-1.6-0.9c-0.7,0.2-2,0.3-3.9,0.4c-0.1,0-0.3,0-0.4,0v1.2
			h6.3v1.5h-6.3v1.2h8v1.5h-8v0.9c0,0.7-0.1,1.2-0.3,1.4c-0.2,0.2-0.4,0.4-0.7,0.5c-0.3,0.1-0.7,0.2-1.4,0.2h-2.5l-0.5-1.7l2.7,0.1
			c0.4,0,0.7-0.2,0.7-0.6V298h-8.5v-1.5h8.5v-1.2h-6.6v-1.5h6.6v-1.1l-2.4,0h-2.2L-124.2,292.2z M-123.4,285.5
			c-0.3-0.4-0.8-0.8-1.2-1.2l-1.2-1l1.3-1l1.2,0.9l1.3,1.1L-123.4,285.5z M-118.9,291.1c1.8,0,3.1-0.1,4-0.2l-0.7-0.6l-0.7-0.6h-5
			c-0.1,0.1-0.2,0.2-0.2,0.3c-0.6,0.7-1,1.1-1.2,1.1h0C-121.9,291.1-120.6,291.1-118.9,291.1z M-112.3,283c-0.7,1.1-1.5,1.9-2.3,2.6
			l-1.6-0.9c0.9-0.7,1.6-1.4,2-2l0.2-0.3L-112.3,283z"/>
		<path id="XMLID_14679_" class="st1" d="M-103.5,289.6c1-1.4,1.7-2.7,2.1-3.7c0.4-1,0.9-2.3,1.3-3.8l1.7,0.5
			c-0.1,0.2-0.1,0.4-0.2,0.6c-0.1,0.5-0.2,1-0.4,1.3l-0.7,2V301h-1.8v-11.2l-0.7,1.1l-0.6,0.9L-103.5,289.6z M-97.3,296.8
			c-0.6-0.9-1-1.9-1.4-3c0-0.1-0.1-0.3-0.2-0.5l1.5-0.7l0.3,1c0.1,0.3,0.2,0.6,0.4,1c0,0.1,0.1,0.1,0.1,0.2c0.3-0.8,0.5-2,0.6-3.6
			h-2.6v-1.7c0.9-1.2,1.7-2.5,2.3-4.1h-2.2v-1.7h4.2v1.6c-0.7,1.6-1.4,3.1-2.2,4.3h2.3v1.2c-0.1,2.4-0.4,4.4-1.1,5.9
			c0.8,0.9,1.7,1.6,2.7,1.9c1,0.3,2.7,0.5,5.1,0.5c1.2,0,2.1,0,2.8-0.1l-0.4,1.9l-4.5,0c-2.9,0-5.1-0.8-6.6-2.4l-1,1.4
			c-0.4,0.6-0.8,1.1-1.2,1.4l-1.4-1.4C-98.4,298.4-97.7,297.5-97.3,296.8z M-88.9,283.5h3.4v3h1v1.6h-1v3.1h-3.4v1.2h4v1.6h-4v1.3
			h4.4v1.6h-4.4v1.3h-1.6v-1.3h-3.7v-1.6h3.7v-1.3h-3.1v-1.6h3.1v-1.2H-93v-1.6h2.5V288h-3.6v-1.6h3.6v-1.4H-93v-1.6h2.5v-1.4h1.6
			V283.5z M-87,286.4v-1.4h-1.8v1.4H-87z M-87,289.5V288h-1.8v1.5H-87z"/>
		<path id="XMLID_14655_" class="st1" d="M-71.4,283.9c0.1-0.1,0.1-0.2,0.1-0.2c0.3-0.5,0.5-1,0.7-1.4l0.1-0.2l2.2,0.2
			c-0.1,0.1-0.1,0.2-0.1,0.3c-0.2,0.7-0.5,1.1-0.7,1.4h6.5v7.1c0.1-0.1,0.2-0.2,0.3-0.3c0.4-0.5,0.9-1.1,1.3-1.7
			c0.1-0.1,0.2-0.3,0.3-0.5l1,1.7c-0.6,0.9-1.5,2-2.8,3.3v5.1v0.3c0,1.4-0.7,2.1-2,2.1h-3.1l-0.5-1.9l2.8,0.1c0.5,0,0.7-0.2,0.7-0.6
			v-3.3c-2,1.7-4.5,3.1-7.6,4.1c-3.1,1-4.9,1.5-5.5,1.5l-1-1.8l1.2-0.2c4.5-0.9,8.3-2.3,11.3-4.3c-2.1,0.4-4.2,0.6-6.3,0.6
			c-1.7,0-3.7,0.1-5.8,0.4l-0.4-1.9h1.2c0.5,0,0.9,0,1.1,0v-9.4H-71.4z M-74.4,286.9h9.7v-1.2h-9.7V286.9z M-74.4,289.9h9.7v-1.4
			h-9.7V289.9z M-74.4,293.3l4.5-0.3c1.7,0,3.5-0.2,5.2-0.5v-1h-9.7V293.3z"/>
		<path id="XMLID_14646_" class="st1" d="M-54,290.6c1.8-2.2,3.1-5.1,4.1-8.5l1.8,0.7c-0.1,0.3-0.2,0.9-0.6,1.9
			c-0.3,1-0.6,1.7-0.8,2.1V301h-2v-10.9c-0.3,0.7-0.8,1.5-1.5,2.4c0,0.1-0.1,0.1-0.2,0.2L-54,290.6z M-36.5,283v11.9h1.6v1.6h-13.6
			v-1.6h1.5V283H-36.5z M-42.6,298c-1,1.2-2.5,2.1-4.6,3l-1.3-1.4l0.5-0.2c1.5-0.7,2.9-1.5,4-2.4L-42.6,298z M-38.5,284.6h-6.7v1.3
			h6.7V284.6z M-45.2,288.8h6.7v-1.5h-6.7V288.8z M-38.5,290.2h-6.7v1.6h6.7V290.2z M-38.5,293.3h-6.7v1.6h6.7V293.3z M-36.7,301
			c-0.8-0.6-1.5-1.2-2.3-1.7l-2-1.3l1.3-1.2c1.2,0.6,2.6,1.5,4.3,2.6L-36.7,301z"/>
		<path id="XMLID_14639_" class="st1" d="M-18.8,292.9v1.1h8.4v1.6h-6.5c1.6,1.3,3.8,2.2,6.6,2.8l-0.8,1.8c-2-0.6-3.5-1.2-4.6-1.9
			c-1.1-0.7-2.2-1.6-3.1-2.7v5.4h-1.8v-5.3c-0.9,1-1.8,1.8-3,2.5c-1.1,0.7-2.7,1.4-4.8,2l-0.9-1.7c2.7-0.6,5-1.6,6.7-2.9h-6.5V294
			h8.5v-1.1H-18.8z M-28.3,287.9l-0.2-1.5h0.4c0,0,0.1,0,0.1,0c0,0,0.1,0,0.1,0c0,0,0.3-0.4,0.7-1.2c0.4-0.8,0.8-1.8,1.1-2.8
			l1.7,0.3c-0.1,0.2-0.2,0.4-0.2,0.6c-0.5,1.3-1,2.4-1.6,3.2l0.6,0l0.8,0l0.4-0.8l0.4-0.9l1.4,0.7c-1.1,2.1-2.3,4-3.8,5.5l1.1-0.1
			c0.4,0,0.7,0,0.8-0.1l-0.1-0.8l-0.1-0.5l1.4-0.2c0.1,0.4,0.2,0.9,0.3,1.6l0.3,2l-1.5,0.2l-0.1-0.5c0-0.2,0-0.3,0-0.4
			c-0.5,0.1-1.2,0.2-1.9,0.2l-2.2,0.1l-0.3-1.6l0.6,0c0.9-1,1.8-2.1,2.5-3.1c-0.6,0.1-1.1,0.2-1.5,0.2L-28.3,287.9z M-22.3,292.5
			v-8.6h1.6c0-0.1,0.1-0.2,0.1-0.2c0.1-0.3,0.2-0.5,0.3-0.6l0.3-1l1.8,0.2l-0.3,0.9c-0.1,0.2-0.2,0.4-0.3,0.6l-0.1,0.1h2.1v8.6
			H-22.3z M-18.3,285.4h-2.4v1.9h2.4V285.4z M-20.7,291h2.4v-2.3h-2.4V291z M-16.3,288l-0.2-1.5h0.3h0.2c0.7-1.3,1.3-2.5,1.6-3.6
			c0-0.2,0.1-0.3,0.2-0.6l1.7,0.3c-0.5,1.5-1.2,2.8-1.9,3.9l0.6,0l0.9,0l0.4-0.8l0.4-0.9l1.4,0.8c-1.1,2.2-2.3,4-3.6,5.5l1.1-0.1
			c0.3,0,0.6,0,0.8-0.1c0-0.3-0.1-0.6-0.2-0.8l-0.2-0.5l1.4-0.3c0,0.1,0.1,0.2,0.1,0.3c0.2,0.7,0.4,1.1,0.4,1.3l0.5,1.9l-1.6,0.3
			l-0.1-0.5l-0.1-0.4c-0.6,0.1-1.3,0.2-2,0.2l-2.2,0.1l-0.3-1.6l0.6,0l1.3-1.6c0.3-0.4,0.6-0.7,0.8-1.1c0.1-0.1,0.2-0.3,0.3-0.5
			l-1.5,0.1L-16.3,288z"/>
		<path id="XMLID_14602_" class="st1" d="M-4.4,291.6v-1.8h2.7c-0.5-1.5-1-2.5-1.4-3.1l1.9-0.5c0.4,0.7,0.8,1.7,1.2,3
			c0,0.2,0.1,0.3,0.2,0.6h1.8c0.5-1.1,1-2.3,1.4-3.6l1.8,0.7l-0.5,1.4c-0.1,0.3-0.2,0.6-0.4,1c-0.1,0.1-0.1,0.3-0.2,0.5h2.6v1.8
			H-4.4z M-4.1,285.8v-1.7h4.4l-0.5-0.9c-0.2-0.4-0.4-0.7-0.6-0.9l2-0.2c0.2,0.3,0.4,0.7,0.6,1.1l0.5,1h4.1v1.7H-4.1z M-3.5,293.2
			h8.9v7.9H3.5v-1.2h-5.2v1.2h-1.8V293.2z M3.5,294.9h-5.2v3.2h5.2V294.9z M14.3,284.4c-0.5,1.8-1.2,3.8-2.1,6
			c1.4,2,2.2,3.8,2.2,5.4c0,1.1-0.3,1.9-0.8,2.5c-0.5,0.6-1.4,0.8-2.7,0.8h-0.5c0,0-0.1,0-0.2,0l-0.6-2c0.3,0.1,0.7,0.1,1.2,0.1
			c1.2,0,1.7-0.5,1.7-1.4c0-1.3-0.8-3.1-2.3-5.4c0.7-1.7,1.1-2.7,1.2-3l0.9-2.7H9.1V301H7.2v-18.1h7.1V284.4z"/>
	</g>
	<g id="XMLID_14532_">
		<path id="XMLID_14597_" class="st3" d="M-201.2,311.2c0-0.6,0-1.1,0-1.4c0-0.4,0-0.7,0-0.9c0-0.2,0-0.4,0-0.6c0-0.1,0-0.3,0-0.4
			c0-0.3-0.1-0.5-0.2-0.6c-0.1-0.1-0.2-0.2-0.5-0.3c-0.1,0-0.1,0-0.2,0c-0.1,0-0.2,0-0.3,0c-0.1,0-0.1,0-0.1-0.1
			c0-0.1,0.1-0.1,0.2-0.1c0.2,0,0.4,0,0.5,0c0.2,0,0.4,0,0.5,0c0.2,0,0.3,0,0.4,0c0.1,0,0.2,0,0.2,0c0.2,0,0.4,0,0.7,0
			c0.3,0,0.6,0,1,0c0.6,0,1.1,0.1,1.5,0.2c0.4,0.2,0.7,0.4,0.9,0.6c0.2,0.2,0.4,0.5,0.5,0.7c0.1,0.3,0.1,0.5,0.1,0.7
			c0,0.3,0,0.6-0.1,0.8c-0.1,0.3-0.2,0.5-0.3,0.7c-0.1,0.2-0.3,0.4-0.5,0.6c-0.2,0.2-0.3,0.4-0.5,0.6c0.3,0.1,0.6,0.2,0.9,0.4
			c0.3,0.2,0.6,0.4,0.8,0.7c0.3,0.3,0.5,0.6,0.6,0.9c0.2,0.4,0.2,0.8,0.2,1.2c0,0.4-0.1,0.8-0.2,1.2c-0.2,0.4-0.4,0.7-0.7,1.1
			c-0.3,0.3-0.7,0.6-1.2,0.8c-0.5,0.2-1,0.3-1.7,0.3c-0.1,0-0.2,0-0.4,0c-0.2,0-0.4,0-0.6,0c-0.2,0-0.4,0-0.6,0c-0.2,0-0.3,0-0.3,0
			c0,0-0.1,0-0.2,0c-0.1,0-0.2,0-0.4,0c-0.2,0-0.3,0-0.5,0c-0.2,0-0.3,0-0.4,0c-0.2,0-0.2,0-0.2-0.1c0-0.1,0-0.1,0.1-0.1
			c0.1,0,0.1,0,0.2,0c0.1,0,0.2,0,0.2,0c0.2,0,0.3-0.1,0.3-0.3c0.1-0.2,0.1-0.3,0.1-0.6c0-0.3,0.1-0.8,0.1-1.3c0-0.6,0-1.2,0-1.9
			V311.2z M-200,311.5c0,0.1,0,0.1,0.1,0.2c0.1,0,0.1,0,0.3,0c0.1,0,0.4,0,0.6,0c0.2,0,0.4,0,0.5,0c0.1,0,0.3,0,0.4-0.1
			c0.1,0,0.2-0.1,0.3-0.1c0.1-0.1,0.2-0.1,0.2-0.2c0.2-0.2,0.3-0.4,0.4-0.7c0.1-0.3,0.2-0.5,0.2-0.9c0-0.3,0-0.6-0.1-0.9
			c-0.1-0.3-0.2-0.6-0.4-0.8c-0.2-0.2-0.4-0.4-0.6-0.6c-0.3-0.2-0.6-0.2-0.9-0.2c-0.1,0-0.2,0-0.3,0c-0.1,0-0.3,0-0.4,0.1
			c-0.1,0-0.2,0.1-0.2,0.2V311.5z M-200,313.1c0,0.3,0,0.6,0,1c0,0.4,0,0.7,0,1c0,0.3,0,0.6,0,0.8c0,0.2,0,0.4,0,0.4
			c0,0.2,0,0.3,0,0.5c0,0.1,0,0.2,0.1,0.3c0,0.1,0.1,0.2,0.1,0.2c0.1,0.1,0.2,0.1,0.3,0.2c0.1,0.1,0.2,0.1,0.3,0.1
			c0.1,0,0.3,0.1,0.4,0.1c0.1,0,0.2,0,0.3,0c0.1,0,0.2,0,0.3,0c0.2,0,0.4,0,0.7-0.1c0.2-0.1,0.5-0.2,0.7-0.3
			c0.2-0.2,0.4-0.4,0.5-0.7c0.1-0.3,0.2-0.6,0.2-1c0-0.2,0-0.5-0.1-0.7c0-0.3-0.1-0.5-0.2-0.8c-0.1-0.3-0.3-0.5-0.4-0.8
			c-0.2-0.3-0.4-0.5-0.7-0.7c-0.3-0.2-0.5-0.3-0.7-0.3c-0.2-0.1-0.4-0.1-0.6-0.1c-0.1,0-0.1,0-0.2,0c-0.1,0-0.2,0-0.3,0
			c-0.1,0-0.2,0-0.3,0c-0.1,0-0.2,0-0.3,0c-0.1,0-0.1,0-0.1,0.1V313.1z"/>
		<path id="XMLID_14594_" class="st3" d="M-191.7,312.2c0-0.5,0-0.9,0-1.2c0-0.3,0-0.6,0-0.8c0-0.2,0-0.4,0-0.5c0-0.1,0-0.2,0-0.3
			c0-0.2-0.1-0.4-0.1-0.5c-0.1-0.1-0.2-0.2-0.4-0.2c-0.1,0-0.1,0-0.2,0c-0.1,0-0.2,0-0.2,0c-0.1,0-0.1,0-0.1-0.1
			c0-0.1,0.1-0.1,0.2-0.1c0.2,0,0.3,0,0.5,0c0.2,0,0.3,0,0.5,0s0.3,0,0.4,0c0.1,0,0.2,0,0.2,0c0,0,0.1,0,0.3,0c0.1,0,0.3,0,0.5,0
			c0.2,0,0.3,0,0.5,0c0.2,0,0.3,0,0.4,0c0.4,0,0.9,0,1.3,0.1c0.4,0.1,0.8,0.2,1.2,0.5c0.1,0.1,0.2,0.1,0.3,0.2
			c0.1,0.1,0.2,0.2,0.3,0.4c0.1,0.2,0.2,0.3,0.2,0.5c0.1,0.2,0.1,0.4,0.1,0.6c0,0.5-0.1,0.9-0.4,1.4c-0.2,0.5-0.7,1-1.3,1.5
			c0.5,0.7,1,1.3,1.5,1.9c0.5,0.6,0.9,1,1.3,1.4c0.4,0.4,0.6,0.6,0.9,0.7c0.2,0.1,0.4,0.2,0.6,0.2c0.1,0,0.2,0,0.3,0
			c0.1,0,0.1,0,0.2,0c0.1,0,0.1,0,0.1,0.1c0,0,0,0.1-0.1,0.1c0,0-0.1,0-0.2,0h-0.8c-0.4,0-0.7,0-0.9-0.1c-0.2,0-0.4-0.1-0.6-0.2
			c-0.3-0.2-0.6-0.4-0.8-0.7c-0.3-0.3-0.6-0.7-1-1.2c-0.1-0.2-0.3-0.3-0.4-0.5c-0.1-0.2-0.3-0.4-0.4-0.5c-0.1-0.2-0.2-0.3-0.3-0.5
			c-0.1-0.1-0.2-0.3-0.3-0.3c-0.1-0.1-0.1-0.1-0.2-0.1l-1.7,0c-0.1,0-0.1,0-0.1,0.1v0.3c0,0.6,0,1.2,0,1.7c0,0.5,0,0.8,0.1,1.1
			c0,0.2,0.1,0.3,0.1,0.5c0.1,0.1,0.2,0.2,0.4,0.2c0.1,0,0.2,0,0.3,0c0.1,0,0.2,0,0.3,0c0.1,0,0.1,0,0.1,0.1c0,0.1-0.1,0.1-0.2,0.1
			c-0.2,0-0.4,0-0.6,0c-0.2,0-0.4,0-0.5,0c-0.2,0-0.3,0-0.4,0c-0.1,0-0.2,0-0.2,0c-0.2,0-0.4,0-0.5,0c-0.1,0-0.3,0-0.4,0
			c-0.2,0-0.3,0-0.4,0c-0.1,0-0.2,0-0.2-0.1c0-0.1,0-0.1,0.1-0.1c0.1,0,0.1,0,0.2,0c0.1,0,0.1,0,0.2,0c0.1,0,0.2-0.1,0.2-0.2
			c0-0.1,0.1-0.3,0.1-0.5c0-0.3,0.1-0.6,0.1-1.1c0-0.5,0-1,0-1.7V312.2z M-190.6,313.3c0,0.1,0,0.1,0.1,0.2c0.1,0,0.1,0.1,0.2,0.1
			c0.1,0,0.2,0,0.4,0.1c0.1,0,0.3,0,0.4,0c0.2,0,0.3,0,0.5,0c0.2,0,0.3,0,0.5,0c0.2,0,0.3-0.1,0.5-0.2c0.2-0.2,0.4-0.4,0.6-0.7
			c0.2-0.3,0.2-0.7,0.2-1.2c0-0.8-0.2-1.4-0.6-1.9c-0.4-0.4-1-0.7-1.7-0.7c-0.2,0-0.4,0-0.6,0c-0.2,0-0.3,0-0.4,0.1
			c-0.1,0-0.1,0.1-0.1,0.2V313.3z"/>
		<path id="XMLID_14592_" class="st3" d="M-180.8,314.5c0,0.6,0,1.2,0,1.7c0,0.5,0,0.9,0.1,1.1c0,0.2,0.1,0.3,0.1,0.5
			c0.1,0.1,0.2,0.2,0.4,0.2c0.1,0,0.2,0,0.3,0c0.1,0,0.2,0,0.3,0c0.1,0,0.1,0,0.1,0.1c0,0.1-0.1,0.1-0.2,0.1c-0.2,0-0.4,0-0.6,0
			c-0.2,0-0.4,0-0.5,0c-0.2,0-0.3,0-0.4,0c-0.1,0-0.2,0-0.2,0c0,0-0.1,0-0.2,0c-0.1,0-0.2,0-0.4,0c-0.1,0-0.3,0-0.4,0
			c-0.1,0-0.3,0-0.4,0c-0.1,0-0.2,0-0.2-0.1c0-0.1,0-0.1,0.1-0.1c0.1,0,0.1,0,0.2,0c0.1,0,0.1,0,0.2,0c0.1,0,0.2-0.1,0.3-0.2
			c0-0.1,0.1-0.3,0.1-0.5c0-0.3,0.1-0.6,0.1-1.1c0-0.5,0-1,0-1.7v-2.3c0-0.5,0-0.9,0-1.2c0-0.3,0-0.6,0-0.8c0-0.2,0-0.4,0-0.5
			c0-0.1,0-0.2,0-0.3c0-0.2-0.1-0.4-0.1-0.5c-0.1-0.1-0.2-0.2-0.3-0.2c-0.1,0-0.2,0-0.2,0c-0.1,0-0.1,0-0.2,0c-0.1,0-0.1,0-0.1-0.1
			c0-0.1,0.1-0.1,0.2-0.1c0.1,0,0.2,0,0.4,0c0.1,0,0.3,0,0.4,0c0.1,0,0.3,0,0.4,0c0.1,0,0.2,0,0.2,0c0,0,0.1,0,0.2,0
			c0.1,0,0.2,0,0.4,0c0.1,0,0.3,0,0.4,0c0.1,0,0.3,0,0.4,0c0.1,0,0.2,0,0.2,0.1c0,0.1,0,0.1-0.1,0.1c-0.1,0-0.1,0-0.2,0
			c0,0-0.1,0-0.2,0c-0.2,0-0.3,0.1-0.4,0.2c-0.1,0.1-0.1,0.3-0.1,0.5c0,0.1,0,0.2,0,0.3c0,0.1,0,0.3,0,0.5c0,0.2,0,0.4,0,0.8
			c0,0.3,0,0.7,0,1.2V314.5z"/>
		<path id="XMLID_14590_" class="st3" d="M-175.5,314.5c0,0.5,0,0.9,0,1.2c0,0.3,0,0.6,0,0.8c0,0.2,0,0.4,0.1,0.5
			c0,0.1,0.1,0.2,0.1,0.3c0.1,0.1,0.3,0.2,0.6,0.2c0.3,0,0.7,0.1,1.2,0.1c0.4,0,0.7,0,0.9-0.1c0.3,0,0.5-0.1,0.7-0.3
			c0.1-0.1,0.1-0.2,0.2-0.3c0.1-0.1,0.1-0.3,0.1-0.4c0-0.1,0.1-0.2,0.1-0.2c0.1,0,0.1,0.1,0.1,0.2c0,0,0,0.1,0,0.2
			c0,0.1,0,0.2,0,0.3c0,0.1,0,0.3-0.1,0.4c0,0.1,0,0.2-0.1,0.3c0,0.1,0,0.1-0.1,0.2c0,0-0.1,0.1-0.1,0.1c-0.1,0-0.1,0-0.2,0
			c-0.1,0-0.2,0-0.4,0c-0.9,0-1.7,0-2.3,0c-0.3,0-0.6,0-0.8,0c-0.2,0-0.4,0-0.6,0c0,0-0.1,0-0.2,0s-0.2,0-0.3,0c-0.1,0-0.3,0-0.4,0
			c-0.1,0-0.3,0-0.4,0c-0.1,0-0.2,0-0.2-0.1c0-0.1,0-0.1,0.1-0.1c0.1,0,0.1,0,0.2,0c0.1,0,0.1,0,0.2,0c0.1,0,0.2-0.1,0.2-0.2
			c0-0.1,0.1-0.3,0.1-0.5c0-0.3,0.1-0.6,0.1-1.1c0-0.5,0-1,0-1.7v-2.3c0-0.5,0-0.9,0-1.2c0-0.3,0-0.6,0-0.8c0-0.2,0-0.4,0-0.5
			c0-0.1,0-0.2,0-0.3c0-0.2-0.1-0.4-0.1-0.5c-0.1-0.1-0.2-0.2-0.4-0.2c-0.1,0-0.1,0-0.2,0c-0.1,0-0.2,0-0.2,0c-0.1,0-0.1,0-0.1-0.1
			c0-0.1,0.1-0.1,0.2-0.1c0.2,0,0.3,0,0.5,0c0.2,0,0.3,0,0.5,0c0.2,0,0.3,0,0.4,0c0.1,0,0.2,0,0.2,0c0,0,0.1,0,0.2,0
			c0.1,0,0.3,0,0.4,0c0.2,0,0.3,0,0.5,0c0.2,0,0.3,0,0.4,0c0.1,0,0.2,0,0.2,0.1c0,0.1,0,0.1-0.1,0.1c-0.1,0-0.1,0-0.2,0
			c-0.1,0-0.2,0-0.2,0c-0.2,0-0.3,0.1-0.4,0.2c-0.1,0.1-0.1,0.3-0.1,0.5c0,0.1,0,0.2,0,0.3c0,0.1,0,0.3,0,0.5c0,0.2,0,0.4,0,0.8
			c0,0.3,0,0.7,0,1.2V314.5z"/>
		<path id="XMLID_14588_" class="st3" d="M-167.9,314.5c0,0.5,0,0.9,0,1.2c0,0.3,0,0.6,0,0.8c0,0.2,0,0.4,0.1,0.5
			c0,0.1,0.1,0.2,0.1,0.3c0.1,0.1,0.3,0.2,0.6,0.2c0.3,0,0.7,0.1,1.2,0.1c0.4,0,0.7,0,0.9-0.1c0.3,0,0.5-0.1,0.7-0.3
			c0.1-0.1,0.1-0.2,0.2-0.3c0.1-0.1,0.1-0.3,0.1-0.4c0-0.1,0.1-0.2,0.1-0.2c0.1,0,0.1,0.1,0.1,0.2c0,0,0,0.1,0,0.2
			c0,0.1,0,0.2,0,0.3c0,0.1,0,0.3-0.1,0.4c0,0.1,0,0.2-0.1,0.3c0,0.1,0,0.1-0.1,0.2c0,0-0.1,0.1-0.1,0.1c-0.1,0-0.1,0-0.2,0
			c-0.1,0-0.2,0-0.4,0c-0.9,0-1.7,0-2.3,0c-0.3,0-0.6,0-0.8,0c-0.2,0-0.4,0-0.6,0c0,0-0.1,0-0.2,0c-0.1,0-0.2,0-0.3,0
			c-0.1,0-0.3,0-0.4,0c-0.1,0-0.3,0-0.4,0c-0.1,0-0.2,0-0.2-0.1c0-0.1,0-0.1,0.1-0.1c0.1,0,0.1,0,0.2,0c0.1,0,0.1,0,0.2,0
			c0.1,0,0.2-0.1,0.2-0.2c0-0.1,0.1-0.3,0.1-0.5c0-0.3,0.1-0.6,0.1-1.1c0-0.5,0-1,0-1.7v-2.3c0-0.5,0-0.9,0-1.2c0-0.3,0-0.6,0-0.8
			c0-0.2,0-0.4,0-0.5c0-0.1,0-0.2,0-0.3c0-0.2-0.1-0.4-0.1-0.5c-0.1-0.1-0.2-0.2-0.4-0.2c-0.1,0-0.1,0-0.2,0c-0.1,0-0.2,0-0.2,0
			c-0.1,0-0.1,0-0.1-0.1c0-0.1,0.1-0.1,0.2-0.1c0.2,0,0.3,0,0.5,0c0.2,0,0.3,0,0.5,0c0.2,0,0.3,0,0.4,0c0.1,0,0.2,0,0.2,0
			c0,0,0.1,0,0.2,0c0.1,0,0.3,0,0.4,0s0.3,0,0.5,0c0.2,0,0.3,0,0.4,0c0.1,0,0.2,0,0.2,0.1c0,0.1,0,0.1-0.1,0.1c-0.1,0-0.1,0-0.2,0
			c-0.1,0-0.2,0-0.2,0c-0.2,0-0.3,0.1-0.4,0.2c-0.1,0.1-0.1,0.3-0.1,0.5c0,0.1,0,0.2,0,0.3c0,0.1,0,0.3,0,0.5c0,0.2,0,0.4,0,0.8
			c0,0.3,0,0.7,0,1.2V314.5z"/>
		<path id="XMLID_14586_" class="st3" d="M-160.2,314.5c0,0.6,0,1.2,0,1.7c0,0.5,0,0.9,0.1,1.1c0,0.2,0.1,0.3,0.1,0.5
			c0.1,0.1,0.2,0.2,0.4,0.2c0.1,0,0.2,0,0.3,0c0.1,0,0.2,0,0.3,0c0.1,0,0.1,0,0.1,0.1c0,0.1-0.1,0.1-0.2,0.1c-0.2,0-0.4,0-0.6,0
			c-0.2,0-0.4,0-0.5,0c-0.2,0-0.3,0-0.4,0c-0.1,0-0.2,0-0.2,0c0,0-0.1,0-0.2,0c-0.1,0-0.2,0-0.4,0c-0.1,0-0.3,0-0.4,0
			c-0.1,0-0.3,0-0.4,0c-0.1,0-0.2,0-0.2-0.1c0-0.1,0-0.1,0.1-0.1c0.1,0,0.1,0,0.2,0c0.1,0,0.1,0,0.2,0c0.1,0,0.2-0.1,0.3-0.2
			c0-0.1,0.1-0.3,0.1-0.5c0-0.3,0.1-0.6,0.1-1.1c0-0.5,0-1,0-1.7v-2.3c0-0.5,0-0.9,0-1.2c0-0.3,0-0.6,0-0.8c0-0.2,0-0.4,0-0.5
			c0-0.1,0-0.2,0-0.3c0-0.2-0.1-0.4-0.1-0.5c-0.1-0.1-0.2-0.2-0.3-0.2c-0.1,0-0.2,0-0.2,0c-0.1,0-0.1,0-0.2,0c-0.1,0-0.1,0-0.1-0.1
			c0-0.1,0.1-0.1,0.2-0.1c0.1,0,0.2,0,0.4,0c0.1,0,0.3,0,0.4,0c0.1,0,0.3,0,0.4,0c0.1,0,0.2,0,0.2,0c0,0,0.1,0,0.2,0
			c0.1,0,0.2,0,0.4,0c0.1,0,0.3,0,0.4,0c0.1,0,0.3,0,0.4,0c0.1,0,0.2,0,0.2,0.1c0,0.1,0,0.1-0.1,0.1c-0.1,0-0.1,0-0.2,0
			c0,0-0.1,0-0.2,0c-0.2,0-0.3,0.1-0.4,0.2c-0.1,0.1-0.1,0.3-0.1,0.5c0,0.1,0,0.2,0,0.3c0,0.1,0,0.3,0,0.5c0,0.2,0,0.4,0,0.8
			c0,0.3,0,0.7,0,1.2V314.5z"/>
		<path id="XMLID_14583_" class="st3" d="M-153.8,308.8c0.1-0.2,0.1-0.3,0.2-0.4c0-0.1,0.1-0.1,0.1-0.1c0.1,0,0.1,0,0.2,0.1
			c0,0.1,0.1,0.2,0.2,0.3c0,0.1,0.1,0.3,0.3,0.6c0.1,0.3,0.3,0.7,0.5,1.2c0.2,0.5,0.4,1,0.6,1.5c0.2,0.6,0.5,1.1,0.7,1.7
			c0.2,0.5,0.4,1.1,0.6,1.5c0.2,0.5,0.4,0.9,0.5,1.2c0.1,0.3,0.2,0.5,0.3,0.7c0.1,0.2,0.2,0.3,0.3,0.4c0.1,0.1,0.2,0.2,0.3,0.2
			c0.1,0,0.2,0.1,0.2,0.1c0.1,0,0.2,0.1,0.3,0.1c0.1,0,0.2,0,0.2,0c0,0,0.1,0,0.1,0c0,0,0.1,0,0.1,0.1c0,0,0,0.1-0.1,0.1
			c-0.1,0-0.1,0-0.2,0c-0.1,0-0.1,0-0.3,0c-0.1,0-0.3,0-0.5,0c-0.2,0-0.4,0-0.6,0c-0.2,0-0.5,0-0.7,0c-0.1,0-0.2,0-0.3,0
			c-0.1,0-0.1,0-0.1-0.1c0,0,0,0,0-0.1c0,0,0,0,0.1,0c0,0,0.1-0.1,0.1-0.1c0-0.1,0-0.1,0-0.2l-1.2-2.9c0-0.1-0.1-0.1-0.1-0.1h-3.1
			c-0.1,0-0.1,0-0.1,0.1l-0.8,2.1c-0.1,0.3-0.2,0.6-0.2,0.9c0,0.1,0,0.2,0.1,0.3c0.1,0.1,0.2,0.1,0.3,0.1h0.1c0.1,0,0.1,0,0.1,0.1
			c0,0.1-0.1,0.1-0.2,0.1c-0.1,0-0.2,0-0.3,0c-0.1,0-0.2,0-0.4,0c-0.1,0-0.2,0-0.3,0c-0.1,0-0.2,0-0.2,0c0,0-0.1,0-0.2,0
			c-0.1,0-0.2,0-0.3,0c-0.1,0-0.3,0-0.4,0c-0.1,0-0.3,0-0.4,0c-0.2,0-0.3,0-0.3-0.1c0-0.1,0-0.1,0.1-0.1c0.1,0,0.1,0,0.2,0
			c0.1,0,0.1,0,0.2,0c0.3,0,0.5-0.2,0.7-0.4c0.2-0.2,0.3-0.5,0.4-0.8L-153.8,308.8z M-152.3,314.1
			C-152.3,314.1-152.3,314.1-152.3,314.1l-1.3-3.6c-0.1-0.2-0.2-0.2-0.2,0l-1.2,3.5c0,0.1,0,0.1,0,0.1H-152.3z"/>
		<path id="XMLID_14581_" class="st3" d="M-146.2,316.5c0,0.3,0,0.5,0,0.7c0,0.2,0.1,0.3,0.1,0.4c0,0.1,0.1,0.2,0.2,0.3
			c0.1,0.1,0.1,0.1,0.2,0.1c0.1,0,0.2,0.1,0.4,0.1c0.1,0,0.2,0,0.3,0c0.1,0,0.1,0,0.1,0.1c0,0.1-0.1,0.1-0.2,0.1c-0.4,0-0.7,0-0.9,0
			c-0.2,0-0.4,0-0.5,0c-0.1,0-0.2,0-0.5,0c-0.2,0-0.5,0-0.8,0c-0.1,0-0.2,0-0.2-0.1c0-0.1,0-0.1,0.1-0.1c0.1,0,0.1,0,0.2,0
			c0.1,0,0.2,0,0.3-0.1c0.1,0,0.1-0.1,0.2-0.1c0.1-0.1,0.1-0.2,0.1-0.3c0-0.1,0-0.3,0.1-0.5c0-0.2,0-0.4,0-0.7V309
			c0-0.3,0-0.4,0.1-0.5c0-0.1,0.1-0.1,0.1-0.1c0.1,0,0.2,0,0.3,0.1c0.1,0.1,0.2,0.2,0.2,0.2c0.1,0.1,0.2,0.2,0.5,0.5
			c0.3,0.3,0.6,0.6,1,1c0.4,0.4,0.8,0.9,1.3,1.4c0.5,0.5,1,1,1.5,1.5c0.3,0.3,0.7,0.7,1,1c0.3,0.3,0.6,0.7,0.9,1
			c0.3,0.3,0.5,0.6,0.8,0.8c0.2,0.2,0.4,0.4,0.5,0.5l-0.1-6.4c0-0.4,0-0.7-0.1-0.9c-0.1-0.2-0.2-0.3-0.4-0.3c-0.1,0-0.2,0-0.4,0
			c-0.1,0-0.2,0-0.3,0c-0.1,0-0.1,0-0.1,0c0,0,0-0.1,0-0.1c0-0.1,0.1-0.1,0.3-0.1c0.3,0,0.6,0,0.9,0c0.3,0,0.4,0,0.5,0
			c0.1,0,0.2,0,0.4,0c0.2,0,0.4,0,0.7,0c0.2,0,0.2,0,0.2,0.1c0,0,0,0,0,0.1c0,0-0.1,0-0.1,0c0,0-0.1,0-0.1,0c-0.1,0-0.1,0-0.2,0
			c-0.1,0-0.2,0.1-0.3,0.1c-0.1,0.1-0.1,0.1-0.1,0.2c0,0.1-0.1,0.2-0.1,0.3c0,0.1,0,0.3,0,0.5l0,7.5c0,0.2,0,0.4,0,0.5
			c0,0.1,0,0.2,0,0.3c0,0.1,0,0.1,0,0.1c0,0,0,0-0.1,0c0,0-0.1,0-0.1,0c0,0-0.1-0.1-0.2-0.1c-0.1-0.1-0.2-0.1-0.3-0.2
			c-0.1-0.1-0.3-0.2-0.4-0.4c0,0-0.2-0.2-0.4-0.4c-0.2-0.2-0.5-0.5-0.9-0.8c-0.3-0.3-0.7-0.7-1.1-1.1c-0.4-0.4-0.8-0.8-1.1-1.1
			c-0.4-0.4-0.8-0.8-1.1-1.2c-0.4-0.4-0.7-0.7-1-1.1c-0.3-0.3-0.6-0.6-0.8-0.9c-0.2-0.2-0.4-0.4-0.5-0.5L-146.2,316.5z"/>
		<path id="XMLID_14579_" class="st3" d="M-131.7,314.5c0,0.6,0,1.2,0,1.7c0,0.5,0,0.9,0.1,1.1c0,0.2,0.1,0.3,0.1,0.5
			c0.1,0.1,0.2,0.2,0.4,0.2c0.1,0,0.2,0,0.3,0c0.1,0,0.2,0,0.3,0c0.1,0,0.1,0,0.1,0.1c0,0.1-0.1,0.1-0.2,0.1c-0.2,0-0.4,0-0.6,0
			c-0.2,0-0.4,0-0.5,0c-0.2,0-0.3,0-0.4,0c-0.1,0-0.2,0-0.2,0c0,0-0.1,0-0.2,0c-0.1,0-0.2,0-0.4,0c-0.1,0-0.3,0-0.4,0
			c-0.1,0-0.3,0-0.4,0c-0.1,0-0.2,0-0.2-0.1c0-0.1,0-0.1,0.1-0.1c0.1,0,0.1,0,0.2,0c0.1,0,0.1,0,0.2,0c0.1,0,0.2-0.1,0.3-0.2
			c0.1-0.1,0.1-0.3,0.1-0.5c0-0.3,0-0.6,0.1-1.1c0-0.5,0-1,0-1.7v-5.4l-1.9,0c-0.4,0-0.7,0-0.9,0.1c-0.2,0.1-0.3,0.2-0.4,0.3
			c-0.1,0.1-0.1,0.2-0.2,0.2c0,0.1,0,0.1-0.1,0.2c0,0.1-0.1,0.1-0.1,0.1c0,0,0,0-0.1,0c0,0,0,0,0-0.1c0,0,0-0.1,0-0.3
			c0-0.1,0.1-0.3,0.1-0.4c0-0.2,0.1-0.3,0.1-0.4c0-0.1,0-0.2,0-0.2c0,0,0-0.1,0.1-0.2c0-0.1,0-0.1,0.1-0.1c0.1,0,0.1,0,0.2,0.1
			c0.1,0,0.2,0.1,0.4,0.1c0.2,0,0.4,0,0.6,0c0.2,0,0.4,0,0.4,0h5c0.2,0,0.4,0,0.6,0c0.2,0,0.3,0,0.4,0c0.1,0,0.2,0,0.2,0
			c0.1,0,0.1,0,0.1,0c0,0,0.1,0.1,0.1,0.2c0,0.1,0,0.2,0,0.4c0,0.2,0,0.3,0,0.4c0,0.1,0,0.3,0,0.4c0,0.1,0,0.2,0,0.2
			c0,0.1,0,0.2-0.1,0.2c0,0-0.1,0-0.1,0c0,0,0-0.1,0-0.2l0-0.1c0-0.1,0-0.2-0.1-0.3c-0.1-0.1-0.1-0.2-0.2-0.2
			c-0.1-0.1-0.3-0.1-0.5-0.2c-0.2,0-0.5-0.1-0.8-0.1l-1.7,0V314.5z"/>
		<path id="XMLID_14577_" class="st3" d="M-120.9,311.2c0-0.6,0-1.1,0-1.4c0-0.4,0-0.7,0-0.9c0-0.2,0-0.4,0-0.6c0-0.1,0-0.3,0-0.4
			c0-0.3-0.1-0.5-0.2-0.6c-0.1-0.1-0.2-0.2-0.5-0.3c-0.1,0-0.1,0-0.2,0c-0.1,0-0.2,0-0.3,0c-0.1,0-0.1,0-0.1-0.1
			c0-0.1,0.1-0.1,0.2-0.1c0.2,0,0.4,0,0.5,0c0.2,0,0.4,0,0.5,0l0.6,0c0.1,0,0.2,0,0.3,0c0.2,0,0.4,0,0.7,0c0.3,0,0.5,0,0.8,0
			c0.3,0,0.6,0,0.8,0c0.3,0,0.5,0,0.7,0c0.2,0,0.3,0,0.4,0c0.1,0,0.3,0,0.4,0c0.1,0,0.2,0,0.3,0c0.1,0,0.1,0,0.1-0.1
			c0,0,0.1,0,0.1,0c0.1,0,0.1,0,0.1,0.1c0,0.1,0,0.1,0,0.2c0,0.1-0.1,0.3-0.1,0.5c0,0,0,0.1,0,0.2c0,0.1,0,0.2,0,0.3
			c0,0.1,0,0.2,0,0.3c0,0.1,0,0.2,0,0.2c0,0,0,0.1,0,0.1c0,0,0,0.1-0.1,0.1c-0.1,0-0.1-0.1-0.1-0.2c0-0.1,0-0.1,0-0.3
			c0-0.1-0.1-0.2-0.1-0.3c-0.1-0.1-0.2-0.2-0.3-0.3c-0.2-0.1-0.4-0.2-0.7-0.2l-2.3,0c-0.1,0-0.1,0.1-0.1,0.2v4.2
			c0,0.1,0,0.1,0.1,0.1l1.9,0c0.1,0,0.2,0,0.3,0c0.1,0,0.2,0,0.3,0c0.2,0,0.3,0,0.4-0.1c0.1,0,0.2-0.1,0.3-0.2c0,0,0.1-0.1,0.1-0.1
			c0,0,0.1,0,0.1,0c0.1,0,0.1,0,0.1,0.1c0,0.1,0,0.1,0,0.3c0,0.1-0.1,0.3-0.1,0.6c0,0.1,0,0.2,0,0.3c0,0.1,0,0.2,0,0.3
			c0,0.1,0,0.2,0,0.3c0,0.1,0,0.1,0,0.2c0,0.1,0,0.1,0,0.2c0,0.1,0,0.1-0.1,0.1c-0.1,0-0.1,0-0.1-0.1c0-0.1,0-0.2,0-0.3
			c0-0.1,0-0.2-0.1-0.3c0-0.1-0.1-0.2-0.2-0.3c-0.1-0.1-0.3-0.2-0.5-0.2c-0.1,0-0.2,0-0.5,0c-0.2,0-0.5,0-0.7,0c-0.2,0-0.5,0-0.7,0
			c-0.2,0-0.3,0-0.4,0c-0.1,0-0.1,0-0.1,0.1v1.3c0,0.7,0,1.4,0,1.9c0,0.6,0,1,0.1,1.3c0,0.2,0.1,0.4,0.1,0.6
			c0.1,0.2,0.2,0.2,0.5,0.3c0.1,0,0.2,0,0.4,0c0.1,0,0.2,0,0.3,0c0.1,0,0.1,0,0.1,0.1c0,0.1-0.1,0.1-0.2,0.1c-0.2,0-0.4,0-0.6,0
			c-0.2,0-0.4,0-0.6,0c-0.2,0-0.3,0-0.4,0c-0.1,0-0.2,0-0.2,0c0,0-0.1,0-0.2,0c-0.1,0-0.2,0-0.4,0c-0.2,0-0.3,0-0.5,0
			c-0.2,0-0.3,0-0.4,0c-0.2,0-0.2,0-0.2-0.1c0-0.1,0-0.1,0.1-0.1c0.1,0,0.1,0,0.2,0c0.1,0,0.2,0,0.2,0c0.2,0,0.3-0.1,0.3-0.3
			c0.1-0.2,0.1-0.3,0.1-0.6c0-0.3,0.1-0.8,0.1-1.3c0-0.6,0-1.2,0-1.9V311.2z"/>
		<path id="XMLID_14575_" class="st3" d="M-111.3,314.5c0,0.6,0,1.2,0,1.7c0,0.5,0,0.9,0.1,1.1c0,0.2,0.1,0.3,0.1,0.5
			c0.1,0.1,0.2,0.2,0.4,0.2c0.1,0,0.2,0,0.3,0c0.1,0,0.2,0,0.3,0c0.1,0,0.1,0,0.1,0.1c0,0.1-0.1,0.1-0.2,0.1c-0.2,0-0.4,0-0.6,0
			c-0.2,0-0.4,0-0.5,0c-0.2,0-0.3,0-0.4,0c-0.1,0-0.2,0-0.2,0c0,0-0.1,0-0.2,0c-0.1,0-0.2,0-0.4,0c-0.1,0-0.3,0-0.4,0
			c-0.1,0-0.3,0-0.4,0c-0.1,0-0.2,0-0.2-0.1c0-0.1,0-0.1,0.1-0.1c0.1,0,0.1,0,0.2,0c0.1,0,0.1,0,0.2,0c0.1,0,0.2-0.1,0.3-0.2
			c0-0.1,0.1-0.3,0.1-0.5c0-0.3,0.1-0.6,0.1-1.1c0-0.5,0-1,0-1.7v-2.3c0-0.5,0-0.9,0-1.2c0-0.3,0-0.6,0-0.8c0-0.2,0-0.4,0-0.5
			c0-0.1,0-0.2,0-0.3c0-0.2-0.1-0.4-0.1-0.5c-0.1-0.1-0.2-0.2-0.3-0.2c-0.1,0-0.2,0-0.2,0c-0.1,0-0.1,0-0.2,0c-0.1,0-0.1,0-0.1-0.1
			c0-0.1,0.1-0.1,0.2-0.1c0.1,0,0.2,0,0.4,0c0.1,0,0.3,0,0.4,0c0.1,0,0.3,0,0.4,0c0.1,0,0.2,0,0.2,0c0,0,0.1,0,0.2,0
			c0.1,0,0.2,0,0.4,0c0.1,0,0.3,0,0.4,0c0.1,0,0.3,0,0.4,0c0.1,0,0.2,0,0.2,0.1c0,0.1,0,0.1-0.1,0.1c-0.1,0-0.1,0-0.2,0
			c0,0-0.1,0-0.2,0c-0.2,0-0.3,0.1-0.4,0.2c-0.1,0.1-0.1,0.3-0.1,0.5c0,0.1,0,0.2,0,0.3c0,0.1,0,0.3,0,0.5c0,0.2,0,0.4,0,0.8
			c0,0.3,0,0.7,0,1.2V314.5z"/>
		<path id="XMLID_14573_" class="st3" d="M-104.3,314.5c0,0.6,0,1.2,0,1.7c0,0.5,0,0.9,0.1,1.1c0,0.2,0.1,0.3,0.1,0.5
			c0.1,0.1,0.2,0.2,0.4,0.2c0.1,0,0.2,0,0.3,0c0.1,0,0.2,0,0.3,0c0.1,0,0.1,0,0.1,0.1c0,0.1-0.1,0.1-0.2,0.1c-0.2,0-0.4,0-0.6,0
			c-0.2,0-0.4,0-0.5,0c-0.2,0-0.3,0-0.4,0c-0.1,0-0.2,0-0.2,0c0,0-0.1,0-0.2,0c-0.1,0-0.2,0-0.4,0c-0.1,0-0.3,0-0.4,0
			c-0.1,0-0.3,0-0.4,0c-0.1,0-0.2,0-0.2-0.1c0-0.1,0-0.1,0.1-0.1c0.1,0,0.1,0,0.2,0c0.1,0,0.1,0,0.2,0c0.1,0,0.2-0.1,0.3-0.2
			c0.1-0.1,0.1-0.3,0.1-0.5c0-0.3,0-0.6,0.1-1.1c0-0.5,0-1,0-1.7v-5.4l-1.9,0c-0.4,0-0.7,0-0.9,0.1c-0.2,0.1-0.3,0.2-0.4,0.3
			c-0.1,0.1-0.1,0.2-0.2,0.2c0,0.1,0,0.1-0.1,0.2c0,0.1-0.1,0.1-0.1,0.1c0,0,0,0-0.1,0c0,0,0,0,0-0.1c0,0,0-0.1,0-0.3
			c0-0.1,0.1-0.3,0.1-0.4c0-0.2,0.1-0.3,0.1-0.4c0-0.1,0-0.2,0-0.2c0,0,0-0.1,0.1-0.2c0-0.1,0-0.1,0.1-0.1c0.1,0,0.1,0,0.2,0.1
			c0.1,0,0.2,0.1,0.4,0.1c0.2,0,0.4,0,0.6,0c0.2,0,0.4,0,0.4,0h5c0.2,0,0.4,0,0.6,0c0.2,0,0.3,0,0.4,0c0.1,0,0.2,0,0.2,0
			c0.1,0,0.1,0,0.1,0c0,0,0.1,0.1,0.1,0.2c0,0.1,0,0.2,0,0.4c0,0.2,0,0.3,0,0.4c0,0.1,0,0.3,0,0.4c0,0.1,0,0.2,0,0.2
			c0,0.1,0,0.2-0.1,0.2c0,0-0.1,0-0.1,0c0,0,0-0.1,0-0.2l0-0.1c0-0.1,0-0.2-0.1-0.3c-0.1-0.1-0.1-0.2-0.2-0.2
			c-0.1-0.1-0.3-0.1-0.5-0.2c-0.2,0-0.5-0.1-0.8-0.1l-1.7,0V314.5z"/>
		<path id="XMLID_14571_" class="st3" d="M-98,316.5c0,0.3,0,0.5,0,0.7c0,0.2,0.1,0.3,0.1,0.4c0,0.1,0.1,0.2,0.2,0.3
			c0.1,0.1,0.1,0.1,0.2,0.1c0.1,0,0.2,0.1,0.4,0.1c0.1,0,0.2,0,0.3,0c0.1,0,0.1,0,0.1,0.1c0,0.1-0.1,0.1-0.2,0.1c-0.4,0-0.7,0-0.9,0
			c-0.2,0-0.4,0-0.5,0c-0.1,0-0.2,0-0.5,0c-0.2,0-0.5,0-0.8,0c-0.1,0-0.2,0-0.2-0.1c0-0.1,0-0.1,0.1-0.1c0.1,0,0.1,0,0.2,0
			c0.1,0,0.2,0,0.3-0.1c0.1,0,0.1-0.1,0.2-0.1c0.1-0.1,0.1-0.2,0.1-0.3c0-0.1,0-0.3,0.1-0.5c0-0.2,0-0.4,0-0.7V309
			c0-0.3,0-0.4,0.1-0.5c0-0.1,0.1-0.1,0.1-0.1c0.1,0,0.2,0,0.3,0.1c0.1,0.1,0.2,0.2,0.2,0.2c0.1,0.1,0.2,0.2,0.5,0.5
			c0.3,0.3,0.6,0.6,1,1c0.4,0.4,0.8,0.9,1.3,1.4c0.5,0.5,1,1,1.5,1.5c0.3,0.3,0.7,0.7,1,1c0.3,0.3,0.6,0.7,0.9,1
			c0.3,0.3,0.5,0.6,0.8,0.8c0.2,0.2,0.4,0.4,0.5,0.5l-0.1-6.4c0-0.4,0-0.7-0.1-0.9c-0.1-0.2-0.2-0.3-0.4-0.3c-0.1,0-0.2,0-0.4,0
			c-0.1,0-0.2,0-0.3,0c-0.1,0-0.1,0-0.1,0c0,0,0-0.1,0-0.1c0-0.1,0.1-0.1,0.3-0.1c0.3,0,0.6,0,0.9,0c0.3,0,0.4,0,0.5,0
			c0.1,0,0.2,0,0.4,0c0.2,0,0.4,0,0.7,0c0.2,0,0.2,0,0.2,0.1c0,0,0,0,0,0.1c0,0-0.1,0-0.1,0c0,0-0.1,0-0.1,0c-0.1,0-0.1,0-0.2,0
			c-0.1,0-0.2,0.1-0.3,0.1c-0.1,0.1-0.1,0.1-0.1,0.2c0,0.1-0.1,0.2-0.1,0.3c0,0.1,0,0.3,0,0.5l0,7.5c0,0.2,0,0.4,0,0.5
			c0,0.1,0,0.2,0,0.3c0,0.1,0,0.1,0,0.1c0,0,0,0-0.1,0c0,0-0.1,0-0.1,0c0,0-0.1-0.1-0.2-0.1c-0.1-0.1-0.2-0.1-0.3-0.2
			c-0.1-0.1-0.3-0.2-0.4-0.4c0,0-0.2-0.2-0.4-0.4c-0.2-0.2-0.5-0.5-0.9-0.8c-0.3-0.3-0.7-0.7-1.1-1.1c-0.4-0.4-0.8-0.8-1.1-1.1
			c-0.4-0.4-0.8-0.8-1.1-1.2c-0.4-0.4-0.7-0.7-1-1.1c-0.3-0.3-0.6-0.6-0.8-0.9c-0.2-0.2-0.4-0.4-0.5-0.5L-98,316.5z"/>
		<path id="XMLID_14569_" class="st3" d="M-86.5,312.2c0-0.5,0-0.9,0-1.2c0-0.3,0-0.6,0-0.8c0-0.2,0-0.4,0-0.5c0-0.1,0-0.2,0-0.3
			c0-0.2-0.1-0.4-0.1-0.5c-0.1-0.1-0.2-0.2-0.4-0.2c-0.1,0-0.1,0-0.2,0c-0.1,0-0.2,0-0.2,0c-0.1,0-0.1,0-0.1-0.1
			c0-0.1,0.1-0.1,0.2-0.1c0.2,0,0.3,0,0.5,0c0.2,0,0.3,0,0.5,0c0.2,0,0.3,0,0.4,0c0.1,0,0.2,0,0.2,0c0,0,0.1,0,0.2,0
			c0.2,0,0.3,0,0.5,0c0.2,0,0.5,0,0.7,0c0.3,0,0.5,0,0.7,0c0.2,0,0.4,0,0.6,0s0.3,0,0.3,0c0.1,0,0.3,0,0.4,0c0.1,0,0.2,0,0.2,0
			c0,0,0.1,0,0.1,0c0,0,0.1,0,0.1,0c0,0,0.1,0,0.1,0.1c0,0.1,0,0.1,0,0.2c0,0.1,0,0.2-0.1,0.4c0,0,0,0.1,0,0.2c0,0.1,0,0.2,0,0.2
			c0,0.1,0,0.2,0,0.3c0,0.1,0,0.1,0,0.2c0,0,0,0.1,0,0.1c0,0,0,0-0.1,0c-0.1,0-0.1-0.1-0.1-0.2c0-0.1,0-0.1,0-0.2
			c0-0.1,0-0.2-0.1-0.2c0-0.1,0-0.1-0.1-0.1c0,0-0.1-0.1-0.2-0.1c-0.1,0-0.2-0.1-0.3-0.1c-0.1,0-0.3,0-0.4-0.1c-0.1,0-0.2,0-0.4,0
			c-0.2,0-0.4,0-0.6,0c-0.2,0-0.4,0-0.6,0s-0.3,0-0.3,0c-0.1,0-0.1,0-0.1,0.1v3.5c0,0.1,0,0.1,0.1,0.1c0,0,0.2,0,0.4,0
			c0.2,0,0.4,0,0.7,0c0.3,0,0.5,0,0.7,0c0.2,0,0.4,0,0.5,0c0.2,0,0.3,0,0.4-0.1c0.1,0,0.2-0.1,0.3-0.1c0.1-0.1,0.2-0.2,0.2-0.2
			c0.1,0,0.1,0,0.1,0.1c0,0,0,0.1,0,0.2c0,0.1,0,0.3-0.1,0.5c0,0.1,0,0.3,0,0.5c0,0.2,0,0.3,0,0.4s0,0.1,0,0.2c0,0.1,0,0.1-0.1,0.1
			c-0.1,0-0.1,0-0.1-0.1c0-0.1,0-0.1,0-0.2c0-0.1,0-0.1-0.1-0.2c0-0.1-0.1-0.2-0.2-0.2c-0.1-0.1-0.3-0.1-0.5-0.2c-0.1,0-0.2,0-0.4,0
			c-0.2,0-0.4,0-0.6,0c-0.2,0-0.4,0-0.6,0c-0.2,0-0.3,0-0.4,0c-0.1,0-0.1,0-0.1,0.1v1.1c0,0.1,0,0.3,0,0.5c0,0.2,0,0.4,0,0.7
			c0,0.2,0,0.4,0,0.6c0,0.2,0,0.3,0,0.4c0,0.2,0,0.4,0.1,0.5c0,0.1,0.1,0.2,0.2,0.3c0.1,0.1,0.3,0.1,0.5,0.2c0.2,0,0.5,0,0.8,0
			c0.2,0,0.4,0,0.7,0c0.3,0,0.5-0.1,0.7-0.1c0.2-0.1,0.3-0.2,0.4-0.3c0.1-0.1,0.2-0.3,0.2-0.6c0-0.1,0.1-0.2,0.1-0.2
			c0,0,0.1,0,0.1,0.1c0,0,0,0.1,0,0.1c0,0,0,0.1,0,0.2c0,0.1,0,0.2,0,0.4c0,0.1,0,0.3-0.1,0.4c0,0.1,0,0.2-0.1,0.3
			c0,0.1,0,0.1-0.1,0.2c0,0-0.1,0.1-0.1,0.1c-0.1,0-0.1,0-0.2,0c-0.1,0-0.2,0-0.3,0c-0.5,0-0.9,0-1.3,0c-0.4,0-0.7,0-1,0
			c-0.3,0-0.5,0-0.7,0c-0.2,0-0.3,0-0.4,0c0,0-0.1,0-0.2,0c-0.1,0-0.2,0-0.4,0c-0.1,0-0.3,0-0.4,0c-0.1,0-0.3,0-0.4,0
			c-0.1,0-0.2,0-0.2-0.1c0-0.1,0-0.1,0.1-0.1c0.1,0,0.1,0,0.2,0c0.1,0,0.1,0,0.2,0c0.1,0,0.2-0.1,0.2-0.2c0-0.1,0.1-0.3,0.1-0.5
			c0-0.3,0.1-0.6,0.1-1.1c0-0.5,0-1,0-1.7V312.2z"/>
		<path id="XMLID_14567_" class="st3" d="M-78.9,318.3c-0.4-0.1-0.7-0.1-0.9-0.3c-0.1-0.1-0.1-0.1-0.2-0.2c0-0.1,0-0.2,0-0.3
			c0-0.3,0-0.6,0-0.8c0-0.2,0-0.4,0-0.5c0-0.1,0-0.2,0.1-0.2c0.1,0,0.1,0.1,0.1,0.2c0,0.1,0,0.1,0,0.2c0,0.1,0,0.2,0,0.3
			c0.1,0.2,0.1,0.4,0.3,0.6c0.1,0.2,0.3,0.3,0.5,0.4c0.2,0.1,0.4,0.2,0.6,0.2c0.2,0,0.5,0.1,0.7,0.1c0.7,0,1.2-0.2,1.5-0.5
			c0.3-0.3,0.5-0.7,0.5-1.2c0-0.2,0-0.4-0.1-0.6c-0.1-0.2-0.2-0.4-0.3-0.5c-0.1-0.2-0.3-0.3-0.5-0.5c-0.2-0.2-0.5-0.4-0.8-0.6
			l-0.6-0.5c-0.7-0.5-1.2-1-1.5-1.4c-0.3-0.4-0.4-0.9-0.4-1.3c0-0.4,0.1-0.7,0.2-1c0.1-0.3,0.3-0.6,0.6-0.8c0.3-0.2,0.6-0.4,0.9-0.5
			c0.4-0.1,0.8-0.2,1.2-0.2c0.3,0,0.5,0,0.8,0c0.2,0,0.5,0.1,0.6,0.1c0.1,0,0.2,0,0.3,0.1c0.1,0,0.1,0,0.2,0c0.1,0,0.1,0,0.1,0.1
			c0,0,0,0.2,0,0.4c0,0.2,0,0.5,0,1c0,0.2,0,0.3-0.1,0.3c-0.1,0-0.1,0-0.1,0c0,0,0-0.1,0-0.1c0-0.1,0-0.2-0.1-0.3
			c0-0.1-0.1-0.2-0.1-0.3c0,0-0.1-0.1-0.1-0.2c-0.1-0.1-0.2-0.1-0.3-0.2c-0.1-0.1-0.3-0.1-0.5-0.2c-0.2-0.1-0.5-0.1-0.8-0.1
			c-0.5,0-0.9,0.1-1.2,0.4c-0.3,0.2-0.5,0.6-0.5,1c0,0.2,0,0.4,0.1,0.6c0.1,0.2,0.2,0.3,0.3,0.5c0.1,0.2,0.3,0.3,0.5,0.5
			c0.2,0.2,0.5,0.4,0.8,0.6l0.4,0.3c0.4,0.3,0.7,0.5,1,0.8c0.3,0.3,0.5,0.5,0.7,0.8c0.2,0.2,0.3,0.5,0.4,0.8
			c0.1,0.3,0.1,0.5,0.1,0.8c0,0.4-0.1,0.8-0.3,1.1c-0.2,0.4-0.5,0.7-1,1c-0.3,0.2-0.6,0.3-1,0.4c-0.4,0.1-0.8,0.1-1.1,0.1
			C-78.2,318.4-78.6,318.3-78.9,318.3z"/>
		<path id="XMLID_14565_" class="st3" d="M-71.6,318.3c-0.4-0.1-0.7-0.1-0.9-0.3c-0.1-0.1-0.1-0.1-0.2-0.2c0-0.1,0-0.2,0-0.3
			c0-0.3,0-0.6,0-0.8c0-0.2,0-0.4,0-0.5c0-0.1,0-0.2,0.1-0.2c0.1,0,0.1,0.1,0.1,0.2c0,0.1,0,0.1,0,0.2c0,0.1,0,0.2,0,0.3
			c0.1,0.2,0.1,0.4,0.3,0.6c0.1,0.2,0.3,0.3,0.5,0.4c0.2,0.1,0.4,0.2,0.6,0.2c0.2,0,0.5,0.1,0.7,0.1c0.7,0,1.2-0.2,1.5-0.5
			c0.3-0.3,0.5-0.7,0.5-1.2c0-0.2,0-0.4-0.1-0.6c-0.1-0.2-0.2-0.4-0.3-0.5c-0.1-0.2-0.3-0.3-0.5-0.5c-0.2-0.2-0.5-0.4-0.8-0.6
			l-0.6-0.5c-0.7-0.5-1.2-1-1.5-1.4c-0.3-0.4-0.4-0.9-0.4-1.3c0-0.4,0.1-0.7,0.2-1c0.1-0.3,0.3-0.6,0.6-0.8c0.3-0.2,0.6-0.4,0.9-0.5
			c0.4-0.1,0.8-0.2,1.2-0.2c0.3,0,0.5,0,0.8,0c0.2,0,0.5,0.1,0.6,0.1c0.1,0,0.2,0,0.3,0.1c0.1,0,0.1,0,0.2,0c0.1,0,0.1,0,0.1,0.1
			c0,0,0,0.2,0,0.4c0,0.2,0,0.5,0,1c0,0.2,0,0.3-0.1,0.3c-0.1,0-0.1,0-0.1,0c0,0,0-0.1,0-0.1c0-0.1,0-0.2-0.1-0.3
			c0-0.1-0.1-0.2-0.1-0.3c0,0-0.1-0.1-0.1-0.2c-0.1-0.1-0.2-0.1-0.3-0.2c-0.1-0.1-0.3-0.1-0.5-0.2c-0.2-0.1-0.5-0.1-0.8-0.1
			c-0.5,0-0.9,0.1-1.2,0.4c-0.3,0.2-0.5,0.6-0.5,1c0,0.2,0,0.4,0.1,0.6c0.1,0.2,0.2,0.3,0.3,0.5c0.1,0.2,0.3,0.3,0.5,0.5
			c0.2,0.2,0.5,0.4,0.8,0.6l0.4,0.3c0.4,0.3,0.7,0.5,1,0.8c0.3,0.3,0.5,0.5,0.7,0.8c0.2,0.2,0.3,0.5,0.4,0.8
			c0.1,0.3,0.1,0.5,0.1,0.8c0,0.4-0.1,0.8-0.3,1.1c-0.2,0.4-0.5,0.7-1,1c-0.3,0.2-0.6,0.3-1,0.4c-0.4,0.1-0.8,0.1-1.1,0.1
			C-70.9,318.4-71.2,318.3-71.6,318.3z"/>
		<path id="XMLID_14563_" class="st3" d="M-57.1,318c-0.8-0.3-1.5-0.7-2.1-1.2c-0.4-0.3-0.7-0.7-0.9-1.1c-0.2-0.4-0.4-0.7-0.6-1.1
			c-0.1-0.4-0.2-0.8-0.3-1.2c-0.1-0.4-0.1-0.8-0.1-1.1c0-0.3,0-0.5,0.1-0.9c0.1-0.3,0.1-0.7,0.3-1.1c0.1-0.4,0.3-0.7,0.5-1.1
			c0.2-0.4,0.5-0.7,0.8-1.1c0.2-0.2,0.5-0.4,0.8-0.6c0.3-0.2,0.6-0.4,1-0.5c0.4-0.1,0.8-0.3,1.3-0.3c0.5-0.1,1-0.1,1.6-0.1
			c0.3,0,0.6,0,1,0c0.4,0,0.8,0.1,1.1,0.1c0.3,0.1,0.6,0.1,0.8,0.1c0.2,0,0.5,0.1,0.7,0.1c0.1,0,0.1,0,0.2,0.1c0,0,0,0.1,0,0.1
			c0,0.1,0,0.1,0,0.3c0,0.1,0,0.3-0.1,0.6c0,0.1,0,0.3,0,0.4c0,0.2,0,0.3,0,0.5c0,0.2,0,0.3,0,0.4c0,0.1,0,0.2,0,0.3
			c0,0.2-0.1,0.3-0.1,0.3c-0.1,0-0.1-0.1-0.1-0.3c0-0.3-0.1-0.6-0.2-0.9c-0.1-0.3-0.3-0.5-0.5-0.7c-0.3-0.2-0.7-0.4-1.2-0.6
			c-0.5-0.2-1.1-0.3-1.8-0.3c-0.5,0-0.9,0-1.3,0.1c-0.4,0.1-0.7,0.2-1,0.3c-0.3,0.1-0.5,0.2-0.7,0.4c-0.2,0.1-0.4,0.3-0.5,0.4
			c-0.6,0.5-0.9,1.1-1.1,1.8c-0.2,0.7-0.3,1.4-0.3,2.2c0,0.7,0.1,1.4,0.4,2.1c0.3,0.7,0.6,1.3,1.1,1.8c0.5,0.5,1.1,0.9,1.7,1.2
			c0.7,0.3,1.4,0.5,2.2,0.5c0.6,0,1.1,0,1.5-0.1c0.4-0.1,0.8-0.3,1.1-0.6c0.2-0.2,0.3-0.4,0.4-0.7c0.1-0.3,0.2-0.5,0.2-0.6
			c0-0.2,0.1-0.2,0.2-0.2c0,0,0.1,0,0.1,0.1c0,0,0,0.1,0,0.2c0,0,0,0.1,0,0.3c0,0.2,0,0.3-0.1,0.5c0,0.2-0.1,0.4-0.1,0.6
			c0,0.2-0.1,0.4-0.1,0.5c-0.1,0.1-0.1,0.2-0.1,0.3c0,0-0.1,0.1-0.3,0.2c-0.2,0.1-0.3,0.1-0.5,0.2c-0.2,0-0.4,0.1-0.7,0.1
			c-0.2,0-0.5,0-0.7,0.1c-0.3,0-0.5,0-0.7,0C-55.4,318.4-56.3,318.3-57.1,318z"/>
		<path id="XMLID_14561_" class="st3" d="M-46.9,314.5c0,0.5,0,0.9,0,1.2c0,0.3,0,0.6,0,0.8c0,0.2,0,0.4,0.1,0.5
			c0,0.1,0.1,0.2,0.1,0.3c0.1,0.1,0.3,0.2,0.6,0.2c0.3,0,0.7,0.1,1.2,0.1c0.4,0,0.7,0,0.9-0.1c0.3,0,0.5-0.1,0.7-0.3
			c0.1-0.1,0.1-0.2,0.2-0.3c0.1-0.1,0.1-0.3,0.1-0.4c0-0.1,0.1-0.2,0.1-0.2c0.1,0,0.1,0.1,0.1,0.2c0,0,0,0.1,0,0.2
			c0,0.1,0,0.2,0,0.3c0,0.1,0,0.3-0.1,0.4c0,0.1,0,0.2-0.1,0.3c0,0.1,0,0.1-0.1,0.2c0,0-0.1,0.1-0.1,0.1c-0.1,0-0.1,0-0.2,0
			c-0.1,0-0.2,0-0.4,0c-0.9,0-1.7,0-2.3,0c-0.3,0-0.6,0-0.8,0c-0.2,0-0.4,0-0.6,0c0,0-0.1,0-0.2,0c-0.1,0-0.2,0-0.3,0
			c-0.1,0-0.3,0-0.4,0c-0.1,0-0.3,0-0.4,0c-0.1,0-0.2,0-0.2-0.1c0-0.1,0-0.1,0.1-0.1c0.1,0,0.1,0,0.2,0c0.1,0,0.1,0,0.2,0
			c0.1,0,0.2-0.1,0.2-0.2c0-0.1,0.1-0.3,0.1-0.5c0-0.3,0.1-0.6,0.1-1.1c0-0.5,0-1,0-1.7v-2.3c0-0.5,0-0.9,0-1.2c0-0.3,0-0.6,0-0.8
			c0-0.2,0-0.4,0-0.5c0-0.1,0-0.2,0-0.3c0-0.2-0.1-0.4-0.1-0.5c-0.1-0.1-0.2-0.2-0.4-0.2c-0.1,0-0.1,0-0.2,0c-0.1,0-0.2,0-0.2,0
			c-0.1,0-0.1,0-0.1-0.1c0-0.1,0.1-0.1,0.2-0.1c0.2,0,0.3,0,0.5,0c0.2,0,0.3,0,0.5,0c0.2,0,0.3,0,0.4,0c0.1,0,0.2,0,0.2,0
			c0,0,0.1,0,0.2,0c0.1,0,0.3,0,0.4,0c0.2,0,0.3,0,0.5,0c0.2,0,0.3,0,0.4,0c0.1,0,0.2,0,0.2,0.1c0,0.1,0,0.1-0.1,0.1
			c-0.1,0-0.1,0-0.2,0c-0.1,0-0.2,0-0.2,0c-0.2,0-0.3,0.1-0.4,0.2c-0.1,0.1-0.1,0.3-0.1,0.5c0,0.1,0,0.2,0,0.3c0,0.1,0,0.3,0,0.5
			c0,0.2,0,0.4,0,0.8c0,0.3,0,0.7,0,1.2V314.5z"/>
		<path id="XMLID_14559_" class="st3" d="M-41.3,312.2c0-0.5,0-0.9,0-1.2c0-0.3,0-0.6,0-0.8c0-0.2,0-0.4,0-0.5c0-0.1,0-0.2,0-0.3
			c0-0.2-0.1-0.4-0.1-0.5c-0.1-0.1-0.2-0.2-0.4-0.2c-0.1,0-0.1,0-0.2,0c-0.1,0-0.2,0-0.2,0c-0.1,0-0.1,0-0.1-0.1
			c0-0.1,0.1-0.1,0.2-0.1c0.2,0,0.3,0,0.5,0c0.2,0,0.3,0,0.5,0c0.2,0,0.3,0,0.4,0c0.1,0,0.2,0,0.2,0c0,0,0.1,0,0.2,0
			c0.1,0,0.2,0,0.4,0c0.1,0,0.3,0,0.4,0c0.1,0,0.3,0,0.4,0c0.2,0,0.2,0,0.2,0.1c0,0.1,0,0.1-0.1,0.1c-0.1,0-0.1,0-0.2,0
			c0,0-0.1,0-0.2,0c-0.2,0-0.3,0.1-0.3,0.2c-0.1,0.1-0.1,0.3-0.1,0.5c0,0.1,0,0.2,0,0.3c0,0.1,0,0.3,0,0.5c0,0.2,0,0.4,0,0.8
			c0,0.3,0,0.7,0,1.2v1.8c0,0.5,0,0.9,0.1,1.2c0.1,0.3,0.1,0.6,0.2,0.9c0.1,0.2,0.2,0.5,0.3,0.6c0.1,0.2,0.3,0.3,0.4,0.4
			c0.3,0.3,0.6,0.5,0.9,0.6c0.3,0.1,0.7,0.1,1,0.1c0.4,0,0.8-0.1,1.2-0.2c0.4-0.2,0.7-0.4,0.9-0.7c0.3-0.4,0.5-0.8,0.6-1.3
			c0.1-0.5,0.1-1.1,0.1-1.8v-1.6c0-0.5,0-0.9,0-1.2c0-0.3,0-0.6,0-0.8c0-0.2,0-0.4,0-0.5c0-0.1,0-0.2,0-0.3c0-0.2,0-0.4-0.1-0.5
			c-0.1-0.1-0.2-0.2-0.4-0.2c-0.1,0-0.1,0-0.2,0c-0.1,0-0.2,0-0.2,0c-0.1,0-0.1,0-0.1-0.1c0-0.1,0.1-0.1,0.2-0.1c0.2,0,0.3,0,0.5,0
			c0.2,0,0.3,0,0.4,0c0.1,0,0.3,0,0.4,0c0.1,0,0.2,0,0.2,0c0.1,0,0.2,0,0.4,0c0.2,0,0.5,0,0.7,0c0.1,0,0.2,0,0.2,0.1
			c0,0.1,0,0.1-0.1,0.1c-0.1,0-0.1,0-0.2,0c0,0-0.1,0-0.2,0c-0.2,0-0.3,0.1-0.4,0.2c-0.1,0.1-0.1,0.3-0.1,0.5c0,0.1,0,0.2,0,0.3
			c0,0.1,0,0.3,0,0.5c0,0.2,0,0.4,0,0.8c0,0.3,0,0.7,0,1.2v1.4c0,0.4,0,0.7,0,1.1c0,0.4-0.1,0.7-0.2,1c-0.1,0.3-0.2,0.7-0.4,1
			c-0.2,0.3-0.4,0.6-0.6,0.8c-0.2,0.2-0.5,0.4-0.7,0.5c-0.2,0.1-0.5,0.2-0.7,0.3c-0.2,0.1-0.5,0.1-0.7,0.1c-0.2,0-0.4,0-0.6,0
			c-0.1,0-0.3,0-0.5,0c-0.2,0-0.4,0-0.7-0.1c-0.3-0.1-0.5-0.2-0.8-0.3c-0.3-0.1-0.5-0.3-0.8-0.5c-0.2-0.2-0.3-0.3-0.5-0.5
			c-0.1-0.2-0.3-0.4-0.4-0.7c-0.1-0.3-0.2-0.6-0.2-0.9c-0.1-0.4-0.1-0.8-0.1-1.2V312.2z"/>
		<path id="XMLID_14533_" class="st3" d="M-30.1,312.2c0-0.5,0-0.9,0-1.2c0-0.3,0-0.6,0-0.8c0-0.2,0-0.4,0-0.5c0-0.1,0-0.2,0-0.3
			c0-0.2-0.1-0.4-0.1-0.5c-0.1-0.1-0.2-0.2-0.4-0.2c-0.1,0-0.1,0-0.2,0c-0.1,0-0.2,0-0.2,0c-0.1,0-0.1,0-0.1-0.1
			c0-0.1,0.1-0.1,0.2-0.1c0.2,0,0.3,0,0.5,0c0.2,0,0.3,0,0.5,0c0.2,0,0.3,0,0.4,0c0.1,0,0.2,0,0.2,0c0.2,0,0.4,0,0.7,0
			c0.3,0,0.6,0,0.9,0c0.6,0,1,0.1,1.4,0.2c0.4,0.1,0.6,0.3,0.9,0.5c0.2,0.2,0.4,0.4,0.4,0.6c0.1,0.2,0.1,0.4,0.1,0.6
			c0,0.3,0,0.5-0.1,0.7c-0.1,0.2-0.2,0.4-0.3,0.6c-0.1,0.2-0.3,0.3-0.4,0.5c-0.2,0.2-0.3,0.3-0.5,0.5c0.3,0.1,0.5,0.2,0.8,0.3
			c0.3,0.2,0.5,0.3,0.8,0.6c0.2,0.2,0.4,0.5,0.6,0.8c0.2,0.3,0.2,0.6,0.2,1s-0.1,0.7-0.2,1.1c-0.1,0.3-0.3,0.6-0.6,0.9
			c-0.3,0.3-0.6,0.5-1,0.6c-0.4,0.2-0.9,0.2-1.5,0.2c-0.1,0-0.3,0-0.5,0c-0.2,0-0.4,0-0.6,0c-0.2,0-0.4,0-0.6,0c-0.2,0-0.3,0-0.3,0
			c0,0-0.1,0-0.2,0c-0.1,0-0.2,0-0.4,0c-0.1,0-0.3,0-0.4,0c-0.1,0-0.3,0-0.4,0c-0.1,0-0.2,0-0.2-0.1c0-0.1,0-0.1,0.1-0.1
			c0.1,0,0.1,0,0.2,0c0.1,0,0.1,0,0.2,0c0.1,0,0.2-0.1,0.2-0.2c0-0.1,0.1-0.3,0.1-0.5c0-0.3,0.1-0.6,0.1-1.1c0-0.5,0-1,0-1.7V312.2z
			 M-29,312.5c0,0.1,0,0.1,0.1,0.1c0,0,0.1,0,0.2,0c0.1,0,0.3,0,0.6,0c0.4,0,0.6,0,0.8-0.1c0.2,0,0.3-0.1,0.5-0.3
			c0.1-0.2,0.3-0.4,0.4-0.6c0.1-0.2,0.2-0.5,0.2-0.8c0-0.2,0-0.5-0.1-0.7c-0.1-0.2-0.2-0.5-0.3-0.7c-0.2-0.2-0.3-0.4-0.6-0.5
			c-0.2-0.1-0.5-0.2-0.9-0.2c-0.1,0-0.2,0-0.3,0c-0.1,0-0.3,0-0.4,0c-0.1,0-0.2,0.1-0.2,0.1V312.5z M-29,313.9c0,0.3,0,0.5,0,0.8
			c0,0.3,0,0.6,0,0.8c0,0.3,0,0.5,0,0.7c0,0.2,0,0.3,0,0.4c0,0.2,0,0.3,0,0.4c0,0.1,0,0.2,0.1,0.3c0,0.1,0.1,0.1,0.1,0.2
			c0.1,0.1,0.1,0.1,0.2,0.2c0.2,0.1,0.4,0.1,0.6,0.2c0.2,0,0.4,0,0.5,0c0.2,0,0.4,0,0.7-0.1c0.2-0.1,0.4-0.1,0.6-0.3
			c0.2-0.1,0.3-0.3,0.5-0.6c0.1-0.3,0.2-0.6,0.2-1c0-0.1,0-0.3-0.1-0.5c0-0.2-0.1-0.4-0.2-0.6c-0.1-0.2-0.2-0.4-0.4-0.6
			c-0.2-0.2-0.4-0.4-0.6-0.6c-0.2-0.1-0.4-0.2-0.6-0.2c-0.2,0-0.4-0.1-0.5-0.1c0,0-0.1,0-0.2,0c-0.1,0-0.2,0-0.3,0
			c-0.1,0-0.2,0-0.3,0s-0.2,0-0.2,0c-0.1,0-0.1,0-0.1,0.1V313.9z"/>
	</g>
</g>
</svg>
