<?xml version="1.0" encoding="utf-8"?>
<!-- Generator: Adobe Illustrator 21.1.0, SVG Export Plug-In . SVG Version: 6.00 Build 0)  -->
<svg version="1.1" id="Layer_1" xmlns="http://www.w3.org/2000/svg" xmlns:xlink="http://www.w3.org/1999/xlink" x="0px" y="0px"
	 viewBox="0 0 300 53.7" style="enable-background:new 0 0 300 53.7;" xml:space="preserve">
<style type="text/css">
	.st0{fill:#474748;}
	.st1{fill:#AD2226;}
	.st2{fill:#C6C5C5;}
</style>
<g>
	<path class="st0" d="M51.1,28.6c0-2.2,0-2.6,0-3.1c0-0.5-0.1-0.7-0.6-0.8c-0.1,0-0.4,0-0.5,0c-0.1,0-0.1,0-0.1-0.1
		c0-0.1,0.1-0.1,0.2-0.1c0.6,0,1.6,0,1.6,0c0.3,0,0.9,0,1.6,0c2.4,0,2.9,1.4,2.9,2.2c0,1.2-0.7,1.9-1.3,2.6c1.1,0.3,2.5,1.3,2.5,3
		c0,1.5-1.2,3.1-3.7,3.1c-0.2,0-0.6,0-1,0c-0.4,0-0.8,0-0.9,0c0,0-0.3,0-0.6,0c-0.3,0-0.6,0-0.8,0c-0.2,0-0.2,0-0.2-0.1
		c0,0,0-0.1,0.1-0.1c0.1,0,0.3,0,0.4-0.1c0.3-0.1,0.4-0.4,0.4-0.8c0.1-0.6,0.1-1.7,0.1-3.1V28.6z M52.2,28.9c0,0.1,0,0.1,0.1,0.2
		c0.1,0,0.3,0.1,0.9,0.1c0.8,0,1,0,1.3-0.4c0.3-0.3,0.5-0.9,0.5-1.5c0-1.2-0.5-2.5-1.9-2.5c-0.2,0-0.5,0-0.7,0.1
		c-0.1,0-0.2,0.1-0.2,0.2V28.9z M52.2,30.4c0,1.1,0,2.9,0,3.1c0,0.7,0,0.9,0.5,1.1c0.4,0.2,1,0.2,1.3,0.2c0.8,0,2-0.4,2-2
		c0-0.9-0.3-2.1-1.4-2.9c-0.5-0.3-0.8-0.4-1.2-0.4c-0.2,0-0.9,0-1.1,0c-0.1,0-0.1,0-0.1,0.1V30.4z"/>
	<path class="st0" d="M60,29.6c0-1.9,0-2.2,0-2.6c0-0.4-0.1-0.6-0.5-0.7c-0.1,0-0.3,0-0.4,0c0,0-0.1-0.1-0.1-0.1
		c0-0.1,0.1-0.1,0.2-0.1c0.6,0,1.4,0,1.5,0c0.1,0,1.2,0,1.6,0c0.8,0,1.7,0.1,2.4,0.5c0.3,0.2,0.9,0.8,0.9,1.7c0,0.9-0.4,1.8-1.6,2.8
		c1,1.3,1.9,2.4,2.6,3.2c0.7,0.7,1.1,0.8,1.4,0.8c0.2,0,0.4,0,0.4,0c0.1,0,0.1,0.1,0.1,0.1c0,0.1-0.1,0.1-0.3,0.1h-0.8
		c-0.7,0-1-0.1-1.4-0.2c-0.5-0.3-1-0.9-1.7-1.8c-0.5-0.7-1.1-1.5-1.4-1.8c-0.1-0.1-0.1-0.1-0.2-0.1l-1.6,0c-0.1,0-0.1,0-0.1,0.1v0.3
		c0,1.2,0,2.1,0.1,2.6c0,0.4,0.1,0.6,0.5,0.6c0.2,0,0.4,0.1,0.6,0.1c0.1,0,0.1,0.1,0.1,0.1c0,0.1-0.1,0.1-0.2,0.1
		c-0.7,0-1.5,0-1.6,0c0,0-0.9,0-1.3,0c-0.1,0-0.2,0-0.2-0.1c0,0,0-0.1,0.1-0.1c0.1,0,0.3,0,0.4-0.1c0.2-0.1,0.3-0.3,0.3-0.6
		c0.1-0.5,0.1-1.5,0.1-2.6V29.6z M61.1,30.6c0,0.1,0,0.1,0.1,0.2c0.2,0.1,0.8,0.2,1.4,0.2c0.3,0,0.6,0,0.9-0.2
		c0.4-0.3,0.8-0.9,0.8-1.9c0-1.5-0.8-2.4-2.2-2.4c-0.4,0-0.8,0-0.9,0.1c-0.1,0-0.1,0.1-0.1,0.1V30.6z"/>
	<path class="st0" d="M70.5,31.8c0,1.2,0,2.1,0.1,2.6c0,0.4,0.1,0.6,0.5,0.6c0.2,0,0.5,0.1,0.6,0.1c0.1,0,0.1,0.1,0.1,0.1
		c0,0.1-0.1,0.1-0.2,0.1c-0.7,0-1.5,0-1.6,0c-0.1,0-0.9,0-1.3,0c-0.1,0-0.2,0-0.2-0.1c0,0,0-0.1,0.1-0.1c0.1,0,0.3,0,0.4-0.1
		c0.2-0.1,0.3-0.3,0.3-0.6c0.1-0.5,0.1-1.5,0.1-2.6v-2.2c0-1.9,0-2.2,0-2.6c0-0.4-0.1-0.6-0.4-0.7c-0.1,0-0.3,0-0.4,0
		c-0.1,0-0.1-0.1-0.1-0.1c0-0.1,0.1-0.1,0.2-0.1c0.4,0,1.2,0,1.3,0c0.1,0,0.9,0,1.3,0c0.1,0,0.2,0,0.2,0.1c0,0-0.1,0.1-0.1,0.1
		c-0.1,0-0.2,0-0.3,0c-0.3,0.1-0.4,0.2-0.4,0.7c0,0.4,0,0.7,0,2.6V31.8z"/>
	<path class="st0" d="M75.4,31.8c0,1.8,0,2.5,0.3,2.7c0.2,0.2,0.7,0.3,1.7,0.3c0.7,0,1.2,0,1.5-0.4c0.2-0.2,0.3-0.4,0.3-0.7
		c0-0.1,0.1-0.2,0.1-0.2c0.1,0,0.1,0.1,0.1,0.2c0,0.1-0.1,0.9-0.2,1.2c-0.1,0.3-0.1,0.3-0.8,0.3c-0.9,0-1.6,0-2.2,0
		c-0.6,0-1,0-1.4,0c-0.1,0-0.3,0-0.5,0c-0.3,0-0.5,0-0.7,0c-0.1,0-0.2,0-0.2-0.1c0,0,0-0.1,0.1-0.1c0.1,0,0.3,0,0.4-0.1
		c0.2-0.1,0.3-0.3,0.3-0.6c0.1-0.5,0.1-1.5,0.1-2.6v-2.2c0-1.9,0-2.2,0-2.6c0-0.4-0.1-0.6-0.5-0.7c-0.1,0-0.3,0-0.4,0
		c0,0-0.1-0.1-0.1-0.1c0-0.1,0.1-0.1,0.2-0.1c0.6,0,1.4,0,1.4,0c0.1,0,1,0,1.4,0c0.1,0,0.2,0,0.2,0.1c0,0-0.1,0.1-0.1,0.1
		c-0.1,0-0.3,0-0.4,0c-0.4,0.1-0.4,0.3-0.5,0.7c0,0.4,0,0.7,0,2.6V31.8z"/>
	<path class="st0" d="M82.8,31.8c0,1.8,0,2.5,0.3,2.7c0.2,0.2,0.7,0.3,1.7,0.3c0.7,0,1.2,0,1.5-0.4c0.2-0.2,0.3-0.4,0.3-0.7
		c0-0.1,0.1-0.2,0.1-0.2c0.1,0,0.1,0.1,0.1,0.2c0,0.1-0.1,0.9-0.2,1.2c-0.1,0.3-0.1,0.3-0.8,0.3c-0.9,0-1.6,0-2.2,0
		c-0.6,0-1,0-1.4,0c-0.1,0-0.3,0-0.5,0c-0.3,0-0.5,0-0.7,0c-0.1,0-0.2,0-0.2-0.1c0,0,0-0.1,0.1-0.1c0.1,0,0.3,0,0.4-0.1
		c0.2-0.1,0.3-0.3,0.3-0.6c0.1-0.5,0.1-1.5,0.1-2.6v-2.2c0-1.9,0-2.2,0-2.6c0-0.4-0.1-0.6-0.5-0.7c-0.1,0-0.3,0-0.4,0
		c0,0-0.1-0.1-0.1-0.1c0-0.1,0.1-0.1,0.2-0.1c0.6,0,1.4,0,1.4,0c0.1,0,1,0,1.4,0c0.1,0,0.2,0,0.2,0.1c0,0-0.1,0.1-0.1,0.1
		c-0.1,0-0.3,0-0.4,0c-0.4,0.1-0.4,0.3-0.5,0.7c0,0.4,0,0.7,0,2.6V31.8z"/>
	<path class="st0" d="M90.1,31.8c0,1.2,0,2.1,0.1,2.6c0,0.4,0.1,0.6,0.5,0.6c0.2,0,0.5,0.1,0.6,0.1c0.1,0,0.1,0.1,0.1,0.1
		c0,0.1-0.1,0.1-0.2,0.1c-0.7,0-1.5,0-1.6,0c-0.1,0-0.9,0-1.3,0c-0.1,0-0.2,0-0.2-0.1c0,0,0-0.1,0.1-0.1c0.1,0,0.3,0,0.4-0.1
		c0.2-0.1,0.3-0.3,0.3-0.6c0.1-0.5,0.1-1.5,0.1-2.6v-2.2c0-1.9,0-2.2,0-2.6c0-0.4-0.1-0.6-0.4-0.7c-0.1,0-0.3,0-0.4,0
		c-0.1,0-0.1-0.1-0.1-0.1c0-0.1,0.1-0.1,0.2-0.1c0.4,0,1.2,0,1.3,0c0.1,0,0.9,0,1.3,0c0.1,0,0.2,0,0.2,0.1c0,0-0.1,0.1-0.1,0.1
		c-0.1,0-0.2,0-0.3,0c-0.3,0.1-0.4,0.2-0.4,0.7c0,0.4,0,0.7,0,2.6V31.8z"/>
	<path class="st0" d="M96.1,26.3c0.2-0.4,0.2-0.5,0.3-0.5c0.1,0,0.2,0.2,0.3,0.4c0.2,0.5,2.3,5.6,3,7.4c0.5,1.1,0.8,1.3,1.1,1.3
		c0.2,0.1,0.4,0.1,0.5,0.1c0.1,0,0.2,0,0.2,0.1c0,0.1-0.1,0.1-0.3,0.1c-0.2,0-1.1,0-2,0c-0.2,0-0.4,0-0.4-0.1c0-0.1,0-0.1,0.1-0.1
		c0.1,0,0.2-0.1,0.1-0.3L97.8,32c0-0.1,0-0.1-0.1-0.1h-2.9c-0.1,0-0.1,0-0.1,0.1l-0.7,2c-0.1,0.3-0.2,0.6-0.2,0.8
		c0,0.2,0.2,0.3,0.4,0.3h0.1c0.1,0,0.1,0,0.1,0.1c0,0.1-0.1,0.1-0.2,0.1c-0.3,0-1,0-1.1,0c-0.1,0-0.8,0-1.3,0c-0.2,0-0.2,0-0.2-0.1
		c0-0.1,0.1-0.1,0.1-0.1c0.1,0,0.3,0,0.4,0c0.6-0.1,0.8-0.5,1.1-1.1L96.1,26.3z M97.5,31.4C97.6,31.4,97.6,31.4,97.5,31.4L96.3,28
		c-0.1-0.2-0.1-0.2-0.2,0l-1.2,3.3c0,0.1,0,0.1,0,0.1H97.5z"/>
	<path class="st0" d="M103.3,33.6c0,1,0.1,1.3,0.5,1.4c0.2,0.1,0.5,0.1,0.6,0.1c0.1,0,0.1,0,0.1,0.1c0,0.1-0.1,0.1-0.2,0.1
		c-0.7,0-1.2,0-1.3,0c-0.1,0-0.6,0-1.2,0c-0.1,0-0.2,0-0.2-0.1c0-0.1,0-0.1,0.1-0.1c0.1,0,0.3,0,0.5-0.1c0.3-0.1,0.4-0.4,0.4-1.5v-7
		c0-0.5,0.1-0.6,0.2-0.6c0.1,0,0.4,0.2,0.5,0.4c0.2,0.2,2,2.2,4,4.2c1.3,1.3,2.6,2.7,3,3.1l-0.1-6.1c0-0.8-0.1-1.1-0.5-1.1
		c-0.2,0-0.5-0.1-0.6-0.1c-0.1,0-0.1-0.1-0.1-0.1c0-0.1,0.1-0.1,0.2-0.1c0.6,0,1.2,0,1.3,0c0.1,0,0.6,0,1.1,0c0.1,0,0.2,0,0.2,0.1
		c0,0-0.1,0.1-0.1,0.1c-0.1,0-0.2,0-0.3,0c-0.4,0.1-0.4,0.3-0.4,1.1l0,7.2c0,0.8,0,0.9-0.1,0.9c-0.1,0-0.3-0.1-1-0.7
		c-0.1-0.1-2-1.9-3.3-3.3c-1.5-1.5-2.9-3-3.3-3.5L103.3,33.6z"/>
	<path class="st0" d="M117.1,31.8c0,1.2,0,2.1,0.1,2.6c0,0.4,0.1,0.6,0.5,0.6c0.2,0,0.5,0.1,0.6,0.1c0.1,0,0.1,0.1,0.1,0.1
		c0,0.1-0.1,0.1-0.2,0.1c-0.7,0-1.5,0-1.6,0c-0.1,0-0.9,0-1.3,0c-0.1,0-0.2,0-0.2-0.1c0,0,0-0.1,0.1-0.1c0.1,0,0.3,0,0.4-0.1
		c0.3-0.1,0.3-0.3,0.4-0.7c0.1-0.5,0.1-1.5,0.1-2.6v-5.1l-1.8,0c-0.8,0-1.1,0.1-1.3,0.4c-0.1,0.2-0.2,0.3-0.2,0.4
		c0,0.1-0.1,0.1-0.1,0.1c0,0-0.1,0-0.1-0.1c0-0.1,0.2-1.2,0.3-1.3c0-0.1,0.1-0.2,0.1-0.2c0.1,0,0.2,0.1,0.6,0.1c0.4,0,0.8,0.1,1,0.1
		h4.8c0.4,0,0.7,0,0.9-0.1c0.2,0,0.3-0.1,0.4-0.1c0.1,0,0.1,0.1,0.1,0.1c0,0.4,0,1.3,0,1.4c0,0.1-0.1,0.2-0.1,0.2
		c-0.1,0-0.1,0-0.1-0.2l0-0.1c0-0.4-0.3-0.6-1.5-0.7l-1.6,0V31.8z"/>
	<path class="st0" d="M133.4,24.2c3.2,0,5.6,2,5.6,5.4c0,3.2-2.3,5.9-5.7,5.9c-3.9,0-5.6-3.1-5.6-5.6
		C127.7,27.5,129.4,24.2,133.4,24.2 M133.7,35c1.3,0,4-0.7,4-4.9c0-3.4-2.1-5.3-4.4-5.3c-2.4,0-4.2,1.6-4.2,4.7
		C129.1,32.8,131.1,35,133.7,35"/>
	<path class="st0" d="M144.4,33.7c0.7-1.6,2.4-5.8,2.7-6.7c0.1-0.2,0.1-0.4,0.1-0.5c0-0.1,0-0.2-0.2-0.3c-0.1,0-0.3,0-0.4,0
		c-0.1,0-0.1,0-0.1-0.1c0-0.1,0.1-0.1,0.3-0.1c0.5,0,1.1,0,1.2,0c0.1,0,0.6,0,1,0c0.1,0,0.2,0,0.2,0.1c0,0.1,0,0.1-0.1,0.1
		c-0.1,0-0.4,0-0.6,0.1c-0.2,0.1-0.4,0.3-0.7,1.1c-0.1,0.3-0.8,1.8-1.4,3.3c-0.8,1.8-1.3,3.1-1.6,3.7c-0.3,0.7-0.4,0.9-0.5,0.9
		c-0.1,0-0.2-0.2-0.5-0.7l-3.1-7.5c-0.3-0.7-0.5-0.8-0.9-0.9c-0.2,0-0.4,0-0.5,0s-0.1-0.1-0.1-0.1c0-0.1,0.1-0.1,0.3-0.1
		c0.6,0,1.3,0,1.5,0c0.1,0,0.7,0,1.2,0c0.2,0,0.3,0,0.3,0.1c0,0.1,0,0.1-0.1,0.1c-0.1,0-0.3,0-0.5,0.1c-0.1,0.1-0.1,0.1-0.1,0.2
		c0,0.2,0.2,0.5,0.3,1L144.4,33.7z"/>
	<path class="st0" d="M150.7,29.6c0-1.9,0-2.2,0-2.6c0-0.4-0.1-0.6-0.5-0.7c-0.1,0-0.3,0-0.4,0c0,0-0.1-0.1-0.1-0.1
		c0-0.1,0.1-0.1,0.2-0.1c0.6,0,1.4,0,1.5,0c0.1,0,2.7,0,3,0c0.2,0,0.5-0.1,0.6-0.1c0.1,0,0.1-0.1,0.2-0.1c0,0,0.1,0.1,0.1,0.1
		c0,0.1-0.1,0.2-0.1,0.6c0,0.1,0,0.7-0.1,0.8c0,0.1-0.1,0.1-0.1,0.1c-0.1,0-0.1-0.1-0.1-0.2c0-0.1,0-0.3-0.1-0.4
		c-0.1-0.2-0.2-0.3-0.9-0.4c-0.2,0-1.7,0-1.8,0c-0.1,0-0.1,0-0.1,0.1V30c0,0.1,0,0.1,0.1,0.1c0.2,0,1.8,0,2.1,0c0.3,0,0.5,0,0.6-0.2
		c0.1-0.1,0.1-0.2,0.2-0.2c0,0,0.1,0,0.1,0.1c0,0.1-0.1,0.3-0.1,0.7c0,0.2-0.1,0.7-0.1,0.8c0,0.1,0,0.2-0.1,0.2
		c-0.1,0-0.1,0-0.1-0.1c0-0.1,0-0.2-0.1-0.4c0-0.2-0.2-0.3-0.6-0.4c-0.3,0-1.7-0.1-1.9-0.1c-0.1,0-0.1,0-0.1,0.1v1
		c0,0.4,0,1.8,0,2.1c0,0.8,0.3,1,1.5,1c0.3,0,0.9,0,1.3-0.1c0.3-0.1,0.5-0.4,0.6-0.8c0-0.1,0.1-0.2,0.1-0.2c0.1,0,0.1,0.1,0.1,0.2
		c0,0.1-0.1,0.9-0.2,1.2c-0.1,0.3-0.2,0.3-0.7,0.3c-0.9,0-1.7,0-2.2,0c-0.5,0-0.9,0-1,0c0,0-0.3,0-0.5,0c-0.2,0-0.5,0-0.7,0
		c-0.1,0-0.2,0-0.2-0.1c0,0,0-0.1,0.1-0.1c0.1,0,0.3,0,0.4-0.1c0.2,0,0.3-0.3,0.3-0.6c0.1-0.5,0.1-1.5,0.1-2.6V29.6z"/>
	<path class="st0" d="M158.3,29.6c0-1.9,0-2.2,0-2.6c0-0.4-0.1-0.6-0.5-0.7c-0.1,0-0.3,0-0.4,0c0,0-0.1-0.1-0.1-0.1
		c0-0.1,0.1-0.1,0.2-0.1c0.6,0,1.4,0,1.5,0c0.1,0,1.2,0,1.6,0c0.8,0,1.7,0.1,2.4,0.5c0.3,0.2,0.9,0.8,0.9,1.7c0,0.9-0.4,1.8-1.6,2.8
		c1,1.3,1.9,2.4,2.6,3.2c0.7,0.7,1.1,0.8,1.4,0.8c0.2,0,0.4,0,0.4,0c0.1,0,0.1,0.1,0.1,0.1c0,0.1-0.1,0.1-0.3,0.1h-0.8
		c-0.7,0-1-0.1-1.4-0.2c-0.5-0.3-1-0.9-1.7-1.8c-0.5-0.7-1.1-1.5-1.4-1.8c-0.1-0.1-0.1-0.1-0.2-0.1l-1.6,0c-0.1,0-0.1,0-0.1,0.1v0.3
		c0,1.2,0,2.1,0.1,2.6c0,0.4,0.1,0.6,0.5,0.6c0.2,0,0.4,0.1,0.6,0.1c0.1,0,0.1,0.1,0.1,0.1c0,0.1-0.1,0.1-0.2,0.1
		c-0.7,0-1.5,0-1.6,0c0,0-0.9,0-1.3,0c-0.1,0-0.2,0-0.2-0.1c0,0,0-0.1,0.1-0.1c0.1,0,0.3,0,0.4-0.1c0.2-0.1,0.3-0.3,0.3-0.6
		c0.1-0.5,0.1-1.5,0.1-2.6V29.6z M159.3,30.6c0,0.1,0,0.1,0.1,0.2c0.2,0.1,0.8,0.2,1.4,0.2c0.3,0,0.6,0,0.9-0.2
		c0.4-0.3,0.8-0.9,0.8-1.9c0-1.5-0.8-2.4-2.2-2.4c-0.4,0-0.8,0-0.9,0.1c-0.1,0-0.1,0.1-0.1,0.1V30.6z"/>
	<path class="st0" d="M166.4,35.1c-0.2-0.1-0.2-0.1-0.2-0.5c0-0.6,0.1-1.1,0.1-1.3c0-0.1,0-0.2,0.1-0.2c0.1,0,0.1,0,0.1,0.1
		c0,0.1,0,0.3,0,0.4c0.2,0.9,1.1,1.2,2,1.2c1.3,0,1.9-0.7,1.9-1.6c0-0.9-0.5-1.3-1.6-2.1l-0.6-0.4c-1.4-1-1.8-1.8-1.8-2.6
		c0-1.4,1.1-2.3,2.8-2.3c0.5,0,1,0.1,1.3,0.1c0.2,0.1,0.3,0.1,0.4,0.1c0.1,0,0.1,0,0.1,0.1c0,0.1-0.1,0.5-0.1,1.3
		c0,0.2,0,0.3-0.1,0.3c-0.1,0-0.1-0.1-0.1-0.2c0-0.1-0.1-0.5-0.2-0.6c-0.1-0.1-0.5-0.6-1.6-0.6c-0.9,0-1.7,0.5-1.7,1.3
		c0,0.8,0.4,1.2,1.6,2.1l0.4,0.2c1.5,1,2.1,1.9,2.1,2.9c0,0.7-0.3,1.5-1.2,2.1c-0.5,0.3-1.3,0.4-2,0.4
		C167.6,35.5,166.9,35.4,166.4,35.1"/>
	<path class="st0" d="M174.3,29.6c0-1.9,0-2.2,0-2.6c0-0.4-0.1-0.6-0.5-0.7c-0.1,0-0.3,0-0.4,0c0,0-0.1-0.1-0.1-0.1
		c0-0.1,0.1-0.1,0.2-0.1c0.6,0,1.4,0,1.5,0c0.1,0,2.7,0,3,0c0.2,0,0.5-0.1,0.6-0.1c0.1,0,0.1-0.1,0.2-0.1c0,0,0.1,0.1,0.1,0.1
		c0,0.1-0.1,0.2-0.1,0.6c0,0.1,0,0.7-0.1,0.8c0,0.1-0.1,0.1-0.1,0.1c-0.1,0-0.1-0.1-0.1-0.2c0-0.1,0-0.3-0.1-0.4
		c-0.1-0.2-0.2-0.3-0.9-0.4c-0.2,0-1.7,0-1.8,0c-0.1,0-0.1,0-0.1,0.1V30c0,0.1,0,0.1,0.1,0.1c0.2,0,1.8,0,2.1,0c0.3,0,0.5,0,0.6-0.2
		c0.1-0.1,0.1-0.2,0.2-0.2c0,0,0.1,0,0.1,0.1c0,0.1-0.1,0.3-0.1,0.7c0,0.2-0.1,0.7-0.1,0.8c0,0.1,0,0.2-0.1,0.2
		c-0.1,0-0.1,0-0.1-0.1c0-0.1,0-0.2-0.1-0.4c0-0.2-0.2-0.3-0.6-0.4c-0.3,0-1.7-0.1-1.9-0.1c-0.1,0-0.1,0-0.1,0.1v1
		c0,0.4,0,1.8,0,2.1c0,0.8,0.3,1,1.5,1c0.3,0,0.9,0,1.3-0.1c0.3-0.1,0.5-0.4,0.6-0.8c0-0.1,0.1-0.2,0.1-0.2c0.1,0,0.1,0.1,0.1,0.2
		c0,0.1-0.1,0.9-0.2,1.2c-0.1,0.3-0.2,0.3-0.7,0.3c-0.9,0-1.7,0-2.2,0c-0.5,0-0.9,0-1,0c0,0-0.3,0-0.5,0c-0.2,0-0.5,0-0.7,0
		c-0.1,0-0.2,0-0.2-0.1c0,0,0-0.1,0.1-0.1c0.1,0,0.3,0,0.4-0.1c0.2,0,0.3-0.3,0.3-0.6c0.1-0.5,0.1-1.5,0.1-2.6V29.6z"/>
	<path class="st0" d="M183.8,26.3c0.2-0.4,0.2-0.5,0.3-0.5c0.1,0,0.2,0.2,0.3,0.4c0.2,0.5,2.3,5.6,3,7.4c0.5,1.1,0.8,1.3,1.1,1.3
		c0.2,0.1,0.4,0.1,0.5,0.1c0.1,0,0.2,0,0.2,0.1c0,0.1-0.1,0.1-0.3,0.1c-0.2,0-1.1,0-2,0c-0.2,0-0.4,0-0.4-0.1c0-0.1,0-0.1,0.1-0.1
		c0.1,0,0.2-0.1,0.1-0.3l-1.1-2.8c0-0.1,0-0.1-0.1-0.1h-2.9c-0.1,0-0.1,0-0.1,0.1l-0.7,2c-0.1,0.3-0.2,0.6-0.2,0.8
		c0,0.2,0.2,0.3,0.4,0.3h0.1c0.1,0,0.1,0,0.1,0.1c0,0.1-0.1,0.1-0.2,0.1c-0.3,0-1,0-1.1,0c-0.1,0-0.8,0-1.3,0c-0.2,0-0.2,0-0.2-0.1
		c0-0.1,0.1-0.1,0.1-0.1c0.1,0,0.3,0,0.4,0c0.6-0.1,0.8-0.5,1.1-1.1L183.8,26.3z M185.2,31.4C185.3,31.4,185.3,31.4,185.2,31.4
		L184,28c-0.1-0.2-0.1-0.2-0.2,0l-1.2,3.3c0,0.1,0,0.1,0,0.1H185.2z"/>
	<path class="st0" d="M189.5,35.1c-0.2-0.1-0.2-0.1-0.2-0.5c0-0.6,0.1-1.1,0.1-1.3c0-0.1,0-0.2,0.1-0.2c0.1,0,0.1,0,0.1,0.1
		c0,0.1,0,0.3,0,0.4c0.2,0.9,1.1,1.2,2,1.2c1.3,0,1.9-0.7,1.9-1.6c0-0.9-0.5-1.3-1.6-2.1l-0.6-0.4c-1.4-1-1.8-1.8-1.8-2.6
		c0-1.4,1.1-2.3,2.8-2.3c0.5,0,1,0.1,1.3,0.1c0.2,0.1,0.3,0.1,0.4,0.1c0.1,0,0.1,0,0.1,0.1c0,0.1-0.1,0.5-0.1,1.3
		c0,0.2,0,0.3-0.1,0.3c-0.1,0-0.1-0.1-0.1-0.2c0-0.1-0.1-0.5-0.2-0.6c-0.1-0.1-0.5-0.6-1.6-0.6c-0.9,0-1.7,0.5-1.7,1.3
		c0,0.8,0.4,1.2,1.6,2.1l0.4,0.2c1.5,1,2.1,1.9,2.1,2.9c0,0.7-0.3,1.5-1.2,2.1c-0.5,0.3-1.3,0.4-2,0.4
		C190.8,35.5,190.1,35.4,189.5,35.1"/>
	<path class="st0" d="M55.1,40.7c0.2-0.5,0.2-0.6,0.3-0.6c0.1,0,0.1,0.1,0.3,0.5c0.2,0.5,2.5,6.5,3.3,8.7c0.5,1.3,0.9,1.5,1.2,1.6
		c0.2,0.1,0.4,0.1,0.6,0.1c0.1,0,0.1,0,0.1,0.1c0,0.1-0.1,0.1-0.3,0.1c-0.2,0-1.3,0-2.3,0c-0.3,0-0.4,0-0.4-0.1c0-0.1,0-0.1,0.1-0.1
		c0.1,0,0.2-0.2,0.1-0.4l-1.3-3.5c0-0.1-0.1-0.1-0.1-0.1h-3.1c-0.1,0-0.1,0-0.1,0.1l-0.9,2.5c-0.1,0.4-0.2,0.7-0.2,1
		c0,0.3,0.3,0.4,0.5,0.4h0.1c0.1,0,0.1,0,0.1,0.1c0,0.1-0.1,0.1-0.2,0.1c-0.3,0-1,0-1.1,0c-0.2,0-0.9,0-1.6,0c-0.2,0-0.3,0-0.3-0.1
		c0-0.1,0.1-0.1,0.1-0.1c0.1,0,0.3,0,0.4,0c0.7-0.1,0.9-0.6,1.2-1.4L55.1,40.7z M56.6,46.5c0.1,0,0.1,0,0.1-0.1l-1.4-3.9
		c-0.1-0.2-0.1-0.2-0.2,0l-1.3,3.9c0,0.1,0,0.1,0,0.1H56.6z"/>
	<path class="st0" d="M62.9,49.5c0,1,0.1,1.3,0.5,1.4c0.2,0.1,0.5,0.1,0.6,0.1c0.1,0,0.1,0,0.1,0.1c0,0.1-0.1,0.1-0.2,0.1
		c-0.7,0-1.2,0-1.3,0c-0.1,0-0.6,0-1.2,0c-0.1,0-0.2,0-0.2-0.1c0-0.1,0-0.1,0.1-0.1c0.1,0,0.3,0,0.5-0.1c0.3-0.1,0.4-0.4,0.4-1.5v-7
		c0-0.5,0.1-0.6,0.2-0.6c0.1,0,0.4,0.2,0.5,0.4c0.2,0.2,2,2.2,4,4.2c1.3,1.3,2.6,2.7,3,3.1l-0.1-6.1c0-0.8-0.1-1.1-0.5-1.1
		c-0.2,0-0.5-0.1-0.6-0.1c-0.1,0-0.1-0.1-0.1-0.1c0-0.1,0.1-0.1,0.2-0.1c0.6,0,1.2,0,1.3,0c0.1,0,0.6,0,1.1,0c0.1,0,0.2,0,0.2,0.1
		c0,0-0.1,0.1-0.1,0.1c-0.1,0-0.2,0-0.3,0c-0.4,0.1-0.4,0.3-0.4,1.1l0,7.2c0,0.8,0,0.9-0.1,0.9c-0.1,0-0.3-0.1-1-0.7
		c-0.1-0.1-2-1.9-3.3-3.3c-1.5-1.5-2.9-3-3.3-3.5L62.9,49.5z"/>
	<path class="st0" d="M73.7,45.4c0-1.9,0-2.2,0-2.6c0-0.4-0.1-0.6-0.5-0.7c-0.1,0-0.3,0-0.4,0c0,0-0.1-0.1-0.1-0.1
		c0-0.1,0.1-0.1,0.2-0.1c0.6,0,1.4,0,1.5,0c0.1,0,0.9,0,1.7,0c1.3,0,3.6-0.1,5.1,1.4c0.6,0.6,1.2,1.7,1.2,3.1c0,1.5-0.7,2.7-1.4,3.4
		c-0.5,0.6-1.7,1.4-3.8,1.4c-0.5,0-1.2,0-1.8-0.1c-0.5,0-1-0.1-1-0.1c0,0-0.3,0-0.5,0c-0.3,0-0.6,0-0.8,0c-0.1,0-0.2,0-0.2-0.1
		c0,0,0-0.1,0.1-0.1c0.1,0,0.3,0,0.4-0.1c0.2-0.1,0.3-0.3,0.3-0.6c0.1-0.5,0.1-1.5,0.1-2.6V45.4z M74.9,46.7c0,1.3,0,2.4,0,2.7
		c0,0.3,0,0.7,0.1,0.9c0.2,0.2,0.6,0.5,2.1,0.5c1.2,0,2.2-0.4,3-1.1c0.7-0.6,1-1.8,1-2.9c0-1.5-0.7-2.5-1.2-3.1
		c-1.2-1.2-2.6-1.4-4.1-1.4c-0.2,0-0.6,0-0.8,0.1s-0.2,0.1-0.2,0.2V46.7z"/>
	<path class="st0" d="M91.6,47.1c0,1.4,0,2.5,0.1,3.1c0,0.4,0.1,0.7,0.6,0.8c0.2,0,0.5,0.1,0.6,0.1c0.1,0,0.1,0,0.1,0.1
		c0,0.1-0.1,0.1-0.2,0.1c-0.8,0-1.7,0-1.8,0c-0.1,0-1,0-1.4,0c-0.2,0-0.2,0-0.2-0.1c0,0,0-0.1,0.1-0.1c0.1,0,0.3,0,0.4-0.1
		c0.3-0.1,0.4-0.4,0.4-0.8c0.1-0.6,0.1-1.7,0.1-3.1v-2.5c0-2.2,0-2.6,0-3.1c0-0.5-0.2-0.7-0.5-0.8c-0.2,0-0.3-0.1-0.4-0.1
		c-0.1,0-0.1,0-0.1-0.1c0-0.1,0.1-0.1,0.2-0.1c0.5,0,1.4,0,1.5,0c0.1,0,1,0,1.4,0c0.2,0,0.2,0,0.2,0.1c0,0.1-0.1,0.1-0.1,0.1
		c-0.1,0-0.2,0-0.4,0c-0.4,0.1-0.5,0.3-0.5,0.8c0,0.5,0,0.9,0,3.1V47.1z"/>
	<path class="st0" d="M96.6,49.4c0,1,0.1,1.3,0.5,1.4c0.2,0.1,0.5,0.1,0.6,0.1c0.1,0,0.1,0,0.1,0.1c0,0.1-0.1,0.1-0.2,0.1
		c-0.7,0-1.2,0-1.3,0s-0.6,0-1.2,0c-0.1,0-0.2,0-0.2-0.1c0-0.1,0-0.1,0.1-0.1c0.1,0,0.3,0,0.5-0.1c0.3-0.1,0.4-0.4,0.4-1.5v-7
		c0-0.5,0.1-0.6,0.2-0.6c0.1,0,0.4,0.2,0.5,0.4c0.2,0.2,2,2.2,4,4.2c1.3,1.3,2.6,2.7,3,3.1l-0.1-6.1c0-0.8-0.1-1.1-0.5-1.1
		c-0.2,0-0.5-0.1-0.6-0.1c-0.1,0-0.1-0.1-0.1-0.1c0-0.1,0.1-0.1,0.2-0.1c0.6,0,1.2,0,1.3,0c0.1,0,0.6,0,1.1,0c0.1,0,0.2,0,0.2,0.1
		c0,0-0.1,0.1-0.1,0.1c-0.1,0-0.2,0-0.3,0c-0.4,0.1-0.4,0.3-0.4,1.1l0,7.2c0,0.8,0,0.9-0.1,0.9c-0.1,0-0.3-0.1-1-0.7
		c-0.1-0.1-2-1.9-3.3-3.3c-1.5-1.5-2.9-3-3.3-3.5L96.6,49.4z"/>
	<path class="st0" d="M110.4,49.5c0.7-1.6,2.4-5.8,2.7-6.7c0.1-0.2,0.1-0.4,0.1-0.5c0-0.1,0-0.2-0.2-0.3c-0.1,0-0.3,0-0.4,0
		c-0.1,0-0.1,0-0.1-0.1c0-0.1,0.1-0.1,0.3-0.1c0.5,0,1.1,0,1.2,0c0.1,0,0.6,0,1,0c0.1,0,0.2,0,0.2,0.1c0,0.1,0,0.1-0.1,0.1
		c-0.1,0-0.4,0-0.6,0.1c-0.2,0.1-0.4,0.3-0.7,1.1c-0.1,0.3-0.8,1.8-1.4,3.3c-0.8,1.8-1.3,3.1-1.6,3.7c-0.3,0.7-0.4,0.9-0.5,0.9
		c-0.1,0-0.2-0.2-0.5-0.7l-3.1-7.5c-0.3-0.7-0.5-0.8-0.9-0.9c-0.2,0-0.4,0-0.5,0c-0.1,0-0.1-0.1-0.1-0.1c0-0.1,0.1-0.1,0.3-0.1
		c0.6,0,1.3,0,1.5,0c0.1,0,0.7,0,1.2,0c0.2,0,0.3,0,0.3,0.1c0,0.1,0,0.1-0.1,0.1c-0.1,0-0.3,0-0.5,0.1c-0.1,0.1-0.1,0.1-0.1,0.2
		c0,0.2,0.2,0.5,0.3,1L110.4,49.5z"/>
	<path class="st0" d="M116.7,45.4c0-1.9,0-2.2,0-2.6c0-0.4-0.1-0.6-0.5-0.7c-0.1,0-0.3,0-0.4,0c0,0-0.1-0.1-0.1-0.1
		c0-0.1,0.1-0.1,0.2-0.1c0.6,0,1.4,0,1.5,0c0.1,0,2.7,0,3,0c0.2,0,0.5-0.1,0.6-0.1c0.1,0,0.1-0.1,0.2-0.1c0,0,0.1,0.1,0.1,0.1
		c0,0.1-0.1,0.2-0.1,0.6c0,0.1,0,0.7-0.1,0.8c0,0.1-0.1,0.1-0.1,0.1c-0.1,0-0.1-0.1-0.1-0.2c0-0.1,0-0.3-0.1-0.4
		c-0.1-0.2-0.2-0.3-0.9-0.4c-0.2,0-1.7,0-1.8,0c-0.1,0-0.1,0-0.1,0.1v3.3c0,0.1,0,0.1,0.1,0.1c0.2,0,1.8,0,2.1,0
		c0.3,0,0.5,0,0.6-0.2c0.1-0.1,0.1-0.2,0.2-0.2c0,0,0.1,0,0.1,0.1c0,0.1-0.1,0.3-0.1,0.7c0,0.2-0.1,0.7-0.1,0.8c0,0.1,0,0.2-0.1,0.2
		c-0.1,0-0.1,0-0.1-0.1c0-0.1,0-0.2-0.1-0.4c0-0.2-0.2-0.3-0.6-0.4c-0.3,0-1.7-0.1-1.9-0.1c-0.1,0-0.1,0-0.1,0.1v1
		c0,0.4,0,1.8,0,2.1c0,0.8,0.3,1,1.5,1c0.3,0,0.9,0,1.3-0.1c0.3-0.1,0.5-0.4,0.6-0.8c0-0.1,0.1-0.2,0.1-0.2c0.1,0,0.1,0.1,0.1,0.2
		c0,0.1-0.1,0.9-0.2,1.2c-0.1,0.3-0.2,0.3-0.7,0.3c-0.9,0-1.7,0-2.2,0c-0.5,0-0.9,0-1,0c0,0-0.3,0-0.5,0c-0.2,0-0.5,0-0.7,0
		c-0.1,0-0.2,0-0.2-0.1c0,0,0-0.1,0.1-0.1c0.1,0,0.3,0,0.4-0.1c0.2,0,0.3-0.3,0.3-0.6c0.1-0.5,0.1-1.5,0.1-2.6V45.4z"/>
	<path class="st0" d="M123.2,50.9c-0.2-0.1-0.2-0.1-0.2-0.5c0-0.6,0.1-1.1,0.1-1.3c0-0.1,0-0.2,0.1-0.2c0.1,0,0.1,0,0.1,0.1
		c0,0.1,0,0.3,0,0.4c0.2,0.9,1.1,1.2,2,1.2c1.3,0,1.9-0.7,1.9-1.6c0-0.9-0.5-1.3-1.6-2.1l-0.6-0.4c-1.4-1-1.8-1.8-1.8-2.6
		c0-1.4,1.1-2.3,2.8-2.3c0.5,0,1,0.1,1.3,0.1c0.2,0.1,0.3,0.1,0.4,0.1c0.1,0,0.1,0,0.1,0.1c0,0.1-0.1,0.5-0.1,1.3
		c0,0.2,0,0.3-0.1,0.3c-0.1,0-0.1-0.1-0.1-0.2c0-0.1-0.1-0.5-0.2-0.6c-0.1-0.1-0.5-0.6-1.6-0.6c-0.9,0-1.7,0.5-1.7,1.3
		c0,0.8,0.4,1.2,1.6,2.1l0.4,0.2c1.5,1,2.1,1.9,2.1,2.9c0,0.7-0.3,1.5-1.2,2.1c-0.5,0.3-1.3,0.4-2,0.4
		C124.4,51.2,123.7,51.1,123.2,50.9"/>
	<path class="st0" d="M134.2,47.5c0,1.2,0,2.1,0.1,2.6c0,0.4,0.1,0.6,0.5,0.6c0.2,0,0.5,0.1,0.6,0.1c0.1,0,0.1,0.1,0.1,0.1
		c0,0.1-0.1,0.1-0.2,0.1c-0.7,0-1.5,0-1.6,0c-0.1,0-0.9,0-1.3,0c-0.1,0-0.2,0-0.2-0.1c0,0,0-0.1,0.1-0.1c0.1,0,0.3,0,0.4-0.1
		c0.3-0.1,0.3-0.3,0.4-0.7c0.1-0.5,0.1-1.5,0.1-2.6v-5.1l-1.8,0c-0.8,0-1.1,0.1-1.3,0.4c-0.1,0.2-0.2,0.3-0.2,0.4
		c0,0.1-0.1,0.1-0.1,0.1c0,0-0.1,0-0.1-0.1c0-0.1,0.2-1.2,0.3-1.3c0-0.1,0.1-0.2,0.1-0.2c0.1,0,0.2,0.1,0.6,0.1c0.4,0,0.8,0.1,1,0.1
		h4.8c0.4,0,0.7,0,0.9-0.1c0.2,0,0.3-0.1,0.4-0.1c0.1,0,0.1,0.1,0.1,0.1c0,0.4,0,1.3,0,1.4c0,0.1-0.1,0.2-0.1,0.2
		c-0.1,0-0.1,0-0.1-0.2l0-0.1c0-0.4-0.3-0.6-1.5-0.7l-1.6,0V47.5z"/>
	<path class="st0" d="M149.1,49.5c0,0.4,0.1,1.1,0.6,1.3c0.4,0.1,0.7,0.1,0.8,0.1c0.1,0,0.1,0,0.1,0.1c0,0.1-0.1,0.1-0.3,0.1
		c-0.3,0-1.7,0-2.2-0.1c-0.3,0-0.4-0.1-0.4-0.1c0,0,0-0.1,0.1-0.1c0.1,0,0.1-0.2,0.1-0.4l-0.6-6.2h0l-3,6.2
		c-0.3,0.5-0.3,0.6-0.4,0.6c-0.1,0-0.2-0.1-0.4-0.6c-0.3-0.6-1.2-2.2-1.5-2.8c-0.4-0.8-1.4-2.8-1.6-3.3h-0.1l-0.5,5.5
		c0,0.2,0,0.4,0,0.6c0,0.2,0.1,0.3,0.3,0.3c0.2,0.1,0.4,0.1,0.5,0.1c0,0,0.1,0,0.1,0.1c0,0.1-0.1,0.1-0.2,0.1c-0.5,0-1.1,0-1.2,0
		c-0.1,0-0.7,0-1.1,0c-0.1,0-0.2,0-0.2-0.1c0,0,0.1-0.1,0.1-0.1c0.1,0,0.2,0,0.4,0c0.4-0.1,0.4-0.5,0.5-1l0.9-8
		c0-0.1,0.1-0.2,0.1-0.2c0.1,0,0.2,0,0.3,0.2l3.8,7.6l3.7-7.6c0.1-0.1,0.1-0.2,0.2-0.2c0.1,0,0.2,0.1,0.2,0.3L149.1,49.5z"/>
	<path class="st0" d="M152.5,45.4c0-1.9,0-2.2,0-2.6c0-0.4-0.1-0.6-0.5-0.7c-0.1,0-0.3,0-0.4,0c0,0-0.1-0.1-0.1-0.1
		c0-0.1,0.1-0.1,0.2-0.1c0.6,0,1.4,0,1.5,0c0.1,0,2.7,0,3,0c0.2,0,0.5-0.1,0.6-0.1c0.1,0,0.1-0.1,0.2-0.1c0,0,0.1,0.1,0.1,0.1
		c0,0.1-0.1,0.2-0.1,0.6c0,0.1,0,0.7-0.1,0.8c0,0.1-0.1,0.1-0.1,0.1c-0.1,0-0.1-0.1-0.1-0.2c0-0.1,0-0.3-0.1-0.4
		c-0.1-0.2-0.2-0.3-0.9-0.4c-0.2,0-1.7,0-1.8,0c-0.1,0-0.1,0-0.1,0.1v3.3c0,0.1,0,0.1,0.1,0.1c0.2,0,1.8,0,2.1,0
		c0.3,0,0.5,0,0.6-0.2c0.1-0.1,0.1-0.2,0.2-0.2c0,0,0.1,0,0.1,0.1c0,0.1-0.1,0.3-0.1,0.7c0,0.2-0.1,0.7-0.1,0.8c0,0.1,0,0.2-0.1,0.2
		c-0.1,0-0.1,0-0.1-0.1c0-0.1,0-0.2-0.1-0.4c0-0.2-0.2-0.3-0.6-0.4c-0.3,0-1.7-0.1-1.9-0.1c-0.1,0-0.1,0-0.1,0.1v1
		c0,0.4,0,1.8,0,2.1c0,0.8,0.3,1,1.5,1c0.3,0,0.9,0,1.3-0.1c0.3-0.1,0.5-0.4,0.6-0.8c0-0.1,0.1-0.2,0.1-0.2c0.1,0,0.1,0.1,0.1,0.2
		c0,0.1-0.1,0.9-0.2,1.2c-0.1,0.3-0.2,0.3-0.7,0.3c-0.9,0-1.7,0-2.2,0c-0.5,0-0.9,0-1,0c0,0-0.3,0-0.5,0c-0.2,0-0.5,0-0.7,0
		c-0.1,0-0.2,0-0.2-0.1c0,0,0-0.1,0.1-0.1c0.1,0,0.3,0,0.4-0.1c0.2,0,0.3-0.3,0.3-0.6c0.1-0.5,0.1-1.5,0.1-2.6V45.4z"/>
	<path class="st0" d="M160.6,49.4c0,1,0.1,1.3,0.5,1.4c0.2,0.1,0.5,0.1,0.6,0.1c0.1,0,0.1,0,0.1,0.1c0,0.1-0.1,0.1-0.2,0.1
		c-0.7,0-1.2,0-1.3,0c-0.1,0-0.6,0-1.2,0c-0.1,0-0.2,0-0.2-0.1c0-0.1,0-0.1,0.1-0.1c0.1,0,0.3,0,0.5-0.1c0.3-0.1,0.4-0.4,0.4-1.5v-7
		c0-0.5,0.1-0.6,0.2-0.6c0.1,0,0.4,0.2,0.5,0.4c0.2,0.2,2,2.2,4,4.2c1.3,1.3,2.6,2.7,3,3.1l-0.1-6.1c0-0.8-0.1-1.1-0.5-1.1
		c-0.2,0-0.5-0.1-0.6-0.1c-0.1,0-0.1-0.1-0.1-0.1c0-0.1,0.1-0.1,0.2-0.1c0.6,0,1.2,0,1.3,0c0.1,0,0.6,0,1.1,0c0.1,0,0.2,0,0.2,0.1
		c0,0-0.1,0.1-0.1,0.1c-0.1,0-0.2,0-0.3,0c-0.4,0.1-0.4,0.3-0.4,1.1l0,7.2c0,0.8,0,0.9-0.1,0.9c-0.1,0-0.3-0.1-1-0.7
		c-0.1-0.1-2-1.9-3.3-3.3c-1.5-1.5-2.9-3-3.3-3.5L160.6,49.4z"/>
	<path class="st0" d="M174.4,47.5c0,1.2,0,2.1,0.1,2.6c0,0.4,0.1,0.6,0.5,0.6c0.2,0,0.5,0.1,0.6,0.1c0.1,0,0.1,0.1,0.1,0.1
		c0,0.1-0.1,0.1-0.2,0.1c-0.7,0-1.5,0-1.6,0c-0.1,0-0.9,0-1.3,0c-0.1,0-0.2,0-0.2-0.1c0,0,0-0.1,0.1-0.1c0.1,0,0.3,0,0.4-0.1
		c0.3-0.1,0.3-0.3,0.4-0.7c0.1-0.5,0.1-1.5,0.1-2.6v-5.1l-1.8,0c-0.8,0-1.1,0.1-1.3,0.4c-0.1,0.2-0.2,0.3-0.2,0.4
		c0,0.1-0.1,0.1-0.1,0.1c0,0-0.1,0-0.1-0.1c0-0.1,0.2-1.2,0.3-1.3c0-0.1,0.1-0.2,0.1-0.2c0.1,0,0.2,0.1,0.6,0.1c0.4,0,0.8,0.1,1,0.1
		h4.8c0.4,0,0.7,0,0.9-0.1c0.2,0,0.3-0.1,0.4-0.1c0.1,0,0.1,0.1,0.1,0.1c0,0.4,0,1.3,0,1.4c0,0.1-0.1,0.2-0.1,0.2
		c-0.1,0-0.1,0-0.1-0.2l0-0.1c0-0.4-0.3-0.6-1.5-0.7l-1.6,0V47.5z"/>
	<path class="st0" d="M203.9,31.1c0,1.4,0,2.5,0.1,3.1c0,0.4,0.1,0.7,0.6,0.8c0.2,0,0.5,0.1,0.6,0.1c0.1,0,0.1,0,0.1,0.1
		c0,0.1-0.1,0.1-0.2,0.1c-0.8,0-1.7,0-1.8,0s-1,0-1.4,0c-0.2,0-0.2,0-0.2-0.1c0,0,0-0.1,0.1-0.1c0.1,0,0.3,0,0.4-0.1
		c0.3-0.1,0.4-0.4,0.4-0.8c0.1-0.6,0.1-1.7,0.1-3.1v-2.5c0-2.2,0-2.6,0-3.1c0-0.5-0.2-0.7-0.5-0.8c-0.2,0-0.3-0.1-0.4-0.1
		c-0.1,0-0.1,0-0.1-0.1c0-0.1,0.1-0.1,0.2-0.1c0.5,0,1.4,0,1.5,0s1,0,1.4,0c0.2,0,0.2,0,0.2,0.1c0,0.1-0.1,0.1-0.1,0.1
		c-0.1,0-0.2,0-0.4,0c-0.4,0.1-0.5,0.3-0.5,0.8c0,0.5,0,0.9,0,3.1V31.1z"/>
	<path class="st0" d="M217.8,33.7c0,0.4,0.1,1.1,0.6,1.3c0.4,0.1,0.7,0.1,0.8,0.1c0.1,0,0.1,0,0.1,0.1c0,0.1-0.1,0.1-0.3,0.1
		c-0.3,0-1.7,0-2.2-0.1c-0.3,0-0.4-0.1-0.4-0.1c0,0,0-0.1,0.1-0.1c0.1,0,0.1-0.2,0.1-0.4l-0.6-6.2h0l-3,6.2
		c-0.3,0.5-0.3,0.6-0.4,0.6c-0.1,0-0.2-0.1-0.4-0.6c-0.3-0.6-1.2-2.2-1.5-2.8c-0.4-0.8-1.4-2.8-1.6-3.3H209l-0.5,5.5
		c0,0.2,0,0.4,0,0.6c0,0.2,0.1,0.3,0.3,0.3c0.2,0.1,0.4,0.1,0.5,0.1c0,0,0.1,0,0.1,0.1c0,0.1-0.1,0.1-0.2,0.1c-0.5,0-1.1,0-1.2,0
		c-0.1,0-0.7,0-1.1,0c-0.1,0-0.2,0-0.2-0.1c0,0,0.1-0.1,0.1-0.1c0.1,0,0.2,0,0.4,0c0.4-0.1,0.4-0.5,0.5-1l0.9-8
		c0-0.1,0.1-0.2,0.1-0.2c0.1,0,0.2,0,0.3,0.2l3.8,7.6l3.7-7.6c0.1-0.1,0.1-0.2,0.2-0.2c0.1,0,0.2,0.1,0.2,0.3L217.8,33.7z"/>
	<path class="st0" d="M230.7,33.7c0,0.4,0.1,1.1,0.6,1.3c0.4,0.1,0.7,0.1,0.8,0.1c0.1,0,0.1,0,0.1,0.1c0,0.1-0.1,0.1-0.3,0.1
		c-0.3,0-1.7,0-2.2-0.1c-0.3,0-0.4-0.1-0.4-0.1c0,0,0-0.1,0.1-0.1c0.1,0,0.1-0.2,0.1-0.4l-0.6-6.2h0l-3,6.2
		c-0.3,0.5-0.3,0.6-0.4,0.6c-0.1,0-0.2-0.1-0.4-0.6c-0.3-0.6-1.2-2.2-1.5-2.8c-0.4-0.8-1.4-2.8-1.6-3.3h-0.1l-0.5,5.5
		c0,0.2,0,0.4,0,0.6c0,0.2,0.1,0.3,0.3,0.3c0.2,0.1,0.4,0.1,0.5,0.1c0,0,0.1,0,0.1,0.1c0,0.1-0.1,0.1-0.2,0.1c-0.5,0-1.1,0-1.2,0
		c-0.1,0-0.7,0-1.1,0c-0.1,0-0.2,0-0.2-0.1c0,0,0.1-0.1,0.1-0.1c0.1,0,0.2,0,0.4,0c0.4-0.1,0.4-0.5,0.5-1l0.9-8
		c0-0.1,0.1-0.2,0.1-0.2c0.1,0,0.2,0,0.3,0.2l3.8,7.6l3.7-7.6c0.1-0.1,0.1-0.2,0.2-0.2c0.1,0,0.2,0.1,0.2,0.3L230.7,33.7z"/>
	<path class="st0" d="M235.3,31.7c0,1.2,0,2.1,0.1,2.6c0,0.4,0.1,0.6,0.5,0.6c0.2,0,0.5,0.1,0.6,0.1c0.1,0,0.1,0.1,0.1,0.1
		c0,0.1-0.1,0.1-0.2,0.1c-0.7,0-1.5,0-1.6,0c-0.1,0-0.9,0-1.2,0c-0.1,0-0.2,0-0.2-0.1c0,0,0-0.1,0.1-0.1c0.1,0,0.3,0,0.4-0.1
		c0.2-0.1,0.3-0.3,0.3-0.6c0.1-0.5,0.1-1.5,0.1-2.6v-2.2c0-1.9,0-2.2,0-2.6c0-0.4-0.1-0.6-0.4-0.7c-0.1,0-0.3,0-0.4,0
		c-0.1,0-0.1-0.1-0.1-0.1c0-0.1,0.1-0.1,0.2-0.1c0.4,0,1.2,0,1.3,0c0.1,0,0.9,0,1.3,0c0.1,0,0.2,0,0.2,0.1c0,0-0.1,0.1-0.1,0.1
		c-0.1,0-0.2,0-0.3,0c-0.3,0.1-0.4,0.2-0.4,0.7c0,0.4,0,0.7,0,2.6V31.7z"/>
	<path class="st0" d="M245.1,32.1c0-1,0-1.1-0.5-1.2c-0.1,0-0.3,0-0.4,0c0,0-0.1-0.1-0.1-0.1c0-0.1,0.1-0.1,0.2-0.1
		c0.6,0,1.4,0,1.5,0c0.1,0,0.8,0,1.2,0c0.1,0,0.2,0,0.2,0.1c0,0-0.1,0.1-0.1,0.1c-0.1,0-0.2,0-0.3,0c-0.3,0.1-0.4,0.2-0.5,0.7
		c0,0.4,0,0.7,0,1.3v1.4c0,0.6,0,0.6-0.2,0.7c-0.8,0.4-2,0.5-2.7,0.5c-1,0-2.8-0.1-4.2-1.3c-0.8-0.6-1.5-2-1.5-3.5c0-2,1-3.3,2.1-4
		c1.1-0.7,2.4-0.8,3.4-0.8c0.8,0,1.7,0.1,1.9,0.2c0.3,0.1,0.7,0.1,1,0.1c0.1,0,0.2,0.1,0.2,0.1c0,0.2-0.1,0.5-0.1,1.7
		c0,0.2-0.1,0.3-0.1,0.3c-0.1,0-0.1-0.1-0.1-0.2c0-0.2-0.1-0.5-0.3-0.8c-0.3-0.5-1.3-0.9-2.9-0.9c-0.8,0-1.7,0.1-2.6,0.8
		c-0.7,0.6-1.3,1.7-1.3,3.1c0,1.7,0.9,3,1.3,3.4c1,0.9,2.1,1.3,3.2,1.3c0.4,0,1,0,1.4-0.2c0.2-0.1,0.3-0.1,0.3-0.4V32.1z"/>
	<path class="st0" d="M249.7,29.5c0-1.9,0-2.2,0-2.6c0-0.4-0.1-0.6-0.5-0.7c-0.1,0-0.3,0-0.4,0c0,0-0.1-0.1-0.1-0.1
		c0-0.1,0.1-0.1,0.2-0.1c0.6,0,1.4,0,1.5,0c0.1,0,1.2,0,1.6,0c0.8,0,1.7,0.1,2.4,0.5c0.3,0.2,0.9,0.8,0.9,1.7c0,0.9-0.4,1.8-1.6,2.8
		c1,1.3,1.9,2.4,2.6,3.2c0.7,0.7,1.1,0.8,1.4,0.8c0.2,0,0.4,0,0.4,0c0.1,0,0.1,0.1,0.1,0.1c0,0.1-0.1,0.1-0.3,0.1h-0.8
		c-0.7,0-1-0.1-1.4-0.2c-0.5-0.3-1-0.9-1.7-1.8c-0.5-0.7-1.1-1.5-1.4-1.8c-0.1-0.1-0.1-0.1-0.2-0.1l-1.6,0c-0.1,0-0.1,0-0.1,0.1v0.3
		c0,1.2,0,2.1,0.1,2.6c0,0.4,0.1,0.6,0.5,0.6c0.2,0,0.4,0.1,0.6,0.1c0.1,0,0.1,0.1,0.1,0.1c0,0.1-0.1,0.1-0.2,0.1
		c-0.7,0-1.5,0-1.6,0c0,0-0.9,0-1.3,0c-0.1,0-0.2,0-0.2-0.1c0,0,0-0.1,0.1-0.1c0.1,0,0.3,0,0.4-0.1c0.2-0.1,0.3-0.3,0.3-0.6
		c0.1-0.5,0.1-1.5,0.1-2.6V29.5z M250.8,30.6c0,0.1,0,0.1,0.1,0.2c0.2,0.1,0.8,0.2,1.4,0.2c0.3,0,0.6,0,0.9-0.2
		c0.4-0.3,0.8-0.9,0.8-1.9c0-1.5-0.8-2.4-2.2-2.4c-0.4,0-0.8,0-0.9,0.1c-0.1,0-0.1,0.1-0.1,0.1V30.6z"/>
	<path class="st0" d="M261,26.2c0.2-0.4,0.2-0.5,0.3-0.5c0.1,0,0.2,0.2,0.3,0.4c0.2,0.5,2.3,5.6,3,7.4c0.5,1.1,0.8,1.3,1.1,1.3
		c0.2,0.1,0.4,0.1,0.5,0.1c0.1,0,0.2,0,0.2,0.1c0,0.1-0.1,0.1-0.3,0.1c-0.2,0-1.1,0-2,0c-0.2,0-0.4,0-0.4-0.1c0-0.1,0-0.1,0.1-0.1
		c0.1,0,0.2-0.1,0.1-0.3l-1.1-2.8c0-0.1,0-0.1-0.1-0.1h-2.9c-0.1,0-0.1,0-0.1,0.1l-0.7,2c-0.1,0.3-0.2,0.6-0.2,0.8
		c0,0.2,0.2,0.3,0.4,0.3h0.1c0.1,0,0.1,0,0.1,0.1c0,0.1-0.1,0.1-0.2,0.1c-0.3,0-1,0-1.1,0c-0.1,0-0.8,0-1.3,0c-0.2,0-0.2,0-0.2-0.1
		c0-0.1,0.1-0.1,0.1-0.1c0.1,0,0.3,0,0.4,0c0.6-0.1,0.8-0.5,1.1-1.1L261,26.2z M262.4,31.3C262.5,31.3,262.5,31.3,262.4,31.3
		l-1.2-3.4c-0.1-0.2-0.1-0.2-0.2,0l-1.2,3.3c0,0.1,0,0.1,0,0.1H262.4z"/>
	<path class="st0" d="M269.5,31.7c0,1.2,0,2.1,0.1,2.6c0,0.4,0.1,0.6,0.5,0.6c0.2,0,0.5,0.1,0.6,0.1c0.1,0,0.1,0.1,0.1,0.1
		c0,0.1-0.1,0.1-0.2,0.1c-0.7,0-1.5,0-1.6,0c-0.1,0-0.9,0-1.3,0c-0.1,0-0.2,0-0.2-0.1c0,0,0-0.1,0.1-0.1c0.1,0,0.3,0,0.4-0.1
		c0.3-0.1,0.3-0.3,0.4-0.7c0.1-0.5,0.1-1.5,0.1-2.6v-5.1l-1.8,0c-0.8,0-1.1,0.1-1.3,0.4c-0.1,0.2-0.2,0.3-0.2,0.4
		c0,0.1-0.1,0.1-0.1,0.1c0,0-0.1,0-0.1-0.1c0-0.1,0.2-1.2,0.3-1.3c0-0.1,0.1-0.2,0.1-0.2c0.1,0,0.2,0.1,0.6,0.1c0.4,0,0.8,0.1,1,0.1
		h4.8c0.4,0,0.7,0,0.9-0.1c0.2,0,0.3-0.1,0.4-0.1c0.1,0,0.1,0.1,0.1,0.1c0,0.4,0,1.3,0,1.4c0,0.1-0.1,0.2-0.1,0.2
		c-0.1,0-0.1,0-0.1-0.2l0-0.1c0-0.4-0.3-0.6-1.5-0.7l-1.6,0V31.7z"/>
	<path class="st0" d="M276.3,31.7c0,1.2,0,2.1,0.1,2.6c0,0.4,0.1,0.6,0.5,0.6c0.2,0,0.5,0.1,0.6,0.1c0.1,0,0.1,0.1,0.1,0.1
		c0,0.1-0.1,0.1-0.2,0.1c-0.7,0-1.5,0-1.6,0c-0.1,0-0.9,0-1.3,0c-0.1,0-0.2,0-0.2-0.1c0,0,0-0.1,0.1-0.1c0.1,0,0.3,0,0.4-0.1
		c0.2-0.1,0.3-0.3,0.3-0.6c0.1-0.5,0.1-1.5,0.1-2.6v-2.2c0-1.9,0-2.2,0-2.6c0-0.4-0.1-0.6-0.4-0.7c-0.1,0-0.3,0-0.4,0
		c-0.1,0-0.1-0.1-0.1-0.1c0-0.1,0.1-0.1,0.2-0.1c0.4,0,1.2,0,1.3,0c0.1,0,0.9,0,1.3,0c0.1,0,0.2,0,0.2,0.1c0,0-0.1,0.1-0.1,0.1
		c-0.1,0-0.2,0-0.3,0c-0.3,0.1-0.4,0.2-0.4,0.7c0,0.4,0,0.7,0,2.6V31.7z"/>
	<path class="st0" d="M283.8,25.8c2.8,0,5,1.7,5,4.6c0,2.7-2,5-5.1,5c-3.5,0-4.9-2.6-4.9-4.8C278.8,28.6,280.3,25.8,283.8,25.8
		 M284.1,34.9c1.1,0,3.4-0.6,3.4-4.1c0-2.9-1.8-4.5-3.8-4.5c-2.1,0-3.6,1.3-3.6,4C280.1,33.1,281.8,34.9,284.1,34.9"/>
	<path class="st0" d="M291.6,33.6c0,1,0.1,1.3,0.5,1.4c0.2,0.1,0.5,0.1,0.6,0.1c0.1,0,0.1,0,0.1,0.1c0,0.1-0.1,0.1-0.2,0.1
		c-0.7,0-1.2,0-1.3,0c-0.1,0-0.6,0-1.2,0c-0.1,0-0.2,0-0.2-0.1c0-0.1,0-0.1,0.1-0.1c0.1,0,0.3,0,0.5-0.1c0.3-0.1,0.4-0.4,0.4-1.5v-7
		c0-0.5,0.1-0.6,0.2-0.6c0.1,0,0.4,0.2,0.5,0.4c0.2,0.2,2,2.2,4,4.2c1.3,1.3,2.6,2.7,3,3.1l-0.1-6.1c0-0.8-0.1-1.1-0.5-1.1
		c-0.2,0-0.5-0.1-0.6-0.1c-0.1,0-0.1-0.1-0.1-0.1c0-0.1,0.1-0.1,0.2-0.1c0.6,0,1.2,0,1.3,0c0.1,0,0.6,0,1.1,0c0.1,0,0.2,0,0.2,0.1
		c0,0-0.1,0.1-0.1,0.1c-0.1,0-0.2,0-0.3,0c-0.4,0.1-0.4,0.3-0.4,1.1l0,7.2c0,0.8,0,0.9-0.1,0.9c-0.1,0-0.3-0.1-1-0.7
		c-0.1-0.1-2-1.9-3.3-3.3c-1.5-1.5-2.9-3-3.3-3.5L291.6,33.6z"/>
	<g>
		<path class="st1" d="M104.6,8h-2.2v0.4c0.1,0.2,0.3,0.3,0.4,0.4c0.7,0.7,1.3,1.4,1.8,2.1c0,0.1,0.1,0.1,0.2,0.2l-0.9,1.4l-0.7-1.2
			c-0.4-0.6-0.6-1-0.7-1.1v8.5h-1.7v-8.6c-0.6,1.6-1.3,3-2.1,4.2l-0.8-1.8c1-1.3,1.8-2.9,2.4-4.6h-2.3V6.5h2.8V3.9l-1.2,0.2
			l-1.3,0.2l-0.4-1.6c0.4-0.1,0.7-0.1,1-0.1c2-0.2,3.7-0.6,5.3-1.1l0.7,1.4c-0.3,0.1-0.7,0.3-1.2,0.4l-1.2,0.3v2.9h2.2V8z M105,14.6
			l-1.2-1.4c2.7-0.8,4.8-2.4,6.5-4.6c-1.1,0.7-2.6,1.5-4.7,2.2l-1.1-1.5c0.3-0.1,0.6-0.2,0.8-0.2c1.4-0.4,2.6-0.9,3.7-1.6
			c-0.1-0.1-0.2-0.1-0.2-0.2c-0.2-0.2-0.4-0.4-0.5-0.5l-1-0.8l1.2-0.9l1,0.8c0.2,0.1,0.4,0.3,0.6,0.5c0.1,0.1,0.2,0.1,0.3,0.2
			c1.1-0.9,1.9-1.8,2.6-2.6h-4.4c-0.6,0.8-1.5,1.4-2.6,2c-0.2,0.1-0.3,0.2-0.6,0.3l-1.1-1.3c1.8-0.8,3.3-2.1,4.6-3.8l1.5,0.4
			l-0.3,0.5l-0.4,0.5h5.2V4c-0.9,1.4-2.1,2.8-3.6,4l1.1,0.5l-0.5,0.8l-0.4,0.6h3.9v1.3c-0.7,1.7-1.5,3.1-2.5,4.2
			c-1,1.1-2.4,1.9-4.1,2.4c-1.7,0.6-3,0.9-3.9,0.9l-1.1-1.6c2.5-0.3,4.6-0.8,6.3-1.6c-0.1-0.1-0.1-0.1-0.1-0.1
			c-0.5-0.6-1.1-1.1-1.8-1.5l1.3-1c0.1,0.1,0.1,0.1,0.2,0.1c0.8,0.5,1.4,1,1.8,1.5c0.7-0.6,1.4-1.6,2.1-2.9l0.2-0.3H110
			C108.9,12.6,107.2,13.7,105,14.6"/>
		<path class="st1" d="M130.4,7.7l0.1,1.1c0.1,0.5,0.1,0.9,0.2,1.1h6.9v1.7h-6.5l0.3,0.9c0.5,1.2,1.1,2.2,1.8,3
			c0.7,0.8,1.3,1.2,1.7,1.2c0.3,0,0.5-0.2,0.6-0.6c0.1-0.4,0.3-1.2,0.5-2.4l1.7,1c-0.2,1.3-0.5,2.3-0.9,3c-0.4,0.7-0.9,1-1.5,1
			c-1,0-2-0.5-3-1.5c-1-1-1.9-2.4-2.5-4.2l-0.5-1.3h-5.6v4.6l2.6-0.6c1.2-0.3,2.1-0.6,2.9-0.8v1.8c-2.4,0.9-5.2,1.6-8.4,2.3
			l-0.6-1.9l1-0.2l0.6-0.1V2.1h14.6v5.6H130.4z M134.8,3.8h-11v2.3h11V3.8z M123.8,7.7v2.2h5.2c-0.1-0.5-0.2-0.9-0.2-1.1l-0.1-1.1
			H123.8z"/>
		<path class="st1" d="M148.4,10.2l1-0.2l1.2-0.3v1.8c-0.4,0.2-0.8,0.3-1.1,0.4l-1.1,0.3v4.4v0.2c0,0.7-0.1,1.1-0.4,1.5
			c-0.2,0.3-0.8,0.5-1.8,0.5h-1.6l-0.4-1.9l1.8,0.1c0.4,0,0.6-0.2,0.6-0.6v-3.8c-0.2,0.1-0.6,0.1-1.1,0.2l-1.2,0.2l-0.4-1.9
			c0.2,0,0.4,0,0.6,0c0.2,0,0.5,0,0.8-0.1l1.3-0.2V6.7h-2.5V5h2.5V1.3h1.8V5h2.4v1.7h-2.4V10.2z M160,10.8c-0.5,1.8-1.4,3.4-2.8,4.7
			c1.1,0.6,2.5,1.1,4.2,1.6l-0.9,1.7c-1.8-0.5-3.4-1.2-4.9-2.2c-1.2,0.8-2.9,1.5-5.2,2.2l-1-1.7c2.1-0.4,3.8-1,4.9-1.7l-0.5-0.5
			c-0.5-0.5-1.1-1.2-1.7-2.1c-0.1-0.1-0.2-0.3-0.4-0.6l1.5-0.8c0.6,0.9,1.4,1.8,2.3,2.7l0.2,0.2c1-0.9,1.8-2,2.4-3.5h-6.9V9.3h8.8
			V10.8z M158.9,5.9c0,0.4,0.1,0.7,0.2,0.8c0.1,0.1,0.3,0.2,0.7,0.2h1.4v1.6h-2c-0.7,0-1.2-0.2-1.5-0.5c-0.3-0.3-0.5-0.9-0.5-1.8
			V3.4h-3V4c0,1.1-0.2,2.1-0.6,2.8c-0.4,0.8-1.1,1.5-2,2.3L150,7.7c1-0.6,1.6-1.3,1.9-1.9c0.3-0.6,0.4-1.4,0.4-2.4V1.8h6.6V5.9z"/>
		<path class="st1" d="M171.8,6.5c-0.7,0.5-2,1-4,1.6l-0.5-1.7c0.2-0.1,0.4-0.1,0.6-0.2c1.5-0.4,2.7-0.8,3.5-1.3L171.8,6.5z
			 M174.6,17.2c-2,0.6-3.9,1.1-5.8,1.4c-0.2,0-0.4,0.1-0.6,0.1l-0.8-1.4c2.7-0.4,4.7-0.9,6.1-1.3L174.6,17.2z M170.8,4.6
			c-0.3-0.2-0.8-0.5-1.6-0.9l-1.4-0.7l1.1-1.3c1.2,0.4,2.2,1,3,1.6L170.8,4.6z M173,8l-0.9-1c2.3-0.7,3.9-1.7,4.7-3H175
			c-0.1,0.1-0.2,0.1-0.2,0.2c-0.4,0.4-0.7,0.6-0.9,0.7l-1.2,0.8l-1.1-1.2c1.2-0.8,2.1-1.4,2.5-1.8c0.4-0.4,0.9-0.9,1.3-1.5l1.6,0.5
			l-0.4,0.5l-0.4,0.4h7.4V4c-0.4,0.5-1,1-1.8,1.6c-0.1,0.1-0.3,0.2-0.5,0.4l-1-1l0.8-0.5l0.6-0.5h-3.3l-0.2,0.3
			c1,0.9,1.9,1.5,2.6,1.8c0.7,0.3,1.9,0.6,3.7,0.9l-0.5,1.6l-0.8-0.2l-0.7-0.2v7.6h-13.3V8H173z M180.9,9.3h-9.8v0.9h9.8V9.3z
			 M171.1,12.3h9.8v-1h-9.8V12.3z M171.1,14.6h9.8v-1.1h-9.8V14.6z M177.6,5.5l-0.6,0.6c-0.9,0.9-2,1.5-3.3,1.9h8.1
			C180.3,7.7,178.9,6.8,177.6,5.5 M183.9,18.7L181,18c-0.5-0.1-1.4-0.3-2.6-0.5c-0.2,0-0.4-0.1-0.7-0.2l0.9-1.3l1.1,0.2
			c1.9,0.3,3.6,0.7,5,1.1L183.9,18.7z"/>
		<path class="st1" d="M56.5,16.9c-2,0.7-4,1.2-6.1,1.5l-0.2-1.7l1.5-0.2c0.4-0.1,0.9-0.1,1.2-0.2v-5.9h-2.5V9h2.5V7.3h-1.6V6.6
			l-0.6,0.6L50,5.4c1.4-1.3,2.4-2.6,3-4.1h1.3c0.9,1,1.8,2.2,2.5,3.5l-1.3,1l-0.9-1.6c-0.2-0.3-0.4-0.6-0.5-0.9
			C54,3.3,54,3.1,53.9,3c-0.1,0.2-0.2,0.4-0.3,0.5c-0.4,0.8-1,1.6-1.7,2.4h4.1v1.5h-1.8V9h2.2v1.5h-2.2V16l1.1-0.3
			c0.3-0.1,0.6-0.2,1-0.3L56.5,16.9z M50.9,15.6c-0.1-1.5-0.2-2.7-0.5-3.8l1.2-0.2c0.2,0.7,0.4,1.8,0.6,3.4c0,0.1,0,0.2,0,0.4
			L50.9,15.6z M56.3,11.6l-0.1,1.6c-0.1,0.8-0.1,1.3-0.2,1.7l-1.2-0.2c0-0.1,0-0.2,0-0.3c0.2-1.1,0.3-1.8,0.3-2.2c0-0.4,0-0.6,0-0.7
			L56.3,11.6z M63,1.2v0.9h4.6v1.3H63v0.7h3.9v1.2h-9.2V4.2h3.7V3.4h-4.7V2.2h4.7V1.2H63z M66.3,14.9v1.7v0.2c0,0.7-0.1,1.2-0.4,1.5
			c-0.3,0.3-0.8,0.4-1.6,0.4h-1l-0.4-1.4l1.3,0c0.4,0,0.6-0.2,0.6-0.6v-1.9h-3.1v-1.2h3.1v-0.9h-8.1v-1.3h10.9v1.3h-1.4v0.9h1.4v1.2
			H66.3z M65.5,8.7c0.2-0.4,0.4-0.8,0.5-1.3c0,0,0-0.1,0-0.1h-9.1V6h10.8c0,1.1-0.3,2.1-0.8,3.1L65.5,8.7z M65,7.9V9h-2.5v0.7h4.3
			v1.2h-9.7V9.8h3.8V9h-3.2V7.9H65z M57.2,13.5h4v4.8h-1.4v-0.8h-1.2v1h-1.4V13.5z M59.8,14.7h-1.2v1.7h1.2V14.7z M62.8,17.2
			c-0.1-0.2-0.3-0.5-0.5-0.8l-0.5-0.7l1-0.6c0.2,0.2,0.4,0.4,0.6,0.7l0.6,0.8L62.8,17.2z"/>
		<path class="st1" d="M73.5,7.6V5.9h2V1.2h1.7v4.6h1.5v1.7h-1.5v11.3h-1.7V7.6H73.5z M85.4,1.2v1.7h2.7C88.1,2.8,88,2.8,88,2.7
			c-0.1-0.1-0.2-0.2-0.3-0.3l-0.6-0.5l1.2-0.7L89,1.7c0.1,0.1,0.3,0.3,0.5,0.5l0.1,0.1l-1,0.5h2.6v1.5h-5.7v0.8h4.9v5.6v0.4
			c0,0.6-0.1,1-0.3,1.2c-0.2,0.2-0.6,0.3-1.1,0.5v0.6h2.2v1.6H89v1.8v0.4c0,1.1-0.6,1.6-1.7,1.6h-2l-0.4-1.7l1.9,0.1
			c0.4,0,0.6-0.2,0.6-0.5v-1.7h-5.5c0.1,0.1,0.2,0.2,0.3,0.3c0.2,0.2,0.4,0.4,0.7,0.7l1.1,1.2l-1.4,1.2c-0.5-0.7-1.1-1.4-1.7-2.1
			l-0.3-0.3l1.2-1h-3.3v-1.6h9v-0.6h-0.5l-0.4-1.3l1.8,0c0.2,0,0.3,0,0.4-0.1s0.1-0.2,0.1-0.4v-0.3h-3.3v1.6h-1.6v-1.6h-2.9v2h-1.6
			V5.2h4.5V4.4h-5V2.9h5V1.2H85.4z M83.8,7.4V6.5h-2.9v0.9H83.8z M83.8,9.6v-1h-2.9v1H83.8z M88.8,7.4V6.5h-3.3v0.9H88.8z M88.8,9.6
			v-1h-3.3v1H88.8z"/>
	</g>
	<g>
		<g>
			<path class="st1" d="M23.6,33.6c0.2,0.2,0.4,0.5,0.7,0.5c0.1,0,0.3-0.1,0.4-0.1c0.1,0,0.2,0,0.2,0.1c0,0.1,0.1,0.1,0.2,0.1
				c0.2,0,0.3,0.1,0.2,0.3c-0.1,0.2-0.1,0.4,0,0.6c0.2,0.3,0.1,0.7,0,1.1c0,0.1-0.2,0.3-0.3,0.4c-0.1,0.2-0.2,0.3-0.2,0.5
				c0,0,0,0.1,0,0.1c-0.2,0.5-0.2,1-0.5,1.4c0,0,0,0.1-0.1,0.1c0,0,0,0.1,0,0.1c0,0,0.1,0,0.1,0c0.5-0.1,1-0.3,1.4-0.7
				c0.2-0.2,0.5-0.3,0.6-0.6c0.2-0.2,0.4-0.4,0.6-0.6c0,0,0.1,0,0.1,0c-0.1,0.1-0.1,0.2-0.2,0.3c-0.4,0.4-0.2,0.8-0.2,1
				c0,0.3,0.5,0,0.7,0.2c-0.5,0.7-1.1,1.3-1.8,1.9c-1.3,1.1-2.9,1.9-4.7,2.2c2.1-0.2,3.9-1.1,5.5-2.3c2.3-1.9,3.8-4.8,3.8-8
				c0-0.8-0.1-1.6-0.3-2.3C28,31.1,25.8,32.4,23.6,33.6z"/>
			<g>
				<path class="st1" d="M14,38.2c0.7-0.2,1.4-0.6,2.2-0.9c0,0,0,0,0,0c0,0,0.1-0.3,0.1-0.3c0-0.1,0.5-0.1,0.9-0.1
					c0.1-0.1,0.3-0.1,0.4-0.2c-0.1-0.1-0.4-0.3-0.7-0.5c-1.3,0.4-2.4,0.7-3.3,0.9c-0.2,0.3-0.4,0.5-0.4,0.6c0,0.3-0.2,0.2-0.2,0.5
					C13,38.4,13.8,38.2,14,38.2z"/>
				<path class="st1" d="M17.6,39.9c-0.3,0.2-0.6,0.4-0.9,0.6c-0.1,0.1-0.2,0.2-0.1,0.3c0.2,0.2,0.3,0.1,0.5,0.1
					c0.1,0,0.1-0.1,0-0.2c-0.1-0.1-0.1-0.1-0.2-0.1c-0.1-0.1,1.4-0.1,1.4-0.2c0,0,0-0.1,0-0.1c0-0.2,0-0.2-0.1-0.2
					C18.3,40,17.9,39.9,17.6,39.9z"/>
			</g>
			<path class="st1" d="M12.8,32.9l0-0.4l0.6-2.4l0.8-0.7c-0.3-0.5,0.6-1.9,0.6-1.9l0.9,0.1l0.7-0.2c0.4,0.4,1.1,1,1.5,1.3
				c0.3,0.2,0.6,0.1,0.9,0.1c0.1,0,0.1-0.2,0-0.3c-0.1-0.1-0.2-0.2-0.3-0.2c-0.2-0.1-0.2-0.2-0.1-0.4c0-0.1,0.1-0.1,0.1-0.2
				c0.1-0.3,0.1-0.3-0.2-0.3c-0.1,0-0.2-0.1-0.3-0.2C17.9,27,18,27,18,26.9c0.1-0.1,0.1-0.2,0.1-0.3c-0.1,0-0.2,0-0.2-0.1
				c0,0-0.1-0.1-0.1-0.1c0-0.1,0.1-0.1,0.1-0.1c0.3-0.1,0.6-0.2,1-0.4c0.1,0,0.1-0.1,0.2-0.1c0.3-0.4,1.3-0.5,1.5-0.9
				c0.1-0.1,0.1-0.2,0.1-0.3c0-0.1,0-0.2-0.1-0.3c-0.1-0.2,0-0.4,0.2-0.6c0,0,0.1,0,0.1-0.1c0.1,0,0.2,0,0.3,0
				c0.3,0.1,0.5-0.1,0.8-0.3c0,0,0.1-0.4,0.1-0.5c0-0.1,0.1-0.1,0.2-0.1c0.1,0,0.2,0,0.3,0c0.2,0,0.4,0,0.7,0c0.1,0,0.1,0.1,0.2,0.1
				c0.2,0.1,0.5,0.2,0.7,0.3l0.4,0.8c0.3,0.1,0.1,0.9,0.4,1.1c0.2,0.1,0.3,0.2,0.5,0.4c0.1,0.1,0.2,0.1,0.3,0.2c0,0,0,0,0,0
				c-0.3-0.1-0.6-0.1-0.8-0.2c-0.3-0.1-0.6,0-0.6,0.4c0,0.2,0,0.3-0.2,0.4c0,0,0,0.1,0,0.1c0.1,0.1,0.2,0.3,0.3,0.4
				c0.1,0.1,0.2,0.1,0.2,0.3c0,0,0,0,0,0.1c-0.1,0.1-0.2,0.2-0.3,0.2c-0.1-0.1-0.2-0.2-0.3-0.2c-0.1-0.1-0.1-0.2-0.2-0.3
				c-0.1-0.1-0.2-0.2-0.3-0.2c0,0-0.1,0-0.2,0.1c0,0.2-0.1,0.3-0.2,0.3c0,0-0.1,0.1-0.1,0.2c0,0,0,0,0,0.1c0,0.1,0,0.2,0,0.2
				c0.1,0,0.2,0,0.3-0.1c0,0,0.1,0,0.1,0c0,0.1-0.2,0.3,0.1,0.3c0,0.2,0,0.3,0.2,0.3c0.1,0,0.2,0.1,0.1,0.3c-0.1,0-0.2,0-0.3,0
				c-0.3,0-0.4,0.1-0.3,0.3c0,0.1,0,0.1,0,0.2c-0.1,0.2,0,0.3,0.1,0.5c0,0,0.1,0,0.1,0c0.3-0.1,0.7-0.3,1-0.4c0,0,0-0.1,0.1-0.1
				c0.1,0,0.1-0.1,0.2-0.2c0,0,0,0,0,0c0.1,0,0.2,0,0.3,0c0,0,0,0.1,0,0.1c1.2-0.6,2.5-1.1,3.9-1.8c-1.8-3.1-5.1-5.3-9-5.3
				c-4.2,0-7.9,2.5-9.5,6.2c1.2-2.2,3.2-4,5.6-4.9c-0.2,0.2-0.4,0.5-0.5,0.8c-0.5,0.3-1,0.5-1.3,0.8c0,0.1-0.3,1.6-0.3,1.6l-0.6,0.7
				l-0.6,0.7c0,0-1.3,0.7-1.7,1.1c-0.5,0.5-0.8,0.7-1.2,0.9c-0.4,1.6-0.3,3-0.2,3.6C10.5,33.3,11.6,33.1,12.8,32.9z M25.1,27.1
				c0-0.2,0-0.3,0.1-0.4c0.3,0,0.3,0.2,0.3,0.4C25.3,27,25.2,27,25.1,27.1z"/>
		</g>
		<g>
			<path class="st2" d="M30.1,26.3c1.1-0.6,2.3-1.2,3.5-1.8l-3.2-3.2h-5.8C26.9,22.3,28.9,24.1,30.1,26.3z"/>
			<path class="st2" d="M35.1,26c-1.1,0.8-2.4,1.8-4,2.9c0.2,0.7,0.4,1.5,0.4,2.3l8.7,0L35.1,26z"/>
		</g>
		<path class="st1" d="M31.6,32.7c-0.3,5.9-5,10.7-11,11v8.7l19.7-19.7L31.6,32.7z"/>
		<path class="st1" d="M3.6,31.3l4.7,0c0.4-6.1,5.4-10.9,11.6-10.9c0.1,0,0.2,0,0.3,0l8.9-8.9V1.6L2.6,28.2
			C2.6,28.7,2.7,30.1,3.6,31.3z"/>
		<g>
			<path class="st2" d="M13.1,42.5c-0.9,0.4-1.9,0.7-2.8,1l8.9,8.9v-8.7C17.3,43.6,15.5,43,14,42C13.7,42.2,13.4,42.3,13.1,42.5z"/>
		</g>
		<g>
			<path class="st2" d="M1.9,27.8c0,0-2.4,16.8,35.1-4.2c0,0-10.8,8.9-18.8,11.5c-5.4,1.7-6.8,2-10.1,2c-3.3,0-6.1-0.7-7.2-2.6
				C-0.4,32.6-0.5,30.2,1.9,27.8"/>
			<path class="st2" d="M9.7,37.9C9,37.9,8.2,38,7.3,38c-0.6,0-1.2,0-1.7-0.1l0,0.4c0,0.1,0.1,0.5,0.6,0.8c0.5,0.3,1.7,0.6,4.3,0.1
				C10.2,38.7,10,38.3,9.7,37.9"/>
			<path class="st2" d="M1.9,27.8c0,0-2.4,16.8,35.1-4.2c0,0-10.8,8.9-18.8,11.5c-5.4,1.7-6.8,2-10.1,2c-3.3,0-6.1-0.7-7.2-2.6
				C-0.4,32.6-0.5,30.2,1.9,27.8"/>
			<path class="st1" d="M4.7,38.3c0,0,0.3,5.7,16-2.2c-2.7,2.7-4.5,4-8,5.6c-2.8,1.2-6.5,2-8,1.3C2.9,42.3,3.7,40.5,4.7,38.3"/>
		</g>
	</g>
</g>
</svg>
